<svg width="1155" height="1155" viewBox="0 0 1155 1155" xmlns="http://www.w3.org/2000/svg" xmlns:xlink="http://www.w3.org/1999/xlink" id="Layer_1" xml:space="preserve" overflow="hidden"><rect x="0" y="0" width="1155" height="1155" fill="#FFFFFF"/><g transform="translate(70 70)"><g transform="matrix(0.35 0 0 0.35 280 0)"><g><rect x="0" y="0" width="100" height="100"/></g></g><g transform="matrix(0.35 0 0 0.35 315 0)"><g><rect x="0" y="0" width="100" height="100"/></g></g><g transform="matrix(0.35 0 0 0.35 350 0)"><g><rect x="0" y="0" width="100" height="100"/></g></g><g transform="matrix(0.35 0 0 0.35 385 0)"><g><rect x="0" y="0" width="100" height="100"/></g></g><g transform="matrix(0.35 0 0 0.35 455 0)"><g><rect x="0" y="0" width="100" height="100"/></g></g><g transform="matrix(0.35 0 0 0.35 490 0)"><g><rect x="0" y="0" width="100" height="100"/></g></g><g transform="matrix(0.35 0 0 0.35 525 0)"><g><rect x="0" y="0" width="100" height="100"/></g></g><g transform="matrix(0.35 0 0 0.35 630 0)"><g><rect x="0" y="0" width="100" height="100"/></g></g><g transform="matrix(0.35 0 0 0.35 280 35)"><g><rect x="0" y="0" width="100" height="100"/></g></g><g transform="matrix(0.35 0 0 0.35 315 35)"><g><rect x="0" y="0" width="100" height="100"/></g></g><g transform="matrix(0.35 0 0 0.35 350 35)"><g><rect x="0" y="0" width="100" height="100"/></g></g><g transform="matrix(0.35 0 0 0.35 385 35)"><g><rect x="0" y="0" width="100" height="100"/></g></g><g transform="matrix(0.35 0 0 0.35 420 35)"><g><rect x="0" y="0" width="100" height="100"/></g></g><g transform="matrix(0.35 0 0 0.35 455 35)"><g><rect x="0" y="0" width="100" height="100"/></g></g><g transform="matrix(0.35 0 0 0.35 490 35)"><g><rect x="0" y="0" width="100" height="100"/></g></g><g transform="matrix(0.35 0 0 0.35 525 35)"><g><rect x="0" y="0" width="100" height="100"/></g></g><g transform="matrix(0.35 0 0 0.35 630 35)"><g><rect x="0" y="0" width="100" height="100"/></g></g><g transform="matrix(0.35 0 0 0.35 665 35)"><g><rect x="0" y="0" width="100" height="100"/></g></g><g transform="matrix(0.35 0 0 0.35 700 35)"><g><rect x="0" y="0" width="100" height="100"/></g></g><g transform="matrix(0.35 0 0 0.35 280 70)"><g><rect x="0" y="0" width="100" height="100"/></g></g><g transform="matrix(0.35 0 0 0.35 315 70)"><g><rect x="0" y="0" width="100" height="100"/></g></g><g transform="matrix(0.35 0 0 0.35 455 70)"><g><rect x="0" y="0" width="100" height="100"/></g></g><g transform="matrix(0.35 0 0 0.35 490 70)"><g><rect x="0" y="0" width="100" height="100"/></g></g><g transform="matrix(0.35 0 0 0.35 630 70)"><g><rect x="0" y="0" width="100" height="100"/></g></g><g transform="matrix(0.35 0 0 0.35 665 70)"><g><rect x="0" y="0" width="100" height="100"/></g></g><g transform="matrix(0.35 0 0 0.35 700 70)"><g><rect x="0" y="0" width="100" height="100"/></g></g><g transform="matrix(0.35 0 0 0.35 315 105)"><g><rect x="0" y="0" width="100" height="100"/></g></g><g transform="matrix(0.35 0 0 0.35 420 105)"><g><rect x="0" y="0" width="100" height="100"/></g></g><g transform="matrix(0.35 0 0 0.35 490 105)"><g><rect x="0" y="0" width="100" height="100"/></g></g><g transform="matrix(0.35 0 0 0.35 525 105)"><g><rect x="0" y="0" width="100" height="100"/></g></g><g transform="matrix(0.35 0 0 0.35 595 105)"><g><rect x="0" y="0" width="100" height="100"/></g></g><g transform="matrix(0.35 0 0 0.35 280 140)"><g><rect x="0" y="0" width="100" height="100"/></g></g><g transform="matrix(0.35 0 0 0.35 420 140)"><g><rect x="0" y="0" width="100" height="100"/></g></g><g transform="matrix(0.35 0 0 0.35 455 140)"><g><rect x="0" y="0" width="100" height="100"/></g></g><g transform="matrix(0.35 0 0 0.35 525 140)"><g><rect x="0" y="0" width="100" height="100"/></g></g><g transform="matrix(0.35 0 0 0.35 595 140)"><g><rect x="0" y="0" width="100" height="100"/></g></g><g transform="matrix(0.35 0 0 0.35 665 140)"><g><rect x="0" y="0" width="100" height="100"/></g></g><g transform="matrix(0.35 0 0 0.35 385 175)"><g><rect x="0" y="0" width="100" height="100"/></g></g><g transform="matrix(0.35 0 0 0.35 420 175)"><g><rect x="0" y="0" width="100" height="100"/></g></g><g transform="matrix(0.35 0 0 0.35 455 175)"><g><rect x="0" y="0" width="100" height="100"/></g></g><g transform="matrix(0.35 0 0 0.35 490 175)"><g><rect x="0" y="0" width="100" height="100"/></g></g><g transform="matrix(0.35 0 0 0.35 595 175)"><g><rect x="0" y="0" width="100" height="100"/></g></g><g transform="matrix(0.35 0 0 0.35 700 175)"><g><rect x="0" y="0" width="100" height="100"/></g></g><g transform="matrix(0.35 0 0 0.35 280 210)"><g><rect x="0" y="0" width="100" height="100"/></g></g><g transform="matrix(0.35 0 0 0.35 350 210)"><g><rect x="0" y="0" width="100" height="100"/></g></g><g transform="matrix(0.35 0 0 0.35 420 210)"><g><rect x="0" y="0" width="100" height="100"/></g></g><g transform="matrix(0.35 0 0 0.35 490 210)"><g><rect x="0" y="0" width="100" height="100"/></g></g><g transform="matrix(0.35 0 0 0.35 560 210)"><g><rect x="0" y="0" width="100" height="100"/></g></g><g transform="matrix(0.35 0 0 0.35 630 210)"><g><rect x="0" y="0" width="100" height="100"/></g></g><g transform="matrix(0.35 0 0 0.35 700 210)"><g><rect x="0" y="0" width="100" height="100"/></g></g><g transform="matrix(0.35 0 0 0.35 315 245)"><g><rect x="0" y="0" width="100" height="100"/></g></g><g transform="matrix(0.35 0 0 0.35 490 245)"><g><rect x="0" y="0" width="100" height="100"/></g></g><g transform="matrix(0.35 0 0 0.35 665 245)"><g><rect x="0" y="0" width="100" height="100"/></g></g><g transform="matrix(0.35 0 0 0.35 700 245)"><g><rect x="0" y="0" width="100" height="100"/></g></g><g transform="matrix(0.35 0 0 0.35 0 280)"><g><rect x="0" y="0" width="100" height="100"/></g></g><g transform="matrix(0.35 0 0 0.35 105 280)"><g><rect x="0" y="0" width="100" height="100"/></g></g><g transform="matrix(0.35 0 0 0.35 140 280)"><g><rect x="0" y="0" width="100" height="100"/></g></g><g transform="matrix(0.35 0 0 0.35 175 280)"><g><rect x="0" y="0" width="100" height="100"/></g></g><g transform="matrix(0.35 0 0 0.35 210 280)"><g><rect x="0" y="0" width="100" height="100"/></g></g><g transform="matrix(0.35 0 0 0.35 245 280)"><g><rect x="0" y="0" width="100" height="100"/></g></g><g transform="matrix(0.35 0 0 0.35 280 280)"><g><rect x="0" y="0" width="100" height="100"/></g></g><g transform="matrix(0.35 0 0 0.35 315 280)"><g><rect x="0" y="0" width="100" height="100"/></g></g><g transform="matrix(0.35 0 0 0.35 420 280)"><g><rect x="0" y="0" width="100" height="100"/></g></g><g transform="matrix(0.35 0 0 0.35 455 280)"><g><rect x="0" y="0" width="100" height="100"/></g></g><g transform="matrix(0.35 0 0 0.35 490 280)"><g><rect x="0" y="0" width="100" height="100"/></g></g><g transform="matrix(0.35 0 0 0.35 525 280)"><g><rect x="0" y="0" width="100" height="100"/></g></g><g transform="matrix(0.35 0 0 0.35 560 280)"><g><rect x="0" y="0" width="100" height="100"/></g></g><g transform="matrix(0.35 0 0 0.35 595 280)"><g><rect x="0" y="0" width="100" height="100"/></g></g><g transform="matrix(0.35 0 0 0.35 735 280)"><g><rect x="0" y="0" width="100" height="100"/></g></g><g transform="matrix(0.35 0 0 0.35 840 280)"><g><rect x="0" y="0" width="100" height="100"/></g></g><g transform="matrix(0.35 0 0 0.35 910 280)"><g><rect x="0" y="0" width="100" height="100"/></g></g><g transform="matrix(0.35 0 0 0.35 945 280)"><g><rect x="0" y="0" width="100" height="100"/></g></g><g transform="matrix(0.35 0 0 0.35 980 280)"><g><rect x="0" y="0" width="100" height="100"/></g></g><g transform="matrix(0.35 0 0 0.35 0 315)"><g><rect x="0" y="0" width="100" height="100"/></g></g><g transform="matrix(0.35 0 0 0.35 70 315)"><g><rect x="0" y="0" width="100" height="100"/></g></g><g transform="matrix(0.35 0 0 0.35 245 315)"><g><rect x="0" y="0" width="100" height="100"/></g></g><g transform="matrix(0.35 0 0 0.35 280 315)"><g><rect x="0" y="0" width="100" height="100"/></g></g><g transform="matrix(0.35 0 0 0.35 315 315)"><g><rect x="0" y="0" width="100" height="100"/></g></g><g transform="matrix(0.35 0 0 0.35 350 315)"><g><rect x="0" y="0" width="100" height="100"/></g></g><g transform="matrix(0.35 0 0 0.35 490 315)"><g><rect x="0" y="0" width="100" height="100"/></g></g><g transform="matrix(0.35 0 0 0.35 630 315)"><g><rect x="0" y="0" width="100" height="100"/></g></g><g transform="matrix(0.35 0 0 0.35 665 315)"><g><rect x="0" y="0" width="100" height="100"/></g></g><g transform="matrix(0.35 0 0 0.35 805 315)"><g><rect x="0" y="0" width="100" height="100"/></g></g><g transform="matrix(0.35 0 0 0.35 840 315)"><g><rect x="0" y="0" width="100" height="100"/></g></g><g transform="matrix(0.35 0 0 0.35 910 315)"><g><rect x="0" y="0" width="100" height="100"/></g></g><g transform="matrix(0.35 0 0 0.35 945 315)"><g><rect x="0" y="0" width="100" height="100"/></g></g><g transform="matrix(0.35 0 0 0.35 35 350)"><g><rect x="0" y="0" width="100" height="100"/></g></g><g transform="matrix(0.35 0 0 0.35 70 350)"><g><rect x="0" y="0" width="100" height="100"/></g></g><g transform="matrix(0.35 0 0 0.35 105 350)"><g><rect x="0" y="0" width="100" height="100"/></g></g><g transform="matrix(0.35 0 0 0.35 140 350)"><g><rect x="0" y="0" width="100" height="100"/></g></g><g transform="matrix(0.35 0 0 0.35 175 350)"><g><rect x="0" y="0" width="100" height="100"/></g></g><g transform="matrix(0.35 0 0 0.35 210 350)"><g><rect x="0" y="0" width="100" height="100"/></g></g><g transform="matrix(0.35 0 0 0.35 280 350)"><g><rect x="0" y="0" width="100" height="100"/></g></g><g transform="matrix(0.35 0 0 0.35 315 350)"><g><rect x="0" y="0" width="100" height="100"/></g></g><g transform="matrix(0.35 0 0 0.35 350 350)"><g><rect x="0" y="0" width="100" height="100"/></g></g><g transform="matrix(0.35 0 0 0.35 420 350)"><g><rect x="0" y="0" width="100" height="100"/></g></g><g transform="matrix(0.35 0 0 0.35 490 350)"><g><rect x="0" y="0" width="100" height="100"/></g></g><g transform="matrix(0.35 0 0 0.35 630 350)"><g><rect x="0" y="0" width="100" height="100"/></g></g><g transform="matrix(0.35 0 0 0.35 735 350)"><g><rect x="0" y="0" width="100" height="100"/></g></g><g transform="matrix(0.35 0 0 0.35 770 350)"><g><rect x="0" y="0" width="100" height="100"/></g></g><g transform="matrix(0.35 0 0 0.35 805 350)"><g><rect x="0" y="0" width="100" height="100"/></g></g><g transform="matrix(0.35 0 0 0.35 840 350)"><g><rect x="0" y="0" width="100" height="100"/></g></g><g transform="matrix(0.35 0 0 0.35 910 350)"><g><rect x="0" y="0" width="100" height="100"/></g></g><g transform="matrix(0.35 0 0 0.35 0 385)"><g><rect x="0" y="0" width="100" height="100"/></g></g><g transform="matrix(0.35 0 0 0.35 35 385)"><g><rect x="0" y="0" width="100" height="100"/></g></g><g transform="matrix(0.35 0 0 0.35 175 385)"><g><rect x="0" y="0" width="100" height="100"/></g></g><g transform="matrix(0.35 0 0 0.35 385 385)"><g><rect x="0" y="0" width="100" height="100"/></g></g><g transform="matrix(0.35 0 0 0.35 490 385)"><g><rect x="0" y="0" width="100" height="100"/></g></g><g transform="matrix(0.35 0 0 0.35 525 385)"><g><rect x="0" y="0" width="100" height="100"/></g></g><g transform="matrix(0.35 0 0 0.35 595 385)"><g><rect x="0" y="0" width="100" height="100"/></g></g><g transform="matrix(0.35 0 0 0.35 630 385)"><g><rect x="0" y="0" width="100" height="100"/></g></g><g transform="matrix(0.35 0 0 0.35 665 385)"><g><rect x="0" y="0" width="100" height="100"/></g></g><g transform="matrix(0.35 0 0 0.35 700 385)"><g><rect x="0" y="0" width="100" height="100"/></g></g><g transform="matrix(0.35 0 0 0.35 735 385)"><g><rect x="0" y="0" width="100" height="100"/></g></g><g transform="matrix(0.35 0 0 0.35 770 385)"><g><rect x="0" y="0" width="100" height="100"/></g></g><g transform="matrix(0.35 0 0 0.35 840 385)"><g><rect x="0" y="0" width="100" height="100"/></g></g><g transform="matrix(0.35 0 0 0.35 875 385)"><g><rect x="0" y="0" width="100" height="100"/></g></g><g transform="matrix(0.35 0 0 0.35 980 385)"><g><rect x="0" y="0" width="100" height="100"/></g></g><g transform="matrix(0.35 0 0 0.35 105 420)"><g><rect x="0" y="0" width="100" height="100"/></g></g><g transform="matrix(0.35 0 0 0.35 140 420)"><g><rect x="0" y="0" width="100" height="100"/></g></g><g transform="matrix(0.35 0 0 0.35 210 420)"><g><rect x="0" y="0" width="100" height="100"/></g></g><g transform="matrix(0.35 0 0 0.35 280 420)"><g><rect x="0" y="0" width="100" height="100"/></g></g><g transform="matrix(0.35 0 0 0.35 315 420)"><g><rect x="0" y="0" width="100" height="100"/></g></g><g transform="matrix(0.35 0 0 0.35 350 420)"><g><rect x="0" y="0" width="100" height="100"/></g></g><g transform="matrix(0.35 0 0 0.35 420 420)"><g><rect x="0" y="0" width="100" height="100"/></g></g><g transform="matrix(0.35 0 0 0.35 455 420)"><g><rect x="0" y="0" width="100" height="100"/></g></g><g transform="matrix(0.35 0 0 0.35 490 420)"><g><rect x="0" y="0" width="100" height="100"/></g></g><g transform="matrix(0.35 0 0 0.35 630 420)"><g><rect x="0" y="0" width="100" height="100"/></g></g><g transform="matrix(0.35 0 0 0.35 665 420)"><g><rect x="0" y="0" width="100" height="100"/></g></g><g transform="matrix(0.35 0 0 0.35 700 420)"><g><rect x="0" y="0" width="100" height="100"/></g></g><g transform="matrix(0.35 0 0 0.35 770 420)"><g><rect x="0" y="0" width="100" height="100"/></g></g><g transform="matrix(0.35 0 0 0.35 980 420)"><g><rect x="0" y="0" width="100" height="100"/></g></g><g transform="matrix(0.35 0 0 0.35 0 455)"><g><rect x="0" y="0" width="100" height="100"/></g></g><g transform="matrix(0.35 0 0 0.35 35 455)"><g><rect x="0" y="0" width="100" height="100"/></g></g><g transform="matrix(0.35 0 0 0.35 70 455)"><g><rect x="0" y="0" width="100" height="100"/></g></g><g transform="matrix(0.35 0 0 0.35 140 455)"><g><rect x="0" y="0" width="100" height="100"/></g></g><g transform="matrix(0.35 0 0 0.35 315 455)"><g><rect x="0" y="0" width="100" height="100"/></g></g><g transform="matrix(0.35 0 0 0.35 350 455)"><g><rect x="0" y="0" width="100" height="100"/></g></g><g transform="matrix(0.35 0 0 0.35 595 455)"><g><rect x="0" y="0" width="100" height="100"/></g></g><g transform="matrix(0.35 0 0 0.35 630 455)"><g><rect x="0" y="0" width="100" height="100"/></g></g><g transform="matrix(0.35 0 0 0.35 770 455)"><g><rect x="0" y="0" width="100" height="100"/></g></g><g transform="matrix(0.35 0 0 0.35 805 455)"><g><rect x="0" y="0" width="100" height="100"/></g></g><g transform="matrix(0.35 0 0 0.35 840 455)"><g><rect x="0" y="0" width="100" height="100"/></g></g><g transform="matrix(0.35 0 0 0.35 875 455)"><g><rect x="0" y="0" width="100" height="100"/></g></g><g transform="matrix(0.35 0 0 0.35 910 455)"><g><rect x="0" y="0" width="100" height="100"/></g></g><g transform="matrix(0.35 0 0 0.35 945 455)"><g><rect x="0" y="0" width="100" height="100"/></g></g><g transform="matrix(0.35 0 0 0.35 980 455)"><g><rect x="0" y="0" width="100" height="100"/></g></g><g transform="matrix(0.35 0 0 0.35 0 490)"><g><rect x="0" y="0" width="100" height="100"/></g></g><g transform="matrix(0.35 0 0 0.35 35 490)"><g><rect x="0" y="0" width="100" height="100"/></g></g><g transform="matrix(0.35 0 0 0.35 70 490)"><g><rect x="0" y="0" width="100" height="100"/></g></g><g transform="matrix(0.35 0 0 0.35 105 490)"><g><rect x="0" y="0" width="100" height="100"/></g></g><g transform="matrix(0.35 0 0 0.35 210 490)"><g><rect x="0" y="0" width="100" height="100"/></g></g><g transform="matrix(0.35 0 0 0.35 245 490)"><g><rect x="0" y="0" width="100" height="100"/></g></g><g transform="matrix(0.35 0 0 0.35 385 490)"><g><rect x="0" y="0" width="100" height="100"/></g></g><g transform="matrix(0.35 0 0 0.35 490 490)"><g><rect x="0" y="0" width="100" height="100"/></g></g><g transform="matrix(0.35 0 0 0.35 525 490)"><g><rect x="0" y="0" width="100" height="100"/></g></g><g transform="matrix(0.35 0 0 0.35 595 490)"><g><rect x="0" y="0" width="100" height="100"/></g></g><g transform="matrix(0.35 0 0 0.35 665 490)"><g><rect x="0" y="0" width="100" height="100"/></g></g><g transform="matrix(0.35 0 0 0.35 735 490)"><g><rect x="0" y="0" width="100" height="100"/></g></g><g transform="matrix(0.35 0 0 0.35 770 490)"><g><rect x="0" y="0" width="100" height="100"/></g></g><g transform="matrix(0.35 0 0 0.35 910 490)"><g><rect x="0" y="0" width="100" height="100"/></g></g><g transform="matrix(0.35 0 0 0.35 980 490)"><g><rect x="0" y="0" width="100" height="100"/></g></g><g transform="matrix(0.35 0 0 0.35 35 525)"><g><rect x="0" y="0" width="100" height="100"/></g></g><g transform="matrix(0.35 0 0 0.35 70 525)"><g><rect x="0" y="0" width="100" height="100"/></g></g><g transform="matrix(0.35 0 0 0.35 105 525)"><g><rect x="0" y="0" width="100" height="100"/></g></g><g transform="matrix(0.35 0 0 0.35 140 525)"><g><rect x="0" y="0" width="100" height="100"/></g></g><g transform="matrix(0.35 0 0 0.35 245 525)"><g><rect x="0" y="0" width="100" height="100"/></g></g><g transform="matrix(0.35 0 0 0.35 315 525)"><g><rect x="0" y="0" width="100" height="100"/></g></g><g transform="matrix(0.35 0 0 0.35 455 525)"><g><rect x="0" y="0" width="100" height="100"/></g></g><g transform="matrix(0.35 0 0 0.35 490 525)"><g><rect x="0" y="0" width="100" height="100"/></g></g><g transform="matrix(0.35 0 0 0.35 560 525)"><g><rect x="0" y="0" width="100" height="100"/></g></g><g transform="matrix(0.35 0 0 0.35 630 525)"><g><rect x="0" y="0" width="100" height="100"/></g></g><g transform="matrix(0.35 0 0 0.35 665 525)"><g><rect x="0" y="0" width="100" height="100"/></g></g><g transform="matrix(0.35 0 0 0.35 735 525)"><g><rect x="0" y="0" width="100" height="100"/></g></g><g transform="matrix(0.35 0 0 0.35 770 525)"><g><rect x="0" y="0" width="100" height="100"/></g></g><g transform="matrix(0.35 0 0 0.35 805 525)"><g><rect x="0" y="0" width="100" height="100"/></g></g><g transform="matrix(0.35 0 0 0.35 910 525)"><g><rect x="0" y="0" width="100" height="100"/></g></g><g transform="matrix(0.35 0 0 0.35 980 525)"><g><rect x="0" y="0" width="100" height="100"/></g></g><g transform="matrix(0.35 0 0 0.35 35 560)"><g><rect x="0" y="0" width="100" height="100"/></g></g><g transform="matrix(0.35 0 0 0.35 105 560)"><g><rect x="0" y="0" width="100" height="100"/></g></g><g transform="matrix(0.35 0 0 0.35 210 560)"><g><rect x="0" y="0" width="100" height="100"/></g></g><g transform="matrix(0.35 0 0 0.35 280 560)"><g><rect x="0" y="0" width="100" height="100"/></g></g><g transform="matrix(0.35 0 0 0.35 315 560)"><g><rect x="0" y="0" width="100" height="100"/></g></g><g transform="matrix(0.35 0 0 0.35 350 560)"><g><rect x="0" y="0" width="100" height="100"/></g></g><g transform="matrix(0.35 0 0 0.35 420 560)"><g><rect x="0" y="0" width="100" height="100"/></g></g><g transform="matrix(0.35 0 0 0.35 525 560)"><g><rect x="0" y="0" width="100" height="100"/></g></g><g transform="matrix(0.35 0 0 0.35 665 560)"><g><rect x="0" y="0" width="100" height="100"/></g></g><g transform="matrix(0.35 0 0 0.35 700 560)"><g><rect x="0" y="0" width="100" height="100"/></g></g><g transform="matrix(0.35 0 0 0.35 805 560)"><g><rect x="0" y="0" width="100" height="100"/></g></g><g transform="matrix(0.35 0 0 0.35 875 560)"><g><rect x="0" y="0" width="100" height="100"/></g></g><g transform="matrix(0.35 0 0 0.35 0 595)"><g><rect x="0" y="0" width="100" height="100"/></g></g><g transform="matrix(0.35 0 0 0.35 105 595)"><g><rect x="0" y="0" width="100" height="100"/></g></g><g transform="matrix(0.35 0 0 0.35 175 595)"><g><rect x="0" y="0" width="100" height="100"/></g></g><g transform="matrix(0.35 0 0 0.35 245 595)"><g><rect x="0" y="0" width="100" height="100"/></g></g><g transform="matrix(0.35 0 0 0.35 350 595)"><g><rect x="0" y="0" width="100" height="100"/></g></g><g transform="matrix(0.35 0 0 0.35 385 595)"><g><rect x="0" y="0" width="100" height="100"/></g></g><g transform="matrix(0.35 0 0 0.35 630 595)"><g><rect x="0" y="0" width="100" height="100"/></g></g><g transform="matrix(0.35 0 0 0.35 665 595)"><g><rect x="0" y="0" width="100" height="100"/></g></g><g transform="matrix(0.35 0 0 0.35 840 595)"><g><rect x="0" y="0" width="100" height="100"/></g></g><g transform="matrix(0.35 0 0 0.35 910 595)"><g><rect x="0" y="0" width="100" height="100"/></g></g><g transform="matrix(0.35 0 0 0.35 945 595)"><g><rect x="0" y="0" width="100" height="100"/></g></g><g transform="matrix(0.35 0 0 0.35 0 630)"><g><rect x="0" y="0" width="100" height="100"/></g></g><g transform="matrix(0.35 0 0 0.35 35 630)"><g><rect x="0" y="0" width="100" height="100"/></g></g><g transform="matrix(0.35 0 0 0.35 70 630)"><g><rect x="0" y="0" width="100" height="100"/></g></g><g transform="matrix(0.35 0 0 0.35 105 630)"><g><rect x="0" y="0" width="100" height="100"/></g></g><g transform="matrix(0.35 0 0 0.35 175 630)"><g><rect x="0" y="0" width="100" height="100"/></g></g><g transform="matrix(0.35 0 0 0.35 210 630)"><g><rect x="0" y="0" width="100" height="100"/></g></g><g transform="matrix(0.35 0 0 0.35 245 630)"><g><rect x="0" y="0" width="100" height="100"/></g></g><g transform="matrix(0.35 0 0 0.35 455 630)"><g><rect x="0" y="0" width="100" height="100"/></g></g><g transform="matrix(0.35 0 0 0.35 490 630)"><g><rect x="0" y="0" width="100" height="100"/></g></g><g transform="matrix(0.35 0 0 0.35 560 630)"><g><rect x="0" y="0" width="100" height="100"/></g></g><g transform="matrix(0.35 0 0 0.35 595 630)"><g><rect x="0" y="0" width="100" height="100"/></g></g><g transform="matrix(0.35 0 0 0.35 630 630)"><g><rect x="0" y="0" width="100" height="100"/></g></g><g transform="matrix(0.35 0 0 0.35 665 630)"><g><rect x="0" y="0" width="100" height="100"/></g></g><g transform="matrix(0.35 0 0 0.35 840 630)"><g><rect x="0" y="0" width="100" height="100"/></g></g><g transform="matrix(0.35 0 0 0.35 875 630)"><g><rect x="0" y="0" width="100" height="100"/></g></g><g transform="matrix(0.35 0 0 0.35 980 630)"><g><rect x="0" y="0" width="100" height="100"/></g></g><g transform="matrix(0.35 0 0 0.35 0 665)"><g><rect x="0" y="0" width="100" height="100"/></g></g><g transform="matrix(0.35 0 0 0.35 35 665)"><g><rect x="0" y="0" width="100" height="100"/></g></g><g transform="matrix(0.35 0 0 0.35 105 665)"><g><rect x="0" y="0" width="100" height="100"/></g></g><g transform="matrix(0.35 0 0 0.35 280 665)"><g><rect x="0" y="0" width="100" height="100"/></g></g><g transform="matrix(0.35 0 0 0.35 315 665)"><g><rect x="0" y="0" width="100" height="100"/></g></g><g transform="matrix(0.35 0 0 0.35 455 665)"><g><rect x="0" y="0" width="100" height="100"/></g></g><g transform="matrix(0.35 0 0 0.35 525 665)"><g><rect x="0" y="0" width="100" height="100"/></g></g><g transform="matrix(0.35 0 0 0.35 560 665)"><g><rect x="0" y="0" width="100" height="100"/></g></g><g transform="matrix(0.35 0 0 0.35 665 665)"><g><rect x="0" y="0" width="100" height="100"/></g></g><g transform="matrix(0.35 0 0 0.35 700 665)"><g><rect x="0" y="0" width="100" height="100"/></g></g><g transform="matrix(0.35 0 0 0.35 770 665)"><g><rect x="0" y="0" width="100" height="100"/></g></g><g transform="matrix(0.35 0 0 0.35 840 665)"><g><rect x="0" y="0" width="100" height="100"/></g></g><g transform="matrix(0.35 0 0 0.35 875 665)"><g><rect x="0" y="0" width="100" height="100"/></g></g><g transform="matrix(0.35 0 0 0.35 910 665)"><g><rect x="0" y="0" width="100" height="100"/></g></g><g transform="matrix(0.35 0 0 0.35 0 700)"><g><rect x="0" y="0" width="100" height="100"/></g></g><g transform="matrix(0.35 0 0 0.35 35 700)"><g><rect x="0" y="0" width="100" height="100"/></g></g><g transform="matrix(0.35 0 0 0.35 140 700)"><g><rect x="0" y="0" width="100" height="100"/></g></g><g transform="matrix(0.35 0 0 0.35 175 700)"><g><rect x="0" y="0" width="100" height="100"/></g></g><g transform="matrix(0.35 0 0 0.35 210 700)"><g><rect x="0" y="0" width="100" height="100"/></g></g><g transform="matrix(0.35 0 0 0.35 280 700)"><g><rect x="0" y="0" width="100" height="100"/></g></g><g transform="matrix(0.35 0 0 0.35 350 700)"><g><rect x="0" y="0" width="100" height="100"/></g></g><g transform="matrix(0.35 0 0 0.35 420 700)"><g><rect x="0" y="0" width="100" height="100"/></g></g><g transform="matrix(0.35 0 0 0.35 455 700)"><g><rect x="0" y="0" width="100" height="100"/></g></g><g transform="matrix(0.35 0 0 0.35 595 700)"><g><rect x="0" y="0" width="100" height="100"/></g></g><g transform="matrix(0.35 0 0 0.35 665 700)"><g><rect x="0" y="0" width="100" height="100"/></g></g><g transform="matrix(0.35 0 0 0.35 700 700)"><g><rect x="0" y="0" width="100" height="100"/></g></g><g transform="matrix(0.35 0 0 0.35 735 700)"><g><rect x="0" y="0" width="100" height="100"/></g></g><g transform="matrix(0.35 0 0 0.35 770 700)"><g><rect x="0" y="0" width="100" height="100"/></g></g><g transform="matrix(0.35 0 0 0.35 805 700)"><g><rect x="0" y="0" width="100" height="100"/></g></g><g transform="matrix(0.35 0 0 0.35 840 700)"><g><rect x="0" y="0" width="100" height="100"/></g></g><g transform="matrix(0.35 0 0 0.35 875 700)"><g><rect x="0" y="0" width="100" height="100"/></g></g><g transform="matrix(0.35 0 0 0.35 910 700)"><g><rect x="0" y="0" width="100" height="100"/></g></g><g transform="matrix(0.35 0 0 0.35 945 700)"><g><rect x="0" y="0" width="100" height="100"/></g></g><g transform="matrix(0.35 0 0 0.35 280 735)"><g><rect x="0" y="0" width="100" height="100"/></g></g><g transform="matrix(0.35 0 0 0.35 315 735)"><g><rect x="0" y="0" width="100" height="100"/></g></g><g transform="matrix(0.35 0 0 0.35 385 735)"><g><rect x="0" y="0" width="100" height="100"/></g></g><g transform="matrix(0.35 0 0 0.35 455 735)"><g><rect x="0" y="0" width="100" height="100"/></g></g><g transform="matrix(0.35 0 0 0.35 560 735)"><g><rect x="0" y="0" width="100" height="100"/></g></g><g transform="matrix(0.35 0 0 0.35 595 735)"><g><rect x="0" y="0" width="100" height="100"/></g></g><g transform="matrix(0.35 0 0 0.35 630 735)"><g><rect x="0" y="0" width="100" height="100"/></g></g><g transform="matrix(0.35 0 0 0.35 700 735)"><g><rect x="0" y="0" width="100" height="100"/></g></g><g transform="matrix(0.35 0 0 0.35 840 735)"><g><rect x="0" y="0" width="100" height="100"/></g></g><g transform="matrix(0.35 0 0 0.35 875 735)"><g><rect x="0" y="0" width="100" height="100"/></g></g><g transform="matrix(0.35 0 0 0.35 280 770)"><g><rect x="0" y="0" width="100" height="100"/></g></g><g transform="matrix(0.35 0 0 0.35 315 770)"><g><rect x="0" y="0" width="100" height="100"/></g></g><g transform="matrix(0.35 0 0 0.35 350 770)"><g><rect x="0" y="0" width="100" height="100"/></g></g><g transform="matrix(0.35 0 0 0.35 385 770)"><g><rect x="0" y="0" width="100" height="100"/></g></g><g transform="matrix(0.35 0 0 0.35 455 770)"><g><rect x="0" y="0" width="100" height="100"/></g></g><g transform="matrix(0.35 0 0 0.35 525 770)"><g><rect x="0" y="0" width="100" height="100"/></g></g><g transform="matrix(0.35 0 0 0.35 560 770)"><g><rect x="0" y="0" width="100" height="100"/></g></g><g transform="matrix(0.35 0 0 0.35 665 770)"><g><rect x="0" y="0" width="100" height="100"/></g></g><g transform="matrix(0.35 0 0 0.35 700 770)"><g><rect x="0" y="0" width="100" height="100"/></g></g><g transform="matrix(0.35 0 0 0.35 770 770)"><g><rect x="0" y="0" width="100" height="100"/></g></g><g transform="matrix(0.35 0 0 0.35 840 770)"><g><rect x="0" y="0" width="100" height="100"/></g></g><g transform="matrix(0.35 0 0 0.35 875 770)"><g><rect x="0" y="0" width="100" height="100"/></g></g><g transform="matrix(0.35 0 0 0.35 280 805)"><g><rect x="0" y="0" width="100" height="100"/></g></g><g transform="matrix(0.35 0 0 0.35 315 805)"><g><rect x="0" y="0" width="100" height="100"/></g></g><g transform="matrix(0.35 0 0 0.35 385 805)"><g><rect x="0" y="0" width="100" height="100"/></g></g><g transform="matrix(0.35 0 0 0.35 455 805)"><g><rect x="0" y="0" width="100" height="100"/></g></g><g transform="matrix(0.35 0 0 0.35 560 805)"><g><rect x="0" y="0" width="100" height="100"/></g></g><g transform="matrix(0.35 0 0 0.35 595 805)"><g><rect x="0" y="0" width="100" height="100"/></g></g><g transform="matrix(0.35 0 0 0.35 665 805)"><g><rect x="0" y="0" width="100" height="100"/></g></g><g transform="matrix(0.35 0 0 0.35 700 805)"><g><rect x="0" y="0" width="100" height="100"/></g></g><g transform="matrix(0.35 0 0 0.35 840 805)"><g><rect x="0" y="0" width="100" height="100"/></g></g><g transform="matrix(0.35 0 0 0.35 945 805)"><g><rect x="0" y="0" width="100" height="100"/></g></g><g transform="matrix(0.35 0 0 0.35 980 805)"><g><rect x="0" y="0" width="100" height="100"/></g></g><g transform="matrix(0.35 0 0 0.35 280 840)"><g><rect x="0" y="0" width="100" height="100"/></g></g><g transform="matrix(0.35 0 0 0.35 315 840)"><g><rect x="0" y="0" width="100" height="100"/></g></g><g transform="matrix(0.35 0 0 0.35 350 840)"><g><rect x="0" y="0" width="100" height="100"/></g></g><g transform="matrix(0.35 0 0 0.35 455 840)"><g><rect x="0" y="0" width="100" height="100"/></g></g><g transform="matrix(0.35 0 0 0.35 525 840)"><g><rect x="0" y="0" width="100" height="100"/></g></g><g transform="matrix(0.35 0 0 0.35 560 840)"><g><rect x="0" y="0" width="100" height="100"/></g></g><g transform="matrix(0.35 0 0 0.35 630 840)"><g><rect x="0" y="0" width="100" height="100"/></g></g><g transform="matrix(0.35 0 0 0.35 665 840)"><g><rect x="0" y="0" width="100" height="100"/></g></g><g transform="matrix(0.35 0 0 0.35 700 840)"><g><rect x="0" y="0" width="100" height="100"/></g></g><g transform="matrix(0.35 0 0 0.35 735 840)"><g><rect x="0" y="0" width="100" height="100"/></g></g><g transform="matrix(0.35 0 0 0.35 770 840)"><g><rect x="0" y="0" width="100" height="100"/></g></g><g transform="matrix(0.35 0 0 0.35 805 840)"><g><rect x="0" y="0" width="100" height="100"/></g></g><g transform="matrix(0.35 0 0 0.35 840 840)"><g><rect x="0" y="0" width="100" height="100"/></g></g><g transform="matrix(0.35 0 0 0.35 875 840)"><g><rect x="0" y="0" width="100" height="100"/></g></g><g transform="matrix(0.35 0 0 0.35 280 875)"><g><rect x="0" y="0" width="100" height="100"/></g></g><g transform="matrix(0.35 0 0 0.35 315 875)"><g><rect x="0" y="0" width="100" height="100"/></g></g><g transform="matrix(0.35 0 0 0.35 385 875)"><g><rect x="0" y="0" width="100" height="100"/></g></g><g transform="matrix(0.35 0 0 0.35 420 875)"><g><rect x="0" y="0" width="100" height="100"/></g></g><g transform="matrix(0.35 0 0 0.35 490 875)"><g><rect x="0" y="0" width="100" height="100"/></g></g><g transform="matrix(0.35 0 0 0.35 560 875)"><g><rect x="0" y="0" width="100" height="100"/></g></g><g transform="matrix(0.35 0 0 0.35 595 875)"><g><rect x="0" y="0" width="100" height="100"/></g></g><g transform="matrix(0.35 0 0 0.35 630 875)"><g><rect x="0" y="0" width="100" height="100"/></g></g><g transform="matrix(0.35 0 0 0.35 665 875)"><g><rect x="0" y="0" width="100" height="100"/></g></g><g transform="matrix(0.35 0 0 0.35 700 875)"><g><rect x="0" y="0" width="100" height="100"/></g></g><g transform="matrix(0.35 0 0 0.35 735 875)"><g><rect x="0" y="0" width="100" height="100"/></g></g><g transform="matrix(0.35 0 0 0.35 945 875)"><g><rect x="0" y="0" width="100" height="100"/></g></g><g transform="matrix(0.35 0 0 0.35 315 910)"><g><rect x="0" y="0" width="100" height="100"/></g></g><g transform="matrix(0.35 0 0 0.35 455 910)"><g><rect x="0" y="0" width="100" height="100"/></g></g><g transform="matrix(0.35 0 0 0.35 560 910)"><g><rect x="0" y="0" width="100" height="100"/></g></g><g transform="matrix(0.35 0 0 0.35 595 910)"><g><rect x="0" y="0" width="100" height="100"/></g></g><g transform="matrix(0.35 0 0 0.35 665 910)"><g><rect x="0" y="0" width="100" height="100"/></g></g><g transform="matrix(0.35 0 0 0.35 700 910)"><g><rect x="0" y="0" width="100" height="100"/></g></g><g transform="matrix(0.35 0 0 0.35 805 910)"><g><rect x="0" y="0" width="100" height="100"/></g></g><g transform="matrix(0.35 0 0 0.35 840 910)"><g><rect x="0" y="0" width="100" height="100"/></g></g><g transform="matrix(0.35 0 0 0.35 910 910)"><g><rect x="0" y="0" width="100" height="100"/></g></g><g transform="matrix(0.35 0 0 0.35 945 910)"><g><rect x="0" y="0" width="100" height="100"/></g></g><g transform="matrix(0.35 0 0 0.35 980 910)"><g><rect x="0" y="0" width="100" height="100"/></g></g><g transform="matrix(0.35 0 0 0.35 315 945)"><g><rect x="0" y="0" width="100" height="100"/></g></g><g transform="matrix(0.35 0 0 0.35 420 945)"><g><rect x="0" y="0" width="100" height="100"/></g></g><g transform="matrix(0.35 0 0 0.35 455 945)"><g><rect x="0" y="0" width="100" height="100"/></g></g><g transform="matrix(0.35 0 0 0.35 525 945)"><g><rect x="0" y="0" width="100" height="100"/></g></g><g transform="matrix(0.35 0 0 0.35 805 945)"><g><rect x="0" y="0" width="100" height="100"/></g></g><g transform="matrix(0.35 0 0 0.35 840 945)"><g><rect x="0" y="0" width="100" height="100"/></g></g><g transform="matrix(0.35 0 0 0.35 875 945)"><g><rect x="0" y="0" width="100" height="100"/></g></g><g transform="matrix(0.35 0 0 0.35 910 945)"><g><rect x="0" y="0" width="100" height="100"/></g></g><g transform="matrix(0.35 0 0 0.35 980 945)"><g><rect x="0" y="0" width="100" height="100"/></g></g><g transform="matrix(0.35 0 0 0.35 280 980)"><g><rect x="0" y="0" width="100" height="100"/></g></g><g transform="matrix(0.35 0 0 0.35 420 980)"><g><rect x="0" y="0" width="100" height="100"/></g></g><g transform="matrix(0.35 0 0 0.35 595 980)"><g><rect x="0" y="0" width="100" height="100"/></g></g><g transform="matrix(0.35 0 0 0.35 630 980)"><g><rect x="0" y="0" width="100" height="100"/></g></g><g transform="matrix(0.35 0 0 0.35 665 980)"><g><rect x="0" y="0" width="100" height="100"/></g></g><g transform="matrix(0.35 0 0 0.35 700 980)"><g><rect x="0" y="0" width="100" height="100"/></g></g><g transform="matrix(0.35 0 0 0.35 735 980)"><g><rect x="0" y="0" width="100" height="100"/></g></g><g transform="matrix(0.35 0 0 0.35 770 980)"><g><rect x="0" y="0" width="100" height="100"/></g></g><g transform="matrix(0.35 0 0 0.35 805 980)"><g><rect x="0" y="0" width="100" height="100"/></g></g><g transform="matrix(0.35 0 0 0.35 875 980)"><g><rect x="0" y="0" width="100" height="100"/></g></g><g transform="scale(2.45 2.45)"><g><g><rect x="15" y="15" width="70" height="70" fill="none"/><path d="M85 0 15 0 0 0 0 15 0 85 0 100 15 100 85 100 100 100 100 85 100 15 100 0 85 0ZM85 85 15 85 15 15 85 15 85 85Z"/></g></g></g><g transform="matrix(2.45 0 0 2.45 770 0)"><g><g><rect x="15" y="15" width="70" height="70" fill="none"/><path d="M85 0 15 0 0 0 0 15 0 85 0 100 15 100 85 100 100 100 100 85 100 15 100 0 85 0ZM85 85 15 85 15 15 85 15 85 85Z"/></g></g></g><g transform="matrix(2.45 0 0 2.45 0 770)"><g><g><rect x="15" y="15" width="70" height="70" fill="none"/><path d="M85 0 15 0 0 0 0 15 0 85 0 100 15 100 85 100 100 100 100 85 100 15 100 0 85 0ZM85 85 15 85 15 15 85 15 85 85Z"/></g></g></g><g transform="matrix(1.05 0 0 1.05 70 70)"><g><rect x="0" y="0" width="100" height="100"/></g></g><g transform="matrix(1.05 0 0 1.05 840 70)"><g><rect x="0" y="0" width="100" height="100"/></g></g><g transform="matrix(1.05 0 0 1.05 70 840)"><g><rect x="0" y="0" width="100" height="100"/></g></g></g></svg>