<svg width="1296" height="844" xmlns="http://www.w3.org/2000/svg" xmlns:xlink="http://www.w3.org/1999/xlink" xml:space="preserve" overflow="hidden"><defs><clipPath id="clip0"><rect x="1259" y="936" width="1296" height="844"/></clipPath></defs><g clip-path="url(#clip0)" transform="translate(-1259 -936)"><path d="M-5.60346 655.972-4.37114 637.294-2.23517 619.601-1.40341 614.332 12.1784 616.477 11.3661 621.621 11.4007 621.373 9.30211 638.757 9.33674 638.386 8.11671 656.877ZM0.836964 600.515 3.91981 584.72 7.92975 567.486 10.0056 559.809 23.279 563.398 21.2349 570.957 21.2944 570.721 17.34 587.716 17.3915 587.475 14.3323 603.149ZM13.8002 546.344 17.7734 533.459 23.5905 516.679 27.3578 506.901 40.1883 511.845 36.4632 521.513 36.5437 521.293 30.8039 537.851 30.8778 537.625 26.9397 550.396ZM32.5912 493.939 36.9737 483.611 44.5233 467.336 50.166 456.137 62.4452 462.325 56.8527 473.424 56.9497 473.223 49.4949 489.294 49.5869 489.087 45.2487 499.31ZM56.6912 443.788 61.2965 435.33 70.5036 419.61 77.8543 407.899 89.5005 415.208 82.2057 426.831 82.315 426.651 73.2154 442.187 73.3211 441.999 68.7672 450.363ZM85.5121 396.232 90.5174 388.765 101.308 373.65 109.822 362.423 120.778 370.732 112.324 381.88 112.441 381.72 101.767 396.672 101.882 396.505 96.9334 403.888ZM118.456 351.475 124.414 344.062 136.714 329.6 145.489 319.832 155.718 329.021 147.005 338.72 147.128 338.579 134.95 352.898 135.071 352.751 129.172 360.09ZM154.955 309.61 162.767 301.365 176.503 287.603 184.326 280.155 193.807 290.113 186.048 297.501 186.173 297.378 172.562 311.015 172.686 310.887 164.936 319.067ZM194.496 270.649 205.357 260.815 220.458 247.799 225.866 243.361 234.589 253.989 229.246 258.375 229.372 258.269 214.398 271.175 214.524 271.063 203.725 280.841ZM236.631 234.549 251.969 222.552 268.363 210.331 269.704 209.378 277.669 220.586 276.392 221.494 276.518 221.402 260.251 233.529 260.377 233.432 245.102 245.379ZM280.912 201.413 285.172 198.385 302.389 186.719 315.435 178.292 322.896 189.841 309.913 198.228 310.039 198.145 292.949 209.725 293.075 209.637 288.877 212.621ZM327.207 170.905 338.012 164.251 356.403 153.458 362.973 149.785 369.682 161.787 363.176 165.425 363.3 165.353 345.034 176.072 345.16 175.997 334.416 182.613ZM374.974 143.076 375.17 142.966 394.336 132.766 411.969 124.059 418.057 136.387 400.518 145.048 400.704 144.953 381.693 155.071 381.818 155.003 381.684 155.078ZM424.298 117.971 433.647 113.354 462.053 100.702 467.647 113.263 439.366 125.859 439.613 125.743 430.386 130.299ZM474.864 95.0187 513.168 79.7076 518.271 92.4753 479.968 107.786ZM526.319 74.8804 559.697 62.9852 565.488 61.1613 569.618 74.2763 563.949 76.0617 564.192 75.9803 530.934 87.8325ZM578.603 57.0308 604.178 48.976 618.34 45.08 621.987 58.3375 607.947 62.2001 608.189 62.1288 582.733 70.1458ZM631.598 41.4328 649.759 36.4366 671.705 31.0351 674.991 44.3867 653.136 49.7658 653.316 49.7188 635.245 54.6903ZM685.228 27.9387 696.466 25.3859 720.185 20.442 725.826 19.3703 728.392 32.8788 722.811 33.939 722.931 33.9151 699.332 38.8341 699.452 38.8079 688.274 41.3471ZM739.335 16.8043 744.146 15.8903 768.344 11.7362 780.248 9.90808 782.335 23.4988 770.491 25.3177 770.611 25.2982 746.533 29.4317 746.653 29.4101 741.901 30.3128ZM793.961 7.82353 817.414 4.64271 834.995 2.5712 836.604 16.2267 819.082 18.2912 819.202 18.2761 795.809 21.4488ZM848.783 1.06196 867.331-0.795332 889.983-2.66497 891.114 11.0384 868.522 12.9031 868.641 12.8922 850.152 14.7435ZM903.82-3.61037 918.034-4.53466 943.661-5.75376 945.249-5.80167 945.664 7.94208 944.135 7.98819 944.255 7.98355 918.747 9.19697 918.867 9.19025 904.712 10.1107ZM958.993-6.21621 969.461-6.53193 995.442-6.86387 1000.51-6.81327 1000.37 6.93604 995.383 6.88623 995.54 6.88601 969.696 7.21619 969.815 7.21362 959.408 7.52755ZM1014.26-6.67606 1036.74-6.4517 1055.69-5.72857 1055.17 8.01142 1036.31 7.29199 1036.51 7.29665 1014.12 7.07326ZM1069.43-5.20421 1077.95-4.8791 1110.8-2.69657 1109.88 11.0232 1077.13 8.84707 1077.33 8.8572 1068.91 8.53579ZM1124.7-1.61044 1159.83 1.72467 1165.94 2.48094 1164.25 16.1269 1158.23 15.3826 1158.43 15.4039 1123.4 12.078ZM1179.58 4.16957 1200.39 6.74484 1220.64 9.84174 1218.56 23.4336 1198.41 20.3516 1198.61 20.3786 1177.89 17.8155ZM1234.23 11.9212 1240.65 12.9033 1275.03 19.1888 1272.56 32.7147 1238.27 26.4471 1238.47 26.4801 1232.15 25.513ZM1288.71 21.9382 1319.91 28.5922 1317.04 42.0397 1285.84 35.3857ZM22.116 650.297 0.0175231 690.777-19.1071 648.81Z" fill="#FF4383" transform="matrix(0.994973 0.100143 0.100143 -0.994973 1238.58 1665.27)"/></g></svg>