<svg width="1158" height="544" xmlns="http://www.w3.org/2000/svg" xmlns:xlink="http://www.w3.org/1999/xlink" xml:space="preserve" overflow="hidden"><g transform="translate(-2243 -486)"><path d="M2546.5 541.834C2546.5 522.872 2561.87 507.5 2580.83 507.5L2688.33 507.5 2688.33 507.5 2901.08 507.5 3363.17 507.5C3382.13 507.5 3397.5 522.872 3397.5 541.834L3397.5 627.667 3397.5 627.667 3397.5 679.167 3397.5 679.166C3397.5 698.128 3382.13 713.5 3363.17 713.5L2901.08 713.5 2267.7 1014.68 2688.33 713.5 2580.83 713.5C2561.87 713.5 2546.5 698.128 2546.5 679.166L2546.5 679.167 2546.5 627.667 2546.5 627.667Z" stroke="#AB5122" stroke-width="6.875" stroke-miterlimit="8" fill="#E97132" fill-rule="evenodd"/><text fill="#FFFFFF" font-family="Aptos,Aptos_MSFontService,sans-serif" font-weight="700" font-size="83" transform="matrix(1 0 0 1 2623.38 587)">Can be ambiguous </text><text fill="#FFFFFF" font-family="Aptos,Aptos_MSFontService,sans-serif" font-weight="700" font-size="83" transform="matrix(1 0 0 1 2656.61 686)">in complex tasks</text></g></svg>