<svg width="818" height="209" xmlns="http://www.w3.org/2000/svg" xmlns:xlink="http://www.w3.org/1999/xlink" xml:space="preserve" overflow="hidden"><defs><clipPath id="clip0"><rect x="319" y="1751" width="818" height="209"/></clipPath></defs><g clip-path="url(#clip0)" transform="translate(-319 -1751)"><path d="M0-4.58333 93.3273-4.58333 93.3273 351.703 88.744 347.12 154.571 347.12 154.571 356.287 84.1607 356.287 84.1607 0 88.744 4.58333 0 4.58333ZM149.988 337.953 177.488 351.703 149.988 365.453Z" fill="#FF4383" transform="matrix(1.83697e-16 1 1 -1.83697e-16 323.5 1754.5)"/><path d="M1136.52 1751.5 1136.52 1846.32 674.5 1846.32 679.083 1841.73 679.083 1909.05 669.917 1909.05 669.917 1837.15 1131.94 1837.15 1127.35 1841.73 1127.35 1751.5ZM688.25 1904.47 674.5 1931.97 660.75 1904.47Z" fill="#FF4383"/></g></svg>