<svg width="249" height="415" xmlns="http://www.w3.org/2000/svg" xmlns:xlink="http://www.w3.org/1999/xlink" xml:space="preserve" overflow="hidden"><g transform="translate(-576 -1720)"><path d="M732.165 1974.15 640.705 1907.81 643.396 1904.1 734.856 1970.44ZM637.687 1919.78 623.5 1892.5 653.834 1897.52Z"/><path d="M1.65838-1.58162 102.717 104.382 99.4005 107.545-1.65838 1.58162ZM107.846 93.1572 116.875 122.548 87.9453 112.137Z" transform="matrix(-1 0 0 1 721.375 1881.5)"/><text fill="#FFFFFF" font-family="Aptos,Aptos_MSFontService,sans-serif" font-weight="700" font-size="55" transform="matrix(1 0 0 1 655.87 1804)">L1</text><text fill="#FFFFFF" font-family="Aptos,Aptos_MSFontService,sans-serif" font-weight="700" font-size="55" transform="matrix(1 0 0 1 720.911 2086)">L2</text><path d="M0 0 77.4352 85.0226" stroke="#FFFFFF" stroke-width="4.58333" stroke-miterlimit="8" stroke-dasharray="4.58333 4.58333" fill="none" fill-rule="evenodd" transform="matrix(1 0 0 -1 618.5 1896.52)"/><path d="M623.5 2004.5 704.436 2052.59" stroke="#FFFFFF" stroke-width="4.58333" stroke-miterlimit="8" stroke-dasharray="4.58333 4.58333" fill="none" fill-rule="evenodd"/></g></svg>