<svg width="865" height="213" xmlns="http://www.w3.org/2000/svg" xmlns:xlink="http://www.w3.org/1999/xlink" xml:space="preserve" overflow="hidden"><g transform="translate(-295 -1406)"><path d="M632.924 1406.5 632.924 1503.11 323.5 1503.11 328.083 1498.53 328.083 1567.64 318.917 1567.64 318.917 1493.94 628.341 1493.94 623.758 1498.53 623.758 1406.5ZM337.25 1563.05 323.5 1590.55 309.75 1563.05Z" fill="#FF4383"/><path d="M0-4.58333 95.1205-4.58333 95.1205 504.298 90.5372 499.715 158.157 499.715 158.157 508.882 85.9538 508.882 85.9538 0 90.5372 4.58333 0 4.58333ZM153.574 490.548 181.074 504.298 153.574 518.048Z" fill="#FF4383" transform="matrix(1.83697e-16 1 1 -1.83697e-16 627.5 1406.5)"/></g></svg>