<svg width="1904" height="363" xmlns="http://www.w3.org/2000/svg" xmlns:xlink="http://www.w3.org/1999/xlink" xml:space="preserve" overflow="hidden"><g transform="translate(-562 -1163)"><path d="M1770.5 1308.83C1770.5 1289.87 1785.87 1274.5 1804.83 1274.5L1883.5 1274.5 1883.5 1274.5 2053 1274.5 2414.17 1274.5C2433.13 1274.5 2448.5 1289.87 2448.5 1308.83L2448.5 1308.83 2448.5 1308.83 2448.5 1360.33 2448.5 1446.17C2448.5 1465.13 2433.13 1480.5 2414.17 1480.5L2053 1480.5 1883.5 1480.5 1883.5 1480.5 1804.83 1480.5C1785.87 1480.5 1770.5 1465.13 1770.5 1446.17L1770.5 1360.33 590.387 1169.91 1770.5 1308.83Z" stroke="#AB5122" stroke-width="6.875" stroke-miterlimit="8" fill="#E97132" fill-rule="evenodd"/><text fill="#FFFFFF" font-family="Aptos,Aptos_MSFontService,sans-serif" font-weight="700" font-size="83" transform="matrix(1 0 0 1 1817.76 1354)">Interact with an </text><text fill="#FFFFFF" font-family="Aptos,Aptos_MSFontService,sans-serif" font-weight="700" font-size="83" transform="matrix(1 0 0 1 1869.71 1453)">Environment</text></g></svg>