<svg width="96" height="256" xmlns="http://www.w3.org/2000/svg" xmlns:xlink="http://www.w3.org/1999/xlink" xml:space="preserve" overflow="hidden"><defs><clipPath id="clip0"><rect x="2129" y="450" width="96" height="256"/></clipPath></defs><g clip-path="url(#clip0)" transform="translate(-2129 -450)"><path d="M2183.88 450 2183.88 463.75 2170.12 463.75 2170.12 450ZM2183.88 477.5 2183.88 491.25 2170.12 491.25 2170.12 477.5ZM2183.88 505 2183.88 518.75 2170.12 518.75 2170.12 505ZM2183.88 532.5 2183.88 546.25 2170.13 546.25 2170.13 532.5ZM2183.88 560 2183.88 573.75 2170.13 573.75 2170.13 560ZM2183.88 587.5 2183.88 601.25 2170.13 601.25 2170.13 587.5ZM2183.88 615 2183.88 628.75 2170.13 628.75 2170.13 615ZM2183.88 642.5 2183.88 647.55 2170.13 647.55 2170.13 642.5ZM2206.24 624.577 2177 657.99 2147.76 624.577C2145.26 621.72 2145.55 617.376 2148.41 614.876 2151.27 612.376 2155.61 612.665 2158.11 615.523L2182.17 643.023 2171.83 643.023 2195.89 615.523C2198.39 612.665 2202.73 612.376 2205.59 614.876 2208.45 617.376 2208.74 621.72 2206.24 624.577Z"/></g></svg>