<svg width="1429" height="214" xmlns="http://www.w3.org/2000/svg" xmlns:xlink="http://www.w3.org/1999/xlink" xml:space="preserve" overflow="hidden"><g transform="translate(-2170 -658)"><path d="M0-6.875 13.75-6.875 13.75 6.875 0 6.875ZM27.5-6.875 41.25-6.875 41.25 6.875 27.5 6.875ZM54.6567 7.21827 54.6567 20.9683 40.9067 20.9683 40.9067 7.21827ZM54.6567 34.7183 54.6567 48.4683 40.9067 48.4683 40.9067 34.7183ZM54.6567 62.2183 54.6567 75.9683 40.9067 75.9683 40.9067 62.2183ZM54.6567 89.7183 54.6567 103.468 40.9067 103.468 40.9067 89.7183ZM54.6567 117.218 54.6567 130.968 40.9067 130.968 40.9067 117.218ZM54.6567 144.718 54.6567 158.468 40.9067 158.468 40.9067 144.718ZM54.6567 172.218 54.6567 185.968 40.9067 185.968 40.9067 172.218ZM54.6567 199.718 54.6567 213.468 40.9067 213.468 40.9067 199.718ZM54.6567 227.218 54.6567 240.968 40.9067 240.968 40.9067 227.218ZM54.6567 254.718 54.6567 268.468 40.9067 268.468 40.9067 254.718ZM54.6567 282.218 54.6567 295.968 40.9067 295.968 40.9067 282.218ZM54.6567 309.718 54.6567 323.468 40.9067 323.468 40.9067 309.718ZM54.6567 337.218 54.6567 350.968 40.9067 350.968 40.9067 337.218ZM54.6567 364.718 54.6567 378.468 40.9067 378.468 40.9067 364.718ZM54.6567 392.218 54.6567 405.968 40.9067 405.968 40.9067 392.218ZM54.6567 419.718 54.6567 433.468 40.9067 433.468 40.9067 419.718ZM54.6567 447.218 54.6567 460.968 40.9067 460.968 40.9067 447.218ZM54.6567 474.718 54.6567 488.468 40.9067 488.468 40.9067 474.718ZM54.6567 502.218 54.6567 515.968 40.9067 515.968 40.9067 502.218ZM54.6567 529.718 54.6567 543.468 40.9067 543.468 40.9067 529.718ZM54.6567 557.218 54.6567 570.968 40.9067 570.968 40.9067 557.218ZM54.6567 584.718 54.6567 598.468 40.9067 598.468 40.9067 584.718ZM54.6567 612.218 54.6567 625.968 40.9067 625.968 40.9067 612.218ZM54.6567 639.718 54.6567 653.468 40.9067 653.468 40.9067 639.718ZM54.6567 667.218 54.6567 680.968 40.9067 680.968 40.9067 667.218ZM54.6567 694.718 54.6567 708.468 40.9067 708.468 40.9067 694.718ZM54.6567 722.218 54.6567 735.968 40.9067 735.968 40.9067 722.218ZM54.6567 749.718 54.6567 763.468 40.9067 763.468 40.9067 749.718ZM54.6567 777.218 54.6567 790.968 40.9067 790.968 40.9067 777.218ZM54.6567 804.718 54.6567 818.468 40.9067 818.468 40.9067 804.718ZM54.6567 832.218 54.6567 845.968 40.9067 845.968 40.9067 832.218ZM54.6567 859.718 54.6567 873.468 40.9067 873.468 40.9067 859.718ZM54.6567 887.218 54.6567 900.968 40.9067 900.968 40.9067 887.218ZM54.6567 914.718 54.6567 928.468 40.9067 928.468 40.9067 914.718ZM54.6567 942.218 54.6567 955.968 40.9067 955.968 40.9067 942.218ZM54.6567 969.718 54.6567 983.468 40.9067 983.468 40.9067 969.718ZM54.6567 997.218 54.6567 1010.97 40.9067 1010.97 40.9067 997.218ZM54.6567 1024.72 54.6567 1038.47 40.9067 1038.47 40.9067 1024.72ZM54.6567 1052.22 54.6567 1065.97 40.9067 1065.97 40.9067 1052.22ZM54.6567 1079.72 54.6567 1093.47 40.9067 1093.47 40.9067 1079.72ZM54.6567 1107.22 54.6567 1120.97 40.9067 1120.97 40.9067 1107.22ZM54.6567 1134.72 54.6567 1148.47 40.9067 1148.47 40.9067 1134.72ZM54.6567 1162.22 54.6567 1175.97 40.9067 1175.97 40.9067 1162.22ZM54.6567 1189.72 54.6567 1203.47 40.9067 1203.47 40.9067 1189.72ZM54.6567 1217.22 54.6567 1230.97 40.9067 1230.97 40.9067 1217.22ZM54.6567 1244.72 54.6567 1258.47 40.9067 1258.47 40.9067 1244.72ZM54.6567 1272.22 54.6567 1285.97 40.9067 1285.97 40.9067 1272.22ZM54.6567 1299.72 54.6567 1313.47 40.9067 1313.47 40.9067 1299.72ZM54.6567 1327.22 54.6567 1340.97 40.9067 1340.97 40.9067 1327.22ZM54.6567 1354.72 54.6567 1368.47 40.9067 1368.47 40.9067 1354.72ZM50.805 1372.32 64.555 1372.32 64.555 1386.07 50.805 1386.07ZM78.305 1372.32 92.055 1372.32 92.055 1386.07 78.305 1386.07ZM105.805 1372.32 119.555 1372.32 119.555 1386.07 105.805 1386.07ZM133.305 1372.32 137.108 1372.32 137.108 1386.07 133.305 1386.07ZM130.233 1358.57 171.483 1379.2 130.233 1399.82Z" transform="matrix(1.83697e-16 1 1 -1.83697e-16 2177 658)"/></g></svg>