<?xml version="1.0" encoding="UTF-8" standalone="no"?>
<svg
   width="2964"
   height="996"
   xml:space="preserve"
   overflow="hidden"
   version="1.1"
   id="svg4"
   sodipodi:docname="AAIL_framework_4.svg"
   inkscape:version="1.3.2 (091e20e, 2023-11-25, custom)"
   xmlns:inkscape="http://www.inkscape.org/namespaces/inkscape"
   xmlns:sodipodi="http://sodipodi.sourceforge.net/DTD/sodipodi-0.dtd"
   xmlns="http://www.w3.org/2000/svg"
   xmlns:svg="http://www.w3.org/2000/svg"><defs
     id="defs4" /><sodipodi:namedview
     id="namedview4"
     pagecolor="#ffffff"
     bordercolor="#000000"
     borderopacity="0.25"
     inkscape:showpageshadow="2"
     inkscape:pageopacity="0.0"
     inkscape:pagecheckerboard="0"
     inkscape:deskcolor="#d1d1d1"
     inkscape:zoom="0.47334683"
     inkscape:cx="1482"
     inkscape:cy="498.57733"
     inkscape:window-width="1920"
     inkscape:window-height="1002"
     inkscape:window-x="-8"
     inkscape:window-y="-8"
     inkscape:window-maximized="1"
     inkscape:current-layer="svg4" /><g
     transform="translate(-550 -848)"
     id="g4"><path
       d="M554.5 1696.5C554.5 1647.35 714.558 1607.5 912 1607.5 1109.44 1607.5 1269.5 1647.35 1269.5 1696.5 1269.5 1745.65 1109.44 1785.5 912 1785.5 714.558 1785.5 554.5 1745.65 554.5 1696.5Z"
       stroke="#FF6599"
       stroke-width="9.16667"
       stroke-linejoin="round"
       stroke-miterlimit="10"
       fill="none"
       fill-rule="evenodd"
       id="path1" /><rect
       x="1547.5"
       y="1579.5"
       width="1779"
       height="234"
       stroke="#FF6599"
       stroke-width="9.16667"
       stroke-linejoin="round"
       stroke-miterlimit="10"
       fill="none"
       id="rect1" /><text
       font-family="Calibri, Calibri_MSFontService, sans-serif"
       font-weight="400"
       font-size="83px"
       transform="translate(1580.48,1673)"
       id="text1"><tspan
         sodipodi:role="line"
         id="tspan4"
         x="0"
         y="0">Optimize it with the coupled triplet loss (need to</tspan><tspan
         sodipodi:role="line"
         id="tspan5"
         x="0"
         y="103.75">make two other copies of the framework) </tspan></text><text
       font-family="Calibri, Calibri_MSFontService, sans-serif"
       font-weight="400"
       font-size="83px"
       transform="translate(1580.48,1772)"
       id="text2" /><path
       d="M5.95012e-06-4.58333 255.076-4.583 255.076 4.58366-5.95012e-06 4.58333ZM250.493-13.7497 277.993 0.000360892 250.493 13.7503Z"
       fill="#FF6599"
       transform="matrix(1 0 0 -1 1269.5 1696.5)"
       id="path2" /><path
       d="M2.41373-3.89626 892.409 547.456 887.582 555.248-2.41373 3.89626ZM893.342 537.25 909.478 563.422 878.86 560.628Z"
       fill="#FF6599"
       transform="matrix(-1 0 0 1 3346.98 1016.5)"
       id="path3" /><path
       d="M3184.5 934.5C3184.5 889.213 3257.25 852.5 3347 852.5 3436.75 852.5 3509.5 889.213 3509.5 934.5 3509.5 979.787 3436.75 1016.5 3347 1016.5 3257.25 1016.5 3184.5 979.787 3184.5 934.5Z"
       stroke="#FF6599"
       stroke-width="9.16667"
       stroke-linejoin="round"
       stroke-miterlimit="10"
       fill="none"
       fill-rule="evenodd"
       id="path4" /></g></svg>
