<?xml version="1.0" encoding="UTF-8" standalone="no"?>
<svg
   width="1123"
   height="296"
   xml:space="preserve"
   overflow="hidden"
   version="1.1"
   id="svg4"
   sodipodi:docname="AAIL_framework_66.svg"
   inkscape:version="1.3.2 (091e20e, 2023-11-25, custom)"
   xmlns:inkscape="http://www.inkscape.org/namespaces/inkscape"
   xmlns:sodipodi="http://sodipodi.sourceforge.net/DTD/sodipodi-0.dtd"
   xmlns="http://www.w3.org/2000/svg"
   xmlns:svg="http://www.w3.org/2000/svg"><sodipodi:namedview
     id="namedview4"
     pagecolor="#ffffff"
     bordercolor="#000000"
     borderopacity="0.25"
     inkscape:showpageshadow="2"
     inkscape:pageopacity="0.0"
     inkscape:pagecheckerboard="0"
     inkscape:deskcolor="#d1d1d1"
     inkscape:zoom="1.2493321"
     inkscape:cx="561.5"
     inkscape:cy="148.07912"
     inkscape:window-width="1920"
     inkscape:window-height="1002"
     inkscape:window-x="-8"
     inkscape:window-y="-8"
     inkscape:window-maximized="1"
     inkscape:current-layer="svg4" /><defs
     id="defs2"><filter
       id="fx0"
       x="-10%"
       y="-10%"
       width="120%"
       height="120%"
       filterUnits="userSpaceOnUse"
       primitiveUnits="userSpaceOnUse"><feComponentTransfer
         color-interpolation-filters="sRGB"
         id="feComponentTransfer1"><feFuncR
           type="discrete"
           tableValues="0 0"
           id="feFuncR1" /><feFuncG
           type="discrete"
           tableValues="0 0"
           id="feFuncG1" /><feFuncB
           type="discrete"
           tableValues="0 0"
           id="feFuncB1" /><feFuncA
           type="linear"
           slope="0.631373"
           intercept="0"
           id="feFuncA1" /></feComponentTransfer><feGaussianBlur
         stdDeviation="6.875 6.875"
         id="feGaussianBlur1" /></filter><clipPath
       id="clip1"><rect
         x="3169"
         y="1894"
         width="1123"
         height="296"
         id="rect1" /></clipPath><linearGradient
       x1="3316.5"
       y1="1908.73"
       x2="3316.5"
       y2="2162.27"
       gradientUnits="userSpaceOnUse"
       spreadMethod="reflect"
       id="fill2"><stop
         offset="0"
         stop-color="#FF6599"
         id="stop1" /><stop
         offset="1"
         stop-color="#FF6599"
         id="stop2" /></linearGradient></defs><g
     clip-path="url(#clip1)"
     transform="translate(-3169 -1894)"
     id="g4"><g
       filter="url(#fx0)"
       transform="translate(3168 1894)"
       id="g3"><g
         id="g2"><path
           d="M21.7299 107.803 107.928 107.803 107.928 21.605 189.072 21.605 189.072 107.803 275.27 107.803 275.27 188.947 189.072 188.947 189.072 275.145 107.928 275.145 107.928 188.947 21.7299 188.947Z"
           fill="#FF0000"
           fill-rule="evenodd"
           id="path2" /></g></g><path
       d="M3189.73 1994.93 3275.93 1994.93 3275.93 1908.73 3357.07 1908.73 3357.07 1994.93 3443.27 1994.93 3443.27 2076.07 3357.07 2076.07 3357.07 2162.27 3275.93 2162.27 3275.93 2076.07 3189.73 2076.07Z"
       fill="url(#fill2)"
       fill-rule="evenodd"
       id="path3" /><path
       d="M3554.75 1975.52 3761.25 1975.52 3761.25 2023.5 3554.75 2023.5ZM3554.75 2047.5 3761.25 2047.5 3761.25 2095.48 3554.75 2095.48Z"
       stroke="#AE5A21"
       stroke-width="4.58333"
       stroke-miterlimit="8"
       fill="#FF6599"
       fill-rule="evenodd"
       id="path4" /><rect
       x="3883.5"
       y="1969.5"
       width="404"
       height="133"
       stroke="#FF6599"
       stroke-width="9.16667"
       stroke-linejoin="round"
       stroke-miterlimit="10"
       fill="none"
       id="rect4" /><path
       d="m 34.529297,-49.443359 q 0,0.770019 -0.08105,1.337402 -0.08105,0.567383 -0.283691,0.932129 -0.202637,0.324219 -0.486328,0.486328 -0.243164,0.162109 -0.526856,0.162109 H 13.941406 v 17.832032 h 18.15625 q 0.283692,0 0.526856,0.162109 0.283691,0.121582 0.486328,0.445801 0.202637,0.324219 0.283691,0.891601 0.08105,0.526856 0.08105,1.37793 0,0.77002 -0.08105,1.337402 -0.08105,0.526856 -0.283691,0.891602 -0.202637,0.324219 -0.486328,0.526855 -0.243164,0.16211 -0.526856,0.16211 h -18.15625 v 21.8442381 q 0,0.28369137 -0.162109,0.56738277 -0.162109,0.24316407 -0.567383,0.40527344 -0.405273,0.12158203 -1.053711,0.20263672 -0.648437,0.12158203 -1.702148,0.12158203 -0.9726566,0 -1.6616214,-0.12158203 Q 8.1054688,0.04052734 7.7001953,-0.08105469 7.2949219,-0.24316406 7.1328125,-0.48632813 6.9707031,-0.77001953 6.9707031,-1.0537109 V -49.605469 q 0,-1.580566 0.8105469,-2.188476 0.8510742,-0.648438 1.7832031,-0.648438 H 33.151367 q 0.283692,0 0.526856,0.16211 0.283691,0.162109 0.486328,0.526855 0.202636,0.364746 0.283691,0.972656 0.08105,0.567383 0.08105,1.337403 z m 16.494629,48.4301754 q 0,0.32421876 -0.16211,0.56738282 -0.162109,0.20263672 -0.526855,0.36474609 -0.364746,0.16210938 -1.013184,0.24316406 -0.648437,0.0810547 -1.661621,0.0810547 -0.972656,0 -1.621094,-0.0810547 -0.648437,-0.08105468 -1.05371,-0.24316406 -0.364747,-0.16210937 -0.526856,-0.36474609 -0.121582,-0.24316406 -0.121582,-0.56738282 V -37.487793 q 0,-0.283691 0.121582,-0.526855 0.162109,-0.243164 0.526856,-0.405274 0.405273,-0.162109 1.05371,-0.243164 0.648438,-0.08105 1.621094,-0.08105 1.013184,0 1.661621,0.08105 0.648438,0.08105 1.013184,0.243164 0.364746,0.16211 0.526855,0.405274 0.16211,0.243164 0.16211,0.526855 z m 0.770019,-48.7949214 q 0,2.350585 -0.891601,3.20166 -0.891602,0.851074 -3.282715,0.851074 -2.350586,0 -3.242188,-0.810547 -0.851074,-0.851074 -0.851074,-3.161133 0,-2.350586 0.891602,-3.20166 0.891601,-0.851074 3.282715,-0.851074 2.350586,0 3.20166,0.851074 0.891601,0.810547 0.891601,3.120606 z m 42.999512,48.7949214 q 0,0.32421876 -0.162109,0.56738282 -0.16211,0.20263672 -0.526856,0.36474609 -0.364746,0.16210938 -1.013183,0.24316406 -0.648438,0.0810547 -1.621094,0.0810547 -1.013184,0 -1.661621,-0.0810547 -0.648438,-0.08105468 -1.013184,-0.24316406 -0.364746,-0.16210937 -0.526855,-0.36474609 -0.16211,-0.24316406 -0.16211,-0.56738282 V -22.371094 q 0,-3.120605 -0.486328,-5.02539 -0.486328,-1.904786 -1.418457,-3.282715 -0.932129,-1.37793 -2.43164,-2.107422 -1.458985,-0.729492 -3.404297,-0.729492 -2.512696,0 -5.025391,1.783203 -2.512695,1.783203 -5.268555,5.228027 v 25.4916994 q 0,0.32421876 -0.162109,0.56738282 -0.162109,0.20263672 -0.526856,0.36474609 -0.364746,0.16210938 -1.013183,0.24316406 -0.648438,0.0810547 -1.661621,0.0810547 -0.972656,0 -1.621094,-0.0810547 Q 64.438477,0.08105469 64.033203,-0.08105469 63.668457,-0.24316406 63.506348,-0.44580078 63.384766,-0.68896484 63.384766,-1.0131836 V -37.487793 q 0,-0.324219 0.121582,-0.526855 0.121582,-0.243164 0.486328,-0.405274 0.364746,-0.202637 0.932129,-0.243164 0.567382,-0.08105 1.499511,-0.08105 0.891602,0 1.458985,0.08105 0.60791,0.04053 0.932129,0.243164 0.324218,0.16211 0.4458,0.405274 0.16211,0.202636 0.16211,0.526855 v 4.822754 q 3.080078,-3.444824 6.119629,-5.025391 3.080078,-1.621093 6.200683,-1.621093 3.647461,0 6.119629,1.256347 2.512696,1.215821 4.052735,3.282715 1.540039,2.066895 2.188476,4.863281 0.688965,2.75586 0.688965,6.646485 z m 39.676273,0.0405274 q 0,0.48632812 -0.32422,0.72949219 Q 133.82129,0 133.25391,0.12158203 q -0.56739,0.12158203 -1.66162,0.12158203 -1.05372,0 -1.70215,-0.12158203 Q 129.28223,0 128.99854,-0.24316406 q -0.2837,-0.24316407 -0.2837,-0.72949219 V -4.6201172 q -2.39111,2.5532227 -5.34961,3.9716797 -2.91796,1.41845703 -6.20068,1.41845703 -2.87744,0 -5.22803,-0.77001953 -2.31006,-0.72949219 -3.97168,-2.1479492 -1.62109,-1.4184571 -2.55322,-3.4853516 -0.8916,-2.0668945 -0.8916,-4.7011722 0,-3.080078 1.25635,-5.349609 1.25634,-2.269531 3.60693,-3.769043 2.35059,-1.499512 5.75488,-2.229004 3.4043,-0.770019 7.65967,-0.770019 h 5.02539 v -2.836914 q 0,-2.107422 -0.4458,-3.728516 -0.4458,-1.621094 -1.45898,-2.674805 -0.97266,-1.094238 -2.55323,-1.621094 -1.58056,-0.567382 -3.89062,-0.567382 -2.47217,0 -4.45801,0.60791 -1.94531,0.567383 -3.44482,1.296875 -1.45899,0.688965 -2.47217,1.296875 -0.97266,0.567383 -1.45898,0.567383 -0.32422,0 -0.56739,-0.16211 -0.24316,-0.162109 -0.4458,-0.486328 -0.16211,-0.324219 -0.24316,-0.810547 -0.0811,-0.526855 -0.0811,-1.134765 0,-1.013184 0.12158,-1.580567 0.16211,-0.60791 0.68897,-1.134765 0.56738,-0.526856 1.90478,-1.215821 1.33741,-0.729492 3.08008,-1.296875 1.74268,-0.60791 3.80957,-0.972656 2.0669,-0.405273 4.17432,-0.405273 3.93115,0 6.68701,0.891601 2.75586,0.891602 4.45801,2.634277 1.70215,1.702149 2.47217,4.255372 0.77002,2.553222 0.77002,5.957519 z M 127.82324,-17.629395 h -5.71435 q -2.75586,0 -4.78223,0.486329 -2.02637,0.4458 -3.36377,1.377929 -1.3374,0.891602 -1.98584,2.188477 -0.60791,1.256347 -0.60791,2.917969 0,2.8369137 1.7832,4.5390621 1.82373,1.6616211 5.06592,1.6616211 2.63428,0 4.86328,-1.3374024 2.26953,-1.3374023 4.7417,-4.0932617 z m 25.61328,16.6162114 q 0,0.32421876 -0.16211,0.56738282 -0.16211,0.20263672 -0.52685,0.36474609 -0.36475,0.16210938 -1.01319,0.24316406 -0.64843,0.0810547 -1.66162,0.0810547 -0.97265,0 -1.62109,-0.0810547 -0.64844,-0.08105468 -1.05371,-0.24316406 -0.36475,-0.16210937 -0.52686,-0.36474609 -0.12158,-0.24316406 -0.12158,-0.56738282 V -55.157715 q 0,-0.324219 0.12158,-0.567383 0.16211,-0.243164 0.52686,-0.405273 0.40527,-0.162109 1.05371,-0.243164 0.64844,-0.08106 1.62109,-0.08106 1.01319,0 1.66162,0.08106 0.64844,0.08105 1.01319,0.243164 0.36474,0.162109 0.52685,0.405273 0.16211,0.243164 0.16211,0.567383 z m 59.08887,-2.0263672 q 0,0.8105469 -0.081,1.3779297 -0.0811,0.5268555 -0.2837,0.93212891 -0.1621,0.3647461 -0.4458,0.56738282 Q 211.47168,0 211.10693,0 h -23.18164 q -0.93213,0 -1.7832,-0.60791016 -0.81055,-0.64843754 -0.81055,-2.22900394 V -51.388672 q 0,-0.324219 0.16211,-0.567383 0.16211,-0.243164 0.56739,-0.364746 0.40527,-0.162109 1.09423,-0.243164 0.68897,-0.121582 1.66162,-0.121582 1.01319,0 1.66163,0.121582 0.68896,0.08106 1.09423,0.243164 0.40528,0.121582 0.56739,0.364746 0.16211,0.243164 0.16211,0.567383 v 45.3500978 h 18.80468 q 0.36475,0 0.60791,0.2026367 0.2837,0.1621094 0.4458,0.5268555 0.20264,0.3242187 0.2837,0.8916015 0.081,0.5673828 0.081,1.3779297 z m 40.85156,-16.6162112 q 0,4.458008 -1.17529,8.227051 -1.17529,3.7285157 -3.52588,6.4438477 -2.31006,2.715332 -5.83594,4.25537111 -3.48535,1.49951172 -8.10547,1.49951172 -4.49853,0 -7.8623,-1.33740234 -3.32324,-1.33740239 -5.55225,-3.89062499 -2.229,-2.5532227 -3.32324,-6.2006832 -1.09424,-3.647461 -1.09424,-8.267579 0,-4.458007 1.13477,-8.186523 1.17529,-3.769043 3.48535,-6.484375 2.35059,-2.715332 5.83594,-4.214844 3.48535,-1.499511 8.14599,-1.499511 4.49854,0 7.82178,1.337402 3.36377,1.337402 5.59278,3.890625 2.229,2.553223 3.32324,6.200684 1.13476,3.64746 1.13476,8.22705 z m -7.05175,0.445801 q 0,-2.958496 -0.56739,-5.592773 -0.52685,-2.634278 -1.7832,-4.620118 -1.25635,-1.985839 -3.4043,-3.120605 -2.14795,-1.175293 -5.34961,-1.175293 -2.95849,0 -5.10644,1.053711 -2.10742,1.053711 -3.48535,2.999023 -1.37793,1.904786 -2.0669,4.539063 -0.64844,2.634277 -0.64844,5.754883 0,2.999023 0.52686,5.6333 0.56738,2.634278 1.82373,4.6201177 1.29688,1.9453125 3.44482,3.1206054 2.14795,1.1347657 5.34961,1.1347657 2.91797,0 5.06592,-1.053711 2.14795,-1.0537109 3.52588,-2.9584961 1.37793,-1.9047847 2.02637,-4.5390627 0.64844,-2.634277 0.64844,-5.79541 z m 39.79785,8.267578 q 0,2.7963869 -1.05371,4.9848635 -1.01319,2.1884765 -2.91797,3.6879882 Q 280.24658,-0.77001953 277.6123,0 q -2.63427,0.77001953 -5.79541,0.77001953 -1.94531,0 -3.72851,-0.32421875 -1.74268,-0.28369141 -3.16113,-0.72949219 -1.37793,-0.48632812 -2.35059,-0.97265629 -0.97266,-0.5268554 -1.41846,-0.9321289 -0.4458,-0.4052734 -0.64843,-1.1347656 -0.20264,-0.7294922 -0.20264,-1.9858398 0,-0.7700196 0.0811,-1.296875 0.0811,-0.5268555 0.20264,-0.8510742 0.12158,-0.3242188 0.32422,-0.4458008 0.24316,-0.1621094 0.52685,-0.1621094 0.44581,0 1.29688,0.5673828 0.8916,0.5268555 2.14795,1.175293 1.29687,0.6484375 3.03955,1.2158203 1.74268,0.5268555 4.01221,0.5268555 1.70214,0 3.08007,-0.3647461 1.37793,-0.3647461 2.39112,-1.053711 1.01318,-0.7294922 1.54004,-1.8237304 0.56738,-1.0942383 0.56738,-2.5937497 0,-1.540039 -0.81055,-2.59375 -0.77002,-1.053711 -2.06689,-1.864258 -1.29688,-0.810547 -2.91797,-1.418457 -1.62109,-0.648438 -3.36377,-1.337403 -1.70215,-0.688964 -3.36377,-1.540039 -1.62109,-0.891601 -2.91797,-2.147949 -1.29687,-1.256347 -2.10742,-2.999023 -0.77002,-1.742676 -0.77002,-4.174317 0,-2.147949 0.81055,-4.093261 0.85107,-1.98584 2.51269,-3.444825 1.66162,-1.499511 4.13379,-2.391113 2.5127,-0.891601 5.83594,-0.891601 1.45898,0 2.91797,0.243164 1.45898,0.243164 2.63428,0.60791 1.17529,0.364746 1.98584,0.810547 0.85107,0.405273 1.25634,0.729492 0.4458,0.324219 0.56739,0.567383 0.1621,0.243164 0.20263,0.567382 0.0811,0.283692 0.12158,0.729493 0.0811,0.4458 0.0811,1.094238 0,0.688965 -0.0811,1.21582 -0.0405,0.486328 -0.20263,0.810547 -0.12158,0.324219 -0.32422,0.486328 -0.20264,0.121582 -0.4458,0.121582 -0.36475,0 -1.05371,-0.4458 -0.68897,-0.445801 -1.78321,-0.932129 -1.09423,-0.526856 -2.59375,-0.972657 -1.45898,-0.4458 -3.36377,-0.4458 -1.70214,0 -2.99902,0.405273 -1.29687,0.364746 -2.14795,1.094238 -0.81055,0.688965 -1.25635,1.661621 -0.40527,0.972657 -0.40527,2.107422 0,1.580567 0.81055,2.674805 0.81054,1.053711 2.10742,1.864258 1.29687,0.810547 2.9585,1.458984 1.66162,0.648438 3.36377,1.337402 1.74267,0.688965 3.40429,1.54004 1.70215,0.851074 2.99903,2.066894 1.29687,1.21582 2.06689,2.917969 0.81055,1.702148 0.81055,4.052734 z m 32.4624,0 q 0,2.7963869 -1.05371,4.9848635 -1.01319,2.1884765 -2.91797,3.6879882 Q 312.70898,-0.77001953 310.07471,0 q -2.63428,0.77001953 -5.79541,0.77001953 -1.94532,0 -3.72852,-0.32421875 -1.74267,-0.28369141 -3.16113,-0.72949219 -1.37793,-0.48632812 -2.35059,-0.97265629 -0.97265,-0.5268554 -1.41845,-0.9321289 -0.44581,-0.4052734 -0.64844,-1.1347656 -0.20264,-0.7294922 -0.20264,-1.9858398 0,-0.7700196 0.0811,-1.296875 0.0811,-0.5268555 0.20263,-0.8510742 0.12158,-0.3242188 0.32422,-0.4458008 0.24317,-0.1621094 0.52686,-0.1621094 0.4458,0 1.29687,0.5673828 0.8916,0.5268555 2.14795,1.175293 1.29688,0.6484375 3.03955,1.2158203 1.74268,0.5268555 4.01221,0.5268555 1.70215,0 3.08008,-0.3647461 1.37793,-0.3647461 2.39111,-1.053711 1.01318,-0.7294922 1.54004,-1.8237304 0.56738,-1.0942383 0.56738,-2.5937497 0,-1.540039 -0.81054,-2.59375 -0.77002,-1.053711 -2.0669,-1.864258 -1.29687,-0.810547 -2.91797,-1.418457 -1.62109,-0.648438 -3.36377,-1.337403 -1.70215,-0.688964 -3.36377,-1.540039 -1.62109,-0.891601 -2.91797,-2.147949 -1.29687,-1.256347 -2.10742,-2.999023 -0.77002,-1.742676 -0.77002,-4.174317 0,-2.147949 0.81055,-4.093261 0.85107,-1.98584 2.51269,-3.444825 1.66163,-1.499511 4.13379,-2.391113 2.5127,-0.891601 5.83594,-0.891601 1.45899,0 2.91797,0.243164 1.45898,0.243164 2.63428,0.60791 1.17529,0.364746 1.98584,0.810547 0.85107,0.405273 1.25635,0.729492 0.4458,0.324219 0.56738,0.567383 0.16211,0.243164 0.20263,0.567382 0.0811,0.283692 0.12159,0.729493 0.0811,0.4458 0.0811,1.094238 0,0.688965 -0.0811,1.21582 -0.0405,0.486328 -0.20264,0.810547 -0.12158,0.324219 -0.32422,0.486328 -0.20264,0.121582 -0.4458,0.121582 -0.36475,0 -1.05371,-0.4458 -0.68897,-0.445801 -1.7832,-0.932129 -1.09424,-0.526856 -2.59375,-0.972657 -1.45899,-0.4458 -3.36377,-0.4458 -1.70215,0 -2.99903,0.405273 -1.29687,0.364746 -2.14795,1.094238 -0.81054,0.688965 -1.25634,1.661621 -0.40528,0.972657 -0.40528,2.107422 0,1.580567 0.81055,2.674805 0.81055,1.053711 2.10742,1.864258 1.29688,0.810547 2.9585,1.458984 1.66162,0.648438 3.36377,1.337402 1.74267,0.688965 3.40429,1.54004 1.70215,0.851074 2.99903,2.066894 1.29687,1.21582 2.06689,2.917969 0.81055,1.702148 0.81055,4.052734 z"
       id="text4"
       style="font-size:83px;font-family:Calibri, Calibri_MSFontService, sans-serif"
       transform="matrix(1 0 0 1 3915.66 2062)"
       aria-label="Final Loss" /></g></svg>
