<?xml version="1.0" encoding="UTF-8" standalone="no"?>
<svg
   width="1033"
   height="1243"
   xml:space="preserve"
   overflow="hidden"
   version="1.1"
   id="svg7"
   sodipodi:docname="AAIL_framework_3.svg"
   inkscape:version="1.3.2 (091e20e, 2023-11-25, custom)"
   xmlns:inkscape="http://www.inkscape.org/namespaces/inkscape"
   xmlns:sodipodi="http://sodipodi.sourceforge.net/DTD/sodipodi-0.dtd"
   xmlns="http://www.w3.org/2000/svg"
   xmlns:svg="http://www.w3.org/2000/svg"><defs
     id="defs7" /><sodipodi:namedview
     id="namedview7"
     pagecolor="#ffffff"
     bordercolor="#000000"
     borderopacity="0.25"
     inkscape:showpageshadow="2"
     inkscape:pageopacity="0.0"
     inkscape:pagecheckerboard="0"
     inkscape:deskcolor="#d1d1d1"
     inkscape:zoom="0.64843121"
     inkscape:cx="515.86042"
     inkscape:cy="621.5"
     inkscape:window-width="1920"
     inkscape:window-height="1002"
     inkscape:window-x="-8"
     inkscape:window-y="-8"
     inkscape:window-maximized="1"
     inkscape:current-layer="svg7" /><g
     transform="translate(-324 -1166)"
     id="g7"><rect
       x="693.5"
       y="1838.5"
       width="294"
       height="177"
       stroke="#2F528F"
       stroke-width="4.58333"
       stroke-miterlimit="8"
       fill="#4472C4"
       id="rect1" /><text
       fill="#ffffff"
       font-family="Calibri, Calibri_MSFontService, sans-serif"
       font-weight="700"
       font-size="83px"
       transform="translate(740.032,1905)"
       id="text1"
       x="106.54639"
       y="0"><tspan
         sodipodi:role="line"
         id="tspan7"
         x="106.54639"
         y="0"
         style="text-align:center;text-anchor:middle">Policy</tspan><tspan
         sodipodi:role="line"
         id="tspan8"
         x="106.54639"
         y="103.75"
         style="text-align:center;text-anchor:middle">Model</tspan></text><text
       fill="#ffffff"
       font-family="Calibri, Calibri_MSFontService, sans-serif"
       font-weight="700"
       font-size="83px"
       transform="translate(729.33,2004)"
       id="text2" /><path
       d="M0-6.875 767.155-6.875 767.155 327.709 753.405 327.709 753.405 0 760.28 6.875 0 6.875ZM780.905 320.834 760.28 362.084 739.655 320.834Z"
       transform="matrix(1.83697e-16 1 1 -1.83697e-16 331 1166)"
       id="path2" /><path
       d="M1355.96 1166 1355.96 1933.16 1021.38 1933.16 1021.38 1919.41 1349.09 1919.41 1342.21 1926.28 1342.21 1166ZM1028.25 1946.91 987.001 1926.28 1028.25 1905.66Z"
       id="path3" /><path
       d="M6.875-1.28373e-05 6.8753 158.9-6.8747 158.9-6.875 1.28373e-05ZM20.6253 152.025 0.000360892 193.275-20.6247 152.025Z"
       transform="matrix(-1 0 0 1 840 2015)"
       id="path4" /><path
       d="M838.93 2293.25C834.752 2293.25 831.046 2295.35 827.812 2299.55 824.577 2303.75 821.972 2309.4 819.995 2316.5 818.019 2323.6 817.03 2329.95 817.03 2335.57 817.03 2338.85 817.513 2341.29 818.479 2342.91 819.445 2344.53 820.939 2345.34 822.96 2345.34 825.925 2345.34 828.946 2343.89 832.023 2340.99 835.1 2338.09 837.582 2334.69 839.469 2330.78 841.356 2326.87 843.04 2321.53 844.523 2314.75L845.062 2312.25C845.78 2308.93 846.14 2305.6 846.14 2302.28 846.14 2299.31 845.578 2297.07 844.455 2295.54 843.332 2294.01 841.49 2293.25 838.93 2293.25ZM838.121 2286.24C844.815 2286.24 850.52 2287.86 855.237 2291.09L861.773 2286.24 869.32 2287.32 858.404 2333.14C857.73 2335.97 857.393 2338.53 857.393 2340.82 857.393 2342.31 857.64 2343.45 858.134 2344.26 858.628 2345.07 859.482 2345.47 860.695 2345.47 862.087 2345.47 863.592 2344.84 865.209 2343.59 866.826 2342.33 868.713 2340.46 870.869 2337.99L875.721 2342.84C871.004 2347.56 866.939 2350.81 863.525 2352.58 860.111 2354.36 856.517 2355.24 852.743 2355.24 848.97 2355.24 845.983 2354.2 843.781 2352.11 841.58 2350.02 840.48 2347.27 840.48 2343.85 840.48 2342.73 840.614 2341.65 840.884 2340.62L839.941 2340.49C836.661 2344.35 833.842 2347.26 831.484 2349.21 829.126 2351.17 826.621 2352.66 823.971 2353.69 821.32 2354.73 818.378 2355.24 815.144 2355.24 809.753 2355.24 805.665 2353.41 802.88 2349.75 800.095 2346.09 798.702 2340.76 798.702 2333.75 798.702 2327.68 799.578 2321.66 801.33 2315.69 803.082 2309.71 805.598 2304.56 808.877 2300.22 812.156 2295.89 816.278 2292.48 821.242 2289.98 826.206 2287.49 831.832 2286.24 838.121 2286.24Z"
       fill-rule="evenodd"
       id="path5" /><text
       fill="#000000"
       fill-opacity="0"
       font-family="Arial,Arial_MSFontService,sans-serif"
       font-size="69"
       x="798.702"
       y="2346.62"
       id="text5">ğ’‚</text><path
       d="M829.503 2254.44 838.532 2254.44 873.571 2275.67 870.808 2279.91 834.759 2263.13 834.017 2263.13 798.035 2279.91 795.34 2275.67Z"
       fill-rule="evenodd"
       id="path6" /><text
       fill="#000000"
       fill-opacity="0"
       font-family="Arial,Arial_MSFontService,sans-serif"
       font-size="25.4707"
       x="795.34"
       y="2276.73"
       id="text6">à·</text><path
       d="M896.916 2320.99 908.752 2320.99 905.891 2333.32 917.875 2333.32 916.544 2339.48 904.461 2339.48 899.677 2359.21C898.855 2362.59 898.288 2365.17 897.976 2366.92 897.664 2368.68 897.507 2370.17 897.507 2371.39 897.507 2372.93 897.787 2374.06 898.346 2374.77 898.905 2375.47 899.727 2375.83 900.812 2375.83 902.291 2375.83 903.812 2375.3 905.373 2374.25 906.935 2373.2 908.62 2371.57 910.428 2369.37L914.226 2373.26C910.905 2376.91 907.856 2379.45 905.077 2380.88 902.299 2382.31 899.02 2383.03 895.239 2383.03 891.491 2383.03 888.614 2382.06 886.608 2380.14 884.603 2378.22 883.6 2375.56 883.6 2372.18 883.6 2370.63 883.715 2369.16 883.945 2367.76 884.176 2366.37 884.652 2364.07 885.376 2360.88L890.455 2339.48 882.762 2339.48 883.699 2335.49C886 2335.49 887.743 2335.27 888.926 2334.84 890.11 2334.42 891.104 2333.78 891.91 2332.92 892.715 2332.07 893.496 2330.77 894.253 2329.03 895.009 2327.28 895.896 2324.6 896.916 2320.99Z"
       fill-rule="evenodd"
       id="path7" /><text
       fill="#000000"
       fill-opacity="0"
       font-family="Arial,Arial_MSFontService,sans-serif"
       font-size="62.04"
       x="882.762"
       y="2375.27"
       id="text7">ğ’•</text></g></svg>
