<svg width="2629" height="192" xmlns="http://www.w3.org/2000/svg" xmlns:xlink="http://www.w3.org/1999/xlink" xml:space="preserve" overflow="hidden"><g transform="translate(-693 -2220)"><rect x="1538.5" y="2246.5" width="1779" height="134" stroke="#FF6599" stroke-width="9.16667" stroke-linejoin="round" stroke-miterlimit="10" fill="none"/><text font-family="Calibri,Calibri_MSFontService,sans-serif" font-weight="400" font-size="83" transform="matrix(1 0 0 1 1571.18 2340)">Optimize it with a behavior cloning loss (need </text><path d="M3142.72 2303.71C3139.94 2303.71 3137.44 2304.83 3135.22 2307.07 3133.01 2309.31 3131.28 2312.32 3130.04 2316.09 3128.79 2319.86 3128.17 2323.62 3128.17 2327.37 3128.17 2330.18 3128.56 2332.28 3129.33 2333.68 3130.1 2335.07 3131.39 2335.76 3133.2 2335.76 3134.98 2335.76 3136.73 2334.99 3138.45 2333.45 3140.16 2331.91 3141.93 2329.72 3143.76 2326.87 3145.58 2324.02 3146.87 2320.73 3147.63 2317L3147.99 2315.26C3148.23 2314.15 3148.4 2313.19 3148.48 2312.38 3148.56 2311.57 3148.6 2310.69 3148.6 2309.74 3148.6 2307.66 3148.15 2306.14 3147.26 2305.16 3146.37 2304.19 3144.86 2303.71 3142.72 2303.71ZM3141.91 2300.5C3143.67 2300.5 3145.31 2300.7 3146.84 2301.09 3148.36 2301.48 3149.94 2302.18 3151.56 2303.18L3155.29 2300.5 3157.88 2301.15 3151.92 2326.85C3151.33 2329.41 3151.03 2331.41 3151.03 2332.84 3151.03 2333.93 3151.21 2334.71 3151.56 2335.2 3151.91 2335.68 3152.46 2335.93 3153.22 2335.93 3154.03 2335.93 3154.89 2335.59 3155.81 2334.93 3156.73 2334.27 3158.03 2333.01 3159.7 2331.14L3162.01 2333.41C3159.58 2336.01 3157.51 2337.85 3155.79 2338.94 3154.08 2340.04 3152.22 2340.59 3150.22 2340.59 3148.54 2340.59 3147.21 2340.03 3146.21 2338.92 3145.21 2337.82 3144.71 2336.34 3144.71 2334.51 3144.71 2333.02 3145.02 2331.44 3145.64 2329.76L3145.11 2329.6C3142.52 2333.39 3140.06 2336.15 3137.74 2337.91 3135.41 2339.67 3132.95 2340.55 3130.36 2340.55 3127.39 2340.55 3125.09 2339.42 3123.45 2337.18 3121.82 2334.94 3121 2331.79 3121 2327.74 3121 2323.09 3121.91 2318.63 3123.73 2314.34 3125.56 2310.06 3128.06 2306.68 3131.25 2304.21 3134.44 2301.74 3137.99 2300.5 3141.91 2300.5Z" fill-rule="evenodd"/><text fill="#000000" fill-opacity="0" font-family="Arial,Arial_MSFontService,sans-serif" font-size="40.0815" x="3121" y="2335.58">ğ‘</text><path d="M3175.38 2320.39 3180.03 2320.39 3178.33 2327.96 3188.46 2327.96 3187.78 2331.26 3177.68 2331.26 3174.64 2343.74C3174.44 2344.58 3174.28 2345.33 3174.15 2345.99 3174.02 2346.66 3173.92 2347.26 3173.84 2347.8 3173.76 2348.33 3173.7 2348.82 3173.67 2349.25 3173.64 2349.69 3173.63 2350.1 3173.63 2350.48 3173.63 2351.67 3173.88 2352.6 3174.37 2353.28 3174.87 2353.95 3175.68 2354.29 3176.81 2354.29 3177.77 2354.29 3178.78 2353.94 3179.85 2353.23 3180.92 2352.53 3182.15 2351.42 3183.52 2349.91L3185.57 2352C3184.56 2353.13 3183.6 2354.09 3182.68 2354.88 3181.77 2355.68 3180.88 2356.33 3180 2356.84 3179.13 2357.34 3178.26 2357.71 3177.41 2357.94 3176.56 2358.17 3175.68 2358.28 3174.79 2358.28 3172.43 2358.28 3170.66 2357.72 3169.5 2356.61 3168.34 2355.5 3167.76 2353.86 3167.76 2351.7 3167.76 2350.96 3167.81 2350.15 3167.92 2349.27 3168.03 2348.39 3168.19 2347.53 3168.39 2346.69L3171.93 2331.26 3166.81 2331.26 3167.4 2328.97C3168.59 2328.97 3169.52 2328.86 3170.19 2328.63 3170.85 2328.4 3171.41 2328.09 3171.87 2327.69 3172.17 2327.41 3172.46 2327.07 3172.73 2326.66 3173.01 2326.26 3173.29 2325.76 3173.57 2325.19 3173.85 2324.61 3174.13 2323.93 3174.42 2323.15 3174.7 2322.36 3175.03 2321.45 3175.38 2320.39Z" fill-rule="evenodd"/><text fill="#000000" fill-opacity="0" font-family="Arial,Arial_MSFontService,sans-serif" font-size="37.8867" x="3166.81" y="2353.54">ğ‘¡</text><path d="M3177.37 2280.11 3181.3 2280.11 3180.44 2289.43 3188.09 2284.04 3190.03 2287.38 3181.54 2291.34 3190.03 2295.33 3188.09 2298.64 3180.44 2293.25 3181.3 2302.57 3177.37 2302.57 3178.27 2293.25 3170.58 2298.64 3168.61 2295.33 3177.13 2291.34 3168.61 2287.38 3170.58 2284.04 3178.27 2289.43Z" fill-rule="evenodd"/><text fill="#000000" fill-opacity="0" font-family="Arial,Arial_MSFontService,sans-serif" font-size="22.458" x="3168.61" y="2299.76">âˆ—</text><text font-family="Calibri,Calibri_MSFontService,sans-serif" font-weight="400" font-size="83" transform="matrix(1 0 0 1 3197.23 2340)">)</text><path d="M697.5 2313.5C697.5 2264.35 768.015 2224.5 855 2224.5 941.985 2224.5 1012.5 2264.35 1012.5 2313.5 1012.5 2362.65 941.985 2402.5 855 2402.5 768.015 2402.5 697.5 2362.65 697.5 2313.5Z" stroke="#FF6599" stroke-width="9.16667" stroke-linejoin="round" stroke-miterlimit="10" fill="none" fill-rule="evenodd"/><path d="M3.14067e-06-4.58333 503.752-4.58299 503.752 4.58368-3.14067e-06 4.58333ZM499.169-13.7497 526.669 0.000360892 499.169 13.7503Z" fill="#FF6599" transform="matrix(1 0 0 -1 1012.5 2313.5)"/></g></svg>