<svg width="1199" height="385" xmlns="http://www.w3.org/2000/svg" xmlns:xlink="http://www.w3.org/1999/xlink" xml:space="preserve" overflow="hidden"><g transform="translate(-2842 -1301)"><path d="M3699.52 1379 3730.4 1379 3731.82 1381.67 3713.5 1404.73C3710.51 1408.52 3707.74 1411.78 3705.2 1414.54L3705.48 1414.91 3713.14 1414.91C3714.44 1414.91 3715.55 1414.68 3716.48 1414.22 3717.42 1413.76 3718.33 1412.92 3719.22 1411.7 3720.11 1410.49 3721.04 1408.77 3722.01 1406.56L3726.31 1406.56 3723.6 1419.2 3692.39 1419.2 3690.97 1416.53 3708.92 1393.91C3711.9 1390.16 3714.79 1386.74 3717.6 1383.66L3717.31 1383.29 3709.69 1383.29C3708.67 1383.29 3707.74 1383.5 3706.9 1383.9 3706.06 1384.31 3705.23 1385 3704.41 1385.99 3703.58 1386.98 3702.55 1388.62 3701.31 1390.91L3696.97 1390.91Z" fill-rule="evenodd"/><text fill="#000000" fill-opacity="0" font-family="Arial,Arial_MSFontService,sans-serif" font-size="40.2031" x="3690.97" y="1414.18">𝒛</text><path d="M3744.39 1405.93 3751.54 1405.93 3749.81 1413.37 3757.05 1413.37 3756.24 1417.1 3748.94 1417.1 3746.05 1429.01C3745.56 1431.06 3745.22 1432.61 3745.03 1433.67 3744.84 1434.73 3744.74 1435.63 3744.74 1436.37 3744.74 1437.3 3744.91 1437.98 3745.25 1438.41 3745.59 1438.83 3746.08 1439.05 3746.74 1439.05 3747.63 1439.05 3748.55 1438.73 3749.49 1438.09 3750.44 1437.46 3751.46 1436.48 3752.55 1435.15L3754.84 1437.5C3752.84 1439.7 3750.99 1441.24 3749.32 1442.1 3747.64 1442.96 3745.66 1443.4 3743.37 1443.4 3741.11 1443.4 3739.37 1442.82 3738.16 1441.65 3736.95 1440.49 3736.34 1438.89 3736.34 1436.84 3736.34 1435.91 3736.41 1435.02 3736.55 1434.18 3736.69 1433.33 3736.98 1431.95 3737.42 1430.02L3740.48 1417.1 3735.84 1417.1 3736.4 1414.68C3737.79 1414.68 3738.85 1414.55 3739.56 1414.3 3740.28 1414.04 3740.88 1413.65 3741.36 1413.13 3741.85 1412.62 3742.32 1411.83 3742.78 1410.78 3743.24 1409.73 3743.77 1408.11 3744.39 1405.93Z" fill-rule="evenodd"/><text fill="#000000" fill-opacity="0" font-family="Arial,Arial_MSFontService,sans-serif" font-size="37.4697" x="3735.84" y="1438.71">𝒕</text><path d="M3777.34 1407.54 3782.16 1407.54 3782.16 1423.2 3796.91 1423.2 3796.91 1427.76 3782.16 1427.76 3782.16 1443.43 3777.34 1443.43 3777.34 1427.76 3762.6 1427.76 3762.6 1423.2 3777.34 1423.2Z" fill-rule="evenodd"/><text fill="#000000" fill-opacity="0" font-family="Arial,Arial_MSFontService,sans-serif" font-size="35.8911" x="3762.6" y="1438.94">+</text><path d="M3821.54 1401.79 3825.35 1401.79C3825.23 1403.69 3825.17 1406.33 3825.17 1409.71L3825.17 1434.61C3825.17 1435.76 3825.23 1436.63 3825.36 1437.22 3825.49 1437.8 3825.72 1438.28 3826.05 1438.65 3826.38 1439.01 3826.85 1439.3 3827.46 1439.51 3828.08 1439.72 3828.85 1439.88 3829.79 1439.99 3830.72 1440.1 3831.95 1440.17 3833.48 1440.21L3833.48 1442.92 3807.78 1442.92 3807.78 1440.21C3809.98 1440.11 3811.55 1439.98 3812.5 1439.81 3813.44 1439.64 3814.16 1439.39 3814.66 1439.05 3815.15 1438.71 3815.51 1438.23 3815.74 1437.62 3815.97 1437 3816.09 1436 3816.09 1434.61L3816.09 1413.08C3816.09 1412.26 3815.93 1411.68 3815.62 1411.32 3815.32 1410.96 3814.89 1410.78 3814.36 1410.78 3813.86 1410.78 3813.16 1411.01 3812.26 1411.47 3811.35 1411.92 3809.87 1412.86 3807.81 1414.27L3805.99 1411.11Z" fill-rule="evenodd"/><text fill="#000000" fill-opacity="0" font-family="Arial,Arial_MSFontService,sans-serif" font-size="41.1333" x="3805.99" y="1437.78">𝟏</text><path d="M3752.46 1353.34C3750.79 1353.34 3749.35 1354.15 3748.12 1355.77 3746.9 1357.39 3745.85 1359.89 3744.97 1363.27 3744.08 1366.66 3743.64 1369.59 3743.64 1372.07 3743.64 1373.94 3743.94 1375.34 3744.55 1376.26 3745.16 1377.18 3746.11 1377.64 3747.42 1377.64 3749.11 1377.64 3750.58 1376.83 3751.82 1375.19 3753.06 1373.55 3754.1 1371.07 3754.93 1367.76 3755.76 1364.44 3756.18 1361.56 3756.18 1359.12 3756.18 1357.13 3755.88 1355.67 3755.27 1354.74 3754.67 1353.81 3753.73 1353.34 3752.46 1353.34ZM3753.14 1350.24C3755.61 1350.24 3757.67 1350.69 3759.34 1351.6 3761.01 1352.5 3762.24 1353.76 3763.05 1355.37 3763.85 1356.97 3764.25 1358.84 3764.25 1360.96 3764.25 1363.59 3763.82 1366.22 3762.94 1368.86 3762.07 1371.5 3760.86 1373.71 3759.32 1375.5 3757.79 1377.29 3755.96 1378.61 3753.86 1379.46 3751.75 1380.32 3749.37 1380.74 3746.71 1380.74 3744.53 1380.74 3742.6 1380.35 3740.95 1379.57 3739.29 1378.78 3737.99 1377.59 3737.04 1375.99 3736.1 1374.39 3735.63 1372.44 3735.63 1370.14 3735.63 1367.8 3736 1365.34 3736.73 1362.77 3737.47 1360.2 3738.61 1357.93 3740.16 1355.98 3741.71 1354.02 3743.58 1352.58 3745.77 1351.64 3747.97 1350.71 3750.42 1350.24 3753.14 1350.24Z" fill-rule="evenodd"/><text fill="#000000" fill-opacity="0" font-family="Arial,Arial_MSFontService,sans-serif" font-size="30.5" x="3735.63" y="1376.93">𝒐</text><path d="M3771.29 1373.36 3776.51 1373.36C3776.78 1374.75 3776.92 1376.12 3776.92 1377.47 3776.92 1378.86 3776.68 1380.13 3776.21 1381.28 3775.73 1382.43 3774.97 1383.58 3773.93 1384.72 3772.89 1385.86 3771.45 1387.12 3769.62 1388.49L3768.02 1386.67C3769.03 1385.72 3769.76 1384.86 3770.22 1384.09 3770.68 1383.33 3771 1382.46 3771.2 1381.49 3771.4 1380.51 3771.5 1379.29 3771.5 1377.82 3771.5 1376.31 3771.43 1374.82 3771.29 1373.36Z" fill-rule="evenodd"/><text fill="#000000" fill-opacity="0" font-family="Arial,Arial_MSFontService,sans-serif" font-size="15.1309" x="3768.02" y="1386.6">,</text><path d="M3804.24 1346.82 3795.04 1364.18 3804.75 1364.18 3804.63 1357.03C3804.59 1354.49 3804.57 1352.39 3804.57 1350.72 3804.57 1349.45 3804.58 1348.15 3804.6 1346.82ZM3803.82 1339.4 3812.4 1339.4 3813.68 1371.24C3813.72 1372.37 3813.8 1373.39 3813.92 1374.29 3814.04 1375.2 3814.23 1375.94 3814.49 1376.51 3814.74 1377.09 3815.07 1377.51 3815.45 1377.78 3815.84 1378.05 3816.33 1378.22 3816.93 1378.3L3816.48 1380.27 3801.08 1380.27 3801.53 1378.3C3802.4 1378.24 3803.09 1378.02 3803.6 1377.63 3804.11 1377.24 3804.46 1376.72 3804.66 1376.05 3804.86 1375.39 3804.96 1374.46 3804.96 1373.27 3804.96 1372.41 3804.94 1371.52 3804.9 1370.59L3804.84 1367.67 3793.19 1367.67 3792.77 1368.41C3791.66 1370.42 3790.92 1371.94 3790.55 1372.97 3790.19 1374 3790 1374.95 3790 1375.83 3790 1377.26 3790.85 1378.08 3792.53 1378.3L3792.09 1380.27 3779.52 1380.27 3779.97 1378.3C3780.66 1378.14 3781.27 1377.87 3781.8 1377.5 3782.32 1377.12 3782.82 1376.61 3783.3 1375.96 3783.78 1375.32 3784.45 1374.21 3785.33 1372.64Z" fill-rule="evenodd"/><text fill="#000000" fill-opacity="0" font-family="Arial,Arial_MSFontService,sans-serif" font-size="40.8652" x="3779.52" y="1375.16">𝑨</text><path d="M3532.5 1497.5C3532.5 1395.33 3645.55 1312.5 3785 1312.5 3924.45 1312.5 4037.5 1395.33 4037.5 1497.5 4037.5 1599.67 3924.45 1682.5 3785 1682.5 3645.55 1682.5 3532.5 1599.67 3532.5 1497.5Z" stroke="#000000" stroke-width="6.875" stroke-linejoin="round" stroke-miterlimit="10" fill="none" fill-rule="evenodd"/><path d="M3021.14 1371.69 3052.03 1371.69 3053.44 1374.37 3035.13 1397.43C3032.13 1401.21 3029.36 1404.48 3026.82 1407.23L3027.1 1407.6 3034.76 1407.6C3036.06 1407.6 3037.17 1407.37 3038.1 1406.91 3039.04 1406.45 3039.95 1405.61 3040.84 1404.4 3041.73 1403.18 3042.66 1401.47 3043.64 1399.25L3047.93 1399.25 3045.22 1411.89 3014.01 1411.89 3012.59 1409.22 3030.55 1386.61C3033.52 1382.85 3036.41 1379.43 3039.22 1376.35L3038.94 1375.99 3031.32 1375.99C3030.29 1375.99 3029.36 1376.19 3028.52 1376.59 3027.68 1377 3026.85 1377.7 3026.03 1378.68 3025.2 1379.67 3024.17 1381.31 3022.93 1383.61L3018.59 1383.61Z" fill-rule="evenodd"/><text fill="#000000" fill-opacity="0" font-family="Arial,Arial_MSFontService,sans-serif" font-size="40.2031" x="3012.59" y="1406.87">𝒛</text><path d="M3066.01 1396.58 3073.16 1396.58 3071.43 1404.03 3078.67 1404.03 3077.86 1407.75 3070.57 1407.75 3067.68 1419.66C3067.18 1421.71 3066.84 1423.26 3066.65 1424.32 3066.46 1425.39 3066.37 1426.29 3066.37 1427.02 3066.37 1427.95 3066.53 1428.63 3066.87 1429.06 3067.21 1429.49 3067.71 1429.7 3068.36 1429.7 3069.26 1429.7 3070.17 1429.38 3071.12 1428.75 3072.06 1428.11 3073.08 1427.13 3074.17 1425.8L3076.46 1428.15C3074.46 1430.36 3072.62 1431.89 3070.94 1432.75 3069.26 1433.62 3067.28 1434.05 3065 1434.05 3062.73 1434.05 3060.99 1433.47 3059.78 1432.31 3058.57 1431.15 3057.97 1429.54 3057.97 1427.5 3057.97 1426.56 3058.04 1425.68 3058.18 1424.83 3058.31 1423.99 3058.6 1422.6 3059.04 1420.68L3062.11 1407.75 3057.46 1407.75 3058.03 1405.34C3059.42 1405.34 3060.47 1405.21 3061.18 1404.95 3061.9 1404.69 3062.5 1404.3 3062.99 1403.79 3063.47 1403.27 3063.94 1402.49 3064.4 1401.44 3064.86 1400.38 3065.39 1398.76 3066.01 1396.58Z" fill-rule="evenodd"/><text fill="#000000" fill-opacity="0" font-family="Arial,Arial_MSFontService,sans-serif" font-size="37.4697" x="3057.46" y="1429.37">𝒕</text><path d="M3074.08 1346.03C3072.41 1346.03 3070.97 1346.84 3069.75 1348.46 3068.53 1350.08 3067.47 1352.58 3066.59 1355.97 3065.71 1359.35 3065.26 1362.29 3065.26 1364.77 3065.26 1366.63 3065.57 1368.03 3066.17 1368.95 3066.78 1369.88 3067.74 1370.34 3069.05 1370.34 3070.73 1370.34 3072.2 1369.52 3073.44 1367.88 3074.68 1366.24 3075.72 1363.77 3076.55 1360.45 3077.39 1357.13 3077.8 1354.25 3077.8 1351.81 3077.8 1349.83 3077.5 1348.37 3076.9 1347.43 3076.29 1346.5 3075.35 1346.03 3074.08 1346.03ZM3074.77 1342.94C3077.23 1342.94 3079.29 1343.39 3080.96 1344.29 3082.63 1345.19 3083.86 1346.45 3084.67 1348.06 3085.47 1349.67 3085.88 1351.53 3085.88 1353.66 3085.88 1356.28 3085.44 1358.91 3084.56 1361.55 3083.69 1364.19 3082.48 1366.41 3080.95 1368.19 3079.41 1369.98 3077.59 1371.3 3075.48 1372.15 3073.38 1373.01 3070.99 1373.44 3068.33 1373.44 3066.15 1373.44 3064.23 1373.04 3062.57 1372.26 3060.91 1371.47 3059.61 1370.28 3058.67 1368.68 3057.72 1367.09 3057.25 1365.14 3057.25 1362.83 3057.25 1360.49 3057.62 1358.03 3058.35 1355.46 3059.09 1352.89 3060.23 1350.62 3061.78 1348.67 3063.33 1346.71 3065.2 1345.27 3067.39 1344.34 3069.59 1343.4 3072.05 1342.94 3074.77 1342.94Z" fill-rule="evenodd"/><text fill="#000000" fill-opacity="0" font-family="Arial,Arial_MSFontService,sans-serif" font-size="30.5" x="3057.25" y="1369.62">𝒐</text><path d="M3092.91 1366.05 3098.13 1366.05C3098.41 1367.44 3098.54 1368.81 3098.54 1370.16 3098.54 1371.55 3098.31 1372.82 3097.83 1373.97 3097.35 1375.12 3096.59 1376.27 3095.55 1377.41 3094.51 1378.55 3093.07 1379.81 3091.25 1381.18L3089.64 1379.36C3090.65 1378.41 3091.39 1377.55 3091.84 1376.79 3092.3 1376.02 3092.63 1375.15 3092.83 1374.18 3093.02 1373.21 3093.12 1371.99 3093.12 1370.52 3093.12 1369.01 3093.05 1367.52 3092.91 1366.05Z" fill-rule="evenodd"/><text fill="#000000" fill-opacity="0" font-family="Arial,Arial_MSFontService,sans-serif" font-size="15.1309" x="3089.64" y="1379.29">,</text><path d="M3125.86 1339.51 3116.66 1356.87 3126.37 1356.87 3126.25 1349.73C3126.21 1347.18 3126.19 1345.08 3126.19 1343.41 3126.19 1342.14 3126.2 1340.84 3126.22 1339.51ZM3125.45 1332.09 3134.02 1332.09 3135.3 1363.93C3135.34 1365.07 3135.42 1366.08 3135.54 1366.99 3135.66 1367.89 3135.85 1368.63 3136.11 1369.21 3136.37 1369.78 3136.69 1370.2 3137.08 1370.47 3137.46 1370.74 3137.96 1370.91 3138.55 1370.99L3138.1 1372.96 3122.71 1372.96 3123.15 1370.99C3124.03 1370.93 3124.72 1370.71 3125.22 1370.32 3125.73 1369.94 3126.08 1369.41 3126.28 1368.74 3126.48 1368.08 3126.58 1367.15 3126.58 1365.96 3126.58 1365.11 3126.56 1364.21 3126.52 1363.28L3126.46 1360.36 3114.81 1360.36 3114.4 1361.1C3113.28 1363.11 3112.54 1364.63 3112.18 1365.66 3111.81 1366.69 3111.62 1367.65 3111.62 1368.52 3111.62 1369.95 3112.47 1370.77 3114.16 1370.99L3113.71 1372.96 3101.14 1372.96 3101.59 1370.99C3102.28 1370.83 3102.89 1370.57 3103.42 1370.19 3103.95 1369.81 3104.45 1369.3 3104.92 1368.65 3105.4 1368.01 3106.07 1366.9 3106.95 1365.33Z" fill-rule="evenodd"/><text fill="#000000" fill-opacity="0" font-family="Arial,Arial_MSFontService,sans-serif" font-size="40.8652" x="3101.14" y="1367.85">𝑨</text><path d="M2845.5 1490C2845.5 1387.55 2958.55 1304.5 3098 1304.5 3237.45 1304.5 3350.5 1387.55 3350.5 1490 3350.5 1592.45 3237.45 1675.5 3098 1675.5 2958.55 1675.5 2845.5 1592.45 2845.5 1490Z" stroke="#000000" stroke-width="6.875" stroke-linejoin="round" stroke-miterlimit="10" fill="none" fill-rule="evenodd"/></g></svg>