<svg width="1028" height="218" xmlns="http://www.w3.org/2000/svg" xmlns:xlink="http://www.w3.org/1999/xlink" xml:space="preserve" overflow="hidden"><g transform="translate(-2786 -1647)"><path d="M3103.08 1698.42 3103.08 1809.75 3093.92 1809.75 3093.92 1698.42ZM3084.75 1703 3098.5 1675.5 3112.25 1703Z"/><path d="M20.8452 10.5665 219.886 167.143 214.219 174.348 15.1777 17.7711ZM13.1125 27.8096 0 0 30.1152 6.19576Z" transform="matrix(1 0 0 -1 2814.5 1837.25)"/><path d="M3790.08 1705.42 3790.08 1809.44 3780.92 1809.44 3780.92 1705.42ZM3771.75 1710 3785.5 1682.5 3799.25 1710Z"/><path d="M20.0877 11.9443 192.396 167.342 186.257 174.149 13.9486 18.7516ZM11.213 28.6283 0 0 29.6305 8.2066Z" transform="matrix(1 0 0 -1 3501.5 1837.25)"/></g></svg>