<svg width="167" height="167" xmlns="http://www.w3.org/2000/svg" xmlns:xlink="http://www.w3.org/1999/xlink" xml:space="preserve" overflow="hidden"><g transform="translate(-3315 -990)"><path d="M3318.5 1073.5C3318.5 1029.32 3354.32 993.5 3398.5 993.5 3442.68 993.5 3478.5 1029.32 3478.5 1073.5 3478.5 1117.68 3442.68 1153.5 3398.5 1153.5 3354.32 1153.5 3318.5 1117.68 3318.5 1073.5Z" stroke="#000000" stroke-width="6.875" stroke-linejoin="round" stroke-miterlimit="10" fill="none" fill-rule="evenodd"/><path d="M3358.01 1045.1 3393.1 1045.1 3392.66 1047.05 3355.78 1096.69 3368.75 1096.69C3370.13 1096.69 3371.24 1096.58 3372.09 1096.35 3372.94 1096.12 3373.69 1095.78 3374.34 1095.32 3374.99 1094.86 3375.65 1094.24 3376.33 1093.45 3377 1092.67 3377.68 1091.7 3378.37 1090.55 3379.06 1089.41 3379.85 1087.81 3380.74 1085.75L3384.63 1085.75 3381.51 1100.42 3345.57 1100.42 3345.97 1098.44 3382.77 1048.83 3370.33 1048.83C3368.82 1048.83 3367.61 1048.97 3366.72 1049.24 3365.83 1049.51 3365 1049.99 3364.23 1050.68 3363.46 1051.36 3362.66 1052.32 3361.82 1053.55 3360.98 1054.78 3360.01 1056.53 3358.9 1058.8L3355.01 1058.8Z" fill-rule="evenodd"/><text fill="#000000" fill-opacity="0" font-family="Arial,Arial_MSFontService,sans-serif" font-size="55.3198" x="3345.57" y="1093.51">𝑍</text><path d="M3413.5 1084.65C3411.77 1087.47 3410.06 1090.3 3408.36 1093.13 3406.67 1095.96 3404.95 1098.79 3403.23 1101.63L3414.69 1101.63C3414.59 1100.36 3414.49 1099.11 3414.4 1097.89 3414.3 1096.67 3414.22 1095.38 3414.16 1094.03 3414.1 1092.68 3414.04 1091.24 3413.99 1089.72 3413.94 1088.19 3413.92 1086.5 3413.92 1084.65ZM3413.38 1078.13 3418.3 1078.13 3421.01 1109.61C3421.09 1110.62 3421.21 1111.48 3421.38 1112.17 3421.55 1112.87 3421.78 1113.44 3422.08 1113.9 3422.38 1114.36 3422.75 1114.71 3423.2 1114.94 3423.64 1115.18 3424.2 1115.35 3424.88 1115.45L3424.43 1117.27 3411.45 1117.27 3411.89 1115.45C3412.45 1115.35 3412.94 1115.23 3413.37 1115.08 3413.79 1114.93 3414.15 1114.68 3414.43 1114.33 3414.7 1113.99 3414.92 1113.51 3415.07 1112.92 3415.21 1112.32 3415.29 1111.55 3415.29 1110.6 3415.29 1110.24 3415.28 1109.83 3415.26 1109.36 3415.24 1108.89 3415.21 1108.4 3415.18 1107.88 3415.16 1107.37 3415.12 1106.84 3415.07 1106.29 3415.02 1105.75 3414.97 1105.21 3414.93 1104.7L3401.59 1104.7C3401.13 1105.37 3400.68 1106.07 3400.23 1106.78 3399.79 1107.5 3399.38 1108.2 3399.01 1108.88 3398.64 1109.57 3398.35 1110.25 3398.13 1110.92 3397.91 1111.6 3397.81 1112.26 3397.81 1112.92 3397.81 1114.37 3398.87 1115.21 3400.99 1115.45L3400.6 1117.27 3387.59 1117.27 3387.92 1115.45C3388.45 1115.35 3388.93 1115.2 3389.36 1114.99 3389.79 1114.78 3390.23 1114.45 3390.7 1114.01 3391.17 1113.56 3391.67 1112.95 3392.22 1112.19 3392.77 1111.42 3393.43 1110.42 3394.2 1109.17Z" fill-rule="evenodd"/><text fill="#000000" fill-opacity="0" font-family="Arial,Arial_MSFontService,sans-serif" font-size="39.1377" x="3387.59" y="1112.37">𝐴</text></g></svg>