<svg width="1123" height="296" xmlns="http://www.w3.org/2000/svg" xmlns:xlink="http://www.w3.org/1999/xlink" xml:space="preserve" overflow="hidden"><defs><filter id="fx0" x="-10%" y="-10%" width="120%" height="120%" filterUnits="userSpaceOnUse" primitiveUnits="userSpaceOnUse"><feComponentTransfer color-interpolation-filters="sRGB"><feFuncR type="discrete" tableValues="0 0"/><feFuncG type="discrete" tableValues="0 0"/><feFuncB type="discrete" tableValues="0 0"/><feFuncA type="linear" slope="0.631373" intercept="0"/></feComponentTransfer><feGaussianBlur stdDeviation="6.875 6.875"/></filter><clipPath id="clip1"><rect x="3169" y="1894" width="1123" height="296"/></clipPath><linearGradient x1="3316.5" y1="1908.73" x2="3316.5" y2="2162.27" gradientUnits="userSpaceOnUse" spreadMethod="reflect" id="fill2"><stop offset="0" stop-color="#FF6599"/><stop offset="1" stop-color="#FF6599"/></linearGradient></defs><g clip-path="url(#clip1)" transform="translate(-3169 -1894)"><g filter="url(#fx0)" transform="translate(3168 1894)"><g><path d="M21.7299 107.803 107.928 107.803 107.928 21.605 189.072 21.605 189.072 107.803 275.27 107.803 275.27 188.947 189.072 188.947 189.072 275.145 107.928 275.145 107.928 188.947 21.7299 188.947Z" fill="#FF0000" fill-rule="evenodd"/></g></g><path d="M3189.73 1994.93 3275.93 1994.93 3275.93 1908.73 3357.07 1908.73 3357.07 1994.93 3443.27 1994.93 3443.27 2076.07 3357.07 2076.07 3357.07 2162.27 3275.93 2162.27 3275.93 2076.07 3189.73 2076.07Z" fill="url(#fill2)" fill-rule="evenodd"/><path d="M3554.75 1975.52 3761.25 1975.52 3761.25 2023.5 3554.75 2023.5ZM3554.75 2047.5 3761.25 2047.5 3761.25 2095.48 3554.75 2095.48Z" stroke="#AE5A21" stroke-width="4.58333" stroke-miterlimit="8" fill="#FF6599" fill-rule="evenodd"/><rect x="3883.5" y="1969.5" width="404" height="133" stroke="#FF6599" stroke-width="9.16667" stroke-linejoin="round" stroke-miterlimit="10" fill="none"/><text font-family="Calibri,Calibri_MSFontService,sans-serif" font-weight="400" font-size="83" transform="matrix(1 0 0 1 3915.66 2062)">Final Loss</text></g></svg>