<svg width="1568" height="535" xmlns="http://www.w3.org/2000/svg" xmlns:xlink="http://www.w3.org/1999/xlink" xml:space="preserve" overflow="hidden"><g transform="translate(-1890 -661)"><path d="M2342.35 982.747C2352.38 987.838 2360.36 997.182 2366.27 1010.78 2372.19 1024.37 2375.14 1040.31 2375.14 1058.57 2375.14 1076.72 2372.19 1092.66 2366.27 1106.37 2360.36 1120.09 2352.38 1129.46 2342.35 1134.49L2340.91 1130.9C2348.94 1125.69 2355.22 1116.73 2359.76 1104.04 2364.29 1091.34 2366.56 1076.21 2366.56 1058.66 2366.56 1040.79 2364.28 1025.56 2359.71 1013 2355.14 1000.44 2348.88 991.551 2340.91 986.341ZM1964.15 982.747 1965.64 986.341C1957.67 991.551 1951.4 1000.44 1946.84 1013 1942.27 1025.56 1939.99 1040.79 1939.99 1058.66 1939.99 1076.21 1942.25 1091.34 1946.77 1104.04 1951.29 1116.73 1957.58 1125.69 1965.64 1130.9L1964.15 1134.49C1954.15 1129.46 1946.19 1120.09 1940.28 1106.37 1934.36 1092.66 1931.41 1076.72 1931.41 1058.57 1931.41 1040.31 1934.36 1024.37 1940.28 1010.78 1946.19 997.182 1954.15 987.838 1964.15 982.747Z" fill-rule="evenodd"/><path d="M1996.96 1039.64C1999.27 1039.64 2001.75 1039.83 2004.4 1040.2 2007.05 1040.58 2009.47 1041.08 2011.65 1041.71L2009.32 1052.44 2003.61 1052.44C2003.34 1049.66 2002.63 1047.61 2001.48 1046.29 2000.33 1044.97 1998.67 1044.31 1996.52 1044.31 1994.51 1044.31 1992.9 1044.83 1991.69 1045.86 1990.47 1046.89 1989.87 1048.29 1989.87 1050.06 1989.87 1051.62 1990.38 1052.98 1991.39 1054.15 1992.41 1055.32 1994.39 1056.79 1997.32 1058.55 2000.5 1060.44 2002.77 1062.39 2004.15 1064.39 2005.53 1066.4 2006.22 1068.75 2006.22 1071.44 2006.22 1074.5 2005.4 1077.1 2003.77 1079.26 2002.14 1081.42 1999.91 1083.02 1997.08 1084.07 1994.25 1085.12 1991.02 1085.64 1987.4 1085.64 1981.59 1085.64 1976.02 1084.92 1970.68 1083.48L1973.2 1072.34 1978.91 1072.34C1979.06 1075.04 1979.75 1077.15 1980.99 1078.68 1982.24 1080.2 1984.15 1080.97 1986.72 1080.97 1989.09 1080.97 1990.91 1080.39 1992.2 1079.24 1993.49 1078.09 1994.13 1076.46 1994.13 1074.36 1994.13 1073.11 1993.92 1072.04 1993.51 1071.18 1993.09 1070.31 1992.4 1069.46 1991.44 1068.64 1990.48 1067.81 1988.92 1066.74 1986.77 1065.43 1983.77 1063.63 1981.59 1061.76 1980.23 1059.83 1978.87 1057.9 1978.19 1055.74 1978.19 1053.34 1978.19 1048.94 1979.83 1045.55 1983.13 1043.19 1986.42 1040.82 1991.03 1039.64 1996.96 1039.64Z" fill-rule="evenodd"/><text fill="#000000" fill-opacity="0" font-family="Arial,Arial_MSFontService,sans-serif" font-size="46" x="1970.68" y="1079.89">𝒔</text><path d="M2026.21 1070.64C2028.02 1070.64 2029.47 1071.15 2030.55 1072.17 2031.63 1073.18 2032.17 1074.52 2032.17 1076.17 2032.17 1076.72 2032.1 1077.24 2031.97 1077.74L2032.36 1077.94C2034.35 1075.43 2036.27 1073.59 2038.14 1072.41 2040 1071.23 2042.17 1070.64 2044.63 1070.64 2046.81 1070.64 2048.53 1071.24 2049.78 1072.44 2051.04 1073.64 2051.7 1075.3 2051.76 1077.42 2053.57 1075.1 2055.4 1073.4 2057.24 1072.3 2059.09 1071.2 2061.17 1070.64 2063.51 1070.64 2065.71 1070.64 2067.44 1071.27 2068.69 1072.51 2069.95 1073.75 2070.57 1075.49 2070.57 1077.71 2070.57 1078.37 2070.52 1079.16 2070.41 1080.1 2070.3 1081.04 2070.14 1081.93 2069.92 1082.78L2067.27 1093.32C2067.03 1094.23 2066.88 1094.94 2066.81 1095.44 2066.75 1095.94 2066.71 1096.51 2066.71 1097.14 2066.71 1097.99 2066.86 1098.58 2067.14 1098.91 2067.42 1099.24 2067.83 1099.4 2068.35 1099.4 2068.98 1099.4 2069.69 1099.1 2070.48 1098.5 2071.26 1097.9 2072.19 1096.99 2073.26 1095.77L2075.61 1098.12C2073.48 1100.31 2071.56 1101.85 2069.87 1102.77 2068.18 1103.69 2066.32 1104.14 2064.29 1104.14 2062.05 1104.14 2060.38 1103.59 2059.29 1102.48 2058.2 1101.36 2057.65 1099.66 2057.65 1097.37 2057.65 1096.65 2057.73 1095.78 2057.88 1094.74 2058.03 1093.7 2058.25 1092.63 2058.54 1091.52L2060.04 1085.82C2060.39 1084.54 2060.7 1083.18 2060.97 1081.75 2061.25 1080.32 2061.38 1079.22 2061.38 1078.43 2061.38 1076.42 2060.6 1075.42 2059.03 1075.42 2058.09 1075.42 2056.94 1076.02 2055.59 1077.22 2054.24 1078.42 2053.12 1079.73 2052.24 1081.16 2051.35 1082.59 2050.67 1084.48 2050.19 1086.84L2046.59 1103.62 2037.17 1103.62 2041.95 1082.81C2042.19 1081.81 2042.35 1080.99 2042.44 1080.34 2042.53 1079.7 2042.57 1079.14 2042.57 1078.66 2042.57 1077.53 2042.37 1076.7 2041.98 1076.19 2041.59 1075.68 2040.97 1075.42 2040.12 1075.42 2039.11 1075.42 2037.93 1076.04 2036.57 1077.29 2035.2 1078.53 2034.1 1079.84 2033.26 1081.21 2032.42 1082.59 2031.75 1084.46 2031.25 1086.84L2027.59 1103.62 2018.2 1103.62 2023.47 1080.88C2023.79 1079.47 2023.96 1078.39 2023.96 1077.65 2023.96 1076.93 2023.84 1076.37 2023.6 1075.98 2023.36 1075.58 2022.94 1075.39 2022.35 1075.39 2021.68 1075.39 2020.95 1075.69 2020.16 1076.3 2019.38 1076.91 2018.46 1077.82 2017.41 1079.02L2015.06 1076.66C2017.24 1074.44 2019.17 1072.88 2020.86 1071.99 2022.55 1071.09 2024.34 1070.64 2026.21 1070.64Z" fill-rule="evenodd"/><text fill="#000000" fill-opacity="0" font-family="Arial,Arial_MSFontService,sans-serif" font-size="33.5" x="2015.06" y="1099.96">𝒎</text><path d="M2028.37 1018.9 2047.94 1018.9 2046.53 1024.98 2036.39 1024.98 2032.72 1040.62C2032.31 1042.38 2032.1 1043.8 2032.1 1044.87 2032.1 1045.72 2032.24 1046.31 2032.53 1046.64 2032.81 1046.96 2033.21 1047.13 2033.74 1047.13 2034.48 1047.13 2035.26 1046.81 2036.09 1046.16 2036.92 1045.52 2037.99 1044.43 2039.3 1042.91L2041.65 1045.26C2039.8 1047.44 2037.93 1049.09 2036.03 1050.2 2034.13 1051.32 2032.06 1051.87 2029.81 1051.87 2027.57 1051.87 2025.92 1051.3 2024.87 1050.17 2023.82 1049.04 2023.3 1047.32 2023.3 1045.03 2023.3 1043.75 2023.54 1042.04 2024.02 1039.9L2024.25 1038.92C2024.71 1036.98 2025.31 1034.67 2026.07 1032.01 2026.82 1029.35 2027.53 1027.1 2028.21 1025.24L2028.05 1024.98 2025.72 1024.98C2024.59 1024.98 2023.66 1025.08 2022.93 1025.27 2022.19 1025.47 2021.48 1025.81 2020.78 1026.29 2020.08 1026.77 2019.21 1027.56 2018.17 1028.68L2015.42 1026.22C2017.23 1024.04 2018.72 1022.46 2019.88 1021.48 2021.05 1020.5 2022.24 1019.82 2023.47 1019.45 2024.69 1019.08 2026.32 1018.9 2028.37 1018.9Z" fill-rule="evenodd"/><text fill="#000000" fill-opacity="0" font-family="Arial,Arial_MSFontService,sans-serif" font-size="32.9766" x="2015.42" y="1047.75">𝝉</text><path d="M2071.09 1006.17 2075.28 1006.17C2075.15 1008.26 2075.08 1011.16 2075.08 1014.87L2075.08 1042.22C2075.08 1043.49 2075.15 1044.44 2075.29 1045.08 2075.44 1045.73 2075.69 1046.25 2076.05 1046.65 2076.41 1047.06 2076.92 1047.37 2077.6 1047.6 2078.28 1047.83 2079.13 1048.01 2080.15 1048.13 2081.18 1048.25 2082.53 1048.33 2084.21 1048.37L2084.21 1051.35 2055.98 1051.35 2055.98 1048.37C2058.4 1048.26 2060.12 1048.11 2061.16 1047.93 2062.2 1047.74 2062.99 1047.47 2063.53 1047.1 2064.08 1046.72 2064.48 1046.2 2064.73 1045.53 2064.98 1044.85 2065.1 1043.75 2065.1 1042.22L2065.1 1018.57C2065.1 1017.67 2064.93 1017.03 2064.6 1016.64 2064.26 1016.25 2063.79 1016.05 2063.21 1016.05 2062.66 1016.05 2061.89 1016.3 2060.9 1016.8 2059.91 1017.3 2058.28 1018.33 2056.01 1019.88L2054.01 1016.41Z" fill-rule="evenodd"/><text fill="#000000" fill-opacity="0" font-family="Arial,Arial_MSFontService,sans-serif" font-size="45.1792" x="2054.01" y="1045.7">𝟏</text><path d="M2098.58 1074.5 2106.44 1074.5C2106.86 1076.6 2107.07 1078.66 2107.07 1080.7 2107.07 1082.79 2106.71 1084.71 2105.99 1086.45 2105.27 1088.19 2104.12 1089.91 2102.55 1091.64 2100.98 1093.36 2098.81 1095.25 2096.06 1097.32L2093.63 1094.58C2095.16 1093.14 2096.27 1091.85 2096.96 1090.69 2097.65 1089.54 2098.14 1088.23 2098.44 1086.76 2098.74 1085.3 2098.89 1083.45 2098.89 1081.24 2098.89 1078.96 2098.78 1076.72 2098.58 1074.5Z" fill-rule="evenodd"/><text fill="#000000" fill-opacity="0" font-family="Arial,Arial_MSFontService,sans-serif" font-size="22.8203" x="2093.63" y="1094.47">,</text><path d="M2158.28 1044.31C2155.5 1044.31 2153.03 1045.71 2150.87 1048.51 2148.71 1051.31 2146.98 1055.08 2145.66 1059.81 2144.34 1064.54 2143.68 1068.78 2143.68 1072.52 2143.68 1074.71 2144 1076.34 2144.65 1077.42 2145.29 1078.5 2146.29 1079.04 2147.64 1079.04 2149.61 1079.04 2151.63 1078.07 2153.68 1076.14 2155.73 1074.21 2157.38 1071.94 2158.64 1069.33 2159.9 1066.73 2161.02 1063.16 2162.01 1058.64L2162.37 1056.98C2162.85 1054.76 2163.09 1052.55 2163.09 1050.33 2163.09 1048.35 2162.71 1046.86 2161.97 1045.84 2161.22 1044.82 2159.99 1044.31 2158.28 1044.31ZM2157.74 1039.64C2162.21 1039.64 2166.01 1040.72 2169.15 1042.87L2173.51 1039.64 2178.54 1040.36 2171.26 1070.91C2170.82 1072.79 2170.59 1074.5 2170.59 1076.03 2170.59 1077.01 2170.76 1077.78 2171.09 1078.32 2171.41 1078.86 2171.98 1079.13 2172.79 1079.13 2173.72 1079.13 2174.72 1078.71 2175.8 1077.87 2176.88 1077.03 2178.14 1075.79 2179.58 1074.14L2182.81 1077.37C2179.67 1080.52 2176.96 1082.68 2174.68 1083.87 2172.4 1085.05 2170.01 1085.64 2167.49 1085.64 2164.98 1085.64 2162.98 1084.94 2161.52 1083.55 2160.05 1082.16 2159.32 1080.32 2159.32 1078.05 2159.32 1077.3 2159.41 1076.58 2159.59 1075.89L2158.96 1075.8C2156.77 1078.38 2154.89 1080.32 2153.32 1081.62 2151.75 1082.92 2150.08 1083.92 2148.31 1084.61 2146.54 1085.3 2144.58 1085.64 2142.43 1085.64 2138.83 1085.64 2136.11 1084.42 2134.25 1081.98 2132.39 1079.54 2131.46 1075.98 2131.46 1071.31 2131.46 1067.27 2132.05 1063.25 2133.22 1059.27 2134.38 1055.29 2136.06 1051.85 2138.25 1048.96 2140.43 1046.07 2143.18 1043.8 2146.49 1042.13 2149.8 1040.47 2153.55 1039.64 2157.74 1039.64Z" fill-rule="evenodd"/><text fill="#000000" fill-opacity="0" font-family="Arial,Arial_MSFontService,sans-serif" font-size="46" x="2131.46" y="1079.89">𝒂</text><path d="M2195.41 1078.3C2197.22 1078.3 2198.66 1078.81 2199.74 1079.82 2200.82 1080.83 2201.36 1082.17 2201.36 1083.83 2201.36 1084.37 2201.3 1084.9 2201.16 1085.4L2201.56 1085.59C2203.54 1083.09 2205.47 1081.24 2207.33 1080.07 2209.2 1078.89 2211.36 1078.3 2213.83 1078.3 2216.01 1078.3 2217.72 1078.9 2218.98 1080.1 2220.23 1081.3 2220.89 1082.96 2220.96 1085.07 2222.77 1082.76 2224.59 1081.05 2226.44 1079.95 2228.28 1078.85 2230.37 1078.3 2232.7 1078.3 2234.9 1078.3 2236.63 1078.92 2237.89 1080.16 2239.14 1081.41 2239.77 1083.14 2239.77 1085.37 2239.77 1086.02 2239.71 1086.82 2239.6 1087.75 2239.5 1088.69 2239.33 1089.59 2239.11 1090.44L2236.46 1100.97C2236.22 1101.89 2236.07 1102.59 2236.01 1103.1 2235.94 1103.6 2235.91 1104.17 2235.91 1104.8 2235.91 1105.65 2236.05 1106.24 2236.33 1106.56 2236.62 1106.89 2237.02 1107.06 2237.54 1107.06 2238.18 1107.06 2238.89 1106.76 2239.67 1106.16 2240.46 1105.56 2241.38 1104.65 2242.45 1103.42L2244.81 1105.78C2242.67 1107.96 2240.76 1109.51 2239.06 1110.42 2237.37 1111.34 2235.52 1111.8 2233.49 1111.8 2231.24 1111.8 2229.57 1111.24 2228.48 1110.13 2227.39 1109.02 2226.85 1107.32 2226.85 1105.03 2226.85 1104.31 2226.92 1103.43 2227.07 1102.39 2227.23 1101.36 2227.45 1100.28 2227.73 1099.17L2229.23 1093.48C2229.58 1092.19 2229.89 1090.83 2230.17 1089.41 2230.44 1087.98 2230.58 1086.87 2230.58 1086.08 2230.58 1084.08 2229.79 1083.08 2228.22 1083.08 2227.28 1083.08 2226.14 1083.67 2224.78 1084.87 2223.43 1086.07 2222.31 1087.39 2221.43 1088.82 2220.55 1090.25 2219.87 1092.14 2219.39 1094.49L2215.79 1111.28 2206.37 1111.28 2211.14 1090.47C2211.38 1089.47 2211.55 1088.64 2211.63 1088 2211.72 1087.36 2211.76 1086.79 2211.76 1086.31 2211.76 1085.18 2211.57 1084.36 2211.18 1083.84 2210.78 1083.33 2210.16 1083.08 2209.31 1083.08 2208.31 1083.08 2207.12 1083.7 2205.76 1084.94 2204.4 1086.18 2203.3 1087.49 2202.46 1088.87 2201.62 1090.24 2200.95 1092.12 2200.45 1094.49L2196.78 1111.28 2187.39 1111.28 2192.66 1088.54C2192.99 1087.12 2193.15 1086.04 2193.15 1085.3 2193.15 1084.58 2193.03 1084.02 2192.79 1083.63 2192.55 1083.24 2192.14 1083.04 2191.55 1083.04 2190.87 1083.04 2190.14 1083.35 2189.35 1083.96 2188.57 1084.57 2187.65 1085.47 2186.61 1086.67L2184.25 1084.32C2186.43 1082.09 2188.37 1080.53 2190.06 1079.64 2191.75 1078.75 2193.53 1078.3 2195.41 1078.3Z" fill-rule="evenodd"/><text fill="#000000" fill-opacity="0" font-family="Arial,Arial_MSFontService,sans-serif" font-size="33.5" x="2184.25" y="1107.61">𝒎</text><path d="M2250.87 1089.62 2288.56 1089.62 2288.56 1094.62 2250.87 1094.62Z" fill-rule="evenodd"/><text fill="#000000" fill-opacity="0" font-family="Arial,Arial_MSFontService,sans-serif" font-size="5.00537" x="2250.87" y="1094">−</text><path d="M2316.48 1066.1 2320.67 1066.1C2320.54 1068.19 2320.47 1071.09 2320.47 1074.8L2320.47 1102.15C2320.47 1103.41 2320.54 1104.37 2320.69 1105.01 2320.83 1105.65 2321.08 1106.18 2321.44 1106.58 2321.8 1106.98 2322.32 1107.3 2322.99 1107.53 2323.67 1107.76 2324.52 1107.93 2325.54 1108.05 2326.57 1108.17 2327.92 1108.25 2329.6 1108.3L2329.6 1111.28 2301.37 1111.28 2301.37 1108.3C2303.79 1108.19 2305.52 1108.04 2306.55 1107.86 2307.59 1107.67 2308.38 1107.39 2308.92 1107.02 2309.47 1106.65 2309.87 1106.13 2310.12 1105.45 2310.37 1104.78 2310.49 1103.67 2310.49 1102.15L2310.49 1078.49C2310.49 1077.6 2310.33 1076.96 2309.99 1076.56 2309.65 1076.17 2309.19 1075.98 2308.6 1075.98 2308.05 1075.98 2307.28 1076.23 2306.29 1076.73 2305.3 1077.23 2303.67 1078.26 2301.4 1079.8L2299.4 1076.34Z" fill-rule="evenodd"/><text fill="#000000" fill-opacity="0" font-family="Arial,Arial_MSFontService,sans-serif" font-size="45.1792" x="2299.4" y="1105.63">𝟏</text><path d="M2197.57 1009.22 2217.13 1009.22 2215.72 1015.31 2205.58 1015.31 2201.92 1030.95C2201.5 1032.71 2201.3 1034.13 2201.3 1035.2 2201.3 1036.05 2201.44 1036.64 2201.72 1036.97 2202 1037.29 2202.41 1037.46 2202.93 1037.46 2203.67 1037.46 2204.46 1037.14 2205.29 1036.49 2206.12 1035.85 2207.18 1034.76 2208.49 1033.24L2210.85 1035.59C2208.99 1037.77 2207.12 1039.42 2205.22 1040.53 2203.32 1041.64 2201.25 1042.2 2199.01 1042.2 2196.76 1042.2 2195.11 1041.63 2194.07 1040.5 2193.02 1039.37 2192.5 1037.65 2192.5 1035.36 2192.5 1034.08 2192.74 1032.36 2193.22 1030.23L2193.44 1029.25C2193.9 1027.3 2194.51 1025 2195.26 1022.34 2196.01 1019.68 2196.73 1017.42 2197.4 1015.57L2197.24 1015.31 2194.92 1015.31C2193.78 1015.31 2192.85 1015.41 2192.12 1015.6 2191.39 1015.8 2190.67 1016.14 2189.98 1016.62 2189.28 1017.1 2188.41 1017.89 2187.36 1019.01L2184.61 1016.55C2186.42 1014.37 2187.91 1012.79 2189.08 1011.81 2190.24 1010.83 2191.44 1010.15 2192.66 1009.78 2193.88 1009.41 2195.52 1009.22 2197.57 1009.22ZM2239.91 996.498 2244.1 996.498C2243.97 998.592 2243.9 1001.49 2243.9 1005.2L2243.9 1032.55C2243.9 1033.81 2243.97 1034.77 2244.11 1035.41 2244.25 1036.06 2244.5 1036.58 2244.86 1036.98 2245.22 1037.39 2245.74 1037.7 2246.42 1037.93 2247.09 1038.16 2247.95 1038.33 2248.97 1038.45 2250 1038.57 2251.35 1038.66 2253.03 1038.7L2253.03 1041.68 2224.79 1041.68 2224.79 1038.7C2227.22 1038.59 2228.94 1038.44 2229.98 1038.26 2231.02 1038.07 2231.81 1037.8 2232.35 1037.42 2232.9 1037.05 2233.29 1036.53 2233.55 1035.85 2233.8 1035.18 2233.92 1034.08 2233.92 1032.55L2233.92 1008.9C2233.92 1008 2233.75 1007.36 2233.41 1006.97 2233.08 1006.57 2232.61 1006.38 2232.02 1006.38 2231.48 1006.38 2230.71 1006.63 2229.72 1007.13 2228.73 1007.63 2227.1 1008.66 2224.83 1010.21L2222.83 1006.74Z" fill-rule="evenodd"/><text fill="#000000" fill-opacity="0" font-family="Arial,Arial_MSFontService,sans-serif" font-size="45.7026" x="2184.61" y="1036.49">𝝉𝟏</text><path d="M2262.33 1034.09 2268.05 1034.09C2268.36 1035.61 2268.51 1037.12 2268.51 1038.6 2268.51 1040.13 2268.25 1041.52 2267.73 1042.79 2267.2 1044.05 2266.37 1045.31 2265.22 1046.57 2264.08 1047.82 2262.5 1049.2 2260.5 1050.71L2258.73 1048.71C2259.84 1047.66 2260.65 1046.72 2261.15 1045.88 2261.65 1045.04 2262.01 1044.09 2262.23 1043.02 2262.45 1041.95 2262.56 1040.61 2262.56 1038.99 2262.56 1037.34 2262.48 1035.7 2262.33 1034.09Z" fill-rule="evenodd"/><text fill="#000000" fill-opacity="0" font-family="Arial,Arial_MSFontService,sans-serif" font-size="16.6191" x="2258.73" y="1048.63">,</text><path d="M2285.73 1010.17 2290.05 1010.17 2289.1 1020.41 2297.51 1014.49 2299.63 1018.16 2290.31 1022.51 2299.63 1026.89 2297.51 1030.52 2289.1 1024.6 2290.05 1034.84 2285.73 1034.84 2286.71 1024.6 2278.27 1030.52 2276.11 1026.89 2285.47 1022.51 2276.11 1018.16 2278.27 1014.49 2286.71 1020.41Z" fill-rule="evenodd"/><text fill="#000000" fill-opacity="0" font-family="Arial,Arial_MSFontService,sans-serif" font-size="24.667" x="2276.11" y="1031.76">∗</text><path d="M3059.37 982.747C3069.4 987.838 3077.37 997.182 3083.29 1010.78 3089.2 1024.37 3092.16 1040.31 3092.16 1058.57 3092.16 1076.72 3089.2 1092.66 3083.29 1106.37 3077.37 1120.09 3069.4 1129.46 3059.37 1134.49L3057.93 1130.9C3065.95 1125.69 3072.24 1116.73 3076.77 1104.04 3081.31 1091.34 3083.58 1076.21 3083.58 1058.66 3083.58 1040.79 3081.3 1025.56 3076.73 1013 3072.16 1000.44 3065.89 991.551 3057.93 986.341ZM2699.5 982.747 2700.99 986.341C2693.02 991.551 2686.75 1000.44 2682.19 1013 2677.62 1025.56 2675.34 1040.79 2675.34 1058.66 2675.34 1076.21 2677.6 1091.34 2682.12 1104.04 2686.64 1116.73 2692.93 1125.69 2700.99 1130.9L2699.5 1134.49C2689.5 1129.46 2681.54 1120.09 2675.63 1106.37 2669.71 1092.66 2666.76 1076.72 2666.76 1058.57 2666.76 1040.31 2669.71 1024.37 2675.63 1010.78 2681.54 997.182 2689.5 987.838 2699.5 982.747Z" fill-rule="evenodd"/><path d="M2732.31 1039.64C2734.62 1039.64 2737.1 1039.83 2739.75 1040.2 2742.4 1040.58 2744.82 1041.08 2747 1041.71L2744.67 1052.44 2738.96 1052.44C2738.69 1049.66 2737.98 1047.61 2736.83 1046.29 2735.68 1044.97 2734.02 1044.31 2731.86 1044.31 2729.86 1044.31 2728.25 1044.83 2727.04 1045.86 2725.82 1046.89 2725.22 1048.29 2725.22 1050.06 2725.22 1051.62 2725.73 1052.98 2726.74 1054.15 2727.76 1055.32 2729.74 1056.79 2732.67 1058.55 2735.85 1060.44 2738.12 1062.39 2739.5 1064.39 2740.88 1066.4 2741.57 1068.75 2741.57 1071.44 2741.57 1074.5 2740.75 1077.1 2739.12 1079.26 2737.49 1081.42 2735.26 1083.02 2732.43 1084.07 2729.6 1085.12 2726.37 1085.64 2722.75 1085.64 2716.94 1085.64 2711.37 1084.92 2706.03 1083.48L2708.55 1072.34 2714.26 1072.34C2714.41 1075.04 2715.1 1077.15 2716.34 1078.68 2717.59 1080.2 2719.5 1080.97 2722.07 1080.97 2724.44 1080.97 2726.26 1080.39 2727.55 1079.24 2728.84 1078.09 2729.48 1076.46 2729.48 1074.36 2729.48 1073.11 2729.27 1072.04 2728.86 1071.18 2728.44 1070.31 2727.75 1069.46 2726.79 1068.64 2725.83 1067.81 2724.27 1066.74 2722.12 1065.43 2719.12 1063.63 2716.94 1061.76 2715.58 1059.83 2714.22 1057.9 2713.54 1055.74 2713.54 1053.34 2713.54 1048.94 2715.18 1045.55 2718.48 1043.19 2721.77 1040.82 2726.38 1039.64 2732.31 1039.64Z" fill-rule="evenodd"/><text fill="#000000" fill-opacity="0" font-family="Arial,Arial_MSFontService,sans-serif" font-size="46" x="2706.03" y="1079.89">𝒔</text><path d="M2761.56 1070.64C2763.37 1070.64 2764.82 1071.15 2765.9 1072.17 2766.98 1073.18 2767.52 1074.52 2767.52 1076.17 2767.52 1076.72 2767.45 1077.24 2767.32 1077.74L2767.65 1078.01C2769.7 1075.45 2771.64 1073.59 2773.49 1072.41 2775.33 1071.23 2777.48 1070.64 2779.95 1070.64 2782.2 1070.64 2783.96 1071.28 2785.23 1072.54 2786.51 1073.81 2787.15 1075.53 2787.15 1077.71 2787.15 1078.41 2787.08 1079.28 2786.93 1080.33 2786.79 1081.38 2786.62 1082.3 2786.43 1083.11L2783.84 1093.32C2783.47 1094.78 2783.29 1096.05 2783.29 1097.14 2783.29 1097.99 2783.43 1098.58 2783.71 1098.91 2783.99 1099.24 2784.4 1099.4 2784.92 1099.4 2785.55 1099.4 2786.26 1099.1 2787.05 1098.5 2787.83 1097.9 2788.76 1096.99 2789.83 1095.77L2792.18 1098.12C2790.05 1100.31 2788.13 1101.85 2786.44 1102.77 2784.75 1103.69 2782.89 1104.14 2780.86 1104.14 2778.55 1104.14 2776.86 1103.57 2775.79 1102.43 2774.73 1101.28 2774.19 1099.6 2774.19 1097.37 2774.19 1095.78 2774.51 1093.74 2775.14 1091.25L2776.58 1085.82C2776.95 1084.43 2777.27 1083.05 2777.53 1081.69 2777.79 1080.32 2777.92 1079.2 2777.92 1078.33 2777.92 1077.35 2777.71 1076.62 2777.3 1076.14 2776.88 1075.66 2776.3 1075.42 2775.53 1075.42 2774.46 1075.42 2773.24 1076.05 2771.87 1077.32 2770.49 1078.58 2769.39 1079.92 2768.56 1081.33 2767.74 1082.73 2767.08 1084.57 2766.6 1086.84L2762.94 1103.62 2753.55 1103.62 2758.81 1080.88C2759.14 1079.47 2759.31 1078.39 2759.31 1077.65 2759.31 1076.93 2759.19 1076.37 2758.95 1075.98 2758.71 1075.58 2758.29 1075.39 2757.7 1075.39 2757.03 1075.39 2756.3 1075.69 2755.51 1076.3 2754.73 1076.91 2753.81 1077.82 2752.76 1079.02L2750.41 1076.66C2752.59 1074.44 2754.52 1072.88 2756.21 1071.99 2757.9 1071.09 2759.69 1070.64 2761.56 1070.64Z" fill-rule="evenodd"/><text fill="#000000" fill-opacity="0" font-family="Arial,Arial_MSFontService,sans-serif" font-size="33.5" x="2750.41" y="1099.96">𝒏</text><path d="M2763.72 1018.9 2783.29 1018.9 2781.88 1024.98 2771.74 1024.98 2768.07 1040.62C2767.66 1042.38 2767.45 1043.8 2767.45 1044.87 2767.45 1045.72 2767.59 1046.31 2767.88 1046.64 2768.16 1046.96 2768.56 1047.13 2769.09 1047.13 2769.83 1047.13 2770.61 1046.81 2771.44 1046.16 2772.27 1045.52 2773.34 1044.43 2774.65 1042.91L2777 1045.26C2775.15 1047.44 2773.27 1049.09 2771.38 1050.2 2769.48 1051.32 2767.41 1051.87 2765.16 1051.87 2762.92 1051.87 2761.27 1051.3 2760.22 1050.17 2759.17 1049.04 2758.65 1047.32 2758.65 1045.03 2758.65 1043.75 2758.89 1042.04 2759.37 1039.9L2759.6 1038.92C2760.06 1036.98 2760.66 1034.67 2761.42 1032.01 2762.17 1029.35 2762.88 1027.1 2763.56 1025.24L2763.4 1024.98 2761.07 1024.98C2759.94 1024.98 2759.01 1025.08 2758.28 1025.27 2757.54 1025.47 2756.83 1025.81 2756.13 1026.29 2755.43 1026.77 2754.56 1027.56 2753.52 1028.68L2750.77 1026.22C2752.58 1024.04 2754.07 1022.46 2755.23 1021.48 2756.4 1020.5 2757.59 1019.82 2758.81 1019.45 2760.04 1019.08 2761.67 1018.9 2763.72 1018.9Z" fill-rule="evenodd"/><text fill="#000000" fill-opacity="0" font-family="Arial,Arial_MSFontService,sans-serif" font-size="32.9766" x="2750.77" y="1047.75">𝝉</text><path d="M2806.44 1006.17 2810.63 1006.17C2810.5 1008.26 2810.43 1011.16 2810.43 1014.87L2810.43 1042.22C2810.43 1043.49 2810.5 1044.44 2810.64 1045.08 2810.79 1045.73 2811.04 1046.25 2811.4 1046.65 2811.76 1047.06 2812.27 1047.37 2812.95 1047.6 2813.63 1047.83 2814.48 1048.01 2815.5 1048.13 2816.53 1048.25 2817.88 1048.33 2819.56 1048.37L2819.56 1051.35 2791.33 1051.35 2791.33 1048.37C2793.75 1048.26 2795.47 1048.11 2796.51 1047.93 2797.55 1047.74 2798.34 1047.47 2798.88 1047.1 2799.43 1046.72 2799.83 1046.2 2800.08 1045.53 2800.33 1044.85 2800.45 1043.75 2800.45 1042.22L2800.45 1018.57C2800.45 1017.67 2800.28 1017.03 2799.95 1016.64 2799.61 1016.25 2799.14 1016.05 2798.56 1016.05 2798.01 1016.05 2797.24 1016.3 2796.25 1016.8 2795.26 1017.3 2793.63 1018.33 2791.36 1019.88L2789.36 1016.41Z" fill-rule="evenodd"/><text fill="#000000" fill-opacity="0" font-family="Arial,Arial_MSFontService,sans-serif" font-size="45.1792" x="2789.36" y="1045.7">𝟏</text><path d="M2833.93 1074.5 2841.79 1074.5C2842.21 1076.6 2842.42 1078.66 2842.42 1080.7 2842.42 1082.79 2842.06 1084.71 2841.34 1086.45 2840.62 1088.19 2839.47 1089.91 2837.9 1091.64 2836.33 1093.36 2834.16 1095.25 2831.41 1097.32L2828.98 1094.58C2830.51 1093.14 2831.62 1091.85 2832.31 1090.69 2833 1089.54 2833.49 1088.23 2833.79 1086.76 2834.09 1085.3 2834.24 1083.45 2834.24 1081.24 2834.24 1078.96 2834.13 1076.72 2833.93 1074.5Z" fill-rule="evenodd"/><text fill="#000000" fill-opacity="0" font-family="Arial,Arial_MSFontService,sans-serif" font-size="22.8203" x="2828.98" y="1094.47">,</text><path d="M2893.63 1044.31C2890.85 1044.31 2888.38 1045.71 2886.22 1048.51 2884.06 1051.31 2882.33 1055.08 2881.01 1059.81 2879.69 1064.54 2879.03 1068.78 2879.03 1072.52 2879.03 1074.71 2879.35 1076.34 2880 1077.42 2880.64 1078.5 2881.64 1079.04 2882.99 1079.04 2884.96 1079.04 2886.98 1078.07 2889.03 1076.14 2891.08 1074.21 2892.73 1071.94 2893.99 1069.33 2895.25 1066.73 2896.37 1063.16 2897.36 1058.64L2897.72 1056.98C2898.2 1054.76 2898.44 1052.55 2898.44 1050.33 2898.44 1048.35 2898.06 1046.86 2897.32 1045.84 2896.57 1044.82 2895.34 1044.31 2893.63 1044.31ZM2893.09 1039.64C2897.56 1039.64 2901.36 1040.72 2904.5 1042.87L2908.86 1039.64 2913.89 1040.36 2906.61 1070.91C2906.17 1072.79 2905.94 1074.5 2905.94 1076.03 2905.94 1077.01 2906.11 1077.78 2906.44 1078.32 2906.76 1078.86 2907.33 1079.13 2908.14 1079.13 2909.07 1079.13 2910.07 1078.71 2911.15 1077.87 2912.23 1077.03 2913.49 1075.79 2914.93 1074.14L2918.16 1077.37C2915.02 1080.52 2912.3 1082.68 2910.03 1083.87 2907.75 1085.05 2905.36 1085.64 2902.84 1085.64 2900.33 1085.64 2898.33 1084.94 2896.87 1083.55 2895.4 1082.16 2894.67 1080.32 2894.67 1078.05 2894.67 1077.3 2894.76 1076.58 2894.94 1075.89L2894.31 1075.8C2892.12 1078.38 2890.24 1080.32 2888.67 1081.62 2887.1 1082.92 2885.43 1083.92 2883.66 1084.61 2881.89 1085.3 2879.93 1085.64 2877.77 1085.64 2874.18 1085.64 2871.46 1084.42 2869.6 1081.98 2867.74 1079.54 2866.81 1075.98 2866.81 1071.31 2866.81 1067.27 2867.4 1063.25 2868.57 1059.27 2869.73 1055.29 2871.41 1051.85 2873.6 1048.96 2875.78 1046.07 2878.53 1043.8 2881.84 1042.13 2885.15 1040.47 2888.9 1039.64 2893.09 1039.64Z" fill-rule="evenodd"/><text fill="#000000" fill-opacity="0" font-family="Arial,Arial_MSFontService,sans-serif" font-size="46" x="2866.81" y="1079.89">𝒂</text><path d="M2930.76 1078.3C2932.57 1078.3 2934.01 1078.81 2935.09 1079.82 2936.17 1080.83 2936.71 1082.17 2936.71 1083.83 2936.71 1084.37 2936.65 1084.9 2936.51 1085.4L2936.84 1085.66C2938.89 1083.11 2940.84 1081.24 2942.68 1080.07 2944.52 1078.89 2946.68 1078.3 2949.14 1078.3 2951.39 1078.3 2953.15 1078.93 2954.43 1080.2 2955.7 1081.46 2956.34 1083.18 2956.34 1085.37 2956.34 1086.06 2956.27 1086.94 2956.13 1087.98 2955.99 1089.03 2955.82 1089.96 2955.62 1090.76L2953.04 1100.97C2952.66 1102.43 2952.48 1103.71 2952.48 1104.8 2952.48 1105.65 2952.62 1106.24 2952.9 1106.56 2953.19 1106.89 2953.59 1107.06 2954.12 1107.06 2954.75 1107.06 2955.46 1106.76 2956.24 1106.16 2957.03 1105.56 2957.95 1104.65 2959.02 1103.42L2961.38 1105.78C2959.24 1107.96 2957.33 1109.51 2955.64 1110.42 2953.95 1111.34 2952.09 1111.8 2950.06 1111.8 2947.75 1111.8 2946.06 1111.23 2944.99 1110.08 2943.92 1108.94 2943.38 1107.25 2943.38 1105.03 2943.38 1103.43 2943.7 1101.4 2944.33 1098.91L2945.77 1093.48C2946.14 1092.08 2946.46 1090.7 2946.72 1089.34 2946.98 1087.98 2947.11 1086.86 2947.11 1085.99 2947.11 1085.01 2946.91 1084.27 2946.49 1083.79 2946.08 1083.31 2945.49 1083.08 2944.73 1083.08 2943.66 1083.08 2942.44 1083.71 2941.06 1084.97 2939.69 1086.24 2938.59 1087.57 2937.76 1088.98 2936.93 1090.39 2936.27 1092.22 2935.79 1094.49L2932.13 1111.28 2922.74 1111.28 2928.01 1088.54C2928.34 1087.12 2928.5 1086.04 2928.5 1085.3 2928.5 1084.58 2928.38 1084.02 2928.14 1083.63 2927.9 1083.24 2927.49 1083.04 2926.9 1083.04 2926.22 1083.04 2925.49 1083.35 2924.7 1083.96 2923.92 1084.57 2923 1085.47 2921.96 1086.67L2919.6 1084.32C2921.78 1082.09 2923.72 1080.53 2925.41 1079.64 2927.1 1078.75 2928.88 1078.3 2930.76 1078.3Z" fill-rule="evenodd"/><text fill="#000000" fill-opacity="0" font-family="Arial,Arial_MSFontService,sans-serif" font-size="33.5" x="2919.6" y="1107.61">𝒏</text><path d="M2967.89 1089.62 3005.57 1089.62 3005.57 1094.62 2967.89 1094.62Z" fill-rule="evenodd"/><text fill="#000000" fill-opacity="0" font-family="Arial,Arial_MSFontService,sans-serif" font-size="5.00537" x="2967.89" y="1094">−</text><path d="M3033.5 1066.1 3037.69 1066.1C3037.55 1068.19 3037.49 1071.09 3037.49 1074.8L3037.49 1102.15C3037.49 1103.41 3037.56 1104.37 3037.7 1105.01 3037.84 1105.65 3038.09 1106.18 3038.45 1106.58 3038.81 1106.98 3039.33 1107.3 3040.01 1107.53 3040.68 1107.76 3041.53 1107.93 3042.56 1108.05 3043.58 1108.17 3044.94 1108.25 3046.62 1108.3L3046.62 1111.28 3018.38 1111.28 3018.38 1108.3C3020.8 1108.19 3022.53 1108.04 3023.57 1107.86 3024.6 1107.67 3025.4 1107.39 3025.94 1107.02 3026.49 1106.65 3026.88 1106.13 3027.13 1105.45 3027.39 1104.78 3027.51 1103.67 3027.51 1102.15L3027.51 1078.49C3027.51 1077.6 3027.34 1076.96 3027 1076.56 3026.67 1076.17 3026.2 1075.98 3025.61 1075.98 3025.07 1075.98 3024.3 1076.23 3023.31 1076.73 3022.31 1077.23 3020.68 1078.26 3018.42 1079.8L3016.42 1076.34Z" fill-rule="evenodd"/><text fill="#000000" fill-opacity="0" font-family="Arial,Arial_MSFontService,sans-serif" font-size="45.1792" x="3016.42" y="1105.63">𝟏</text><path d="M2932.92 1009.22 2952.48 1009.22 2951.07 1015.31 2940.93 1015.31 2937.27 1030.95C2936.85 1032.71 2936.65 1034.13 2936.65 1035.2 2936.65 1036.05 2936.79 1036.64 2937.07 1036.97 2937.35 1037.29 2937.76 1037.46 2938.28 1037.46 2939.02 1037.46 2939.81 1037.14 2940.64 1036.49 2941.47 1035.85 2942.53 1034.76 2943.84 1033.24L2946.2 1035.59C2944.34 1037.77 2942.47 1039.42 2940.57 1040.53 2938.67 1041.64 2936.6 1042.2 2934.36 1042.2 2932.11 1042.2 2930.46 1041.63 2929.42 1040.5 2928.37 1039.37 2927.85 1037.65 2927.85 1035.36 2927.85 1034.08 2928.09 1032.36 2928.56 1030.23L2928.79 1029.25C2929.25 1027.3 2929.86 1025 2930.61 1022.34 2931.36 1019.68 2932.08 1017.42 2932.75 1015.57L2932.59 1015.31 2930.27 1015.31C2929.13 1015.31 2928.2 1015.41 2927.47 1015.6 2926.74 1015.8 2926.02 1016.14 2925.33 1016.62 2924.63 1017.1 2923.76 1017.89 2922.71 1019.01L2919.96 1016.55C2921.77 1014.37 2923.26 1012.79 2924.43 1011.81 2925.59 1010.83 2926.79 1010.15 2928.01 1009.78 2929.23 1009.41 2930.87 1009.22 2932.92 1009.22ZM2975.26 996.498 2979.45 996.498C2979.31 998.592 2979.25 1001.49 2979.25 1005.2L2979.25 1032.55C2979.25 1033.81 2979.32 1034.77 2979.46 1035.41 2979.6 1036.06 2979.85 1036.58 2980.21 1036.98 2980.57 1037.39 2981.09 1037.7 2981.77 1037.93 2982.44 1038.16 2983.3 1038.33 2984.32 1038.45 2985.35 1038.57 2986.7 1038.66 2988.38 1038.7L2988.38 1041.68 2960.14 1041.68 2960.14 1038.7C2962.56 1038.59 2964.29 1038.44 2965.33 1038.26 2966.37 1038.07 2967.16 1037.8 2967.7 1037.42 2968.25 1037.05 2968.64 1036.53 2968.9 1035.85 2969.15 1035.18 2969.27 1034.08 2969.27 1032.55L2969.27 1008.9C2969.27 1008 2969.1 1007.36 2968.76 1006.97 2968.43 1006.57 2967.96 1006.38 2967.37 1006.38 2966.83 1006.38 2966.06 1006.63 2965.07 1007.13 2964.08 1007.63 2962.45 1008.66 2960.18 1010.21L2958.18 1006.74Z" fill-rule="evenodd"/><text fill="#000000" fill-opacity="0" font-family="Arial,Arial_MSFontService,sans-serif" font-size="45.7026" x="2919.96" y="1036.49">𝝉𝟏</text><path d="M2997.68 1034.09 3003.4 1034.09C3003.71 1035.61 3003.86 1037.12 3003.86 1038.6 3003.86 1040.13 3003.6 1041.52 3003.08 1042.79 3002.55 1044.05 3001.72 1045.31 3000.57 1046.57 2999.43 1047.82 2997.85 1049.2 2995.85 1050.71L2994.08 1048.71C2995.19 1047.66 2996 1046.72 2996.5 1045.88 2997 1045.04 2997.36 1044.09 2997.58 1043.02 2997.8 1041.95 2997.91 1040.61 2997.91 1038.99 2997.91 1037.34 2997.83 1035.7 2997.68 1034.09Z" fill-rule="evenodd"/><text fill="#000000" fill-opacity="0" font-family="Arial,Arial_MSFontService,sans-serif" font-size="16.6191" x="2994.08" y="1048.63">,</text><path d="M3021.08 1010.17 3025.4 1010.17 3024.45 1020.41 3032.86 1014.49 3034.98 1018.16 3025.66 1022.51 3034.98 1026.89 3032.86 1030.52 3024.45 1024.6 3025.4 1034.84 3021.08 1034.84 3022.06 1024.6 3013.62 1030.52 3011.46 1026.89 3020.82 1022.51 3011.46 1018.16 3013.62 1014.49 3022.06 1020.41Z" fill-rule="evenodd"/><text fill="#000000" fill-opacity="0" font-family="Arial,Arial_MSFontService,sans-serif" font-size="24.667" x="3011.46" y="1031.76">∗</text><path d="M3281.51 875.858 3328.16 875.858 3327.42 879.113 3286.04 937.306 3298.57 937.306C3300.41 937.306 3301.88 937.035 3302.98 936.493 3304.09 935.95 3305.37 934.66 3306.83 932.621 3308.29 930.583 3309.62 928.002 3310.8 924.879L3317.26 924.879 3313.32 943.175 3266.27 943.175 3266.96 939.92 3308.33 881.727 3296.3 881.727C3294.92 881.727 3293.87 881.825 3293.15 882.023 3292.42 882.22 3291.76 882.524 3291.15 882.935 3290.54 883.346 3289.84 883.995 3289.05 884.883 3288.26 885.771 3287.38 887.045 3286.41 888.705 3285.44 890.365 3284.7 891.853 3284.17 893.168L3277.71 893.168Z" fill-rule="evenodd"/><text fill="#000000" fill-opacity="0" font-family="Arial,Arial_MSFontService,sans-serif" font-size="67.3169" x="3266.27" y="934.76">𝒁</text><path d="M3344.94 931.371 3366.55 931.371 3365 938.092 3353.79 938.092 3349.75 955.363C3349.29 957.314 3349.06 958.88 3349.06 960.06 3349.06 961 3349.22 961.65 3349.53 962.012 3349.84 962.373 3350.29 962.554 3350.87 962.554 3351.69 962.554 3352.55 962.198 3353.47 961.488 3354.38 960.777 3355.56 959.579 3357.01 957.892L3359.61 960.494C3357.56 962.903 3355.49 964.721 3353.4 965.95 3351.3 967.179 3349.01 967.793 3346.53 967.793 3344.05 967.793 3342.23 967.167 3341.08 965.914 3339.92 964.661 3339.34 962.77 3339.34 960.241 3339.34 958.82 3339.61 956.929 3340.14 954.568L3340.39 953.484C3340.9 951.34 3341.56 948.799 3342.39 945.86 3343.23 942.921 3344.01 940.428 3344.76 938.381L3344.58 938.092 3342.02 938.092C3340.76 938.092 3339.73 938.2 3338.93 938.417 3338.12 938.634 3337.33 939.007 3336.56 939.537 3335.79 940.067 3334.82 940.946 3333.67 942.175L3330.63 939.465C3332.63 937.056 3334.28 935.309 3335.57 934.225 3336.85 933.141 3338.17 932.395 3339.52 931.985 3340.87 931.576 3342.68 931.371 3344.94 931.371Z" fill-rule="evenodd"/><text fill="#000000" fill-opacity="0" font-family="Arial,Arial_MSFontService,sans-serif" font-size="36.4219" x="3330.63" y="963.24">𝝉</text><path d="M3391.4 917.315 3396.02 917.315C3395.88 919.628 3395.8 922.832 3395.8 926.927L3395.8 957.134C3395.8 958.531 3395.88 959.585 3396.04 960.295 3396.2 961.006 3396.47 961.584 3396.87 962.03 3397.27 962.475 3397.84 962.825 3398.59 963.077 3399.33 963.33 3400.27 963.523 3401.4 963.656 3402.54 963.788 3404.03 963.878 3405.88 963.927L3405.88 967.215 3374.7 967.215 3374.7 963.927C3377.38 963.806 3379.28 963.644 3380.43 963.439 3381.57 963.234 3382.45 962.927 3383.05 962.517 3383.65 962.108 3384.09 961.53 3384.37 960.783 3384.64 960.036 3384.78 958.82 3384.78 957.134L3384.78 931.01C3384.78 930.022 3384.6 929.311 3384.22 928.878 3383.85 928.444 3383.34 928.227 3382.69 928.227 3382.09 928.227 3381.24 928.504 3380.14 929.058 3379.04 929.612 3377.24 930.745 3374.74 932.455L3372.53 928.625Z" fill-rule="evenodd"/><text fill="#000000" fill-opacity="0" font-family="Arial,Arial_MSFontService,sans-serif" font-size="49.8994" x="3372.53" y="960.977">𝟏</text><path d="M3358.89 862.219 3347.72 883.284 3359.5 883.284 3359.36 874.612C3359.31 871.529 3359.29 868.976 3359.29 866.952 3359.29 865.41 3359.3 863.833 3359.32 862.219ZM3358.38 853.222 3368.79 853.222 3370.34 891.848C3370.39 893.221 3370.49 894.455 3370.63 895.551 3370.78 896.647 3371.01 897.545 3371.32 898.243 3371.63 898.942 3372.02 899.454 3372.49 899.779 3372.96 900.104 3373.56 900.315 3374.28 900.411L3373.74 902.796 3355.06 902.796 3355.6 900.411C3356.66 900.339 3357.5 900.068 3358.11 899.598 3358.73 899.128 3359.15 898.49 3359.4 897.683 3359.64 896.876 3359.76 895.75 3359.76 894.305 3359.76 893.269 3359.73 892.185 3359.68 891.053L3359.61 887.512 3345.48 887.512 3344.98 888.415C3343.63 890.848 3342.73 892.691 3342.29 893.943 3341.84 895.196 3341.62 896.352 3341.62 897.412 3341.62 899.146 3342.64 900.146 3344.69 900.411L3344.15 902.796 3328.9 902.796 3329.44 900.411C3330.28 900.218 3331.02 899.893 3331.66 899.436 3332.3 898.978 3332.91 898.358 3333.49 897.575 3334.07 896.792 3334.89 895.449 3335.94 893.546Z" fill-rule="evenodd"/><text fill="#000000" fill-opacity="0" font-family="Arial,Arial_MSFontService,sans-serif" font-size="49.5742" x="3328.9" y="896.599">𝑨</text><rect x="1925.5" y="756.5" width="455" height="153" stroke="#2F528F" stroke-width="4.58333" stroke-miterlimit="8" fill="#4472C4"/><text fill="#FFFFFF" font-family="Calibri,Calibri_MSFontService,sans-serif" font-weight="700" font-size="92" transform="matrix(1 0 0 1 1960.09 865)">LSTM (</text><path d="M2259.15 800.694C2262.15 800.694 2264.96 800.963 2267.6 801.503L2265.58 810.487 2259.78 810.487C2259.66 808.63 2259.36 807.312 2258.88 806.534 2258.4 805.755 2257.66 805.366 2256.64 805.366 2255.44 805.366 2254.47 805.785 2253.72 806.624 2252.97 807.462 2252.34 808.6 2251.83 810.038 2251.32 811.475 2250.81 813.362 2250.3 815.698L2249.18 820.639 2258.79 820.639 2257.58 826.254 2247.92 826.254 2239.79 863.809C2238.21 871.086 2235.64 876.485 2232.11 880.003 2228.58 883.522 2224.16 885.282 2218.86 885.282 2217.57 885.282 2216.54 885.207 2215.76 885.057L2216.84 880.026C2217.44 880.116 2217.98 880.161 2218.45 880.161 2220.16 880.161 2221.58 879.217 2222.7 877.331 2223.82 875.444 2224.82 872.614 2225.69 868.84L2235.3 826.254 2228.52 826.254 2229.33 822.616C2231.39 822.586 2232.85 822.436 2233.71 822.167 2234.56 821.897 2235.26 821.403 2235.82 820.684 2236.37 819.965 2236.9 818.633 2237.41 816.686 2238.16 813.841 2239.1 811.483 2240.24 809.611 2241.38 807.739 2242.86 806.107 2244.69 804.714 2246.52 803.322 2248.65 802.304 2251.09 801.66 2253.53 801.016 2256.22 800.694 2259.15 800.694Z" fill="#FFFFFF" fill-rule="evenodd"/><text fill="#000000" fill-opacity="0" font-family="Arial,Arial_MSFontService,sans-serif" font-size="84.5879" x="2215.76" y="874.708">𝒇</text><path d="M2294.72 794.89 2284.61 813.963 2295.28 813.963 2295.15 806.111C2295.1 803.32 2295.08 801.008 2295.08 799.176 2295.08 797.78 2295.09 796.351 2295.12 794.89ZM2294.27 786.744 2303.69 786.744 2305.09 821.716C2305.14 822.959 2305.22 824.077 2305.36 825.07 2305.49 826.062 2305.69 826.874 2305.98 827.507 2306.26 828.139 2306.62 828.603 2307.04 828.897 2307.47 829.192 2308.01 829.382 2308.66 829.47L2308.17 831.629 2291.26 831.629 2291.75 829.47C2292.71 829.404 2293.46 829.159 2294.02 828.734 2294.58 828.308 2294.96 827.73 2295.18 827 2295.4 826.269 2295.51 825.249 2295.51 823.941 2295.51 823.003 2295.49 822.022 2295.44 820.997L2295.38 817.79 2282.59 817.79 2282.13 818.608C2280.91 820.811 2280.09 822.48 2279.69 823.614 2279.29 824.748 2279.09 825.795 2279.09 826.754 2279.09 828.325 2280.01 829.23 2281.87 829.47L2281.38 831.629 2267.57 831.629 2268.06 829.47C2268.82 829.295 2269.49 829.001 2270.07 828.586 2270.65 828.172 2271.2 827.61 2271.72 826.902 2272.25 826.193 2272.99 824.977 2273.95 823.254Z" fill="#FFFFFF" fill-rule="evenodd"/><text fill="#000000" fill-opacity="0" font-family="Arial,Arial_MSFontService,sans-serif" font-size="44.8848" x="2267.57" y="826.018">𝑨</text><text fill="#FFFFFF" font-family="Calibri,Calibri_MSFontService,sans-serif" font-weight="700" font-size="92" transform="matrix(1 0 0 1 2315.91 865)">)</text><rect x="2673.5" y="755.5" width="454" height="153" stroke="#2F528F" stroke-width="4.58333" stroke-miterlimit="8" fill="#4472C4"/><text fill="#FFFFFF" font-family="Calibri,Calibri_MSFontService,sans-serif" font-weight="700" font-size="92" transform="matrix(1 0 0 1 2707.88 864)">LSTM (</text><path d="M3006.94 799.862C3009.94 799.862 3012.75 800.131 3015.39 800.67L3013.37 809.655 3007.57 809.655C3007.45 807.798 3007.15 806.48 3006.67 805.702 3006.2 804.923 3005.45 804.534 3004.43 804.534 3003.23 804.534 3002.26 804.953 3001.51 805.791 3000.76 806.63 3000.13 807.768 2999.62 809.205 2999.11 810.643 2998.6 812.53 2998.09 814.866L2996.97 819.807 3006.58 819.807 3005.37 825.422 2995.71 825.422 2987.58 862.977C2986 870.254 2983.44 875.652 2979.9 879.171 2976.37 882.69 2971.95 884.45 2966.65 884.45 2965.36 884.45 2964.33 884.375 2963.55 884.225L2964.63 879.194C2965.23 879.284 2965.77 879.328 2966.25 879.328 2967.95 879.328 2969.37 878.385 2970.49 876.498 2971.61 874.612 2972.61 871.782 2973.48 868.008L2983.09 825.422 2976.31 825.422 2977.12 821.784C2979.18 821.754 2980.64 821.604 2981.5 821.334 2982.35 821.065 2983.05 820.571 2983.61 819.852 2984.16 819.133 2984.69 817.8 2985.2 815.854 2985.95 813.009 2986.89 810.65 2988.03 808.779 2989.17 806.907 2990.65 805.275 2992.48 803.882 2994.31 802.49 2996.44 801.471 2998.88 800.828 3001.32 800.184 3004.01 799.862 3006.94 799.862Z" fill="#FFFFFF" fill-rule="evenodd"/><text fill="#000000" fill-opacity="0" font-family="Arial,Arial_MSFontService,sans-serif" font-size="84.5879" x="2963.55" y="873.876">𝒇</text><path d="M3042.51 794.058 3032.41 813.131 3043.07 813.131 3042.94 805.279C3042.9 802.487 3042.87 800.176 3042.87 798.344 3042.87 796.948 3042.89 795.519 3042.91 794.058ZM3042.06 785.912 3051.48 785.912 3052.88 820.884C3052.93 822.127 3053.02 823.245 3053.15 824.237 3053.28 825.23 3053.48 826.042 3053.77 826.675 3054.05 827.307 3054.41 827.771 3054.83 828.065 3055.26 828.359 3055.8 828.55 3056.45 828.637L3055.96 830.797 3039.05 830.797 3039.54 828.637C3040.5 828.572 3041.25 828.327 3041.81 827.901 3042.37 827.476 3042.75 826.898 3042.97 826.167 3043.19 825.437 3043.3 824.417 3043.3 823.109 3043.3 822.171 3043.28 821.189 3043.23 820.164L3043.17 816.958 3030.38 816.958 3029.92 817.776C3028.7 819.979 3027.89 821.647 3027.48 822.781 3027.08 823.916 3026.88 824.962 3026.88 825.922 3026.88 827.492 3027.8 828.398 3029.66 828.637L3029.17 830.797 3015.36 830.797 3015.85 828.637C3016.61 828.463 3017.29 828.169 3017.86 827.754 3018.44 827.34 3018.99 826.778 3019.52 826.069 3020.04 825.361 3020.78 824.145 3021.74 822.422Z" fill="#FFFFFF" fill-rule="evenodd"/><text fill="#000000" fill-opacity="0" font-family="Arial,Arial_MSFontService,sans-serif" font-size="44.8848" x="3015.36" y="825.186">𝑨</text><text fill="#FFFFFF" font-family="Calibri,Calibri_MSFontService,sans-serif" font-weight="700" font-size="92" transform="matrix(1 0 0 1 3063.7 864)">)</text><path d="M4.58342 22.9166 4.58369 100.762-4.58297 100.762-4.58325 22.9167ZM-13.7499 27.5 0 0 13.7501 27.5Z" transform="matrix(-1 0 0 1 2152.5 909.5)"/><path d="M22.9167-4.58323 78.7179-4.58297 78.7178 4.58369 22.9166 4.58344ZM27.4999 13.7501 0 0 27.5001-13.7499Z" transform="matrix(-1 0 0 1 2459.22 832.5)"/><path d="M22.9167-4.58322 75.1822-4.58297 75.1822 4.58369 22.9166 4.58344ZM27.4999 13.7501 0 0 27.5001-13.7499Z" transform="matrix(-1 0 0 1 2673.68 831.5)"/><text font-family="Calibri,Calibri_MSFontService,sans-serif" font-weight="700" font-size="147" transform="matrix(1 0 0 1 2477.25 842)">…</text><path d="M4.5835 22.9166 4.58405 101.594-4.58261 101.594-4.58317 22.9167ZM-13.7498 27.5001 0 0 13.7502 27.4999Z" transform="matrix(-1 0 0 1 2900.5 908.5)"/><path d="M0 4.58333-37.3415 4.58333-32.7582 0-32.7582 440.518-37.3415 435.935 77.2461 435.935 77.2461 445.102-41.9249 445.102-41.9249-4.58333 0-4.58333ZM72.6628 426.768 100.163 440.518 72.6628 454.268Z" transform="matrix(1.83697e-16 1 1 -1.83697e-16 2900.5 755.5)"/><text font-family="Calibri,Calibri_MSFontService,sans-serif" font-weight="700" font-size="147" transform="matrix(1 0 0 1 2477.25 1069)">…</text></g></svg>