<svg width="2964" height="996" xmlns="http://www.w3.org/2000/svg" xmlns:xlink="http://www.w3.org/1999/xlink" xml:space="preserve" overflow="hidden"><g transform="translate(-550 -848)"><path d="M554.5 1696.5C554.5 1647.35 714.558 1607.5 912 1607.5 1109.44 1607.5 1269.5 1647.35 1269.5 1696.5 1269.5 1745.65 1109.44 1785.5 912 1785.5 714.558 1785.5 554.5 1745.65 554.5 1696.5Z" stroke="#FF6599" stroke-width="9.16667" stroke-linejoin="round" stroke-miterlimit="10" fill="none" fill-rule="evenodd"/><rect x="1547.5" y="1579.5" width="1779" height="234" stroke="#FF6599" stroke-width="9.16667" stroke-linejoin="round" stroke-miterlimit="10" fill="none"/><text font-family="Calibri,Calibri_MSFontService,sans-serif" font-weight="400" font-size="83" transform="matrix(1 0 0 1 1580.48 1673)">Optimize it with the coupled triplet loss (need to </text><text font-family="Calibri,Calibri_MSFontService,sans-serif" font-weight="400" font-size="83" transform="matrix(1 0 0 1 1580.48 1772)">make two other copies of the framework)</text><path d="M5.95012e-06-4.58333 255.076-4.583 255.076 4.58366-5.95012e-06 4.58333ZM250.493-13.7497 277.993 0.000360892 250.493 13.7503Z" fill="#FF6599" transform="matrix(1 0 0 -1 1269.5 1696.5)"/><path d="M2.41373-3.89626 892.409 547.456 887.582 555.248-2.41373 3.89626ZM893.342 537.25 909.478 563.422 878.86 560.628Z" fill="#FF6599" transform="matrix(-1 0 0 1 3346.98 1016.5)"/><path d="M3184.5 934.5C3184.5 889.213 3257.25 852.5 3347 852.5 3436.75 852.5 3509.5 889.213 3509.5 934.5 3509.5 979.787 3436.75 1016.5 3347 1016.5 3257.25 1016.5 3184.5 979.787 3184.5 934.5Z" stroke="#FF6599" stroke-width="9.16667" stroke-linejoin="round" stroke-miterlimit="10" fill="none" fill-rule="evenodd"/></g></svg>