<svg width="1196" height="177" xmlns="http://www.w3.org/2000/svg" xmlns:xlink="http://www.w3.org/1999/xlink" xml:space="preserve" overflow="hidden"><g transform="translate(-2845 -1453)"><path d="M3593.92 1553.91C3591.4 1553.91 3589.17 1555.17 3587.23 1557.7 3585.28 1560.23 3583.72 1563.62 3582.53 1567.89 3581.34 1572.16 3580.74 1575.98 3580.74 1579.36 3580.74 1581.33 3581.03 1582.81 3581.62 1583.78 3582.2 1584.75 3583.09 1585.24 3584.31 1585.24 3586.09 1585.24 3587.91 1584.37 3589.76 1582.62 3591.61 1580.88 3593.1 1578.84 3594.24 1576.48 3595.37 1574.13 3596.39 1570.92 3597.28 1566.84L3597.6 1565.34C3598.04 1563.34 3598.25 1561.34 3598.25 1559.34 3598.25 1557.56 3597.91 1556.21 3597.24 1555.29 3596.56 1554.37 3595.46 1553.91 3593.92 1553.91ZM3593.43 1549.7C3597.45 1549.7 3600.89 1550.67 3603.72 1552.61L3607.65 1549.7 3612.19 1550.34 3605.63 1577.9C3605.22 1579.61 3605.02 1581.15 3605.02 1582.52 3605.02 1583.41 3605.17 1584.1 3605.47 1584.59 3605.76 1585.08 3606.28 1585.32 3607.01 1585.32 3607.84 1585.32 3608.75 1584.94 3609.72 1584.18 3610.69 1583.43 3611.83 1582.31 3613.13 1580.82L3616.04 1583.74C3613.21 1586.58 3610.76 1588.53 3608.71 1589.6 3606.65 1590.66 3604.49 1591.2 3602.22 1591.2 3599.95 1591.2 3598.16 1590.57 3596.83 1589.31 3595.51 1588.06 3594.85 1586.4 3594.85 1584.35 3594.85 1583.67 3594.93 1583.02 3595.09 1582.4L3594.52 1582.32C3592.55 1584.64 3590.86 1586.39 3589.44 1587.57 3588.02 1588.74 3586.51 1589.64 3584.92 1590.26 3583.32 1590.89 3581.55 1591.2 3579.61 1591.2 3576.37 1591.2 3573.91 1590.1 3572.23 1587.89 3570.56 1585.69 3569.72 1582.48 3569.72 1578.27 3569.72 1574.62 3570.25 1571 3571.3 1567.41 3572.35 1563.81 3573.87 1560.71 3575.84 1558.11 3577.81 1555.5 3580.29 1553.44 3583.28 1551.95 3586.26 1550.45 3589.65 1549.7 3593.43 1549.7ZM3701.01 1532.35C3703.71 1532.35 3706.25 1532.59 3708.63 1533.08L3706.8 1541.19 3701.57 1541.19C3701.47 1539.51 3701.2 1538.32 3700.76 1537.62 3700.33 1536.92 3699.66 1536.57 3698.74 1536.57 3697.66 1536.57 3696.78 1536.94 3696.1 1537.7 3695.43 1538.46 3694.86 1539.48 3694.4 1540.78 3693.94 1542.08 3693.48 1543.78 3693.02 1545.89L3692.01 1550.34 3700.68 1550.34 3699.59 1555.41 3690.88 1555.41 3683.54 1589.29C3682.11 1595.86 3679.8 1600.73 3676.61 1603.9 3673.42 1607.08 3669.44 1608.66 3664.65 1608.66 3663.49 1608.66 3662.56 1608.6 3661.86 1608.46L3662.83 1603.92C3663.37 1604 3663.86 1604.04 3664.29 1604.04 3665.83 1604.04 3667.11 1603.19 3668.12 1601.49 3669.13 1599.79 3670.03 1597.23 3670.81 1593.83L3679.49 1555.41 3673.37 1555.41 3674.1 1552.13C3675.96 1552.1 3677.28 1551.97 3678.05 1551.72 3678.82 1551.48 3679.45 1551.03 3679.95 1550.39 3680.45 1549.74 3680.93 1548.53 3681.39 1546.78 3682.07 1544.21 3682.92 1542.08 3683.94 1540.4 3684.97 1538.71 3686.31 1537.23 3687.96 1535.98 3689.61 1534.72 3691.53 1533.8 3693.73 1533.22 3695.93 1532.64 3698.36 1532.35 3701.01 1532.35ZM3655.01 1532.35C3657.71 1532.35 3660.25 1532.59 3662.63 1533.08L3660.8 1541.19 3655.57 1541.19C3655.47 1539.51 3655.2 1538.32 3654.76 1537.62 3654.33 1536.92 3653.66 1536.57 3652.74 1536.57 3651.66 1536.57 3650.78 1536.94 3650.1 1537.7 3649.43 1538.46 3648.86 1539.48 3648.4 1540.78 3647.94 1542.08 3647.48 1543.78 3647.02 1545.89L3646.01 1550.34 3654.68 1550.34 3653.59 1555.41 3644.88 1555.41 3637.54 1589.29C3636.11 1595.86 3633.8 1600.73 3630.61 1603.9 3627.42 1607.08 3623.44 1608.66 3618.65 1608.66 3617.49 1608.66 3616.56 1608.6 3615.86 1608.46L3616.83 1603.92C3617.37 1604 3617.86 1604.04 3618.29 1604.04 3619.83 1604.04 3621.11 1603.19 3622.12 1601.49 3623.13 1599.79 3624.03 1597.23 3624.81 1593.83L3633.49 1555.41 3627.37 1555.41 3628.1 1552.13C3629.96 1552.1 3631.28 1551.97 3632.05 1551.72 3632.82 1551.48 3633.45 1551.03 3633.95 1550.39 3634.45 1549.74 3634.93 1548.53 3635.39 1546.78 3636.07 1544.21 3636.92 1542.08 3637.94 1540.4 3638.97 1538.71 3640.31 1537.23 3641.96 1535.98 3643.61 1534.72 3645.53 1533.8 3647.73 1533.22 3649.93 1532.64 3652.36 1532.35 3655.01 1532.35Z" fill-rule="evenodd"/><text fill="#000000" fill-opacity="0" font-family="Arial,Arial_MSFontService,sans-serif" font-size="76.313" x="3569.72" y="1599.12">𝒂𝒇𝒇</text><path d="M3713.64 1566.07 3732.45 1566.07 3732.45 1572.35 3713.64 1572.35Z" fill-rule="evenodd"/><text fill="#000000" fill-opacity="0" font-family="Arial,Arial_MSFontService,sans-serif" font-size="6.28174" x="3713.64" y="1571.57">-</text><path d="M3793.76 1549.7C3796.6 1549.7 3798.69 1550.41 3800.02 1551.84 3801.36 1553.28 3802.03 1555.36 3802.03 1558.09 3802.03 1560 3801.64 1562.5 3800.85 1565.58L3799.07 1572.39C3797.96 1576.63 3797.41 1579.73 3797.41 1581.67 3797.41 1584.08 3798.36 1585.28 3800.25 1585.28 3801.11 1585.28 3802.04 1584.95 3803.04 1584.31 3804.04 1583.66 3805.16 1582.67 3806.39 1581.33 3807.62 1579.99 3808.62 1578.51 3809.41 1576.89 3810.19 1575.27 3810.82 1573.35 3811.31 1571.14L3815.85 1550.34 3827.44 1550.34 3820.83 1578.43C3820.51 1579.81 3820.35 1581.17 3820.35 1582.52 3820.35 1583.41 3820.5 1584.1 3820.79 1584.59 3821.09 1585.08 3821.6 1585.32 3822.33 1585.32 3823.17 1585.32 3824.08 1584.94 3825.05 1584.18 3826.02 1583.43 3827.16 1582.31 3828.45 1580.82L3831.37 1583.74C3828.54 1586.58 3826.09 1588.53 3824.04 1589.6 3821.98 1590.66 3819.82 1591.2 3817.55 1591.2 3815.28 1591.2 3813.49 1590.57 3812.16 1589.31 3810.84 1588.06 3810.18 1586.4 3810.18 1584.35 3810.18 1583.67 3810.26 1583.02 3810.42 1582.4L3810.01 1582.08C3807.5 1585.18 3805.09 1587.48 3802.78 1588.97 3800.47 1590.45 3797.8 1591.2 3794.78 1591.2 3792.02 1591.2 3789.87 1590.41 3788.31 1588.85 3786.76 1587.28 3785.98 1585.14 3785.98 1582.44 3785.98 1581.58 3786.07 1580.5 3786.24 1579.2 3786.42 1577.9 3786.63 1576.75 3786.87 1575.76L3790.07 1563.11C3790.53 1561.3 3790.76 1559.72 3790.76 1558.37 3790.76 1557.32 3790.59 1556.59 3790.24 1556.18 3789.89 1555.78 3789.39 1555.57 3788.74 1555.57 3787.95 1555.57 3787.08 1555.94 3786.12 1556.69 3785.16 1557.43 3784.01 1558.56 3782.66 1560.07L3779.74 1557.15C3782.52 1554.37 3784.94 1552.43 3786.99 1551.34 3789.05 1550.24 3791.3 1549.7 3793.76 1549.7ZM3765.79 1549.7C3767.6 1549.7 3769.55 1549.84 3771.66 1550.12 3773.77 1550.41 3775.63 1550.8 3777.25 1551.32L3774.98 1561.21 3767.69 1561.21C3767.74 1560.64 3767.77 1560.06 3767.77 1559.46 3767.77 1557.52 3767.47 1556.11 3766.88 1555.23 3766.28 1554.35 3765.41 1553.91 3764.25 1553.91 3762.25 1553.91 3760.34 1555.06 3758.53 1557.36 3756.72 1559.65 3755.21 1562.84 3753.99 1566.92 3752.78 1571 3752.17 1574.58 3752.17 1577.66 3752.17 1582.74 3754.02 1585.28 3757.72 1585.28 3759.58 1585.28 3761.35 1584.86 3763.01 1584.02 3764.67 1583.19 3766.56 1581.78 3768.66 1579.81L3771.95 1583.33C3769.11 1586.17 3766.27 1588.19 3763.43 1589.39 3760.6 1590.59 3757.48 1591.2 3754.07 1591.2 3749.94 1591.2 3746.73 1589.91 3744.45 1587.33 3742.16 1584.75 3741.02 1581.16 3741.02 1576.57 3741.02 1572.27 3741.99 1567.89 3743.92 1563.43 3745.85 1558.98 3748.71 1555.57 3752.49 1553.22 3756.27 1550.87 3760.71 1549.7 3765.79 1549.7Z" fill-rule="evenodd"/><text fill="#000000" fill-opacity="0" font-family="Arial,Arial_MSFontService,sans-serif" font-size="41.5" x="3741.02" y="1586.01">𝒄𝒖</text><path d="M3860.2 1553.91C3857.69 1553.91 3855.42 1555.15 3853.41 1557.64 3851.4 1560.13 3849.74 1563.75 3848.45 1568.5 3853.42 1568.37 3857.22 1567.41 3859.86 1565.64 3862.49 1563.87 3863.81 1561.37 3863.81 1558.13 3863.81 1556.75 3863.49 1555.7 3862.85 1554.98 3862.22 1554.27 3861.33 1553.91 3860.2 1553.91ZM3861.21 1549.7C3869.48 1549.7 3873.61 1552.68 3873.61 1558.65 3873.61 1560.71 3873.2 1562.52 3872.38 1564.08 3871.55 1565.65 3870.18 1567.07 3868.27 1568.34 3866.35 1569.61 3863.64 1570.64 3860.14 1571.42 3856.64 1572.2 3852.42 1572.65 3847.47 1572.76 3847.12 1574.35 3846.95 1576 3846.95 1577.7 3846.95 1580.21 3847.47 1582.1 3848.53 1583.37 3849.58 1584.64 3851.18 1585.28 3853.31 1585.28 3855.69 1585.28 3857.84 1584.8 3859.75 1583.84 3861.67 1582.88 3863.93 1581.17 3866.52 1578.71L3869.93 1582.12C3867.2 1585.2 3864.26 1587.48 3861.11 1588.97 3857.96 1590.45 3854.55 1591.2 3850.88 1591.2 3847.72 1591.2 3845.03 1590.64 3842.81 1589.53 3840.6 1588.43 3838.93 1586.79 3837.81 1584.61 3836.69 1582.44 3836.13 1579.83 3836.13 1576.81 3836.13 1575.4 3836.32 1573.61 3836.69 1571.42 3837.21 1568.45 3837.99 1565.8 3839.04 1563.48 3840.37 1560.61 3842.1 1558.15 3844.23 1556.1 3846.37 1554.05 3848.87 1552.47 3851.75 1551.36 3854.63 1550.25 3857.78 1549.7 3861.21 1549.7Z" fill-rule="evenodd"/><text fill="#000000" fill-opacity="0" font-family="Arial,Arial_MSFontService,sans-serif" font-size="41.5" x="3836.13" y="1586.01">𝒆</text><path d="M3889.17 1570.4 3896.31 1570.4 3894.59 1577.84 3901.82 1577.84 3901.02 1581.57 3893.72 1581.57 3890.83 1593.48C3890.34 1595.53 3889.99 1597.08 3889.81 1598.14 3889.62 1599.21 3889.52 1600.1 3889.52 1600.84 3889.52 1601.77 3889.69 1602.45 3890.03 1602.88 3890.37 1603.31 3890.86 1603.52 3891.52 1603.52 3892.41 1603.52 3893.33 1603.2 3894.27 1602.57 3895.22 1601.93 3896.23 1600.95 3897.33 1599.62L3899.62 1601.97C3897.61 1604.17 3895.77 1605.71 3894.09 1606.57 3892.42 1607.44 3890.44 1607.87 3888.15 1607.87 3885.89 1607.87 3884.15 1607.29 3882.94 1606.13 3881.73 1604.96 3881.12 1603.36 3881.12 1601.32 3881.12 1600.38 3881.19 1599.49 3881.33 1598.65 3881.47 1597.81 3881.76 1596.42 3882.2 1594.49L3885.26 1581.57 3880.62 1581.57 3881.18 1579.16C3882.57 1579.16 3883.63 1579.03 3884.34 1578.77 3885.05 1578.51 3885.66 1578.12 3886.14 1577.61 3886.63 1577.09 3887.1 1576.31 3887.56 1575.25 3888.01 1574.2 3888.55 1572.58 3889.17 1570.4Z" fill-rule="evenodd"/><text fill="#000000" fill-opacity="0" font-family="Arial,Arial_MSFontService,sans-serif" font-size="37.4697" x="3880.62" y="1603.18">𝒕</text><path d="M3922.12 1572.01 3926.94 1572.01 3926.94 1587.67 3941.69 1587.67 3941.69 1592.23 3926.94 1592.23 3926.94 1607.9 3922.12 1607.9 3922.12 1592.23 3907.37 1592.23 3907.37 1587.67 3922.12 1587.67Z" fill-rule="evenodd"/><text fill="#000000" fill-opacity="0" font-family="Arial,Arial_MSFontService,sans-serif" font-size="35.8911" x="3907.37" y="1603.41">+</text><path d="M3966.31 1566.26 3970.13 1566.26C3970.01 1568.16 3969.95 1570.81 3969.95 1574.18L3969.95 1599.08C3969.95 1600.23 3970.01 1601.1 3970.14 1601.69 3970.27 1602.27 3970.5 1602.75 3970.83 1603.12 3971.15 1603.48 3971.63 1603.77 3972.24 1603.98 3972.86 1604.19 3973.63 1604.35 3974.57 1604.46 3975.5 1604.57 3976.73 1604.64 3978.26 1604.68L3978.26 1607.39 3952.55 1607.39 3952.55 1604.68C3954.76 1604.58 3956.33 1604.45 3957.27 1604.28 3958.22 1604.11 3958.94 1603.86 3959.43 1603.52 3959.93 1603.18 3960.29 1602.71 3960.52 1602.09 3960.75 1601.47 3960.86 1600.47 3960.86 1599.08L3960.86 1577.55C3960.86 1576.73 3960.71 1576.15 3960.4 1575.79 3960.09 1575.43 3959.67 1575.25 3959.14 1575.25 3958.64 1575.25 3957.94 1575.48 3957.04 1575.94 3956.13 1576.39 3954.65 1577.33 3952.58 1578.74L3950.77 1575.58Z" fill-rule="evenodd"/><text fill="#000000" fill-opacity="0" font-family="Arial,Arial_MSFontService,sans-serif" font-size="41.1333" x="3950.77" y="1602.25">𝟏</text><path d="M3532.5 1497.5 4037.59 1497.5" stroke="#000000" stroke-width="4.58333" stroke-miterlimit="8" fill="none" fill-rule="evenodd"/><path d="M4.58345 22.9166 4.58369 71.1788-4.58297 71.1788-4.58322 22.9167ZM-13.7499 27.5001 0 0 13.7501 27.4999Z" transform="matrix(1 0 0 -1 3781.5 1536.68)"/><path d="M2946.76 1546.6C2944.25 1546.6 2942.02 1547.87 2940.07 1550.39 2938.13 1552.92 2936.56 1556.32 2935.37 1560.59 2934.18 1564.85 2933.59 1568.68 2933.59 1572.06 2933.59 1574.03 2933.88 1575.5 2934.46 1576.47 2935.04 1577.45 2935.94 1577.93 2937.16 1577.93 2938.94 1577.93 2940.76 1577.06 2942.61 1575.32 2944.46 1573.57 2945.95 1571.53 2947.09 1569.18 2948.22 1566.83 2949.23 1563.61 2950.13 1559.53L2950.45 1558.03C2950.88 1556.03 2951.1 1554.03 2951.1 1552.03 2951.1 1550.25 2950.76 1548.9 2950.08 1547.98 2949.41 1547.06 2948.3 1546.6 2946.76 1546.6ZM2946.28 1542.39C2950.3 1542.39 2953.73 1543.36 2956.57 1545.31L2960.5 1542.39 2965.04 1543.04 2958.47 1570.6C2958.07 1572.3 2957.87 1573.84 2957.87 1575.22 2957.87 1576.11 2958.01 1576.8 2958.31 1577.28 2958.61 1577.77 2959.12 1578.01 2959.85 1578.01 2960.69 1578.01 2961.59 1577.63 2962.57 1576.88 2963.54 1576.12 2964.67 1575 2965.97 1573.51L2968.89 1576.43C2966.05 1579.27 2963.61 1581.22 2961.55 1582.29 2959.5 1583.36 2957.34 1583.89 2955.07 1583.89 2952.8 1583.89 2951 1583.26 2949.68 1582 2948.36 1580.75 2947.69 1579.09 2947.69 1577.04 2947.69 1576.36 2947.77 1575.72 2947.94 1575.09L2947.37 1575.01C2945.4 1577.34 2943.7 1579.09 2942.28 1580.26 2940.86 1581.44 2939.36 1582.34 2937.76 1582.96 2936.17 1583.58 2934.4 1583.89 2932.46 1583.89 2929.21 1583.89 2926.75 1582.79 2925.08 1580.59 2923.4 1578.38 2922.57 1575.18 2922.57 1570.96 2922.57 1567.31 2923.09 1563.69 2924.15 1560.1 2925.2 1556.51 2926.71 1553.41 2928.69 1550.8 2930.66 1548.19 2933.14 1546.14 2936.12 1544.64 2939.11 1543.14 2942.49 1542.39 2946.28 1542.39ZM3053.85 1525.04C3056.55 1525.04 3059.09 1525.29 3061.47 1525.77L3059.65 1533.88 3054.42 1533.88C3054.31 1532.2 3054.04 1531.01 3053.61 1530.31 3053.18 1529.61 3052.5 1529.26 3051.58 1529.26 3050.5 1529.26 3049.62 1529.64 3048.95 1530.39 3048.27 1531.15 3047.71 1532.18 3047.25 1533.47 3046.79 1534.77 3046.33 1536.47 3045.87 1538.58L3044.86 1543.04 3053.53 1543.04 3052.43 1548.1 3043.72 1548.1 3036.39 1581.98C3034.95 1588.55 3032.64 1593.42 3029.46 1596.59 3026.27 1599.77 3022.28 1601.36 3017.5 1601.36 3016.34 1601.36 3015.41 1601.29 3014.7 1601.15L3015.68 1596.61C3016.22 1596.7 3016.7 1596.74 3017.14 1596.74 3018.68 1596.74 3019.95 1595.89 3020.97 1594.18 3021.98 1592.48 3022.88 1589.93 3023.66 1586.52L3032.33 1548.1 3026.21 1548.1 3026.94 1544.82C3028.81 1544.79 3030.12 1544.66 3030.89 1544.42 3031.66 1544.17 3032.3 1543.73 3032.8 1543.08 3033.3 1542.43 3033.78 1541.23 3034.24 1539.47 3034.91 1536.9 3035.76 1534.78 3036.79 1533.09 3037.82 1531.4 3039.16 1529.93 3040.8 1528.67 3042.45 1527.41 3044.38 1526.5 3046.58 1525.91 3048.78 1525.33 3051.21 1525.04 3053.85 1525.04ZM3007.85 1525.04C3010.55 1525.04 3013.09 1525.29 3015.47 1525.77L3013.65 1533.88 3008.42 1533.88C3008.31 1532.2 3008.04 1531.01 3007.61 1530.31 3007.18 1529.61 3006.5 1529.26 3005.58 1529.26 3004.5 1529.26 3003.62 1529.64 3002.95 1530.39 3002.27 1531.15 3001.71 1532.18 3001.25 1533.47 3000.79 1534.77 3000.33 1536.47 2999.87 1538.58L2998.86 1543.04 3007.53 1543.04 3006.43 1548.1 2997.72 1548.1 2990.39 1581.98C2988.95 1588.55 2986.64 1593.42 2983.46 1596.59 2980.27 1599.77 2976.28 1601.36 2971.5 1601.36 2970.34 1601.36 2969.41 1601.29 2968.7 1601.15L2969.68 1596.61C2970.22 1596.7 2970.7 1596.74 2971.14 1596.74 2972.68 1596.74 2973.95 1595.89 2974.97 1594.18 2975.98 1592.48 2976.88 1589.93 2977.66 1586.52L2986.33 1548.1 2980.21 1548.1 2980.94 1544.82C2982.81 1544.79 2984.12 1544.66 2984.89 1544.42 2985.66 1544.17 2986.3 1543.73 2986.8 1543.08 2987.3 1542.43 2987.78 1541.23 2988.24 1539.47 2988.91 1536.9 2989.76 1534.78 2990.79 1533.09 2991.82 1531.4 2993.16 1529.93 2994.8 1528.67 2996.45 1527.41 2998.38 1526.5 3000.58 1525.91 3002.78 1525.33 3005.21 1525.04 3007.85 1525.04Z" fill-rule="evenodd"/><text fill="#000000" fill-opacity="0" font-family="Arial,Arial_MSFontService,sans-serif" font-size="76.313" x="2922.57" y="1591.82">𝒂𝒇𝒇</text><path d="M3066.49 1558.76 3085.3 1558.76 3085.3 1565.04 3066.49 1565.04Z" fill-rule="evenodd"/><text fill="#000000" fill-opacity="0" font-family="Arial,Arial_MSFontService,sans-serif" font-size="6.28174" x="3066.49" y="1564.26">-</text><path d="M3146.61 1542.39C3149.45 1542.39 3151.53 1543.1 3152.87 1544.54 3154.21 1545.97 3154.88 1548.05 3154.88 1550.78 3154.88 1552.7 3154.48 1555.2 3153.7 1558.28L3151.92 1565.08C3150.81 1569.33 3150.26 1572.42 3150.26 1574.37 3150.26 1576.77 3151.2 1577.97 3153.09 1577.97 3153.96 1577.97 3154.89 1577.65 3155.89 1577 3156.89 1576.35 3158 1575.36 3159.23 1574.02 3160.46 1572.68 3161.47 1571.2 3162.25 1569.58 3163.04 1567.96 3163.67 1566.04 3164.16 1563.83L3168.7 1543.04 3180.29 1543.04 3173.68 1571.12C3173.36 1572.5 3173.19 1573.87 3173.19 1575.22 3173.19 1576.11 3173.34 1576.8 3173.64 1577.28 3173.94 1577.77 3174.45 1578.01 3175.18 1578.01 3176.02 1578.01 3176.92 1577.63 3177.9 1576.88 3178.87 1576.12 3180 1575 3181.3 1573.51L3184.22 1576.43C3181.38 1579.27 3178.94 1581.22 3176.88 1582.29 3174.83 1583.36 3172.67 1583.89 3170.4 1583.89 3168.13 1583.89 3166.33 1583.26 3165.01 1582 3163.68 1580.75 3163.02 1579.09 3163.02 1577.04 3163.02 1576.36 3163.1 1575.72 3163.27 1575.09L3162.86 1574.77C3160.35 1577.88 3157.94 1580.17 3155.63 1581.66 3153.32 1583.15 3150.65 1583.89 3147.62 1583.89 3144.87 1583.89 3142.71 1583.11 3141.16 1581.54 3139.6 1579.97 3138.83 1577.84 3138.83 1575.14 3138.83 1574.27 3138.92 1573.19 3139.09 1571.89 3139.27 1570.6 3139.48 1569.45 3139.72 1568.45L3142.92 1555.8C3143.38 1553.99 3143.61 1552.41 3143.61 1551.06 3143.61 1550.01 3143.43 1549.28 3143.08 1548.87 3142.73 1548.47 3142.23 1548.27 3141.58 1548.27 3140.8 1548.27 3139.93 1548.64 3138.97 1549.38 3138.01 1550.12 3136.85 1551.25 3135.5 1552.76L3132.59 1549.85C3135.37 1547.06 3137.79 1545.12 3139.84 1544.03 3141.89 1542.94 3144.15 1542.39 3146.61 1542.39ZM3118.63 1542.39C3120.44 1542.39 3122.4 1542.53 3124.51 1542.81 3126.61 1543.1 3128.48 1543.5 3130.1 1544.01L3127.83 1553.9 3120.54 1553.9C3120.59 1553.33 3120.62 1552.75 3120.62 1552.16 3120.62 1550.21 3120.32 1548.8 3119.73 1547.92 3119.13 1547.04 3118.25 1546.6 3117.09 1546.6 3115.09 1546.6 3113.19 1547.75 3111.38 1550.05 3109.57 1552.35 3108.05 1555.53 3106.84 1559.61 3105.62 1563.69 3105.01 1567.27 3105.01 1570.35 3105.01 1575.43 3106.86 1577.97 3110.57 1577.97 3112.43 1577.97 3114.19 1577.55 3115.85 1576.72 3117.52 1575.88 3119.4 1574.47 3121.51 1572.5L3124.79 1576.03C3121.95 1578.86 3119.12 1580.88 3116.28 1582.09 3113.44 1583.29 3110.32 1583.89 3106.92 1583.89 3102.78 1583.89 3099.58 1582.6 3097.29 1580.02 3095.01 1577.44 3093.87 1573.85 3093.87 1569.26 3093.87 1564.96 3094.83 1560.59 3096.77 1556.13 3098.7 1551.67 3101.56 1548.27 3105.34 1545.91 3109.12 1543.56 3113.55 1542.39 3118.63 1542.39Z" fill-rule="evenodd"/><text fill="#000000" fill-opacity="0" font-family="Arial,Arial_MSFontService,sans-serif" font-size="41.5" x="3093.87" y="1578.7">𝒄𝒖</text><path d="M3213.05 1546.6C3210.53 1546.6 3208.27 1547.85 3206.26 1550.33 3204.25 1552.82 3202.59 1556.44 3201.29 1561.19 3206.26 1561.06 3210.07 1560.11 3212.7 1558.34 3215.34 1556.57 3216.65 1554.06 3216.65 1550.82 3216.65 1549.44 3216.34 1548.39 3215.7 1547.68 3215.07 1546.96 3214.18 1546.6 3213.05 1546.6ZM3214.06 1542.39C3222.33 1542.39 3226.46 1545.37 3226.46 1551.35 3226.46 1553.4 3226.05 1555.21 3225.22 1556.78 3224.4 1558.34 3223.03 1559.76 3221.11 1561.03 3219.19 1562.3 3216.48 1563.33 3212.99 1564.11 3209.49 1564.9 3205.27 1565.34 3200.32 1565.45 3199.97 1567.04 3199.79 1568.69 3199.79 1570.39 3199.79 1572.91 3200.32 1574.8 3201.37 1576.07 3202.43 1577.34 3204.02 1577.97 3206.16 1577.97 3208.53 1577.97 3210.68 1577.49 3212.6 1576.53 3214.52 1575.57 3216.77 1573.87 3219.37 1571.41L3222.77 1574.81C3220.04 1577.89 3217.11 1580.17 3213.96 1581.66 3210.81 1583.15 3207.4 1583.89 3203.73 1583.89 3200.56 1583.89 3197.88 1583.34 3195.66 1582.23 3193.44 1581.12 3191.78 1579.48 3190.66 1577.3 3189.53 1575.13 3188.97 1572.53 3188.97 1569.5 3188.97 1568.1 3189.16 1566.3 3189.54 1564.11 3190.05 1561.14 3190.84 1558.49 3191.89 1556.17 3193.22 1553.3 3194.94 1550.85 3197.08 1548.79 3199.21 1546.74 3201.72 1545.16 3204.6 1544.05 3207.47 1542.94 3210.63 1542.39 3214.06 1542.39Z" fill-rule="evenodd"/><text fill="#000000" fill-opacity="0" font-family="Arial,Arial_MSFontService,sans-serif" font-size="41.5" x="3188.97" y="1578.7">𝒆</text><path d="M3242.01 1563.09 3249.16 1563.09 3247.43 1570.54 3254.67 1570.54 3253.87 1574.26 3246.57 1574.26 3243.68 1586.17C3243.18 1588.22 3242.84 1589.77 3242.65 1590.84 3242.46 1591.9 3242.37 1592.8 3242.37 1593.53 3242.37 1594.46 3242.54 1595.15 3242.88 1595.57 3243.21 1596 3243.71 1596.21 3244.36 1596.21 3245.26 1596.21 3246.18 1595.89 3247.12 1595.26 3248.06 1594.62 3249.08 1593.64 3250.17 1592.31L3252.47 1594.66C3250.46 1596.87 3248.62 1598.4 3246.94 1599.27 3245.26 1600.13 3243.28 1600.56 3241 1600.56 3238.74 1600.56 3237 1599.98 3235.79 1598.82 3234.58 1597.66 3233.97 1596.05 3233.97 1594.01 3233.97 1593.07 3234.04 1592.19 3234.18 1591.34 3234.32 1590.5 3234.6 1589.11 3235.04 1587.19L3238.11 1574.26 3233.46 1574.26 3234.03 1571.85C3235.42 1571.85 3236.47 1571.72 3237.19 1571.46 3237.9 1571.2 3238.5 1570.82 3238.99 1570.3 3239.47 1569.78 3239.95 1569 3240.4 1567.95 3240.86 1566.89 3241.4 1565.28 3242.01 1563.09Z" fill-rule="evenodd"/><text fill="#000000" fill-opacity="0" font-family="Arial,Arial_MSFontService,sans-serif" font-size="37.4697" x="3233.46" y="1595.88">𝒕</text><path d="M2845.5 1490.5 3350.59 1490.5" stroke="#000000" stroke-width="4.58333" stroke-miterlimit="8" fill="none" fill-rule="evenodd"/><path d="M4.58345 22.9166 4.58369 71.1788-4.58297 71.1788-4.58322 22.9167ZM-13.7499 27.5001 0 0 13.7501 27.4999Z" transform="matrix(1 0 0 -1 3094.5 1528.68)"/></g></svg>