<?xml version="1.0" encoding="UTF-8" standalone="no"?>
<svg
   width="1033"
   height="1243"
   xml:space="preserve"
   overflow="hidden"
   version="1.1"
   id="svg7"
   sodipodi:docname="AAIL_framework_33.svg"
   inkscape:version="1.3.2 (091e20e, 2023-11-25, custom)"
   xmlns:inkscape="http://www.inkscape.org/namespaces/inkscape"
   xmlns:sodipodi="http://sodipodi.sourceforge.net/DTD/sodipodi-0.dtd"
   xmlns="http://www.w3.org/2000/svg"
   xmlns:svg="http://www.w3.org/2000/svg"><defs
     id="defs7" /><sodipodi:namedview
     id="namedview7"
     pagecolor="#ffffff"
     bordercolor="#000000"
     borderopacity="0.25"
     inkscape:showpageshadow="2"
     inkscape:pageopacity="0.0"
     inkscape:pagecheckerboard="0"
     inkscape:deskcolor="#d1d1d1"
     inkscape:zoom="0.64843121"
     inkscape:cx="515.86042"
     inkscape:cy="621.5"
     inkscape:window-width="1920"
     inkscape:window-height="1002"
     inkscape:window-x="-8"
     inkscape:window-y="-8"
     inkscape:window-maximized="1"
     inkscape:current-layer="svg7" /><g
     transform="translate(-324 -1166)"
     id="g7"><rect
       x="693.5"
       y="1838.5"
       width="294"
       height="177"
       stroke="#2F528F"
       stroke-width="4.58333"
       stroke-miterlimit="8"
       fill="#4472C4"
       id="rect1" /><g
       id="text1"
       style="font-weight:700;font-size:83px;font-family:Calibri, Calibri_MSFontService, sans-serif;fill:#ffffff"
       transform="translate(740.032,1905)"
       aria-label="Policy&#10;Model"><path
         style="text-align:center;text-anchor:middle"
         d="m 47.031982,-36.515137 q 0,4.417481 -1.377929,7.821778 -1.37793,3.404297 -4.012207,5.754882 -2.634278,2.310059 -6.484375,3.525879 -3.809571,1.215821 -8.997071,1.215821 h -4.376953 v 16.7377926 q 0,0.4052735 -0.283691,0.72949221 -0.243164,0.32421875 -0.851074,0.52685547 Q 20.040771,0 19.027588,0.12158203 q -1.013184,0.12158203 -2.59375,0.12158203 -1.540039,0 -2.59375,-0.12158203 Q 12.826904,0 12.218994,-0.20263672 11.611084,-0.40527344 11.36792,-0.72949219 11.124756,-1.0537109 11.124756,-1.4589844 V -48.632812 q 0,-1.904786 0.972656,-2.836915 1.013184,-0.972656 2.634277,-0.972656 h 12.36084 q 1.864258,0 3.525879,0.16211 1.702149,0.121582 4.052735,0.60791 2.350586,0.445801 4.741699,1.702148 2.43164,1.256348 4.133789,3.20166 1.702148,1.904785 2.59375,4.498535 0.891601,2.553223 0.891601,5.754883 z m -11.145019,0.77002 q 0,-2.75586 -0.972656,-4.539063 -0.972657,-1.783203 -2.391114,-2.634277 -1.418457,-0.851074 -2.999023,-1.053711 -1.540039,-0.243164 -3.20166,-0.243164 h -4.539063 v 17.791504 h 4.782227 q 2.553222,0 4.255371,-0.688965 1.742676,-0.688965 2.836914,-1.904785 1.094238,-1.256348 1.661621,-2.958496 0.567383,-1.742676 0.567383,-3.769043 z m 54.022949,15.927246 q 0,4.620117 -1.21582,8.429687 -1.215821,3.8095707 -3.687988,6.5654301 -2.472168,2.7558594 -6.200684,4.25537109 -3.728516,1.49951172 -8.713379,1.49951172 -4.822754,0 -8.38916,-1.33740235 -3.566406,-1.33740236 -5.916992,-3.89062496 -2.350586,-2.5532227 -3.485352,-6.2817386 -1.134766,-3.728515 -1.134766,-8.510742 0,-4.620117 1.215821,-8.429687 1.256347,-3.850098 3.728515,-6.56543 2.472168,-2.755859 6.160157,-4.255371 3.728515,-1.499512 8.713379,-1.499512 4.863281,0 8.429687,1.337402 3.566406,1.296875 5.876465,3.850098 2.350586,2.553223 3.485351,6.281738 1.134766,3.728516 1.134766,8.55127 z m -10.496582,0.405273 q 0,-2.674804 -0.445801,-4.903808 -0.405273,-2.269531 -1.418457,-3.931153 -1.013183,-1.661621 -2.715332,-2.59375 -1.661621,-0.932128 -4.214844,-0.932128 -2.269531,0 -3.971679,0.851074 -1.702149,0.810547 -2.796387,2.43164 -1.094238,1.580567 -1.661621,3.850098 -0.526855,2.229004 -0.526855,5.106445 0,2.674805 0.4458,4.944336 0.445801,2.229004 1.418457,3.890625 1.013184,1.6616213 2.715332,2.5937502 1.702149,0.8916016 4.214844,0.8916016 2.310059,0 4.012207,-0.8105469 1.702149,-0.8510742 2.796387,-2.4316409 1.094238,-1.580566 1.621094,-3.80957 0.526855,-2.269531 0.526855,-5.146973 z m 28.77441,18.0346683 q 0,0.40527345 -0.24316,0.7294922 -0.24316,0.28369141 -0.85107,0.48632813 -0.56739,0.20263671 -1.54004,0.2836914 -0.97266,0.12158203 -2.47217,0.12158203 -1.49951,0 -2.47217,-0.12158203 -0.972655,-0.08105469 -1.580566,-0.2836914 -0.567382,-0.20263672 -0.810546,-0.48632813 -0.243164,-0.32421875 -0.243164,-0.7294922 V -54.671387 q 0,-0.405273 0.243164,-0.729492 0.243164,-0.324219 0.810546,-0.526855 0.607911,-0.243164 1.580566,-0.364746 0.97266,-0.121582 2.47217,-0.121582 1.49951,0 2.47217,0.121582 0.97265,0.121582 1.54004,0.364746 0.60791,0.202636 0.85107,0.526855 0.24316,0.324219 0.24316,0.729492 z m 20.38526,0 q 0,0.40527345 -0.24317,0.7294922 -0.24316,0.28369141 -0.85107,0.48632813 -0.56738,0.20263671 -1.54004,0.2836914 -0.97266,0.12158203 -2.47217,0.12158203 -1.49951,0 -2.47217,-0.12158203 -0.97265,-0.08105469 -1.58056,-0.2836914 -0.56738,-0.20263672 -0.81055,-0.48632813 -0.24316,-0.32421875 -0.24316,-0.7294922 V -37.447266 q 0,-0.405273 0.24316,-0.688964 0.24317,-0.324219 0.81055,-0.526856 0.60791,-0.243164 1.58056,-0.364746 0.97266,-0.121582 2.47217,-0.121582 1.49951,0 2.47217,0.121582 0.97266,0.121582 1.54004,0.364746 0.60791,0.202637 0.85107,0.526856 0.24317,0.283691 0.24317,0.688964 z m 0.77002,-48.3896483 q 0,3.080078 -1.25635,4.255371 -1.25635,1.175293 -4.66064,1.175293 -3.44483,0 -4.66065,-1.134766 -1.17529,-1.134765 -1.17529,-4.093261 0,-3.080079 1.21582,-4.255371 1.25635,-1.215821 4.70117,-1.215821 3.4043,0 4.62012,1.175293 1.21582,1.134766 1.21582,4.093262 z m 36.7583,42.6347655 q 0,1.0537109 -0.0811,1.7832031 -0.0405,0.6889649 -0.16211,1.175293 -0.0811,0.4863281 -0.24316,0.8105469 -0.12158,0.2836914 -0.60791,0.7700195 -0.48633,0.4458008 -1.66162,1.1347656 -1.17529,0.64843752 -2.67481,1.17529299 -1.49951,0.52685547 -3.28271,0.85107422 -1.74268,0.32421875 -3.60693,0.32421875 -4.17432,0 -7.41651,-1.296875 -3.20166,-1.29687496 -5.39013,-3.80957026 -2.18848,-2.5532227 -3.32325,-6.2006833 -1.09424,-3.647461 -1.09424,-8.348633 0,-5.430664 1.33741,-9.361817 1.37793,-3.971679 3.80957,-6.565429 2.43164,-2.59375 5.75488,-3.850098 3.32324,-1.256348 7.29492,-1.256348 1.6211,0 3.16113,0.283692 1.58057,0.283691 2.91797,0.770019 1.37793,0.486329 2.43164,1.094239 1.09424,0.60791 1.54004,1.053711 0.4458,0.4458 0.60791,0.770019 0.20264,0.283692 0.28369,0.77002 0.12159,0.486328 0.16211,1.21582 0.0811,0.688965 0.0811,1.702148 0,2.350586 -0.40527,3.323243 -0.40528,0.932129 -1.05372,0.932129 -0.68896,0 -1.45898,-0.567383 -0.77002,-0.567383 -1.82373,-1.256348 -1.05371,-0.688965 -2.5127,-1.256348 -1.45898,-0.567382 -3.48535,-0.567382 -3.97168,0 -6.0791,3.080078 -2.10742,3.03955 -2.10742,8.956543 0,2.917968 0.52685,5.146972 0.52686,2.229004 1.54004,3.728516 1.05371,1.4995117 2.59375,2.2695312 1.58057,0.7294922 3.64746,0.7294922 2.10743,0 3.60694,-0.6079102 1.54004,-0.6484375 2.6748,-1.418457 1.13477,-0.7700192 1.90479,-1.3779302 0.77002,-0.648437 1.29687,-0.648437 0.36475,0 0.60791,0.202637 0.24317,0.202636 0.36475,0.770019 0.16211,0.526856 0.24316,1.3779299 0.0811,0.8510743 0.0811,2.1884766 z M 194.42993,0 190.05298,12.806641 q -0.36475,1.013183 -1.98584,1.458984 -1.6211,0.445801 -4.7417,0.445801 -1.62109,0 -2.59375,-0.16211 -0.97266,-0.121582 -1.45898,-0.4458 -0.48633,-0.324219 -0.52686,-0.810547 -0.0405,-0.486328 0.24316,-1.175293 L 183.81177,0 q -0.52686,-0.24316406 -0.97266,-0.72949219 -0.40527,-0.52685551 -0.60791,-1.09423831 L 169.78931,-35.056152 q -0.52686,-1.418457 -0.52686,-2.14795 0,-0.770019 0.48633,-1.175293 0.48633,-0.4458 1.62109,-0.60791 1.1753,-0.162109 3.08008,-0.162109 1.74268,0 2.75586,0.08105 1.01318,0.04053 1.58057,0.283691 0.56738,0.243164 0.85107,0.77002 0.28369,0.486328 0.56738,1.418457 l 8.51075,24.194824 h 0.12158 l 7.78125,-24.681153 q 0.24316,-1.05371 0.60791,-1.377929 0.40527,-0.364746 1.29687,-0.526856 0.8916,-0.162109 3.12061,-0.162109 1.74267,0 2.87744,0.162109 1.17529,0.16211 1.70215,0.60791 0.56738,0.445801 0.56738,1.215821 0,0.729492 -0.32422,1.742676 z"
         id="path8" /><path
         style="text-align:center;text-anchor:middle"
         d="m 61.439453,102.29102 q 0,0.40527 -0.243164,0.72949 -0.202637,0.32422 -0.810547,0.52685 -0.567383,0.20264 -1.540039,0.32422 -0.972656,0.12158 -2.472168,0.12158 -1.458984,0 -2.43164,-0.12158 -0.972657,-0.12158 -1.54004,-0.32422 -0.567382,-0.20263 -0.810546,-0.52685 -0.243164,-0.32422 -0.243164,-0.72949 V 59.615723 H 51.26709 L 36.069336,102.25049 q -0.162109,0.52685 -0.526856,0.8916 -0.364746,0.32422 -1.013183,0.52686 -0.60791,0.20263 -1.580567,0.24316 -0.972656,0.0811 -2.350585,0.0811 -1.37793,0 -2.350586,-0.12158 -0.972657,-0.081 -1.621094,-0.28369 -0.60791,-0.24316 -0.972656,-0.56738 -0.364747,-0.32422 -0.486329,-0.77002 L 10.496582,59.615723 h -0.08105 v 42.675297 q 0,0.40527 -0.243164,0.72949 -0.2026364,0.32422 -0.8105466,0.52685 -0.6079101,0.20264 -1.5805664,0.32422 -0.9321289,0.12158 -2.4316406,0.12158 -1.4589844,0 -2.4316406,-0.12158 Q 1.9453125,103.75 1.3374023,103.54736 0.77001953,103.34473 0.52685547,103.02051 0.32421875,102.69629 0.32421875,102.29102 V 55.562988 q 0,-2.066894 1.09423825,-3.161133 1.0942383,-1.094238 2.9179688,-1.094238 h 6.9707032 q 1.864258,0 3.20166,0.324219 1.337402,0.283691 2.310059,1.013184 0.972656,0.688964 1.621093,1.864257 0.648438,1.134766 1.134766,2.836914 l 11.347656,31.246582 h 0.16211 L 42.837402,57.427246 q 0.526856,-1.702148 1.134766,-2.877441 0.648437,-1.175293 1.458984,-1.904785 0.851075,-0.729493 1.98584,-1.013184 1.134766,-0.324219 2.634278,-0.324219 h 7.173339 q 1.094239,0 1.864258,0.283692 0.810547,0.283691 1.296875,0.851074 0.526856,0.526855 0.77002,1.337402 0.283691,0.77002 0.283691,1.783203 z M 108.81592,83.932129 q 0,4.620117 -1.21582,8.429687 -1.21582,3.809571 -3.68799,6.56543 -2.47217,2.755864 -6.200684,4.255374 -3.728516,1.49951 -8.713379,1.49951 -4.822754,0 -8.38916,-1.3374 -3.566407,-1.33741 -5.916992,-3.890628 -2.350586,-2.553223 -3.485352,-6.281739 -1.134766,-3.728515 -1.134766,-8.510742 0,-4.620117 1.215821,-8.429687 1.256347,-3.850098 3.728515,-6.56543 2.472168,-2.755859 6.160157,-4.255371 3.728515,-1.499512 8.713378,-1.499512 4.863282,0 8.429688,1.337402 3.566404,1.296875 5.876464,3.850098 2.35059,2.553223 3.48535,6.281738 1.13477,3.728516 1.13477,8.55127 z m -10.496584,0.405273 q 0,-2.674804 -0.445801,-4.903808 -0.405273,-2.269532 -1.418457,-3.931153 -1.013183,-1.661621 -2.715332,-2.59375 -1.661621,-0.932129 -4.214844,-0.932129 -2.269531,0 -3.971679,0.851075 -1.702149,0.810547 -2.796387,2.43164 -1.094238,1.580567 -1.661621,3.850098 -0.526856,2.229004 -0.526856,5.106445 0,2.674805 0.445801,4.944336 0.445801,2.229004 1.418457,3.890625 1.013184,1.661621 2.715332,2.59375 1.702149,0.891602 4.214844,0.891602 2.310059,0 4.012207,-0.810547 1.702148,-0.851074 2.796387,-2.431641 1.094238,-1.580566 1.621093,-3.80957 0.526856,-2.269531 0.526856,-5.146973 z m 52.847654,18.034668 q 0,0.4458 -0.20263,0.77002 -0.20264,0.28369 -0.68897,0.48633 -0.48633,0.20263 -1.3374,0.28369 -0.81055,0.0811 -2.02637,0.0811 -1.29687,0 -2.10742,-0.0811 -0.81055,-0.0811 -1.3374,-0.28369 -0.48633,-0.20264 -0.7295,-0.48633 -0.20263,-0.32422 -0.20263,-0.77002 v -4.012207 q -2.79639,2.999027 -5.87647,4.660647 -3.03955,1.66162 -6.76806,1.66162 -4.13379,0 -7.01123,-1.58057 -2.83692,-1.62109 -4.66065,-4.336423 -1.7832,-2.715332 -2.59375,-6.322266 -0.81055,-3.647461 -0.81055,-7.659668 0,-4.822754 1.01319,-8.672851 1.05371,-3.850098 3.03955,-6.56543 1.98584,-2.715332 4.94434,-4.174317 2.95849,-1.458984 6.80859,-1.458984 3.03955,0 5.51172,1.256348 2.47217,1.21582 4.90381,3.606933 V 49.200195 q 0,-0.405273 0.20263,-0.729492 0.24317,-0.324219 0.81055,-0.526855 0.60791,-0.243164 1.58057,-0.364746 0.97265,-0.121582 2.47216,-0.121582 1.49952,0 2.47217,0.121582 0.97266,0.121582 1.54004,0.364746 0.56738,0.202636 0.81055,0.526855 0.24316,0.324219 0.24316,0.729492 z M 141.03516,78.217773 q -2.18848,-2.755859 -4.21485,-4.214843 -1.98584,-1.458985 -4.17431,-1.458985 -1.98584,0 -3.44483,1.013184 -1.41846,0.972656 -2.31006,2.634277 -0.85107,1.661621 -1.29687,3.728516 -0.40528,2.026367 -0.40528,4.174316 0,2.269532 0.36475,4.417481 0.36475,2.147949 1.17529,3.850097 0.85108,1.661621 2.22901,2.674805 1.37793,1.013184 3.48535,1.013184 1.05371,0 2.02637,-0.283692 1.01318,-0.324218 2.02636,-1.013183 1.05371,-0.688965 2.14795,-1.783203 1.09424,-1.134766 2.39112,-2.75586 z m 53.77978,5.025391 q 0,1.864258 -0.85107,2.755859 -0.81055,0.891602 -2.26953,0.891602 h -22.00635 q 0,2.310059 0.52685,4.214844 0.56739,1.864258 1.74268,3.20166 1.21582,1.296875 3.08008,1.98584 1.90478,0.688965 4.53906,0.688965 2.6748,0 4.70117,-0.364747 2.02637,-0.405273 3.48535,-0.851074 1.49952,-0.486328 2.47217,-0.851074 0.97266,-0.405273 1.58057,-0.405273 0.36474,0 0.60791,0.162109 0.24316,0.121582 0.40527,0.486328 0.16211,0.364746 0.20264,1.053711 0.081,0.648438 0.081,1.661621 0,0.891602 -0.0405,1.540039 -0.0405,0.607906 -0.12159,1.053716 -0.0811,0.4458 -0.24316,0.77001 -0.16211,0.2837 -0.4458,0.56739 -0.24317,0.28369 -1.41846,0.77002 -1.17529,0.48633 -2.99902,0.97265 -1.82373,0.4458 -4.17432,0.77002 -2.35058,0.36475 -5.02539,0.36475 -4.82275,0 -8.47021,-1.21582 -3.60694,-1.21582 -6.03858,-3.68799 -2.43164,-2.472168 -3.64746,-6.241211 -1.17529,-3.769043 -1.17529,-8.834961 0,-4.822753 1.25635,-8.672851 1.25634,-3.890625 3.64746,-6.56543 2.39111,-2.715332 5.79541,-4.133789 3.44482,-1.418457 7.74072,-1.418457 4.53906,0 7.74072,1.337402 3.24219,1.337403 5.30908,3.728516 2.0669,2.350586 3.03956,5.592773 0.97265,3.242188 0.97265,7.051758 z m -9.88867,-2.917969 q 0.12158,-4.295898 -1.74268,-6.727539 -1.82373,-2.472168 -5.67382,-2.472168 -1.94532,0 -3.4043,0.729492 -1.41846,0.729493 -2.39111,1.98584 -0.93213,1.215821 -1.45899,2.917969 -0.48633,1.661621 -0.56738,3.566406 z m 28.49072,22.046875 q 0,0.40527 -0.24316,0.72949 -0.24317,0.28369 -0.85108,0.48633 -0.56738,0.20264 -1.54004,0.28369 -0.97265,0.12158 -2.47216,0.12158 -1.49951,0 -2.47217,-0.12158 -0.97266,-0.081 -1.58057,-0.28369 -0.56738,-0.20264 -0.81054,-0.48633 -0.24317,-0.32422 -0.24317,-0.72949 V 49.078613 q 0,-0.405273 0.24317,-0.729492 0.24316,-0.324219 0.81054,-0.526855 0.60791,-0.243164 1.58057,-0.364746 0.97266,-0.121583 2.47217,-0.121583 1.49951,0 2.47216,0.121583 0.97266,0.121582 1.54004,0.364746 0.60791,0.202636 0.85108,0.526855 0.24316,0.324219 0.24316,0.729492 z"
         id="path9" /></g><text
       fill="#ffffff"
       font-family="Calibri, Calibri_MSFontService, sans-serif"
       font-weight="700"
       font-size="83px"
       transform="translate(729.33,2004)"
       id="text2" /><path
       d="M0-6.875 767.155-6.875 767.155 327.709 753.405 327.709 753.405 0 760.28 6.875 0 6.875ZM780.905 320.834 760.28 362.084 739.655 320.834Z"
       transform="matrix(1.83697e-16 1 1 -1.83697e-16 331 1166)"
       id="path2" /><path
       d="M1355.96 1166 1355.96 1933.16 1021.38 1933.16 1021.38 1919.41 1349.09 1919.41 1342.21 1926.28 1342.21 1166ZM1028.25 1946.91 987.001 1926.28 1028.25 1905.66Z"
       id="path3" /><path
       d="M6.875-1.28373e-05 6.8753 158.9-6.8747 158.9-6.875 1.28373e-05ZM20.6253 152.025 0.000360892 193.275-20.6247 152.025Z"
       transform="matrix(-1 0 0 1 840 2015)"
       id="path4" /><path
       d="M838.93 2293.25C834.752 2293.25 831.046 2295.35 827.812 2299.55 824.577 2303.75 821.972 2309.4 819.995 2316.5 818.019 2323.6 817.03 2329.95 817.03 2335.57 817.03 2338.85 817.513 2341.29 818.479 2342.91 819.445 2344.53 820.939 2345.34 822.96 2345.34 825.925 2345.34 828.946 2343.89 832.023 2340.99 835.1 2338.09 837.582 2334.69 839.469 2330.78 841.356 2326.87 843.04 2321.53 844.523 2314.75L845.062 2312.25C845.78 2308.93 846.14 2305.6 846.14 2302.28 846.14 2299.31 845.578 2297.07 844.455 2295.54 843.332 2294.01 841.49 2293.25 838.93 2293.25ZM838.121 2286.24C844.815 2286.24 850.52 2287.86 855.237 2291.09L861.773 2286.24 869.32 2287.32 858.404 2333.14C857.73 2335.97 857.393 2338.53 857.393 2340.82 857.393 2342.31 857.64 2343.45 858.134 2344.26 858.628 2345.07 859.482 2345.47 860.695 2345.47 862.087 2345.47 863.592 2344.84 865.209 2343.59 866.826 2342.33 868.713 2340.46 870.869 2337.99L875.721 2342.84C871.004 2347.56 866.939 2350.81 863.525 2352.58 860.111 2354.36 856.517 2355.24 852.743 2355.24 848.97 2355.24 845.983 2354.2 843.781 2352.11 841.58 2350.02 840.48 2347.27 840.48 2343.85 840.48 2342.73 840.614 2341.65 840.884 2340.62L839.941 2340.49C836.661 2344.35 833.842 2347.26 831.484 2349.21 829.126 2351.17 826.621 2352.66 823.971 2353.69 821.32 2354.73 818.378 2355.24 815.144 2355.24 809.753 2355.24 805.665 2353.41 802.88 2349.75 800.095 2346.09 798.702 2340.76 798.702 2333.75 798.702 2327.68 799.578 2321.66 801.33 2315.69 803.082 2309.71 805.598 2304.56 808.877 2300.22 812.156 2295.89 816.278 2292.48 821.242 2289.98 826.206 2287.49 831.832 2286.24 838.121 2286.24Z"
       fill-rule="evenodd"
       id="path5" /><text
       fill="#000000"
       fill-opacity="0"
       font-family="Arial,Arial_MSFontService,sans-serif"
       font-size="69"
       x="798.702"
       y="2346.62"
       id="text5">𝒂</text><path
       d="M829.503 2254.44 838.532 2254.44 873.571 2275.67 870.808 2279.91 834.759 2263.13 834.017 2263.13 798.035 2279.91 795.34 2275.67Z"
       fill-rule="evenodd"
       id="path6" /><text
       fill="#000000"
       fill-opacity="0"
       font-family="Arial,Arial_MSFontService,sans-serif"
       font-size="25.4707"
       x="795.34"
       y="2276.73"
       id="text6">ෝ</text><path
       d="M896.916 2320.99 908.752 2320.99 905.891 2333.32 917.875 2333.32 916.544 2339.48 904.461 2339.48 899.677 2359.21C898.855 2362.59 898.288 2365.17 897.976 2366.92 897.664 2368.68 897.507 2370.17 897.507 2371.39 897.507 2372.93 897.787 2374.06 898.346 2374.77 898.905 2375.47 899.727 2375.83 900.812 2375.83 902.291 2375.83 903.812 2375.3 905.373 2374.25 906.935 2373.2 908.62 2371.57 910.428 2369.37L914.226 2373.26C910.905 2376.91 907.856 2379.45 905.077 2380.88 902.299 2382.31 899.02 2383.03 895.239 2383.03 891.491 2383.03 888.614 2382.06 886.608 2380.14 884.603 2378.22 883.6 2375.56 883.6 2372.18 883.6 2370.63 883.715 2369.16 883.945 2367.76 884.176 2366.37 884.652 2364.07 885.376 2360.88L890.455 2339.48 882.762 2339.48 883.699 2335.49C886 2335.49 887.743 2335.27 888.926 2334.84 890.11 2334.42 891.104 2333.78 891.91 2332.92 892.715 2332.07 893.496 2330.77 894.253 2329.03 895.009 2327.28 895.896 2324.6 896.916 2320.99Z"
       fill-rule="evenodd"
       id="path7" /><text
       fill="#000000"
       fill-opacity="0"
       font-family="Arial,Arial_MSFontService,sans-serif"
       font-size="62.04"
       x="882.762"
       y="2375.27"
       id="text7">𝒕</text></g></svg>
