<?xml version="1.0" encoding="UTF-8" standalone="no"?>
<svg
   width="2629"
   height="192"
   xml:space="preserve"
   overflow="hidden"
   version="1.1"
   id="svg6"
   sodipodi:docname="AAIL_framework_5.svg"
   inkscape:version="1.3.2 (091e20e, 2023-11-25, custom)"
   xmlns:inkscape="http://www.inkscape.org/namespaces/inkscape"
   xmlns:sodipodi="http://sodipodi.sourceforge.net/DTD/sodipodi-0.dtd"
   xmlns="http://www.w3.org/2000/svg"
   xmlns:svg="http://www.w3.org/2000/svg"><defs
     id="defs6" /><sodipodi:namedview
     id="namedview6"
     pagecolor="#ffffff"
     bordercolor="#000000"
     borderopacity="0.25"
     inkscape:showpageshadow="2"
     inkscape:pageopacity="0.0"
     inkscape:pagecheckerboard="0"
     inkscape:deskcolor="#d1d1d1"
     inkscape:zoom="0.53366299"
     inkscape:cx="1314.5"
     inkscape:cy="95.56593"
     inkscape:window-width="1920"
     inkscape:window-height="1002"
     inkscape:window-x="-8"
     inkscape:window-y="-8"
     inkscape:window-maximized="1"
     inkscape:current-layer="svg6" /><g
     transform="translate(-693 -2220)"
     id="g6"><rect
       x="1538.5"
       y="2246.5"
       width="1779"
       height="134"
       stroke="#FF6599"
       stroke-width="9.16667"
       stroke-linejoin="round"
       stroke-miterlimit="10"
       fill="none"
       id="rect1" /><path
       d="m 50.902344,-26.829102 q 0,6.362793 -1.499512,11.469239 -1.499512,5.106445 -4.498535,8.7133786 -2.958496,3.5664063 -7.457031,5.5117188 -4.498536,1.90478513 -10.496582,1.90478513 -5.916993,0 -10.253418,-1.74267578 Q 12.401367,-2.7558594 9.5644531,-6.1196289 6.7680664,-9.4833984 5.3901367,-14.468262 4.012207,-19.453125 4.012207,-25.9375 q 0,-6.200684 1.4995117,-11.266602 1.4995118,-5.065918 4.4985353,-8.591796 2.999023,-3.566407 7.497558,-5.471192 4.498536,-1.945312 10.496583,-1.945312 5.79541,0 10.091308,1.742675 4.295899,1.742676 7.132813,5.106446 2.877441,3.323242 4.255371,8.267578 1.418457,4.903808 1.418457,11.266601 z m -7.335449,0.486329 q 0,-4.458008 -0.810547,-8.267579 -0.77002,-3.850097 -2.634278,-6.646484 -1.82373,-2.836914 -4.903808,-4.41748 -3.080078,-1.580567 -7.619141,-1.580567 -4.539062,0 -7.619141,1.702149 -3.080078,1.702148 -5.02539,4.539062 -1.904785,2.836914 -2.75586,6.646485 -0.810546,3.769042 -0.810546,7.943359 0,4.620117 0.770019,8.510742 0.77002,3.890625 2.59375,6.727539 1.823731,2.7963868 4.863281,4.3769533 3.080078,1.540039 7.700196,1.540039 4.57959,0 7.700195,-1.7021484 3.120605,-1.7021485 5.025391,-4.5795899 1.904785,-2.917969 2.715332,-6.727539 0.810547,-3.80957 0.810547,-8.064941 z m 51.145507,6.524902 q 0,4.782226 -1.053711,8.591797 -1.013183,3.8095701 -3.03955,6.4843748 -1.98584,2.6342773 -4.944336,4.0932617 -2.958496,1.41845703 -6.768067,1.41845703 -1.621093,0 -2.999023,-0.32421875 -1.37793,-0.32421875 -2.715332,-1.01318359 -1.296875,-0.68896489 -2.59375,-1.74267579 -1.296875,-1.0537109 -2.75586,-2.472168 V 13.455078 q 0,0.324219 -0.162109,0.567383 -0.162109,0.243164 -0.526855,0.405273 -0.364747,0.16211 -1.013184,0.243164 -0.648438,0.08106 -1.661621,0.08106 -0.972656,0 -1.621094,-0.08106 -0.648437,-0.08105 -1.053711,-0.243164 -0.364746,-0.162109 -0.526855,-0.405273 -0.121582,-0.243164 -0.121582,-0.567383 v -50.942871 q 0,-0.364746 0.121582,-0.567383 0.121582,-0.243164 0.486328,-0.405273 0.364746,-0.16211 0.932129,-0.202637 0.567383,-0.08105 1.377929,-0.08105 0.851075,0 1.37793,0.08105 0.567383,0.04053 0.932129,0.202637 0.364746,0.162109 0.486328,0.405273 0.16211,0.202637 0.16211,0.567383 v 4.903809 q 1.661621,-1.702149 3.20166,-2.958496 1.540039,-1.256348 3.080078,-2.066895 1.580566,-0.851074 3.20166,-1.256348 1.661621,-0.4458 3.485352,-0.4458 3.971679,0 6.768066,1.540039 2.796387,1.540039 4.539062,4.214843 1.783204,2.674805 2.59375,6.241211 0.810547,3.525879 0.810547,7.497559 z m -7.051757,0.770019 q 0,-2.796386 -0.445801,-5.390136 -0.405274,-2.634278 -1.458985,-4.660645 Q 84.742676,-31.125 83,-32.34082 q -1.742676,-1.215821 -4.336426,-1.215821 -1.296875,0 -2.553222,0.405274 -1.256348,0.364746 -2.553223,1.21582 -1.296875,0.810547 -2.715332,2.188477 -1.418457,1.337402 -2.999024,3.323242 v 14.508789 q 2.75586,3.3637695 5.228028,5.1469726 2.472168,1.7832031 5.1875,1.7832031 2.512695,0 4.295898,-1.2158203 1.823731,-1.2158203 2.917969,-3.2421875 1.134766,-2.0263669 1.661621,-4.5390629 0.526856,-2.512695 0.526856,-5.065918 z m 48.470705,-19.493652 q 1.21582,0 1.66162,0.567383 0.4458,0.526855 0.4458,1.580566 v 35.3803714 q 0,0.32421876 -0.16211,0.56738282 -0.16211,0.20263672 -0.56738,0.36474609 -0.36475,0.16210938 -1.01319,0.24316406 -0.64843,0.0810547 -1.58056,0.0810547 -1.01319,0 -1.66162,-0.0810547 -0.64844,-0.08105468 -1.05371,-0.24316406 -0.36475,-0.16210937 -0.52686,-0.36474609 -0.16211,-0.24316406 -0.16211,-0.56738282 V -32.989258 h -18.84521 v 20.344727 q 0,3.7690427 1.09423,5.7143552 1.13477,1.9047852 4.01221,1.9047852 0.93213,0 1.66162,-0.1621094 0.72949,-0.2026367 1.29688,-0.4052734 0.56738,-0.2026368 0.97265,-0.3647461 0.40528,-0.2026367 0.7295,-0.2026367 0.20263,0 0.36474,0.121582 0.20264,0.081055 0.28369,0.3647461 0.12159,0.2836914 0.20264,0.7700195 0.081,0.4863281 0.081,1.2158203 0,1.175293 -0.1621,1.8642578 -0.16211,0.6484375 -0.48633,1.01318362 -0.32422,0.32421875 -0.97266,0.60791016 -0.64844,0.28369141 -1.49951,0.44580078 -0.81055,0.20263672 -1.74268,0.32421875 -0.93213,0.12158203 -1.86425,0.12158203 -2.83692,0 -4.86329,-0.72949218 -2.02636,-0.77001954 -3.32324,-2.26953126 -1.29687,-1.5400391 -1.90478,-3.8500976 -0.56739,-2.350586 -0.56739,-5.5117188 v -21.317383 h -5.10644 q -0.60791,0 -0.972658,-0.648437 -0.364746,-0.648438 -0.364746,-2.107422 0,-0.77002 0.08106,-1.296875 0.121582,-0.526856 0.283691,-0.851074 0.162108,-0.364746 0.405278,-0.486329 0.28369,-0.162109 0.60791,-0.162109 h 5.06591 v -8.672851 q 0,-0.283692 0.12159,-0.526856 0.16211,-0.243164 0.52685,-0.405273 0.40527,-0.202637 1.05371,-0.283692 0.64844,-0.08105 1.6211,-0.08105 1.01318,0 1.66162,0.08105 0.64843,0.08106 1.01318,0.283692 0.36475,0.162109 0.52686,0.405273 0.16211,0.243164 0.16211,0.526856 v 8.672851 z m 2.87744,-11.266601 q 0,2.350585 -0.8916,3.20166 -0.8916,0.851074 -3.28272,0.851074 -2.35058,0 -3.24218,-0.810547 -0.85108,-0.851074 -0.85108,-3.161133 0,-2.350586 0.8916,-3.20166 0.8916,-0.851074 3.28272,-0.851074 2.35058,0 3.20166,0.851074 0.8916,0.810547 0.8916,3.120606 z m -13.65772,11.266601 z m 79.39307,37.5283204 q 0,0.32421876 -0.16211,0.56738282 -0.16211,0.20263672 -0.52685,0.36474609 -0.36475,0.16210938 -1.01319,0.24316406 -0.64844,0.0810547 -1.62109,0.0810547 -1.01319,0 -1.66162,-0.0810547 -0.64844,-0.08105468 -1.05371,-0.24316406 -0.36475,-0.16210937 -0.52686,-0.36474609 -0.16211,-0.24316406 -0.16211,-0.56738282 V -23.181641 q 0,-2.310058 -0.40527,-4.214843 -0.40528,-1.904786 -1.29688,-3.282715 -0.8916,-1.37793 -2.26953,-2.107422 -1.37793,-0.729492 -3.24219,-0.729492 -2.31005,0 -4.66064,1.783203 -2.31006,1.783203 -5.10645,5.228027 v 25.4916994 q 0,0.32421876 -0.1621,0.56738282 -0.16211,0.20263672 -0.56739,0.36474609 -0.36474,0.16210938 -1.01318,0.24316406 -0.64844,0.0810547 -1.6211,0.0810547 -0.93212,0 -1.62109,-0.0810547 -0.64844,-0.08105468 -1.05371,-0.24316406 -0.36475,-0.16210937 -0.52686,-0.36474609 -0.12158,-0.24316406 -0.12158,-0.56738282 V -23.181641 q 0,-2.310058 -0.4458,-4.214843 -0.4458,-1.904786 -1.3374,-3.282715 -0.8916,-1.37793 -2.26953,-2.107422 -1.3374,-0.729492 -3.20166,-0.729492 -2.31006,0 -4.66065,1.783203 -2.35058,1.783203 -5.10644,5.228027 v 25.4916994 q 0,0.32421876 -0.16211,0.56738282 -0.16211,0.20263672 -0.52686,0.36474609 -0.36474,0.16210938 -1.01318,0.24316406 -0.64844,0.0810547 -1.66162,0.0810547 -0.97266,0 -1.62109,-0.0810547 -0.64844,-0.08105468 -1.05372,-0.24316406 -0.36474,-0.16210937 -0.52685,-0.36474609 -0.12158,-0.24316406 -0.12158,-0.56738282 V -37.487793 q 0,-0.324219 0.12158,-0.526855 0.12158,-0.243164 0.48633,-0.405274 0.36474,-0.202637 0.93213,-0.243164 0.56738,-0.08105 1.49951,-0.08105 0.8916,0 1.45898,0.08105 0.60791,0.04053 0.93213,0.243164 0.32422,0.16211 0.4458,0.405274 0.16211,0.202636 0.16211,0.526855 v 4.822754 q 3.08008,-3.444824 5.95752,-5.025391 2.91797,-1.621093 5.87647,-1.621093 2.26953,0 4.05273,0.526855 1.82373,0.526856 3.20166,1.499512 1.37793,0.932129 2.35059,2.269531 0.97265,1.296875 1.62109,2.917969 1.82373,-1.98584 3.44482,-3.36377 1.66162,-1.377929 3.16114,-2.229004 1.54004,-0.851074 2.95849,-1.21582 1.45899,-0.405273 2.91797,-0.405273 3.52588,0 5.91699,1.256347 2.39112,1.215821 3.8501,3.282715 1.49951,2.066895 2.10742,4.863281 0.64844,2.75586 0.64844,5.835938 z m 18.88574,0 q 0,0.32421876 -0.16211,0.56738282 -0.16211,0.20263672 -0.52685,0.36474609 -0.36475,0.16210938 -1.01319,0.24316406 -0.64843,0.0810547 -1.66162,0.0810547 -0.97265,0 -1.62109,-0.0810547 -0.64844,-0.08105468 -1.05371,-0.24316406 -0.36475,-0.16210937 -0.52686,-0.36474609 -0.12158,-0.24316406 -0.12158,-0.56738282 V -37.487793 q 0,-0.283691 0.12158,-0.526855 0.16211,-0.243164 0.52686,-0.405274 0.40527,-0.162109 1.05371,-0.243164 0.64844,-0.08105 1.62109,-0.08105 1.01319,0 1.66162,0.08105 0.64844,0.08105 1.01319,0.243164 0.36474,0.16211 0.52685,0.405274 0.16211,0.243164 0.16211,0.526855 z m 0.77002,-48.7949214 q 0,2.350585 -0.8916,3.20166 -0.8916,0.851074 -3.28271,0.851074 -2.35059,0 -3.24219,-0.810547 -0.85108,-0.851074 -0.85108,-3.161133 0,-2.350586 0.89161,-3.20166 0.8916,-0.851074 3.28271,-0.851074 2.35059,0 3.20166,0.851074 0.8916,0.810547 0.8916,3.120606 z m 34.85352,46.9711909 q 0,0.7700196 -0.12158,1.3374024 -0.12159,0.52685545 -0.2837,0.89160154 -0.1621,0.32421875 -0.4458,0.48632813 Q 258.11865,0 257.79443,0 h -22.45214 q -0.85108,0 -1.41846,-0.56738281 -0.52686,-0.56738279 -0.52686,-1.90478519 v -1.3779297 q 0,-0.5673828 0.0811,-1.0131835 0.0811,-0.4458008 0.24316,-0.8916016 0.16211,-0.4458008 0.4458,-0.9321289 0.28369,-0.5268555 0.68897,-1.175293 l 16.08935,-25.0458983 h -15.60302 q -0.64844,0 -1.05372,-0.648438 -0.36474,-0.688964 -0.36474,-2.188476 0,-0.729492 0.0811,-1.256348 0.0811,-0.567383 0.24317,-0.891601 0.20263,-0.364746 0.4458,-0.486329 0.28369,-0.162109 0.64844,-0.162109 h 20.9121 q 0.44581,0 0.77002,0.121582 0.36475,0.121582 0.60791,0.405274 0.24317,0.283691 0.36475,0.729492 0.16211,0.445801 0.16211,1.134765 v 1.296875 q 0,0.567383 -0.0811,1.053711 -0.0811,0.486328 -0.24316,0.972657 -0.16211,0.4458 -0.4458,0.972656 -0.28369,0.526855 -0.68896,1.175293 l -16.00831,25.0458982 h 17.10254 q 0.32422,0 0.56739,0.1621094 0.28369,0.121582 0.4458,0.4458008 0.20263,0.3242187 0.32422,0.8916015 0.12158,0.5268555 0.12158,1.296875 z m 38.78467,-17.9941409 q 0,1.580567 -0.81055,2.269532 -0.77002,0.648437 -1.7832,0.648437 H 271.5332 q 0,3.039551 0.60791,5.471191 0.60791,2.431641 2.02637,4.1743169 1.41846,1.7426758 3.68799,2.6748047 2.26953,0.9321289 5.55224,0.9321289 2.59375,0 4.62012,-0.4052735 2.02637,-0.4458007 3.48535,-0.9726562 1.49952,-0.5268555 2.43164,-0.9321289 0.97266,-0.4458008 1.45899,-0.4458008 0.28369,0 0.48633,0.1621094 0.24316,0.121582 0.36474,0.4052734 0.12158,0.2836914 0.16211,0.8105469 0.0811,0.4863281 0.0811,1.2158203 0,0.5268555 -0.0405,0.9321289 -0.0405,0.3647461 -0.12158,0.6889648 -0.0405,0.2836914 -0.20264,0.5268555 -0.12158,0.2431641 -0.36475,0.4863281 -0.20263,0.2026368 -1.29687,0.7294922 -1.09424,0.48632815 -2.83691,0.97265627 Q 289.89209,0 287.58203,0.36474609 q -2.26953,0.40527344 -4.86328,0.40527344 -4.49854,0 -7.90283,-1.25634766 -3.36377,-1.25634767 -5.67383,-3.72851557 -2.31006,-2.472168 -3.48535,-6.2006833 -1.17529,-3.728516 -1.17529,-8.672852 0,-4.701172 1.21582,-8.429687 1.21582,-3.769043 3.48535,-6.362793 2.31006,-2.634278 5.55224,-4.012207 3.24219,-1.418457 7.2544,-1.418457 4.2959,0 7.29492,1.377929 3.03955,1.37793 4.98486,3.728516 1.94532,2.310058 2.83692,5.471191 0.93213,3.120606 0.93213,6.687012 z m -6.72754,-1.98584 q 0.12158,-5.268554 -2.35059,-8.267578 -2.43164,-2.999023 -7.25439,-2.999023 -2.47217,0 -4.33643,0.932129 -1.86426,0.932129 -3.1206,2.472168 -1.25635,1.540039 -1.94532,3.606933 -0.68896,2.026368 -0.77002,4.255371 z m 42.35107,21.8037114 q 0,0.32421876 -0.16211,0.56738282 -0.16211,0.20263672 -0.52685,0.36474609 -0.36475,0.16210938 -1.01319,0.24316406 -0.64843,0.0810547 -1.66162,0.0810547 -0.97265,0 -1.62109,-0.0810547 -0.64844,-0.08105468 -1.05371,-0.24316406 -0.36475,-0.16210937 -0.52686,-0.36474609 -0.12158,-0.24316406 -0.12158,-0.56738282 V -37.487793 q 0,-0.283691 0.12158,-0.526855 0.16211,-0.243164 0.52686,-0.405274 0.40527,-0.162109 1.05371,-0.243164 0.64844,-0.08105 1.62109,-0.08105 1.01319,0 1.66162,0.08105 0.64844,0.08105 1.01319,0.243164 0.36474,0.16211 0.52685,0.405274 0.16211,0.243164 0.16211,0.526855 z m 0.77002,-48.7949214 q 0,2.350585 -0.8916,3.20166 -0.8916,0.851074 -3.28272,0.851074 -2.35058,0 -3.24218,-0.810547 -0.85108,-0.851074 -0.85108,-3.161133 0,-2.350586 0.8916,-3.20166 0.89161,-0.851074 3.28272,-0.851074 2.35058,0 3.20166,0.851074 0.8916,0.810547 0.8916,3.120606 z m 30.55762,46.1201167 q 0,1.175293 -0.16211,1.8642578 -0.16211,0.6889649 -0.48633,1.01318362 -0.32422,0.32421875 -0.97266,0.60791016 -0.64843,0.28369141 -1.49951,0.44580078 -0.81054,0.20263672 -1.74267,0.32421875 -0.93213,0.12158203 -1.86426,0.12158203 -2.83692,0 -4.86328,-0.72949218 -2.02637,-0.77001954 -3.32324,-2.26953126 -1.29688,-1.5400391 -1.90479,-3.8500976 -0.56738,-2.350586 -0.56738,-5.5117188 v -21.317383 h -5.10645 q -0.60791,0 -0.97265,-0.648437 -0.36475,-0.648438 -0.36475,-2.107422 0,-0.77002 0.0811,-1.296875 0.12159,-0.526856 0.2837,-0.851074 0.16211,-0.364746 0.40527,-0.486329 0.28369,-0.162109 0.60791,-0.162109 h 5.06592 v -8.672851 q 0,-0.283692 0.12158,-0.526856 0.16211,-0.243164 0.52685,-0.405273 0.40528,-0.202637 1.05372,-0.283692 0.64843,-0.08105 1.62109,-0.08105 1.01318,0 1.66162,0.08105 0.64844,0.08106 1.01318,0.283692 0.36475,0.162109 0.52686,0.405273 0.16211,0.243164 0.16211,0.526856 v 8.672851 h 9.36182 q 0.32421,0 0.56738,0.162109 0.24316,0.121583 0.40527,0.486329 0.20264,0.324218 0.28369,0.851074 0.0811,0.526855 0.0811,1.296875 0,1.458984 -0.36475,2.107422 -0.36474,0.648437 -0.97265,0.648437 h -9.36182 v 20.344727 q 0,3.7690427 1.09424,5.7143552 1.13476,1.9047852 4.0122,1.9047852 0.93213,0 1.66163,-0.1621094 0.72949,-0.2026367 1.29687,-0.4052734 0.56738,-0.2026368 0.97266,-0.3647461 0.40527,-0.2026367 0.72949,-0.2026367 0.20264,0 0.36474,0.121582 0.20264,0.081055 0.2837,0.3647461 0.12158,0.2836914 0.20263,0.7700195 0.0811,0.4863281 0.0811,1.2158203 z M 443.6123,-37.568848 q 0,0.283692 -0.0811,0.688965 -0.0811,0.405274 -0.28369,1.013184 l -10.73975,34.6508787 q -0.12158,0.44580077 -0.40527,0.72949217 -0.24317,0.28369141 -0.72949,0.44580079 -0.4458,0.16210937 -1.25635,0.20263671 -0.81055,0.0810547 -2.02637,0.0810547 -1.25635,0 -2.10742,-0.0810547 -0.85107,-0.08105468 -1.37793,-0.24316406 -0.48633,-0.16210937 -0.72949,-0.44580078 -0.24317,-0.28369141 -0.36475,-0.68896483 l -7.65967,-26.4643557 -0.0811,-0.364746 -0.0811,0.364746 -7.09228,26.4643557 q -0.12158,0.44580077 -0.40527,0.72949217 -0.24317,0.28369141 -0.77002,0.44580079 -0.52686,0.16210937 -1.37793,0.20263671 -0.81055,0.0810547 -2.02637,0.0810547 -1.25635,0 -2.06689,-0.0810547 -0.77002,-0.08105468 -1.29688,-0.24316406 -0.48633,-0.16210937 -0.72949,-0.44580078 -0.24317,-0.28369141 -0.36475,-0.68896483 L 388.90039,-35.866699 q -0.20264,-0.60791 -0.28369,-1.013184 -0.0811,-0.405273 -0.0811,-0.688965 0,-0.364746 0.16211,-0.567382 0.16211,-0.243165 0.52686,-0.364747 0.40527,-0.162109 1.05371,-0.202636 0.64844,-0.04053 1.58057,-0.04053 1.13476,0 1.82373,0.08105 0.68896,0.04053 1.05371,0.202637 0.36474,0.121582 0.52685,0.405273 0.16211,0.243164 0.28369,0.60791 l 8.79444,30.0712894 0.0811,0.3647461 0.0811,-0.3647461 8.06494,-30.0712894 q 0.0811,-0.364746 0.24316,-0.60791 0.20264,-0.283691 0.56739,-0.405273 0.36474,-0.16211 0.97265,-0.202637 0.64844,-0.08105 1.66162,-0.08105 0.97266,0 1.58057,0.08105 0.64844,0.04053 1.01318,0.202637 0.36475,0.121582 0.52686,0.364746 0.16211,0.243164 0.24316,0.567383 l 8.71338,30.1523434 0.0811,0.3647461 0.0405,-0.3647461 8.67286,-30.0712894 q 0.0811,-0.364746 0.24316,-0.60791 0.20264,-0.283691 0.56738,-0.405273 0.40528,-0.16211 1.05371,-0.202637 0.68897,-0.08105 1.74268,-0.08105 0.97266,0 1.54004,0.04053 0.60791,0.04053 0.93213,0.202636 0.36474,0.16211 0.48633,0.364747 0.1621,0.202636 0.1621,0.567382 z m 14.99512,36.5556644 q 0,0.32421876 -0.16211,0.56738282 -0.16211,0.20263672 -0.52685,0.36474609 -0.36475,0.16210938 -1.01319,0.24316406 -0.64843,0.0810547 -1.66162,0.0810547 -0.97265,0 -1.62109,-0.0810547 -0.64844,-0.08105468 -1.05371,-0.24316406 -0.36475,-0.16210937 -0.52686,-0.36474609 -0.12158,-0.24316406 -0.12158,-0.56738282 V -37.487793 q 0,-0.283691 0.12158,-0.526855 0.16211,-0.243164 0.52686,-0.405274 0.40527,-0.162109 1.05371,-0.243164 0.64844,-0.08105 1.62109,-0.08105 1.01319,0 1.66162,0.08105 0.64844,0.08105 1.01319,0.243164 0.36474,0.16211 0.52685,0.405274 0.16211,0.243164 0.16211,0.526855 z m 0.77002,-48.7949214 q 0,2.350585 -0.8916,3.20166 -0.8916,0.851074 -3.28272,0.851074 -2.35058,0 -3.24218,-0.810547 -0.85108,-0.851074 -0.85108,-3.161133 0,-2.350586 0.8916,-3.20166 0.89161,-0.851074 3.28272,-0.851074 2.35059,0 3.20166,0.851074 0.8916,0.810547 0.8916,3.120606 z m 30.55762,46.1201167 q 0,1.175293 -0.16211,1.8642578 -0.16211,0.6889649 -0.48633,1.01318362 -0.32422,0.32421875 -0.97266,0.60791016 -0.64843,0.28369141 -1.49951,0.44580078 -0.81054,0.20263672 -1.74267,0.32421875 -0.93213,0.12158203 -1.86426,0.12158203 -2.83691,0 -4.86328,-0.72949218 -2.02637,-0.77001954 -3.32324,-2.26953126 -1.29688,-1.5400391 -1.90479,-3.8500976 -0.56738,-2.350586 -0.56738,-5.5117188 v -21.317383 h -5.10645 q -0.60791,0 -0.97265,-0.648437 -0.36475,-0.648438 -0.36475,-2.107422 0,-0.77002 0.0811,-1.296875 0.12158,-0.526856 0.28369,-0.851074 0.16211,-0.364746 0.40527,-0.486329 0.28369,-0.162109 0.60791,-0.162109 h 5.06592 v -8.672851 q 0,-0.283692 0.12158,-0.526856 0.16211,-0.243164 0.52686,-0.405273 0.40527,-0.202637 1.05371,-0.283692 0.64843,-0.08105 1.62109,-0.08105 1.01318,0 1.66162,0.08105 0.64844,0.08106 1.01318,0.283692 0.36475,0.162109 0.52686,0.405273 0.16211,0.243164 0.16211,0.526856 v 8.672851 h 9.36182 q 0.32421,0 0.56738,0.162109 0.24316,0.121583 0.40527,0.486329 0.20264,0.324218 0.28369,0.851074 0.0811,0.526855 0.0811,1.296875 0,1.458984 -0.36475,2.107422 -0.36474,0.648437 -0.97265,0.648437 h -9.36182 v 20.344727 q 0,3.7690427 1.09424,5.7143552 1.13476,1.9047852 4.01221,1.9047852 0.93212,0 1.66162,-0.1621094 0.72949,-0.2026367 1.29687,-0.4052734 0.56738,-0.2026368 0.97266,-0.3647461 0.40527,-0.2026367 0.72949,-0.2026367 0.20264,0 0.36475,0.121582 0.20263,0.081055 0.28369,0.3647461 0.12158,0.2836914 0.20263,0.7700195 0.0811,0.4863281 0.0811,1.2158203 z m 40.24365,2.6748047 q 0,0.32421876 -0.16211,0.56738282 -0.16211,0.20263672 -0.52685,0.36474609 -0.36475,0.16210938 -1.01319,0.24316406 -0.64844,0.0810547 -1.62109,0.0810547 -1.01318,0 -1.66162,-0.0810547 -0.64844,-0.08105468 -1.01319,-0.24316406 -0.36474,-0.16210937 -0.52685,-0.36474609 -0.16211,-0.24316406 -0.16211,-0.56738282 V -22.371094 q 0,-3.120605 -0.48633,-5.02539 -0.48633,-1.904786 -1.41846,-3.282715 -0.93212,-1.37793 -2.43164,-2.107422 -1.45898,-0.729492 -3.40429,-0.729492 -2.5127,0 -5.02539,1.783203 -2.5127,1.783203 -5.26856,5.228027 v 25.4916994 q 0,0.32421876 -0.16211,0.56738282 -0.16211,0.20263672 -0.52685,0.36474609 -0.36475,0.16210938 -1.01319,0.24316406 -0.64843,0.0810547 -1.66162,0.0810547 -0.97265,0 -1.62109,-0.0810547 -0.64844,-0.08105468 -1.05371,-0.24316406 -0.36475,-0.16210937 -0.52686,-0.36474609 -0.12158,-0.24316406 -0.12158,-0.56738282 V -55.157715 q 0,-0.324219 0.12158,-0.567383 0.16211,-0.243164 0.52686,-0.405273 0.40527,-0.162109 1.05371,-0.243164 0.64844,-0.08106 1.62109,-0.08106 1.01319,0 1.66162,0.08106 0.64844,0.08105 1.01319,0.243164 0.36474,0.162109 0.52685,0.405273 0.16211,0.243164 0.16211,0.567383 v 21.844238 q 2.87744,-3.03955 5.79541,-4.498535 2.91797,-1.499511 5.87647,-1.499511 3.64746,0 6.11963,1.256347 2.51269,1.215821 4.05273,3.282715 1.54004,2.066895 2.18848,4.863281 0.68896,2.75586 0.68896,6.687012 z m 58.44043,0.0405274 q 0,0.48632812 -0.32422,0.72949219 Q 587.9707,0 587.40332,0.12158203 q -0.56738,0.12158203 -1.66162,0.12158203 -1.05371,0 -1.70215,-0.12158203 Q 583.43164,0 583.14795,-0.24316406 582.86426,-0.48632813 582.86426,-0.97265625 V -4.6201172 q -2.39112,2.5532227 -5.34961,3.9716797 -2.91797,1.41845703 -6.20069,1.41845703 -2.87744,0 -5.22802,-0.77001953 -2.31006,-0.72949219 -3.97168,-2.1479492 -1.6211,-1.4184571 -2.55322,-3.4853516 -0.89161,-2.0668945 -0.89161,-4.7011722 0,-3.080078 1.25635,-5.349609 1.25635,-2.269531 3.60693,-3.769043 2.35059,-1.499512 5.75489,-2.229004 3.40429,-0.770019 7.65967,-0.770019 h 5.02539 v -2.836914 q 0,-2.107422 -0.4458,-3.728516 -0.44581,-1.621094 -1.45899,-2.674805 -0.97266,-1.094238 -2.55322,-1.621094 -1.58057,-0.567382 -3.89063,-0.567382 -2.47216,0 -4.458,0.60791 -1.94532,0.567383 -3.44483,1.296875 -1.45898,0.688965 -2.47217,1.296875 -0.97265,0.567383 -1.45898,0.567383 -0.32422,0 -0.56738,-0.16211 -0.24317,-0.162109 -0.4458,-0.486328 -0.16211,-0.324219 -0.24317,-0.810547 -0.0811,-0.526855 -0.0811,-1.134765 0,-1.013184 0.12158,-1.580567 0.16211,-0.60791 0.68896,-1.134765 0.56739,-0.526856 1.90479,-1.215821 1.3374,-0.729492 3.08008,-1.296875 1.74267,-0.60791 3.80957,-0.972656 2.06689,-0.405273 4.17431,-0.405273 3.93116,0 6.68702,0.891601 2.75585,0.891602 4.458,2.634277 1.70215,1.702149 2.47217,4.255372 0.77002,2.553222 0.77002,5.957519 z M 581.97266,-17.629395 h -5.71436 q -2.75586,0 -4.78223,0.486329 -2.02636,0.4458 -3.36377,1.377929 -1.3374,0.891602 -1.98584,2.188477 -0.60791,1.256347 -0.60791,2.917969 0,2.8369137 1.78321,4.5390621 1.82373,1.6616211 5.06592,1.6616211 2.63427,0 4.86328,-1.3374024 2.26953,-1.3374023 4.7417,-4.0932617 z m 71.24707,-2.107421 q 0,4.741699 -1.05371,8.551269 -1.01319,3.7690431 -3.03956,6.4438478 -1.98584,2.6748047 -4.9038,4.0932617 -2.91797,1.41845703 -6.68702,1.41845703 -1.74267,0 -3.24218,-0.36474609 -1.45899,-0.32421875 -2.87744,-1.09423828 -1.41846,-0.77001956 -2.83692,-1.94531246 -1.41846,-1.175293 -2.99902,-2.8369141 v 4.4580078 q 0,0.32421876 -0.16211,0.56738282 -0.16211,0.24316406 -0.52686,0.40527344 -0.36474,0.12158203 -0.93213,0.20263671 -0.52685,0.0810547 -1.37793,0.0810547 -0.81054,0 -1.37793,-0.0810547 -0.56738,-0.08105468 -0.93212,-0.20263671 -0.36475,-0.16210938 -0.48633,-0.40527344 -0.12158,-0.24316406 -0.12158,-0.56738282 V -55.157715 q 0,-0.324219 0.12158,-0.567383 0.16211,-0.243164 0.52685,-0.405273 0.40528,-0.162109 1.05371,-0.243164 0.64844,-0.08106 1.6211,-0.08106 1.01318,0 1.66162,0.08106 0.64844,0.08105 1.01318,0.243164 0.36475,0.162109 0.52686,0.405273 0.16211,0.243164 0.16211,0.567383 v 21.844238 q 1.62109,-1.661621 3.1206,-2.796386 1.54004,-1.134766 2.99903,-1.823731 1.45898,-0.729492 2.91797,-1.053711 1.45898,-0.324218 3.08007,-0.324218 3.97168,0 6.76807,1.580566 2.83691,1.580566 4.57959,4.255371 1.7832,2.634277 2.59375,6.200684 0.81055,3.566406 0.81055,7.538086 z m -7.05176,0.770019 q 0,-2.796387 -0.4458,-5.430664 -0.40528,-2.634277 -1.45899,-4.660644 -1.05371,-2.026368 -2.79638,-3.242188 -1.74268,-1.256348 -4.33643,-1.256348 -1.29687,0 -2.55322,0.364746 -1.25635,0.364747 -2.55322,1.215821 -1.29688,0.851074 -2.71534,2.188476 -1.37793,1.337403 -2.95849,3.36377 v 14.549316 q 2.75586,3.3637698 5.26855,5.1469729 2.5127,1.7426758 5.22803,1.7426758 2.51269,0 4.2959,-1.2158203 1.7832,-1.2158203 2.87744,-3.2016602 1.13477,-2.0263672 1.62109,-4.4985352 0.52686,-2.512695 0.52686,-5.065918 z m 48.22754,-1.864258 q 0,1.580567 -0.81055,2.269532 -0.77002,0.648437 -1.7832,0.648437 h -23.91114 q 0,3.039551 0.60792,5.471191 0.60791,2.431641 2.02636,4.1743169 1.41846,1.7426758 3.68799,2.6748047 2.26953,0.9321289 5.55225,0.9321289 2.59375,0 4.62011,-0.4052735 2.02637,-0.4458007 3.48536,-0.9726562 1.49951,-0.5268555 2.43164,-0.9321289 0.97265,-0.4458008 1.45898,-0.4458008 0.28369,0 0.48633,0.1621094 0.24316,0.121582 0.36474,0.4052734 0.12159,0.2836914 0.16211,0.8105469 0.0811,0.4863281 0.0811,1.2158203 0,0.5268555 -0.0405,0.9321289 -0.0405,0.3647461 -0.12158,0.6889648 -0.0405,0.2836914 -0.20264,0.5268555 -0.12158,0.2431641 -0.36474,0.4863281 -0.20264,0.2026368 -1.29688,0.7294922 -1.09424,0.48632815 -2.83691,0.97265627 Q 686.24951,0 683.93945,0.36474609 q -2.26953,0.40527344 -4.86328,0.40527344 -4.49853,0 -7.90283,-1.25634766 -3.36377,-1.25634767 -5.67383,-3.72851557 -2.31006,-2.472168 -3.48535,-6.2006833 -1.17529,-3.728516 -1.17529,-8.672852 0,-4.701172 1.21582,-8.429687 1.21582,-3.769043 3.48535,-6.362793 2.31006,-2.634278 5.55225,-4.012207 3.24218,-1.418457 7.25439,-1.418457 4.2959,0 7.29492,1.377929 3.03955,1.37793 4.98486,3.728516 1.94532,2.310058 2.83692,5.471191 0.93213,3.120606 0.93213,6.687012 z m -6.72754,-1.98584 q 0.12158,-5.268554 -2.35059,-8.267578 -2.43164,-2.999023 -7.25439,-2.999023 -2.47217,0 -4.33643,0.932129 -1.86426,0.932129 -3.1206,2.472168 -1.25635,1.540039 -1.94532,3.606933 -0.68896,2.026368 -0.77002,4.255371 z m 48.30859,21.8037114 q 0,0.32421876 -0.16211,0.56738282 -0.16211,0.20263672 -0.52685,0.36474609 -0.36475,0.16210938 -1.01319,0.24316406 -0.64843,0.0810547 -1.62109,0.0810547 -1.01318,0 -1.66162,-0.0810547 -0.64844,-0.08105468 -1.01318,-0.24316406 -0.36475,-0.16210937 -0.52686,-0.36474609 -0.16211,-0.24316406 -0.16211,-0.56738282 V -22.371094 q 0,-3.120605 -0.48633,-5.02539 -0.48633,-1.904786 -1.41845,-3.282715 -0.93213,-1.37793 -2.43165,-2.107422 -1.45898,-0.729492 -3.40429,-0.729492 -2.5127,0 -5.02539,1.783203 -2.5127,1.783203 -5.26856,5.228027 v 25.4916994 q 0,0.32421876 -0.16211,0.56738282 -0.16211,0.20263672 -0.52685,0.36474609 -0.36475,0.16210938 -1.01319,0.24316406 -0.64843,0.0810547 -1.66162,0.0810547 -0.97265,0 -1.62109,-0.0810547 -0.64844,-0.08105468 -1.05371,-0.24316406 -0.36475,-0.16210937 -0.52686,-0.36474609 -0.12158,-0.24316406 -0.12158,-0.56738282 V -55.157715 q 0,-0.324219 0.12158,-0.567383 0.16211,-0.243164 0.52686,-0.405273 0.40527,-0.162109 1.05371,-0.243164 0.64844,-0.08106 1.62109,-0.08106 1.01319,0 1.66162,0.08106 0.64844,0.08105 1.01319,0.243164 0.36474,0.162109 0.52685,0.405273 0.16211,0.243164 0.16211,0.567383 v 21.844238 q 2.87744,-3.03955 5.79541,-4.498535 2.91797,-1.499511 5.87647,-1.499511 3.64746,0 6.11963,1.256347 2.51269,1.215821 4.05273,3.282715 1.54004,2.066895 2.18848,4.863281 0.68896,2.75586 0.68896,6.687012 z m 39.67627,0.0405274 q 0,0.48632812 -0.32422,0.72949219 Q 775.00439,0 774.43701,0.12158203 q -0.56738,0.12158203 -1.66162,0.12158203 -1.05371,0 -1.70215,-0.12158203 Q 770.46533,0 770.18164,-0.24316406 769.89795,-0.48632813 769.89795,-0.97265625 V -4.6201172 q -2.39111,2.5532227 -5.34961,3.9716797 -2.91797,1.41845703 -6.20068,1.41845703 -2.87745,0 -5.22803,-0.77001953 -2.31006,-0.72949219 -3.97168,-2.1479492 -1.62109,-1.4184571 -2.55322,-3.4853516 -0.89161,-2.0668945 -0.89161,-4.7011722 0,-3.080078 1.25635,-5.349609 1.25635,-2.269531 3.60694,-3.769043 2.35058,-1.499512 5.75488,-2.229004 3.4043,-0.770019 7.65967,-0.770019 h 5.02539 v -2.836914 q 0,-2.107422 -0.4458,-3.728516 -0.4458,-1.621094 -1.45899,-2.674805 -0.97265,-1.094238 -2.55322,-1.621094 -1.58057,-0.567382 -3.89063,-0.567382 -2.47216,0 -4.458,0.60791 -1.94532,0.567383 -3.44483,1.296875 -1.45898,0.688965 -2.47217,1.296875 -0.97265,0.567383 -1.45898,0.567383 -0.32422,0 -0.56738,-0.16211 -0.24317,-0.162109 -0.4458,-0.486328 -0.16211,-0.324219 -0.24317,-0.810547 -0.0811,-0.526855 -0.0811,-1.134765 0,-1.013184 0.12158,-1.580567 0.16211,-0.60791 0.68896,-1.134765 0.56739,-0.526856 1.90479,-1.215821 1.3374,-0.729492 3.08008,-1.296875 1.74267,-0.60791 3.80957,-0.972656 2.06689,-0.405273 4.17431,-0.405273 3.93116,0 6.68702,0.891601 2.75586,0.891602 4.458,2.634277 1.70215,1.702149 2.47217,4.255372 0.77002,2.553222 0.77002,5.957519 z M 769.00635,-17.629395 h -5.71436 q -2.75586,0 -4.78222,0.486329 -2.02637,0.4458 -3.36377,1.377929 -1.33741,0.891602 -1.98584,2.188477 -0.60791,1.256347 -0.60791,2.917969 0,2.8369137 1.7832,4.5390621 1.82373,1.6616211 5.06592,1.6616211 2.63427,0 4.86328,-1.3374024 2.26953,-1.3374023 4.7417,-4.0932617 z m 47.45752,-19.939453 q 0,0.16211 -0.0405,0.364746 0,0.16211 -0.0405,0.364747 -0.0405,0.202636 -0.12158,0.4458 -0.0405,0.243164 -0.12158,0.526856 l -12.4419,34.6508787 q -0.16211,0.44580077 -0.4458,0.72949217 -0.24316,0.28369141 -0.77002,0.44580079 -0.52685,0.16210937 -1.3374,0.20263671 -0.81055,0.0810547 -2.02637,0.0810547 -1.21582,0 -2.02636,-0.0810547 -0.81055,-0.08105468 -1.33741,-0.24316406 -0.48632,-0.16210937 -0.77002,-0.44580078 -0.28369,-0.28369141 -0.4458,-0.68896483 L 782.13721,-35.866699 q -0.16211,-0.486328 -0.28369,-0.851074 -0.0811,-0.364747 -0.12159,-0.526856 0,-0.202637 0,-0.324219 0,-0.324218 0.16211,-0.567382 0.16211,-0.243165 0.52686,-0.364747 0.40527,-0.162109 1.01318,-0.202636 0.64844,-0.04053 1.58057,-0.04053 1.17529,0 1.86426,0.08105 0.72949,0.04053 1.09423,0.202637 0.40528,0.162109 0.56739,0.405273 0.20263,0.243164 0.36474,0.60791 l 10.29395,30.0712894 0.16211,0.4863282 0.12158,-0.4863282 10.17236,-30.0712894 q 0.0811,-0.364746 0.28369,-0.60791 0.20264,-0.243164 0.56739,-0.405273 0.40527,-0.16211 1.05371,-0.202637 0.68896,-0.08105 1.7832,-0.08105 0.93213,0 1.54004,0.04053 0.60791,0.04053 0.93213,0.202636 0.36475,0.16211 0.48633,0.405274 0.16211,0.202637 0.16211,0.526855 z m 14.26562,36.5556644 q 0,0.32421876 -0.16211,0.56738282 -0.16211,0.20263672 -0.52685,0.36474609 -0.36475,0.16210938 -1.01319,0.24316406 -0.64843,0.0810547 -1.66162,0.0810547 -0.97265,0 -1.62109,-0.0810547 -0.64844,-0.08105468 -1.05371,-0.24316406 -0.36475,-0.16210937 -0.52686,-0.36474609 -0.12158,-0.24316406 -0.12158,-0.56738282 V -37.487793 q 0,-0.283691 0.12158,-0.526855 0.16211,-0.243164 0.52686,-0.405274 0.40527,-0.162109 1.05371,-0.243164 0.64844,-0.08105 1.62109,-0.08105 1.01319,0 1.66162,0.08105 0.64844,0.08105 1.01319,0.243164 0.36474,0.16211 0.52685,0.405274 0.16211,0.243164 0.16211,0.526855 z m 0.77002,-48.7949214 q 0,2.350585 -0.8916,3.20166 -0.8916,0.851074 -3.28271,0.851074 -2.35059,0 -3.24219,-0.810547 -0.85108,-0.851074 -0.85108,-3.161133 0,-2.350586 0.89161,-3.20166 0.8916,-0.851074 3.28271,-0.851074 2.35059,0 3.20166,0.851074 0.8916,0.810547 0.8916,3.120606 z m 45.51221,30.152343 q 0,4.458008 -1.17529,8.227051 -1.1753,3.7285157 -3.52588,6.4438477 -2.31006,2.715332 -5.83594,4.25537111 -3.48535,1.49951172 -8.10547,1.49951172 -4.49853,0 -7.8623,-1.33740234 -3.32325,-1.33740239 -5.55225,-3.89062499 -2.229,-2.5532227 -3.32324,-6.2006832 -1.09424,-3.647461 -1.09424,-8.267579 0,-4.458007 1.13476,-8.186523 1.1753,-3.769043 3.48536,-6.484375 2.35058,-2.715332 5.83593,-4.214844 3.48536,-1.499511 8.146,-1.499511 4.49854,0 7.82178,1.337402 3.36377,1.337402 5.59277,3.890625 2.229,2.553223 3.32324,6.200684 1.13477,3.64746 1.13477,8.22705 z m -7.05176,0.445801 q 0,-2.958496 -0.56738,-5.592773 -0.52686,-2.634278 -1.78321,-4.620118 -1.25634,-1.985839 -3.40429,-3.120605 -2.14795,-1.175293 -5.34961,-1.175293 -2.9585,0 -5.10645,1.053711 -2.10742,1.053711 -3.48535,2.999023 -1.37793,1.904786 -2.06689,4.539063 -0.64844,2.634277 -0.64844,5.754883 0,2.999023 0.52686,5.6333 0.56738,2.634278 1.82373,4.6201177 1.29687,1.9453125 3.44482,3.1206054 2.14795,1.1347657 5.34961,1.1347657 2.91797,0 5.06592,-1.053711 2.14795,-1.0537109 3.52588,-2.9584961 1.37793,-1.9047847 2.02636,-4.5390627 0.64844,-2.634277 0.64844,-5.79541 z m 38.21729,-15.886719 q 0,0.891602 -0.0405,1.499512 -0.0405,0.60791 -0.16211,0.972656 -0.12158,0.324219 -0.32422,0.526856 -0.16211,0.162109 -0.48633,0.162109 -0.32422,0 -0.81054,-0.162109 -0.44581,-0.202637 -1.05372,-0.364746 -0.56738,-0.202637 -1.29687,-0.364746 -0.72949,-0.16211 -1.58057,-0.16211 -1.01318,0 -1.98584,0.405274 -0.97265,0.405273 -2.06689,1.337402 -1.05371,0.932129 -2.22901,2.472168 -1.17529,1.540039 -2.59375,3.769043 v 23.9921874 q 0,0.32421876 -0.1621,0.56738282 -0.16211,0.20263672 -0.52686,0.36474609 -0.36475,0.16210938 -1.01318,0.24316406 -0.64844,0.0810547 -1.66162,0.0810547 -0.97266,0 -1.6211,-0.0810547 -0.64844,-0.08105468 -1.05371,-0.24316406 -0.36475,-0.16210937 -0.52685,-0.36474609 -0.12159,-0.24316406 -0.12159,-0.56738282 V -37.487793 q 0,-0.324219 0.12159,-0.526855 0.12158,-0.243164 0.48632,-0.405274 0.36475,-0.202637 0.93213,-0.243164 0.56739,-0.08105 1.49951,-0.08105 0.89161,0 1.45899,0.08105 0.60791,0.04053 0.93213,0.243164 0.32422,0.16211 0.4458,0.405274 0.16211,0.202636 0.16211,0.526855 v 5.309082 q 1.49951,-2.188476 2.79638,-3.566406 1.33741,-1.37793 2.5127,-2.147949 1.17529,-0.810547 2.31006,-1.094239 1.17529,-0.324218 2.35058,-0.324218 0.52686,0 1.1753,0.08105 0.68896,0.04053 1.41845,0.202637 0.7295,0.162109 1.29688,0.364746 0.60791,0.202637 0.85107,0.405274 0.24317,0.202636 0.32422,0.405273 0.0811,0.162109 0.12158,0.445801 0.0811,0.283691 0.0811,0.851074 0.0405,0.526855 0.0405,1.458984 z m 52.60449,28.5312503 q 0,0.6889649 -0.0405,1.2158203 -0.0405,0.4863282 -0.16211,0.8510742 -0.0811,0.3242188 -0.24316,0.6079102 -0.12158,0.2431641 -0.64844,0.7700195 -0.48633,0.4863282 -1.70215,1.2563477 -1.21582,0.7294922 -2.75586,1.33740233 -1.49951,0.56738281 -3.28271,0.93212891 -1.78321,0.36474609 -3.68799,0.36474609 -3.93115,0 -6.9707,-1.296875 -3.03955,-1.29687503 -5.10645,-3.76904293 -2.02637,-2.5126953 -3.1206,-6.1196286 -1.05372,-3.647461 -1.05372,-8.38916 0,-5.390137 1.29688,-9.240235 1.3374,-3.890625 3.60693,-6.362793 2.31006,-2.472168 5.39014,-3.647461 3.1206,-1.21582 6.72754,-1.21582 1.74267,0 3.36377,0.324219 1.66162,0.324218 3.03955,0.851074 1.37793,0.526855 2.43164,1.21582 1.09424,0.688965 1.58057,1.175293 0.48632,0.486328 0.64843,0.77002 0.20264,0.283691 0.32422,0.688965 0.12158,0.364746 0.16211,0.851074 0.0405,0.486328 0.0405,1.21582 0,1.580566 -0.36475,2.229004 -0.36474,0.60791 -0.8916,0.60791 -0.60791,0 -1.41846,-0.648437 -0.77002,-0.688965 -1.98584,-1.499512 -1.21582,-0.810547 -2.95849,-1.458984 -1.70215,-0.688965 -4.05274,-0.688965 -4.82275,0 -7.4165,3.728515 -2.55322,3.687989 -2.55322,10.739746 0,3.525879 0.64843,6.200684 0.68897,2.634277 1.98584,4.4174805 1.29688,1.7832031 3.16114,2.6748047 1.90478,0.8510742 4.33642,0.8510742 2.31006,0 4.05274,-0.7294922 1.74267,-0.7294922 2.99902,-1.5805664 1.29688,-0.8916016 2.14795,-1.5805664 0.8916,-0.7294922 1.37793,-0.7294922 0.28369,0 0.48633,0.1621094 0.20263,0.1621093 0.32422,0.5673828 0.16211,0.3647461 0.20263,0.9726562 0.0811,0.5673828 0.0811,1.3779297 z m 15.5625,5.5522461 q 0,0.32421876 -0.16211,0.56738282 -0.16211,0.20263672 -0.52686,0.36474609 -0.36474,0.16210938 -1.01318,0.24316406 -0.64844,0.0810547 -1.66162,0.0810547 -0.97266,0 -1.6211,-0.0810547 -0.64843,-0.08105468 -1.05371,-0.24316406 -0.36474,-0.16210937 -0.52685,-0.36474609 -0.12158,-0.24316406 -0.12158,-0.56738282 V -55.157715 q 0,-0.324219 0.12158,-0.567383 0.16211,-0.243164 0.52685,-0.405273 0.40528,-0.162109 1.05371,-0.243164 0.64844,-0.08106 1.6211,-0.08106 1.01318,0 1.66162,0.08106 0.64844,0.08105 1.01318,0.243164 0.36475,0.162109 0.52686,0.405273 0.16211,0.243164 0.16211,0.567383 z m 46.28226,-18.6425784 q 0,4.458008 -1.1753,8.227051 -1.1753,3.7285157 -3.5259,6.4438477 -2.3101,2.715332 -5.8359,4.25537111 -3.4854,1.49951172 -8.1055,1.49951172 -4.49855,0 -7.86232,-1.33740234 -3.32324,-1.33740239 -5.55224,-3.89062499 -2.22901,-2.5532227 -3.32325,-6.2006832 -1.09423,-3.647461 -1.09423,-8.267579 0,-4.458007 1.13476,-8.186523 1.17529,-3.769043 3.48535,-6.484375 2.35059,-2.715332 5.83594,-4.214844 3.48539,-1.499511 8.14599,-1.499511 4.4985,0 7.8218,1.337402 3.3638,1.337402 5.5928,3.890625 2.229,2.553223 3.3232,6.200684 1.1348,3.64746 1.1348,8.22705 z m -7.0518,0.445801 q 0,-2.958496 -0.5674,-5.592773 -0.5268,-2.634278 -1.7832,-4.620118 -1.2563,-1.985839 -3.4043,-3.120605 -2.1479,-1.175293 -5.3496,-1.175293 -2.9585,0 -5.10643,1.053711 -2.10742,1.053711 -3.48535,2.999023 -1.37793,1.904786 -2.0669,4.539063 -0.64843,2.634277 -0.64843,5.754883 0,2.999023 0.52685,5.6333 0.56738,2.634278 1.82373,4.6201177 1.29688,1.9453125 3.44483,3.1206054 2.1479,1.1347657 5.3496,1.1347657 2.918,0 5.0659,-1.053711 2.148,-1.0537109 3.5259,-2.9584961 1.3779,-1.9047847 2.0264,-4.5390627 0.6484,-2.634277 0.6484,-5.79541 z m 48.3086,18.1967774 q 0,0.32421876 -0.1621,0.56738282 -0.1621,0.20263672 -0.5269,0.36474609 -0.3647,0.16210938 -1.0131,0.24316406 -0.6485,0.0810547 -1.6211,0.0810547 -1.0132,0 -1.6617,-0.0810547 -0.6484,-0.08105468 -1.0131,-0.24316406 -0.3648,-0.16210937 -0.5269,-0.36474609 -0.1621,-0.24316406 -0.1621,-0.56738282 V -22.371094 q 0,-3.120605 -0.4863,-5.02539 -0.4864,-1.904786 -1.4185,-3.282715 -0.9321,-1.37793 -2.4316,-2.107422 -1.459,-0.729492 -3.4043,-0.729492 -2.5127,0 -5.0254,1.783203 -2.5127,1.783203 -5.2686,5.228027 v 25.4916994 q 0,0.32421876 -0.1621,0.56738282 -0.1621,0.20263672 -0.5268,0.36474609 -0.3648,0.16210938 -1.0132,0.24316406 -0.6485,0.0810547 -1.6616,0.0810547 -0.9727,0 -1.6211,-0.0810547 -0.6485,-0.08105468 -1.0538,-0.24316406 -0.3647,-0.16210937 -0.5268,-0.36474609 -0.1216,-0.24316406 -0.1216,-0.56738282 V -37.487793 q 0,-0.324219 0.1216,-0.526855 0.1216,-0.243164 0.4863,-0.405274 0.3648,-0.202637 0.9321,-0.243164 0.5674,-0.08105 1.4996,-0.08105 0.8916,0 1.4589,0.08105 0.608,0.04053 0.9322,0.243164 0.3242,0.16211 0.4458,0.405274 0.1621,0.202636 0.1621,0.526855 v 4.822754 q 3.0801,-3.444824 6.1196,-5.025391 3.0801,-1.621093 6.2007,-1.621093 3.6475,0 6.1196,1.256347 2.5127,1.215821 4.0528,3.282715 1.54,2.066895 2.1884,4.863281 0.689,2.75586 0.689,6.646485 z m 18.8857,0 q 0,0.32421876 -0.1621,0.56738282 -0.1621,0.20263672 -0.5268,0.36474609 -0.3648,0.16210938 -1.0132,0.24316406 -0.6484,0.0810547 -1.6616,0.0810547 -0.9727,0 -1.6211,-0.0810547 -0.6485,-0.08105468 -1.0537,-0.24316406 -0.3648,-0.16210937 -0.5269,-0.36474609 -0.1216,-0.24316406 -0.1216,-0.56738282 V -37.487793 q 0,-0.283691 0.1216,-0.526855 0.1621,-0.243164 0.5269,-0.405274 0.4052,-0.162109 1.0537,-0.243164 0.6484,-0.08105 1.6211,-0.08105 1.0132,0 1.6616,0.08105 0.6484,0.08105 1.0132,0.243164 0.3647,0.16211 0.5268,0.405274 0.1621,0.243164 0.1621,0.526855 z m 0.7701,-48.7949214 q 0,2.350585 -0.8916,3.20166 -0.8916,0.851074 -3.2828,0.851074 -2.3505,0 -3.2421,-0.810547 -0.8511,-0.851074 -0.8511,-3.161133 0,-2.350586 0.8916,-3.20166 0.8916,-0.851074 3.2827,-0.851074 2.3506,0 3.2017,0.851074 0.8916,0.810547 0.8916,3.120606 z m 42.9995,48.7949214 q 0,0.32421876 -0.1621,0.56738282 -0.1621,0.20263672 -0.5269,0.36474609 -0.3647,0.16210938 -1.0132,0.24316406 -0.6484,0.0810547 -1.6211,0.0810547 -1.0132,0 -1.6616,-0.0810547 -0.6484,-0.08105468 -1.0132,-0.24316406 -0.3647,-0.16210937 -0.5268,-0.36474609 -0.1621,-0.24316406 -0.1621,-0.56738282 V -22.371094 q 0,-3.120605 -0.4864,-5.02539 -0.4863,-1.904786 -1.4184,-3.282715 -0.9322,-1.37793 -2.4317,-2.107422 -1.4589,-0.729492 -3.4043,-0.729492 -2.5127,0 -5.0254,1.783203 -2.5126,1.783203 -5.2685,5.228027 v 25.4916994 q 0,0.32421876 -0.1621,0.56738282 -0.1621,0.20263672 -0.5269,0.36474609 -0.3647,0.16210938 -1.0132,0.24316406 -0.6484,0.0810547 -1.6616,0.0810547 -0.9726,0 -1.6211,-0.0810547 -0.6484,-0.08105468 -1.0537,-0.24316406 -0.3647,-0.16210937 -0.5268,-0.36474609 -0.1216,-0.24316406 -0.1216,-0.56738282 V -37.487793 q 0,-0.324219 0.1216,-0.526855 0.1215,-0.243164 0.4863,-0.405274 0.3647,-0.202637 0.9321,-0.243164 0.5674,-0.08105 1.4995,-0.08105 0.8916,0 1.459,0.08105 0.6079,0.04053 0.9321,0.243164 0.3243,0.16211 0.4458,0.405274 0.1622,0.202636 0.1622,0.526855 v 4.822754 q 3.08,-3.444824 6.1196,-5.025391 3.0801,-1.621093 6.2007,-1.621093 3.6474,0 6.1196,1.256347 2.5127,1.215821 4.0527,3.282715 1.5401,2.066895 2.1885,4.863281 0.689,2.75586 0.689,6.646485 z m 42.6753,-34.8129884 q 0,1.418457 -0.4053,2.066895 -0.3648,0.60791 -0.9727,0.60791 h -5.228 q 1.4185,1.458984 1.9859,3.242187 0.5673,1.742676 0.5673,3.647461 0,3.161133 -1.0132,5.592774 -1.0131,2.43164 -2.9179,4.133789 -1.8643,1.661621 -4.458,2.553222 -2.5938,0.891602 -5.7549,0.891602 -2.229,0 -4.2554,-0.567383 -1.9858,-0.60791 -3.0801,-1.499512 -0.7295,0.729493 -1.2158,1.661622 -0.4458,0.932128 -0.4458,2.147949 0,1.4184568 1.2969,2.3505857 1.3374,0.9321289 3.5259,1.0131836 l 9.5239,0.4052734 q 2.7153,0.081055 4.9849,0.7700196 2.2695,0.6484375 3.9311,1.9047851 1.6616,1.2158203 2.5938,3.0395508 0.9321,1.78320311 0.9321,4.1743164 0,2.5126953 -1.0537,4.7822266 -1.0537,2.2695312 -3.2422,3.9716798 -2.148,1.742676 -5.5117,2.715332 -3.3638,1.013183 -7.9434,1.013183 -4.4175,0 -7.5381,-0.770019 -3.08,-0.729492 -5.0659,-2.026367 -1.9858,-1.296875 -2.8774,-3.1206057 -0.8916,-1.7832031 -0.8916,-3.890625 0,-1.3374024 0.3242,-2.59375 Q 1135.333,1.1347656 1135.9814,0 q 0.689,-1.1347656 1.6617,-2.1479492 1.0132,-1.053711 2.31,-2.0668945 -1.9858,-1.0131836 -2.9585,-2.5532227 -0.9321,-1.5400391 -0.9321,-3.3232426 0,-2.472168 1.0132,-4.41748 1.0132,-1.945313 2.5127,-3.485352 -1.2564,-1.499511 -1.9859,-3.363769 -0.7295,-1.904785 -0.7295,-4.57959 0,-3.120605 1.0538,-5.592773 1.0537,-2.472168 2.9179,-4.174317 1.8643,-1.702148 4.458,-2.59375 2.6343,-0.932129 5.7144,-0.932129 1.6616,0 3.0801,0.202637 1.459,0.162109 2.7153,0.486328 h 11.0234 q 0.689,0 1.0132,0.688965 0.3648,0.648437 0.3648,2.026367 z m -10.4561,9.604981 q 0,-3.728516 -2.0669,-5.795411 -2.0263,-2.107421 -5.7954,-2.107421 -1.9453,0 -3.4043,0.648437 -1.4184,0.648438 -2.3911,1.783203 -0.9321,1.134766 -1.4185,2.634278 -0.4458,1.458984 -0.4458,3.080078 0,3.606933 2.0264,5.673828 2.0669,2.066894 5.7549,2.066894 1.9858,0 3.4448,-0.60791 1.459,-0.648437 2.3911,-1.742676 0.9727,-1.134765 1.4185,-2.59375 0.4863,-1.458984 0.4863,-3.03955 z m 3.3638,28.8959957 q 0,-2.35058595 -1.9453,-3.60693361 -1.9048,-1.29687499 -5.1875,-1.37792969 l -9.4429,-0.3242187 q -1.2969,1.0131836 -2.148,1.94531246 -0.8105,0.89160156 -1.2968,1.70214844 -0.4864,0.8510742 -0.689,1.6616211 -0.1621,0.8105469 -0.1621,1.6616211 0,2.6342773 2.6748,3.9716797 2.6748,1.3779297 7.457,1.3779297 3.0396,0 5.066,-0.6079102 2.0668,-0.5673828 3.3232,-1.5400391 1.2563,-0.9726562 1.7832,-2.2290039 0.5674,-1.2563476 0.5674,-2.6342773 z m 41.1352,-3.6879883 q 0,0.32421876 -0.1621,0.56738282 -0.1621,0.20263672 -0.5268,0.36474609 -0.3648,0.16210938 -1.0132,0.24316406 -0.6484,0.0810547 -1.6616,0.0810547 -0.9727,0 -1.6211,-0.0810547 -0.6485,-0.08105468 -1.0537,-0.24316406 -0.3648,-0.16210937 -0.5269,-0.36474609 -0.1216,-0.24316406 -0.1216,-0.56738282 V -55.157715 q 0,-0.324219 0.1216,-0.567383 0.1621,-0.243164 0.5269,-0.405273 0.4052,-0.162109 1.0537,-0.243164 0.6484,-0.08106 1.6211,-0.08106 1.0132,0 1.6616,0.08106 0.6484,0.08105 1.0132,0.243164 0.3647,0.162109 0.5268,0.405273 0.1621,0.243164 0.1621,0.567383 z m 46.2823,-18.6425784 q 0,4.458008 -1.1753,8.227051 -1.1753,3.7285157 -3.5259,6.4438477 -2.3101,2.715332 -5.8359,4.25537111 -3.4854,1.49951172 -8.1055,1.49951172 -4.4986,0 -7.8623,-1.33740234 -3.3233,-1.33740239 -5.5523,-3.89062499 -2.229,-2.5532227 -3.3232,-6.2006832 -1.0942,-3.647461 -1.0942,-8.267579 0,-4.458007 1.1347,-8.186523 1.1753,-3.769043 3.4854,-6.484375 2.3506,-2.715332 5.8359,-4.214844 3.4854,-1.499511 8.146,-1.499511 4.4985,0 7.8218,1.337402 3.3638,1.337402 5.5928,3.890625 2.229,2.553223 3.3232,6.200684 1.1348,3.64746 1.1348,8.22705 z m -7.0518,0.445801 q 0,-2.958496 -0.5674,-5.592773 -0.5268,-2.634278 -1.7832,-4.620118 -1.2563,-1.985839 -3.4043,-3.120605 -2.1479,-1.175293 -5.3496,-1.175293 -2.9585,0 -5.1064,1.053711 -2.1075,1.053711 -3.4854,2.999023 -1.3779,1.904786 -2.0669,4.539063 -0.6484,2.634277 -0.6484,5.754883 0,2.999023 0.5268,5.6333 0.5674,2.634278 1.8238,4.6201177 1.2968,1.9453125 3.4448,3.1206054 2.1479,1.1347657 5.3496,1.1347657 2.918,0 5.0659,-1.053711 2.148,-1.0537109 3.5259,-2.9584961 1.3779,-1.9047847 2.0264,-4.5390627 0.6484,-2.634277 0.6484,-5.79541 z m 39.7979,8.267578 q 0,2.7963869 -1.0538,4.9848635 -1.0131,2.1884765 -2.9179,3.6879882 -1.9048,1.49951177 -4.5391,2.2695313 -2.6343,0.77001953 -5.7954,0.77001953 -1.9453,0 -3.7285,-0.32421875 -1.7427,-0.28369141 -3.1611,-0.72949219 -1.378,-0.48632812 -2.3506,-0.97265629 -0.9727,-0.5268554 -1.4185,-0.9321289 -0.4458,-0.4052734 -0.6484,-1.1347656 -0.2027,-0.7294922 -0.2027,-1.9858398 0,-0.7700196 0.081,-1.296875 0.081,-0.5268555 0.2026,-0.8510742 0.1216,-0.3242188 0.3242,-0.4458008 0.2432,-0.1621094 0.5269,-0.1621094 0.4458,0 1.2969,0.5673828 0.8916,0.5268555 2.1479,1.175293 1.2969,0.6484375 3.0396,1.2158203 1.7427,0.5268555 4.0122,0.5268555 1.7021,0 3.0801,-0.3647461 1.3779,-0.3647461 2.3911,-1.053711 1.0132,-0.7294922 1.54,-1.8237304 0.5674,-1.0942383 0.5674,-2.5937497 0,-1.540039 -0.8105,-2.59375 -0.7701,-1.053711 -2.0669,-1.864258 -1.2969,-0.810547 -2.918,-1.418457 -1.6211,-0.648438 -3.3638,-1.337403 -1.7021,-0.688964 -3.3637,-1.540039 -1.6211,-0.891601 -2.918,-2.147949 -1.2969,-1.256347 -2.1074,-2.999023 -0.7701,-1.742676 -0.7701,-4.174317 0,-2.147949 0.8106,-4.093261 0.8511,-1.98584 2.5127,-3.444825 1.6616,-1.499511 4.1338,-2.391113 2.5127,-0.891601 5.8359,-0.891601 1.459,0 2.918,0.243164 1.459,0.243164 2.6343,0.60791 1.1752,0.364746 1.9858,0.810547 0.8511,0.405273 1.2563,0.729492 0.4458,0.324219 0.5674,0.567383 0.1621,0.243164 0.2027,0.567382 0.081,0.283692 0.1215,0.729493 0.081,0.4458 0.081,1.094238 0,0.688965 -0.081,1.21582 -0.041,0.486328 -0.2026,0.810547 -0.1216,0.324219 -0.3242,0.486328 -0.2026,0.121582 -0.4458,0.121582 -0.3648,0 -1.0537,-0.4458 -0.689,-0.445801 -1.7832,-0.932129 -1.0943,-0.526856 -2.5938,-0.972657 -1.459,-0.4458 -3.3637,-0.4458 -1.7022,0 -2.9991,0.405273 -1.2968,0.364746 -2.1479,1.094238 -0.8106,0.688965 -1.2564,1.661621 -0.4052,0.972657 -0.4052,2.107422 0,1.580567 0.8105,2.674805 0.8106,1.053711 2.1074,1.864258 1.2969,0.810547 2.9585,1.458984 1.6616,0.648438 3.3638,1.337402 1.7427,0.688965 3.4043,1.54004 1.7021,0.851074 2.999,2.066894 1.2969,1.21582 2.0669,2.917969 0.8106,1.702148 0.8106,4.052734 z m 32.4624,0 q 0,2.7963869 -1.0538,4.9848635 -1.0131,2.1884765 -2.9179,3.6879882 -1.9048,1.49951177 -4.5391,2.2695313 -2.6343,0.77001953 -5.7954,0.77001953 -1.9453,0 -3.7285,-0.32421875 -1.7427,-0.28369141 -3.1611,-0.72949219 -1.378,-0.48632812 -2.3506,-0.97265629 -0.9727,-0.5268554 -1.4185,-0.9321289 -0.4458,-0.4052734 -0.6484,-1.1347656 -0.2027,-0.7294922 -0.2027,-1.9858398 0,-0.7700196 0.081,-1.296875 0.081,-0.5268555 0.2026,-0.8510742 0.1216,-0.3242188 0.3243,-0.4458008 0.2431,-0.1621094 0.5268,-0.1621094 0.4458,0 1.2969,0.5673828 0.8916,0.5268555 2.1479,1.175293 1.2969,0.6484375 3.0396,1.2158203 1.7427,0.5268555 4.0122,0.5268555 1.7021,0 3.0801,-0.3647461 1.3779,-0.3647461 2.3911,-1.053711 1.0132,-0.7294922 1.54,-1.8237304 0.5674,-1.0942383 0.5674,-2.5937497 0,-1.540039 -0.8105,-2.59375 -0.7701,-1.053711 -2.0669,-1.864258 -1.2969,-0.810547 -2.918,-1.418457 -1.6211,-0.648438 -3.3638,-1.337403 -1.7021,-0.688964 -3.3637,-1.540039 -1.6211,-0.891601 -2.918,-2.147949 -1.2969,-1.256347 -2.1074,-2.999023 -0.7701,-1.742676 -0.7701,-4.174317 0,-2.147949 0.8106,-4.093261 0.8511,-1.98584 2.5127,-3.444825 1.6616,-1.499511 4.1338,-2.391113 2.5127,-0.891601 5.8359,-0.891601 1.459,0 2.918,0.243164 1.459,0.243164 2.6343,0.60791 1.1753,0.364746 1.9858,0.810547 0.8511,0.405273 1.2563,0.729492 0.4458,0.324219 0.5674,0.567383 0.1621,0.243164 0.2027,0.567382 0.081,0.283692 0.1215,0.729493 0.081,0.4458 0.081,1.094238 0,0.688965 -0.081,1.21582 -0.041,0.486328 -0.2026,0.810547 -0.1216,0.324219 -0.3242,0.486328 -0.2026,0.121582 -0.4458,0.121582 -0.3648,0 -1.0537,-0.4458 -0.689,-0.445801 -1.7832,-0.932129 -1.0943,-0.526856 -2.5938,-0.972657 -1.459,-0.4458 -3.3637,-0.4458 -1.7022,0 -2.9991,0.405273 -1.2968,0.364746 -2.1479,1.094238 -0.8106,0.688965 -1.2564,1.661621 -0.4052,0.972657 -0.4052,2.107422 0,1.580567 0.8105,2.674805 0.8106,1.053711 2.1074,1.864258 1.2969,0.810547 2.9585,1.458984 1.6616,0.648438 3.3638,1.337402 1.7427,0.688965 3.4043,1.54004 1.7021,0.851074 2.999,2.066894 1.2969,1.21582 2.0669,2.917969 0.8106,1.702148 0.8106,4.052734 z m 42.1889,-44.904297 q -3.8501,8.145996 -5.7549,16.737793 -1.8642,8.55127 -1.8642,17.224121 0,8.713379 1.9048,17.2646488 1.9453,8.5512695 5.6333,16.7783202 0.2026,0.486328 0.2026,0.810547 0.041,0.364746 -0.2432,0.567383 -0.2836,0.243164 -0.8916,0.324219 -0.5673,0.121582 -1.5805,0.121582 -0.7295,0 -1.2564,-0.04053 -0.5268,-0.04053 -0.9321,-0.162109 -0.3647,-0.121582 -0.6079,-0.283692 -0.2432,-0.162109 -0.3648,-0.364746 -2.1884,-4.1337887 -3.8501,-8.3891598 -1.6616,-4.21484373 -2.7963,-8.5917969 -1.1348,-4.3769531 -1.7022,-8.8349613 -0.5674,-4.498535 -0.5674,-9.078125 0,-4.579589 0.6079,-9.037597 0.6485,-4.458008 1.7832,-8.834961 1.1753,-4.417481 2.837,-8.672852 1.6616,-4.255371 3.7285,-8.429687 0.041,-0.16211 0.2026,-0.283692 0.2026,-0.121582 0.5269,-0.243164 0.3242,-0.121582 0.8916,-0.162109 0.5673,-0.08106 1.4589,-0.08106 0.9322,0 1.4996,0.121582 0.5673,0.121582 0.8916,0.324219 0.3242,0.202637 0.3647,0.526855 0.041,0.324219 -0.1216,0.688965 z m 42.7158,54.8334964 q 0,0.32421876 -0.1621,0.56738282 -0.1621,0.20263672 -0.5268,0.36474609 -0.3648,0.16210938 -1.0132,0.24316406 -0.6484,0.0810547 -1.6211,0.0810547 -1.0132,0 -1.6616,-0.0810547 -0.6485,-0.08105468 -1.0132,-0.24316406 -0.3647,-0.16210937 -0.5269,-0.36474609 -0.1621,-0.24316406 -0.1621,-0.56738282 V -22.371094 q 0,-3.120605 -0.4863,-5.02539 -0.4863,-1.904786 -1.4185,-3.282715 -0.9321,-1.37793 -2.4316,-2.107422 -1.459,-0.729492 -3.4043,-0.729492 -2.5127,0 -5.0254,1.783203 -2.5127,1.783203 -5.2685,5.228027 v 25.4916994 q 0,0.32421876 -0.1621,0.56738282 -0.1622,0.20263672 -0.5269,0.36474609 -0.3647,0.16210938 -1.0132,0.24316406 -0.6484,0.0810547 -1.6616,0.0810547 -0.9727,0 -1.6211,-0.0810547 -0.6484,-0.08105468 -1.0537,-0.24316406 -0.3648,-0.16210937 -0.5269,-0.36474609 -0.1215,-0.24316406 -0.1215,-0.56738282 V -37.487793 q 0,-0.324219 0.1215,-0.526855 0.1216,-0.243164 0.4864,-0.405274 0.3647,-0.202637 0.9321,-0.243164 0.5674,-0.08105 1.4995,-0.08105 0.8916,0 1.459,0.08105 0.6079,0.04053 0.9321,0.243164 0.3242,0.16211 0.4458,0.405274 0.1621,0.202636 0.1621,0.526855 v 4.822754 q 3.0801,-3.444824 6.1197,-5.025391 3.08,-1.621093 6.2006,-1.621093 3.6475,0 6.1197,1.256347 2.5127,1.215821 4.0527,3.282715 1.54,2.066895 2.1885,4.863281 0.6889,2.75586 0.6889,6.646485 z m 43.3238,-19.8178714 q 0,1.580567 -0.8106,2.269532 -0.77,0.648437 -1.7832,0.648437 h -23.9111 q 0,3.039551 0.6079,5.471191 0.6079,2.431641 2.0264,4.1743169 1.4184,1.7426758 3.688,2.6748047 2.2695,0.9321289 5.5522,0.9321289 2.5938,0 4.6201,-0.4052735 2.0264,-0.4458007 3.4854,-0.9726562 1.4995,-0.5268555 2.4316,-0.9321289 0.9727,-0.4458008 1.459,-0.4458008 0.2837,0 0.4863,0.1621094 0.2432,0.121582 0.3648,0.4052734 0.1216,0.2836914 0.1621,0.8105469 0.081,0.4863281 0.081,1.2158203 0,0.5268555 -0.04,0.9321289 -0.041,0.3647461 -0.1216,0.6889648 -0.04,0.2836914 -0.2026,0.5268555 -0.1216,0.2431641 -0.3648,0.4863281 -0.2026,0.2026368 -1.2968,0.7294922 -1.0943,0.48632815 -2.8369,0.97265627 Q 1434.8301,0 1432.52,0.36474609 q -2.2695,0.40527344 -4.8633,0.40527344 -4.4985,0 -7.9028,-1.25634766 -3.3638,-1.25634767 -5.6738,-3.72851557 -2.3101,-2.472168 -3.4854,-6.2006833 -1.1753,-3.728516 -1.1753,-8.672852 0,-4.701172 1.2159,-8.429687 1.2158,-3.769043 3.4853,-6.362793 2.3101,-2.634278 5.5523,-4.012207 3.2421,-1.418457 7.2543,-1.418457 4.2959,0 7.295,1.377929 3.0395,1.37793 4.9848,3.728516 1.9453,2.310058 2.8369,5.471191 0.9322,3.120606 0.9322,6.687012 z m -6.7276,-1.98584 q 0.1216,-5.268554 -2.3506,-8.267578 -2.4316,-2.999023 -7.2543,-2.999023 -2.4722,0 -4.3365,0.932129 -1.8642,0.932129 -3.1206,2.472168 -1.2563,1.540039 -1.9453,3.606933 -0.689,2.026368 -0.77,4.255371 z m 48.0249,1.98584 q 0,1.580567 -0.8105,2.269532 -0.77,0.648437 -1.7832,0.648437 h -23.9111 q 0,3.039551 0.6079,5.471191 0.6079,2.431641 2.0263,4.1743169 1.4185,1.7426758 3.688,2.6748047 2.2696,0.9321289 5.5523,0.9321289 2.5937,0 4.6201,-0.4052735 2.0264,-0.4458007 3.4853,-0.9726562 1.4995,-0.5268555 2.4317,-0.9321289 0.9726,-0.4458008 1.459,-0.4458008 0.2837,0 0.4863,0.1621094 0.2432,0.121582 0.3647,0.4052734 0.1216,0.2836914 0.1621,0.8105469 0.081,0.4863281 0.081,1.2158203 0,0.5268555 -0.041,0.9321289 -0.041,0.3647461 -0.1216,0.6889648 -0.041,0.2836914 -0.2026,0.5268555 -0.1216,0.2431641 -0.3648,0.4863281 -0.2026,0.2026368 -1.2969,0.7294922 -1.0942,0.48632815 -2.8369,0.97265627 Q 1476.1274,0 1473.8174,0.36474609 q -2.2695,0.40527344 -4.8633,0.40527344 -4.4985,0 -7.9028,-1.25634766 -3.3638,-1.25634767 -5.6739,-3.72851557 -2.31,-2.472168 -3.4853,-6.2006833 -1.1753,-3.728516 -1.1753,-8.672852 0,-4.701172 1.2158,-8.429687 1.2158,-3.769043 3.4854,-6.362793 2.31,-2.634278 5.5522,-4.012207 3.2422,-1.418457 7.2544,-1.418457 4.2959,0 7.2949,1.377929 3.0396,1.37793 4.9849,3.728516 1.9453,2.310058 2.8369,5.471191 0.9321,3.120606 0.9321,6.687012 z m -6.7275,-1.98584 q 0.1216,-5.268554 -2.3506,-8.267578 -2.4316,-2.999023 -7.2544,-2.999023 -2.4721,0 -4.3364,0.932129 -1.8643,0.932129 -3.1206,2.472168 -1.2564,1.540039 -1.9453,3.606933 -0.689,2.026368 -0.77,4.255371 z m 48.1465,21.8037114 q 0,0.32421876 -0.1621,0.56738282 -0.1216,0.24316406 -0.4864,0.40527344 -0.3242,0.12158203 -0.8916,0.20263671 -0.5673,0.0810547 -1.3779,0.0810547 -0.8511,0 -1.4184,-0.0810547 -0.5674,-0.08105468 -0.9322,-0.20263671 -0.3647,-0.16210938 -0.5268,-0.40527344 -0.1621,-0.24316406 -0.1621,-0.56738282 v -4.8227539 q -2.8775,3.1206055 -5.9981,4.86328125 -3.0801,1.74267578 -6.768,1.74267578 -4.0123,0 -6.8492,-1.54003906 -2.8369,-1.58056637 -4.6201,-4.21484377 -1.7427,-2.6748047 -2.5532,-6.2412107 -0.8106,-3.606934 -0.8106,-7.578613 0,-4.701172 1.0132,-8.470215 1.0132,-3.809571 2.999,-6.484375 1.9859,-2.674805 4.9039,-4.093262 2.9585,-1.458984 6.8086,-1.458984 3.2016,0 5.8359,1.418457 2.6748,1.377929 5.2685,4.093261 v -21.1958 q 0,-0.283692 0.1216,-0.526856 0.1621,-0.283691 0.5674,-0.405273 0.4053,-0.16211 1.0132,-0.243164 0.6484,-0.121582 1.6211,-0.121582 1.0132,0 1.6616,0.121582 0.6484,0.08105 1.0132,0.243164 0.3647,0.121582 0.5268,0.405273 0.2027,0.243164 0.2027,0.526856 z m -6.7276,-25.6538084 q -2.7153,-3.36377 -5.2685,-5.106445 -2.5127,-1.783204 -5.2686,-1.783204 -2.5532,0 -4.3364,1.215821 -1.7832,1.21582 -2.918,3.20166 -1.0942,1.98584 -1.6211,4.498535 -0.4863,2.512695 -0.4863,5.106445 0,2.75586 0.4053,5.390137 0.4458,2.634277 1.4995,4.7011719 1.0537,2.0263672 2.7964,3.2827149 1.7427,1.2158203 4.3769,1.2158203 1.3374,0 2.5533,-0.3647461 1.2563,-0.3647461 2.5532,-1.2158203 1.2969,-0.8510743 2.7153,-2.1884766 1.4185,-1.3779301 2.999,-3.3637691 z"
       id="text1"
       style="font-size:83px;font-family:Calibri, Calibri_MSFontService, sans-serif"
       transform="matrix(1 0 0 1 1571.18 2340)"
       aria-label="Optimize it with a behavior cloning loss (need " /><path
       d="M3142.72 2303.71C3139.94 2303.71 3137.44 2304.83 3135.22 2307.07 3133.01 2309.31 3131.28 2312.32 3130.04 2316.09 3128.79 2319.86 3128.17 2323.62 3128.17 2327.37 3128.17 2330.18 3128.56 2332.28 3129.33 2333.68 3130.1 2335.07 3131.39 2335.76 3133.2 2335.76 3134.98 2335.76 3136.73 2334.99 3138.45 2333.45 3140.16 2331.91 3141.93 2329.72 3143.76 2326.87 3145.58 2324.02 3146.87 2320.73 3147.63 2317L3147.99 2315.26C3148.23 2314.15 3148.4 2313.19 3148.48 2312.38 3148.56 2311.57 3148.6 2310.69 3148.6 2309.74 3148.6 2307.66 3148.15 2306.14 3147.26 2305.16 3146.37 2304.19 3144.86 2303.71 3142.72 2303.71ZM3141.91 2300.5C3143.67 2300.5 3145.31 2300.7 3146.84 2301.09 3148.36 2301.48 3149.94 2302.18 3151.56 2303.18L3155.29 2300.5 3157.88 2301.15 3151.92 2326.85C3151.33 2329.41 3151.03 2331.41 3151.03 2332.84 3151.03 2333.93 3151.21 2334.71 3151.56 2335.2 3151.91 2335.68 3152.46 2335.93 3153.22 2335.93 3154.03 2335.93 3154.89 2335.59 3155.81 2334.93 3156.73 2334.27 3158.03 2333.01 3159.7 2331.14L3162.01 2333.41C3159.58 2336.01 3157.51 2337.85 3155.79 2338.94 3154.08 2340.04 3152.22 2340.59 3150.22 2340.59 3148.54 2340.59 3147.21 2340.03 3146.21 2338.92 3145.21 2337.82 3144.71 2336.34 3144.71 2334.51 3144.71 2333.02 3145.02 2331.44 3145.64 2329.76L3145.11 2329.6C3142.52 2333.39 3140.06 2336.15 3137.74 2337.91 3135.41 2339.67 3132.95 2340.55 3130.36 2340.55 3127.39 2340.55 3125.09 2339.42 3123.45 2337.18 3121.82 2334.94 3121 2331.79 3121 2327.74 3121 2323.09 3121.91 2318.63 3123.73 2314.34 3125.56 2310.06 3128.06 2306.68 3131.25 2304.21 3134.44 2301.74 3137.99 2300.5 3141.91 2300.5Z"
       fill-rule="evenodd"
       id="path1" /><path
       d="m 3137.8115,2317.8291 1.8006,-1.2916 1.2525,0.3131 -2.8769,12.408 q -0.4306,1.8593 -0.4306,2.8965 0,0.7829 0.2544,1.1352 0.2545,0.3522 0.8024,0.3522 0.5872,0 1.2526,-0.4697 0.6654,-0.4892 1.8788,-1.8396 l 1.1156,1.0959 q -1.7614,1.8789 -3.014,2.6813 -1.233,0.7828 -2.6812,0.7828 -1.2134,0 -1.9375,-0.8024 -0.7242,-0.8024 -0.7242,-2.1332 0,-1.0764 0.4502,-2.2899 l -0.2545,-0.078 q -1.8788,2.7399 -3.5619,4.012 -1.6831,1.2721 -3.5619,1.2721 -2.1528,0 -3.3467,-1.6244 -1.1742,-1.6243 -1.1742,-4.56 0,-3.3662 1.3112,-6.4585 1.3309,-3.1117 3.6402,-4.8927 2.3094,-1.8005 5.1472,-1.8005 1.2721,0 2.3681,0.2935 1.1156,0.274 2.2898,0.9981 z m -1.7222,5.8322 q 0.1761,-0.8024 0.2348,-1.3895 0.059,-0.5872 0.059,-1.2722 0,-1.5069 -0.6458,-2.2115 -0.6458,-0.7045 -2.192,-0.7045 -2.0158,0 -3.6206,1.6244 -1.6048,1.6244 -2.5051,4.3643 -0.9003,2.7204 -0.9003,5.4408 0,2.0353 0.548,3.053 0.5676,0.9982 1.8788,0.9982 1.2917,0 2.5247,-1.1156 1.2526,-1.1155 2.5638,-3.1705 1.3308,-2.0745 1.8788,-4.7753 z"
       id="text2"
       style="font-size:40.0815px;font-family:Arial, Arial_MSFontService, sans-serif;fill-opacity:0"
       aria-label="" /><path
       d="M3175.38 2320.39 3180.03 2320.39 3178.33 2327.96 3188.46 2327.96 3187.78 2331.26 3177.68 2331.26 3174.64 2343.74C3174.44 2344.58 3174.28 2345.33 3174.15 2345.99 3174.02 2346.66 3173.92 2347.26 3173.84 2347.8 3173.76 2348.33 3173.7 2348.82 3173.67 2349.25 3173.64 2349.69 3173.63 2350.1 3173.63 2350.48 3173.63 2351.67 3173.88 2352.6 3174.37 2353.28 3174.87 2353.95 3175.68 2354.29 3176.81 2354.29 3177.77 2354.29 3178.78 2353.94 3179.85 2353.23 3180.92 2352.53 3182.15 2351.42 3183.52 2349.91L3185.57 2352C3184.56 2353.13 3183.6 2354.09 3182.68 2354.88 3181.77 2355.68 3180.88 2356.33 3180 2356.84 3179.13 2357.34 3178.26 2357.71 3177.41 2357.94 3176.56 2358.17 3175.68 2358.28 3174.79 2358.28 3172.43 2358.28 3170.66 2357.72 3169.5 2356.61 3168.34 2355.5 3167.76 2353.86 3167.76 2351.7 3167.76 2350.96 3167.81 2350.15 3167.92 2349.27 3168.03 2348.39 3168.19 2347.53 3168.39 2346.69L3171.93 2331.26 3166.81 2331.26 3167.4 2328.97C3168.59 2328.97 3169.52 2328.86 3170.19 2328.63 3170.85 2328.4 3171.41 2328.09 3171.87 2327.69 3172.17 2327.41 3172.46 2327.07 3172.73 2326.66 3173.01 2326.26 3173.29 2325.76 3173.57 2325.19 3173.85 2324.61 3174.13 2323.93 3174.42 2323.15 3174.7 2322.36 3175.03 2321.45 3175.38 2320.39Z"
       fill-rule="evenodd"
       id="path2" /><path
       d="m 3179.6671,2350.0437 q -1.6094,1.9424 -3.1079,2.8674 -1.4799,0.9249 -3.1079,0.9249 -3.8663,0 -3.8663,-3.9033 0,-1.2395 0.3145,-2.6084 l 2.1829,-9.6012 h -3.1079 l 0.2775,-1.2765 q 1.0914,-0.019 1.6464,-0.1665 0.5735,-0.148 0.9435,-0.407 0.3885,-0.2589 0.703,-0.7399 0.3145,-0.481 0.6104,-1.221 0.296,-0.7585 0.888,-2.6269 h 2.5529 l -1.0174,4.5693 h 5.6238 l -0.407,1.8685 h -5.6238 l -1.6465,7.1777 q -0.481,2.0905 -0.6105,3.0154 -0.1294,0.9065 -0.1294,1.4615 0,2.2939 1.9054,2.2939 0.814,0 1.7204,-0.6105 0.925,-0.629 2.183,-2.1274 z"
       id="text3"
       style="font-size:37.8867px;font-family:Arial, Arial_MSFontService, sans-serif;fill-opacity:0"
       aria-label="" /><path
       d="M3177.37 2280.11 3181.3 2280.11 3180.44 2289.43 3188.09 2284.04 3190.03 2287.38 3181.54 2291.34 3190.03 2295.33 3188.09 2298.64 3180.44 2293.25 3181.3 2302.57 3177.37 2302.57 3178.27 2293.25 3170.58 2298.64 3168.61 2295.33 3177.13 2291.34 3168.61 2287.38 3170.58 2284.04 3178.27 2289.43Z"
       fill-rule="evenodd"
       id="path3" /><path
       d="m 3183.5565,2290.7132 -5.2197,2.555 5.2197,2.5441 -0.8115,1.4036 -4.8139,-3.2458 0.4057,5.7899 h -1.623 l 0.4058,-5.7899 -4.803,3.2458 -0.8115,-1.4036 5.2087,-2.5441 -5.2087,-2.544 0.8115,-1.4037 4.803,3.2459 -0.4058,-5.7899 h 1.623 l -0.4057,5.7899 4.8139,-3.2568 z"
       id="text4"
       style="font-size:22.458px;font-family:Arial, Arial_MSFontService, sans-serif;fill-opacity:0"
       aria-label="" /><path
       d="m 19.736816,-21.763184 q 0,4.57959 -0.567382,9.078125 -0.567383,4.4580082 -1.702149,8.8349613 -1.134765,4.37695317 -2.796387,8.5917969 -1.621093,4.2553711 -3.80957,8.3891598 -0.121582,0.202637 -0.364746,0.364746 -0.243164,0.16211 -0.6484375,0.283692 -0.3647461,0.121582 -0.8916015,0.162109 -0.5268555,0.04053 -1.2563477,0.04053 -1.0537109,0 -1.6616211,-0.121582 Q 5.4711914,13.779297 5.1875,13.536133 4.9443359,13.333496 4.9443359,12.96875 4.9848633,12.644531 5.1875,12.158203 8.9160156,3.9716797 10.820801,-4.5795898 q 1.904785,-8.5917972 1.904785,-17.3051762 0,-8.672851 -1.904785,-17.224121 -1.9047854,-8.591797 -5.7143557,-16.737793 -0.1621094,-0.364746 -0.121582,-0.688965 0.040527,-0.324218 0.3647461,-0.526855 0.3242187,-0.202637 0.8916015,-0.324219 0.5673828,-0.121582 1.4995118,-0.121582 0.8510742,0 1.418457,0.08106 0.5673828,0.04053 0.8916013,0.162109 0.364746,0.121582 0.526856,0.243164 0.162109,0.121582 0.243164,0.283692 4.174316,8.308105 6.524902,17.102539 2.391113,8.753906 2.391113,17.872558 z"
       id="text5"
       style="font-size:83px;font-family:Calibri, Calibri_MSFontService, sans-serif"
       transform="matrix(1 0 0 1 3197.23 2340)"
       aria-label=")" /><path
       d="M697.5 2313.5C697.5 2264.35 768.015 2224.5 855 2224.5 941.985 2224.5 1012.5 2264.35 1012.5 2313.5 1012.5 2362.65 941.985 2402.5 855 2402.5 768.015 2402.5 697.5 2362.65 697.5 2313.5Z"
       stroke="#FF6599"
       stroke-width="9.16667"
       stroke-linejoin="round"
       stroke-miterlimit="10"
       fill="none"
       fill-rule="evenodd"
       id="path5" /><path
       d="M3.14067e-06-4.58333 503.752-4.58299 503.752 4.58368-3.14067e-06 4.58333ZM499.169-13.7497 526.669 0.000360892 499.169 13.7503Z"
       fill="#FF6599"
       transform="matrix(1 0 0 -1 1012.5 2313.5)"
       id="path6" /></g></svg>
