<?xml version="1.0" encoding="UTF-8" standalone="no"?>
<svg
   width="1116"
   height="242"
   xml:space="preserve"
   overflow="hidden"
   version="1.1"
   id="svg19"
   sodipodi:docname="AAIL_Graph_11.svg"
   inkscape:version="1.3.2 (091e20e, 2023-11-25, custom)"
   xmlns:inkscape="http://www.inkscape.org/namespaces/inkscape"
   xmlns:sodipodi="http://sodipodi.sourceforge.net/DTD/sodipodi-0.dtd"
   xmlns="http://www.w3.org/2000/svg"
   xmlns:svg="http://www.w3.org/2000/svg"><defs
     id="defs19" /><sodipodi:namedview
     id="namedview19"
     pagecolor="#ffffff"
     bordercolor="#000000"
     borderopacity="0.25"
     inkscape:showpageshadow="2"
     inkscape:pageopacity="0.0"
     inkscape:pagecheckerboard="0"
     inkscape:deskcolor="#d1d1d1"
     inkscape:zoom="1.2571685"
     inkscape:cx="558"
     inkscape:cy="120.90663"
     inkscape:window-width="1920"
     inkscape:window-height="1002"
     inkscape:window-x="-8"
     inkscape:window-y="-8"
     inkscape:window-maximized="1"
     inkscape:current-layer="svg19" /><g
     transform="translate(-2832 -655)"
     id="g19"><path
       d="M2844.5 705.501C2844.5 684.514 2861.51 667.5 2882.5 667.5L3908.5 667.5C3929.49 667.5 3946.5 684.514 3946.5 705.501L3946.5 857.499C3946.5 878.486 3929.49 895.5 3908.5 895.5L2882.5 895.5C2861.51 895.5 2844.5 878.486 2844.5 857.499Z"
       stroke="#000000"
       stroke-width="3.4375"
       stroke-linejoin="round"
       stroke-miterlimit="10"
       fill="none"
       fill-rule="evenodd"
       id="path1" /><path
       d="M3070.72 810.512C3073.23 810.512 3075.52 810.661 3077.59 810.958 3079.66 811.255 3081.72 811.769 3083.77 812.498L3081.95 821.009 3078.66 821.009C3078.37 818.604 3077.58 816.78 3076.29 815.538 3075.01 814.295 3072.99 813.673 3070.23 813.673 3068.1 813.673 3066.37 814.22 3065.05 815.315 3063.72 816.409 3063.06 817.848 3063.06 819.631 3063.06 820.604 3063.23 821.461 3063.57 822.204 3063.91 822.947 3064.59 823.765 3065.61 824.656 3066.64 825.548 3068.24 826.642 3070.4 827.939 3072.1 828.966 3073.46 829.905 3074.49 830.756 3075.52 831.607 3076.33 832.451 3076.92 833.289 3077.52 834.126 3077.95 835.011 3078.22 835.943 3078.49 836.875 3078.62 838.003 3078.62 839.327 3078.62 841.732 3077.98 843.792 3076.7 845.508 3075.42 847.223 3073.67 848.5 3071.47 849.337 3069.27 850.175 3066.76 850.594 3063.95 850.594 3061.71 850.594 3059.51 850.425 3057.35 850.087 3055.19 849.749 3052.78 849.175 3050.13 848.365L3052.08 839.53 3055.24 839.53C3055.35 842.124 3056.08 844.082 3057.43 845.406 3058.78 846.73 3060.93 847.392 3063.87 847.392 3066.44 847.392 3068.44 846.818 3069.89 845.67 3071.34 844.521 3072.06 842.894 3072.06 840.786 3072.06 839.57 3071.86 838.523 3071.45 837.645 3071.05 836.767 3070.38 835.923 3069.46 835.112 3068.55 834.302 3067.09 833.289 3065.09 832.073 3062.98 830.803 3061.34 829.655 3060.16 828.628 3058.99 827.601 3058.1 826.487 3057.51 825.284 3056.91 824.082 3056.62 822.697 3056.62 821.13 3056.62 818.996 3057.19 817.125 3058.34 815.517 3059.49 813.91 3061.13 812.674 3063.26 811.809 3065.4 810.945 3067.88 810.512 3070.72 810.512Z"
       fill-rule="evenodd"
       id="path2" /><text
       fill="#000000"
       fill-opacity="0"
       font-family="Arial,Arial_MSFontService,sans-serif"
       font-size="40.0815"
       x="3050.13"
       y="845.584"
       id="text2">𝑠</text><path
       d="M3093.71 836.338C3095.18 836.338 3096.32 836.819 3097.12 837.782 3097.93 838.746 3098.33 840.011 3098.33 841.58 3098.33 842.017 3098.3 842.444 3098.24 842.861 3098.18 843.278 3098.07 843.685 3097.91 844.082L3098.27 844.231C3100.16 841.59 3102.04 839.614 3103.93 838.304 3105.82 836.993 3107.75 836.338 3109.74 836.338 3111.84 836.338 3113.42 836.879 3114.46 837.961 3115.5 839.043 3116.02 840.637 3116.02 842.742 3116.02 842.92 3116.02 843.094 3116.02 843.263 3116.02 843.432 3116 843.605 3115.96 843.784L3116.08 843.784C3117.93 841.262 3119.77 839.391 3121.59 838.17 3123.42 836.948 3125.33 836.338 3127.31 836.338 3129.42 836.338 3130.99 836.904 3132.03 838.036 3133.07 839.167 3133.6 840.756 3133.6 842.801 3133.6 843.417 3133.5 844.246 3133.3 845.288 3133.1 846.331 3132.86 847.478 3132.57 848.729 3132.28 849.979 3131.97 851.275 3131.63 852.615 3131.29 853.956 3130.97 855.222 3130.68 856.413 3130.5 857.188 3130.35 857.818 3130.24 858.304 3130.14 858.791 3130.05 859.198 3129.99 859.526 3129.93 859.853 3129.89 860.136 3129.87 860.375 3129.85 860.613 3129.84 860.871 3129.84 861.149 3129.84 861.904 3129.98 862.45 3130.26 862.787 3130.54 863.125 3130.98 863.293 3131.6 863.293 3131.96 863.293 3132.31 863.224 3132.67 863.085 3133.03 862.946 3133.41 862.728 3133.82 862.43 3134.23 862.132 3134.67 861.75 3135.16 861.283 3135.65 860.816 3136.19 860.255 3136.78 859.6L3138.84 861.566C3137.88 862.559 3137 863.413 3136.17 864.127 3135.35 864.842 3134.55 865.433 3133.79 865.9 3133.02 866.366 3132.27 866.714 3131.51 866.942 3130.76 867.17 3129.96 867.285 3129.13 867.285 3128.37 867.285 3127.69 867.146 3127.07 866.868 3126.46 866.59 3125.94 866.207 3125.51 865.721 3125.08 865.234 3124.75 864.659 3124.51 863.993 3124.27 863.328 3124.15 862.598 3124.15 861.804 3124.15 860.176 3124.5 858.081 3125.2 855.52 3125.57 854.229 3125.92 852.993 3126.22 851.811 3126.53 850.63 3126.79 849.538 3127.01 848.535 3127.23 847.532 3127.41 846.639 3127.53 845.854 3127.66 845.07 3127.73 844.42 3127.73 843.903 3127.73 842.672 3127.49 841.769 3127.03 841.193 3126.56 840.617 3125.83 840.329 3124.84 840.329 3124.22 840.329 3123.57 840.488 3122.87 840.806 3122.18 841.123 3121.48 841.565 3120.77 842.131 3120.07 842.697 3119.38 843.367 3118.7 844.142 3118.03 844.916 3117.4 845.755 3116.83 846.658 3116.25 847.562 3115.74 848.51 3115.29 849.503 3114.85 850.496 3114.5 851.499 3114.26 852.511L3111.32 866.749 3105.51 866.749C3105.79 865.478 3106.1 864.113 3106.45 862.653 3106.79 861.194 3107.15 859.719 3107.5 858.23 3107.86 856.741 3108.2 855.271 3108.53 853.822 3108.86 852.372 3109.15 851.017 3109.41 849.756 3109.67 848.495 3109.88 847.363 3110.04 846.361 3110.19 845.358 3110.27 844.559 3110.27 843.963 3110.27 842.712 3110.03 841.794 3109.54 841.208 3109.06 840.622 3108.28 840.329 3107.21 840.329 3106.25 840.329 3105.23 840.687 3104.14 841.401 3103.05 842.116 3102.01 843.054 3101.03 844.216 3100.04 845.378 3099.16 846.688 3098.39 848.148 3097.61 849.607 3097.07 851.082 3096.75 852.571L3093.71 866.749 3087.88 866.749 3092.34 847.329C3092.6 846.256 3092.79 845.323 3092.91 844.529 3093.03 843.735 3093.09 843.079 3093.09 842.563 3093.09 841.113 3092.5 840.389 3091.33 840.389 3090.97 840.389 3090.61 840.463 3090.24 840.612 3089.88 840.761 3089.49 840.984 3089.08 841.282 3088.67 841.58 3088.23 841.957 3087.76 842.414 3087.28 842.871 3086.74 843.407 3086.15 844.022L3084.09 842.086C3085.07 841.094 3085.96 840.235 3086.79 839.51 3087.61 838.785 3088.41 838.19 3089.17 837.723 3089.94 837.256 3090.69 836.909 3091.42 836.68 3092.15 836.452 3092.92 836.338 3093.71 836.338Z"
       fill-rule="evenodd"
       id="path3" /><text
       fill="#000000"
       fill-opacity="0"
       font-family="Arial,Arial_MSFontService,sans-serif"
       font-size="30.9468"
       x="3084.09"
       y="863.416"
       id="text3">𝑚</text><path
       d="M3148.89 840.502 3155.99 840.502C3156.36 842.394 3156.55 844.258 3156.55 846.095 3156.55 847.987 3156.23 849.716 3155.58 851.283 3154.93 852.85 3153.9 854.41 3152.48 855.964 3151.06 857.517 3149.11 859.226 3146.62 861.09L3144.44 858.618C3145.81 857.321 3146.81 856.153 3147.43 855.113 3148.06 854.072 3148.5 852.89 3148.77 851.566 3149.04 850.242 3149.18 848.581 3149.18 846.582 3149.18 844.528 3149.08 842.502 3148.89 840.502Z"
       fill-rule="evenodd"
       id="path4" /><text
       fill="#000000"
       fill-opacity="0"
       font-family="Arial,Arial_MSFontService,sans-serif"
       font-size="20.5879"
       x="3144.44"
       y="858.517"
       id="text4">,</text><path
       d="M3200.38 813.673C3197.6 813.673 3195.1 814.795 3192.88 817.037 3190.67 819.28 3188.94 822.285 3187.69 826.054 3186.45 829.823 3185.83 833.586 3185.83 837.341 3185.83 840.151 3186.21 842.252 3186.98 843.643 3187.75 845.035 3189.04 845.73 3190.85 845.73 3192.64 845.73 3194.39 844.96 3196.1 843.42 3197.82 841.88 3199.59 839.685 3201.41 836.835 3203.24 833.984 3204.53 830.695 3205.28 826.966L3205.65 825.224C3205.89 824.116 3206.05 823.157 3206.13 822.346 3206.21 821.536 3206.26 820.658 3206.26 819.712 3206.26 817.632 3205.81 816.105 3204.92 815.132 3204.03 814.16 3202.51 813.673 3200.38 813.673ZM3199.57 810.472C3201.32 810.472 3202.97 810.668 3204.49 811.059 3206.02 811.451 3207.59 812.147 3209.21 813.146L3212.94 810.472 3215.54 811.12 3209.58 836.814C3208.98 839.381 3208.69 841.381 3208.69 842.812 3208.69 843.893 3208.86 844.677 3209.21 845.163 3209.56 845.649 3210.12 845.893 3210.88 845.893 3211.69 845.893 3212.55 845.562 3213.47 844.9 3214.39 844.238 3215.68 842.975 3217.36 841.11L3219.67 843.38C3217.24 845.974 3215.16 847.818 3213.45 848.912 3211.73 850.006 3209.88 850.553 3207.88 850.553 3206.2 850.553 3204.86 849.999 3203.86 848.892 3202.86 847.784 3202.36 846.311 3202.36 844.474 3202.36 842.988 3202.68 841.408 3203.3 839.732L3202.77 839.57C3200.18 843.353 3197.72 846.122 3195.39 847.878 3193.07 849.635 3190.61 850.513 3188.02 850.513 3185.05 850.513 3182.74 849.391 3181.11 847.149 3179.47 844.906 3178.66 841.759 3178.66 837.706 3178.66 833.059 3179.57 828.594 3181.39 824.312 3183.22 820.029 3185.72 816.652 3188.91 814.18 3192.1 811.708 3195.65 810.472 3199.57 810.472Z"
       fill-rule="evenodd"
       id="path5" /><text
       fill="#000000"
       fill-opacity="0"
       font-family="Arial,Arial_MSFontService,sans-serif"
       font-size="40.0815"
       x="3178.66"
       y="845.543"
       id="text5">𝑎</text><path
       d="M3231.08 836.338C3232.55 836.338 3233.68 836.819 3234.49 837.782 3235.29 838.746 3235.69 840.011 3235.69 841.58 3235.69 842.017 3235.66 842.444 3235.6 842.861 3235.54 843.278 3235.43 843.685 3235.28 844.082L3235.63 844.231C3237.52 841.59 3239.41 839.614 3241.29 838.304 3243.18 836.993 3245.11 836.338 3247.1 836.338 3249.2 836.338 3250.78 836.879 3251.82 837.961 3252.86 839.043 3253.38 840.637 3253.38 842.742 3253.38 842.92 3253.38 843.094 3253.38 843.263 3253.38 843.432 3253.36 843.605 3253.33 843.784L3253.44 843.784C3255.29 841.262 3257.13 839.391 3258.95 838.17 3260.78 836.948 3262.69 836.338 3264.67 836.338 3266.78 836.338 3268.35 836.904 3269.39 838.036 3270.44 839.167 3270.96 840.756 3270.96 842.801 3270.96 843.417 3270.86 844.246 3270.66 845.288 3270.46 846.331 3270.22 847.478 3269.93 848.729 3269.64 849.979 3269.33 851.275 3268.99 852.615 3268.65 853.956 3268.34 855.222 3268.04 856.413 3267.86 857.188 3267.72 857.818 3267.61 858.304 3267.5 858.791 3267.41 859.198 3267.35 859.526 3267.29 859.853 3267.25 860.136 3267.23 860.375 3267.22 860.613 3267.21 860.871 3267.21 861.149 3267.21 861.904 3267.34 862.45 3267.62 862.787 3267.9 863.125 3268.35 863.293 3268.96 863.293 3269.32 863.293 3269.68 863.224 3270.03 863.085 3270.39 862.946 3270.77 862.728 3271.18 862.43 3271.59 862.132 3272.04 861.75 3272.52 861.283 3273.01 860.816 3273.55 860.255 3274.15 859.6L3276.2 861.566C3275.25 862.559 3274.36 863.413 3273.53 864.127 3272.71 864.842 3271.92 865.433 3271.15 865.9 3270.39 866.366 3269.63 866.714 3268.87 866.942 3268.12 867.17 3267.32 867.285 3266.49 867.285 3265.74 867.285 3265.05 867.146 3264.44 866.868 3263.82 866.59 3263.3 866.207 3262.87 865.721 3262.44 865.234 3262.11 864.659 3261.87 863.993 3261.64 863.328 3261.52 862.598 3261.52 861.804 3261.52 860.176 3261.86 858.081 3262.56 855.52 3262.94 854.229 3263.28 852.993 3263.59 851.811 3263.89 850.63 3264.16 849.538 3264.38 848.535 3264.59 847.532 3264.77 846.639 3264.9 845.854 3265.03 845.07 3265.09 844.42 3265.09 843.903 3265.09 842.672 3264.86 841.769 3264.39 841.193 3263.92 840.617 3263.19 840.329 3262.2 840.329 3261.59 840.329 3260.93 840.488 3260.24 840.806 3259.54 841.123 3258.84 841.565 3258.14 842.131 3257.43 842.697 3256.74 843.367 3256.07 844.142 3255.39 844.916 3254.76 845.755 3254.19 846.658 3253.61 847.562 3253.1 848.51 3252.66 849.503 3252.21 850.496 3251.87 851.499 3251.63 852.511L3248.68 866.749 3242.87 866.749C3243.15 865.478 3243.46 864.113 3243.81 862.653 3244.16 861.194 3244.51 859.719 3244.87 858.23 3245.22 856.741 3245.57 855.271 3245.89 853.822 3246.22 852.372 3246.51 851.017 3246.77 849.756 3247.03 848.495 3247.24 847.363 3247.4 846.361 3247.56 845.358 3247.64 844.559 3247.64 843.963 3247.64 842.712 3247.39 841.794 3246.91 841.208 3246.42 840.622 3245.64 840.329 3244.57 840.329 3243.62 840.329 3242.59 840.687 3241.5 841.401 3240.41 842.116 3239.37 843.054 3238.39 844.216 3237.41 845.378 3236.53 846.688 3235.75 848.148 3234.98 849.607 3234.43 851.082 3234.11 852.571L3231.08 866.749 3225.24 866.749 3229.71 847.329C3229.96 846.256 3230.15 845.323 3230.27 844.529 3230.39 843.735 3230.45 843.079 3230.45 842.563 3230.45 841.113 3229.86 840.389 3228.69 840.389 3228.34 840.389 3227.97 840.463 3227.61 840.612 3227.24 840.761 3226.85 840.984 3226.44 841.282 3226.04 841.58 3225.6 841.957 3225.12 842.414 3224.64 842.871 3224.11 843.407 3223.51 844.022L3221.46 842.086C3222.43 841.094 3223.33 840.235 3224.15 839.51 3224.97 838.785 3225.77 838.19 3226.53 837.723 3227.3 837.256 3228.05 836.909 3228.78 836.68 3229.52 836.452 3230.28 836.338 3231.08 836.338Z"
       fill-rule="evenodd"
       id="path6" /><text
       fill="#000000"
       fill-opacity="0"
       font-family="Arial,Arial_MSFontService,sans-serif"
       font-size="30.9468"
       x="3221.46"
       y="863.416"
       id="text6">𝑚</text><path
       d="M3282.44 847.031 3316.76 847.031 3316.76 851.588 3282.44 851.588Z"
       fill-rule="evenodd"
       id="path7" /><text
       fill="#000000"
       fill-opacity="0"
       font-family="Arial,Arial_MSFontService,sans-serif"
       font-size="4.55713"
       x="3282.44"
       y="851.018"
       id="text7">−</text><path
       d="M3341.06 828.385 3342.87 828.385C3342.83 829.477 3342.8 830.455 3342.79 831.319 3342.77 832.183 3342.75 833.022 3342.74 833.836 3342.73 834.65 3342.73 835.454 3342.73 836.249L3342.73 858.885C3342.73 859.501 3342.75 860.032 3342.79 860.479 3342.82 860.926 3342.89 861.303 3342.98 861.611 3343.07 861.918 3343.19 862.181 3343.34 862.4 3343.49 862.618 3343.66 862.807 3343.86 862.966 3344.1 863.204 3344.41 863.388 3344.81 863.517 3345.21 863.646 3345.71 863.755 3346.33 863.844 3346.95 863.934 3347.68 864.003 3348.55 864.053 3349.41 864.103 3350.45 864.137 3351.66 864.157L3351.66 866.749 3328.04 866.749 3328.04 864.157C3329.21 864.117 3330.21 864.073 3331.02 864.023 3331.83 863.974 3332.53 863.904 3333.1 863.815 3333.68 863.725 3334.14 863.626 3334.49 863.517 3334.84 863.408 3335.14 863.274 3335.4 863.115 3335.68 862.936 3335.91 862.742 3336.11 862.534 3336.31 862.325 3336.47 862.062 3336.59 861.745 3336.71 861.427 3336.8 861.04 3336.87 860.583 3336.94 860.126 3336.98 859.56 3336.98 858.885L3336.98 837.529C3336.98 836.755 3336.83 836.209 3336.53 835.891 3336.23 835.573 3335.81 835.415 3335.25 835.415 3334.63 835.415 3333.72 835.732 3332.51 836.368 3331.3 837.003 3329.73 837.946 3327.8 839.197 3327.55 838.741 3327.31 838.284 3327.09 837.827 3326.87 837.37 3326.64 836.904 3326.4 836.427 3328.87 835.077 3331.3 833.732 3333.72 832.391 3336.13 831.051 3338.58 829.716 3341.06 828.385Z"
       fill-rule="evenodd"
       id="path8" /><text
       fill="#000000"
       fill-opacity="0"
       font-family="Arial,Arial_MSFontService,sans-serif"
       font-size="38.3633"
       x="3326.4"
       y="861.953"
       id="text8">1</text><path
       d="M3422.87 840.502 3431.06 840.502 3431.06 849.905 3422.87 849.905ZM3403.01 840.502 3411.2 840.502 3411.2 849.905 3403.01 849.905ZM3383.16 840.502 3391.34 840.502 3391.34 849.905 3383.16 849.905Z"
       fill-rule="evenodd"
       id="path9" /><text
       fill="#000000"
       fill-opacity="0"
       font-family="Arial,Arial_MSFontService,sans-serif"
       font-size="9.40234"
       x="3383.16"
       y="848.729"
       id="text9">…</text><path
       d="M3471.3 810.512C3473.82 810.512 3476.11 810.661 3478.17 810.958 3480.24 811.255 3482.3 811.769 3484.35 812.498L3482.53 821.009 3479.25 821.009C3478.95 818.604 3478.16 816.78 3476.88 815.538 3475.59 814.295 3473.57 813.673 3470.82 813.673 3468.68 813.673 3466.95 814.22 3465.63 815.315 3464.31 816.409 3463.64 817.848 3463.64 819.631 3463.64 820.604 3463.81 821.461 3464.15 822.204 3464.49 822.947 3465.17 823.765 3466.2 824.656 3467.22 825.548 3468.82 826.642 3470.98 827.939 3472.68 828.966 3474.05 829.905 3475.07 830.756 3476.1 831.607 3476.91 832.451 3477.51 833.289 3478.1 834.126 3478.53 835.011 3478.8 835.943 3479.07 836.875 3479.21 838.003 3479.21 839.327 3479.21 841.732 3478.57 843.792 3477.28 845.508 3476 847.223 3474.26 848.5 3472.05 849.337 3469.85 850.175 3467.35 850.594 3464.54 850.594 3462.29 850.594 3460.09 850.425 3457.93 850.087 3455.77 849.749 3453.36 849.175 3450.72 848.365L3452.66 839.53 3455.82 839.53C3455.93 842.124 3456.66 844.082 3458.01 845.406 3459.36 846.73 3461.51 847.392 3464.46 847.392 3467.02 847.392 3469.03 846.818 3470.47 845.67 3471.92 844.521 3472.64 842.894 3472.64 840.786 3472.64 839.57 3472.44 838.523 3472.03 837.645 3471.63 836.767 3470.97 835.923 3470.05 835.112 3469.13 834.302 3467.67 833.289 3465.67 832.073 3463.56 830.803 3461.92 829.655 3460.75 828.628 3459.57 827.601 3458.69 826.487 3458.09 825.284 3457.5 824.082 3457.2 822.697 3457.2 821.13 3457.2 818.996 3457.78 817.125 3458.92 815.517 3460.07 813.91 3461.71 812.674 3463.85 811.809 3465.98 810.945 3468.47 810.512 3471.3 810.512Z"
       fill-rule="evenodd"
       id="path10" /><text
       fill="#000000"
       fill-opacity="0"
       font-family="Arial,Arial_MSFontService,sans-serif"
       font-size="40.0815"
       x="3450.72"
       y="845.584"
       id="text10">𝑠</text><path
       d="M3494.3 836.338C3495.77 836.338 3496.9 836.819 3497.71 837.782 3498.51 838.746 3498.91 840.011 3498.91 841.58 3498.91 841.977 3498.88 842.394 3498.81 842.831 3498.74 843.268 3498.62 843.685 3498.44 844.082L3498.85 844.231C3500.78 841.59 3502.68 839.614 3504.56 838.304 3506.43 836.993 3508.38 836.338 3510.38 836.338 3512.49 836.338 3514.06 836.904 3515.1 838.036 3516.14 839.167 3516.67 840.756 3516.67 842.801 3516.67 843.417 3516.58 844.271 3516.4 845.363 3516.22 846.455 3515.99 847.646 3515.71 848.937 3515.43 850.228 3515.14 851.553 3514.82 852.913 3514.5 854.273 3514.2 855.529 3513.93 856.681 3513.65 857.833 3513.42 858.816 3513.24 859.63 3513.06 860.444 3512.97 860.95 3512.97 861.149 3512.97 861.904 3513.11 862.45 3513.39 862.787 3513.67 863.125 3514.11 863.293 3514.73 863.293 3515.11 863.293 3515.48 863.224 3515.85 863.085 3516.21 862.946 3516.6 862.728 3516.99 862.43 3517.39 862.132 3517.83 861.75 3518.3 861.283 3518.78 860.816 3519.32 860.255 3519.91 859.6L3521.97 861.566C3520.99 862.559 3520.1 863.413 3519.29 864.127 3518.47 864.842 3517.68 865.433 3516.92 865.9 3516.15 866.366 3515.39 866.714 3514.64 866.942 3513.89 867.17 3513.08 867.285 3512.23 867.285 3511.51 867.285 3510.85 867.146 3510.25 866.868 3509.64 866.59 3509.12 866.207 3508.68 865.721 3508.25 865.234 3507.91 864.659 3507.67 863.993 3507.43 863.328 3507.31 862.598 3507.31 861.804 3507.31 861.01 3507.4 860.082 3507.57 859.019 3507.73 857.957 3507.99 856.79 3508.33 855.52 3508.68 854.229 3509.02 852.993 3509.32 851.811 3509.63 850.63 3509.9 849.538 3510.13 848.535 3510.36 847.532 3510.53 846.639 3510.66 845.854 3510.79 845.07 3510.86 844.42 3510.86 843.903 3510.86 842.672 3510.62 841.769 3510.16 841.193 3509.69 840.617 3508.94 840.329 3507.91 840.329 3507.31 840.329 3506.67 840.483 3505.99 840.791 3505.3 841.099 3504.61 841.525 3503.92 842.072 3503.22 842.618 3502.54 843.263 3501.88 844.008 3501.21 844.752 3500.6 845.546 3500.05 846.39 3499.49 847.234 3499 848.118 3498.57 849.041 3498.14 849.965 3497.83 850.883 3497.63 851.796L3494.3 866.749 3488.46 866.749 3492.93 847.329C3493.18 846.296 3493.37 845.373 3493.49 844.559 3493.61 843.744 3493.67 843.079 3493.67 842.563 3493.67 841.113 3493.09 840.389 3491.91 840.389 3491.56 840.389 3491.19 840.463 3490.83 840.612 3490.46 840.761 3490.07 840.984 3489.67 841.282 3489.26 841.58 3488.82 841.957 3488.34 842.414 3487.86 842.871 3487.33 843.407 3486.73 844.022L3484.68 842.086C3485.67 841.074 3486.58 840.205 3487.4 839.48 3488.23 838.755 3489.01 838.16 3489.75 837.693 3490.5 837.227 3491.24 836.884 3491.97 836.666 3492.71 836.447 3493.48 836.338 3494.3 836.338Z"
       fill-rule="evenodd"
       id="path11" /><text
       fill="#000000"
       fill-opacity="0"
       font-family="Arial,Arial_MSFontService,sans-serif"
       font-size="30.9468"
       x="3484.68"
       y="863.416"
       id="text11">𝑛</text><path
       d="M3532.29 840.502 3539.38 840.502C3539.76 842.394 3539.95 844.258 3539.95 846.095 3539.95 847.987 3539.62 849.716 3538.98 851.283 3538.33 852.85 3537.29 854.41 3535.88 855.964 3534.46 857.517 3532.51 859.226 3530.02 861.09L3527.83 858.618C3529.21 857.321 3530.21 856.153 3530.83 855.113 3531.45 854.072 3531.9 852.89 3532.17 851.566 3532.44 850.242 3532.57 848.581 3532.57 846.582 3532.57 844.528 3532.48 842.502 3532.29 840.502Z"
       fill-rule="evenodd"
       id="path12" /><text
       fill="#000000"
       fill-opacity="0"
       font-family="Arial,Arial_MSFontService,sans-serif"
       font-size="20.5879"
       x="3527.83"
       y="858.517"
       id="text12">,</text><path
       d="M3583.77 813.673C3580.99 813.673 3578.49 814.795 3576.28 817.037 3574.06 819.28 3572.33 822.285 3571.09 826.054 3569.85 829.823 3569.23 833.586 3569.23 837.341 3569.23 840.151 3569.61 842.252 3570.38 843.643 3571.15 845.035 3572.44 845.73 3574.25 845.73 3576.03 845.73 3577.78 844.96 3579.5 843.42 3581.21 841.88 3582.98 839.685 3584.81 836.835 3586.63 833.984 3587.92 830.695 3588.68 826.966L3589.04 825.224C3589.29 824.116 3589.45 823.157 3589.53 822.346 3589.61 821.536 3589.65 820.658 3589.65 819.712 3589.65 817.632 3589.21 816.105 3588.31 815.132 3587.42 814.16 3585.91 813.673 3583.77 813.673ZM3582.96 810.472C3584.72 810.472 3586.36 810.668 3587.89 811.059 3589.41 811.451 3590.99 812.147 3592.61 813.146L3596.34 810.472 3598.93 811.12 3592.97 836.814C3592.38 839.381 3592.08 841.381 3592.08 842.812 3592.08 843.893 3592.26 844.677 3592.61 845.163 3592.96 845.649 3593.51 845.893 3594.27 845.893 3595.08 845.893 3595.95 845.562 3596.86 844.9 3597.78 844.238 3599.08 842.975 3600.76 841.11L3603.07 843.38C3600.63 845.974 3598.56 847.818 3596.84 848.912 3595.13 850.006 3593.27 850.553 3591.27 850.553 3589.6 850.553 3588.26 849.999 3587.26 848.892 3586.26 847.784 3585.76 846.311 3585.76 844.474 3585.76 842.988 3586.07 841.408 3586.69 839.732L3586.17 839.57C3583.57 843.353 3581.11 846.122 3578.79 847.878 3576.47 849.635 3574.01 850.513 3571.41 850.513 3568.44 850.513 3566.14 849.391 3564.5 847.149 3562.87 844.906 3562.05 841.759 3562.05 837.706 3562.05 833.059 3562.96 828.594 3564.79 824.312 3566.61 820.029 3569.12 816.652 3572.31 814.18 3575.49 811.708 3579.05 810.472 3582.96 810.472Z"
       fill-rule="evenodd"
       id="path13" /><text
       fill="#000000"
       fill-opacity="0"
       font-family="Arial,Arial_MSFontService,sans-serif"
       font-size="40.0815"
       x="3562.05"
       y="845.543"
       id="text13">𝑎</text><path
       d="M3614.47 836.338C3615.94 836.338 3617.08 836.819 3617.88 837.782 3618.69 838.746 3619.09 840.011 3619.09 841.58 3619.09 841.977 3619.05 842.394 3618.98 842.831 3618.91 843.268 3618.79 843.685 3618.61 844.082L3619.03 844.231C3620.95 841.59 3622.86 839.614 3624.73 838.304 3626.61 836.993 3628.55 836.338 3630.56 836.338 3632.66 836.338 3634.23 836.904 3635.28 838.036 3636.32 839.167 3636.84 840.756 3636.84 842.801 3636.84 843.417 3636.75 844.271 3636.57 845.363 3636.39 846.455 3636.17 847.646 3635.89 848.937 3635.61 850.228 3635.31 851.553 3634.99 852.913 3634.68 854.273 3634.38 855.529 3634.1 856.681 3633.82 857.833 3633.59 858.816 3633.42 859.63 3633.24 860.444 3633.15 860.95 3633.15 861.149 3633.15 861.904 3633.29 862.45 3633.56 862.787 3633.84 863.125 3634.29 863.293 3634.9 863.293 3635.28 863.293 3635.65 863.224 3636.02 863.085 3636.39 862.946 3636.77 862.728 3637.17 862.43 3637.57 862.132 3638 861.75 3638.48 861.283 3638.96 860.816 3639.49 860.255 3640.09 859.6L3642.14 861.566C3641.17 862.559 3640.28 863.413 3639.46 864.127 3638.65 864.842 3637.86 865.433 3637.09 865.9 3636.33 866.366 3635.57 866.714 3634.81 866.942 3634.06 867.17 3633.26 867.285 3632.4 867.285 3631.69 867.285 3631.03 867.146 3630.42 866.868 3629.82 866.59 3629.29 866.207 3628.86 865.721 3628.42 865.234 3628.08 864.659 3627.85 863.993 3627.61 863.328 3627.49 862.598 3627.49 861.804 3627.49 861.01 3627.57 860.082 3627.74 859.019 3627.91 857.957 3628.16 856.79 3628.5 855.52 3628.86 854.229 3629.19 852.993 3629.5 851.811 3629.81 850.63 3630.07 849.538 3630.3 848.535 3630.53 847.532 3630.71 846.639 3630.84 845.854 3630.97 845.07 3631.03 844.42 3631.03 843.903 3631.03 842.672 3630.8 841.769 3630.33 841.193 3629.87 840.617 3629.12 840.329 3628.08 840.329 3627.49 840.329 3626.85 840.483 3626.16 840.791 3625.48 841.099 3624.79 841.525 3624.09 842.072 3623.4 842.618 3622.72 843.263 3622.05 844.008 3621.39 844.752 3620.78 845.546 3620.22 846.39 3619.66 847.234 3619.17 848.118 3618.75 849.041 3618.32 849.965 3618.01 850.883 3617.81 851.796L3614.47 866.749 3608.63 866.749 3613.1 847.329C3613.36 846.296 3613.55 845.373 3613.67 844.559 3613.79 843.744 3613.85 843.079 3613.85 842.563 3613.85 841.113 3613.26 840.389 3612.09 840.389 3611.73 840.389 3611.37 840.463 3611 840.612 3610.63 840.761 3610.25 840.984 3609.84 841.282 3609.43 841.58 3608.99 841.957 3608.51 842.414 3608.04 842.871 3607.5 843.407 3606.91 844.022L3604.85 842.086C3605.84 841.074 3606.75 840.205 3607.58 839.48 3608.4 838.755 3609.18 838.16 3609.93 837.693 3610.67 837.227 3611.41 836.884 3612.15 836.666 3612.88 836.447 3613.66 836.338 3614.47 836.338Z"
       fill-rule="evenodd"
       id="path14" /><text
       fill="#000000"
       fill-opacity="0"
       font-family="Arial,Arial_MSFontService,sans-serif"
       font-size="30.9468"
       x="3604.85"
       y="863.416"
       id="text14">𝑛</text><path
       d="M3648.65 847.031 3682.97 847.031 3682.97 851.588 3648.65 851.588Z"
       fill-rule="evenodd"
       id="path15" /><text
       fill="#000000"
       fill-opacity="0"
       font-family="Arial,Arial_MSFontService,sans-serif"
       font-size="4.55713"
       x="3648.65"
       y="851.018"
       id="text15">−</text><path
       d="M3707.27 828.385 3709.08 828.385C3709.04 829.477 3709.01 830.455 3708.99 831.319 3708.97 832.183 3708.96 833.022 3708.95 833.836 3708.94 834.65 3708.93 835.454 3708.93 836.249L3708.93 858.885C3708.93 859.501 3708.95 860.032 3708.99 860.479 3709.03 860.926 3709.1 861.303 3709.19 861.611 3709.28 861.918 3709.4 862.181 3709.54 862.4 3709.69 862.618 3709.87 862.807 3710.07 862.966 3710.3 863.204 3710.62 863.388 3711.02 863.517 3711.42 863.646 3711.92 863.755 3712.54 863.844 3713.15 863.934 3713.89 864.003 3714.76 864.053 3715.62 864.103 3716.66 864.137 3717.87 864.157L3717.87 866.749 3694.25 866.749 3694.25 864.157C3695.42 864.117 3696.41 864.073 3697.23 864.023 3698.04 863.974 3698.74 863.904 3699.31 863.815 3699.89 863.725 3700.35 863.626 3700.7 863.517 3701.05 863.408 3701.35 863.274 3701.61 863.115 3701.89 862.936 3702.12 862.742 3702.32 862.534 3702.52 862.325 3702.68 862.062 3702.8 861.745 3702.92 861.427 3703.01 861.04 3703.08 860.583 3703.15 860.126 3703.19 859.56 3703.19 858.885L3703.19 837.529C3703.19 836.755 3703.04 836.209 3702.74 835.891 3702.44 835.573 3702.01 835.415 3701.46 835.415 3700.84 835.415 3699.93 835.732 3698.72 836.368 3697.51 837.003 3695.94 837.946 3694.01 839.197 3693.75 838.741 3693.52 838.284 3693.3 837.827 3693.08 837.37 3692.85 836.904 3692.61 836.427 3695.07 835.077 3697.51 833.732 3699.92 832.391 3702.34 831.051 3704.78 829.716 3707.27 828.385Z"
       fill-rule="evenodd"
       id="path16" /><text
       fill="#000000"
       fill-opacity="0"
       font-family="Arial,Arial_MSFontService,sans-serif"
       font-size="38.3633"
       x="3692.61"
       y="861.953"
       id="text16">1</text><path
       d="m 14.436035,-1.2832031 q 0,0.35644529 -0.249512,0.64160154 -0.213867,0.28515625 -0.748535,0.4633789 Q 12.90332,0 12.012207,0.10693359 q -0.891113,0.1069336 -2.28125,0.1069336 -1.3544922,0 -2.28125,-0.1069336 Q 6.5585937,0 6.0239258,-0.17822266 5.4892578,-0.35644531 5.2397461,-0.64160156 5.0258789,-0.92675781 5.0258789,-1.2832031 V -44.84082 q 0,-0.356446 0.2138672,-0.641602 0.2495117,-0.285156 0.7841797,-0.463379 0.5703125,-0.178222 1.4614258,-0.285156 0.8911132,-0.106934 2.2456054,-0.106934 1.390137,0 2.28125,0.106934 0.891113,0.106934 1.425781,0.285156 0.534668,0.178223 0.748535,0.463379 0.249512,0.285156 0.249512,0.641602 z m 39.886231,0.071289 q 0,0.35644535 -0.213868,0.6416016 -0.213867,0.24951172 -0.71289,0.42773438 -0.499024,0.17822265 -1.390137,0.24951171 -0.855469,0.1069336 -2.138672,0.1069336 -1.318847,0 -2.209961,-0.1069336 Q 46.80127,0.03564453 46.302246,-0.14257812 45.803223,-0.32080078 45.589355,-0.5703125 45.375488,-0.85546875 45.375488,-1.2119141 V -19.35498 q 0,-2.316895 -0.356445,-3.635743 -0.320801,-1.318847 -0.962402,-2.245605 -0.641602,-0.962402 -1.675293,-1.461426 -0.998047,-0.534668 -2.352539,-0.534668 -1.710938,0 -3.45752,1.247559 -1.746582,1.247558 -3.635742,3.635742 v 21.1372069 q 0,0.35644535 -0.213867,0.6416016 -0.213868,0.24951172 -0.748535,0.42773438 -0.499024,0.17822265 -1.354493,0.24951171 -0.855468,0.1069336 -2.174316,0.1069336 -1.318848,0 -2.174316,-0.1069336 Q 25.414551,0.03564453 24.879883,-0.14257812 24.380859,-0.32080078 24.166992,-0.5703125 23.953125,-0.85546875 23.953125,-1.2119141 V -33.006836 q 0,-0.356445 0.178223,-0.605957 0.178222,-0.285156 0.641601,-0.463379 0.463379,-0.178223 1.17627,-0.249512 0.748535,-0.106933 1.853515,-0.106933 1.140625,0 1.889161,0.106933 0.748535,0.07129 1.140625,0.249512 0.427734,0.178223 0.605957,0.463379 0.178222,0.249512 0.178222,0.605957 v 3.671387 q 2.637696,-2.851563 5.34668,-4.277344 2.744629,-1.425781 5.703125,-1.425781 3.243652,0 5.453613,1.069336 2.245606,1.069336 3.600098,2.922851 1.390137,1.817871 1.996094,4.277344 0.605957,2.459473 0.605957,5.916992 z m 26.947265,-3.1367187 q 0,1.5683594 -0.213867,2.4238281 -0.178223,0.8198242 -0.499023,1.17626954 -0.320801,0.32080078 -0.962403,0.60595704 -0.605957,0.24951171 -1.461426,0.42773437 -0.819824,0.21386719 -1.817871,0.32080078 -0.962402,0.10693359 -1.960449,0.10693359 -2.67334,0 -4.633789,-0.67724609 -1.960449,-0.67724609 -3.243652,-2.06738283 -1.283203,-1.4257812 -1.88916,-3.5644531 -0.605957,-2.1386719 -0.605957,-5.0615236 v -16.289551 h -3.813965 q -0.677246,0 -1.033692,-0.819824 -0.356445,-0.855469 -0.356445,-2.815918 0,-1.033691 0.07129,-1.746582 0.106934,-0.71289 0.285156,-1.10498 0.178223,-0.427735 0.427735,-0.605957 0.285156,-0.178223 0.641601,-0.178223 h 3.778321 v -7.093262 q 0,-0.356445 0.178222,-0.641601 0.213867,-0.285157 0.712891,-0.463379 0.534668,-0.213867 1.390137,-0.285156 0.891113,-0.106934 2.174316,-0.106934 1.318848,0 2.174316,0.106934 0.891114,0.07129 1.390137,0.285156 0.499024,0.178222 0.712891,0.463379 0.213867,0.285156 0.213867,0.641601 v 7.093262 h 6.915039 q 0.356445,0 0.605957,0.178223 0.285156,0.178222 0.463379,0.605957 0.178223,0.39209 0.249512,1.10498 0.106933,0.712891 0.106933,1.746582 0,1.960449 -0.356445,2.815918 -0.356445,0.819824 -1.033691,0.819824 h -6.950684 v 14.935059 q 0,2.6020507 0.819824,3.9208984 0.819824,1.2832031 2.922852,1.2832031 0.71289,0 1.283203,-0.1069336 0.570312,-0.1425781 0.998047,-0.2851562 0.463379,-0.1782227 0.748535,-0.2851563 0.320801,-0.1425781 0.570312,-0.1425781 0.213868,0 0.39209,0.1425781 0.213867,0.1069336 0.320801,0.4990235 0.106934,0.3564453 0.178223,0.9980469 0.106933,0.6416015 0.106933,1.6396484 z M 116.23682,-18.036133 q 0,1.639649 -0.74854,2.423828 -0.71289,0.78418 -1.99609,0.78418 H 94.137207 q 0,2.031738 0.463379,3.707031 0.499023,1.6396487 1.532715,2.8159182 1.069336,1.140625 2.708984,1.7465821 1.675295,0.605957 3.992185,0.605957 2.35254,0 4.13477,-0.3208008 1.78222,-0.3564453 3.06543,-0.7485352 1.31885,-0.4277343 2.17431,-0.7485351 0.85547,-0.3564453 1.39014,-0.3564453 0.3208,0 0.53467,0.1425781 0.21387,0.1069336 0.35644,0.4277344 0.14258,0.3208008 0.17823,0.9267578 0.0713,0.5703125 0.0713,1.4614258 0,0.7841797 -0.0357,1.3544922 -0.0356,0.5346679 -0.10693,0.9267578 -0.0713,0.3920898 -0.21387,0.6772461 -0.14258,0.2495117 -0.39209,0.4990234 -0.21387,0.2495117 -1.24756,0.6772461 -1.03369,0.42773437 -2.63769,0.85546874 -1.60401,0.39208985 -3.67139,0.6772461 -2.06738,0.32080078 -4.41992,0.32080078 -4.241701,0 -7.449709,-1.06933594 -3.172363,-1.06933598 -5.311035,-3.24365238 -2.138672,-2.1743164 -3.208008,-5.4892578 -1.033691,-3.3149411 -1.033691,-7.7705081 0,-4.241699 1.10498,-7.627929 1.104981,-3.421875 3.208008,-5.774414 2.103028,-2.388184 5.097168,-3.635743 3.029785,-1.247558 6.808107,-1.247558 3.99219,0 6.8081,1.176269 2.85157,1.17627 4.66944,3.279297 1.81787,2.067383 2.67334,4.918946 0.85547,2.851562 0.85547,6.202148 z m -8.69727,-2.566406 q 0.10693,-3.77832 -1.53271,-5.916992 -1.60401,-2.174317 -4.99024,-2.174317 -1.710936,0 -2.994139,0.641602 -1.247559,0.641601 -2.103027,1.746582 -0.819825,1.069336 -1.283204,2.566406 -0.427734,1.461426 -0.499023,3.136719 z m 36.5,-9.445801 q 0,1.283203 -0.0713,2.103028 -0.0713,0.819824 -0.21387,1.283203 -0.14257,0.463379 -0.39209,0.641601 -0.21386,0.178223 -0.57031,0.178223 -0.28515,0 -0.6416,-0.106934 -0.35644,-0.142578 -0.81982,-0.285156 -0.42774,-0.142578 -0.96241,-0.249512 -0.53466,-0.142578 -1.17627,-0.142578 -0.74853,0 -1.49707,0.320801 -0.74853,0.285156 -1.56836,0.926758 -0.78417,0.641601 -1.67529,1.710937 -0.85547,1.069336 -1.85351,2.637696 v 19.8183589 q 0,0.35644535 -0.21387,0.6416016 -0.21387,0.24951172 -0.74854,0.42773438 -0.49902,0.17822265 -1.35449,0.24951171 -0.85547,0.1069336 -2.17431,0.1069336 -1.31885,0 -2.17432,-0.1069336 -0.85547,-0.07128906 -1.39014,-0.24951171 -0.49902,-0.17822266 -0.71289,-0.42773438 -0.21387,-0.28515625 -0.21387,-0.6416016 V -33.006836 q 0,-0.356445 0.17823,-0.605957 0.17822,-0.285156 0.6416,-0.463379 0.46338,-0.178223 1.17627,-0.249512 0.74853,-0.106933 1.85351,-0.106933 1.14063,0 1.88916,0.106933 0.74854,0.07129 1.14063,0.249512 0.42773,0.178223 0.60596,0.463379 0.17822,0.249512 0.17822,0.605957 v 3.956543 q 1.24756,-1.782227 2.35254,-2.922852 1.10498,-1.176269 2.10302,-1.853515 0.99805,-0.677246 1.9961,-0.926758 0.99805,-0.285156 1.99609,-0.285156 0.46338,0 0.99805,0.07129 0.53467,0.03564 1.10498,0.178223 0.57031,0.106933 0.99805,0.285156 0.42773,0.142578 0.60595,0.320801 0.21387,0.178222 0.28516,0.392089 0.10693,0.213868 0.17822,0.605957 0.0713,0.356446 0.10694,1.104981 0.0356,0.748535 0.0356,2.031738 z m 31.01074,28.9433595 q 0,0.49902347 -0.35644,0.78417972 -0.35645,0.28515625 -1.14063,0.39208984 -0.74853,0.14257813 -2.2456,0.14257813 -1.60401,0 -2.35254,-0.14257813 -0.71289,-0.10693359 -1.03369,-0.39208984 -0.28516,-0.28515625 -0.28516,-0.78417972 v -2.5307617 q -1.96045,2.1030274 -4.49121,3.27929689 -2.49512,1.17626953 -5.56055,1.17626953 -2.53076,0 -4.66943,-0.6772461 -2.10303,-0.64160156 -3.67139,-1.92480472 -1.53271,-1.3188476 -2.38818,-3.2436523 Q 146,-6.9506836 146,-9.5170898 q 0,-2.7802732 1.06934,-4.8120122 1.10498,-2.067382 3.24365,-3.38623 2.17431,-1.354492 5.38232,-1.996094 3.20801,-0.641601 7.44971,-0.641601 h 3.10107 v -1.924805 q 0,-1.49707 -0.3208,-2.602051 -0.28515,-1.140625 -0.99804,-1.88916 -0.67725,-0.748535 -1.85352,-1.10498 -1.14062,-0.356446 -2.85156,-0.356446 -2.24561,0 -4.02783,0.499024 -1.74659,0.499023 -3.10108,1.10498 -1.35449,0.605957 -2.28125,1.104981 -0.89111,0.499023 -1.46142,0.499023 -0.39209,0 -0.71289,-0.249512 -0.28516,-0.249511 -0.49903,-0.71289 -0.17822,-0.463379 -0.28515,-1.140625 -0.10694,-0.677246 -0.10694,-1.497071 0,-1.10498 0.17822,-1.746582 0.17823,-0.641601 0.67725,-1.140625 0.49902,-0.534668 1.74658,-1.140625 1.24756,-0.641601 2.92285,-1.176269 1.6753,-0.534668 3.63575,-0.855469 1.99609,-0.356445 4.09912,-0.356445 3.74267,0 6.38037,0.748535 2.67334,0.712891 4.38428,2.245605 1.71093,1.497071 2.49511,3.885254 0.78418,2.388184 0.78418,5.667481 z m -8.8042,-13.6162105 h -3.42187 q -2.17432,0 -3.70703,0.3208 -1.53272,0.320801 -2.49512,0.962403 -0.9624,0.641601 -1.42578,1.568359 -0.42774,0.891113 -0.42774,2.0673829 0,1.9960938 1.24756,3.1367188 1.28321,1.140625 3.52881,1.140625 1.88916,0 3.45752,-0.9624024 1.60401,-0.9624023 3.24365,-2.815918 z m 41.81104,8.4477535 q 0,0.9267578 -0.0713,1.5683594 -0.0356,0.605957 -0.14258,1.0336914 -0.0713,0.4277344 -0.21387,0.7128906 -0.10693,0.2495117 -0.53466,0.6772461 -0.42774,0.3920898 -1.46143,0.9980469 -1.03369,0.57031248 -2.35254,1.03369138 -1.31885,0.46337891 -2.88721,0.74853516 -1.53271,0.28515625 -3.17236,0.28515625 -3.67139,0 -6.52295,-1.140625 -2.81592,-1.14062499 -4.74072,-3.35058599 -1.92481,-2.2456054 -2.92285,-5.4536132 -0.9624,-3.2080075 -0.9624,-7.3427735 0,-4.776367 1.17627,-8.233887 1.21191,-3.493164 3.35058,-5.774414 2.13867,-2.28125 5.06152,-3.38623 2.92286,-1.104981 6.41602,-1.104981 1.42578,0 2.78027,0.249512 1.39014,0.249512 2.56641,0.677246 1.21191,0.427735 2.13867,0.962402 0.9624,0.534668 1.35449,0.926758 0.39209,0.39209 0.53467,0.677246 0.17822,0.249512 0.24951,0.677246 0.10694,0.427735 0.14258,1.069336 0.0713,0.605957 0.0713,1.497071 0,2.067383 -0.35644,2.922851 -0.35645,0.819825 -0.92676,0.819825 -0.60596,0 -1.28321,-0.499024 -0.67724,-0.499023 -1.604,-1.10498 -0.92676,-0.605957 -2.20996,-1.104981 -1.2832,-0.499023 -3.06543,-0.499023 -3.49316,0 -5.34668,2.708984 -1.85352,2.67334 -1.85352,7.877441 0,2.566407 0.46338,4.526856 0.46338,1.960449 1.3545,3.2792968 0.92675,1.3188477 2.28125,1.9960938 1.39013,0.6416015 3.208,0.6416015 1.85352,0 3.17237,-0.5346679 1.35449,-0.5703125 2.35254,-1.2475586 0.99804,-0.6772461 1.67529,-1.2119141 0.67724,-0.5703125 1.14062,-0.5703125 0.3208,0 0.53467,0.178223 0.21387,0.1782223 0.3208,0.6772457 0.14258,0.463379 0.21387,1.2119141 0.0713,0.7485352 0.0713,1.9248047 z M 245.59082,-34.21875 q 1.49707,0 2.06738,0.641602 0.60596,0.641601 0.60596,1.853515 v 30.5117189 q 0,0.35644535 -0.21387,0.6416016 -0.21386,0.24951172 -0.71289,0.42773438 -0.49902,0.17822265 -1.39013,0.24951171 -0.85547,0.1069336 -2.13868,0.1069336 -1.31884,0 -2.20996,-0.1069336 -0.85547,-0.07128906 -1.35449,-0.24951171 -0.49902,-0.17822266 -0.71289,-0.42773438 -0.21387,-0.28515625 -0.21387,-0.6416016 V -26.947266 h -14.29345 v 14.935059 q 0,2.6020507 0.81982,3.9208984 0.81982,1.2832031 2.92285,1.2832031 0.71289,0 1.2832,-0.1069336 0.57032,-0.1425781 0.99805,-0.2851562 0.46338,-0.1782227 0.74854,-0.2851563 0.3208,-0.1425781 0.57031,-0.1425781 0.21387,0 0.39209,0.1425781 0.21387,0.1069336 0.3208,0.4990235 0.10693,0.3564453 0.17822,0.9980469 0.10694,0.6416015 0.10694,1.6396484 0,1.5683594 -0.17823,2.3881836 -0.17822,0.7841797 -0.49902,1.17626951 -0.3208,0.35644531 -0.9624,0.64160157 -0.6416,0.24951171 -1.49707,0.42773437 -0.81983,0.21386719 -1.81787,0.32080078 -0.96241,0.10693359 -1.96045,0.10693359 -2.67334,0 -4.63379,-0.67724609 -1.96045,-0.67724609 -3.24365,-2.06738283 -1.28321,-1.4257812 -1.88916,-3.5644531 -0.60596,-2.1386719 -0.60596,-5.0615236 v -16.289551 h -3.81397 q -0.67724,0 -1.03369,-0.819824 -0.35644,-0.855469 -0.35644,-2.815918 0,-1.033691 0.0713,-1.746582 0.10693,-0.71289 0.28515,-1.10498 0.17822,-0.427735 0.42774,-0.605957 0.28515,-0.178223 0.6416,-0.178223 h 3.77832 v -7.093262 q 0,-0.356445 0.17822,-0.641601 0.21387,-0.285157 0.71289,-0.463379 0.53467,-0.213867 1.39014,-0.285156 0.89111,-0.106934 2.17431,-0.106934 1.31885,0 2.17432,0.106934 0.89111,0.07129 1.39014,0.285156 0.49902,0.178222 0.71289,0.463379 0.21387,0.285156 0.21387,0.641601 v 7.093262 z m 3.38623,-9.552734 q 0,2.708984 -1.10498,3.742675 -1.10498,1.033692 -4.09912,1.033692 -3.02979,0 -4.09912,-0.998047 -1.03369,-0.998047 -1.03369,-3.600098 0,-2.708984 1.06933,-3.742675 1.10498,-1.069336 4.13477,-1.069336 2.99414,0 4.06347,1.033691 1.06934,0.998047 1.06934,3.600098 z m -14.15088,9.552734 z m 54.60742,16.788574 q 0,4.063477 -1.06933,7.414063 -1.06934,3.3505857 -3.24365,5.7744138 -2.17432,2.4238281 -5.45362,3.74267576 -3.27929,1.31884766 -7.66357,1.31884766 -4.2417,0 -7.37842,-1.17626953 -3.13672,-1.17626949 -5.2041,-3.42187499 -2.06738,-2.2456055 -3.06543,-5.5249024 -0.99805,-3.2792973 -0.99805,-7.4853513 0,-4.063477 1.06934,-7.414063 1.10498,-3.38623 3.27929,-5.774414 2.17432,-2.423828 5.41797,-3.742676 3.2793,-1.318847 7.66358,-1.318847 4.27734,0 7.41406,1.176269 3.13672,1.140625 5.16846,3.386231 2.06738,2.245605 3.06543,5.524902 0.99804,3.279297 0.99804,7.520996 z m -9.23193,0.356446 q 0,-2.35254 -0.39209,-4.312989 -0.35645,-1.996093 -1.24756,-3.457519 -0.89111,-1.461426 -2.38818,-2.28125 -1.46143,-0.819824 -3.70703,-0.819824 -1.9961,0 -3.49317,0.748535 -1.49707,0.71289 -2.45947,2.138672 -0.9624,1.390136 -1.46143,3.38623 -0.46337,1.960449 -0.46337,4.491211 0,2.352539 0.39209,4.348633 0.39209,1.960449 1.24755,3.4218747 0.89112,1.4614258 2.38819,2.2812501 1.49707,0.7841796 3.70703,0.7841796 2.03174,0 3.52881,-0.7128906 1.49707,-0.7485351 2.45947,-2.1386719 0.9624,-1.3901369 1.42578,-3.3505859 0.46338,-1.996094 0.46338,-4.526855 z M 326.896,-1.2119141 q 0,0.35644535 -0.21387,0.6416016 -0.21387,0.24951172 -0.71289,0.42773438 -0.49903,0.17822265 -1.39014,0.24951171 -0.85547,0.1069336 -2.13867,0.1069336 -1.31885,0 -2.20996,-0.1069336 -0.85547,-0.07128906 -1.35449,-0.24951171 -0.49903,-0.17822266 -0.71289,-0.42773438 -0.21387,-0.28515625 -0.21387,-0.6416016 V -19.35498 q 0,-2.316895 -0.35645,-3.635743 -0.3208,-1.318847 -0.9624,-2.245605 -0.6416,-0.962402 -1.67529,-1.461426 -0.99805,-0.534668 -2.35254,-0.534668 -1.71094,0 -3.45752,1.247559 -1.74658,1.247558 -3.63574,3.635742 v 21.1372069 q 0,0.35644535 -0.21387,0.6416016 -0.21387,0.24951172 -0.74854,0.42773438 -0.49902,0.17822265 -1.35449,0.24951171 -0.85547,0.1069336 -2.17431,0.1069336 -1.31885,0 -2.17432,-0.1069336 -0.85547,-0.07128906 -1.39014,-0.24951171 -0.49902,-0.17822266 -0.71289,-0.42773438 -0.21386,-0.28515625 -0.21386,-0.6416016 V -33.006836 q 0,-0.356445 0.17822,-0.605957 0.17822,-0.285156 0.6416,-0.463379 0.46338,-0.178223 1.17627,-0.249512 0.74853,-0.106933 1.85351,-0.106933 1.14063,0 1.88916,0.106933 0.74854,0.07129 1.14063,0.249512 0.42773,0.178223 0.60596,0.463379 0.17822,0.249512 0.17822,0.605957 v 3.671387 q 2.63769,-2.851563 5.34668,-4.277344 2.74463,-1.425781 5.70312,-1.425781 3.24366,0 5.45362,1.069336 2.2456,1.069336 3.6001,2.922851 1.39013,1.817871 1.99609,4.277344 0.60596,2.459473 0.60596,5.916992 z m 53.18164,-12.6181639 q 0,3.635742 -1.3545,6.380371 -1.35449,2.7446289 -3.67138,4.5981445 -2.3169,1.8178711 -5.41797,2.74462891 -3.10108,0.92675781 -6.62988,0.92675781 -2.38819,0 -4.45557,-0.39208984 -2.03174,-0.39208985 -3.6001,-0.92675782 -1.56836,-0.57031246 -2.63769,-1.17626956 -1.03369,-0.605957 -1.49707,-1.0693359 -0.46338,-0.4633789 -0.67725,-1.3188477 -0.17822,-0.8911132 -0.17822,-2.5307617 0,-1.1049804 0.0713,-1.8535156 0.0713,-0.7485352 0.21386,-1.2119141 0.17823,-0.463379 0.42774,-0.641602 0.28515,-0.213867 0.6416,-0.213867 0.49902,0 1.39014,0.6059573 0.92675,0.5703125 2.35254,1.2832031 1.42578,0.7128907 3.38623,1.3188477 1.99609,0.5703125 4.59814,0.5703125 1.71094,0 3.06543,-0.3920898 1.35449,-0.4277344 2.28125,-1.1762696 0.9624,-0.7485351 1.46143,-1.8535152 0.49902,-1.104981 0.49902,-2.459473 0,-1.568359 -0.85547,-2.67334 -0.85547,-1.140625 -2.2456,-1.996094 -1.3545,-0.891113 -3.10108,-1.639648 -1.74658,-0.78418 -3.6001,-1.639649 -1.85351,-0.855468 -3.60009,-1.924804 -1.74659,-1.104981 -3.13672,-2.602051 -1.3545,-1.532715 -2.20996,-3.600098 -0.85547,-2.067382 -0.85547,-4.954589 0,-3.314942 1.21191,-5.810059 1.24756,-2.530762 3.31494,-4.17041 2.10303,-1.675293 4.91895,-2.495117 2.85156,-0.819825 6.02392,-0.819825 1.63965,0 3.2793,0.249512 1.63965,0.249512 3.06543,0.677246 1.42578,0.427735 2.53076,0.962403 1.10498,0.534667 1.46143,0.891113 0.35644,0.356445 0.46338,0.605957 0.14258,0.249512 0.21386,0.677246 0.10694,0.39209 0.14258,1.033691 0.0356,0.605957 0.0356,1.532715 0,1.033692 -0.0713,1.746582 -0.0356,0.712891 -0.17822,1.17627 -0.10694,0.463379 -0.35645,0.677246 -0.21387,0.213867 -0.60596,0.213867 -0.39209,0 -1.24756,-0.499023 -0.85546,-0.499024 -2.10302,-1.069336 -1.24756,-0.605957 -2.88721,-1.069336 -1.63965,-0.499024 -3.6001,-0.499024 -1.53271,0 -2.67334,0.39209 -1.14062,0.356445 -1.9248,1.033692 -0.74854,0.641601 -1.14063,1.568359 -0.35644,0.926758 -0.35644,1.960449 0,1.532715 0.81982,2.67334 0.85547,1.10498 2.24561,1.996094 1.42578,0.855468 3.208,1.639648 1.78223,0.748535 3.63575,1.604004 1.85351,0.855469 3.63574,1.960449 1.78223,1.069336 3.17236,2.602051 1.39014,1.49707 2.24561,3.564453 0.85547,2.031738 0.85547,4.812012 z m 25.45019,9.4814452 q 0,1.5683594 -0.21387,2.4238281 -0.17822,0.8198242 -0.49902,1.17626954 -0.3208,0.32080078 -0.9624,0.60595704 -0.60596,0.24951171 -1.46143,0.42773437 -0.81982,0.21386719 -1.81787,0.32080078 -0.9624,0.10693359 -1.96045,0.10693359 -2.67334,0 -4.63379,-0.67724609 -1.96045,-0.67724609 -3.24365,-2.06738283 -1.2832,-1.4257812 -1.88916,-3.5644531 -0.60596,-2.1386719 -0.60596,-5.0615236 v -16.289551 h -3.81396 q -0.67725,0 -1.03369,-0.819824 -0.35645,-0.855469 -0.35645,-2.815918 0,-1.033691 0.0713,-1.746582 0.10694,-0.71289 0.28516,-1.10498 0.17822,-0.427735 0.42773,-0.605957 0.28516,-0.178223 0.6416,-0.178223 h 3.77832 v -7.093262 q 0,-0.356445 0.17823,-0.641601 0.21386,-0.285157 0.71289,-0.463379 0.53467,-0.213867 1.39013,-0.285156 0.89112,-0.106934 2.17432,-0.106934 1.31885,0 2.17432,0.106934 0.89111,0.07129 1.39013,0.285156 0.49903,0.178222 0.71289,0.463379 0.21387,0.285156 0.21387,0.641601 v 7.093262 h 6.91504 q 0.35645,0 0.60596,0.178223 0.28515,0.178222 0.46338,0.605957 0.17822,0.39209 0.24951,1.10498 0.10693,0.712891 0.10693,1.746582 0,1.960449 -0.35644,2.815918 -0.35645,0.819824 -1.03369,0.819824 h -6.95069 v 14.935059 q 0,2.6020507 0.81983,3.9208984 0.81982,1.2832031 2.92285,1.2832031 0.71289,0 1.2832,-0.1069336 0.57031,-0.1425781 0.99805,-0.2851562 0.46338,-0.1782227 0.74853,-0.2851563 0.3208,-0.1425781 0.57032,-0.1425781 0.21386,0 0.39208,0.1425781 0.21387,0.1069336 0.32081,0.4990235 0.10693,0.3564453 0.17822,0.9980469 0.10693,0.6416015 0.10693,1.6396484 z m 32.86426,3.2436523 q 0,0.49902347 -0.35645,0.78417972 -0.35644,0.28515625 -1.14062,0.39208984 -0.74854,0.14257813 -2.24561,0.14257813 -1.604,0 -2.35254,-0.14257813 -0.71289,-0.10693359 -1.03369,-0.39208984 -0.28515,-0.28515625 -0.28515,-0.78417972 v -2.5307617 q -1.96045,2.1030274 -4.49121,3.27929689 -2.49512,1.17626953 -5.56055,1.17626953 -2.53076,0 -4.66943,-0.6772461 -2.10303,-0.64160156 -3.67139,-1.92480472 -1.53272,-1.3188476 -2.38818,-3.2436523 -0.85547,-1.9248047 -0.85547,-4.4912109 0,-2.7802732 1.06933,-4.8120122 1.10498,-2.067382 3.24366,-3.38623 2.17431,-1.354492 5.38232,-1.996094 3.20801,-0.641601 7.44971,-0.641601 h 3.10107 v -1.924805 q 0,-1.49707 -0.3208,-2.602051 -0.28516,-1.140625 -0.99805,-1.88916 -0.67724,-0.748535 -1.85351,-1.10498 -1.14063,-0.356446 -2.85157,-0.356446 -2.2456,0 -4.02783,0.499024 -1.74658,0.499023 -3.10107,1.10498 -1.35449,0.605957 -2.28125,1.104981 -0.89111,0.499023 -1.46143,0.499023 -0.39209,0 -0.71289,-0.249512 -0.28515,-0.249511 -0.49902,-0.71289 -0.17822,-0.463379 -0.28516,-1.140625 -0.10693,-0.677246 -0.10693,-1.497071 0,-1.10498 0.17822,-1.746582 0.17822,-0.641601 0.67725,-1.140625 0.49902,-0.534668 1.74658,-1.140625 1.24756,-0.641601 2.92285,-1.176269 1.67529,-0.534668 3.63574,-0.855469 1.9961,-0.356445 4.09912,-0.356445 3.74268,0 6.38038,0.748535 2.67334,0.712891 4.38427,2.245605 1.71094,1.497071 2.49512,3.885254 0.78418,2.388184 0.78418,5.667481 z m -8.8042,-13.6162105 h -3.42187 q -2.17432,0 -3.70704,0.3208 -1.53271,0.320801 -2.49511,0.962403 -0.96241,0.641601 -1.42578,1.568359 -0.42774,0.891113 -0.42774,2.0673829 0,1.9960938 1.24756,3.1367188 1.2832,1.140625 3.52881,1.140625 1.88916,0 3.45752,-0.9624024 1.604,-0.9624023 3.24365,-2.815918 z m 35.89404,10.3725582 q 0,1.5683594 -0.21386,2.4238281 -0.17823,0.8198242 -0.49903,1.17626954 -0.3208,0.32080078 -0.9624,0.60595704 -0.60596,0.24951171 -1.46143,0.42773437 -0.81982,0.21386719 -1.81787,0.32080078 -0.9624,0.10693359 -1.96045,0.10693359 -2.67334,0 -4.63378,-0.67724609 -1.96045,-0.67724609 -3.24366,-2.06738283 -1.2832,-1.4257812 -1.88916,-3.5644531 -0.60595,-2.1386719 -0.60595,-5.0615236 v -16.289551 h -3.81397 q -0.67725,0 -1.03369,-0.819824 -0.35645,-0.855469 -0.35645,-2.815918 0,-1.033691 0.0713,-1.746582 0.10694,-0.71289 0.28516,-1.10498 0.17822,-0.427735 0.42773,-0.605957 0.28516,-0.178223 0.64161,-0.178223 h 3.77832 v -7.093262 q 0,-0.356445 0.17822,-0.641601 0.21387,-0.285157 0.71289,-0.463379 0.53467,-0.213867 1.39014,-0.285156 0.89111,-0.106934 2.17431,-0.106934 1.31885,0 2.17432,0.106934 0.89111,0.07129 1.39014,0.285156 0.49902,0.178222 0.71289,0.463379 0.21386,0.285156 0.21386,0.641601 v 7.093262 h 6.91504 q 0.35645,0 0.60596,0.178223 0.28516,0.178222 0.46338,0.605957 0.17822,0.39209 0.24951,1.10498 0.10693,0.712891 0.10693,1.746582 0,1.960449 -0.35644,2.815918 -0.35645,0.819824 -1.03369,0.819824 h -6.95069 v 14.935059 q 0,2.6020507 0.81983,3.9208984 0.81982,1.2832031 2.92285,1.2832031 0.71289,0 1.2832,-0.1069336 0.57031,-0.1425781 0.99805,-0.2851562 0.46338,-0.1782227 0.74853,-0.2851563 0.3208,-0.1425781 0.57032,-0.1425781 0.21386,0 0.39209,0.1425781 0.21386,0.1069336 0.3208,0.4990235 0.10693,0.3564453 0.17822,0.9980469 0.10693,0.6416015 0.10693,1.6396484 z m 34.96729,-13.6875002 q 0,1.639649 -0.74854,2.423828 -0.71289,0.78418 -1.99609,0.78418 h -19.35498 q 0,2.031738 0.46338,3.707031 0.49902,1.6396487 1.53271,2.8159182 1.06934,1.140625 2.70899,1.7465821 1.67529,0.605957 3.99218,0.605957 2.35254,0 4.13477,-0.3208008 1.78223,-0.3564453 3.06543,-0.7485352 1.31885,-0.4277343 2.17432,-0.7485351 0.85547,-0.3564453 1.39013,-0.3564453 0.3208,0 0.53467,0.1425781 0.21387,0.1069336 0.35645,0.4277344 0.14257,0.3208008 0.17822,0.9267578 0.0713,0.5703125 0.0713,1.4614258 0,0.7841797 -0.0357,1.3544922 -0.0356,0.5346679 -0.10693,0.9267578 -0.0713,0.3920898 -0.21387,0.6772461 -0.14258,0.2495117 -0.39209,0.4990234 -0.21386,0.2495117 -1.24756,0.6772461 -1.03369,0.42773437 -2.63769,0.85546874 -1.604,0.39208985 -3.67139,0.6772461 -2.06738,0.32080078 -4.41992,0.32080078 -4.2417,0 -7.44971,-1.06933594 -3.17236,-1.06933598 -5.31103,-3.24365238 -2.13867,-2.1743164 -3.20801,-5.4892578 -1.03369,-3.3149411 -1.03369,-7.7705081 0,-4.241699 1.10498,-7.627929 1.10498,-3.421875 3.20801,-5.774414 2.10302,-2.388184 5.09717,-3.635743 3.02978,-1.247558 6.8081,-1.247558 3.99219,0 6.80811,1.176269 2.85156,1.17627 4.66943,3.279297 1.81787,2.067383 2.67334,4.918946 0.85547,2.851562 0.85547,6.202148 z m -8.69727,-2.566406 q 0.10694,-3.77832 -1.53271,-5.916992 -1.60401,-2.174317 -4.99024,-2.174317 -1.71093,0 -2.99414,0.641602 -1.24756,0.641601 -2.10302,1.746582 -0.81983,1.069336 -1.28321,2.566406 -0.42773,1.461426 -0.49902,3.136719 z m 31.83057,2.67334 q 0,2.067383 -0.39209,2.887207 -0.39209,0.819824 -1.24756,0.819824 h -14.82812 q -0.89112,0 -1.28321,-0.819824 -0.39209,-0.855469 -0.39209,-2.887207 0,-1.996094 0.39209,-2.815918 0.39209,-0.819824 1.28321,-0.819824 h 14.82812 q 0.42774,0 0.71289,0.178222 0.3208,0.178223 0.53467,0.605957 0.21387,0.427735 0.28516,1.140625 0.10693,0.712891 0.10693,1.710938 z m 44.91211,14.4360349 q 0.42773,1.2832032 0.53467,2.0317383 0.10693,0.74853518 -0.28516,1.14062502 -0.39209,0.35644531 -1.39014,0.42773437 -0.99804,0.1069336 -2.74463,0.1069336 -1.81787,0 -2.85156,-0.0712891 -0.99804,-0.0356445 -1.53271,-0.17822265 -0.53467,-0.17822266 -0.74854,-0.46337891 -0.21386,-0.28515625 -0.35644,-0.74853516 l -3.10108,-9.2675784 H 538.6958 l -2.92285,9.0180667 q -0.14258,0.49902342 -0.39209,0.85546874 -0.21387,0.32080078 -0.74854,0.53466797 -0.49902,0.17822265 -1.46142,0.24951171 -0.92676,0.0712891 -2.45947,0.0712891 -1.63965,0 -2.56641,-0.1069336 Q 527.21826,0 526.86182,-0.39208984 q -0.35645,-0.42773438 -0.24952,-1.17626956 0.10694,-0.7485351 0.53467,-1.9960937 l 14.22217,-40.9199219 q 0.21387,-0.605957 0.49902,-0.962402 0.28516,-0.39209 0.89112,-0.570313 0.6416,-0.213867 1.74658,-0.249512 1.10498,-0.07129 2.92285,-0.07129 2.10303,0 3.35059,0.07129 1.24756,0.03565 1.9248,0.249512 0.71289,0.178223 0.99805,0.570313 0.3208,0.39209 0.53467,1.069336 z M 547.32178,-37.319824 h -0.0357 l -6.52295,19.604492 h 13.08155 z m 51.1499,31.0463865 q 0,0.9267578 -0.0713,1.5683594 -0.0356,0.605957 -0.14258,1.0336914 -0.0713,0.4277344 -0.21386,0.7128906 -0.10694,0.2495117 -0.53467,0.6772461 -0.42774,0.3920898 -1.46143,0.9980469 -1.03369,0.57031248 -2.35254,1.03369138 -1.31885,0.46337891 -2.8872,0.74853516 -1.53272,0.28515625 -3.17237,0.28515625 -3.67138,0 -6.52295,-1.140625 -2.81592,-1.14062499 -4.74072,-3.35058599 -1.9248,-2.2456054 -2.92285,-5.4536132 -0.9624,-3.2080075 -0.9624,-7.3427735 0,-4.776367 1.17627,-8.233887 1.21191,-3.493164 3.35058,-5.774414 2.13867,-2.28125 5.06153,-3.38623 2.92285,-1.104981 6.41601,-1.104981 1.42578,0 2.78027,0.249512 1.39014,0.249512 2.56641,0.677246 1.21191,0.427735 2.13867,0.962402 0.9624,0.534668 1.35449,0.926758 0.39209,0.39209 0.53467,0.677246 0.17823,0.249512 0.24951,0.677246 0.10694,0.427735 0.14258,1.069336 0.0713,0.605957 0.0713,1.497071 0,2.067383 -0.35644,2.922851 -0.35645,0.819825 -0.92676,0.819825 -0.60596,0 -1.2832,-0.499024 -0.67725,-0.499023 -1.60401,-1.10498 -0.92676,-0.605957 -2.20996,-1.104981 -1.2832,-0.499023 -3.06543,-0.499023 -3.49316,0 -5.34668,2.708984 -1.85351,2.67334 -1.85351,7.877441 0,2.566407 0.46337,4.526856 0.46338,1.960449 1.3545,3.2792968 0.92675,1.3188477 2.28125,1.9960938 1.39013,0.6416015 3.208,0.6416015 1.85352,0 3.17237,-0.5346679 1.35449,-0.5703125 2.35254,-1.2475586 0.99804,-0.6772461 1.67529,-1.2119141 0.67725,-0.5703125 1.14062,-0.5703125 0.32081,0 0.53467,0.178223 0.21387,0.1782223 0.3208,0.6772457 0.14258,0.463379 0.21387,1.2119141 0.0713,0.7485352 0.0713,1.9248047 z M 636.00537,-34.21875 q 1.49707,0 2.06738,0.641602 0.60596,0.641601 0.60596,1.853515 v 30.5117189 q 0,0.35644535 -0.21387,0.6416016 -0.21386,0.24951172 -0.71289,0.42773438 -0.49902,0.17822265 -1.39013,0.24951171 -0.85547,0.1069336 -2.13868,0.1069336 -1.31884,0 -2.20996,-0.1069336 -0.85547,-0.07128906 -1.35449,-0.24951171 -0.49902,-0.17822266 -0.71289,-0.42773438 -0.21387,-0.28515625 -0.21387,-0.6416016 V -26.947266 h -14.29345 v 14.935059 q 0,2.6020507 0.81982,3.9208984 0.81982,1.2832031 2.92285,1.2832031 0.71289,0 1.28321,-0.1069336 0.57031,-0.1425781 0.99804,-0.2851562 0.46338,-0.1782227 0.74854,-0.2851563 0.3208,-0.1425781 0.57031,-0.1425781 0.21387,0 0.39209,0.1425781 0.21387,0.1069336 0.3208,0.4990235 0.10693,0.3564453 0.17822,0.9980469 0.10694,0.6416015 0.10694,1.6396484 0,1.5683594 -0.17823,2.3881836 -0.17822,0.7841797 -0.49902,1.17626951 -0.3208,0.35644531 -0.9624,0.64160157 -0.6416,0.24951171 -1.49707,0.42773437 -0.81983,0.21386719 -1.81787,0.32080078 -0.96241,0.10693359 -1.96045,0.10693359 -2.67334,0 -4.63379,-0.67724609 -1.96045,-0.67724609 -3.24365,-2.06738283 -1.28321,-1.4257812 -1.88916,-3.5644531 -0.60596,-2.1386719 -0.60596,-5.0615236 v -16.289551 h -3.81397 q -0.67724,0 -1.03369,-0.819824 -0.35644,-0.855469 -0.35644,-2.815918 0,-1.033691 0.0713,-1.746582 0.10693,-0.71289 0.28515,-1.10498 0.17823,-0.427735 0.42774,-0.605957 0.28515,-0.178223 0.6416,-0.178223 h 3.77832 v -7.093262 q 0,-0.356445 0.17822,-0.641601 0.21387,-0.285157 0.71289,-0.463379 0.53467,-0.213867 1.39014,-0.285156 0.89111,-0.106934 2.17432,-0.106934 1.31884,0 2.17431,0.106934 0.89112,0.07129 1.39014,0.285156 0.49902,0.178222 0.71289,0.463379 0.21387,0.285156 0.21387,0.641601 v 7.093262 z m 3.38623,-9.552734 q 0,2.708984 -1.10498,3.742675 -1.10498,1.033692 -4.09912,1.033692 -3.02979,0 -4.09912,-0.998047 -1.03369,-0.998047 -1.03369,-3.600098 0,-2.708984 1.06933,-3.742675 1.10498,-1.069336 4.13477,-1.069336 2.99414,0 4.06348,1.033691 1.06933,0.998047 1.06933,3.600098 z m -14.15088,9.552734 z m 54.60742,16.788574 q 0,4.063477 -1.06933,7.414063 -1.06934,3.3505857 -3.24365,5.7744138 -2.17432,2.4238281 -5.45362,3.74267576 -3.27929,1.31884766 -7.66357,1.31884766 -4.2417,0 -7.37842,-1.17626953 -3.13672,-1.17626949 -5.2041,-3.42187499 -2.06738,-2.2456055 -3.06543,-5.5249024 -0.99805,-3.2792973 -0.99805,-7.4853513 0,-4.063477 1.06934,-7.414063 1.10498,-3.38623 3.2793,-5.774414 2.17431,-2.423828 5.41796,-3.742676 3.2793,-1.318847 7.66358,-1.318847 4.27734,0 7.41406,1.176269 3.13672,1.140625 5.16846,3.386231 2.06738,2.245605 3.06543,5.524902 0.99804,3.279297 0.99804,7.520996 z m -9.23193,0.356446 q 0,-2.35254 -0.39209,-4.312989 -0.35644,-1.996093 -1.24756,-3.457519 -0.89111,-1.461426 -2.38818,-2.28125 -1.46143,-0.819824 -3.70703,-0.819824 -1.9961,0 -3.49317,0.748535 -1.49707,0.71289 -2.45947,2.138672 -0.9624,1.390136 -1.46142,3.38623 -0.46338,1.960449 -0.46338,4.491211 0,2.352539 0.39209,4.348633 0.39209,1.960449 1.24755,3.4218747 0.89112,1.4614258 2.38819,2.2812501 1.49707,0.7841796 3.70703,0.7841796 2.03174,0 3.52881,-0.7128906 1.49707,-0.7485351 2.45947,-2.1386719 0.9624,-1.3901369 1.42578,-3.3505859 0.46338,-1.996094 0.46338,-4.526855 z m 46.69434,15.8618159 q 0,0.35644535 -0.21387,0.6416016 -0.21387,0.24951172 -0.71289,0.42773438 -0.49902,0.17822265 -1.39014,0.24951171 -0.85547,0.1069336 -2.13867,0.1069336 -1.31885,0 -2.20996,-0.1069336 -0.85547,-0.07128906 -1.35449,-0.24951171 -0.49903,-0.17822266 -0.71289,-0.42773438 -0.21387,-0.28515625 -0.21387,-0.6416016 V -19.35498 q 0,-2.316895 -0.35645,-3.635743 -0.3208,-1.318847 -0.9624,-2.245605 -0.6416,-0.962402 -1.67529,-1.461426 -0.99805,-0.534668 -2.35254,-0.534668 -1.71094,0 -3.45752,1.247559 -1.74658,1.247558 -3.63574,3.635742 v 21.1372069 q 0,0.35644535 -0.21387,0.6416016 -0.21387,0.24951172 -0.74853,0.42773438 -0.49903,0.17822265 -1.3545,0.24951171 -0.85547,0.1069336 -2.17431,0.1069336 -1.31885,0 -2.17432,-0.1069336 -0.85547,-0.07128906 -1.39014,-0.24951171 -0.49902,-0.17822266 -0.71289,-0.42773438 -0.21386,-0.28515625 -0.21386,-0.6416016 V -33.006836 q 0,-0.356445 0.17822,-0.605957 0.17822,-0.285156 0.6416,-0.463379 0.46338,-0.178223 1.17627,-0.249512 0.74854,-0.106933 1.85352,-0.106933 1.14062,0 1.88916,0.106933 0.74853,0.07129 1.14062,0.249512 0.42774,0.178223 0.60596,0.463379 0.17822,0.249512 0.17822,0.605957 v 3.671387 q 2.6377,-2.851563 5.34668,-4.277344 2.74463,-1.425781 5.70313,-1.425781 3.24365,0 5.45361,1.069336 2.2456,1.069336 3.6001,2.922851 1.39013,1.817871 1.99609,4.277344 0.60596,2.459473 0.60596,5.916992 z m 53.18164,-12.6181639 q 0,3.635742 -1.35449,6.380371 -1.3545,2.7446289 -3.67139,4.5981445 -2.3169,1.8178711 -5.41797,2.74462891 -3.10107,0.92675781 -6.62988,0.92675781 -2.38819,0 -4.45557,-0.39208984 -2.03174,-0.39208985 -3.6001,-0.92675782 -1.56836,-0.57031246 -2.63769,-1.17626956 -1.03369,-0.605957 -1.49707,-1.0693359 -0.46338,-0.4633789 -0.67725,-1.3188477 -0.17822,-0.8911132 -0.17822,-2.5307617 0,-1.1049804 0.0713,-1.8535156 0.0713,-0.7485352 0.21386,-1.2119141 0.17823,-0.463379 0.42774,-0.641602 0.28516,-0.213867 0.6416,-0.213867 0.49902,0 1.39014,0.6059573 0.92676,0.5703125 2.35254,1.2832031 1.42578,0.7128907 3.38623,1.3188477 1.99609,0.5703125 4.59814,0.5703125 1.71094,0 3.06543,-0.3920898 1.35449,-0.4277344 2.28125,-1.1762696 0.9624,-0.7485351 1.46143,-1.8535152 0.49902,-1.104981 0.49902,-2.459473 0,-1.568359 -0.85547,-2.67334 -0.85547,-1.140625 -2.2456,-1.996094 -1.3545,-0.891113 -3.10108,-1.639648 -1.74658,-0.78418 -3.6001,-1.639649 -1.85351,-0.855468 -3.60009,-1.924804 -1.74659,-1.104981 -3.13672,-2.602051 -1.35449,-1.532715 -2.20996,-3.600098 -0.85547,-2.067382 -0.85547,-4.954589 0,-3.314942 1.21191,-5.810059 1.24756,-2.530762 3.31494,-4.17041 2.10303,-1.675293 4.91895,-2.495117 2.85156,-0.819825 6.02392,-0.819825 1.63965,0 3.2793,0.249512 1.63965,0.249512 3.06543,0.677246 1.42578,0.427735 2.53076,0.962403 1.10498,0.534667 1.46143,0.891113 0.35644,0.356445 0.46338,0.605957 0.14258,0.249512 0.21386,0.677246 0.10694,0.39209 0.14258,1.033691 0.0357,0.605957 0.0357,1.532715 0,1.033692 -0.0713,1.746582 -0.0357,0.712891 -0.17822,1.17627 -0.10694,0.463379 -0.35645,0.677246 -0.21387,0.213867 -0.60596,0.213867 -0.39209,0 -1.24756,-0.499023 -0.85546,-0.499024 -2.10302,-1.069336 -1.24756,-0.605957 -2.88721,-1.069336 -1.63965,-0.499024 -3.6001,-0.499024 -1.53271,0 -2.67334,0.39209 -1.14062,0.356445 -1.9248,1.033692 -0.74854,0.641601 -1.14063,1.568359 -0.35644,0.926758 -0.35644,1.960449 0,1.532715 0.81982,2.67334 0.85547,1.10498 2.24561,1.996094 1.42578,0.855468 3.20801,1.639648 1.78222,0.748535 3.63574,1.604004 1.85351,0.855469 3.63574,1.960449 1.78223,1.069336 3.17236,2.602051 1.39014,1.49707 2.24561,3.564453 0.85547,2.031738 0.85547,4.812012 z m 36.00097,-4.206055 q 0,1.639649 -0.74853,2.423828 -0.71289,0.78418 -1.99609,0.78418 h -19.35499 q 0,2.031738 0.46338,3.707031 0.49903,1.6396487 1.53272,2.8159182 1.06933,1.140625 2.70898,1.7465821 1.6753,0.605957 3.99219,0.605957 2.35254,0 4.13477,-0.3208008 1.78222,-0.3564453 3.06543,-0.7485352 1.31884,-0.4277343 2.17431,-0.7485351 0.85547,-0.3564453 1.39014,-0.3564453 0.3208,0 0.53467,0.1425781 0.21386,0.1069336 0.35644,0.4277344 0.14258,0.3208008 0.17822,0.9267578 0.0713,0.5703125 0.0713,1.4614258 0,0.7841797 -0.0356,1.3544922 -0.0357,0.5346679 -0.10693,0.9267578 -0.0713,0.3920898 -0.21387,0.6772461 -0.14258,0.2495117 -0.39209,0.4990234 -0.21387,0.2495117 -1.24756,0.6772461 -1.03369,0.42773437 -2.6377,0.85546874 -1.604,0.39208985 -3.67138,0.6772461 -2.06738,0.32080078 -4.41992,0.32080078 -4.2417,0 -7.44971,-1.06933594 -3.17236,-1.06933598 -5.31104,-3.24365238 -2.13867,-2.1743164 -3.208,-5.4892578 -1.0337,-3.3149411 -1.0337,-7.7705081 0,-4.241699 1.10499,-7.627929 1.10498,-3.421875 3.208,-5.774414 2.10303,-2.388184 5.09717,-3.635743 3.02979,-1.247558 6.80811,-1.247558 3.99218,0 6.8081,1.176269 2.85156,1.17627 4.66944,3.279297 1.81787,2.067383 2.67334,4.918946 0.85546,2.851562 0.85546,6.202148 z m -8.69726,-2.566406 q 0.10693,-3.77832 -1.53272,-5.916992 -1.604,-2.174317 -4.99023,-2.174317 -1.71094,0 -2.99414,0.641602 -1.24756,0.641601 -2.10303,1.746582 -0.81982,1.069336 -1.2832,2.566406 -0.42774,1.461426 -0.49903,3.136719 z m 44.73389,-10.194336 q 0,1.710938 -0.39209,2.530762 -0.39209,0.819824 -0.96241,0.819824 h -3.74267 q 0.78418,0.855469 1.10498,1.960449 0.35644,1.069336 0.35644,2.245606 0,2.780273 -0.92675,4.954589 -0.92676,2.138672 -2.67334,3.635743 -1.71094,1.461425 -4.17041,2.245605 -2.42383,0.748535 -5.41797,0.748535 -1.53272,0 -2.92286,-0.356445 -1.39013,-0.39209 -2.13867,-0.891113 -0.42773,0.463379 -0.78418,1.10498 -0.3208,0.641602 -0.3208,1.425781 0,1.0336918 0.89112,1.7109379 0.92675,0.6416016 2.5664,0.7128906 l 7.73487,0.2851563 q 2.70898,0.1069336 4.81201,0.7841797 2.13867,0.6416015 3.56445,1.8535156 1.46143,1.1762695 2.20996,2.8515625 0.78418,1.67529296 0.78418,3.8139648 0,2.3525391 -1.03369,4.4199219 -1.03369,2.1030274 -3.10107,3.6357422 -2.06739,1.5327145 -5.20411,2.4238285 -3.10107,0.891113 -7.27148,0.891113 -4.06348,0 -6.95068,-0.641602 -2.85157,-0.641601 -4.70508,-1.782226 -1.81787,-1.1406252 -2.67334,-2.7446291 -0.81983,-1.5683594 -0.81983,-3.4575196 0,-1.1762695 0.28516,-2.2456054 0.3208,-1.069336 0.89111,-2.06738284 0.60596,-0.96240234 1.46143,-1.85351566 0.85547,-0.8911132 1.96045,-1.7109375 -1.53272,-0.8198242 -2.38819,-2.2099609 -0.81982,-1.4257812 -0.81982,-3.1010742 0,-2.1030278 0.9624,-3.8139648 0.9624,-1.746582 2.49512,-3.136719 -1.24756,-1.247558 -1.99609,-2.99414 -0.74854,-1.746582 -0.74854,-4.348633 0,-2.780274 0.9624,-4.95459 0.99805,-2.209961 2.74463,-3.707031 1.74658,-1.532715 4.17041,-2.316895 2.42383,-0.819824 5.34668,-0.819824 1.49707,0 2.85156,0.178223 1.39014,0.178222 2.56641,0.499023 h 10.0874 q 0.60596,0 0.96241,0.78418 0.39209,0.784179 0.39209,2.637695 z m -11.51319,7.520996 q 0,-2.566406 -1.42578,-3.992187 -1.42578,-1.425782 -4.02783,-1.425782 -1.31885,0 -2.3169,0.463379 -0.99804,0.427735 -1.67529,1.211914 -0.6416,0.748535 -0.9624,1.782227 -0.3208,0.998047 -0.3208,2.103027 0,2.423828 1.42578,3.84961 1.42578,1.390136 3.95654,1.390136 1.35449,0 2.35254,-0.427734 0.99805,-0.427734 1.63965,-1.17627 0.67725,-0.748535 0.99805,-1.710937 0.35644,-0.998047 0.35644,-2.067383 z m 2.10303,25.3789063 q 0,-1.60400386 -1.2832,-2.45947261 -1.28321,-0.85546879 -3.52881,-0.92675779 l -6.38037,-0.1782227 q -0.92676,0.67724611 -1.49707,1.31884768 -0.53467,0.60595703 -0.89112,1.17626952 -0.3208,0.5703125 -0.42773,1.1049805 -0.10694,0.5346679 -0.10694,1.1049804 0,1.7822266 1.78223,2.7089844 1.81787,0.9267578 5.09717,0.9267578 2.03174,0 3.42187,-0.4277343 1.39014,-0.3920899 2.24561,-1.069336 0.85547,-0.6772461 1.21191,-1.5327148 0.35645,-0.8198242 0.35645,-1.7465821 z m 65.94238,-3.3149414 q 0,0.35644535 -0.21387,0.6416016 -0.21386,0.24951172 -0.71289,0.42773438 -0.49902,0.17822265 -1.35449,0.24951171 -0.85547,0.1069336 -2.17431,0.1069336 -1.3545,0 -2.20997,-0.1069336 -0.85546,-0.07128906 -1.39013,-0.24951171 -0.49903,-0.17822266 -0.71289,-0.42773438 -0.17823,-0.28515625 -0.17823,-0.6416016 V -20.067871 q 0,-1.604004 -0.3208,-2.922852 -0.28515,-1.318847 -0.92675,-2.245605 -0.60596,-0.962402 -1.56836,-1.461426 -0.92676,-0.534668 -2.24561,-0.534668 -1.604,0 -3.24365,1.247559 -1.63965,1.247558 -3.56445,3.635742 v 21.1372069 q 0,0.35644535 -0.21387,0.6416016 -0.21387,0.24951172 -0.74854,0.42773438 -0.49902,0.17822265 -1.35449,0.24951171 -0.85547,0.1069336 -2.13867,0.1069336 -1.31885,0 -2.17432,-0.1069336 -0.85547,-0.07128906 -1.39013,-0.24951171 -0.49903,-0.17822266 -0.71289,-0.42773438 -0.21387,-0.28515625 -0.21387,-0.6416016 V -20.067871 q 0,-1.604004 -0.3208,-2.922852 -0.28516,-1.318847 -0.89112,-2.245605 -0.60595,-0.962402 -1.56836,-1.461426 -0.9624,-0.534668 -2.2456,-0.534668 -1.63965,0 -3.2793,1.247559 -1.63965,1.247558 -3.52881,3.635742 v 21.1372069 q 0,0.35644535 -0.21386,0.6416016 -0.21387,0.24951172 -0.74854,0.42773438 -0.49902,0.17822265 -1.35449,0.24951171 -0.85547,0.1069336 -2.17432,0.1069336 -1.31884,0 -2.17431,-0.1069336 -0.85547,-0.07128906 -1.39014,-0.24951171 -0.49902,-0.17822266 -0.71289,-0.42773438 -0.21387,-0.28515625 -0.21387,-0.6416016 V -33.006836 q 0,-0.356445 0.17822,-0.605957 0.17823,-0.285156 0.64161,-0.463379 0.46337,-0.178223 1.17627,-0.249512 0.74853,-0.106933 1.85351,-0.106933 1.14063,0 1.88916,0.106933 0.74854,0.07129 1.14063,0.249512 0.42773,0.178223 0.60595,0.463379 0.17823,0.249512 0.17823,0.605957 v 3.671387 q 2.63769,-2.851563 5.23974,-4.277344 2.6377,-1.425781 5.48926,-1.425781 1.96045,0 3.52881,0.427734 1.56836,0.39209 2.78027,1.17627 1.24756,0.748535 2.13867,1.817871 0.89112,1.069336 1.49707,2.388183 1.42579,-1.532714 2.78028,-2.637695 1.39013,-1.10498 2.70898,-1.782226 1.35449,-0.712891 2.67334,-1.033692 1.35449,-0.356445 2.74463,-0.356445 3.17236,0 5.34668,1.069336 2.17432,1.069336 3.49316,2.922851 1.3545,1.817871 1.92481,4.277344 0.57031,2.459473 0.57031,5.204102 z M 937.2373,-18.036133 q 0,1.639649 -0.74853,2.423828 -0.71289,0.78418 -1.99609,0.78418 H 915.1377 q 0,2.031738 0.46337,3.707031 0.49903,1.6396487 1.53272,2.8159182 1.06933,1.140625 2.70898,1.7465821 1.6753,0.605957 3.99219,0.605957 2.35254,0 4.13477,-0.3208008 1.78222,-0.3564453 3.06543,-0.7485352 1.31884,-0.4277343 2.17431,-0.7485351 0.85547,-0.3564453 1.39014,-0.3564453 0.3208,0 0.53467,0.1425781 0.21386,0.1069336 0.35644,0.4277344 0.14258,0.3208008 0.17823,0.9267578 0.0713,0.5703125 0.0713,1.4614258 0,0.7841797 -0.0356,1.3544922 -0.0356,0.5346679 -0.10693,0.9267578 -0.0713,0.3920898 -0.21387,0.6772461 -0.14258,0.2495117 -0.39209,0.4990234 -0.21387,0.2495117 -1.24756,0.6772461 -1.03369,0.42773437 -2.63769,0.85546874 -1.60401,0.39208985 -3.67139,0.6772461 -2.06738,0.32080078 -4.41992,0.32080078 -4.2417,0 -7.44971,-1.06933594 -3.17236,-1.06933598 -5.31104,-3.24365238 -2.13867,-2.1743164 -3.208,-5.4892578 -1.03369,-3.3149411 -1.03369,-7.7705081 0,-4.241699 1.10498,-7.627929 1.10498,-3.421875 3.208,-5.774414 2.10303,-2.388184 5.09717,-3.635743 3.02979,-1.247558 6.80811,-1.247558 3.99218,0 6.8081,1.176269 2.85156,1.17627 4.66944,3.279297 1.81787,2.067383 2.67334,4.918946 0.85546,2.851562 0.85546,6.202148 z m -8.69726,-2.566406 q 0.10693,-3.77832 -1.53272,-5.916992 -1.604,-2.174317 -4.99023,-2.174317 -1.71094,0 -2.99414,0.641602 -1.24756,0.641601 -2.10303,1.746582 -0.81982,1.069336 -1.2832,2.566406 -0.42774,1.461426 -0.49902,3.136719 z m 46.44482,19.3906249 q 0,0.35644535 -0.21386,0.6416016 -0.21387,0.24951172 -0.71289,0.42773438 -0.49903,0.17822265 -1.39014,0.24951171 -0.85547,0.1069336 -2.13867,0.1069336 -1.31885,0 -2.20996,-0.1069336 -0.85547,-0.07128906 -1.3545,-0.24951171 -0.49902,-0.17822266 -0.71289,-0.42773438 -0.21386,-0.28515625 -0.21386,-0.6416016 V -19.35498 q 0,-2.316895 -0.35645,-3.635743 -0.3208,-1.318847 -0.9624,-2.245605 -0.6416,-0.962402 -1.67529,-1.461426 -0.99805,-0.534668 -2.35254,-0.534668 -1.71094,0 -3.45752,1.247559 -1.74659,1.247558 -3.63575,3.635742 v 21.1372069 q 0,0.35644535 -0.21386,0.6416016 -0.21387,0.24951172 -0.74854,0.42773438 -0.49902,0.17822265 -1.35449,0.24951171 -0.85547,0.1069336 -2.17432,0.1069336 -1.31884,0 -2.17431,-0.1069336 -0.85547,-0.07128906 -1.39014,-0.24951171 -0.49902,-0.17822266 -0.71289,-0.42773438 -0.21387,-0.28515625 -0.21387,-0.6416016 V -33.006836 q 0,-0.356445 0.17823,-0.605957 0.17822,-0.285156 0.6416,-0.463379 0.46338,-0.178223 1.17627,-0.249512 0.74853,-0.106933 1.85351,-0.106933 1.14063,0 1.88916,0.106933 0.74854,0.07129 1.14063,0.249512 0.42773,0.178223 0.60595,0.463379 0.17823,0.249512 0.17823,0.605957 v 3.671387 q 2.63769,-2.851563 5.34668,-4.277344 2.74463,-1.425781 5.70312,-1.425781 3.24365,0 5.45361,1.069336 2.24561,1.069336 3.6001,2.922851 1.39014,1.817871 1.9961,4.277344 0.60595,2.459473 0.60595,5.916992 z m 26.94724,-3.1367187 q 0,1.5683594 -0.2138,2.4238281 -0.1783,0.8198242 -0.4991,1.17626954 -0.3208,0.32080078 -0.9624,0.60595704 -0.60592,0.24951171 -1.46139,0.42773437 -0.81982,0.21386719 -1.81787,0.32080078 -0.9624,0.10693359 -1.96045,0.10693359 -2.67334,0 -4.63379,-0.67724609 -1.96045,-0.67724609 -3.24365,-2.06738283 -1.2832,-1.4257812 -1.88916,-3.5644531 -0.60596,-2.1386719 -0.60596,-5.0615236 v -16.289551 h -3.81396 q -0.67725,0 -1.0337,-0.819824 -0.35644,-0.855469 -0.35644,-2.815918 0,-1.033691 0.0713,-1.746582 0.10693,-0.71289 0.28515,-1.10498 0.17823,-0.427735 0.42774,-0.605957 0.28516,-0.178223 0.6416,-0.178223 h 3.77832 v -7.093262 q 0,-0.356445 0.17822,-0.641601 0.21387,-0.285157 0.71289,-0.463379 0.53467,-0.213867 1.39014,-0.285156 0.89111,-0.106934 2.17432,-0.106934 1.31885,0 2.17431,0.106934 0.89112,0.07129 1.39014,0.285156 0.49902,0.178222 0.71289,0.463379 0.21387,0.285156 0.21387,0.641601 v 7.093262 h 6.91499 q 0.3565,0 0.606,0.178223 0.2852,0.178222 0.4634,0.605957 0.1782,0.39209 0.2495,1.10498 0.1069,0.712891 0.1069,1.746582 0,1.960449 -0.3564,2.815918 -0.3565,0.819824 -1.0337,0.819824 h -6.95069 v 14.935059 q 0,2.6020507 0.81982,3.9208984 0.81983,1.2832031 2.92285,1.2832031 0.71289,0 1.28321,-0.1069336 0.57031,-0.1425781 0.99804,-0.2851562 0.46337,-0.1782227 0.74857,-0.2851563 0.3208,-0.1425781 0.5703,-0.1425781 0.2138,0 0.3921,0.1425781 0.2138,0.1069336 0.3208,0.4990235 0.1069,0.3564453 0.1782,0.9980469 0.1069,0.6416015 0.1069,1.6396484 z"
       id="text17"
       style="font-weight:700;font-size:73px;font-family:Calibri, Calibri_MSFontService, sans-serif"
       transform="translate(2876.87,746)"
       aria-label="Interaction State-Action Segment" /><text
       font-family="Calibri, Calibri_MSFontService, sans-serif"
       font-weight="700"
       font-size="73px"
       transform="translate(3382.43,746)"
       id="text18" /><text
       font-family="Calibri, Calibri_MSFontService, sans-serif"
       font-weight="700"
       font-size="73px"
       transform="translate(3404.78,746)"
       id="text19" /></g></svg>
