<svg width="967" height="225" xmlns="http://www.w3.org/2000/svg" xmlns:xlink="http://www.w3.org/1999/xlink" xml:space="preserve" overflow="hidden"><g transform="translate(-2940 -1097)"><path d="M0 0 172.627 167.824" stroke="#000000" stroke-width="9.16667" stroke-miterlimit="8" stroke-dasharray="9.16667 9.16667" fill="none" fill-rule="evenodd" transform="matrix(1 0 0 -1 3168.5 1298.32)"/><path d="M3722.47 1298.32 3455.5 1130.5" stroke="#000000" stroke-width="9.16667" stroke-miterlimit="8" stroke-dasharray="9.16667 9.16667" fill="none" fill-rule="evenodd"/><path d="M3198.7 1192.27 3214.42 1189.5 3222.37 1188.48 3230.27 1187.95 3238.11 1188.08 3245.85 1189.07 3253.43 1191.12 3260.71 1194.4 3264.57 1196.94 3268.42 1200.16 3272.27 1203.93 3276.14 1208.17 3283.69 1217.46 3290.91 1227.35 3293.62 1231.96 3285.71 1236.6 3283.12 1232.19 3283.37 1232.57 3276.36 1222.96 3276.5 1223.14 3269.11 1214.05 3269.29 1214.26 3265.59 1210.21 3265.76 1210.39 3262.13 1206.84 3262.4 1207.08 3258.89 1204.14 3259.3 1204.45 3255.97 1202.25 3256.62 1202.6 3250 1199.63 3250.68 1199.87 3243.76 1198 3244.38 1198.13 3237.2 1197.21 3237.7 1197.24 3230.3 1197.12 3230.69 1197.11 3223.12 1197.62 3223.39 1197.59 3215.69 1198.57 3215.91 1198.54 3200.3 1201.3ZM3299.29 1223.45 3301.11 1254.14 3275.46 1237.18Z" fill="#ED7D31"/><path d="M3599.06 1174.8 3610.56 1185.91 3616.06 1191.75 3621.14 1197.84 3625.65 1204.28 3629.4 1211.14 3632.2 1218.48 3633.83 1226.32 3634.04 1230.94 3633.69 1235.95 3632.9 1241.29 3631.75 1246.93 3628.66 1258.51 3624.89 1270.19 3622.73 1275.14 3614.33 1271.47 3616.4 1266.73 3616.24 1267.16 3619.9 1255.81 3619.84 1256.04 3622.86 1244.7 3622.8 1244.96 3623.9 1239.58 3623.85 1239.83 3624.6 1234.79 3624.56 1235.15 3624.88 1230.57 3624.87 1231.09 3624.69 1227.09 3624.78 1227.82 3623.3 1220.71 3623.51 1221.41 3620.95 1214.69 3621.21 1215.26 3617.73 1208.9 3617.99 1209.33 3613.74 1203.26 3613.98 1203.57 3609.11 1197.73 3609.29 1197.94 3603.96 1192.27 3604.12 1192.43 3592.69 1181.4ZM3632.95 1274.73 3609.18 1294.23 3607.84 1263.51Z" fill="#ED7D31"/><text fill="#FF0000" font-family="Calibri,Calibri_MSFontService,sans-serif" font-weight="400" font-size="83" transform="matrix(1 0 0 1 3670.41 1200)">guide</text><text fill="#FF0000" font-family="Calibri,Calibri_MSFontService,sans-serif" font-weight="400" font-size="83" transform="matrix(1 0 0 1 2990.45 1200)">guide</text></g></svg>