<svg width="1571" height="586" xmlns="http://www.w3.org/2000/svg" xmlns:xlink="http://www.w3.org/1999/xlink" xml:space="preserve" overflow="hidden"><g transform="translate(-2649 -1806)"><path d="M3003.5 1904C3003.5 1851.81 3046.03 1809.5 3098.5 1809.5 3150.97 1809.5 3193.5 1851.81 3193.5 1904 3193.5 1956.19 3150.97 1998.5 3098.5 1998.5 3046.03 1998.5 3003.5 1956.19 3003.5 1904Z" stroke="#000000" stroke-width="6.875" stroke-linejoin="round" stroke-miterlimit="10" fill="none" fill-rule="evenodd"/><path d="M3077.67 1894.89C3074.86 1894.89 3072.41 1896.07 3070.32 1898.42 3068.22 1900.77 3066.58 1904.13 3065.37 1908.51 3064.17 1912.89 3063.57 1916.65 3063.57 1919.82 3063.57 1922.79 3064.19 1924.98 3065.41 1926.4 3066.64 1927.82 3068.5 1928.53 3070.99 1928.53 3073.63 1928.53 3075.99 1927.34 3078.04 1924.96 3080.09 1922.59 3081.71 1919.26 3082.9 1914.97 3084.09 1910.69 3084.69 1906.93 3084.69 1903.69 3084.69 1900.77 3084.12 1898.57 3082.98 1897.1 3081.85 1895.63 3080.08 1894.89 3077.67 1894.89ZM3078.48 1891.65C3082.81 1891.65 3086.1 1892.83 3088.37 1895.2 3090.64 1897.56 3091.78 1900.94 3091.78 1905.35 3091.78 1908.48 3091.23 1911.83 3090.14 1915.4 3089.04 1918.96 3087.54 1921.96 3085.64 1924.4 3083.73 1926.83 3081.46 1928.66 3078.81 1929.89 3076.16 1931.12 3073.12 1931.73 3069.69 1931.73 3065.5 1931.73 3062.25 1930.56 3059.94 1928.21 3057.63 1925.85 3056.48 1922.48 3056.48 1918.07 3056.48 1915.91 3056.8 1913.41 3057.45 1910.58 3058.29 1906.74 3059.69 1903.39 3061.67 1900.53 3063.64 1897.66 3066.07 1895.47 3068.96 1893.94 3071.85 1892.41 3075.03 1891.65 3078.48 1891.65Z" fill-rule="evenodd"/><text fill="#000000" fill-opacity="0" font-family="Arial,Arial_MSFontService,sans-serif" font-size="40.0815" x="3056.48" y="1926.72">洧녶</text><path d="M3106.33 1910.54 3110.98 1910.54 3109.28 1918.1 3119.41 1918.1 3118.72 1921.41 3108.62 1921.41 3105.59 1933.89C3105.39 1934.72 3105.22 1935.47 3105.09 1936.14 3104.96 1936.8 3104.86 1937.4 3104.78 1937.94 3104.7 1938.47 3104.65 1938.96 3104.62 1939.4 3104.59 1939.83 3104.57 1940.24 3104.57 1940.62 3104.57 1941.81 3104.82 1942.74 3105.32 1943.42 3105.81 1944.09 3106.63 1944.43 3107.76 1944.43 3108.71 1944.43 3109.73 1944.08 3110.8 1943.37 3111.87 1942.67 3113.09 1941.56 3114.46 1940.05L3116.52 1942.14C3115.5 1943.27 3114.54 1944.23 3113.63 1945.03 3112.71 1945.82 3111.82 1946.47 3110.95 1946.98 3110.07 1947.48 3109.21 1947.85 3108.36 1948.08 3107.5 1948.31 3106.63 1948.42 3105.73 1948.42 3103.37 1948.42 3101.61 1947.87 3100.45 1946.75 3099.29 1945.64 3098.71 1944 3098.71 1941.84 3098.71 1941.1 3098.76 1940.3 3098.87 1939.41 3098.98 1938.53 3099.13 1937.67 3099.33 1936.84L3102.88 1921.41 3097.75 1921.41 3098.35 1919.11C3099.54 1919.11 3100.47 1919 3101.13 1918.77 3101.8 1918.54 3102.36 1918.23 3102.82 1917.83 3103.11 1917.55 3103.4 1917.21 3103.68 1916.81 3103.96 1916.4 3104.24 1915.91 3104.51 1915.33 3104.79 1914.75 3105.07 1914.07 3105.36 1913.29 3105.65 1912.51 3105.97 1911.59 3106.33 1910.54Z" fill-rule="evenodd"/><text fill="#000000" fill-opacity="0" font-family="Arial,Arial_MSFontService,sans-serif" font-size="37.8867" x="3097.75" y="1943.69">洧노</text><path d="M2652.5 2293.5C2652.5 2241.03 2695.03 2198.5 2747.5 2198.5 2799.97 2198.5 2842.5 2241.03 2842.5 2293.5 2842.5 2345.97 2799.97 2388.5 2747.5 2388.5 2695.03 2388.5 2652.5 2345.97 2652.5 2293.5Z" stroke="#000000" stroke-width="6.875" stroke-linejoin="round" stroke-miterlimit="10" fill="none" fill-rule="evenodd"/><path d="M2726.27 2280.96C2728.79 2280.96 2731.08 2281.11 2733.14 2281.41 2735.21 2281.71 2737.27 2282.22 2739.32 2282.95L2737.5 2291.46 2734.22 2291.46C2733.92 2289.05 2733.13 2287.23 2731.85 2285.99 2730.56 2284.75 2728.54 2284.12 2725.79 2284.12 2723.65 2284.12 2721.92 2284.67 2720.6 2285.77 2719.28 2286.86 2718.61 2288.3 2718.61 2290.08 2718.61 2291.05 2718.78 2291.91 2719.12 2292.66 2719.46 2293.4 2720.14 2294.22 2721.17 2295.11 2722.19 2296 2723.79 2297.09 2725.95 2298.39 2727.65 2299.42 2729.02 2300.36 2730.04 2301.21 2731.07 2302.06 2731.88 2302.9 2732.47 2303.74 2733.07 2304.58 2733.5 2305.46 2733.77 2306.39 2734.04 2307.33 2734.18 2308.45 2734.18 2309.78 2734.18 2312.18 2733.54 2314.24 2732.25 2315.96 2730.97 2317.67 2729.23 2318.95 2727.02 2319.79 2724.82 2320.63 2722.32 2321.04 2719.51 2321.04 2717.26 2321.04 2715.06 2320.88 2712.9 2320.54 2710.74 2320.2 2708.33 2319.63 2705.69 2318.82L2707.63 2309.98 2710.79 2309.98C2710.9 2312.57 2711.63 2314.53 2712.98 2315.86 2714.33 2317.18 2716.48 2317.84 2719.43 2317.84 2721.99 2317.84 2724 2317.27 2725.44 2316.12 2726.89 2314.97 2727.61 2313.34 2727.61 2311.24 2727.61 2310.02 2727.41 2308.97 2727 2308.1 2726.6 2307.22 2725.94 2306.37 2725.02 2305.56 2724.1 2304.75 2722.64 2303.74 2720.64 2302.52 2718.53 2301.25 2716.89 2300.11 2715.72 2299.08 2714.54 2298.05 2713.66 2296.94 2713.06 2295.74 2712.47 2294.53 2712.17 2293.15 2712.17 2291.58 2712.17 2289.45 2712.74 2287.58 2713.89 2285.97 2715.04 2284.36 2716.68 2283.12 2718.82 2282.26 2720.95 2281.4 2723.44 2280.96 2726.27 2280.96Z" fill-rule="evenodd"/><text fill="#000000" fill-opacity="0" font-family="Arial,Arial_MSFontService,sans-serif" font-size="40.0815" x="2705.69" y="2316.03">洧</text><path d="M2752.84 2299.85 2757.48 2299.85 2755.79 2307.41 2765.91 2307.41 2765.23 2310.72 2755.13 2310.72 2752.09 2323.2C2751.89 2324.03 2751.73 2324.78 2751.6 2325.45 2751.47 2326.11 2751.37 2326.71 2751.29 2327.25 2751.21 2327.79 2751.15 2328.27 2751.12 2328.71 2751.09 2329.15 2751.08 2329.55 2751.08 2329.93 2751.08 2331.12 2751.33 2332.06 2751.82 2332.73 2752.32 2333.41 2753.13 2333.74 2754.27 2333.74 2755.22 2333.74 2756.23 2333.39 2757.3 2332.69 2758.38 2331.98 2759.6 2330.87 2760.97 2329.37L2763.02 2331.45C2762.01 2332.58 2761.05 2333.55 2760.13 2334.34 2759.22 2335.13 2758.33 2335.78 2757.45 2336.29 2756.58 2336.8 2755.72 2337.16 2754.86 2337.39 2754.01 2337.62 2753.13 2337.74 2752.24 2337.74 2749.88 2337.74 2748.12 2337.18 2746.95 2336.07 2745.79 2334.96 2745.21 2333.32 2745.21 2331.15 2745.21 2330.42 2745.27 2329.61 2745.38 2328.73 2745.48 2327.84 2745.64 2326.98 2745.84 2326.15L2749.38 2310.72 2744.26 2310.72 2744.85 2308.43C2746.05 2308.43 2746.97 2308.31 2747.64 2308.08 2748.3 2307.86 2748.86 2307.54 2749.32 2307.15 2749.62 2306.87 2749.91 2306.53 2750.19 2306.12 2750.46 2305.71 2750.74 2305.22 2751.02 2304.64 2751.3 2304.07 2751.58 2303.39 2751.87 2302.6 2752.16 2301.82 2752.48 2300.9 2752.84 2299.85Z" fill-rule="evenodd"/><text fill="#000000" fill-opacity="0" font-family="Arial,Arial_MSFontService,sans-serif" font-size="37.8867" x="2744.26" y="2333">洧노</text><path d="M2652.5 1904C2652.5 1851.81 2695.03 1809.5 2747.5 1809.5 2799.97 1809.5 2842.5 1851.81 2842.5 1904 2842.5 1956.19 2799.97 1998.5 2747.5 1998.5 2695.03 1998.5 2652.5 1956.19 2652.5 1904Z" stroke="#000000" stroke-width="6.875" stroke-linejoin="round" stroke-miterlimit="10" fill="none" fill-rule="evenodd"/><path d="M2724.91 1894.89C2722.12 1894.89 2719.62 1896.01 2717.41 1898.26 2715.19 1900.5 2713.46 1903.51 2712.22 1907.27 2710.98 1911.04 2710.36 1914.81 2710.36 1918.56 2710.36 1921.37 2710.74 1923.47 2711.51 1924.86 2712.28 1926.25 2713.57 1926.95 2715.38 1926.95 2717.16 1926.95 2718.91 1926.18 2720.63 1924.64 2722.34 1923.1 2724.11 1920.91 2725.94 1918.05 2727.76 1915.2 2729.05 1911.91 2729.81 1908.19L2730.17 1906.44C2730.42 1905.34 2730.58 1904.38 2730.66 1903.57 2730.74 1902.76 2730.78 1901.88 2730.78 1900.93 2730.78 1898.85 2730.34 1897.32 2729.44 1896.35 2728.55 1895.38 2727.04 1894.89 2724.91 1894.89ZM2724.09 1891.69C2725.85 1891.69 2727.49 1891.89 2729.02 1892.28 2730.55 1892.67 2732.12 1893.37 2733.74 1894.37L2737.47 1891.69 2740.06 1892.34 2734.1 1918.03C2733.51 1920.6 2733.21 1922.6 2733.21 1924.03 2733.21 1925.11 2733.39 1925.9 2733.74 1926.38 2734.09 1926.87 2734.65 1927.11 2735.4 1927.11 2736.21 1927.11 2737.08 1926.78 2738 1926.12 2738.91 1925.46 2740.21 1924.19 2741.89 1922.33L2744.2 1924.6C2741.76 1927.19 2739.69 1929.04 2737.98 1930.13 2736.26 1931.23 2734.4 1931.77 2732.4 1931.77 2730.73 1931.77 2729.39 1931.22 2728.39 1930.11 2727.39 1929 2726.89 1927.53 2726.89 1925.69 2726.89 1924.21 2727.2 1922.63 2727.82 1920.95L2727.3 1920.79C2724.7 1924.57 2722.24 1927.34 2719.92 1929.1 2717.6 1930.85 2715.14 1931.73 2712.54 1931.73 2709.57 1931.73 2707.27 1930.61 2705.63 1928.37 2704 1926.13 2703.18 1922.98 2703.18 1918.93 2703.18 1914.28 2704.09 1909.81 2705.92 1905.53 2707.74 1901.25 2710.25 1897.87 2713.44 1895.4 2716.62 1892.93 2720.18 1891.69 2724.09 1891.69Z" fill-rule="evenodd"/><text fill="#000000" fill-opacity="0" font-family="Arial,Arial_MSFontService,sans-serif" font-size="40.0815" x="2703.18" y="1926.76">洧녩</text><path d="M2757.57 1910.62 2762.21 1910.62 2760.52 1918.18 2770.64 1918.18 2769.96 1921.49 2759.86 1921.49 2756.82 1933.97C2756.62 1934.8 2756.46 1935.55 2756.33 1936.22 2756.2 1936.88 2756.1 1937.48 2756.02 1938.02 2755.94 1938.56 2755.89 1939.04 2755.86 1939.48 2755.83 1939.92 2755.81 1940.32 2755.81 1940.7 2755.81 1941.89 2756.06 1942.83 2756.56 1943.5 2757.05 1944.18 2757.87 1944.51 2759 1944.51 2759.95 1944.51 2760.96 1944.16 2762.04 1943.46 2763.11 1942.75 2764.33 1941.64 2765.7 1940.14L2767.75 1942.22C2766.74 1943.35 2765.78 1944.31 2764.87 1945.11 2763.95 1945.9 2763.06 1946.55 2762.18 1947.06 2761.31 1947.57 2760.45 1947.93 2759.59 1948.16 2758.74 1948.39 2757.87 1948.5 2756.97 1948.5 2754.61 1948.5 2752.85 1947.95 2751.69 1946.84 2750.52 1945.72 2749.94 1944.09 2749.94 1941.92 2749.94 1941.19 2750 1940.38 2750.11 1939.49 2750.22 1938.61 2750.37 1937.75 2750.57 1936.92L2754.11 1921.49 2748.99 1921.49 2749.59 1919.2C2750.78 1919.2 2751.71 1919.08 2752.37 1918.85 2753.04 1918.63 2753.6 1918.31 2754.05 1917.92 2754.35 1917.64 2754.64 1917.29 2754.92 1916.89 2755.2 1916.48 2755.47 1915.99 2755.75 1915.41 2756.03 1914.84 2756.31 1914.16 2756.6 1913.37 2756.89 1912.59 2757.21 1911.67 2757.57 1910.62Z" fill-rule="evenodd"/><text fill="#000000" fill-opacity="0" font-family="Arial,Arial_MSFontService,sans-serif" font-size="37.8867" x="2748.99" y="1943.77">洧노</text><path d="M3339.5 2293.5C3339.5 2241.03 3382.03 2198.5 3434.5 2198.5 3486.97 2198.5 3529.5 2241.03 3529.5 2293.5 3529.5 2345.97 3486.97 2388.5 3434.5 2388.5 3382.03 2388.5 3339.5 2345.97 3339.5 2293.5Z" stroke="#000000" stroke-width="6.875" stroke-linejoin="round" stroke-miterlimit="10" fill="none" fill-rule="evenodd"/><path d="M3374 2280.96C3376.51 2280.96 3378.8 2281.11 3380.87 2281.41 3382.94 2281.71 3385 2282.22 3387.05 2282.95L3385.23 2291.46 3381.94 2291.46C3381.65 2289.05 3380.86 2287.23 3379.57 2285.99 3378.29 2284.75 3376.27 2284.12 3373.51 2284.12 3371.38 2284.12 3369.65 2284.67 3368.33 2285.77 3367 2286.86 3366.34 2288.3 3366.34 2290.08 3366.34 2291.05 3366.51 2291.91 3366.85 2292.66 3367.18 2293.4 3367.87 2294.22 3368.89 2295.11 3369.92 2296 3371.51 2297.09 3373.68 2298.39 3375.38 2299.42 3376.74 2300.36 3377.77 2301.21 3378.8 2302.06 3379.61 2302.9 3380.2 2303.74 3380.8 2304.58 3381.23 2305.46 3381.5 2306.39 3381.77 2307.33 3381.9 2308.45 3381.9 2309.78 3381.9 2312.18 3381.26 2314.24 3379.98 2315.96 3378.69 2317.67 3376.95 2318.95 3374.75 2319.79 3372.55 2320.63 3370.04 2321.04 3367.23 2321.04 3364.99 2321.04 3362.79 2320.88 3360.63 2320.54 3358.46 2320.2 3356.06 2319.63 3353.41 2318.82L3355.36 2309.98 3358.52 2309.98C3358.63 2312.57 3359.36 2314.53 3360.71 2315.86 3362.06 2317.18 3364.21 2317.84 3367.15 2317.84 3369.72 2317.84 3371.72 2317.27 3373.17 2316.12 3374.61 2314.97 3375.34 2313.34 3375.34 2311.24 3375.34 2310.02 3375.13 2308.97 3374.73 2308.1 3374.32 2307.22 3373.66 2306.37 3372.74 2305.56 3371.82 2304.75 3370.37 2303.74 3368.37 2302.52 3366.26 2301.25 3364.62 2300.11 3363.44 2299.08 3362.27 2298.05 3361.38 2296.94 3360.79 2295.74 3360.19 2294.53 3359.9 2293.15 3359.9 2291.58 3359.9 2289.45 3360.47 2287.58 3361.62 2285.97 3362.77 2284.36 3364.41 2283.12 3366.54 2282.26 3368.68 2281.4 3371.16 2280.96 3374 2280.96Z" fill-rule="evenodd"/><text fill="#000000" fill-opacity="0" font-family="Arial,Arial_MSFontService,sans-serif" font-size="40.0815" x="3353.41" y="2316.03">洧</text><path d="M3400.56 2299.85 3405.21 2299.85 3403.51 2307.41 3413.64 2307.41 3412.95 2310.72 3402.86 2310.72 3399.82 2323.2C3399.62 2324.03 3399.46 2324.78 3399.33 2325.45 3399.2 2326.11 3399.09 2326.71 3399.01 2327.25 3398.93 2327.79 3398.88 2328.27 3398.85 2328.71 3398.82 2329.15 3398.8 2329.55 3398.8 2329.93 3398.8 2331.12 3399.05 2332.06 3399.55 2332.73 3400.05 2333.41 3400.86 2333.74 3401.99 2333.74 3402.95 2333.74 3403.96 2333.39 3405.03 2332.69 3406.1 2331.98 3407.32 2330.87 3408.69 2329.37L3410.75 2331.45C3409.74 2332.58 3408.77 2333.55 3407.86 2334.34 3406.95 2335.13 3406.05 2335.78 3405.18 2336.29 3404.31 2336.8 3403.44 2337.16 3402.59 2337.39 3401.73 2337.62 3400.86 2337.74 3399.97 2337.74 3397.6 2337.74 3395.84 2337.18 3394.68 2336.07 3393.52 2334.96 3392.94 2333.32 3392.94 2331.15 3392.94 2330.42 3392.99 2329.61 3393.1 2328.73 3393.21 2327.84 3393.36 2326.98 3393.56 2326.15L3397.11 2310.72 3391.98 2310.72 3392.58 2308.43C3393.77 2308.43 3394.7 2308.31 3395.36 2308.08 3396.03 2307.86 3396.59 2307.54 3397.05 2307.15 3397.35 2306.87 3397.63 2306.53 3397.91 2306.12 3398.19 2305.71 3398.47 2305.22 3398.75 2304.64 3399.02 2304.07 3399.31 2303.39 3399.59 2302.6 3399.88 2301.82 3400.2 2300.9 3400.56 2299.85Z" fill-rule="evenodd"/><text fill="#000000" fill-opacity="0" font-family="Arial,Arial_MSFontService,sans-serif" font-size="37.8867" x="3391.98" y="2333">洧노</text><path d="M3435.49 2301.81 3440.32 2301.81 3440.32 2317.48 3455.06 2317.48 3455.06 2322.04 3440.32 2322.04 3440.32 2337.71 3435.49 2337.71 3435.49 2322.04 3420.75 2322.04 3420.75 2317.48 3435.49 2317.48Z" fill-rule="evenodd"/><text fill="#000000" fill-opacity="0" font-family="Arial,Arial_MSFontService,sans-serif" font-size="35.8911" x="3420.75" y="2333.22">+</text><path d="M3479.36 2298.84 3481.18 2298.84C3481.14 2299.93 3481.11 2300.91 3481.09 2301.77 3481.07 2302.63 3481.05 2303.47 3481.04 2304.29 3481.03 2305.1 3481.03 2305.91 3481.03 2306.7L3481.03 2329.34C3481.03 2329.95 3481.05 2330.48 3481.09 2330.93 3481.13 2331.38 3481.19 2331.75 3481.28 2332.06 3481.37 2332.37 3481.49 2332.63 3481.64 2332.85 3481.79 2333.07 3481.96 2333.26 3482.16 2333.42 3482.4 2333.65 3482.72 2333.84 3483.11 2333.97 3483.51 2334.1 3484.02 2334.21 3484.63 2334.3 3485.25 2334.38 3485.99 2334.45 3486.85 2334.5 3487.71 2334.55 3488.75 2334.59 3489.96 2334.61L3489.96 2337.2 3466.34 2337.2 3466.34 2334.61C3467.52 2334.57 3468.51 2334.52 3469.32 2334.47 3470.14 2334.42 3470.83 2334.35 3471.41 2334.27 3471.98 2334.18 3472.44 2334.08 3472.79 2333.97 3473.14 2333.86 3473.44 2333.72 3473.7 2333.57 3473.98 2333.39 3474.22 2333.19 3474.42 2332.98 3474.61 2332.78 3474.77 2332.51 3474.89 2332.2 3475.01 2331.88 3475.11 2331.49 3475.17 2331.03 3475.24 2330.58 3475.28 2330.01 3475.28 2329.34L3475.28 2307.98C3475.28 2307.21 3475.13 2306.66 3474.83 2306.34 3474.53 2306.02 3474.11 2305.87 3473.55 2305.87 3472.94 2305.87 3472.02 2306.18 3470.81 2306.82 3469.6 2307.45 3468.03 2308.4 3466.11 2309.65 3465.85 2309.19 3465.61 2308.73 3465.39 2308.28 3465.17 2307.82 3464.94 2307.35 3464.71 2306.88 3467.17 2305.53 3469.6 2304.18 3472.02 2302.84 3474.43 2301.5 3476.88 2300.17 3479.36 2298.84Z" fill-rule="evenodd"/><text fill="#000000" fill-opacity="0" font-family="Arial,Arial_MSFontService,sans-serif" font-size="38.3633" x="3464.71" y="2332.4">1</text><path d="M2752.08 2021.42 2752.08 2198.4 2742.92 2198.4 2742.92 2021.42ZM2733.75 2026 2747.5 1998.5 2761.25 2026Z"/><path d="M3344.87 2221.41 2812.58 1975.66 2816.42 1967.34 3348.71 2213.09ZM3348.39 2202.84 3367.6 2226.86 3336.87 2227.81Z"/><path d="M22.9168-4.58332 497.643-4.58297 497.643 4.58369 22.9168 4.58335ZM27.5 13.75 0 0 27.5-13.75Z" transform="matrix(-1 0 0 1 3340.14 2293.5)"/><path d="M3690.5 1904C3690.5 1851.81 3733.03 1809.5 3785.5 1809.5 3837.97 1809.5 3880.5 1851.81 3880.5 1904 3880.5 1956.19 3837.97 1998.5 3785.5 1998.5 3733.03 1998.5 3690.5 1956.19 3690.5 1904Z" stroke="#000000" stroke-width="6.875" stroke-linejoin="round" stroke-miterlimit="10" fill="none" fill-rule="evenodd"/><path d="M3725.4 1894.89C3722.59 1894.89 3720.14 1896.07 3718.04 1898.42 3715.95 1900.77 3714.3 1904.13 3713.1 1908.51 3711.9 1912.89 3711.3 1916.65 3711.3 1919.82 3711.3 1922.79 3711.91 1924.98 3713.14 1926.4 3714.37 1927.82 3716.23 1928.53 3718.71 1928.53 3721.36 1928.53 3723.71 1927.34 3725.76 1924.96 3727.82 1922.59 3729.44 1919.26 3730.63 1914.97 3731.82 1910.69 3732.41 1906.93 3732.41 1903.69 3732.41 1900.77 3731.84 1898.57 3730.71 1897.1 3729.57 1895.63 3727.8 1894.89 3725.4 1894.89ZM3726.21 1891.65C3730.53 1891.65 3733.83 1892.83 3736.1 1895.2 3738.37 1897.56 3739.5 1900.94 3739.5 1905.35 3739.5 1908.48 3738.96 1911.83 3737.86 1915.4 3736.77 1918.96 3735.27 1921.96 3733.36 1924.4 3731.46 1926.83 3729.18 1928.66 3726.53 1929.89 3723.89 1931.12 3720.85 1931.73 3717.42 1931.73 3713.23 1931.73 3709.98 1930.56 3707.67 1928.2 3705.36 1925.85 3704.2 1922.48 3704.2 1918.07 3704.2 1915.91 3704.53 1913.41 3705.18 1910.58 3706.01 1906.74 3707.42 1903.39 3709.39 1900.52 3711.36 1897.66 3713.8 1895.47 3716.69 1893.94 3719.58 1892.41 3722.75 1891.65 3726.21 1891.65Z" fill-rule="evenodd"/><text fill="#000000" fill-opacity="0" font-family="Arial,Arial_MSFontService,sans-serif" font-size="40.0815" x="3704.2" y="1926.72">洧녶</text><path d="M3754.06 1910.53 3758.7 1910.53 3757 1918.1 3767.13 1918.1 3766.45 1921.41 3756.35 1921.41 3753.31 1933.89C3753.11 1934.72 3752.95 1935.47 3752.82 1936.14 3752.69 1936.8 3752.59 1937.4 3752.51 1937.94 3752.43 1938.47 3752.37 1938.96 3752.34 1939.4 3752.31 1939.83 3752.3 1940.24 3752.3 1940.62 3752.3 1941.81 3752.55 1942.74 3753.04 1943.42 3753.54 1944.09 3754.35 1944.43 3755.49 1944.43 3756.44 1944.43 3757.45 1944.08 3758.52 1943.37 3759.6 1942.67 3760.82 1941.56 3762.19 1940.05L3764.24 1942.14C3763.23 1943.27 3762.27 1944.23 3761.35 1945.03 3760.44 1945.82 3759.55 1946.47 3758.67 1946.98 3757.8 1947.48 3756.93 1947.85 3756.08 1948.08 3755.23 1948.31 3754.35 1948.42 3753.46 1948.42 3751.1 1948.42 3749.33 1947.87 3748.17 1946.75 3747.01 1945.64 3746.43 1944 3746.43 1941.84 3746.43 1941.1 3746.49 1940.3 3746.59 1939.41 3746.7 1938.53 3746.86 1937.67 3747.06 1936.84L3750.6 1921.41 3745.48 1921.41 3746.07 1919.11C3747.26 1919.11 3748.19 1919 3748.86 1918.77 3749.52 1918.54 3750.08 1918.23 3750.54 1917.83 3750.84 1917.55 3751.13 1917.21 3751.4 1916.8 3751.68 1916.4 3751.96 1915.91 3752.24 1915.33 3752.52 1914.75 3752.8 1914.07 3753.09 1913.29 3753.38 1912.51 3753.7 1911.59 3754.06 1910.53Z" fill-rule="evenodd"/><text fill="#000000" fill-opacity="0" font-family="Arial,Arial_MSFontService,sans-serif" font-size="37.8867" x="3745.48" y="1943.69">洧노</text><path d="M3788.98 1912.5 3793.81 1912.5 3793.81 1928.17 3808.55 1928.17 3808.55 1932.72 3793.81 1932.72 3793.81 1948.39 3788.98 1948.39 3788.98 1932.72 3774.24 1932.72 3774.24 1928.17 3788.98 1928.17Z" fill-rule="evenodd"/><text fill="#000000" fill-opacity="0" font-family="Arial,Arial_MSFontService,sans-serif" font-size="35.8911" x="3774.24" y="1943.91">+</text><path d="M3832.85 1909.52 3834.67 1909.52C3834.63 1910.61 3834.6 1911.59 3834.58 1912.46 3834.56 1913.32 3834.55 1914.16 3834.54 1914.97 3834.53 1915.79 3834.52 1916.59 3834.52 1917.39L3834.52 1940.02C3834.52 1940.64 3834.54 1941.17 3834.58 1941.62 3834.62 1942.06 3834.68 1942.44 3834.77 1942.75 3834.86 1943.06 3834.98 1943.32 3835.13 1943.54 3835.28 1943.76 3835.45 1943.94 3835.65 1944.1 3835.89 1944.34 3836.21 1944.52 3836.61 1944.65 3837 1944.78 3837.51 1944.89 3838.12 1944.98 3838.74 1945.07 3839.48 1945.14 3840.34 1945.19 3841.21 1945.24 3842.25 1945.27 3843.46 1945.29L3843.46 1947.89 3819.84 1947.89 3819.84 1945.29C3821.01 1945.25 3822 1945.21 3822.82 1945.16 3823.63 1945.11 3824.32 1945.04 3824.9 1944.95 3825.48 1944.86 3825.94 1944.76 3826.29 1944.65 3826.63 1944.54 3826.94 1944.41 3827.19 1944.25 3827.47 1944.07 3827.71 1943.88 3827.91 1943.67 3828.11 1943.46 3828.27 1943.2 3828.39 1942.88 3828.5 1942.56 3828.6 1942.18 3828.67 1941.72 3828.74 1941.26 3828.77 1940.7 3828.77 1940.02L3828.77 1918.67C3828.77 1917.89 3828.62 1917.35 3828.33 1917.03 3828.03 1916.71 3827.6 1916.55 3827.04 1916.55 3826.43 1916.55 3825.52 1916.87 3824.3 1917.5 3823.09 1918.14 3821.52 1919.08 3819.6 1920.33 3819.34 1919.88 3819.1 1919.42 3818.88 1918.96 3818.67 1918.51 3818.44 1918.04 3818.2 1917.56 3820.66 1916.21 3823.1 1914.87 3825.51 1913.53 3827.92 1912.19 3830.37 1910.85 3832.85 1909.52Z" fill-rule="evenodd"/><text fill="#000000" fill-opacity="0" font-family="Arial,Arial_MSFontService,sans-serif" font-size="38.3633" x="3818.2" y="1943.09">1</text><path d="M3339.5 1904C3339.5 1851.81 3382.03 1809.5 3434.5 1809.5 3486.97 1809.5 3529.5 1851.81 3529.5 1904 3529.5 1956.19 3486.97 1998.5 3434.5 1998.5 3382.03 1998.5 3339.5 1956.19 3339.5 1904Z" stroke="#000000" stroke-width="6.875" stroke-linejoin="round" stroke-miterlimit="10" fill="none" fill-rule="evenodd"/><path d="M3372.63 1894.89C3369.85 1894.89 3367.35 1896.01 3365.13 1898.26 3362.92 1900.5 3361.19 1903.51 3359.95 1907.27 3358.7 1911.04 3358.08 1914.81 3358.08 1918.56 3358.08 1921.37 3358.47 1923.47 3359.24 1924.86 3360.01 1926.25 3361.3 1926.95 3363.11 1926.95 3364.89 1926.95 3366.64 1926.18 3368.35 1924.64 3370.07 1923.1 3371.84 1920.9 3373.66 1918.05 3375.49 1915.2 3376.78 1911.91 3377.53 1908.19L3377.9 1906.44C3378.14 1905.34 3378.3 1904.38 3378.39 1903.57 3378.47 1902.76 3378.51 1901.88 3378.51 1900.93 3378.51 1898.85 3378.06 1897.32 3377.17 1896.35 3376.28 1895.38 3374.76 1894.89 3372.63 1894.89ZM3371.82 1891.69C3373.58 1891.69 3375.22 1891.89 3376.74 1892.28 3378.27 1892.67 3379.84 1893.37 3381.47 1894.37L3385.19 1891.69 3387.79 1892.34 3381.83 1918.03C3381.24 1920.6 3380.94 1922.6 3380.94 1924.03 3380.94 1925.11 3381.11 1925.9 3381.47 1926.38 3381.82 1926.87 3382.37 1927.11 3383.13 1927.11 3383.94 1927.11 3384.8 1926.78 3385.72 1926.12 3386.64 1925.46 3387.94 1924.19 3389.61 1922.33L3391.92 1924.6C3389.49 1927.19 3387.42 1929.04 3385.7 1930.13 3383.98 1931.23 3382.13 1931.77 3380.13 1931.77 3378.45 1931.77 3377.12 1931.22 3376.12 1930.11 3375.12 1929 3374.62 1927.53 3374.62 1925.69 3374.62 1924.21 3374.93 1922.63 3375.55 1920.95L3375.02 1920.79C3372.43 1924.57 3369.97 1927.34 3367.65 1929.1 3365.32 1930.85 3362.86 1931.73 3360.27 1931.73 3357.3 1931.73 3354.99 1930.61 3353.36 1928.37 3351.73 1926.13 3350.91 1922.98 3350.91 1918.93 3350.91 1914.28 3351.82 1909.81 3353.64 1905.53 3355.47 1901.25 3357.97 1897.87 3361.16 1895.4 3364.35 1892.93 3367.9 1891.69 3371.82 1891.69Z" fill-rule="evenodd"/><text fill="#000000" fill-opacity="0" font-family="Arial,Arial_MSFontService,sans-serif" font-size="40.0815" x="3350.91" y="1926.76">洧녩</text><path d="M3405.29 1910.62 3409.94 1910.62 3408.24 1918.18 3418.37 1918.18 3417.68 1921.49 3407.59 1921.49 3404.55 1933.97C3404.35 1934.8 3404.19 1935.55 3404.06 1936.22 3403.93 1936.88 3403.82 1937.48 3403.74 1938.02 3403.67 1938.56 3403.61 1939.04 3403.58 1939.48 3403.55 1939.92 3403.54 1940.32 3403.54 1940.7 3403.54 1941.89 3403.78 1942.83 3404.28 1943.5 3404.78 1944.18 3405.59 1944.51 3406.72 1944.51 3407.68 1944.51 3408.69 1944.16 3409.76 1943.46 3410.83 1942.75 3412.05 1941.64 3413.42 1940.13L3415.48 1942.22C3414.47 1943.35 3413.5 1944.31 3412.59 1945.11 3411.68 1945.9 3410.78 1946.55 3409.91 1947.06 3409.04 1947.57 3408.17 1947.93 3407.32 1948.16 3406.46 1948.39 3405.59 1948.5 3404.7 1948.5 3402.33 1948.5 3400.57 1947.95 3399.41 1946.84 3398.25 1945.72 3397.67 1944.09 3397.67 1941.92 3397.67 1941.19 3397.72 1940.38 3397.83 1939.49 3397.94 1938.61 3398.1 1937.75 3398.29 1936.92L3401.84 1921.49 3396.72 1921.49 3397.31 1919.2C3398.5 1919.2 3399.43 1919.08 3400.1 1918.85 3400.76 1918.62 3401.32 1918.31 3401.78 1917.91 3402.08 1917.64 3402.36 1917.29 3402.64 1916.89 3402.92 1916.48 3403.2 1915.99 3403.48 1915.41 3403.75 1914.84 3404.04 1914.16 3404.33 1913.37 3404.61 1912.59 3404.94 1911.67 3405.29 1910.62Z" fill-rule="evenodd"/><text fill="#000000" fill-opacity="0" font-family="Arial,Arial_MSFontService,sans-serif" font-size="37.8867" x="3396.72" y="1943.77">洧노</text><path d="M3440.22 1912.58 3445.05 1912.58 3445.05 1928.25 3459.79 1928.25 3459.79 1932.81 3445.05 1932.81 3445.05 1948.47 3440.22 1948.47 3440.22 1932.81 3425.48 1932.81 3425.48 1928.25 3440.22 1928.25Z" fill-rule="evenodd"/><text fill="#000000" fill-opacity="0" font-family="Arial,Arial_MSFontService,sans-serif" font-size="35.8911" x="3425.48" y="1943.99">+</text><path d="M3484.09 1909.6 3485.91 1909.6C3485.87 1910.7 3485.84 1911.67 3485.82 1912.54 3485.8 1913.4 3485.78 1914.24 3485.77 1915.06 3485.76 1915.87 3485.76 1916.67 3485.76 1917.47L3485.76 1940.1C3485.76 1940.72 3485.78 1941.25 3485.82 1941.7 3485.86 1942.15 3485.92 1942.52 3486.01 1942.83 3486.1 1943.14 3486.22 1943.4 3486.37 1943.62 3486.52 1943.84 3486.69 1944.03 3486.89 1944.19 3487.13 1944.42 3487.45 1944.61 3487.84 1944.74 3488.24 1944.87 3488.75 1944.97 3489.36 1945.06 3489.98 1945.15 3490.72 1945.22 3491.58 1945.27 3492.45 1945.32 3493.48 1945.36 3494.69 1945.38L3494.69 1947.97 3471.07 1947.97 3471.07 1945.38C3472.25 1945.34 3473.24 1945.29 3474.05 1945.24 3474.87 1945.19 3475.56 1945.12 3476.14 1945.03 3476.71 1944.94 3477.18 1944.85 3477.52 1944.74 3477.87 1944.63 3478.17 1944.49 3478.43 1944.33 3478.71 1944.16 3478.95 1943.96 3479.15 1943.75 3479.34 1943.55 3479.5 1943.28 3479.62 1942.96 3479.74 1942.65 3479.84 1942.26 3479.91 1941.8 3479.98 1941.35 3480.01 1940.78 3480.01 1940.1L3480.01 1918.75C3480.01 1917.97 3479.86 1917.43 3479.56 1917.11 3479.27 1916.79 3478.84 1916.63 3478.28 1916.63 3477.67 1916.63 3476.75 1916.95 3475.54 1917.59 3474.33 1918.22 3472.76 1919.17 3470.84 1920.42 3470.58 1919.96 3470.34 1919.5 3470.12 1919.05 3469.9 1918.59 3469.67 1918.12 3469.44 1917.65 3471.9 1916.3 3474.34 1914.95 3476.75 1913.61 3479.16 1912.27 3481.61 1910.94 3484.09 1909.6Z" fill-rule="evenodd"/><text fill="#000000" fill-opacity="0" font-family="Arial,Arial_MSFontService,sans-serif" font-size="38.3633" x="3469.44" y="1943.17">1</text><path d="M3439.08 2021.42 3439.08 2198.4 3429.92 2198.4 3429.92 2021.42ZM3420.75 2026 3434.5 1998.5 3448.25 2026Z"/><path d="M4026.5 2293.5C4026.5 2241.03 4069.03 2198.5 4121.5 2198.5 4173.97 2198.5 4216.5 2241.03 4216.5 2293.5 4216.5 2345.97 4173.97 2388.5 4121.5 2388.5 4069.03 2388.5 4026.5 2345.97 4026.5 2293.5Z" stroke="#000000" stroke-width="6.875" stroke-linejoin="round" stroke-miterlimit="10" fill="none" fill-rule="evenodd"/><path d="M4060.97 2280.96C4063.48 2280.96 4065.77 2281.11 4067.84 2281.41 4069.91 2281.71 4071.97 2282.22 4074.02 2282.95L4072.2 2291.46 4068.91 2291.46C4068.62 2289.05 4067.83 2287.23 4066.54 2285.99 4065.26 2284.75 4063.24 2284.12 4060.48 2284.12 4058.35 2284.12 4056.62 2284.67 4055.3 2285.77 4053.97 2286.86 4053.31 2288.3 4053.31 2290.08 4053.31 2291.05 4053.48 2291.91 4053.82 2292.66 4054.16 2293.4 4054.84 2294.22 4055.86 2295.11 4056.89 2296 4058.49 2297.09 4060.65 2298.39 4062.35 2299.42 4063.71 2300.36 4064.74 2301.21 4065.77 2302.06 4066.58 2302.9 4067.17 2303.74 4067.77 2304.58 4068.2 2305.46 4068.47 2306.39 4068.74 2307.33 4068.87 2308.45 4068.87 2309.78 4068.87 2312.18 4068.23 2314.24 4066.95 2315.96 4065.67 2317.67 4063.92 2318.95 4061.72 2319.79 4059.52 2320.63 4057.01 2321.04 4054.2 2321.04 4051.96 2321.04 4049.76 2320.88 4047.6 2320.54 4045.44 2320.2 4043.03 2319.63 4040.38 2318.82L4042.33 2309.98 4045.49 2309.98C4045.6 2312.57 4046.33 2314.53 4047.68 2315.86 4049.03 2317.18 4051.18 2317.84 4054.12 2317.84 4056.69 2317.84 4058.69 2317.27 4060.14 2316.12 4061.59 2314.97 4062.31 2313.34 4062.31 2311.24 4062.31 2310.02 4062.11 2308.97 4061.7 2308.1 4061.29 2307.22 4060.63 2306.37 4059.71 2305.56 4058.8 2304.75 4057.34 2303.74 4055.34 2302.52 4053.23 2301.25 4051.59 2300.11 4050.41 2299.08 4049.24 2298.05 4048.35 2296.94 4047.76 2295.74 4047.16 2294.53 4046.87 2293.15 4046.87 2291.58 4046.87 2289.45 4047.44 2287.58 4048.59 2285.97 4049.74 2284.36 4051.38 2283.12 4053.51 2282.26 4055.65 2281.4 4058.13 2280.96 4060.97 2280.96Z" fill-rule="evenodd"/><text fill="#000000" fill-opacity="0" font-family="Arial,Arial_MSFontService,sans-serif" font-size="40.0815" x="4040.38" y="2316.03">洧</text><path d="M4087.53 2299.85 4092.18 2299.85 4090.48 2307.41 4100.61 2307.41 4099.92 2310.72 4089.83 2310.72 4086.79 2323.2C4086.59 2324.03 4086.43 2324.78 4086.3 2325.45 4086.17 2326.11 4086.06 2326.71 4085.98 2327.25 4085.9 2327.79 4085.85 2328.27 4085.82 2328.71 4085.79 2329.15 4085.78 2329.55 4085.78 2329.93 4085.78 2331.12 4086.02 2332.06 4086.52 2332.73 4087.02 2333.41 4087.83 2333.74 4088.96 2333.74 4089.92 2333.74 4090.93 2333.39 4092 2332.69 4093.07 2331.98 4094.29 2330.87 4095.66 2329.37L4097.72 2331.45C4096.71 2332.58 4095.74 2333.55 4094.83 2334.34 4093.92 2335.13 4093.02 2335.78 4092.15 2336.29 4091.28 2336.8 4090.41 2337.16 4089.56 2337.39 4088.7 2337.62 4087.83 2337.74 4086.94 2337.74 4084.57 2337.74 4082.81 2337.18 4081.65 2336.07 4080.49 2334.96 4079.91 2333.32 4079.91 2331.15 4079.91 2330.42 4079.96 2329.61 4080.07 2328.73 4080.18 2327.84 4080.33 2326.98 4080.53 2326.15L4084.08 2310.72 4078.95 2310.72 4079.55 2308.43C4080.74 2308.43 4081.67 2308.31 4082.34 2308.08 4083 2307.86 4083.56 2307.54 4084.02 2307.15 4084.32 2306.87 4084.6 2306.53 4084.88 2306.12 4085.16 2305.71 4085.44 2305.22 4085.72 2304.64 4085.99 2304.07 4086.28 2303.39 4086.56 2302.6 4086.85 2301.82 4087.18 2300.9 4087.53 2299.85Z" fill-rule="evenodd"/><text fill="#000000" fill-opacity="0" font-family="Arial,Arial_MSFontService,sans-serif" font-size="37.8867" x="4078.95" y="2333">洧노</text><path d="M4122.46 2301.81 4127.29 2301.81 4127.29 2317.48 4142.03 2317.48 4142.03 2322.04 4127.29 2322.04 4127.29 2337.71 4122.46 2337.71 4122.46 2322.04 4107.72 2322.04 4107.72 2317.48 4122.46 2317.48Z" fill-rule="evenodd"/><text fill="#000000" fill-opacity="0" font-family="Arial,Arial_MSFontService,sans-serif" font-size="35.8911" x="4107.72" y="2333.22">+</text><path d="M4164.01 2298.63C4166.07 2298.63 4167.83 2298.86 4169.29 2299.33 4170.75 2299.79 4171.94 2300.42 4172.85 2301.22 4173.77 2302.01 4174.43 2302.97 4174.83 2304.08 4175.24 2305.19 4175.44 2306.39 4175.44 2307.68 4175.44 2308.46 4175.39 2309.18 4175.28 2309.84 4175.17 2310.51 4174.98 2311.16 4174.71 2311.81 4174.45 2312.45 4174.09 2313.1 4173.66 2313.76 4173.22 2314.41 4172.67 2315.11 4172.02 2315.84 4171.52 2316.48 4170.88 2317.21 4170.08 2318.05 4169.29 2318.88 4168.42 2319.77 4167.48 2320.73 4166.53 2321.68 4165.55 2322.67 4164.51 2323.71 4163.48 2324.74 4162.48 2325.76 4161.5 2326.77 4160.53 2327.79 4159.64 2328.77 4158.82 2329.72 4158.01 2330.68 4157.34 2331.55 4156.83 2332.34L4167.85 2332.34C4168.78 2332.34 4169.53 2332.31 4170.08 2332.24 4170.64 2332.17 4171.1 2332.02 4171.47 2331.78 4171.84 2331.54 4172.15 2331.18 4172.41 2330.69 4172.66 2330.2 4172.96 2329.53 4173.3 2328.68L4176.07 2328.68C4175.97 2330.09 4175.88 2331.51 4175.79 2332.94 4175.7 2334.37 4175.6 2335.79 4175.5 2337.2L4150.28 2337.2 4150.28 2335.65C4150.75 2334.58 4151.31 2333.52 4151.94 2332.48 4152.58 2331.44 4153.29 2330.38 4154.09 2329.31 4154.88 2328.23 4155.79 2327.13 4156.8 2325.99 4157.81 2324.84 4158.93 2323.66 4160.16 2322.43 4162.03 2320.56 4163.55 2318.97 4164.72 2317.65 4165.89 2316.32 4166.82 2315.15 4167.49 2314.12 4168.17 2313.08 4168.63 2312.13 4168.88 2311.26 4169.12 2310.38 4169.25 2309.45 4169.25 2308.46 4169.25 2307.44 4169.1 2306.51 4168.82 2305.66 4168.53 2304.8 4168.12 2304.08 4167.58 2303.48 4167.04 2302.89 4166.36 2302.42 4165.54 2302.08 4164.72 2301.74 4163.77 2301.58 4162.7 2301.58 4160.85 2301.58 4159.3 2302.08 4158.05 2303.08 4156.8 2304.08 4155.83 2305.54 4155.13 2307.44L4151.23 2307.44 4151.23 2301.64C4153.77 2300.58 4156.11 2299.82 4158.24 2299.34 4160.38 2298.87 4162.3 2298.63 4164.01 2298.63Z" fill-rule="evenodd"/><text fill="#000000" fill-opacity="0" font-family="Arial,Arial_MSFontService,sans-serif" font-size="38.5718" x="4150.28" y="2332.38">2</text><path d="M22.9168-4.58332 497.643-4.58297 497.643 4.58369 22.9168 4.58335ZM27.5 13.75 0 0 27.5-13.75Z" transform="matrix(-1 0 0 1 4027.14 2293.5)"/><path d="M22.919-4.57161 161.603-4.50069 161.598 4.66598 22.9143 4.59505ZM27.493 13.7641 0 0 27.507-13.7359Z" transform="matrix(1 0 0 -1 2842.5 1904.58)"/><path d="M22.919-4.57161 161.603-4.50069 161.598 4.66598 22.9143 4.59505ZM27.493 13.7641 0 0 27.507-13.7359Z" transform="matrix(1 0 0 -1 3529.5 1904.58)"/><path d="M4031.87 2221.41 3499.58 1975.66 3503.42 1967.34 4035.71 2213.09ZM4035.39 2202.85 4054.6 2226.86 4023.87 2227.81Z"/></g></svg>