<?xml version="1.0" encoding="UTF-8" standalone="no"?>
<svg
   width="1339"
   height="895"
   xml:space="preserve"
   overflow="hidden"
   version="1.1"
   id="svg29"
   sodipodi:docname="contrastive_learning_framework_33.svg"
   inkscape:version="1.3.2 (091e20e, 2023-11-25, custom)"
   xmlns:inkscape="http://www.inkscape.org/namespaces/inkscape"
   xmlns:sodipodi="http://sodipodi.sourceforge.net/DTD/sodipodi-0.dtd"
   xmlns="http://www.w3.org/2000/svg"
   xmlns:svg="http://www.w3.org/2000/svg"><defs
     id="defs29" /><sodipodi:namedview
     id="namedview29"
     pagecolor="#ffffff"
     bordercolor="#000000"
     borderopacity="0.25"
     inkscape:showpageshadow="2"
     inkscape:pageopacity="0.0"
     inkscape:pagecheckerboard="0"
     inkscape:deskcolor="#d1d1d1"
     inkscape:zoom="0.90055866"
     inkscape:cx="669.02916"
     inkscape:cy="447.5"
     inkscape:window-width="1920"
     inkscape:window-height="1002"
     inkscape:window-x="-8"
     inkscape:window-y="-8"
     inkscape:window-maximized="1"
     inkscape:current-layer="svg29" /><g
     transform="translate(-1797 -1591)"
     id="g29"><path
       d="M2317.44 1981.5C2319.61 1981.5 2321.38 1979.74 2321.38 1977.56L2317.44 1977.56C2318.52 1977.56 2319.41 1976.68 2319.41 1975.59 2319.41 1974.51 2318.52 1973.62 2317.44 1973.62L2321.38 1973.62 2321.38 1922.44C2321.38 1920.26 2323.14 1918.5 2325.31 1918.5L2441.56 1918.5C2443.74 1918.5 2445.5 1920.26 2445.5 1922.44 2445.5 1924.61 2443.74 1926.38 2441.56 1926.38L2437.62 1926.38 2437.62 1977.56C2437.62 1979.74 2435.86 1981.5 2433.69 1981.5ZM2329.25 1922.44C2329.25 1924.61 2327.49 1926.38 2325.31 1926.38 2324.23 1926.38 2323.34 1925.49 2323.34 1924.41 2323.34 1923.32 2324.23 1922.44 2325.31 1922.44Z"
       fill="#FFFFFF"
       fill-rule="evenodd"
       id="path1" /><path
       d="M2329.25 1922.44C2329.25 1924.61 2327.49 1926.38 2325.31 1926.38 2324.23 1926.38 2323.34 1925.49 2323.34 1924.41 2323.34 1923.32 2324.23 1922.44 2325.31 1922.44ZM2321.38 1977.56C2321.38 1979.74 2319.61 1981.5 2317.44 1981.5 2315.26 1981.5 2313.5 1979.74 2313.5 1977.56 2313.5 1975.39 2315.26 1973.62 2317.44 1973.62 2318.52 1973.62 2319.41 1974.51 2319.41 1975.59 2319.41 1976.68 2318.52 1977.56 2317.44 1977.56Z"
       fill="#CDCDCD"
       fill-rule="evenodd"
       id="path2" /><path
       d="M2321.38 1973.62 2321.38 1922.44C2321.38 1920.26 2323.14 1918.5 2325.31 1918.5L2441.56 1918.5C2443.74 1918.5 2445.5 1920.26 2445.5 1922.44 2445.5 1924.61 2443.74 1926.38 2441.56 1926.38L2437.62 1926.38 2437.62 1977.56C2437.62 1979.74 2435.86 1981.5 2433.69 1981.5L2317.44 1981.5C2315.26 1981.5 2313.5 1979.74 2313.5 1977.56 2313.5 1975.39 2315.26 1973.62 2317.44 1973.62ZM2325.31 1918.5C2327.49 1918.5 2329.25 1920.26 2329.25 1922.44 2329.25 1924.61 2327.49 1926.38 2325.31 1926.38 2324.23 1926.38 2323.34 1925.49 2323.34 1924.41 2323.34 1923.32 2324.23 1922.44 2325.31 1922.44L2329.25 1922.44M2437.62 1926.38 2325.31 1926.38M2317.44 1973.62C2318.52 1973.62 2319.41 1974.51 2319.41 1975.59 2319.41 1976.68 2318.52 1977.56 2317.44 1977.56L2321.38 1977.56M2317.44 1981.5C2319.61 1981.5 2321.38 1979.74 2321.38 1977.56L2321.38 1973.62"
       stroke="#7030A0"
       stroke-width="3.4375"
       stroke-linejoin="round"
       stroke-miterlimit="10"
       fill="none"
       fill-rule="evenodd"
       id="path3" /><text
       font-family="Calibri,Calibri_MSFontService,sans-serif"
       font-weight="400"
       font-size="55"
       transform="matrix(1 0 0 1 2353.78 1969)"
       id="text3">1</text><path
       d="M2302.38 2061.5C2304.52 2061.5 2306.25 2059.77 2306.25 2057.62L2302.38 2057.62C2303.45 2057.62 2304.31 2056.76 2304.31 2055.69 2304.31 2054.62 2303.45 2053.75 2302.38 2053.75L2306.25 2053.75 2306.25 2003.38C2306.25 2001.23 2307.99 1999.5 2310.13 1999.5L2426.63 1999.5C2428.77 1999.5 2430.5 2001.23 2430.5 2003.38 2430.5 2005.52 2428.77 2007.25 2426.63 2007.25L2422.75 2007.25 2422.75 2057.62C2422.75 2059.77 2421.02 2061.5 2418.88 2061.5ZM2314 2003.38C2314 2005.52 2312.27 2007.25 2310.13 2007.25 2309.06 2007.25 2308.19 2006.38 2308.19 2005.31 2308.19 2004.24 2309.06 2003.38 2310.13 2003.38Z"
       fill="#FFFFFF"
       fill-rule="evenodd"
       id="path4" /><path
       d="M2314 2003.38C2314 2005.52 2312.27 2007.25 2310.13 2007.25 2309.06 2007.25 2308.19 2006.38 2308.19 2005.31 2308.19 2004.24 2309.06 2003.38 2310.13 2003.38ZM2306.25 2057.62C2306.25 2059.77 2304.52 2061.5 2302.38 2061.5 2300.24 2061.5 2298.5 2059.77 2298.5 2057.62 2298.5 2055.48 2300.24 2053.75 2302.38 2053.75 2303.45 2053.75 2304.31 2054.62 2304.31 2055.69 2304.31 2056.76 2303.45 2057.63 2302.38 2057.63Z"
       fill="#CDCDCD"
       fill-rule="evenodd"
       id="path5" /><path
       d="M2306.25 2053.75 2306.25 2003.38C2306.25 2001.23 2307.99 1999.5 2310.13 1999.5L2426.63 1999.5C2428.77 1999.5 2430.5 2001.23 2430.5 2003.38 2430.5 2005.52 2428.77 2007.25 2426.63 2007.25L2422.75 2007.25 2422.75 2057.62C2422.75 2059.77 2421.02 2061.5 2418.88 2061.5L2302.38 2061.5C2300.24 2061.5 2298.5 2059.77 2298.5 2057.62 2298.5 2055.48 2300.24 2053.75 2302.38 2053.75ZM2310.13 1999.5C2312.27 1999.5 2314 2001.23 2314 2003.38 2314 2005.52 2312.27 2007.25 2310.13 2007.25 2309.06 2007.25 2308.19 2006.38 2308.19 2005.31 2308.19 2004.24 2309.06 2003.38 2310.13 2003.38L2314 2003.38M2422.75 2007.25 2310.13 2007.25M2302.38 2053.75C2303.45 2053.75 2304.31 2054.62 2304.31 2055.69 2304.31 2056.76 2303.45 2057.63 2302.38 2057.63L2306.25 2057.62M2302.38 2061.5C2304.52 2061.5 2306.25 2059.77 2306.25 2057.62L2306.25 2053.75"
       stroke="#7030A0"
       stroke-width="3.4375"
       stroke-linejoin="round"
       stroke-miterlimit="10"
       fill="none"
       fill-rule="evenodd"
       id="path6" /><text
       font-family="Calibri,Calibri_MSFontService,sans-serif"
       font-weight="400"
       font-size="55"
       transform="matrix(1 0 0 1 2339.01 2050)"
       id="text6">2</text><path
       d="M2392.37 2043.5C2394.51 2043.5 2396.25 2041.77 2396.25 2039.63L2392.37 2039.63C2393.44 2039.63 2394.31 2038.76 2394.31 2037.69 2394.31 2036.62 2393.44 2035.75 2392.37 2035.75L2396.25 2035.75 2396.25 1985.37C2396.25 1983.23 2397.98 1981.5 2400.12 1981.5L2517.62 1981.5C2519.76 1981.5 2521.5 1983.23 2521.5 1985.37 2521.5 1987.51 2519.76 1989.25 2517.62 1989.25L2513.75 1989.25 2513.75 2039.63C2513.75 2041.77 2512.01 2043.5 2509.87 2043.5ZM2404 1985.37C2404 1987.51 2402.26 1989.25 2400.12 1989.25 2399.05 1989.25 2398.19 1988.38 2398.19 1987.31 2398.19 1986.24 2399.05 1985.37 2400.12 1985.37Z"
       fill="#FFFFFF"
       fill-rule="evenodd"
       id="path7" /><path
       d="M2404 1985.37C2404 1987.51 2402.26 1989.25 2400.12 1989.25 2399.05 1989.25 2398.19 1988.38 2398.19 1987.31 2398.19 1986.24 2399.05 1985.37 2400.12 1985.37ZM2396.25 2039.63C2396.25 2041.77 2394.51 2043.5 2392.37 2043.5 2390.23 2043.5 2388.5 2041.77 2388.5 2039.63 2388.5 2037.49 2390.23 2035.75 2392.37 2035.75 2393.44 2035.75 2394.31 2036.62 2394.31 2037.69 2394.31 2038.76 2393.44 2039.63 2392.37 2039.63Z"
       fill="#CDCDCD"
       fill-rule="evenodd"
       id="path8" /><path
       d="M2396.25 2035.75 2396.25 1985.37C2396.25 1983.23 2397.98 1981.5 2400.12 1981.5L2517.62 1981.5C2519.76 1981.5 2521.5 1983.23 2521.5 1985.37 2521.5 1987.51 2519.76 1989.25 2517.62 1989.25L2513.75 1989.25 2513.75 2039.63C2513.75 2041.77 2512.01 2043.5 2509.87 2043.5L2392.37 2043.5C2390.23 2043.5 2388.5 2041.77 2388.5 2039.63 2388.5 2037.49 2390.23 2035.75 2392.37 2035.75ZM2400.12 1981.5C2402.26 1981.5 2404 1983.23 2404 1985.37 2404 1987.51 2402.26 1989.25 2400.12 1989.25 2399.05 1989.25 2398.19 1988.38 2398.19 1987.31 2398.19 1986.24 2399.05 1985.37 2400.12 1985.37L2404 1985.37M2513.75 1989.25 2400.12 1989.25M2392.37 2035.75C2393.44 2035.75 2394.31 2036.62 2394.31 2037.69 2394.31 2038.76 2393.44 2039.63 2392.37 2039.63L2396.25 2039.63M2392.37 2043.5C2394.51 2043.5 2396.25 2041.77 2396.25 2039.63L2396.25 2035.75"
       stroke="#7030A0"
       stroke-width="3.4375"
       stroke-linejoin="round"
       stroke-miterlimit="10"
       fill="none"
       fill-rule="evenodd"
       id="path9" /><text
       font-family="Calibri,Calibri_MSFontService,sans-serif"
       font-weight="400"
       font-size="55"
       transform="matrix(1 0 0 1 2429.23 2032)"
       id="text9">3</text><path
       d="M2822.38 2158.5C2824.52 2158.5 2826.25 2156.76 2826.25 2154.62L2822.38 2154.62C2823.45 2154.62 2824.31 2153.76 2824.31 2152.69 2824.31 2151.62 2823.45 2150.75 2822.38 2150.75L2826.25 2150.75 2826.25 2100.38C2826.25 2098.23 2827.98 2096.5 2830.12 2096.5L2946.62 2096.5C2948.77 2096.5 2950.5 2098.23 2950.5 2100.38 2950.5 2102.52 2948.77 2104.25 2946.62 2104.25L2942.75 2104.25 2942.75 2154.62C2942.75 2156.76 2941.02 2158.5 2938.88 2158.5ZM2834 2100.38C2834 2102.52 2832.27 2104.25 2830.12 2104.25 2829.05 2104.25 2828.19 2103.38 2828.19 2102.31 2828.19 2101.24 2829.05 2100.37 2830.12 2100.37Z"
       fill="#FFFFFF"
       fill-rule="evenodd"
       id="path10" /><path
       d="M2834 2100.38C2834 2102.52 2832.27 2104.25 2830.12 2104.25 2829.05 2104.25 2828.19 2103.38 2828.19 2102.31 2828.19 2101.24 2829.05 2100.37 2830.12 2100.37ZM2826.25 2154.62C2826.25 2156.76 2824.52 2158.5 2822.38 2158.5 2820.23 2158.5 2818.5 2156.76 2818.5 2154.62 2818.5 2152.48 2820.23 2150.75 2822.38 2150.75 2823.45 2150.75 2824.31 2151.62 2824.31 2152.69 2824.31 2153.76 2823.45 2154.62 2822.38 2154.62Z"
       fill="#CDCDCD"
       fill-rule="evenodd"
       id="path11" /><path
       d="M2826.25 2150.75 2826.25 2100.38C2826.25 2098.23 2827.98 2096.5 2830.12 2096.5L2946.62 2096.5C2948.77 2096.5 2950.5 2098.23 2950.5 2100.38 2950.5 2102.52 2948.77 2104.25 2946.62 2104.25L2942.75 2104.25 2942.75 2154.62C2942.75 2156.76 2941.02 2158.5 2938.88 2158.5L2822.38 2158.5C2820.23 2158.5 2818.5 2156.76 2818.5 2154.62 2818.5 2152.48 2820.23 2150.75 2822.38 2150.75ZM2830.12 2096.5C2832.26 2096.5 2834 2098.23 2834 2100.38 2834 2102.52 2832.26 2104.25 2830.12 2104.25 2829.05 2104.25 2828.19 2103.38 2828.19 2102.31 2828.19 2101.24 2829.05 2100.37 2830.12 2100.37L2834 2100.38M2942.75 2104.25 2830.12 2104.25M2822.38 2150.75C2823.45 2150.75 2824.31 2151.62 2824.31 2152.69 2824.31 2153.76 2823.45 2154.62 2822.38 2154.62L2826.25 2154.62M2822.38 2158.5C2824.52 2158.5 2826.25 2156.76 2826.25 2154.62L2826.25 2150.75"
       stroke="#FF0000"
       stroke-width="3.4375"
       stroke-linejoin="round"
       stroke-miterlimit="10"
       fill="none"
       fill-rule="evenodd"
       id="path12" /><text
       font-family="Calibri,Calibri_MSFontService,sans-serif"
       font-weight="400"
       font-size="55"
       transform="matrix(1 0 0 1 2859.08 2147)"
       id="text12">4</text><path
       d="M2763.38 2235.5C2765.52 2235.5 2767.25 2233.77 2767.25 2231.63L2763.38 2231.63C2764.45 2231.63 2765.31 2230.76 2765.31 2229.69 2765.31 2228.62 2764.45 2227.75 2763.38 2227.75L2767.25 2227.75 2767.25 2177.38C2767.25 2175.23 2768.99 2173.5 2771.13 2173.5L2888.63 2173.5C2890.77 2173.5 2892.5 2175.23 2892.5 2177.38 2892.5 2179.52 2890.77 2181.25 2888.63 2181.25L2884.75 2181.25 2884.75 2231.63C2884.75 2233.77 2883.02 2235.5 2880.88 2235.5ZM2775 2177.38C2775 2179.52 2773.27 2181.25 2771.13 2181.25 2770.06 2181.25 2769.19 2180.38 2769.19 2179.31 2769.19 2178.24 2770.06 2177.37 2771.13 2177.37Z"
       fill="#FFFFFF"
       fill-rule="evenodd"
       id="path13" /><path
       d="M2775 2177.38C2775 2179.52 2773.27 2181.25 2771.13 2181.25 2770.06 2181.25 2769.19 2180.38 2769.19 2179.31 2769.19 2178.24 2770.06 2177.37 2771.13 2177.37ZM2767.25 2231.63C2767.25 2233.77 2765.52 2235.5 2763.38 2235.5 2761.24 2235.5 2759.5 2233.77 2759.5 2231.63 2759.5 2229.49 2761.24 2227.75 2763.38 2227.75 2764.45 2227.75 2765.31 2228.62 2765.31 2229.69 2765.31 2230.76 2764.45 2231.63 2763.38 2231.63Z"
       fill="#CDCDCD"
       fill-rule="evenodd"
       id="path14" /><path
       d="M2767.25 2227.75 2767.25 2177.38C2767.25 2175.23 2768.99 2173.5 2771.13 2173.5L2888.63 2173.5C2890.77 2173.5 2892.5 2175.23 2892.5 2177.38 2892.5 2179.52 2890.77 2181.25 2888.63 2181.25L2884.75 2181.25 2884.75 2231.63C2884.75 2233.77 2883.02 2235.5 2880.88 2235.5L2763.38 2235.5C2761.24 2235.5 2759.5 2233.77 2759.5 2231.63 2759.5 2229.49 2761.24 2227.75 2763.38 2227.75ZM2771.13 2173.5C2773.27 2173.5 2775 2175.23 2775 2177.38 2775 2179.52 2773.27 2181.25 2771.13 2181.25 2770.06 2181.25 2769.19 2180.38 2769.19 2179.31 2769.19 2178.24 2770.06 2177.37 2771.13 2177.37L2775 2177.38M2884.75 2181.25 2771.13 2181.25M2763.38 2227.75C2764.45 2227.75 2765.31 2228.62 2765.31 2229.69 2765.31 2230.76 2764.45 2231.63 2763.38 2231.63L2767.25 2231.63M2763.38 2235.5C2765.52 2235.5 2767.25 2233.77 2767.25 2231.63L2767.25 2227.75"
       stroke="#FF0000"
       stroke-width="3.4375"
       stroke-linejoin="round"
       stroke-miterlimit="10"
       fill="none"
       fill-rule="evenodd"
       id="path15" /><text
       font-family="Calibri,Calibri_MSFontService,sans-serif"
       font-weight="400"
       font-size="55"
       transform="matrix(1 0 0 1 2800.23 2224)"
       id="text15">5</text><path
       d="M2328.5 2158C2328.5 2020.76 2439.98 1909.5 2577.5 1909.5 2715.02 1909.5 2826.5 2020.76 2826.5 2158 2826.5 2295.24 2715.02 2406.5 2577.5 2406.5 2439.98 2406.5 2328.5 2295.24 2328.5 2158Z"
       stroke="#ED7D31"
       stroke-width="4.58333"
       stroke-linejoin="round"
       stroke-miterlimit="10"
       stroke-dasharray="18.3333 13.75"
       fill="none"
       fill-rule="evenodd"
       id="path16" /><path
       d="M2328.38 2394.5C2330.52 2394.5 2332.25 2392.76 2332.25 2390.62L2328.38 2390.62C2329.45 2390.62 2330.31 2389.76 2330.31 2388.69 2330.31 2387.62 2329.45 2386.75 2328.38 2386.75L2332.25 2386.75 2332.25 2336.37C2332.25 2334.23 2333.98 2332.5 2336.12 2332.5L2452.62 2332.5C2454.77 2332.5 2456.5 2334.23 2456.5 2336.37 2456.5 2338.51 2454.77 2340.25 2452.62 2340.25L2448.75 2340.25 2448.75 2390.62C2448.75 2392.76 2447.02 2394.5 2444.88 2394.5ZM2340 2336.37C2340 2338.51 2338.27 2340.25 2336.12 2340.25 2335.05 2340.25 2334.19 2339.38 2334.19 2338.31 2334.19 2337.24 2335.05 2336.37 2336.12 2336.37Z"
       fill="#FFFFFF"
       fill-rule="evenodd"
       id="path17" /><path
       d="M2340 2336.37C2340 2338.51 2338.27 2340.25 2336.12 2340.25 2335.05 2340.25 2334.19 2339.38 2334.19 2338.31 2334.19 2337.24 2335.05 2336.37 2336.12 2336.37ZM2332.25 2390.62C2332.25 2392.76 2330.52 2394.5 2328.38 2394.5 2326.23 2394.5 2324.5 2392.76 2324.5 2390.62 2324.5 2388.48 2326.23 2386.75 2328.38 2386.75 2329.45 2386.75 2330.31 2387.62 2330.31 2388.69 2330.31 2389.76 2329.45 2390.62 2328.38 2390.62Z"
       fill="#CDCDCD"
       fill-rule="evenodd"
       id="path18" /><path
       d="M2332.25 2386.75 2332.25 2336.37C2332.25 2334.23 2333.98 2332.5 2336.12 2332.5L2452.62 2332.5C2454.77 2332.5 2456.5 2334.23 2456.5 2336.37 2456.5 2338.51 2454.77 2340.25 2452.62 2340.25L2448.75 2340.25 2448.75 2390.62C2448.75 2392.76 2447.02 2394.5 2444.88 2394.5L2328.38 2394.5C2326.23 2394.5 2324.5 2392.76 2324.5 2390.62 2324.5 2388.48 2326.23 2386.75 2328.38 2386.75ZM2336.12 2332.5C2338.26 2332.5 2340 2334.23 2340 2336.37 2340 2338.51 2338.26 2340.25 2336.12 2340.25 2335.05 2340.25 2334.19 2339.38 2334.19 2338.31 2334.19 2337.24 2335.05 2336.37 2336.12 2336.37L2340 2336.37M2448.75 2340.25 2336.12 2340.25M2328.38 2386.75C2329.45 2386.75 2330.31 2387.62 2330.31 2388.69 2330.31 2389.76 2329.45 2390.62 2328.38 2390.62L2332.25 2390.62M2328.38 2394.5C2330.52 2394.5 2332.25 2392.76 2332.25 2390.62L2332.25 2386.75"
       stroke="#00B0F0"
       stroke-width="3.4375"
       stroke-linejoin="round"
       stroke-miterlimit="10"
       fill="none"
       fill-rule="evenodd"
       id="path19" /><text
       font-family="Calibri,Calibri_MSFontService,sans-serif"
       font-weight="400"
       font-size="55"
       transform="matrix(1 0 0 1 2364.83 2383)"
       id="text19">6</text><path
       d="M2383.38 2449.5C2385.52 2449.5 2387.25 2447.76 2387.25 2445.62L2383.38 2445.62C2384.45 2445.62 2385.31 2444.76 2385.31 2443.69 2385.31 2442.62 2384.45 2441.75 2383.38 2441.75L2387.25 2441.75 2387.25 2391.37C2387.25 2389.23 2388.98 2387.5 2391.12 2387.5L2507.62 2387.5C2509.77 2387.5 2511.5 2389.23 2511.5 2391.37 2511.5 2393.51 2509.77 2395.25 2507.62 2395.25L2503.75 2395.25 2503.75 2445.62C2503.75 2447.76 2502.02 2449.5 2499.88 2449.5ZM2395 2391.37C2395 2393.51 2393.27 2395.25 2391.12 2395.25 2390.05 2395.25 2389.19 2394.38 2389.19 2393.31 2389.19 2392.24 2390.05 2391.37 2391.12 2391.37Z"
       fill="#FFFFFF"
       fill-rule="evenodd"
       id="path20" /><path
       d="M2395 2391.37C2395 2393.51 2393.27 2395.25 2391.12 2395.25 2390.05 2395.25 2389.19 2394.38 2389.19 2393.31 2389.19 2392.24 2390.05 2391.37 2391.12 2391.37ZM2387.25 2445.62C2387.25 2447.76 2385.52 2449.5 2383.38 2449.5 2381.23 2449.5 2379.5 2447.76 2379.5 2445.62 2379.5 2443.48 2381.23 2441.75 2383.38 2441.75 2384.45 2441.75 2385.31 2442.62 2385.31 2443.69 2385.31 2444.76 2384.45 2445.62 2383.38 2445.62Z"
       fill="#CDCDCD"
       fill-rule="evenodd"
       id="path21" /><path
       d="M2387.25 2441.75 2387.25 2391.37C2387.25 2389.23 2388.98 2387.5 2391.12 2387.5L2507.62 2387.5C2509.77 2387.5 2511.5 2389.23 2511.5 2391.37 2511.5 2393.51 2509.77 2395.25 2507.62 2395.25L2503.75 2395.25 2503.75 2445.62C2503.75 2447.76 2502.02 2449.5 2499.88 2449.5L2383.38 2449.5C2381.23 2449.5 2379.5 2447.76 2379.5 2445.62 2379.5 2443.48 2381.23 2441.75 2383.38 2441.75ZM2391.12 2387.5C2393.26 2387.5 2395 2389.23 2395 2391.37 2395 2393.51 2393.26 2395.25 2391.12 2395.25 2390.05 2395.25 2389.19 2394.38 2389.19 2393.31 2389.19 2392.24 2390.05 2391.37 2391.12 2391.37L2395 2391.37M2503.75 2395.25 2391.12 2395.25M2383.38 2441.75C2384.45 2441.75 2385.31 2442.62 2385.31 2443.69 2385.31 2444.76 2384.45 2445.62 2383.38 2445.62L2387.25 2445.62M2383.38 2449.5C2385.52 2449.5 2387.25 2447.76 2387.25 2445.62L2387.25 2441.75"
       stroke="#00B0F0"
       stroke-width="3.4375"
       stroke-linejoin="round"
       stroke-miterlimit="10"
       fill="none"
       fill-rule="evenodd"
       id="path22" /><text
       font-family="Calibri,Calibri_MSFontService,sans-serif"
       font-weight="400"
       font-size="55"
       transform="matrix(1 0 0 1 2419.83 2438)"
       id="text22">7</text><path
       d="M2434.38 2396.5C2436.52 2396.5 2438.25 2394.77 2438.25 2392.62L2434.38 2392.62C2435.45 2392.62 2436.31 2391.76 2436.31 2390.69 2436.31 2389.62 2435.45 2388.75 2434.38 2388.75L2438.25 2388.75 2438.25 2338.38C2438.25 2336.23 2439.99 2334.5 2442.13 2334.5L2558.63 2334.5C2560.77 2334.5 2562.5 2336.23 2562.5 2338.38 2562.5 2340.52 2560.77 2342.25 2558.63 2342.25L2554.75 2342.25 2554.75 2392.62C2554.75 2394.77 2553.02 2396.5 2550.88 2396.5ZM2446 2338.38C2446 2340.52 2444.27 2342.25 2442.13 2342.25 2441.06 2342.25 2440.19 2341.38 2440.19 2340.31 2440.19 2339.24 2441.06 2338.37 2442.13 2338.37Z"
       fill="#FFFFFF"
       fill-rule="evenodd"
       id="path23" /><path
       d="M2446 2338.38C2446 2340.52 2444.27 2342.25 2442.13 2342.25 2441.06 2342.25 2440.19 2341.38 2440.19 2340.31 2440.19 2339.24 2441.06 2338.37 2442.13 2338.37ZM2438.25 2392.62C2438.25 2394.77 2436.52 2396.5 2434.38 2396.5 2432.24 2396.5 2430.5 2394.77 2430.5 2392.62 2430.5 2390.48 2432.24 2388.75 2434.38 2388.75 2435.45 2388.75 2436.31 2389.62 2436.31 2390.69 2436.31 2391.76 2435.45 2392.62 2434.38 2392.62Z"
       fill="#CDCDCD"
       fill-rule="evenodd"
       id="path24" /><path
       d="M2438.25 2388.75 2438.25 2338.38C2438.25 2336.23 2439.99 2334.5 2442.13 2334.5L2558.63 2334.5C2560.77 2334.5 2562.5 2336.23 2562.5 2338.38 2562.5 2340.52 2560.77 2342.25 2558.63 2342.25L2554.75 2342.25 2554.75 2392.62C2554.75 2394.77 2553.02 2396.5 2550.88 2396.5L2434.38 2396.5C2432.24 2396.5 2430.5 2394.77 2430.5 2392.62 2430.5 2390.48 2432.24 2388.75 2434.38 2388.75ZM2442.13 2334.5C2444.27 2334.5 2446 2336.23 2446 2338.38 2446 2340.52 2444.27 2342.25 2442.13 2342.25 2441.06 2342.25 2440.19 2341.38 2440.19 2340.31 2440.19 2339.24 2441.06 2338.37 2442.13 2338.37L2446 2338.38M2554.75 2342.25 2442.13 2342.25M2434.38 2388.75C2435.45 2388.75 2436.31 2389.62 2436.31 2390.69 2436.31 2391.76 2435.45 2392.62 2434.38 2392.62L2438.25 2392.62M2434.38 2396.5C2436.52 2396.5 2438.25 2394.77 2438.25 2392.62L2438.25 2388.75"
       stroke="#00B0F0"
       stroke-width="3.4375"
       stroke-linejoin="round"
       stroke-miterlimit="10"
       fill="none"
       fill-rule="evenodd"
       id="path25" /><text
       font-family="Calibri,Calibri_MSFontService,sans-serif"
       font-weight="400"
       font-size="55"
       transform="matrix(1 0 0 1 2471.1 2385)"
       id="text25">8</text><path
       d="M1897.5 1597.79 1800.33 1597.79 1802.62 1595.5 1802.62 1819.48 1800.33 1817.19 2013.27 1817.19 2013.27 2031.41 2010.98 2029.11 2283.23 2029.11 2283.23 2033.7 2008.68 2033.7 2008.68 1819.48 2010.98 1821.77 1798.04 1821.77 1798.04 1593.21 1897.5 1593.21ZM2278.64 2017.66 2306.14 2031.41 2278.64 2045.16Z"
       fill="#ED7D31"
       id="path26" /><path
       d="M2500.3 1638.5 2500.3 1847.2 2379.5 1847.2 2381.79 1844.9 2381.79 1896.39 2377.21 1896.39 2377.21 1842.61 2498.01 1842.61 2495.71 1844.9 2495.71 1638.5ZM2393.25 1891.81 2379.5 1919.31 2365.75 1891.81Z"
       fill="#ED7D31"
       id="path27" /><path
       d="M0 2.29167-45.8333 2.29167-43.5416 0-43.5416 272.667-45.8333 270.376 205.454 270.376 205.454 479.335 200.871 479.335 200.871 272.667 203.162 274.959-48.1249 274.959-48.1249-2.29167 0-2.29167ZM216.912 474.751 203.162 502.251 189.412 474.751Z"
       fill="#ED7D31"
       transform="matrix(-1 0 0 1 3087.66 1593.5)"
       id="path28" /><g
       id="text28"
       style="font-weight:700;font-size:83px;font-family:Calibri, Calibri_MSFontService, sans-serif"
       transform="translate(2379.31,2142)"
       aria-label="embedding&#10;space"><path
         style="text-align:center;text-anchor:middle"
         d="m 36.190918,-20.506836 q 0,1.864258 -0.851074,2.755859 -0.810547,0.891602 -2.269532,0.891602 H 11.063965 q 0,2.310059 0.526855,4.214844 0.567383,1.864258 1.742676,3.2016599 1.21582,1.296875 3.080078,1.9858399 1.904785,0.6889648 4.539063,0.6889648 2.674804,0 4.701172,-0.3647461 2.026367,-0.4052734 3.485351,-0.8510742 1.499512,-0.4863281 2.472168,-0.8510742 0.972656,-0.4052735 1.580567,-0.4052735 0.364746,0 0.60791,0.1621094 0.243164,0.121582 0.405273,0.4863281 0.162109,0.3647461 0.202637,1.053711 0.08105,0.6484375 0.08105,1.6616211 0,0.8916015 -0.04053,1.540039 -0.04053,0.6079102 -0.121582,1.053711 -0.08105,0.4458007 -0.243164,0.7700195 -0.162109,0.2836914 -0.445801,0.5673828 -0.243164,0.2836914 -1.418457,0.7700195 -1.175293,0.48632816 -2.999023,0.97265628 -1.823731,0.44580078 -4.174317,0.77001953 -2.350586,0.3647461 -5.02539,0.3647461 -4.822754,0 -8.470215,-1.21582032 Q 7.9433594,-1.4995117 5.5117187,-3.9716797 3.0800781,-6.4438477 1.8642578,-10.212891 q -1.17529296,-3.769043 -1.17529296,-8.834961 0,-4.822753 1.25634766,-8.672851 1.2563477,-3.890625 3.6474609,-6.56543 2.3911133,-2.715332 5.7954106,-4.133789 3.444824,-1.418457 7.740722,-1.418457 4.539063,0 7.740723,1.337402 3.242187,1.337403 5.309082,3.728516 2.066894,2.350586 3.039551,5.592774 0.972656,3.242187 0.972656,7.051757 z m -9.888672,-2.917969 q 0.121582,-4.295898 -1.742676,-6.727539 -1.82373,-2.472168 -5.673828,-2.472168 -1.945312,0 -3.404297,0.729492 -1.418457,0.729493 -2.391113,1.98584 -0.932129,1.215821 -1.458984,2.917969 -0.486328,1.661621 -0.567383,3.566406 z m 75.786134,22.0468753 q 0,0.40527345 -0.24317,0.7294922 -0.24316,0.28369141 -0.81054,0.48632813 -0.56738,0.20263671 -1.540041,0.2836914 -0.972656,0.12158203 -2.472168,0.12158203 -1.540039,0 -2.512695,-0.12158203 -0.972657,-0.08105469 -1.580567,-0.2836914 -0.567383,-0.20263672 -0.810547,-0.48632813 -0.202636,-0.32421875 -0.202636,-0.7294922 V -22.816895 q 0,-1.82373 -0.364746,-3.323242 -0.324219,-1.499511 -1.053711,-2.553222 -0.688965,-1.094239 -1.783204,-1.661621 -1.05371,-0.607911 -2.553222,-0.607911 -1.823731,0 -3.687988,1.418457 -1.864258,1.418457 -4.052735,4.133789 v 24.0327153 q 0,0.40527345 -0.243164,0.7294922 -0.243164,0.28369141 -0.851074,0.48632813 -0.567383,0.20263671 -1.540039,0.2836914 -0.972656,0.12158203 -2.431641,0.12158203 -1.499512,0 -2.472168,-0.12158203 -0.972656,-0.08105469 -1.580566,-0.2836914 -0.567383,-0.20263672 -0.810547,-0.48632813 -0.243164,-0.32421875 -0.243164,-0.7294922 V -22.816895 q 0,-1.82373 -0.364746,-3.323242 -0.324219,-1.499511 -1.013184,-2.553222 -0.688965,-1.094239 -1.783203,-1.661621 -1.094238,-0.607911 -2.553223,-0.607911 -1.864257,0 -3.728515,1.418457 -1.864258,1.418457 -4.012207,4.133789 v 24.0327153 q 0,0.40527345 -0.243164,0.7294922 -0.243164,0.28369141 -0.851075,0.48632813 -0.567382,0.20263671 -1.540039,0.2836914 -0.972656,0.12158203 -2.472168,0.12158203 -1.499511,0 -2.472168,-0.12158203 -0.972656,-0.08105469 -1.580566,-0.2836914 -0.567383,-0.20263672 -0.810547,-0.48632813 -0.243164,-0.32421875 -0.243164,-0.7294922 V -37.52832 q 0,-0.405274 0.202637,-0.688965 0.202637,-0.324219 0.729492,-0.526856 0.526855,-0.202636 1.337402,-0.283691 0.851075,-0.121582 2.107422,-0.121582 1.296875,0 2.147949,0.121582 0.851075,0.08105 1.296875,0.283691 0.486329,0.202637 0.688965,0.526856 0.202637,0.283691 0.202637,0.688965 v 4.174316 q 2.999023,-3.242187 5.95752,-4.863281 2.999023,-1.621094 6.24121,-1.621094 2.229004,0 4.012208,0.486328 1.783203,0.445801 3.161132,1.337403 1.418457,0.851074 2.431641,2.066894 1.013184,1.21582 1.702148,2.715332 1.621094,-1.742676 3.161133,-2.999023 1.580567,-1.256348 3.080078,-2.026367 1.540039,-0.810547 3.039551,-1.175293 1.540039,-0.405274 3.120606,-0.405274 3.606933,0 6.079101,1.21582 2.472168,1.215821 3.97168,3.323243 1.540035,2.066894 2.188475,4.863281 0.64844,2.796387 0.64844,5.916992 z m 46.40381,-18.5615233 q 0,4.822754 -1.05371,8.672851 -1.05371,3.8500981 -3.03955,6.5654301 -1.98584,2.7153321 -4.90381,4.17431643 -2.87744,1.45898438 -6.56543,1.45898438 -1.82373,0 -3.4043,-0.3647461 -1.58057,-0.32421875 -3.03955,-1.09423828 -1.41846,-0.77001953 -2.83691,-1.94531253 -1.37793,-1.1752929 -2.83692,-2.836914 v 3.9311523 q 0,0.44580079 -0.24316,0.77001954 -0.20264,0.28369141 -0.72949,0.48632813 -0.48633,0.20263672 -1.33741,0.2836914 -0.85107,0.0810547 -2.06689,0.0810547 -1.25635,0 -2.10742,-0.0810547 -0.81055,-0.08105468 -1.33741,-0.2836914 -0.48632,-0.20263672 -0.68896,-0.48632813 -0.20264,-0.32421875 -0.20264,-0.77001954 V -54.671387 q 0,-0.405273 0.24317,-0.729492 0.24316,-0.324219 0.81054,-0.526855 0.60791,-0.243164 1.58057,-0.364746 0.97266,-0.121582 2.47217,-0.121582 1.49951,0 2.47217,0.121582 0.97265,0.121582 1.54004,0.364746 0.60791,0.202636 0.85107,0.526855 0.24316,0.324219 0.24316,0.729492 v 19.979981 q 1.37793,-1.37793 2.75586,-2.350586 1.37793,-0.972656 2.75586,-1.580567 1.37793,-0.648437 2.83692,-0.932128 1.45898,-0.283692 3.08007,-0.283692 4.01221,0 6.8086,1.621094 2.79638,1.580566 4.53906,4.295898 1.7832,2.715332 2.59375,6.362793 0.81055,3.606934 0.81055,7.619141 z m -10.57764,0.729492 q 0,-2.310059 -0.36475,-4.458008 -0.32421,-2.147949 -1.17529,-3.80957 -0.85107,-1.661621 -2.229,-2.634277 -1.3374,-1.013184 -3.4043,-1.013184 -1.01318,0 -1.98584,0.283691 -0.97266,0.283692 -2.02637,0.972657 -1.01318,0.688965 -2.10742,1.783203 -1.09424,1.094238 -2.31006,2.715332 v 11.996094 q 2.14795,2.755859 4.09327,4.2148433 1.98583,1.418457 4.13378,1.418457 1.98584,0 3.36377,-1.0131836 1.37793,-1.0131835 2.26953,-2.6342777 0.93213,-1.621093 1.33741,-3.687988 0.40527,-2.066894 0.40527,-4.133789 z m 52.11816,-1.296875 q 0,1.864258 -0.85107,2.755859 -0.81055,0.891602 -2.26953,0.891602 h -22.00635 q 0,2.310059 0.52686,4.214844 0.56738,1.864258 1.74267,3.2016599 1.21582,1.296875 3.08008,1.9858399 1.90479,0.6889648 4.53906,0.6889648 2.67481,0 4.70118,-0.3647461 2.02636,-0.4052734 3.48535,-0.8510742 1.49951,-0.4863281 2.47216,-0.8510742 0.97266,-0.4052735 1.58057,-0.4052735 0.36475,0 0.60791,0.1621094 0.24317,0.121582 0.40527,0.4863281 0.16211,0.3647461 0.20264,1.053711 0.0811,0.6484375 0.0811,1.6616211 0,0.8916015 -0.0405,1.540039 -0.0405,0.6079102 -0.12158,1.053711 -0.0811,0.4458007 -0.24317,0.7700195 -0.16211,0.2836914 -0.4458,0.5673828 -0.24316,0.2836914 -1.41845,0.7700195 -1.1753,0.48632816 -2.99903,0.97265628 -1.82373,0.44580078 -4.17431,0.77001953 -2.35059,0.3647461 -5.0254,0.3647461 -4.82275,0 -8.47021,-1.21582032 -3.60693,-1.21582029 -6.03857,-3.68798829 -2.43165,-2.472168 -3.64747,-6.2412113 -1.17529,-3.769043 -1.17529,-8.834961 0,-4.822753 1.25635,-8.672851 1.25635,-3.890625 3.64746,-6.56543 2.39111,-2.715332 5.79541,-4.133789 3.44482,-1.418457 7.74072,-1.418457 4.53907,0 7.74073,1.337402 3.24218,1.337403 5.30908,3.728516 2.06689,2.350586 3.03955,5.592774 0.97265,3.242187 0.97265,7.051757 z m -9.88867,-2.917969 q 0.12158,-4.295898 -1.74267,-6.727539 -1.82373,-2.472168 -5.67383,-2.472168 -1.94531,0 -3.4043,0.729492 -1.41845,0.729493 -2.39111,1.98584 -0.93213,1.215821 -1.45899,2.917969 -0.48632,1.661621 -0.56738,3.566406 z m 52.56397,22.0468753 q 0,0.44580079 -0.20264,0.77001954 -0.20264,0.28369141 -0.68896,0.48632813 -0.48633,0.20263672 -1.33741,0.2836914 -0.81054,0.0810547 -2.02636,0.0810547 -1.29688,0 -2.10743,-0.0810547 -0.81054,-0.08105468 -1.3374,-0.2836914 -0.48633,-0.20263672 -0.72949,-0.48632813 -0.20264,-0.32421875 -0.20264,-0.77001954 v -4.012207 q -2.79638,2.9990234 -5.87646,4.66064451 -3.03955,1.6616211 -6.76807,1.6616211 -4.13379,0 -7.01123,-1.58056641 -2.83691,-1.6210938 -4.66064,-4.3364258 -1.78321,-2.715332 -2.59375,-6.3222657 -0.81055,-3.647461 -0.81055,-7.659668 0,-4.822754 1.01318,-8.672851 1.05371,-3.850098 3.03955,-6.56543 1.98584,-2.715332 4.94434,-4.174317 2.9585,-1.458984 6.80859,-1.458984 3.03956,0 5.51172,1.256348 2.47217,1.21582 4.90381,3.606933 v -19.574707 q 0,-0.405273 0.20264,-0.729492 0.24316,-0.324219 0.81055,-0.526855 0.60791,-0.243164 1.58056,-0.364746 0.97266,-0.121582 2.47217,-0.121582 1.49951,0 2.47217,0.121582 0.97265,0.121582 1.54004,0.364746 0.56738,0.202636 0.81054,0.526855 0.24317,0.324219 0.24317,0.729492 z M 222.57617,-25.532227 q -2.18847,-2.755859 -4.21484,-4.214843 -1.98584,-1.458985 -4.17432,-1.458985 -1.98584,0 -3.44482,1.013184 -1.41846,0.972656 -2.31006,2.634277 -0.85108,1.661621 -1.29688,3.728516 -0.40527,2.026367 -0.40527,4.174316 0,2.269532 0.36475,4.417481 0.36474,2.147949 1.17529,3.850097 0.85107,1.6616215 2.229,2.6748051 1.37793,1.0131836 3.48535,1.0131836 1.05372,0 2.02637,-0.2836914 1.01319,-0.3242188 2.02637,-1.0131836 1.05371,-0.6889649 2.14795,-1.7832027 1.09424,-1.134766 2.39111,-2.75586 z m 54.67139,24.1542973 q 0,0.44580079 -0.20264,0.77001954 -0.20263,0.28369141 -0.68896,0.48632813 -0.48633,0.20263672 -1.33741,0.2836914 -0.81054,0.0810547 -2.02636,0.0810547 -1.29688,0 -2.10742,-0.0810547 -0.81055,-0.08105468 -1.33741,-0.2836914 -0.48632,-0.20263672 -0.72949,-0.48632813 -0.20264,-0.32421875 -0.20264,-0.77001954 v -4.012207 q -2.79638,2.9990234 -5.87646,4.66064451 -3.03955,1.6616211 -6.76807,1.6616211 -4.13379,0 -7.01123,-1.58056641 -2.83691,-1.6210938 -4.66064,-4.3364258 -1.78321,-2.715332 -2.59375,-6.3222657 -0.81055,-3.647461 -0.81055,-7.659668 0,-4.822754 1.01318,-8.672851 1.05372,-3.850098 3.03956,-6.56543 1.98584,-2.715332 4.94433,-4.174317 2.9585,-1.458984 6.8086,-1.458984 3.03955,0 5.51171,1.256348 2.47217,1.21582 4.90381,3.606933 v -19.574707 q 0,-0.405273 0.20264,-0.729492 0.24316,-0.324219 0.81055,-0.526855 0.60791,-0.243164 1.58056,-0.364746 0.97266,-0.121582 2.47217,-0.121582 1.49951,0 2.47217,0.121582 0.97265,0.121582 1.54004,0.364746 0.56738,0.202636 0.81054,0.526855 0.24317,0.324219 0.24317,0.729492 z M 267.11572,-25.532227 q -2.18847,-2.755859 -4.21484,-4.214843 -1.98584,-1.458985 -4.17432,-1.458985 -1.98584,0 -3.44482,1.013184 -1.41846,0.972656 -2.31006,2.634277 -0.85107,1.661621 -1.29688,3.728516 -0.40527,2.026367 -0.40527,4.174316 0,2.269532 0.36475,4.417481 0.36474,2.147949 1.17529,3.850097 0.85107,1.6616215 2.229,2.6748051 1.37793,1.0131836 3.48536,1.0131836 1.05371,0 2.02636,-0.2836914 1.01319,-0.3242188 2.02637,-1.0131836 1.05371,-0.6889649 2.14795,-1.7832027 1.09424,-1.134766 2.39111,-2.75586 z m 30.59815,24.1542973 q 0,0.40527345 -0.24317,0.7294922 -0.24316,0.28369141 -0.85107,0.48632813 -0.56738,0.20263671 -1.54004,0.2836914 -0.97266,0.12158203 -2.47217,0.12158203 -1.49951,0 -2.47217,-0.12158203 -0.97265,-0.08105469 -1.58056,-0.2836914 -0.56739,-0.20263672 -0.81055,-0.48632813 -0.24316,-0.32421875 -0.24316,-0.7294922 V -37.447266 q 0,-0.405273 0.24316,-0.688964 0.24316,-0.324219 0.81055,-0.526856 0.60791,-0.243164 1.58056,-0.364746 0.97266,-0.121582 2.47217,-0.121582 1.49951,0 2.47217,0.121582 0.97266,0.121582 1.54004,0.364746 0.60791,0.202637 0.85107,0.526856 0.24317,0.283691 0.24317,0.688964 z m 0.77002,-48.3896483 q 0,3.080078 -1.25635,4.255371 -1.25635,1.175293 -4.66065,1.175293 -3.44482,0 -4.66064,-1.134766 -1.17529,-1.134765 -1.17529,-4.093261 0,-3.080079 1.21582,-4.255371 1.25634,-1.215821 4.70117,-1.215821 3.4043,0 4.62012,1.175293 1.21582,1.134766 1.21582,4.093262 z m 43.93164,48.3896483 q 0,0.40527345 -0.24317,0.7294922 -0.24316,0.28369141 -0.81054,0.48632813 -0.56739,0.20263671 -1.58057,0.2836914 -0.97266,0.12158203 -2.43164,0.12158203 -1.49951,0 -2.5127,-0.12158203 -0.97265,-0.08105469 -1.54004,-0.2836914 -0.56738,-0.20263672 -0.81054,-0.48632813 -0.24317,-0.32421875 -0.24317,-0.7294922 V -22.006348 q 0,-2.634277 -0.40527,-4.133789 -0.36475,-1.499511 -1.09424,-2.553222 -0.72949,-1.094239 -1.90478,-1.661621 -1.13477,-0.607911 -2.67481,-0.607911 -1.94531,0 -3.93115,1.418457 -1.98584,1.418457 -4.13379,4.133789 v 24.0327153 q 0,0.40527345 -0.24316,0.7294922 -0.24317,0.28369141 -0.85108,0.48632813 -0.56738,0.20263671 -1.54004,0.2836914 -0.97265,0.12158203 -2.47216,0.12158203 -1.49952,0 -2.47217,-0.12158203 -0.97266,-0.08105469 -1.58057,-0.2836914 -0.56738,-0.20263672 -0.81055,-0.48632813 -0.24316,-0.32421875 -0.24316,-0.7294922 V -37.52832 q 0,-0.405274 0.20264,-0.688965 0.20263,-0.324219 0.72949,-0.526856 0.52685,-0.202636 1.3374,-0.283691 0.85108,-0.121582 2.10742,-0.121582 1.29688,0 2.14795,0.121582 0.85108,0.08105 1.29688,0.283691 0.48633,0.202637 0.68896,0.526856 0.20264,0.283691 0.20264,0.688965 v 4.174316 q 2.99902,-3.242187 6.0791,-4.863281 3.12061,-1.621094 6.48438,-1.621094 3.68798,0 6.20068,1.21582 2.55322,1.215821 4.09326,3.323243 1.58057,2.066894 2.26953,4.863281 0.68897,2.796387 0.68897,6.727539 z m 42.59424,-33.6376953 q 0,1.945313 -0.44581,2.877441 -0.4458,0.932129 -1.09423,0.932129 h -4.25537 q 0.8916,0.972657 1.25634,2.229004 0.40528,1.215821 0.40528,2.553223 0,3.161133 -1.05371,5.633301 -1.05372,2.43164 -3.03956,4.133789 -1.94531,1.661621 -4.74169,2.553222 -2.75586,0.851075 -6.16016,0.851075 -1.74268,0 -3.32324,-0.405274 -1.58057,-0.445801 -2.43164,-1.013183 -0.48633,0.526855 -0.89161,1.256347 -0.36474,0.729492 -0.36474,1.621094 0,1.175293 1.01318,1.9453125 1.05371,0.7294922 2.91797,0.8105468 l 8.79443,0.3242188 q 3.08008,0.121582 5.4712,0.8916016 2.43164,0.7294921 4.05273,2.1074218 1.66162,1.3374024 2.5127,3.2421875 0.8916,1.90478519 0.8916,4.3364258 0,2.6748047 -1.1753,5.0253906 -1.17529,2.3911133 -3.52587,4.1337896 -2.35059,1.742675 -5.917,2.755859 -3.52588,1.013183 -8.26757,1.013183 -4.62012,0 -7.90284,-0.729492 -3.24218,-0.729492 -5.34961,-2.026367 -2.06689,-1.296875 -3.03955,-3.1206054 -0.93213,-1.7832031 -0.93213,-3.9311523 0,-1.3374024 0.32422,-2.5532227 0.36475,-1.2158203 1.01319,-2.35058591 0.68896,-1.09423829 1.66162,-2.10742189 0.97265,-1.0131836 2.229,-1.9453125 -1.74267,-0.9321289 -2.71533,-2.5126953 -0.93213,-1.6210938 -0.93213,-3.525879 0,-2.391113 1.09424,-4.336426 1.09424,-1.98584 2.83691,-3.566406 -1.41845,-1.418457 -2.26953,-3.404297 -0.85107,-1.98584 -0.85107,-4.944336 0,-3.161133 1.09424,-5.633301 1.13476,-2.512695 3.1206,-4.214843 1.98584,-1.742676 4.7417,-2.634278 2.75586,-0.932129 6.0791,-0.932129 1.70215,0 3.24219,0.202637 1.58057,0.202637 2.91797,0.567383 h 11.46924 q 0.68896,0 1.09423,0.891602 0.44581,0.891601 0.44581,2.999023 z m -13.09034,8.55127 q 0,-2.917969 -1.62109,-4.539063 -1.62109,-1.621094 -4.57959,-1.621094 -1.49951,0 -2.63428,0.526856 -1.13476,0.486328 -1.90478,1.377929 -0.72949,0.851075 -1.09424,2.026368 -0.36475,1.134765 -0.36475,2.391113 0,2.755859 1.6211,4.376953 1.62109,1.580566 4.49853,1.580566 1.54004,0 2.67481,-0.486328 1.13476,-0.486328 1.86425,-1.337402 0.77002,-0.851074 1.13477,-1.945313 0.40527,-1.134765 0.40527,-2.350585 z m 2.39112,28.8554683 q 0,-1.82373049 -1.45899,-2.79638674 -1.45898,-0.97265626 -4.0122,-1.05371096 l -7.2544,-0.2026367 q -1.05371,0.77001954 -1.70215,1.49951173 -0.60791,0.68896484 -1.01318,1.33740237 -0.36475,0.6484375 -0.48633,1.2563476 -0.12158,0.6079102 -0.12158,1.2563477 0,2.0263672 2.02637,3.0800781 2.06689,1.0537109 5.79541,1.0537109 2.31005,0 3.89062,-0.4863281 1.58057,-0.4458008 2.55322,-1.2158203 0.97266,-0.7700195 1.37793,-1.7426758 0.40528,-0.9321289 0.40528,-1.9858398 z"
         id="path30" /><path
         style="text-align:center;text-anchor:middle"
         d="m 125.1687,92.15918 q 0,3.080078 -1.17529,5.430664 -1.13477,2.350586 -3.24219,3.931156 -2.10742,1.58056 -4.98486,2.35058 -2.87744,0.81055 -6.24121,0.81055 -2.02637,0 -3.89063,-0.32422 -1.82373,-0.28369 -3.28271,-0.72949 -1.45899,-0.48633 -2.431644,-0.97266 -0.972656,-0.48633 -1.418457,-0.8916 -0.445801,-0.4458 -0.688965,-1.3374 -0.243164,-0.932131 -0.243164,-2.715334 0,-1.175293 0.08105,-1.864258 0.08105,-0.729492 0.243164,-1.134766 0.162109,-0.4458 0.405273,-0.567382 0.243164,-0.16211 0.60791,-0.16211 0.445801,0 1.296878,0.526856 0.8916,0.486328 2.18847,1.094238 1.29688,0.60791 2.99903,1.134766 1.74267,0.526855 3.93115,0.526855 1.37793,0 2.43164,-0.283691 1.09424,-0.283692 1.86426,-0.810547 0.81055,-0.526856 1.21582,-1.337403 0.40527,-0.810547 0.40527,-1.864257 0,-1.215821 -0.77002,-2.066895 -0.72949,-0.891602 -1.98584,-1.540039 -1.21582,-0.648438 -2.79638,-1.21582 -1.54004,-0.567383 -3.20166,-1.256348 -1.6211,-0.688965 -3.20166,-1.580566 -1.54004,-0.891602 -2.79639,-2.188477 -1.215821,-1.296875 -1.985841,-3.120605 -0.729492,-1.823731 -0.729492,-4.376954 0,-2.59375 1.013183,-4.741699 1.013184,-2.188476 2.91797,-3.728515 1.90478,-1.540039 4.62012,-2.391114 2.75586,-0.851074 6.16015,-0.851074 1.70215,0 3.28272,0.243164 1.62109,0.243164 2.91797,0.60791 1.29687,0.364746 2.18847,0.810547 0.8916,0.405274 1.25635,0.729492 0.40527,0.283692 0.56738,0.607911 0.16211,0.283691 0.24317,0.729492 0.0811,0.405273 0.12158,1.053711 0.0811,0.60791 0.0811,1.540039 0,1.094238 -0.0811,1.783203 -0.0405,0.688965 -0.20264,1.094238 -0.12158,0.405274 -0.36474,0.567383 -0.24317,0.121582 -0.56739,0.121582 -0.36474,0 -1.13476,-0.405273 -0.77002,-0.445801 -1.94531,-0.932129 -1.13477,-0.486329 -2.67481,-0.891602 -1.49951,-0.445801 -3.44482,-0.445801 -1.37793,0 -2.39112,0.283692 -1.01318,0.283691 -1.66162,0.810547 -0.64844,0.526855 -0.97265,1.256347 -0.32422,0.688965 -0.32422,1.499512 0,1.256348 0.77002,2.107422 0.77002,0.851074 2.02636,1.499512 1.25635,0.648437 2.83692,1.21582 1.62109,0.567383 3.24219,1.256347 1.66162,0.648438 3.24218,1.54004 1.6211,0.891601 2.87744,2.188476 1.25635,1.296875 2.02637,3.120606 0.77002,1.783203 0.77002,4.255371 z m 44.05322,-8.38916 q 0,4.822753 -1.05371,8.713378 -1.01318,3.850098 -2.99902,6.56543 -1.98584,2.715332 -4.94434,4.174312 -2.95849,1.45899 -6.76806,1.45899 -1.58057,0 -2.91797,-0.32422 -1.29688,-0.28369 -2.55322,-0.8916 -1.21582,-0.64844 -2.43164,-1.58057 -1.21583,-0.93213 -2.5127,-2.188474 v 17.021484 q 0,0.40527 -0.24316,0.72949 -0.24317,0.32422 -0.85108,0.52686 -0.56738,0.24316 -1.54004,0.36474 -0.97265,0.12159 -2.47217,0.12159 -1.49951,0 -2.47216,-0.12159 -0.97266,-0.12158 -1.58057,-0.36474 -0.56738,-0.20264 -0.81055,-0.52686 -0.24316,-0.32422 -0.24316,-0.72949 V 66.22168 q 0,-0.405274 0.20264,-0.688965 0.20263,-0.324219 0.68896,-0.526856 0.52686,-0.202636 1.3374,-0.283691 0.85108,-0.121582 2.10742,-0.121582 1.21583,0 2.02637,0.121582 0.85108,0.08106 1.3374,0.283691 0.52686,0.202637 0.7295,0.526856 0.20263,0.283691 0.20263,0.688965 v 4.255371 q 1.58057,-1.621094 3.08008,-2.836914 1.54004,-1.256348 3.12061,-2.066895 1.58056,-0.851074 3.24218,-1.256347 1.70215,-0.405274 3.60694,-0.405274 3.97168,0 6.76806,1.580566 2.79639,1.54004 4.53907,4.255372 1.7832,2.715332 2.59375,6.322265 0.81054,3.606934 0.81054,7.700196 z m -10.61816,0.729492 q 0,-2.310059 -0.36475,-4.417481 -0.32422,-2.147949 -1.17529,-3.80957 -0.81055,-1.661621 -2.18848,-2.634277 -1.3374,-1.013184 -3.36377,-1.013184 -1.01318,0 -2.02636,0.324219 -0.97266,0.283691 -2.02637,0.972656 -1.01318,0.688965 -2.10742,1.783203 -1.09424,1.094238 -2.31006,2.715332 v 11.915039 q 2.14795,2.715332 4.09326,4.214844 1.94531,1.458984 4.05274,1.458984 1.98584,0 3.36377,-1.013183 1.41845,-1.013184 2.31005,-2.634278 0.89161,-1.661621 1.29688,-3.728515 0.4458,-2.066895 0.4458,-4.133789 z m 49.56494,17.994138 q 0,0.56739 -0.40527,0.8916 -0.40528,0.32422 -1.29688,0.4458 -0.85107,0.16211 -2.55322,0.16211 -1.82373,0 -2.6748,-0.16211 -0.81055,-0.12158 -1.1753,-0.4458 -0.32422,-0.32421 -0.32422,-0.8916 v -2.877439 q -2.229,2.391109 -5.10644,3.728519 -2.83692,1.3374 -6.32227,1.3374 -2.87744,0 -5.30908,-0.77002 -2.39111,-0.72949 -4.17432,-2.18848 -1.74267,-1.49951 -2.71533,-3.687985 -0.97265,-2.188477 -0.97265,-5.106446 0,-3.161133 1.21582,-5.471191 1.25634,-2.350586 3.68798,-3.850098 2.47217,-1.540039 6.11963,-2.269531 3.64746,-0.729492 8.47022,-0.729492 h 3.52588 V 78.42041 q 0,-1.702148 -0.36475,-2.958496 -0.32422,-1.296875 -1.13476,-2.147949 -0.77002,-0.851074 -2.10743,-1.256348 -1.29687,-0.405273 -3.24218,-0.405273 -2.55323,0 -4.57959,0.567383 -1.98584,0.567382 -3.52588,1.256347 -1.54004,0.688965 -2.59375,1.256348 -1.01319,0.567383 -1.66162,0.567383 -0.4458,0 -0.81055,-0.283692 -0.32422,-0.283691 -0.56738,-0.810547 -0.20264,-0.526855 -0.32422,-1.296875 -0.12158,-0.770019 -0.12158,-1.702148 0,-1.256348 0.20263,-1.98584 0.20264,-0.729492 0.77002,-1.296875 0.56738,-0.60791 1.98584,-1.296875 1.41846,-0.729492 3.32324,-1.337402 1.90479,-0.60791 4.13379,-0.972656 2.26953,-0.405274 4.66065,-0.405274 4.25537,0 7.25439,0.851074 3.03955,0.810547 4.98487,2.553223 1.94531,1.702148 2.83691,4.41748 0.8916,2.715332 0.8916,6.443848 z M 198.15845,87.012207 h -3.89063 q -2.47217,0 -4.21484,0.364746 -1.74268,0.364746 -2.83692,1.094238 -1.09423,0.729493 -1.62109,1.783204 -0.48633,1.013183 -0.48633,2.350585 0,2.269532 1.41846,3.566407 1.45898,1.296875 4.01221,1.296875 2.14795,0 3.93115,-1.094239 1.82373,-1.094238 3.68799,-3.20166 z m 47.53857,9.60498 q 0,1.053711 -0.0811,1.783204 -0.0405,0.688964 -0.16211,1.175293 -0.0811,0.486326 -0.24317,0.810546 -0.12158,0.28369 -0.60791,0.77002 -0.48632,0.4458 -1.66162,1.13477 -1.17529,0.64843 -2.6748,1.17529 -1.49951,0.52685 -3.28272,0.85107 -1.74267,0.32422 -3.60693,0.32422 -4.17432,0 -7.4165,-1.29687 -3.20167,-1.29688 -5.39014,-3.809574 -2.18848,-2.553222 -3.32324,-6.200683 -1.09424,-3.647461 -1.09424,-8.348633 0,-5.430664 1.3374,-9.361817 1.37793,-3.971679 3.80957,-6.565429 2.43164,-2.59375 5.75488,-3.850098 3.32325,-1.256348 7.29493,-1.256348 1.62109,0 3.16113,0.283692 1.58056,0.283691 2.91797,0.770019 1.37793,0.486328 2.43164,1.094239 1.09424,0.60791 1.54004,1.053711 0.4458,0.4458 0.60791,0.770019 0.20263,0.283692 0.28369,0.77002 0.12158,0.486328 0.16211,1.21582 0.0811,0.688965 0.0811,1.702148 0,2.350586 -0.40527,3.323243 -0.40527,0.932128 -1.05371,0.932128 -0.68897,0 -1.45899,-0.567382 -0.77002,-0.567383 -1.82373,-1.256348 -1.05371,-0.688965 -2.51269,-1.256348 -1.45899,-0.567382 -3.48535,-0.567382 -3.97168,0 -6.07911,3.080078 -2.10742,3.03955 -2.10742,8.956543 0,2.917968 0.52686,5.146972 0.52685,2.229004 1.54004,3.728516 1.05371,1.499512 2.59375,2.269531 1.58056,0.729492 3.64746,0.729492 2.10742,0 3.60693,-0.60791 1.54004,-0.648437 2.67481,-1.418457 1.13476,-0.770019 1.90478,-1.37793 0.77002,-0.648437 1.29688,-0.648437 0.36474,0 0.60791,0.202637 0.24316,0.202636 0.36474,0.770019 0.16211,0.526856 0.24317,1.37793 0.0811,0.851074 0.0811,2.188476 z m 40.77051,-13.374023 q 0,1.864258 -0.85107,2.755859 -0.81055,0.891602 -2.26954,0.891602 h -22.00634 q 0,2.310059 0.52685,4.214844 0.56738,1.864258 1.74268,3.20166 1.21582,1.296875 3.08008,1.98584 1.90478,0.688965 4.53906,0.688965 2.6748,0 4.70117,-0.364747 2.02637,-0.405273 3.48535,-0.851074 1.49951,-0.486328 2.47217,-0.851074 0.97266,-0.405273 1.58057,-0.405273 0.36474,0 0.60791,0.162109 0.24316,0.121582 0.40527,0.486328 0.16211,0.364746 0.20264,1.053711 0.0811,0.648438 0.0811,1.661621 0,0.891602 -0.0405,1.540039 -0.0405,0.607906 -0.12158,1.053716 -0.0811,0.4458 -0.24316,0.77001 -0.16211,0.2837 -0.4458,0.56739 -0.24317,0.28369 -1.41846,0.77002 -1.17529,0.48633 -2.99902,0.97265 -1.82373,0.4458 -4.17432,0.77002 -2.35059,0.36475 -5.02539,0.36475 -4.82275,0 -8.47022,-1.21582 -3.60693,-1.21582 -6.03857,-3.68799 -2.43164,-2.472168 -3.64746,-6.241211 -1.17529,-3.769043 -1.17529,-8.834961 0,-4.822753 1.25634,-8.672851 1.25635,-3.890625 3.64746,-6.56543 2.39112,-2.715332 5.79541,-4.133789 3.44483,-1.418457 7.74073,-1.418457 4.53906,0 7.74072,1.337402 3.24219,1.337403 5.30908,3.728516 2.0669,2.350586 3.03955,5.592773 0.97266,3.242188 0.97266,7.051758 z m -9.88867,-2.917969 q 0.12158,-4.295898 -1.74268,-6.727539 -1.82373,-2.472168 -5.67383,-2.472168 -1.94531,0 -3.40429,0.729492 -1.41846,0.729493 -2.39112,1.98584 -0.93213,1.215821 -1.45898,2.917969 -0.48633,1.661621 -0.56738,3.566406 z"
         id="path31" /></g><text
       font-family="Calibri, Calibri_MSFontService, sans-serif"
       font-weight="700"
       font-size="83px"
       transform="translate(2476.41,2241)"
       id="text29" /></g></svg>
