<?xml version="1.0" encoding="UTF-8" standalone="no"?>
<svg
   width="1052"
   height="255"
   xml:space="preserve"
   overflow="hidden"
   version="1.1"
   id="svg3"
   sodipodi:docname="contrastive_learning_framework_2.svg"
   inkscape:version="1.3.2 (091e20e, 2023-11-25, custom)"
   xmlns:inkscape="http://www.inkscape.org/namespaces/inkscape"
   xmlns:sodipodi="http://sodipodi.sourceforge.net/DTD/sodipodi-0.dtd"
   xmlns="http://www.w3.org/2000/svg"
   xmlns:svg="http://www.w3.org/2000/svg"><defs
     id="defs3" /><sodipodi:namedview
     id="namedview3"
     pagecolor="#ffffff"
     bordercolor="#000000"
     borderopacity="0.25"
     inkscape:showpageshadow="2"
     inkscape:pageopacity="0.0"
     inkscape:pagecheckerboard="0"
     inkscape:deskcolor="#d1d1d1"
     inkscape:zoom="1.3336502"
     inkscape:cx="526"
     inkscape:cy="127.46971"
     inkscape:window-width="1920"
     inkscape:window-height="1002"
     inkscape:window-x="-8"
     inkscape:window-y="-8"
     inkscape:window-maximized="1"
     inkscape:current-layer="svg3" /><g
     transform="translate(-2012 -1607)"
     id="g3"><path
       d="M23.0324 6.43207 29.6845 10.8503 33.834 15.5923 37.5881 20.4488 41.2454 25.7417 44.8046 31.4527 48.2631 37.5641 51.6167 44.0579 54.8758 50.9474 60.999 65.6492 66.6287 81.6237 71.6968 98.6851 76.1474 116.682 79.923 135.462 82.9646 154.872 85.2126 174.758 86.6063 194.965 87.0845 215.336 86.633 235.7 85.3174 255.897 83.1955 275.772 80.3244 295.171 76.7604 313.942 72.5592 331.929 67.7752 348.982 62.4612 364.947 56.681 379.642 53.6051 386.527 50.4394 393.018 47.1745 399.126 43.8141 404.835 40.3605 410.128 36.8141 414.985 32.831 419.805 27.1806 423.493 22.17 415.817 27.2368 412.51 26.2091 413.428 29.6605 409.252 29.4917 409.469 32.886 404.819 32.7495 405.017 36.0797 399.914 35.9681 400.094 39.2269 394.558 39.1346 394.722 42.3149 388.772 42.2377 388.923 45.3324 382.578 45.2672 382.718 48.2692 375.998 48.1886 376.19 53.8859 361.706 53.8024 361.936 59.0431 346.191 58.9789 346.4 63.706 329.551 63.6558 329.746 67.8122 311.95 67.7725 312.138 71.3012 293.553 71.2701 293.737 74.114 274.522 74.0905 274.706 76.1925 255.018 76.1763 255.206 77.4793 235.202 77.4708 235.399 77.9178 215.237 77.9179 215.446 77.4446 195.284 77.4542 195.492 76.0745 175.488 76.0927 175.688 73.867 155.999 73.8933 156.194 70.8821 136.979 70.9167 137.172 67.1805 118.588 67.2246 118.785 62.8237 100.989 62.8794 101.194 57.8742 84.344 57.945 84.5623 52.396 68.8167 52.4877 69.0555 46.4553 54.5717 46.5432 54.7694 43.3646 48.0499 43.4354 48.1931 40.1586 41.8482 40.242 42.0024 36.8746 36.0518 36.9738 36.2187 33.5233 30.6821 33.6423 30.8635 30.1163 25.7606 30.2607 25.9582 26.6667 21.3088 26.8437 21.5239 23.1893 17.3476 24.1027 18.1473 17.9608 14.0679ZM18.4459 24.598 0 0 30.7459 0.00202156ZM35.3069 429.506 4.58333 430.677 22.0804 405.395Z"
       fill="#00D200"
       transform="matrix(1.83697e-16 1 1 -1.83697e-16 2069.5 1635.5)"
       id="path1" /><path
       d="M2085.34 1651.81 2091.56 1657.25 2090.62 1656.62 2097.9 1660.32 2097.67 1660.22 2105.93 1663.87 2105.74 1663.79 2114.93 1667.39 2114.77 1667.33 2124.86 1670.86 2124.72 1670.81 2135.66 1674.26 2135.55 1674.23 2147.31 1677.6 2147.2 1677.57 2159.74 1680.84 2159.65 1680.82 2172.93 1684 2172.85 1683.98 2186.83 1687.05 2186.75 1687.04 2201.39 1690 2201.32 1689.98 2216.59 1692.82 2216.52 1692.81 2232.37 1695.52 2232.31 1695.51 2248.71 1698.08 2248.65 1698.08 2265.55 1700.51 2265.5 1700.5 2282.86 1702.78 2282.81 1702.77 2300.61 1704.89 2300.56 1704.89 2318.74 1706.84 2318.69 1706.84 2337.23 1708.62 2337.16 1708.61 2375.13 1711.62 2375.03 1711.62 2413.94 1713.84 2413.83 1713.84 2453.37 1715.22 2453.26 1715.21 2493.1 1715.69 2492.99 1715.69 2532.84 1715.21 2532.73 1715.21 2572.26 1713.81 2572.16 1713.81 2611.07 1711.55 2610.96 1711.56 2648.94 1708.5 2648.86 1708.51 2667.4 1706.7 2667.35 1706.71 2685.53 1704.72 2685.48 1704.73 2703.28 1702.57 2703.23 1702.58 2720.59 1700.27 2720.54 1700.27 2737.44 1697.81 2737.38 1697.81 2753.78 1695.2 2753.71 1695.21 2769.56 1692.46 2769.5 1692.47 2784.76 1689.59 2784.69 1689.6 2799.34 1686.6 2799.26 1686.61 2813.24 1683.49 2813.15 1683.51 2826.43 1680.29 2826.34 1680.31 2838.88 1676.98 2838.77 1677.01 2850.53 1673.59 2850.42 1673.63 2861.36 1670.12 2861.22 1670.17 2871.31 1666.59 2871.15 1666.65 2880.34 1663 2880.15 1663.08 2888.4 1659.37 2888.18 1659.48 2895.45 1655.71 2894.53 1656.35 2900.94 1650.7 2907 1657.58 2900.17 1663.6 2892.27 1667.68 2883.81 1671.48 2874.45 1675.2 2864.22 1678.83 2853.15 1682.38 2841.28 1685.83 2828.65 1689.18 2815.28 1692.43 2801.22 1695.57 2786.5 1698.59 2771.17 1701.48 2755.25 1704.25 2738.79 1706.87 2721.83 1709.35 2704.41 1711.67 2686.56 1713.83 2668.32 1715.82 2649.71 1717.64 2611.65 1720.7 2572.64 1722.97 2533 1724.37 2493.05 1724.85 2453.1 1724.38 2413.46 1723 2374.45 1720.76 2336.39 1717.75 2317.79 1715.96 2299.55 1714 2281.7 1711.87 2264.27 1709.58 2247.31 1707.14 2230.86 1704.56 2214.95 1701.84 2199.61 1698.99 2184.9 1696.01 2170.84 1692.92 2157.47 1689.72 2144.83 1686.42 2132.96 1683.02 2121.9 1679.53 2111.67 1675.96 2102.31 1672.3 2093.85 1668.55 2085.95 1664.53 2079.3 1658.7ZM2074.79 1667.64 2067.5 1637.77 2095.77 1649.86ZM2890.46 1648.89 2918.6 1636.5 2911.63 1666.44Z"
       fill="#FF0000"
       id="path2" /><path
       d="m 36.5,-17.572754 q 0,4.241699 -0.926758,7.6635743 -0.891113,3.3862305 -2.637695,5.7744141 -1.746582,2.3881836 -4.348633,3.67138669 -2.602051,1.28320313 -5.952637,1.28320313 -1.390136,0 -2.566406,-0.28515625 Q 18.927246,0.28515625 17.822266,-0.24951172 16.75293,-0.81982422 15.683594,-1.6396484 14.614258,-2.4594727 13.473633,-3.5644531 V 11.40625 q 0,0.356445 -0.213867,0.641602 -0.213868,0.285156 -0.748536,0.463378 -0.499023,0.213868 -1.354492,0.320801 -0.855468,0.106934 -2.1743161,0.106934 -1.3188477,0 -2.1743164,-0.106934 Q 5.9526367,12.725098 5.4179687,12.51123 4.9189453,12.333008 4.7050781,12.047852 4.4912109,11.762695 4.4912109,11.40625 v -44.413086 q 0,-0.356445 0.1782227,-0.605957 0.1782226,-0.285156 0.605957,-0.463379 0.4633789,-0.178223 1.1762696,-0.249512 0.7485351,-0.106933 1.8535156,-0.106933 1.0693359,0 1.7822262,0.106933 0.748536,0.07129 1.17627,0.249512 0.463379,0.178223 0.641601,0.463379 0.178223,0.249512 0.178223,0.605957 v 3.742676 q 1.390137,-1.425781 2.708984,-2.495117 1.354493,-1.104981 2.744629,-1.817871 1.390137,-0.748536 2.851563,-1.104981 1.49707,-0.356445 3.172363,-0.356445 3.493164,0 5.952637,1.390137 2.459473,1.354492 3.992187,3.742675 1.56836,2.388184 2.28125,5.560547 Q 36.5,-21.172852 36.5,-17.572754 Z m -9.338867,0.641602 q 0,-2.031739 -0.320801,-3.885254 -0.285156,-1.88916 -1.033691,-3.350586 -0.712891,-1.461426 -1.924805,-2.316895 -1.17627,-0.891113 -2.958496,-0.891113 -0.891113,0 -1.782227,0.285156 -0.855468,0.249512 -1.782226,0.855469 -0.891114,0.605957 -1.853516,1.568359 -0.962402,0.962403 -2.031738,2.388184 v 10.479492 q 1.88916,2.3881837 3.600097,3.7070314 1.710938,1.2832031 3.564454,1.2832031 1.746582,0 2.958496,-0.8911132 1.247558,-0.8911133 2.031738,-2.3168943 0.78418,-1.461426 1.140625,-3.279297 0.39209,-1.817871 0.39209,-3.635742 z m 46.658691,15.7192379 q 0,0.35644535 -0.178222,0.6416016 Q 73.463379,-0.32080078 73,-0.14257812 q -0.427734,0.17822265 -1.17627,0.24951171 -0.71289,0.1069336 -1.817871,0.1069336 -1.176269,0 -1.924804,-0.1069336 Q 67.368164,0.03564453 66.94043,-0.14257812 66.512695,-0.32080078 66.334473,-0.5703125 66.15625,-0.85546875 66.15625,-1.2119141 v -3.6713867 q -2.637695,2.8515625 -5.382324,4.27734377 -2.708985,1.42578125 -5.631836,1.42578125 -3.279297,0 -5.524903,-1.06933594 -2.20996,-1.06933598 -3.600097,-2.92285158 -1.354492,-1.8535156 -1.960449,-4.2773437 -0.570313,-2.4594727 -0.570313,-6.095215 v -19.461914 q 0,-0.356445 0.178223,-0.605957 0.213867,-0.285156 0.71289,-0.463379 0.534668,-0.178223 1.390137,-0.249512 0.891113,-0.106933 2.174317,-0.106933 1.318847,0 2.174316,0.106933 0.855469,0.07129 1.354492,0.249512 0.534668,0.178223 0.748535,0.463379 0.213867,0.249512 0.213867,0.605957 v 17.964844 q 0,2.495117 0.320801,3.813965 0.320801,1.3188473 0.962403,2.2812497 0.677246,0.9267578 1.675293,1.4614257 1.033691,0.4990235 2.388183,0.4990235 1.710938,0 3.421875,-1.2475586 1.746582,-1.2475586 3.707031,-3.6357423 v -21.137207 q 0,-0.356445 0.178223,-0.605957 0.213867,-0.285156 0.712891,-0.463379 0.534668,-0.178223 1.390136,-0.249512 0.855469,-0.106933 2.174317,-0.106933 1.318847,0 2.174316,0.106933 0.855469,0.07129 1.354492,0.249512 0.499024,0.178223 0.712891,0.463379 0.213867,0.249512 0.213867,0.605957 z m 18.000488,0 q 0,0.35644535 -0.213867,0.6416016 -0.213867,0.24951172 -0.748535,0.42773438 -0.499023,0.17822265 -1.354492,0.24951171 -0.855469,0.1069336 -2.174316,0.1069336 -1.318848,0 -2.174317,-0.1069336 -0.855469,-0.07128906 -1.390137,-0.24951171 -0.499023,-0.17822266 -0.71289,-0.42773438 -0.213867,-0.28515625 -0.213867,-0.6416016 V -48.084473 q 0,-0.356445 0.213867,-0.641601 0.213867,-0.285156 0.71289,-0.463379 0.534668,-0.213867 1.390137,-0.320801 0.855469,-0.106933 2.174317,-0.106933 1.318847,0 2.174316,0.106933 0.855469,0.106934 1.354492,0.320801 0.534668,0.178223 0.748535,0.463379 0.213867,0.285156 0.213867,0.641601 z m 17.929198,0 q 0,0.35644535 -0.21387,0.6416016 -0.21386,0.24951172 -0.74853,0.42773438 -0.49902,0.17822265 -1.35449,0.24951171 -0.85547,0.1069336 -2.17432,0.1069336 -1.31885,0 -2.17432,-0.1069336 -0.85546,-0.07128906 -1.39013,-0.24951171 -0.49903,-0.17822266 -0.71289,-0.42773438 -0.21387,-0.28515625 -0.21387,-0.6416016 V -48.084473 q 0,-0.356445 0.21387,-0.641601 0.21386,-0.285156 0.71289,-0.463379 0.53467,-0.213867 1.39013,-0.320801 0.85547,-0.106933 2.17432,-0.106933 1.31885,0 2.17432,0.106933 0.85547,0.106934 1.35449,0.320801 0.53467,0.178223 0.74853,0.463379 0.21387,0.285156 0.21387,0.641601 z m 44.27051,-3.1367187 q 0,1.5683594 -0.21387,2.4238281 -0.17822,0.8198242 -0.49902,1.17626954 -0.3208,0.32080078 -0.9624,0.60595704 -0.60596,0.24951171 -1.46143,0.42773437 -0.81982,0.21386719 -1.81787,0.32080078 -0.9624,0.10693359 -1.96045,0.10693359 -2.67334,0 -4.63379,-0.67724609 -1.96045,-0.67724609 -3.24365,-2.06738283 -1.2832,-1.4257812 -1.88916,-3.5644531 -0.60596,-2.1386719 -0.60596,-5.0615236 v -16.289551 h -3.81396 q -0.67725,0 -1.03369,-0.819824 -0.35645,-0.855469 -0.35645,-2.815918 0,-1.033691 0.0713,-1.746582 0.10693,-0.71289 0.28516,-1.10498 0.17822,-0.427735 0.42773,-0.605957 0.28516,-0.178223 0.6416,-0.178223 h 3.77832 v -7.093262 q 0,-0.356445 0.17822,-0.641601 0.21387,-0.285157 0.7129,-0.463379 0.53466,-0.213867 1.39013,-0.285156 0.89112,-0.106934 2.17432,-0.106934 1.31885,0 2.17431,0.106934 0.89112,0.07129 1.39014,0.285156 0.49902,0.178222 0.71289,0.463379 0.21387,0.285156 0.21387,0.641601 v 7.093262 h 6.91504 q 0.35644,0 0.60596,0.178223 0.28515,0.178222 0.46337,0.605957 0.17823,0.39209 0.24952,1.10498 0.10693,0.712891 0.10693,1.746582 0,1.960449 -0.35645,2.815918 -0.35644,0.819824 -1.03369,0.819824 h -6.95068 v 14.935059 q 0,2.6020507 0.81982,3.9208984 0.81983,1.2832031 2.92285,1.2832031 0.7129,0 1.28321,-0.1069336 0.57031,-0.1425781 0.99804,-0.2851562 0.46338,-0.1782227 0.74854,-0.2851563 0.3208,-0.1425781 0.57031,-0.1425781 0.21387,0 0.39209,0.1425781 0.21387,0.1069336 0.3208,0.4990235 0.10694,0.3564453 0.17823,0.9980469 0.10693,0.6416015 0.10693,1.6396484 z M 191.9458,-17.430176 q 0,4.063477 -1.06934,7.414063 -1.06933,3.3505857 -3.24365,5.7744138 -2.17431,2.4238281 -5.45361,3.74267576 -3.2793,1.31884766 -7.66358,1.31884766 -4.24169,0 -7.37841,-1.17626953 -3.13672,-1.17626949 -5.2041,-3.42187499 -2.06739,-2.2456055 -3.06543,-5.5249024 -0.99805,-3.2792973 -0.99805,-7.4853513 0,-4.063477 1.06933,-7.414063 1.10499,-3.38623 3.2793,-5.774414 2.17432,-2.423828 5.41797,-3.742676 3.2793,-1.318847 7.66357,-1.318847 4.27735,0 7.41407,1.176269 3.13672,1.140625 5.16845,3.386231 2.06739,2.245605 3.06543,5.524902 0.99805,3.279297 0.99805,7.520996 z m -9.23193,0.356446 q 0,-2.35254 -0.39209,-4.312989 -0.35645,-1.996093 -1.24756,-3.457519 -0.89111,-1.461426 -2.38818,-2.28125 -1.46143,-0.819824 -3.70704,-0.819824 -1.99609,0 -3.49316,0.748535 -1.49707,0.71289 -2.45947,2.138672 -0.96241,1.390136 -1.46143,3.38623 -0.46338,1.960449 -0.46338,4.491211 0,2.352539 0.39209,4.348633 0.39209,1.960449 1.24756,3.4218747 0.89111,1.4614258 2.38818,2.2812501 1.49707,0.7841796 3.70704,0.7841796 2.03173,0 3.5288,-0.7128906 1.49707,-0.7485351 2.45948,-2.1386719 0.9624,-1.3901369 1.42578,-3.3505859 0.46338,-1.996094 0.46338,-4.526855 z m 44.9834,-13.723145 q 0,1.710938 -0.39209,2.530762 -0.39209,0.819824 -0.96241,0.819824 h -3.74267 q 0.78418,0.855469 1.10498,1.960449 0.35644,1.069336 0.35644,2.245606 0,2.780273 -0.92675,4.954589 -0.92676,2.138672 -2.67334,3.635743 -1.71094,1.461425 -4.17041,2.245605 -2.42383,0.748535 -5.41797,0.748535 -1.53272,0 -2.92285,-0.356445 -1.39014,-0.39209 -2.13868,-0.891113 -0.42773,0.463379 -0.78418,1.10498 -0.3208,0.641602 -0.3208,1.425781 0,1.0336918 0.89112,1.7109379 0.92675,0.6416016 2.5664,0.7128906 l 7.73487,0.2851563 q 2.70898,0.1069336 4.81201,0.7841797 2.13867,0.6416015 3.56445,1.8535156 1.46143,1.1762695 2.20996,2.8515625 0.78418,1.67529296 0.78418,3.8139648 0,2.3525391 -1.03369,4.4199219 -1.03369,2.1030274 -3.10107,3.6357422 -2.06739,1.5327145 -5.20411,2.4238285 -3.10107,0.891113 -7.27148,0.891113 -4.06348,0 -6.95068,-0.641602 -2.85157,-0.641601 -4.70508,-1.782226 -1.81787,-1.1406252 -2.67334,-2.7446291 -0.81983,-1.5683594 -0.81983,-3.4575196 0,-1.1762695 0.28516,-2.2456054 0.3208,-1.069336 0.89111,-2.06738284 0.60596,-0.96240234 1.46143,-1.85351566 0.85547,-0.8911132 1.96045,-1.7109375 -1.53272,-0.8198242 -2.38819,-2.2099609 -0.81982,-1.4257812 -0.81982,-3.1010742 0,-2.1030278 0.9624,-3.8139648 0.96241,-1.746582 2.49512,-3.136719 -1.24756,-1.247558 -1.99609,-2.99414 -0.74854,-1.746582 -0.74854,-4.348633 0,-2.780274 0.9624,-4.95459 0.99805,-2.209961 2.74463,-3.707031 1.74658,-1.532715 4.17041,-2.316895 2.42383,-0.819824 5.34668,-0.819824 1.49707,0 2.85156,0.178223 1.39014,0.178222 2.56641,0.499023 h 10.0874 q 0.60596,0 0.96241,0.78418 0.39209,0.784179 0.39209,2.637695 z m -11.51319,7.520996 q 0,-2.566406 -1.42578,-3.992187 -1.42578,-1.425782 -4.02783,-1.425782 -1.31885,0 -2.3169,0.463379 -0.99804,0.427735 -1.67529,1.211914 -0.6416,0.748535 -0.9624,1.782227 -0.3208,0.998047 -0.3208,2.103027 0,2.423828 1.42578,3.84961 1.42578,1.390136 3.95654,1.390136 1.35449,0 2.35254,-0.427734 0.99805,-0.427734 1.63965,-1.17627 0.67725,-0.748535 0.99805,-1.710937 0.35644,-0.998047 0.35644,-2.067383 z m 2.10303,25.3789063 q 0,-1.60400386 -1.2832,-2.45947261 -1.28321,-0.85546879 -3.52881,-0.92675779 l -6.38037,-0.1782227 q -0.92676,0.67724611 -1.49707,1.31884768 -0.53467,0.60595703 -0.89112,1.17626952 -0.3208,0.5703125 -0.42773,1.1049805 -0.10694,0.5346679 -0.10694,1.1049804 0,1.7822266 1.78223,2.7089844 1.81787,0.9267578 5.09717,0.9267578 2.03174,0 3.42187,-0.4277343 1.39014,-0.3920899 2.24561,-1.069336 0.85547,-0.6772461 1.21191,-1.5327148 0.35645,-0.8198242 0.35645,-1.7465821 z m 43.94971,-20.1391603 q 0,1.639649 -0.74854,2.423828 -0.71289,0.78418 -1.99609,0.78418 h -19.35498 q 0,2.031738 0.46338,3.707031 0.49902,1.6396487 1.53271,2.8159182 1.06934,1.140625 2.70899,1.7465821 1.67529,0.605957 3.99218,0.605957 2.35254,0 4.13477,-0.3208008 1.78222,-0.3564453 3.06543,-0.7485352 1.31885,-0.4277343 2.17431,-0.7485351 0.85547,-0.3564453 1.39014,-0.3564453 0.3208,0 0.53467,0.1425781 0.21387,0.1069336 0.35644,0.4277344 0.14258,0.3208008 0.17823,0.9267578 0.0713,0.5703125 0.0713,1.4614258 0,0.7841797 -0.0357,1.3544922 -0.0356,0.5346679 -0.10693,0.9267578 -0.0713,0.3920898 -0.21387,0.6772461 -0.14258,0.2495117 -0.39209,0.4990234 -0.21387,0.2495117 -1.24756,0.6772461 -1.03369,0.42773437 -2.63769,0.85546874 -1.60401,0.39208985 -3.67139,0.6772461 -2.06738,0.32080078 -4.41992,0.32080078 -4.2417,0 -7.44971,-1.06933594 -3.17236,-1.06933598 -5.31103,-3.24365238 -2.13868,-2.1743164 -3.20801,-5.4892578 -1.03369,-3.3149411 -1.03369,-7.7705081 0,-4.241699 1.10498,-7.627929 1.10498,-3.421875 3.20801,-5.774414 2.10302,-2.388184 5.09716,-3.635743 3.02979,-1.247558 6.80811,-1.247558 3.99219,0 6.8081,1.176269 2.85157,1.17627 4.66944,3.279297 1.81787,2.067383 2.67334,4.918946 0.85547,2.851562 0.85547,6.202148 z m -8.69727,-2.566406 q 0.10693,-3.77832 -1.53271,-5.916992 -1.60401,-2.174317 -4.99024,-2.174317 -1.71094,0 -2.99414,0.641602 -1.24756,0.641601 -2.10303,1.746582 -0.81982,1.069336 -1.2832,2.566406 -0.42773,1.461426 -0.49902,3.136719 z m 34.39697,16.2539062 q 0,1.5683594 -0.21386,2.4238281 -0.17823,0.8198242 -0.49903,1.17626954 -0.3208,0.32080078 -0.9624,0.60595704 -0.60596,0.24951171 -1.46143,0.42773437 -0.81982,0.21386719 -1.81787,0.32080078 -0.9624,0.10693359 -1.96045,0.10693359 -2.67334,0 -4.63378,-0.67724609 -1.96045,-0.67724609 -3.24366,-2.06738283 -1.2832,-1.4257812 -1.88916,-3.5644531 -0.60595,-2.1386719 -0.60595,-5.0615236 v -16.289551 h -3.81397 q -0.67725,0 -1.03369,-0.819824 -0.35645,-0.855469 -0.35645,-2.815918 0,-1.033691 0.0713,-1.746582 0.10694,-0.71289 0.28516,-1.10498 0.17822,-0.427735 0.42773,-0.605957 0.28516,-0.178223 0.64161,-0.178223 h 3.77832 v -7.093262 q 0,-0.356445 0.17822,-0.641601 0.21387,-0.285157 0.71289,-0.463379 0.53467,-0.213867 1.39014,-0.285156 0.89111,-0.106934 2.17431,-0.106934 1.31885,0 2.17432,0.106934 0.89111,0.07129 1.39014,0.285156 0.49902,0.178222 0.71289,0.463379 0.21386,0.285156 0.21386,0.641601 v 7.093262 h 6.91504 q 0.35645,0 0.60596,0.178223 0.28516,0.178222 0.46338,0.605957 0.17822,0.39209 0.24951,1.10498 0.10693,0.712891 0.10693,1.746582 0,1.960449 -0.35644,2.815918 -0.35645,0.819824 -1.03369,0.819824 h -6.95069 v 14.935059 q 0,2.6020507 0.81983,3.9208984 0.81982,1.2832031 2.92285,1.2832031 0.71289,0 1.2832,-0.1069336 0.57031,-0.1425781 0.99805,-0.2851562 0.46338,-0.1782227 0.74853,-0.2851563 0.3208,-0.1425781 0.57032,-0.1425781 0.21386,0 0.39209,0.1425781 0.21386,0.1069336 0.3208,0.4990235 0.10693,0.3564453 0.17822,0.9980469 0.10693,0.6416015 0.10693,1.6396484 z m 36.85645,3.1367187 q 0,0.35644535 -0.21387,0.6416016 -0.21387,0.24951172 -0.71289,0.42773438 -0.49902,0.17822265 -1.39014,0.24951171 -0.85546,0.1069336 -2.13867,0.1069336 -1.31885,0 -2.20996,-0.1069336 -0.85547,-0.07128906 -1.35449,-0.24951171 -0.49902,-0.17822266 -0.71289,-0.42773438 -0.21387,-0.28515625 -0.21387,-0.6416016 V -19.35498 q 0,-2.316895 -0.35644,-3.635743 -0.3208,-1.318847 -0.96241,-2.245605 -0.6416,-0.962402 -1.67529,-1.461426 -0.99805,-0.534668 -2.35254,-0.534668 -1.71094,0 -3.45752,1.247559 -1.74658,1.247558 -3.63574,3.635742 v 21.1372069 q 0,0.35644535 -0.21387,0.6416016 -0.21386,0.24951172 -0.74853,0.42773438 -0.49903,0.17822265 -1.35449,0.24951171 -0.85547,0.1069336 -2.17432,0.1069336 -1.31885,0 -2.17432,-0.1069336 -0.85547,-0.07128906 -1.39013,-0.24951171 -0.49903,-0.17822266 -0.71289,-0.42773438 -0.21387,-0.28515625 -0.21387,-0.6416016 V -48.084473 q 0,-0.356445 0.21387,-0.641601 0.21386,-0.285156 0.71289,-0.463379 0.53466,-0.213867 1.39013,-0.320801 0.85547,-0.106933 2.17432,-0.106933 1.31885,0 2.17432,0.106933 0.85546,0.106934 1.35449,0.320801 0.53467,0.178223 0.74853,0.463379 0.21387,0.285156 0.21387,0.641601 v 17.572754 q 2.31689,-2.28125 4.70508,-3.38623 2.42383,-1.140625 5.02588,-1.140625 3.24365,0 5.45361,1.069336 2.24561,1.069336 3.6001,2.922851 1.39013,1.853516 1.99609,4.348633 0.60596,2.459473 0.60596,5.988281 z m 38.17529,-16.8242189 q 0,1.639649 -0.74853,2.423828 -0.71289,0.78418 -1.9961,0.78418 h -19.35498 q 0,2.031738 0.46338,3.707031 0.49902,1.6396487 1.53272,2.8159182 1.06933,1.140625 2.70898,1.7465821 1.67529,0.605957 3.99219,0.605957 2.35254,0 4.13476,-0.3208008 1.78223,-0.3564453 3.06543,-0.7485352 1.31885,-0.4277343 2.17432,-0.7485351 0.85547,-0.3564453 1.39014,-0.3564453 0.3208,0 0.53466,0.1425781 0.21387,0.1069336 0.35645,0.4277344 0.14258,0.3208008 0.17822,0.9267578 0.0713,0.5703125 0.0713,1.4614258 0,0.7841797 -0.0356,1.3544922 -0.0356,0.5346679 -0.10694,0.9267578 -0.0713,0.3920898 -0.21386,0.6772461 -0.14258,0.2495117 -0.39209,0.4990234 -0.21387,0.2495117 -1.24756,0.6772461 -1.03369,0.42773437 -2.6377,0.85546874 -1.604,0.39208985 -3.67138,0.6772461 -2.06739,0.32080078 -4.41993,0.32080078 -4.2417,0 -7.4497,-1.06933594 -3.17237,-1.06933598 -5.31104,-3.24365238 -2.13867,-2.1743164 -3.20801,-5.4892578 -1.03369,-3.3149411 -1.03369,-7.7705081 0,-4.241699 1.10498,-7.627929 1.10498,-3.421875 3.20801,-5.774414 2.10303,-2.388184 5.09717,-3.635743 3.02978,-1.247558 6.8081,-1.247558 3.99219,0 6.80811,1.176269 2.85156,1.17627 4.66943,3.279297 1.81787,2.067383 2.67334,4.918946 0.85547,2.851562 0.85547,6.202148 z m -8.69726,-2.566406 q 0.10693,-3.77832 -1.53272,-5.916992 -1.604,-2.174317 -4.99023,-2.174317 -1.71094,0 -2.99414,0.641602 -1.24756,0.641601 -2.10303,1.746582 -0.81983,1.069336 -1.2832,2.566406 -0.42774,1.461426 -0.49903,3.136719 z m 36.5,-9.445801 q 0,1.283203 -0.0713,2.103028 -0.0713,0.819824 -0.21387,1.283203 -0.14258,0.463379 -0.39209,0.641601 -0.21387,0.178223 -0.57031,0.178223 -0.28516,0 -0.6416,-0.106934 -0.35645,-0.142578 -0.81983,-0.285156 -0.42773,-0.142578 -0.9624,-0.249512 -0.53467,-0.142578 -1.17627,-0.142578 -0.74854,0 -1.49707,0.320801 -0.74854,0.285156 -1.56836,0.926758 -0.78418,0.641601 -1.67529,1.710937 -0.85547,1.069336 -1.85352,2.637696 v 19.8183589 q 0,0.35644535 -0.21387,0.6416016 -0.21386,0.24951172 -0.74853,0.42773438 -0.49902,0.17822265 -1.35449,0.24951171 -0.85547,0.1069336 -2.17432,0.1069336 -1.31885,0 -2.17432,-0.1069336 -0.85546,-0.07128906 -1.39013,-0.24951171 -0.49903,-0.17822266 -0.71289,-0.42773438 -0.21387,-0.28515625 -0.21387,-0.6416016 V -33.006836 q 0,-0.356445 0.17822,-0.605957 0.17822,-0.285156 0.6416,-0.463379 0.46338,-0.178223 1.17627,-0.249512 0.74854,-0.106933 1.85352,-0.106933 1.14062,0 1.88916,0.106933 0.74853,0.07129 1.14062,0.249512 0.42774,0.178223 0.60596,0.463379 0.17822,0.249512 0.17822,0.605957 v 3.956543 q 1.24756,-1.782227 2.35254,-2.922852 1.10498,-1.176269 2.10303,-1.853515 0.99805,-0.677246 1.99609,-0.926758 0.99805,-0.285156 1.9961,-0.285156 0.46338,0 0.99804,0.07129 0.53467,0.03564 1.10499,0.178223 0.57031,0.106933 0.99804,0.285156 0.42774,0.142578 0.60596,0.320801 0.21387,0.178222 0.28516,0.392089 0.10693,0.213868 0.17822,0.605957 0.0713,0.356446 0.10693,1.104981 0.0357,0.748535 0.0357,2.031738 z"
       id="text2"
       style="font-weight:700;font-size:73px;font-family:Calibri, Calibri_MSFontService, sans-serif;fill:#00d200"
       transform="matrix(1 0 0 1 2056.89 1799)"
       aria-label="pull together" /><path
       d="m 36.5,-17.572754 q 0,4.241699 -0.926758,7.6635743 -0.891113,3.3862305 -2.637695,5.7744141 -1.746582,2.3881836 -4.348633,3.67138669 -2.602051,1.28320313 -5.952637,1.28320313 -1.390136,0 -2.566406,-0.28515625 Q 18.927246,0.28515625 17.822266,-0.24951172 16.75293,-0.81982422 15.683594,-1.6396484 14.614258,-2.4594727 13.473633,-3.5644531 V 11.40625 q 0,0.356445 -0.213867,0.641602 -0.213868,0.285156 -0.748536,0.463378 -0.499023,0.213868 -1.354492,0.320801 -0.855468,0.106934 -2.1743161,0.106934 -1.3188477,0 -2.1743164,-0.106934 Q 5.9526367,12.725098 5.4179687,12.51123 4.9189453,12.333008 4.7050781,12.047852 4.4912109,11.762695 4.4912109,11.40625 v -44.413086 q 0,-0.356445 0.1782227,-0.605957 0.1782226,-0.285156 0.605957,-0.463379 0.4633789,-0.178223 1.1762696,-0.249512 0.7485351,-0.106933 1.8535156,-0.106933 1.0693359,0 1.7822262,0.106933 0.748536,0.07129 1.17627,0.249512 0.463379,0.178223 0.641601,0.463379 0.178223,0.249512 0.178223,0.605957 v 3.742676 q 1.390137,-1.425781 2.708984,-2.495117 1.354493,-1.104981 2.744629,-1.817871 1.390137,-0.748536 2.851563,-1.104981 1.49707,-0.356445 3.172363,-0.356445 3.493164,0 5.952637,1.390137 2.459473,1.354492 3.992187,3.742675 1.56836,2.388184 2.28125,5.560547 Q 36.5,-21.172852 36.5,-17.572754 Z m -9.338867,0.641602 q 0,-2.031739 -0.320801,-3.885254 -0.285156,-1.88916 -1.033691,-3.350586 -0.712891,-1.461426 -1.924805,-2.316895 -1.17627,-0.891113 -2.958496,-0.891113 -0.891113,0 -1.782227,0.285156 -0.855468,0.249512 -1.782226,0.855469 -0.891114,0.605957 -1.853516,1.568359 -0.962402,0.962403 -2.031738,2.388184 v 10.479492 q 1.88916,2.3881837 3.600097,3.7070314 1.710938,1.2832031 3.564454,1.2832031 1.746582,0 2.958496,-0.8911132 1.247558,-0.8911133 2.031738,-2.3168943 0.78418,-1.461426 1.140625,-3.279297 0.39209,-1.817871 0.39209,-3.635742 z m 46.658691,15.7192379 q 0,0.35644535 -0.178222,0.6416016 Q 73.463379,-0.32080078 73,-0.14257812 q -0.427734,0.17822265 -1.17627,0.24951171 -0.71289,0.1069336 -1.817871,0.1069336 -1.176269,0 -1.924804,-0.1069336 Q 67.368164,0.03564453 66.94043,-0.14257812 66.512695,-0.32080078 66.334473,-0.5703125 66.15625,-0.85546875 66.15625,-1.2119141 v -3.6713867 q -2.637695,2.8515625 -5.382324,4.27734377 -2.708985,1.42578125 -5.631836,1.42578125 -3.279297,0 -5.524903,-1.06933594 -2.20996,-1.06933598 -3.600097,-2.92285158 -1.354492,-1.8535156 -1.960449,-4.2773437 -0.570313,-2.4594727 -0.570313,-6.095215 v -19.461914 q 0,-0.356445 0.178223,-0.605957 0.213867,-0.285156 0.71289,-0.463379 0.534668,-0.178223 1.390137,-0.249512 0.891113,-0.106933 2.174317,-0.106933 1.318847,0 2.174316,0.106933 0.855469,0.07129 1.354492,0.249512 0.534668,0.178223 0.748535,0.463379 0.213867,0.249512 0.213867,0.605957 v 17.964844 q 0,2.495117 0.320801,3.813965 0.320801,1.3188473 0.962403,2.2812497 0.677246,0.9267578 1.675293,1.4614257 1.033691,0.4990235 2.388183,0.4990235 1.710938,0 3.421875,-1.2475586 1.746582,-1.2475586 3.707031,-3.6357423 v -21.137207 q 0,-0.356445 0.178223,-0.605957 0.213867,-0.285156 0.712891,-0.463379 0.534668,-0.178223 1.390136,-0.249512 0.855469,-0.106933 2.174317,-0.106933 1.318847,0 2.174316,0.106933 0.855469,0.07129 1.354492,0.249512 0.499024,0.178223 0.712891,0.463379 0.213867,0.249512 0.213867,0.605957 z m 31.402836,-8.9824219 q 0,2.7089844 -1.0337,4.7763673 -0.99804,2.0673828 -2.85156,3.4575195 -1.853513,1.3901367 -4.384275,2.06738279 -2.530762,0.71289063 -5.489258,0.71289063 -1.782226,0 -3.421875,-0.28515625 Q 86.437988,0.28515625 85.154785,-0.10693359 83.871582,-0.53466797 83.016113,-0.96240234 82.160645,-1.3901367 81.768555,-1.746582 81.376465,-2.1386719 81.162598,-2.9228516 80.94873,-3.7426758 80.94873,-5.3110352 q 0,-1.0336914 0.07129,-1.6396484 0.07129,-0.6416016 0.213867,-0.9980469 0.142578,-0.3920898 0.356445,-0.4990234 0.213867,-0.1425781 0.534668,-0.1425781 0.39209,0 1.140625,0.4633789 0.78418,0.4277344 1.924805,0.9624023 1.140625,0.534668 2.637695,0.9980469 1.532715,0.4633789 3.45752,0.4633789 1.211914,0 2.138671,-0.2495117 0.962403,-0.2495117 1.639649,-0.7128906 0.71289,-0.4633789 1.069336,-1.1762696 0.356445,-0.7128906 0.356445,-1.6396484 0,-1.0693357 -0.677246,-1.8178707 -0.641602,-0.78418 -1.746582,-1.354493 -1.069336,-0.570312 -2.459473,-1.069336 -1.354492,-0.499023 -2.815918,-1.10498 -1.425781,-0.605957 -2.815918,-1.390137 -1.354492,-0.784179 -2.459472,-1.924804 -1.069336,-1.140625 -1.746582,-2.744629 -0.641602,-1.604004 -0.641602,-3.84961 0,-2.28125 0.891113,-4.17041 0.891114,-1.924805 2.566407,-3.279297 1.675293,-1.354492 4.063476,-2.103027 2.423828,-0.748535 5.417969,-0.748535 1.49707,0 2.887207,0.213867 1.425781,0.213867 2.566406,0.534668 1.140629,0.320801 1.924809,0.712891 0.78418,0.356445 1.10498,0.641601 0.35644,0.249512 0.49902,0.534668 0.14258,0.249512 0.21387,0.641602 0.0713,0.356445 0.10693,0.926757 0.0713,0.534668 0.0713,1.354493 0,0.962402 -0.0713,1.568359 -0.0356,0.605957 -0.17822,0.962402 -0.10694,0.356446 -0.3208,0.499024 -0.21387,0.106933 -0.49903,0.106933 -0.3208,0 -0.99804,-0.356445 -0.67725,-0.39209 -1.710941,-0.819824 -0.998047,-0.427734 -2.352539,-0.78418 -1.318847,-0.39209 -3.029785,-0.39209 -1.211914,0 -2.103027,0.249512 -0.891113,0.249512 -1.461426,0.712891 -0.570312,0.463379 -0.855469,1.10498 -0.285156,0.605957 -0.285156,1.318848 0,1.10498 0.677246,1.853515 0.677246,0.748536 1.782227,1.318848 1.10498,0.570313 2.495117,1.069336 1.425781,0.499023 2.851562,1.104981 1.461426,0.570312 2.851561,1.354492 1.42578,0.784179 2.53076,1.924804 1.10498,1.140625 1.78223,2.744629 0.67725,1.56836 0.67725,3.742676 z m 37.10595,8.9824219 q 0,0.35644535 -0.21386,0.6416016 -0.21387,0.24951172 -0.71289,0.42773438 -0.49903,0.17822265 -1.39014,0.24951171 -0.85547,0.1069336 -2.13867,0.1069336 -1.31885,0 -2.20996,-0.1069336 -0.85547,-0.07128906 -1.3545,-0.24951171 -0.49902,-0.17822266 -0.71289,-0.42773438 -0.21386,-0.28515625 -0.21386,-0.6416016 V -19.35498 q 0,-2.316895 -0.35645,-3.635743 -0.3208,-1.318847 -0.9624,-2.245605 -0.6416,-0.962402 -1.67529,-1.461426 -0.99805,-0.534668 -2.35254,-0.534668 -1.71094,0 -3.45752,1.247559 -1.74659,1.247558 -3.63575,3.635742 v 21.1372069 q 0,0.35644535 -0.21386,0.6416016 -0.21387,0.24951172 -0.74854,0.42773438 -0.49902,0.17822265 -1.35449,0.24951171 -0.85547,0.1069336 -2.17432,0.1069336 -1.31884,0 -2.17431,-0.1069336 -0.85547,-0.07128906 -1.39014,-0.24951171 -0.49902,-0.17822266 -0.71289,-0.42773438 -0.21387,-0.28515625 -0.21387,-0.6416016 V -48.084473 q 0,-0.356445 0.21387,-0.641601 0.21387,-0.285156 0.71289,-0.463379 0.53467,-0.213867 1.39014,-0.320801 0.85547,-0.106933 2.17431,-0.106933 1.31885,0 2.17432,0.106933 0.85547,0.106934 1.35449,0.320801 0.53467,0.178223 0.74854,0.463379 0.21386,0.285156 0.21386,0.641601 v 17.572754 q 2.3169,-2.28125 4.70508,-3.38623 2.42383,-1.140625 5.02588,-1.140625 3.24365,0 5.45361,1.069336 2.24561,1.069336 3.6001,2.922851 1.39014,1.853516 1.9961,4.348633 0.60595,2.459473 0.60595,5.988281 z m 52.39746,0.1069336 q 0,0.49902347 -0.35644,0.78417972 -0.35645,0.28515625 -1.14063,0.39208984 -0.74853,0.14257813 -2.2456,0.14257813 -1.60401,0 -2.35254,-0.14257813 -0.71289,-0.10693359 -1.03369,-0.39208984 -0.28516,-0.28515625 -0.28516,-0.78417972 v -2.5307617 q -1.96045,2.1030274 -4.49121,3.27929689 -2.49512,1.17626953 -5.56055,1.17626953 -2.53076,0 -4.66943,-0.6772461 -2.10303,-0.64160156 -3.67139,-1.92480472 -1.53271,-1.3188476 -2.38818,-3.2436523 -0.85547,-1.9248047 -0.85547,-4.4912109 0,-2.7802732 1.06934,-4.8120122 1.10498,-2.067382 3.24365,-3.38623 2.17432,-1.354492 5.38232,-1.996094 3.20801,-0.641601 7.44971,-0.641601 h 3.10107 v -1.924805 q 0,-1.49707 -0.3208,-2.602051 -0.28515,-1.140625 -0.99804,-1.88916 -0.67725,-0.748535 -1.85352,-1.10498 -1.14062,-0.356446 -2.85156,-0.356446 -2.24561,0 -4.02783,0.499024 -1.74658,0.499023 -3.10108,1.10498 -1.35449,0.605957 -2.28125,1.104981 -0.89111,0.499023 -1.46142,0.499023 -0.39209,0 -0.71289,-0.249512 -0.28516,-0.249511 -0.49903,-0.71289 -0.17822,-0.463379 -0.28515,-1.140625 -0.10694,-0.677246 -0.10694,-1.497071 0,-1.10498 0.17823,-1.746582 0.17822,-0.641601 0.67724,-1.140625 0.49903,-0.534668 1.74658,-1.140625 1.24756,-0.641601 2.92286,-1.176269 1.67529,-0.534668 3.63574,-0.855469 1.99609,-0.356445 4.09912,-0.356445 3.74267,0 6.38037,0.748535 2.67334,0.712891 4.38428,2.245605 1.71093,1.497071 2.49511,3.885254 0.78418,2.388184 0.78418,5.667481 z m -8.8042,-13.6162105 H 182.5 q -2.17432,0 -3.70703,0.3208 -1.53272,0.320801 -2.49512,0.962403 -0.9624,0.641601 -1.42578,1.568359 -0.42773,0.891113 -0.42773,2.0673829 0,1.9960938 1.24755,3.1367188 1.28321,1.140625 3.52881,1.140625 1.88916,0 3.45752,-0.9624024 1.60401,-0.9624023 3.24365,-2.815918 z m 49.75977,-2.851563 q 0,4.241699 -0.92676,7.6635743 -0.89111,3.3862305 -2.63769,5.7744141 -1.74658,2.3881836 -4.34864,3.67138669 -2.60205,1.28320313 -5.95263,1.28320313 -1.39014,0 -2.56641,-0.28515625 -1.14062,-0.24951172 -2.2456,-0.78417969 -1.06934,-0.5703125 -2.13868,-1.39013668 -1.06933,-0.8198243 -2.20996,-1.9248047 V 11.40625 q 0,0.356445 -0.21386,0.641602 -0.21387,0.285156 -0.74854,0.463378 -0.49902,0.213868 -1.35449,0.320801 -0.85547,0.106934 -2.17432,0.106934 -1.31885,0 -2.17431,-0.106934 -0.85547,-0.106933 -1.39014,-0.320801 -0.49902,-0.178222 -0.71289,-0.463378 -0.21387,-0.285157 -0.21387,-0.641602 v -44.413086 q 0,-0.356445 0.17822,-0.605957 0.17823,-0.285156 0.60596,-0.463379 0.46338,-0.178223 1.17627,-0.249512 0.74854,-0.106933 1.85352,-0.106933 1.06933,0 1.78222,0.106933 0.74854,0.07129 1.17627,0.249512 0.46338,0.178223 0.6416,0.463379 0.17823,0.249512 0.17823,0.605957 v 3.742676 q 1.39013,-1.425781 2.70898,-2.495117 1.35449,-1.104981 2.74463,-1.817871 1.39014,-0.748536 2.85156,-1.104981 1.49707,-0.356445 3.17237,-0.356445 3.49316,0 5.95263,1.390137 2.45948,1.354492 3.99219,3.742675 1.56836,2.388184 2.28125,5.560547 0.71289,3.172363 0.71289,6.772461 z m -9.33887,0.641602 q 0,-2.031739 -0.3208,-3.885254 -0.28515,-1.88916 -1.03369,-3.350586 -0.71289,-1.461426 -1.9248,-2.316895 -1.17627,-0.891113 -2.9585,-0.891113 -0.89111,0 -1.78223,0.285156 -0.85546,0.249512 -1.78222,0.855469 -0.89112,0.605957 -1.85352,1.568359 -0.9624,0.962403 -2.03174,2.388184 v 10.479492 q 1.88916,2.3881837 3.6001,3.7070314 1.71094,1.2832031 3.56445,1.2832031 1.74659,0 2.9585,-0.8911132 1.24756,-0.8911133 2.03174,-2.3168943 0.78418,-1.461426 1.14062,-3.279297 0.39209,-1.817871 0.39209,-3.635742 z m 43.59327,15.8261715 q 0,0.49902347 -0.35645,0.78417972 -0.35645,0.28515625 -1.14063,0.39208984 -0.74853,0.14257813 -2.2456,0.14257813 -1.604,0 -2.35254,-0.14257813 -0.71289,-0.10693359 -1.03369,-0.39208984 -0.28516,-0.28515625 -0.28516,-0.78417972 v -2.5307617 q -1.96045,2.1030274 -4.49121,3.27929689 -2.49512,1.17626953 -5.56055,1.17626953 -2.53076,0 -4.66943,-0.6772461 -2.10303,-0.64160156 -3.67139,-1.92480472 -1.53271,-1.3188476 -2.38818,-3.2436523 -0.85547,-1.9248047 -0.85547,-4.4912109 0,-2.7802732 1.06934,-4.8120122 1.10498,-2.067382 3.24365,-3.38623 2.17432,-1.354492 5.38232,-1.996094 3.20801,-0.641601 7.44971,-0.641601 h 3.10108 v -1.924805 q 0,-1.49707 -0.3208,-2.602051 -0.28516,-1.140625 -0.99805,-1.88916 -0.67725,-0.748535 -1.85352,-1.10498 -1.14062,-0.356446 -2.85156,-0.356446 -2.24561,0 -4.02783,0.499024 -1.74658,0.499023 -3.10108,1.10498 -1.35449,0.605957 -2.28125,1.104981 -0.89111,0.499023 -1.46142,0.499023 -0.39209,0 -0.71289,-0.249512 -0.28516,-0.249511 -0.49903,-0.71289 -0.17822,-0.463379 -0.28515,-1.140625 -0.10694,-0.677246 -0.10694,-1.497071 0,-1.10498 0.17823,-1.746582 0.17822,-0.641601 0.67724,-1.140625 0.49903,-0.534668 1.74658,-1.140625 1.24756,-0.641601 2.92286,-1.176269 1.67529,-0.534668 3.63574,-0.855469 1.99609,-0.356445 4.09912,-0.356445 3.74268,0 6.38037,0.748535 2.67334,0.712891 4.38428,2.245605 1.71094,1.497071 2.49512,3.885254 0.78418,2.388184 0.78418,5.667481 z m -8.8042,-13.6162105 h -3.42188 q -2.17432,0 -3.70703,0.3208 -1.53272,0.320801 -2.49512,0.962403 -0.9624,0.641601 -1.42578,1.568359 -0.42773,0.891113 -0.42773,2.0673829 0,1.9960938 1.24756,3.1367188 1.2832,1.140625 3.5288,1.140625 1.88916,0 3.45752,-0.9624024 1.60401,-0.9624023 3.24366,-2.815918 z m 38.17529,-15.327149 q 0,1.283203 -0.0713,2.103028 -0.0713,0.819824 -0.21387,1.283203 -0.14258,0.463379 -0.39209,0.641601 -0.21386,0.178223 -0.57031,0.178223 -0.28516,0 -0.6416,-0.106934 -0.35645,-0.142578 -0.81983,-0.285156 -0.42773,-0.142578 -0.9624,-0.249512 -0.53467,-0.142578 -1.17627,-0.142578 -0.74853,0 -1.49707,0.320801 -0.74853,0.285156 -1.56836,0.926758 -0.78418,0.641601 -1.67529,1.710937 -0.85547,1.069336 -1.85352,2.637696 v 19.8183589 q 0,0.35644535 -0.21386,0.6416016 -0.21387,0.24951172 -0.74854,0.42773438 -0.49902,0.17822265 -1.35449,0.24951171 -0.85547,0.1069336 -2.17432,0.1069336 -1.31884,0 -2.17431,-0.1069336 -0.85547,-0.07128906 -1.39014,-0.24951171 -0.49902,-0.17822266 -0.71289,-0.42773438 -0.21387,-0.28515625 -0.21387,-0.6416016 V -33.006836 q 0,-0.356445 0.17823,-0.605957 0.17822,-0.285156 0.6416,-0.463379 0.46338,-0.178223 1.17627,-0.249512 0.74853,-0.106933 1.85351,-0.106933 1.14063,0 1.88916,0.106933 0.74854,0.07129 1.14063,0.249512 0.42773,0.178223 0.60595,0.463379 0.17823,0.249512 0.17823,0.605957 v 3.956543 q 1.24756,-1.782227 2.35254,-2.922852 1.10498,-1.176269 2.10302,-1.853515 0.99805,-0.677246 1.9961,-0.926758 0.99804,-0.285156 1.99609,-0.285156 0.46338,0 0.99805,0.07129 0.53467,0.03564 1.10498,0.178223 0.57031,0.106933 0.99804,0.285156 0.42774,0.142578 0.60596,0.320801 0.21387,0.178222 0.28516,0.392089 0.10693,0.213868 0.17822,0.605957 0.0713,0.356446 0.10693,1.104981 0.0356,0.748535 0.0356,2.031738 z m 24.34521,25.6997072 q 0,1.5683594 -0.21386,2.4238281 -0.17823,0.8198242 -0.49903,1.17626954 -0.3208,0.32080078 -0.9624,0.60595704 -0.60596,0.24951171 -1.46143,0.42773437 -0.81982,0.21386719 -1.81787,0.32080078 -0.9624,0.10693359 -1.96045,0.10693359 -2.67334,0 -4.63378,-0.67724609 -1.96045,-0.67724609 -3.24366,-2.06738283 -1.2832,-1.4257812 -1.88916,-3.5644531 -0.60595,-2.1386719 -0.60595,-5.0615236 v -16.289551 h -3.81397 q -0.67724,0 -1.03369,-0.819824 -0.35645,-0.855469 -0.35645,-2.815918 0,-1.033691 0.0713,-1.746582 0.10694,-0.71289 0.28516,-1.10498 0.17822,-0.427735 0.42773,-0.605957 0.28516,-0.178223 0.64161,-0.178223 h 3.77832 v -7.093262 q 0,-0.356445 0.17822,-0.641601 0.21387,-0.285157 0.71289,-0.463379 0.53467,-0.213867 1.39014,-0.285156 0.89111,-0.106934 2.17431,-0.106934 1.31885,0 2.17432,0.106934 0.89111,0.07129 1.39014,0.285156 0.49902,0.178222 0.71289,0.463379 0.21386,0.285156 0.21386,0.641601 v 7.093262 h 6.91504 q 0.35645,0 0.60596,0.178223 0.28516,0.178222 0.46338,0.605957 0.17822,0.39209 0.24951,1.10498 0.10693,0.712891 0.10693,1.746582 0,1.960449 -0.35644,2.815918 -0.35645,0.819824 -1.03369,0.819824 h -6.95069 v 14.935059 q 0,2.6020507 0.81983,3.9208984 0.81982,1.2832031 2.92285,1.2832031 0.71289,0 1.2832,-0.1069336 0.57031,-0.1425781 0.99805,-0.2851562 0.46338,-0.1782227 0.74853,-0.2851563 0.32081,-0.1425781 0.57032,-0.1425781 0.21386,0 0.39209,0.1425781 0.21386,0.1069336 0.3208,0.4990235 0.10693,0.3564453 0.17822,0.9980469 0.10693,0.6416015 0.10693,1.6396484 z"
       id="text3"
       style="font-weight:700;font-size:73px;font-family:Calibri, Calibri_MSFontService, sans-serif;fill:#ff0000"
       transform="matrix(1 0 0 1 2623.68 1799)"
       aria-label="push apart" /></g></svg>
