<svg width="1052" height="255" xmlns="http://www.w3.org/2000/svg" xmlns:xlink="http://www.w3.org/1999/xlink" xml:space="preserve" overflow="hidden"><g transform="translate(-2012 -1607)"><path d="M23.0324 6.43207 29.6845 10.8503 33.834 15.5923 37.5881 20.4488 41.2454 25.7417 44.8046 31.4527 48.2631 37.5641 51.6167 44.0579 54.8758 50.9474 60.999 65.6492 66.6287 81.6237 71.6968 98.6851 76.1474 116.682 79.923 135.462 82.9646 154.872 85.2126 174.758 86.6063 194.965 87.0845 215.336 86.633 235.7 85.3174 255.897 83.1955 275.772 80.3244 295.171 76.7604 313.942 72.5592 331.929 67.7752 348.982 62.4612 364.947 56.681 379.642 53.6051 386.527 50.4394 393.018 47.1745 399.126 43.8141 404.835 40.3605 410.128 36.8141 414.985 32.831 419.805 27.1806 423.493 22.17 415.817 27.2368 412.51 26.2091 413.428 29.6605 409.252 29.4917 409.469 32.886 404.819 32.7495 405.017 36.0797 399.914 35.9681 400.094 39.2269 394.558 39.1346 394.722 42.3149 388.772 42.2377 388.923 45.3324 382.578 45.2672 382.718 48.2692 375.998 48.1886 376.19 53.8859 361.706 53.8024 361.936 59.0431 346.191 58.9789 346.4 63.706 329.551 63.6558 329.746 67.8122 311.95 67.7725 312.138 71.3012 293.553 71.2701 293.737 74.114 274.522 74.0905 274.706 76.1925 255.018 76.1763 255.206 77.4793 235.202 77.4708 235.399 77.9178 215.237 77.9179 215.446 77.4446 195.284 77.4542 195.492 76.0745 175.488 76.0927 175.688 73.867 155.999 73.8933 156.194 70.8821 136.979 70.9167 137.172 67.1805 118.588 67.2246 118.785 62.8237 100.989 62.8794 101.194 57.8742 84.344 57.945 84.5623 52.396 68.8167 52.4877 69.0555 46.4553 54.5717 46.5432 54.7694 43.3646 48.0499 43.4354 48.1931 40.1586 41.8482 40.242 42.0024 36.8746 36.0518 36.9738 36.2187 33.5233 30.6821 33.6423 30.8635 30.1163 25.7606 30.2607 25.9582 26.6667 21.3088 26.8437 21.5239 23.1893 17.3476 24.1027 18.1473 17.9608 14.0679ZM18.4459 24.598 0 0 30.7459 0.00202156ZM35.3069 429.506 4.58333 430.677 22.0804 405.395Z" fill="#00B050" transform="matrix(1.83697e-16 1 1 -1.83697e-16 2069.5 1635.5)"/><path d="M2085.34 1651.81 2091.56 1657.25 2090.62 1656.62 2097.9 1660.32 2097.67 1660.22 2105.93 1663.87 2105.74 1663.79 2114.93 1667.39 2114.77 1667.33 2124.86 1670.86 2124.72 1670.81 2135.66 1674.26 2135.55 1674.23 2147.31 1677.6 2147.2 1677.57 2159.74 1680.84 2159.65 1680.82 2172.93 1684 2172.85 1683.98 2186.83 1687.05 2186.75 1687.04 2201.39 1690 2201.32 1689.98 2216.59 1692.82 2216.52 1692.81 2232.37 1695.52 2232.31 1695.51 2248.71 1698.08 2248.65 1698.08 2265.55 1700.51 2265.5 1700.5 2282.86 1702.78 2282.81 1702.77 2300.61 1704.89 2300.56 1704.89 2318.74 1706.84 2318.69 1706.84 2337.23 1708.62 2337.16 1708.61 2375.13 1711.62 2375.03 1711.62 2413.94 1713.84 2413.83 1713.84 2453.37 1715.22 2453.26 1715.21 2493.1 1715.69 2492.99 1715.69 2532.84 1715.21 2532.73 1715.21 2572.26 1713.81 2572.16 1713.81 2611.07 1711.55 2610.96 1711.56 2648.94 1708.5 2648.86 1708.51 2667.4 1706.7 2667.35 1706.71 2685.53 1704.72 2685.48 1704.73 2703.28 1702.57 2703.23 1702.58 2720.59 1700.27 2720.54 1700.27 2737.44 1697.81 2737.38 1697.81 2753.78 1695.2 2753.71 1695.21 2769.56 1692.46 2769.5 1692.47 2784.76 1689.59 2784.69 1689.6 2799.34 1686.6 2799.26 1686.61 2813.24 1683.49 2813.15 1683.51 2826.43 1680.29 2826.34 1680.31 2838.88 1676.98 2838.77 1677.01 2850.53 1673.59 2850.42 1673.63 2861.36 1670.12 2861.22 1670.17 2871.31 1666.59 2871.15 1666.65 2880.34 1663 2880.15 1663.08 2888.4 1659.37 2888.18 1659.48 2895.45 1655.71 2894.53 1656.35 2900.94 1650.7 2907 1657.58 2900.17 1663.6 2892.27 1667.68 2883.81 1671.48 2874.45 1675.2 2864.22 1678.83 2853.15 1682.38 2841.28 1685.83 2828.65 1689.18 2815.28 1692.43 2801.22 1695.57 2786.5 1698.59 2771.17 1701.48 2755.25 1704.25 2738.79 1706.87 2721.83 1709.35 2704.41 1711.67 2686.56 1713.83 2668.32 1715.82 2649.71 1717.64 2611.65 1720.7 2572.64 1722.97 2533 1724.37 2493.05 1724.85 2453.1 1724.38 2413.46 1723 2374.45 1720.76 2336.39 1717.75 2317.79 1715.96 2299.55 1714 2281.7 1711.87 2264.27 1709.58 2247.31 1707.14 2230.86 1704.56 2214.95 1701.84 2199.61 1698.99 2184.9 1696.01 2170.84 1692.92 2157.47 1689.72 2144.83 1686.42 2132.96 1683.02 2121.9 1679.53 2111.67 1675.96 2102.31 1672.3 2093.85 1668.55 2085.95 1664.53 2079.3 1658.7ZM2074.79 1667.64 2067.5 1637.77 2095.77 1649.86ZM2890.46 1648.89 2918.6 1636.5 2911.63 1666.44Z" fill="#FF0000"/><text font-family="Calibri,Calibri_MSFontService,sans-serif" font-weight="700" font-size="73" transform="matrix(1 0 0 1 2056.89 1799)">pull together</text><text font-family="Calibri,Calibri_MSFontService,sans-serif" font-weight="700" font-size="73" transform="matrix(1 0 0 1 2623.68 1799)">push apart</text></g></svg>