<?xml version="1.0" encoding="UTF-8" standalone="no"?>
<svg
   width="1339"
   height="895"
   xml:space="preserve"
   overflow="hidden"
   version="1.1"
   id="svg29"
   sodipodi:docname="contrastive_learning_framework_3.svg"
   inkscape:version="1.3.2 (091e20e, 2023-11-25, custom)"
   xmlns:inkscape="http://www.inkscape.org/namespaces/inkscape"
   xmlns:sodipodi="http://sodipodi.sourceforge.net/DTD/sodipodi-0.dtd"
   xmlns="http://www.w3.org/2000/svg"
   xmlns:svg="http://www.w3.org/2000/svg"><defs
     id="defs29" /><sodipodi:namedview
     id="namedview29"
     pagecolor="#ffffff"
     bordercolor="#000000"
     borderopacity="0.25"
     inkscape:showpageshadow="2"
     inkscape:pageopacity="0.0"
     inkscape:pagecheckerboard="0"
     inkscape:deskcolor="#d1d1d1"
     inkscape:zoom="0.90055866"
     inkscape:cx="669.02916"
     inkscape:cy="447.5"
     inkscape:window-width="1920"
     inkscape:window-height="1002"
     inkscape:window-x="-8"
     inkscape:window-y="-8"
     inkscape:window-maximized="1"
     inkscape:current-layer="svg29" /><g
     transform="translate(-1797 -1591)"
     id="g29"><path
       d="M2317.44 1981.5C2319.61 1981.5 2321.38 1979.74 2321.38 1977.56L2317.44 1977.56C2318.52 1977.56 2319.41 1976.68 2319.41 1975.59 2319.41 1974.51 2318.52 1973.62 2317.44 1973.62L2321.38 1973.62 2321.38 1922.44C2321.38 1920.26 2323.14 1918.5 2325.31 1918.5L2441.56 1918.5C2443.74 1918.5 2445.5 1920.26 2445.5 1922.44 2445.5 1924.61 2443.74 1926.38 2441.56 1926.38L2437.62 1926.38 2437.62 1977.56C2437.62 1979.74 2435.86 1981.5 2433.69 1981.5ZM2329.25 1922.44C2329.25 1924.61 2327.49 1926.38 2325.31 1926.38 2324.23 1926.38 2323.34 1925.49 2323.34 1924.41 2323.34 1923.32 2324.23 1922.44 2325.31 1922.44Z"
       fill="#FFFFFF"
       fill-rule="evenodd"
       id="path1" /><path
       d="M2329.25 1922.44C2329.25 1924.61 2327.49 1926.38 2325.31 1926.38 2324.23 1926.38 2323.34 1925.49 2323.34 1924.41 2323.34 1923.32 2324.23 1922.44 2325.31 1922.44ZM2321.38 1977.56C2321.38 1979.74 2319.61 1981.5 2317.44 1981.5 2315.26 1981.5 2313.5 1979.74 2313.5 1977.56 2313.5 1975.39 2315.26 1973.62 2317.44 1973.62 2318.52 1973.62 2319.41 1974.51 2319.41 1975.59 2319.41 1976.68 2318.52 1977.56 2317.44 1977.56Z"
       fill="#CDCDCD"
       fill-rule="evenodd"
       id="path2" /><path
       d="M2321.38 1973.62 2321.38 1922.44C2321.38 1920.26 2323.14 1918.5 2325.31 1918.5L2441.56 1918.5C2443.74 1918.5 2445.5 1920.26 2445.5 1922.44 2445.5 1924.61 2443.74 1926.38 2441.56 1926.38L2437.62 1926.38 2437.62 1977.56C2437.62 1979.74 2435.86 1981.5 2433.69 1981.5L2317.44 1981.5C2315.26 1981.5 2313.5 1979.74 2313.5 1977.56 2313.5 1975.39 2315.26 1973.62 2317.44 1973.62ZM2325.31 1918.5C2327.49 1918.5 2329.25 1920.26 2329.25 1922.44 2329.25 1924.61 2327.49 1926.38 2325.31 1926.38 2324.23 1926.38 2323.34 1925.49 2323.34 1924.41 2323.34 1923.32 2324.23 1922.44 2325.31 1922.44L2329.25 1922.44M2437.62 1926.38 2325.31 1926.38M2317.44 1973.62C2318.52 1973.62 2319.41 1974.51 2319.41 1975.59 2319.41 1976.68 2318.52 1977.56 2317.44 1977.56L2321.38 1977.56M2317.44 1981.5C2319.61 1981.5 2321.38 1979.74 2321.38 1977.56L2321.38 1973.62"
       stroke="#7030A0"
       stroke-width="3.4375"
       stroke-linejoin="round"
       stroke-miterlimit="10"
       fill="none"
       fill-rule="evenodd"
       id="path3" /><text
       font-family="Calibri,Calibri_MSFontService,sans-serif"
       font-weight="400"
       font-size="55"
       transform="matrix(1 0 0 1 2353.78 1969)"
       id="text3">1</text><path
       d="M2302.38 2061.5C2304.52 2061.5 2306.25 2059.77 2306.25 2057.62L2302.38 2057.62C2303.45 2057.62 2304.31 2056.76 2304.31 2055.69 2304.31 2054.62 2303.45 2053.75 2302.38 2053.75L2306.25 2053.75 2306.25 2003.38C2306.25 2001.23 2307.99 1999.5 2310.13 1999.5L2426.63 1999.5C2428.77 1999.5 2430.5 2001.23 2430.5 2003.38 2430.5 2005.52 2428.77 2007.25 2426.63 2007.25L2422.75 2007.25 2422.75 2057.62C2422.75 2059.77 2421.02 2061.5 2418.88 2061.5ZM2314 2003.38C2314 2005.52 2312.27 2007.25 2310.13 2007.25 2309.06 2007.25 2308.19 2006.38 2308.19 2005.31 2308.19 2004.24 2309.06 2003.38 2310.13 2003.38Z"
       fill="#FFFFFF"
       fill-rule="evenodd"
       id="path4" /><path
       d="M2314 2003.38C2314 2005.52 2312.27 2007.25 2310.13 2007.25 2309.06 2007.25 2308.19 2006.38 2308.19 2005.31 2308.19 2004.24 2309.06 2003.38 2310.13 2003.38ZM2306.25 2057.62C2306.25 2059.77 2304.52 2061.5 2302.38 2061.5 2300.24 2061.5 2298.5 2059.77 2298.5 2057.62 2298.5 2055.48 2300.24 2053.75 2302.38 2053.75 2303.45 2053.75 2304.31 2054.62 2304.31 2055.69 2304.31 2056.76 2303.45 2057.63 2302.38 2057.63Z"
       fill="#CDCDCD"
       fill-rule="evenodd"
       id="path5" /><path
       d="M2306.25 2053.75 2306.25 2003.38C2306.25 2001.23 2307.99 1999.5 2310.13 1999.5L2426.63 1999.5C2428.77 1999.5 2430.5 2001.23 2430.5 2003.38 2430.5 2005.52 2428.77 2007.25 2426.63 2007.25L2422.75 2007.25 2422.75 2057.62C2422.75 2059.77 2421.02 2061.5 2418.88 2061.5L2302.38 2061.5C2300.24 2061.5 2298.5 2059.77 2298.5 2057.62 2298.5 2055.48 2300.24 2053.75 2302.38 2053.75ZM2310.13 1999.5C2312.27 1999.5 2314 2001.23 2314 2003.38 2314 2005.52 2312.27 2007.25 2310.13 2007.25 2309.06 2007.25 2308.19 2006.38 2308.19 2005.31 2308.19 2004.24 2309.06 2003.38 2310.13 2003.38L2314 2003.38M2422.75 2007.25 2310.13 2007.25M2302.38 2053.75C2303.45 2053.75 2304.31 2054.62 2304.31 2055.69 2304.31 2056.76 2303.45 2057.63 2302.38 2057.63L2306.25 2057.62M2302.38 2061.5C2304.52 2061.5 2306.25 2059.77 2306.25 2057.62L2306.25 2053.75"
       stroke="#7030A0"
       stroke-width="3.4375"
       stroke-linejoin="round"
       stroke-miterlimit="10"
       fill="none"
       fill-rule="evenodd"
       id="path6" /><text
       font-family="Calibri,Calibri_MSFontService,sans-serif"
       font-weight="400"
       font-size="55"
       transform="matrix(1 0 0 1 2339.01 2050)"
       id="text6">2</text><path
       d="M2392.37 2043.5C2394.51 2043.5 2396.25 2041.77 2396.25 2039.63L2392.37 2039.63C2393.44 2039.63 2394.31 2038.76 2394.31 2037.69 2394.31 2036.62 2393.44 2035.75 2392.37 2035.75L2396.25 2035.75 2396.25 1985.37C2396.25 1983.23 2397.98 1981.5 2400.12 1981.5L2517.62 1981.5C2519.76 1981.5 2521.5 1983.23 2521.5 1985.37 2521.5 1987.51 2519.76 1989.25 2517.62 1989.25L2513.75 1989.25 2513.75 2039.63C2513.75 2041.77 2512.01 2043.5 2509.87 2043.5ZM2404 1985.37C2404 1987.51 2402.26 1989.25 2400.12 1989.25 2399.05 1989.25 2398.19 1988.38 2398.19 1987.31 2398.19 1986.24 2399.05 1985.37 2400.12 1985.37Z"
       fill="#FFFFFF"
       fill-rule="evenodd"
       id="path7" /><path
       d="M2404 1985.37C2404 1987.51 2402.26 1989.25 2400.12 1989.25 2399.05 1989.25 2398.19 1988.38 2398.19 1987.31 2398.19 1986.24 2399.05 1985.37 2400.12 1985.37ZM2396.25 2039.63C2396.25 2041.77 2394.51 2043.5 2392.37 2043.5 2390.23 2043.5 2388.5 2041.77 2388.5 2039.63 2388.5 2037.49 2390.23 2035.75 2392.37 2035.75 2393.44 2035.75 2394.31 2036.62 2394.31 2037.69 2394.31 2038.76 2393.44 2039.63 2392.37 2039.63Z"
       fill="#CDCDCD"
       fill-rule="evenodd"
       id="path8" /><path
       d="M2396.25 2035.75 2396.25 1985.37C2396.25 1983.23 2397.98 1981.5 2400.12 1981.5L2517.62 1981.5C2519.76 1981.5 2521.5 1983.23 2521.5 1985.37 2521.5 1987.51 2519.76 1989.25 2517.62 1989.25L2513.75 1989.25 2513.75 2039.63C2513.75 2041.77 2512.01 2043.5 2509.87 2043.5L2392.37 2043.5C2390.23 2043.5 2388.5 2041.77 2388.5 2039.63 2388.5 2037.49 2390.23 2035.75 2392.37 2035.75ZM2400.12 1981.5C2402.26 1981.5 2404 1983.23 2404 1985.37 2404 1987.51 2402.26 1989.25 2400.12 1989.25 2399.05 1989.25 2398.19 1988.38 2398.19 1987.31 2398.19 1986.24 2399.05 1985.37 2400.12 1985.37L2404 1985.37M2513.75 1989.25 2400.12 1989.25M2392.37 2035.75C2393.44 2035.75 2394.31 2036.62 2394.31 2037.69 2394.31 2038.76 2393.44 2039.63 2392.37 2039.63L2396.25 2039.63M2392.37 2043.5C2394.51 2043.5 2396.25 2041.77 2396.25 2039.63L2396.25 2035.75"
       stroke="#7030A0"
       stroke-width="3.4375"
       stroke-linejoin="round"
       stroke-miterlimit="10"
       fill="none"
       fill-rule="evenodd"
       id="path9" /><text
       font-family="Calibri,Calibri_MSFontService,sans-serif"
       font-weight="400"
       font-size="55"
       transform="matrix(1 0 0 1 2429.23 2032)"
       id="text9">3</text><path
       d="M2822.38 2158.5C2824.52 2158.5 2826.25 2156.76 2826.25 2154.62L2822.38 2154.62C2823.45 2154.62 2824.31 2153.76 2824.31 2152.69 2824.31 2151.62 2823.45 2150.75 2822.38 2150.75L2826.25 2150.75 2826.25 2100.38C2826.25 2098.23 2827.98 2096.5 2830.12 2096.5L2946.62 2096.5C2948.77 2096.5 2950.5 2098.23 2950.5 2100.38 2950.5 2102.52 2948.77 2104.25 2946.62 2104.25L2942.75 2104.25 2942.75 2154.62C2942.75 2156.76 2941.02 2158.5 2938.88 2158.5ZM2834 2100.38C2834 2102.52 2832.27 2104.25 2830.12 2104.25 2829.05 2104.25 2828.19 2103.38 2828.19 2102.31 2828.19 2101.24 2829.05 2100.37 2830.12 2100.37Z"
       fill="#FFFFFF"
       fill-rule="evenodd"
       id="path10" /><path
       d="M2834 2100.38C2834 2102.52 2832.27 2104.25 2830.12 2104.25 2829.05 2104.25 2828.19 2103.38 2828.19 2102.31 2828.19 2101.24 2829.05 2100.37 2830.12 2100.37ZM2826.25 2154.62C2826.25 2156.76 2824.52 2158.5 2822.38 2158.5 2820.23 2158.5 2818.5 2156.76 2818.5 2154.62 2818.5 2152.48 2820.23 2150.75 2822.38 2150.75 2823.45 2150.75 2824.31 2151.62 2824.31 2152.69 2824.31 2153.76 2823.45 2154.62 2822.38 2154.62Z"
       fill="#CDCDCD"
       fill-rule="evenodd"
       id="path11" /><path
       d="M2826.25 2150.75 2826.25 2100.38C2826.25 2098.23 2827.98 2096.5 2830.12 2096.5L2946.62 2096.5C2948.77 2096.5 2950.5 2098.23 2950.5 2100.38 2950.5 2102.52 2948.77 2104.25 2946.62 2104.25L2942.75 2104.25 2942.75 2154.62C2942.75 2156.76 2941.02 2158.5 2938.88 2158.5L2822.38 2158.5C2820.23 2158.5 2818.5 2156.76 2818.5 2154.62 2818.5 2152.48 2820.23 2150.75 2822.38 2150.75ZM2830.12 2096.5C2832.26 2096.5 2834 2098.23 2834 2100.38 2834 2102.52 2832.26 2104.25 2830.12 2104.25 2829.05 2104.25 2828.19 2103.38 2828.19 2102.31 2828.19 2101.24 2829.05 2100.37 2830.12 2100.37L2834 2100.38M2942.75 2104.25 2830.12 2104.25M2822.38 2150.75C2823.45 2150.75 2824.31 2151.62 2824.31 2152.69 2824.31 2153.76 2823.45 2154.62 2822.38 2154.62L2826.25 2154.62M2822.38 2158.5C2824.52 2158.5 2826.25 2156.76 2826.25 2154.62L2826.25 2150.75"
       stroke="#FF0000"
       stroke-width="3.4375"
       stroke-linejoin="round"
       stroke-miterlimit="10"
       fill="none"
       fill-rule="evenodd"
       id="path12" /><text
       font-family="Calibri,Calibri_MSFontService,sans-serif"
       font-weight="400"
       font-size="55"
       transform="matrix(1 0 0 1 2859.08 2147)"
       id="text12">4</text><path
       d="M2763.38 2235.5C2765.52 2235.5 2767.25 2233.77 2767.25 2231.63L2763.38 2231.63C2764.45 2231.63 2765.31 2230.76 2765.31 2229.69 2765.31 2228.62 2764.45 2227.75 2763.38 2227.75L2767.25 2227.75 2767.25 2177.38C2767.25 2175.23 2768.99 2173.5 2771.13 2173.5L2888.63 2173.5C2890.77 2173.5 2892.5 2175.23 2892.5 2177.38 2892.5 2179.52 2890.77 2181.25 2888.63 2181.25L2884.75 2181.25 2884.75 2231.63C2884.75 2233.77 2883.02 2235.5 2880.88 2235.5ZM2775 2177.38C2775 2179.52 2773.27 2181.25 2771.13 2181.25 2770.06 2181.25 2769.19 2180.38 2769.19 2179.31 2769.19 2178.24 2770.06 2177.37 2771.13 2177.37Z"
       fill="#FFFFFF"
       fill-rule="evenodd"
       id="path13" /><path
       d="M2775 2177.38C2775 2179.52 2773.27 2181.25 2771.13 2181.25 2770.06 2181.25 2769.19 2180.38 2769.19 2179.31 2769.19 2178.24 2770.06 2177.37 2771.13 2177.37ZM2767.25 2231.63C2767.25 2233.77 2765.52 2235.5 2763.38 2235.5 2761.24 2235.5 2759.5 2233.77 2759.5 2231.63 2759.5 2229.49 2761.24 2227.75 2763.38 2227.75 2764.45 2227.75 2765.31 2228.62 2765.31 2229.69 2765.31 2230.76 2764.45 2231.63 2763.38 2231.63Z"
       fill="#CDCDCD"
       fill-rule="evenodd"
       id="path14" /><path
       d="M2767.25 2227.75 2767.25 2177.38C2767.25 2175.23 2768.99 2173.5 2771.13 2173.5L2888.63 2173.5C2890.77 2173.5 2892.5 2175.23 2892.5 2177.38 2892.5 2179.52 2890.77 2181.25 2888.63 2181.25L2884.75 2181.25 2884.75 2231.63C2884.75 2233.77 2883.02 2235.5 2880.88 2235.5L2763.38 2235.5C2761.24 2235.5 2759.5 2233.77 2759.5 2231.63 2759.5 2229.49 2761.24 2227.75 2763.38 2227.75ZM2771.13 2173.5C2773.27 2173.5 2775 2175.23 2775 2177.38 2775 2179.52 2773.27 2181.25 2771.13 2181.25 2770.06 2181.25 2769.19 2180.38 2769.19 2179.31 2769.19 2178.24 2770.06 2177.37 2771.13 2177.37L2775 2177.38M2884.75 2181.25 2771.13 2181.25M2763.38 2227.75C2764.45 2227.75 2765.31 2228.62 2765.31 2229.69 2765.31 2230.76 2764.45 2231.63 2763.38 2231.63L2767.25 2231.63M2763.38 2235.5C2765.52 2235.5 2767.25 2233.77 2767.25 2231.63L2767.25 2227.75"
       stroke="#FF0000"
       stroke-width="3.4375"
       stroke-linejoin="round"
       stroke-miterlimit="10"
       fill="none"
       fill-rule="evenodd"
       id="path15" /><text
       font-family="Calibri,Calibri_MSFontService,sans-serif"
       font-weight="400"
       font-size="55"
       transform="matrix(1 0 0 1 2800.23 2224)"
       id="text15">5</text><path
       d="M2328.5 2158C2328.5 2020.76 2439.98 1909.5 2577.5 1909.5 2715.02 1909.5 2826.5 2020.76 2826.5 2158 2826.5 2295.24 2715.02 2406.5 2577.5 2406.5 2439.98 2406.5 2328.5 2295.24 2328.5 2158Z"
       stroke="#ED7D31"
       stroke-width="4.58333"
       stroke-linejoin="round"
       stroke-miterlimit="10"
       stroke-dasharray="18.3333 13.75"
       fill="none"
       fill-rule="evenodd"
       id="path16" /><path
       d="M2328.38 2394.5C2330.52 2394.5 2332.25 2392.76 2332.25 2390.62L2328.38 2390.62C2329.45 2390.62 2330.31 2389.76 2330.31 2388.69 2330.31 2387.62 2329.45 2386.75 2328.38 2386.75L2332.25 2386.75 2332.25 2336.37C2332.25 2334.23 2333.98 2332.5 2336.12 2332.5L2452.62 2332.5C2454.77 2332.5 2456.5 2334.23 2456.5 2336.37 2456.5 2338.51 2454.77 2340.25 2452.62 2340.25L2448.75 2340.25 2448.75 2390.62C2448.75 2392.76 2447.02 2394.5 2444.88 2394.5ZM2340 2336.37C2340 2338.51 2338.27 2340.25 2336.12 2340.25 2335.05 2340.25 2334.19 2339.38 2334.19 2338.31 2334.19 2337.24 2335.05 2336.37 2336.12 2336.37Z"
       fill="#FFFFFF"
       fill-rule="evenodd"
       id="path17" /><path
       d="M2340 2336.37C2340 2338.51 2338.27 2340.25 2336.12 2340.25 2335.05 2340.25 2334.19 2339.38 2334.19 2338.31 2334.19 2337.24 2335.05 2336.37 2336.12 2336.37ZM2332.25 2390.62C2332.25 2392.76 2330.52 2394.5 2328.38 2394.5 2326.23 2394.5 2324.5 2392.76 2324.5 2390.62 2324.5 2388.48 2326.23 2386.75 2328.38 2386.75 2329.45 2386.75 2330.31 2387.62 2330.31 2388.69 2330.31 2389.76 2329.45 2390.62 2328.38 2390.62Z"
       fill="#CDCDCD"
       fill-rule="evenodd"
       id="path18" /><path
       d="M2332.25 2386.75 2332.25 2336.37C2332.25 2334.23 2333.98 2332.5 2336.12 2332.5L2452.62 2332.5C2454.77 2332.5 2456.5 2334.23 2456.5 2336.37 2456.5 2338.51 2454.77 2340.25 2452.62 2340.25L2448.75 2340.25 2448.75 2390.62C2448.75 2392.76 2447.02 2394.5 2444.88 2394.5L2328.38 2394.5C2326.23 2394.5 2324.5 2392.76 2324.5 2390.62 2324.5 2388.48 2326.23 2386.75 2328.38 2386.75ZM2336.12 2332.5C2338.26 2332.5 2340 2334.23 2340 2336.37 2340 2338.51 2338.26 2340.25 2336.12 2340.25 2335.05 2340.25 2334.19 2339.38 2334.19 2338.31 2334.19 2337.24 2335.05 2336.37 2336.12 2336.37L2340 2336.37M2448.75 2340.25 2336.12 2340.25M2328.38 2386.75C2329.45 2386.75 2330.31 2387.62 2330.31 2388.69 2330.31 2389.76 2329.45 2390.62 2328.38 2390.62L2332.25 2390.62M2328.38 2394.5C2330.52 2394.5 2332.25 2392.76 2332.25 2390.62L2332.25 2386.75"
       stroke="#00B0F0"
       stroke-width="3.4375"
       stroke-linejoin="round"
       stroke-miterlimit="10"
       fill="none"
       fill-rule="evenodd"
       id="path19" /><text
       font-family="Calibri,Calibri_MSFontService,sans-serif"
       font-weight="400"
       font-size="55"
       transform="matrix(1 0 0 1 2364.83 2383)"
       id="text19">6</text><path
       d="M2383.38 2449.5C2385.52 2449.5 2387.25 2447.76 2387.25 2445.62L2383.38 2445.62C2384.45 2445.62 2385.31 2444.76 2385.31 2443.69 2385.31 2442.62 2384.45 2441.75 2383.38 2441.75L2387.25 2441.75 2387.25 2391.37C2387.25 2389.23 2388.98 2387.5 2391.12 2387.5L2507.62 2387.5C2509.77 2387.5 2511.5 2389.23 2511.5 2391.37 2511.5 2393.51 2509.77 2395.25 2507.62 2395.25L2503.75 2395.25 2503.75 2445.62C2503.75 2447.76 2502.02 2449.5 2499.88 2449.5ZM2395 2391.37C2395 2393.51 2393.27 2395.25 2391.12 2395.25 2390.05 2395.25 2389.19 2394.38 2389.19 2393.31 2389.19 2392.24 2390.05 2391.37 2391.12 2391.37Z"
       fill="#FFFFFF"
       fill-rule="evenodd"
       id="path20" /><path
       d="M2395 2391.37C2395 2393.51 2393.27 2395.25 2391.12 2395.25 2390.05 2395.25 2389.19 2394.38 2389.19 2393.31 2389.19 2392.24 2390.05 2391.37 2391.12 2391.37ZM2387.25 2445.62C2387.25 2447.76 2385.52 2449.5 2383.38 2449.5 2381.23 2449.5 2379.5 2447.76 2379.5 2445.62 2379.5 2443.48 2381.23 2441.75 2383.38 2441.75 2384.45 2441.75 2385.31 2442.62 2385.31 2443.69 2385.31 2444.76 2384.45 2445.62 2383.38 2445.62Z"
       fill="#CDCDCD"
       fill-rule="evenodd"
       id="path21" /><path
       d="M2387.25 2441.75 2387.25 2391.37C2387.25 2389.23 2388.98 2387.5 2391.12 2387.5L2507.62 2387.5C2509.77 2387.5 2511.5 2389.23 2511.5 2391.37 2511.5 2393.51 2509.77 2395.25 2507.62 2395.25L2503.75 2395.25 2503.75 2445.62C2503.75 2447.76 2502.02 2449.5 2499.88 2449.5L2383.38 2449.5C2381.23 2449.5 2379.5 2447.76 2379.5 2445.62 2379.5 2443.48 2381.23 2441.75 2383.38 2441.75ZM2391.12 2387.5C2393.26 2387.5 2395 2389.23 2395 2391.37 2395 2393.51 2393.26 2395.25 2391.12 2395.25 2390.05 2395.25 2389.19 2394.38 2389.19 2393.31 2389.19 2392.24 2390.05 2391.37 2391.12 2391.37L2395 2391.37M2503.75 2395.25 2391.12 2395.25M2383.38 2441.75C2384.45 2441.75 2385.31 2442.62 2385.31 2443.69 2385.31 2444.76 2384.45 2445.62 2383.38 2445.62L2387.25 2445.62M2383.38 2449.5C2385.52 2449.5 2387.25 2447.76 2387.25 2445.62L2387.25 2441.75"
       stroke="#00B0F0"
       stroke-width="3.4375"
       stroke-linejoin="round"
       stroke-miterlimit="10"
       fill="none"
       fill-rule="evenodd"
       id="path22" /><text
       font-family="Calibri,Calibri_MSFontService,sans-serif"
       font-weight="400"
       font-size="55"
       transform="matrix(1 0 0 1 2419.83 2438)"
       id="text22">7</text><path
       d="M2434.38 2396.5C2436.52 2396.5 2438.25 2394.77 2438.25 2392.62L2434.38 2392.62C2435.45 2392.62 2436.31 2391.76 2436.31 2390.69 2436.31 2389.62 2435.45 2388.75 2434.38 2388.75L2438.25 2388.75 2438.25 2338.38C2438.25 2336.23 2439.99 2334.5 2442.13 2334.5L2558.63 2334.5C2560.77 2334.5 2562.5 2336.23 2562.5 2338.38 2562.5 2340.52 2560.77 2342.25 2558.63 2342.25L2554.75 2342.25 2554.75 2392.62C2554.75 2394.77 2553.02 2396.5 2550.88 2396.5ZM2446 2338.38C2446 2340.52 2444.27 2342.25 2442.13 2342.25 2441.06 2342.25 2440.19 2341.38 2440.19 2340.31 2440.19 2339.24 2441.06 2338.37 2442.13 2338.37Z"
       fill="#FFFFFF"
       fill-rule="evenodd"
       id="path23" /><path
       d="M2446 2338.38C2446 2340.52 2444.27 2342.25 2442.13 2342.25 2441.06 2342.25 2440.19 2341.38 2440.19 2340.31 2440.19 2339.24 2441.06 2338.37 2442.13 2338.37ZM2438.25 2392.62C2438.25 2394.77 2436.52 2396.5 2434.38 2396.5 2432.24 2396.5 2430.5 2394.77 2430.5 2392.62 2430.5 2390.48 2432.24 2388.75 2434.38 2388.75 2435.45 2388.75 2436.31 2389.62 2436.31 2390.69 2436.31 2391.76 2435.45 2392.62 2434.38 2392.62Z"
       fill="#CDCDCD"
       fill-rule="evenodd"
       id="path24" /><path
       d="M2438.25 2388.75 2438.25 2338.38C2438.25 2336.23 2439.99 2334.5 2442.13 2334.5L2558.63 2334.5C2560.77 2334.5 2562.5 2336.23 2562.5 2338.38 2562.5 2340.52 2560.77 2342.25 2558.63 2342.25L2554.75 2342.25 2554.75 2392.62C2554.75 2394.77 2553.02 2396.5 2550.88 2396.5L2434.38 2396.5C2432.24 2396.5 2430.5 2394.77 2430.5 2392.62 2430.5 2390.48 2432.24 2388.75 2434.38 2388.75ZM2442.13 2334.5C2444.27 2334.5 2446 2336.23 2446 2338.38 2446 2340.52 2444.27 2342.25 2442.13 2342.25 2441.06 2342.25 2440.19 2341.38 2440.19 2340.31 2440.19 2339.24 2441.06 2338.37 2442.13 2338.37L2446 2338.38M2554.75 2342.25 2442.13 2342.25M2434.38 2388.75C2435.45 2388.75 2436.31 2389.62 2436.31 2390.69 2436.31 2391.76 2435.45 2392.62 2434.38 2392.62L2438.25 2392.62M2434.38 2396.5C2436.52 2396.5 2438.25 2394.77 2438.25 2392.62L2438.25 2388.75"
       stroke="#00B0F0"
       stroke-width="3.4375"
       stroke-linejoin="round"
       stroke-miterlimit="10"
       fill="none"
       fill-rule="evenodd"
       id="path25" /><text
       font-family="Calibri,Calibri_MSFontService,sans-serif"
       font-weight="400"
       font-size="55"
       transform="matrix(1 0 0 1 2471.1 2385)"
       id="text25">8</text><path
       d="M1897.5 1597.79 1800.33 1597.79 1802.62 1595.5 1802.62 1819.48 1800.33 1817.19 2013.27 1817.19 2013.27 2031.41 2010.98 2029.11 2283.23 2029.11 2283.23 2033.7 2008.68 2033.7 2008.68 1819.48 2010.98 1821.77 1798.04 1821.77 1798.04 1593.21 1897.5 1593.21ZM2278.64 2017.66 2306.14 2031.41 2278.64 2045.16Z"
       fill="#ED7D31"
       id="path26" /><path
       d="M2500.3 1638.5 2500.3 1847.2 2379.5 1847.2 2381.79 1844.9 2381.79 1896.39 2377.21 1896.39 2377.21 1842.61 2498.01 1842.61 2495.71 1844.9 2495.71 1638.5ZM2393.25 1891.81 2379.5 1919.31 2365.75 1891.81Z"
       fill="#ED7D31"
       id="path27" /><path
       d="M0 2.29167-45.8333 2.29167-43.5416 0-43.5416 272.667-45.8333 270.376 205.454 270.376 205.454 479.335 200.871 479.335 200.871 272.667 203.162 274.959-48.1249 274.959-48.1249-2.29167 0-2.29167ZM216.912 474.751 203.162 502.251 189.412 474.751Z"
       fill="#ED7D31"
       transform="matrix(-1 0 0 1 3087.66 1593.5)"
       id="path28" /><text
       font-family="Calibri, Calibri_MSFontService, sans-serif"
       font-weight="700"
       font-size="83px"
       transform="translate(2379.31,2142)"
       id="text28"
       x="192.18066"
       y="0"><tspan
         sodipodi:role="line"
         id="tspan29"
         x="192.18066"
         y="0"
         style="text-align:center;text-anchor:middle">embedding</tspan><tspan
         sodipodi:role="line"
         id="tspan30"
         x="192.18066"
         y="103.75"
         style="text-align:center;text-anchor:middle">space</tspan></text><text
       font-family="Calibri, Calibri_MSFontService, sans-serif"
       font-weight="700"
       font-size="83px"
       transform="translate(2476.41,2241)"
       id="text29" /></g></svg>
