<?xml version="1.0" encoding="UTF-8" standalone="no"?>
<svg
   width="1430"
   height="668"
   xml:space="preserve"
   overflow="hidden"
   version="1.1"
   id="svg44"
   sodipodi:docname="data_difference.svg"
   inkscape:version="1.3.2 (091e20e, 2023-11-25, custom)"
   xmlns:inkscape="http://www.inkscape.org/namespaces/inkscape"
   xmlns:sodipodi="http://sodipodi.sourceforge.net/DTD/sodipodi-0.dtd"
   xmlns="http://www.w3.org/2000/svg"
   xmlns:svg="http://www.w3.org/2000/svg"><defs
     id="defs44" /><sodipodi:namedview
     id="namedview44"
     pagecolor="#ffffff"
     bordercolor="#000000"
     borderopacity="0.25"
     inkscape:showpageshadow="2"
     inkscape:pageopacity="0.0"
     inkscape:pagecheckerboard="0"
     inkscape:deskcolor="#d1d1d1"
     inkscape:zoom="0.98111888"
     inkscape:cx="715"
     inkscape:cy="334.31219"
     inkscape:window-width="1920"
     inkscape:window-height="1002"
     inkscape:window-x="-8"
     inkscape:window-y="-8"
     inkscape:window-maximized="1"
     inkscape:current-layer="g44" /><g
     transform="translate(-2522 -1447)"
     id="g44"><text
       font-family="Calibri, Calibri_MSFontService, sans-serif"
       font-weight="700"
       font-size="73px"
       transform="translate(2566.66,1568)"
       id="text1">body-grasp</text><text
       font-family="Calibri, Calibri_MSFontService, sans-serif"
       font-weight="700"
       font-size="73px"
       transform="translate(2720.2,1568)"
       id="text2" /><text
       font-family="Calibri, Calibri_MSFontService, sans-serif"
       font-weight="700"
       font-size="73px"
       transform="translate(2742.54,1568)"
       id="text3" /><text
       font-family="Calibri, Calibri_MSFontService, sans-serif"
       font-weight="700"
       font-size="73px"
       transform="translate(2579.83,2051)"
       id="text4">handle-left-right-grasp</text><text
       font-family="Calibri, Calibri_MSFontService, sans-serif"
       font-weight="700"
       font-size="73px"
       transform="translate(2788.94,2051)"
       id="text5" /><text
       font-family="Calibri, Calibri_MSFontService, sans-serif"
       font-weight="700"
       font-size="73px"
       transform="translate(2811.29,2051)"
       id="text6" /><text
       font-family="Calibri, Calibri_MSFontService, sans-serif"
       font-weight="700"
       font-size="73px"
       transform="translate(2913.88,2051)"
       id="text7" /><text
       font-family="Calibri, Calibri_MSFontService, sans-serif"
       font-weight="700"
       font-size="73px"
       transform="translate(2936.23,2051)"
       id="text8" /><text
       font-family="Calibri, Calibri_MSFontService, sans-serif"
       font-weight="700"
       font-size="73px"
       transform="translate(3079.34,2051)"
       id="text9" /><text
       font-family="Calibri, Calibri_MSFontService, sans-serif"
       font-weight="700"
       font-size="73px"
       transform="translate(3101.69,2051)"
       id="text10" /><text
       font-family="Calibri, Calibri_MSFontService, sans-serif"
       font-weight="700"
       font-size="73px"
       transform="translate(2566.66,1797)"
       id="text11">handle-front-back-grasp</text><text
       font-family="Calibri, Calibri_MSFontService, sans-serif"
       font-weight="700"
       font-size="73px"
       transform="translate(2775.77,1797)"
       id="text12" /><text
       font-family="Calibri, Calibri_MSFontService, sans-serif"
       font-weight="700"
       font-size="73px"
       transform="translate(2798.12,1797)"
       id="text13" /><text
       font-family="Calibri, Calibri_MSFontService, sans-serif"
       font-weight="700"
       font-size="73px"
       transform="translate(2950.65,1797)"
       id="text14" /><text
       font-family="Calibri, Calibri_MSFontService, sans-serif"
       font-weight="700"
       font-size="73px"
       transform="translate(2972.99,1797)"
       id="text15" /><text
       font-family="Calibri, Calibri_MSFontService, sans-serif"
       font-weight="700"
       font-size="73px"
       transform="translate(3114.5,1797)"
       id="text16" /><text
       font-family="Calibri, Calibri_MSFontService, sans-serif"
       font-weight="700"
       font-size="73px"
       transform="translate(3136.85,1797)"
       id="text17" /><path
       d="M3312.38 1554.5C3314.52 1554.5 3316.25 1552.77 3316.25 1550.62L3312.38 1550.62C3313.45 1550.62 3314.31 1549.76 3314.31 1548.69 3314.31 1547.62 3313.45 1546.75 3312.38 1546.75L3316.25 1546.75 3316.25 1496.38C3316.25 1494.23 3317.98 1492.5 3320.12 1492.5L3436.62 1492.5C3438.77 1492.5 3440.5 1494.23 3440.5 1496.38 3440.5 1498.52 3438.77 1500.25 3436.62 1500.25L3432.75 1500.25 3432.75 1550.62C3432.75 1552.77 3431.02 1554.5 3428.88 1554.5ZM3324 1496.38C3324 1498.52 3322.27 1500.25 3320.12 1500.25 3319.05 1500.25 3318.19 1499.38 3318.19 1498.31 3318.19 1497.24 3319.05 1496.38 3320.12 1496.38Z"
       fill="#FFFFFF"
       fill-rule="evenodd"
       id="path17" /><path
       d="M3324 1496.38C3324 1498.52 3322.27 1500.25 3320.12 1500.25 3319.05 1500.25 3318.19 1499.38 3318.19 1498.31 3318.19 1497.24 3319.05 1496.38 3320.12 1496.38ZM3316.25 1550.62C3316.25 1552.77 3314.52 1554.5 3312.38 1554.5 3310.23 1554.5 3308.5 1552.77 3308.5 1550.62 3308.5 1548.48 3310.23 1546.75 3312.38 1546.75 3313.45 1546.75 3314.31 1547.62 3314.31 1548.69 3314.31 1549.76 3313.45 1550.63 3312.38 1550.63Z"
       fill="#CDCDCD"
       fill-rule="evenodd"
       id="path18" /><path
       d="M3316.25 1546.75 3316.25 1496.38C3316.25 1494.23 3317.98 1492.5 3320.12 1492.5L3436.62 1492.5C3438.77 1492.5 3440.5 1494.23 3440.5 1496.38 3440.5 1498.52 3438.77 1500.25 3436.62 1500.25L3432.75 1500.25 3432.75 1550.62C3432.75 1552.77 3431.02 1554.5 3428.88 1554.5L3312.38 1554.5C3310.23 1554.5 3308.5 1552.77 3308.5 1550.62 3308.5 1548.48 3310.23 1546.75 3312.38 1546.75ZM3320.12 1492.5C3322.26 1492.5 3324 1494.23 3324 1496.38 3324 1498.52 3322.26 1500.25 3320.12 1500.25 3319.05 1500.25 3318.19 1499.38 3318.19 1498.31 3318.19 1497.24 3319.05 1496.38 3320.12 1496.38L3324 1496.38M3432.75 1500.25 3320.12 1500.25M3312.38 1546.75C3313.45 1546.75 3314.31 1547.62 3314.31 1548.69 3314.31 1549.76 3313.45 1550.63 3312.38 1550.63L3316.25 1550.62M3312.38 1554.5C3314.52 1554.5 3316.25 1552.77 3316.25 1550.62L3316.25 1546.75"
       stroke="#7030A0"
       stroke-width="3.4375"
       stroke-linejoin="round"
       stroke-miterlimit="10"
       fill="none"
       fill-rule="evenodd"
       id="path19" /><text
       font-family="Calibri,Calibri_MSFontService,sans-serif"
       font-weight="400"
       font-size="55"
       transform="matrix(1 0 0 1 3348.26 1543)"
       id="text19">1</text><path
       d="M3297.38 1635.5C3299.52 1635.5 3301.25 1633.76 3301.25 1631.62L3297.38 1631.62C3298.45 1631.62 3299.31 1630.76 3299.31 1629.69 3299.31 1628.62 3298.45 1627.75 3297.38 1627.75L3301.25 1627.75 3301.25 1577.37C3301.25 1575.23 3302.98 1573.5 3305.12 1573.5L3421.62 1573.5C3423.77 1573.5 3425.5 1575.23 3425.5 1577.37 3425.5 1579.51 3423.77 1581.25 3421.62 1581.25L3417.75 1581.25 3417.75 1631.62C3417.75 1633.76 3416.02 1635.5 3413.88 1635.5ZM3309 1577.37C3309 1579.51 3307.27 1581.25 3305.12 1581.25 3304.05 1581.25 3303.19 1580.38 3303.19 1579.31 3303.19 1578.24 3304.05 1577.37 3305.12 1577.37Z"
       fill="#FFFFFF"
       fill-rule="evenodd"
       id="path20" /><path
       d="M3309 1577.37C3309 1579.51 3307.27 1581.25 3305.12 1581.25 3304.05 1581.25 3303.19 1580.38 3303.19 1579.31 3303.19 1578.24 3304.05 1577.37 3305.12 1577.37ZM3301.25 1631.62C3301.25 1633.76 3299.52 1635.5 3297.38 1635.5 3295.23 1635.5 3293.5 1633.76 3293.5 1631.62 3293.5 1629.48 3295.23 1627.75 3297.38 1627.75 3298.45 1627.75 3299.31 1628.62 3299.31 1629.69 3299.31 1630.76 3298.45 1631.62 3297.38 1631.62Z"
       fill="#CDCDCD"
       fill-rule="evenodd"
       id="path21" /><path
       d="M3301.25 1627.75 3301.25 1577.37C3301.25 1575.23 3302.98 1573.5 3305.12 1573.5L3421.62 1573.5C3423.77 1573.5 3425.5 1575.23 3425.5 1577.37 3425.5 1579.51 3423.77 1581.25 3421.62 1581.25L3417.75 1581.25 3417.75 1631.62C3417.75 1633.76 3416.02 1635.5 3413.88 1635.5L3297.38 1635.5C3295.23 1635.5 3293.5 1633.76 3293.5 1631.62 3293.5 1629.48 3295.23 1627.75 3297.38 1627.75ZM3305.12 1573.5C3307.26 1573.5 3309 1575.23 3309 1577.37 3309 1579.51 3307.26 1581.25 3305.12 1581.25 3304.05 1581.25 3303.19 1580.38 3303.19 1579.31 3303.19 1578.24 3304.05 1577.37 3305.12 1577.37L3309 1577.37M3417.75 1581.25 3305.12 1581.25M3297.38 1627.75C3298.45 1627.75 3299.31 1628.62 3299.31 1629.69 3299.31 1630.76 3298.45 1631.62 3297.38 1631.62L3301.25 1631.62M3297.38 1635.5C3299.52 1635.5 3301.25 1633.76 3301.25 1631.62L3301.25 1627.75"
       stroke="#7030A0"
       stroke-width="3.4375"
       stroke-linejoin="round"
       stroke-miterlimit="10"
       fill="none"
       fill-rule="evenodd"
       id="path22" /><text
       font-family="Calibri,Calibri_MSFontService,sans-serif"
       font-weight="400"
       font-size="55"
       transform="matrix(1 0 0 1 3333.48 1624)"
       id="text22">2</text><path
       d="M3387.38 1617.5C3389.52 1617.5 3391.25 1615.77 3391.25 1613.62L3387.38 1613.62C3388.45 1613.62 3389.31 1612.76 3389.31 1611.69 3389.31 1610.62 3388.45 1609.75 3387.38 1609.75L3391.25 1609.75 3391.25 1559.38C3391.25 1557.23 3392.98 1555.5 3395.12 1555.5L3511.62 1555.5C3513.77 1555.5 3515.5 1557.23 3515.5 1559.38 3515.5 1561.52 3513.77 1563.25 3511.62 1563.25L3507.75 1563.25 3507.75 1613.62C3507.75 1615.77 3506.02 1617.5 3503.88 1617.5ZM3399 1559.38C3399 1561.52 3397.27 1563.25 3395.12 1563.25 3394.05 1563.25 3393.19 1562.38 3393.19 1561.31 3393.19 1560.24 3394.05 1559.37 3395.12 1559.37Z"
       fill="#FFFFFF"
       fill-rule="evenodd"
       id="path23" /><path
       d="M3399 1559.38C3399 1561.52 3397.27 1563.25 3395.12 1563.25 3394.05 1563.25 3393.19 1562.38 3393.19 1561.31 3393.19 1560.24 3394.05 1559.37 3395.12 1559.37ZM3391.25 1613.62C3391.25 1615.77 3389.52 1617.5 3387.38 1617.5 3385.23 1617.5 3383.5 1615.77 3383.5 1613.62 3383.5 1611.48 3385.23 1609.75 3387.38 1609.75 3388.45 1609.75 3389.31 1610.62 3389.31 1611.69 3389.31 1612.76 3388.45 1613.62 3387.38 1613.62Z"
       fill="#CDCDCD"
       fill-rule="evenodd"
       id="path24" /><path
       d="M3391.25 1609.75 3391.25 1559.38C3391.25 1557.23 3392.98 1555.5 3395.12 1555.5L3511.62 1555.5C3513.77 1555.5 3515.5 1557.23 3515.5 1559.38 3515.5 1561.52 3513.77 1563.25 3511.62 1563.25L3507.75 1563.25 3507.75 1613.62C3507.75 1615.77 3506.02 1617.5 3503.88 1617.5L3387.38 1617.5C3385.23 1617.5 3383.5 1615.77 3383.5 1613.62 3383.5 1611.48 3385.23 1609.75 3387.38 1609.75ZM3395.12 1555.5C3397.26 1555.5 3399 1557.23 3399 1559.38 3399 1561.52 3397.26 1563.25 3395.12 1563.25 3394.05 1563.25 3393.19 1562.38 3393.19 1561.31 3393.19 1560.24 3394.05 1559.37 3395.12 1559.37L3399 1559.38M3507.75 1563.25 3395.12 1563.25M3387.38 1609.75C3388.45 1609.75 3389.31 1610.62 3389.31 1611.69 3389.31 1612.76 3388.45 1613.62 3387.38 1613.62L3391.25 1613.62M3387.38 1617.5C3389.52 1617.5 3391.25 1615.77 3391.25 1613.62L3391.25 1609.75"
       stroke="#7030A0"
       stroke-width="3.4375"
       stroke-linejoin="round"
       stroke-miterlimit="10"
       fill="none"
       fill-rule="evenodd"
       id="path25" /><text
       font-family="Calibri,Calibri_MSFontService,sans-serif"
       font-weight="400"
       font-size="55"
       transform="matrix(1 0 0 1 3423.71 1606)"
       id="text25">3</text><path
       d="M3817.38 1731.5C3819.52 1731.5 3821.25 1729.77 3821.25 1727.62L3817.38 1727.62C3818.45 1727.62 3819.31 1726.76 3819.31 1725.69 3819.31 1724.62 3818.45 1723.75 3817.38 1723.75L3821.25 1723.75 3821.25 1673.38C3821.25 1671.23 3822.98 1669.5 3825.12 1669.5L3941.62 1669.5C3943.77 1669.5 3945.5 1671.23 3945.5 1673.38 3945.5 1675.52 3943.77 1677.25 3941.62 1677.25L3937.75 1677.25 3937.75 1727.62C3937.75 1729.77 3936.02 1731.5 3933.88 1731.5ZM3829 1673.38C3829 1675.52 3827.27 1677.25 3825.12 1677.25 3824.05 1677.25 3823.19 1676.38 3823.19 1675.31 3823.19 1674.24 3824.05 1673.38 3825.12 1673.38Z"
       fill="#FFFFFF"
       fill-rule="evenodd"
       id="path26" /><path
       d="M3829 1673.38C3829 1675.52 3827.27 1677.25 3825.12 1677.25 3824.05 1677.25 3823.19 1676.38 3823.19 1675.31 3823.19 1674.24 3824.05 1673.38 3825.12 1673.38ZM3821.25 1727.62C3821.25 1729.77 3819.52 1731.5 3817.38 1731.5 3815.23 1731.5 3813.5 1729.77 3813.5 1727.62 3813.5 1725.48 3815.23 1723.75 3817.38 1723.75 3818.45 1723.75 3819.31 1724.62 3819.31 1725.69 3819.31 1726.76 3818.45 1727.63 3817.38 1727.63Z"
       fill="#CDCDCD"
       fill-rule="evenodd"
       id="path27" /><path
       d="M3821.25 1723.75 3821.25 1673.38C3821.25 1671.23 3822.98 1669.5 3825.12 1669.5L3941.62 1669.5C3943.77 1669.5 3945.5 1671.23 3945.5 1673.38 3945.5 1675.52 3943.77 1677.25 3941.62 1677.25L3937.75 1677.25 3937.75 1727.62C3937.75 1729.77 3936.02 1731.5 3933.88 1731.5L3817.38 1731.5C3815.23 1731.5 3813.5 1729.77 3813.5 1727.62 3813.5 1725.48 3815.23 1723.75 3817.38 1723.75ZM3825.12 1669.5C3827.26 1669.5 3829 1671.23 3829 1673.38 3829 1675.52 3827.26 1677.25 3825.12 1677.25 3824.05 1677.25 3823.19 1676.38 3823.19 1675.31 3823.19 1674.24 3824.05 1673.38 3825.12 1673.38L3829 1673.38M3937.75 1677.25 3825.12 1677.25M3817.38 1723.75C3818.45 1723.75 3819.31 1724.62 3819.31 1725.69 3819.31 1726.76 3818.45 1727.63 3817.38 1727.63L3821.25 1727.62M3817.38 1731.5C3819.52 1731.5 3821.25 1729.77 3821.25 1727.62L3821.25 1723.75"
       stroke="#FF0000"
       stroke-width="3.4375"
       stroke-linejoin="round"
       stroke-miterlimit="10"
       fill="none"
       fill-rule="evenodd"
       id="path28" /><text
       font-family="Calibri,Calibri_MSFontService,sans-serif"
       font-weight="400"
       font-size="55"
       transform="matrix(1 0 0 1 3853.56 1720)"
       id="text28">4</text><path
       d="M3758.38 1809.5C3760.52 1809.5 3762.25 1807.77 3762.25 1805.62L3758.38 1805.62C3759.45 1805.62 3760.31 1804.76 3760.31 1803.69 3760.31 1802.62 3759.45 1801.75 3758.38 1801.75L3762.25 1801.75 3762.25 1751.38C3762.25 1749.23 3763.98 1747.5 3766.12 1747.5L3882.62 1747.5C3884.77 1747.5 3886.5 1749.23 3886.5 1751.38 3886.5 1753.52 3884.77 1755.25 3882.62 1755.25L3878.75 1755.25 3878.75 1805.62C3878.75 1807.77 3877.02 1809.5 3874.88 1809.5ZM3770 1751.38C3770 1753.52 3768.27 1755.25 3766.12 1755.25 3765.05 1755.25 3764.19 1754.38 3764.19 1753.31 3764.19 1752.24 3765.05 1751.38 3766.12 1751.38Z"
       fill="#FFFFFF"
       fill-rule="evenodd"
       id="path29" /><path
       d="M3770 1751.38C3770 1753.52 3768.27 1755.25 3766.12 1755.25 3765.05 1755.25 3764.19 1754.38 3764.19 1753.31 3764.19 1752.24 3765.05 1751.38 3766.12 1751.38ZM3762.25 1805.62C3762.25 1807.77 3760.52 1809.5 3758.38 1809.5 3756.23 1809.5 3754.5 1807.77 3754.5 1805.62 3754.5 1803.48 3756.23 1801.75 3758.38 1801.75 3759.45 1801.75 3760.31 1802.62 3760.31 1803.69 3760.31 1804.76 3759.45 1805.63 3758.38 1805.63Z"
       fill="#CDCDCD"
       fill-rule="evenodd"
       id="path30" /><path
       d="M3762.25 1801.75 3762.25 1751.38C3762.25 1749.23 3763.98 1747.5 3766.12 1747.5L3882.62 1747.5C3884.77 1747.5 3886.5 1749.23 3886.5 1751.38 3886.5 1753.52 3884.77 1755.25 3882.62 1755.25L3878.75 1755.25 3878.75 1805.62C3878.75 1807.77 3877.02 1809.5 3874.88 1809.5L3758.38 1809.5C3756.23 1809.5 3754.5 1807.77 3754.5 1805.62 3754.5 1803.48 3756.23 1801.75 3758.38 1801.75ZM3766.12 1747.5C3768.26 1747.5 3770 1749.23 3770 1751.38 3770 1753.52 3768.26 1755.25 3766.12 1755.25 3765.05 1755.25 3764.19 1754.38 3764.19 1753.31 3764.19 1752.24 3765.05 1751.38 3766.12 1751.38L3770 1751.38M3878.75 1755.25 3766.12 1755.25M3758.38 1801.75C3759.45 1801.75 3760.31 1802.62 3760.31 1803.69 3760.31 1804.76 3759.45 1805.63 3758.38 1805.63L3762.25 1805.62M3758.38 1809.5C3760.52 1809.5 3762.25 1807.77 3762.25 1805.62L3762.25 1801.75"
       stroke="#FF0000"
       stroke-width="3.4375"
       stroke-linejoin="round"
       stroke-miterlimit="10"
       fill="none"
       fill-rule="evenodd"
       id="path31" /><text
       font-family="Calibri,Calibri_MSFontService,sans-serif"
       font-weight="400"
       font-size="55"
       transform="matrix(1 0 0 1 3794.7 1798)"
       id="text31">5</text><path
       d="M3323.5 1732C3323.5 1594.76 3434.76 1483.5 3572 1483.5 3709.24 1483.5 3820.5 1594.76 3820.5 1732 3820.5 1869.24 3709.24 1980.5 3572 1980.5 3434.76 1980.5 3323.5 1869.24 3323.5 1732Z"
       stroke="#ED7D31"
       stroke-width="4.58333"
       stroke-linejoin="round"
       stroke-miterlimit="10"
       stroke-dasharray="18.3333 13.75"
       fill="none"
       fill-rule="evenodd"
       id="path32" /><path
       d="M3323.38 1968.5C3325.52 1968.5 3327.25 1966.76 3327.25 1964.62L3323.38 1964.62C3324.45 1964.62 3325.31 1963.76 3325.31 1962.69 3325.31 1961.62 3324.45 1960.75 3323.38 1960.75L3327.25 1960.75 3327.25 1910.37C3327.25 1908.23 3328.98 1906.5 3331.12 1906.5L3447.62 1906.5C3449.77 1906.5 3451.5 1908.23 3451.5 1910.37 3451.5 1912.51 3449.77 1914.25 3447.62 1914.25L3443.75 1914.25 3443.75 1964.62C3443.75 1966.76 3442.02 1968.5 3439.88 1968.5ZM3335 1910.37C3335 1912.51 3333.27 1914.25 3331.12 1914.25 3330.05 1914.25 3329.19 1913.38 3329.19 1912.31 3329.19 1911.24 3330.05 1910.37 3331.12 1910.37Z"
       fill="#FFFFFF"
       fill-rule="evenodd"
       id="path33" /><path
       d="M3335 1910.37C3335 1912.51 3333.27 1914.25 3331.12 1914.25 3330.05 1914.25 3329.19 1913.38 3329.19 1912.31 3329.19 1911.24 3330.05 1910.37 3331.12 1910.37ZM3327.25 1964.62C3327.25 1966.76 3325.52 1968.5 3323.38 1968.5 3321.23 1968.5 3319.5 1966.76 3319.5 1964.62 3319.5 1962.48 3321.23 1960.75 3323.38 1960.75 3324.45 1960.75 3325.31 1961.62 3325.31 1962.69 3325.31 1963.76 3324.45 1964.62 3323.38 1964.62Z"
       fill="#CDCDCD"
       fill-rule="evenodd"
       id="path34" /><path
       d="M3327.25 1960.75 3327.25 1910.37C3327.25 1908.23 3328.98 1906.5 3331.12 1906.5L3447.62 1906.5C3449.77 1906.5 3451.5 1908.23 3451.5 1910.37 3451.5 1912.51 3449.77 1914.25 3447.62 1914.25L3443.75 1914.25 3443.75 1964.62C3443.75 1966.76 3442.02 1968.5 3439.88 1968.5L3323.38 1968.5C3321.23 1968.5 3319.5 1966.76 3319.5 1964.62 3319.5 1962.48 3321.23 1960.75 3323.38 1960.75ZM3331.12 1906.5C3333.26 1906.5 3335 1908.23 3335 1910.37 3335 1912.51 3333.26 1914.25 3331.12 1914.25 3330.05 1914.25 3329.19 1913.38 3329.19 1912.31 3329.19 1911.24 3330.05 1910.37 3331.12 1910.37L3335 1910.37M3443.75 1914.25 3331.12 1914.25M3323.38 1960.75C3324.45 1960.75 3325.31 1961.62 3325.31 1962.69 3325.31 1963.76 3324.45 1964.62 3323.38 1964.62L3327.25 1964.62M3323.38 1968.5C3325.52 1968.5 3327.25 1966.76 3327.25 1964.62L3327.25 1960.75"
       stroke="#00B0F0"
       stroke-width="3.4375"
       stroke-linejoin="round"
       stroke-miterlimit="10"
       fill="none"
       fill-rule="evenodd"
       id="path35" /><text
       font-family="Calibri,Calibri_MSFontService,sans-serif"
       font-weight="400"
       font-size="55"
       transform="matrix(1 0 0 1 3359.31 1957)"
       id="text35">6</text><path
       d="M3378.38 2023.5C3380.52 2023.5 3382.25 2021.76 3382.25 2019.62L3378.38 2019.62C3379.45 2019.62 3380.31 2018.76 3380.31 2017.69 3380.31 2016.62 3379.45 2015.75 3378.38 2015.75L3382.25 2015.75 3382.25 1965.37C3382.25 1963.23 3383.98 1961.5 3386.12 1961.5L3502.62 1961.5C3504.77 1961.5 3506.5 1963.23 3506.5 1965.37 3506.5 1967.51 3504.77 1969.25 3502.62 1969.25L3498.75 1969.25 3498.75 2019.62C3498.75 2021.76 3497.02 2023.5 3494.88 2023.5ZM3390 1965.37C3390 1967.51 3388.27 1969.25 3386.12 1969.25 3385.05 1969.25 3384.19 1968.38 3384.19 1967.31 3384.19 1966.24 3385.05 1965.37 3386.12 1965.37Z"
       fill="#FFFFFF"
       fill-rule="evenodd"
       id="path36" /><path
       d="M3390 1965.37C3390 1967.51 3388.27 1969.25 3386.12 1969.25 3385.05 1969.25 3384.19 1968.38 3384.19 1967.31 3384.19 1966.24 3385.05 1965.37 3386.12 1965.37ZM3382.25 2019.62C3382.25 2021.76 3380.52 2023.5 3378.38 2023.5 3376.23 2023.5 3374.5 2021.76 3374.5 2019.62 3374.5 2017.48 3376.23 2015.75 3378.38 2015.75 3379.45 2015.75 3380.31 2016.62 3380.31 2017.69 3380.31 2018.76 3379.45 2019.62 3378.38 2019.62Z"
       fill="#CDCDCD"
       fill-rule="evenodd"
       id="path37" /><path
       d="M3382.25 2015.75 3382.25 1965.37C3382.25 1963.23 3383.98 1961.5 3386.12 1961.5L3502.62 1961.5C3504.77 1961.5 3506.5 1963.23 3506.5 1965.37 3506.5 1967.51 3504.77 1969.25 3502.62 1969.25L3498.75 1969.25 3498.75 2019.62C3498.75 2021.76 3497.02 2023.5 3494.88 2023.5L3378.38 2023.5C3376.23 2023.5 3374.5 2021.76 3374.5 2019.62 3374.5 2017.48 3376.23 2015.75 3378.38 2015.75ZM3386.12 1961.5C3388.26 1961.5 3390 1963.23 3390 1965.37 3390 1967.51 3388.26 1969.25 3386.12 1969.25 3385.05 1969.25 3384.19 1968.38 3384.19 1967.31 3384.19 1966.24 3385.05 1965.37 3386.12 1965.37L3390 1965.37M3498.75 1969.25 3386.12 1969.25M3378.38 2015.75C3379.45 2015.75 3380.31 2016.62 3380.31 2017.69 3380.31 2018.76 3379.45 2019.62 3378.38 2019.62L3382.25 2019.62M3378.38 2023.5C3380.52 2023.5 3382.25 2021.76 3382.25 2019.62L3382.25 2015.75"
       stroke="#00B0F0"
       stroke-width="3.4375"
       stroke-linejoin="round"
       stroke-miterlimit="10"
       fill="none"
       fill-rule="evenodd"
       id="path38" /><text
       font-family="Calibri, Calibri_MSFontService, sans-serif"
       font-weight="400"
       font-size="55px"
       id="text38"
       x="3431.6379"
       y="2011.9995"
       style="stroke-width:1">7</text><path
       d="M3429.38 1970.5C3431.52 1970.5 3433.25 1968.77 3433.25 1966.62L3429.38 1966.62C3430.45 1966.62 3431.31 1965.76 3431.31 1964.69 3431.31 1963.62 3430.45 1962.75 3429.38 1962.75L3433.25 1962.75 3433.25 1912.38C3433.25 1910.23 3434.98 1908.5 3437.12 1908.5L3553.62 1908.5C3555.77 1908.5 3557.5 1910.23 3557.5 1912.38 3557.5 1914.52 3555.77 1916.25 3553.62 1916.25L3549.75 1916.25 3549.75 1966.62C3549.75 1968.77 3548.02 1970.5 3545.88 1970.5ZM3441 1912.38C3441 1914.52 3439.27 1916.25 3437.12 1916.25 3436.05 1916.25 3435.19 1915.38 3435.19 1914.31 3435.19 1913.24 3436.05 1912.37 3437.12 1912.37Z"
       fill="#FFFFFF"
       fill-rule="evenodd"
       id="path39" /><path
       d="M3441 1912.38C3441 1914.52 3439.27 1916.25 3437.12 1916.25 3436.05 1916.25 3435.19 1915.38 3435.19 1914.31 3435.19 1913.24 3436.05 1912.37 3437.12 1912.37ZM3433.25 1966.62C3433.25 1968.77 3431.52 1970.5 3429.38 1970.5 3427.23 1970.5 3425.5 1968.77 3425.5 1966.62 3425.5 1964.48 3427.23 1962.75 3429.38 1962.75 3430.45 1962.75 3431.31 1963.62 3431.31 1964.69 3431.31 1965.76 3430.45 1966.62 3429.38 1966.62Z"
       fill="#CDCDCD"
       fill-rule="evenodd"
       id="path40" /><path
       d="M3433.25 1962.75 3433.25 1912.38C3433.25 1910.23 3434.98 1908.5 3437.12 1908.5L3553.62 1908.5C3555.77 1908.5 3557.5 1910.23 3557.5 1912.38 3557.5 1914.52 3555.77 1916.25 3553.62 1916.25L3549.75 1916.25 3549.75 1966.62C3549.75 1968.77 3548.02 1970.5 3545.88 1970.5L3429.38 1970.5C3427.23 1970.5 3425.5 1968.77 3425.5 1966.62 3425.5 1964.48 3427.23 1962.75 3429.38 1962.75ZM3437.12 1908.5C3439.26 1908.5 3441 1910.23 3441 1912.38 3441 1914.52 3439.26 1916.25 3437.12 1916.25 3436.05 1916.25 3435.19 1915.38 3435.19 1914.31 3435.19 1913.24 3436.05 1912.37 3437.12 1912.37L3441 1912.38M3549.75 1916.25 3437.12 1916.25M3429.38 1962.75C3430.45 1962.75 3431.31 1963.62 3431.31 1964.69 3431.31 1965.76 3430.45 1966.62 3429.38 1966.62L3433.25 1966.62M3429.38 1970.5C3431.52 1970.5 3433.25 1968.77 3433.25 1966.62L3433.25 1962.75"
       stroke="#00B0F0"
       stroke-width="3.4375"
       stroke-linejoin="round"
       stroke-miterlimit="10"
       fill="none"
       fill-rule="evenodd"
       id="path41" /><text
       font-family="Calibri,Calibri_MSFontService,sans-serif"
       font-weight="400"
       font-size="55"
       transform="matrix(1 0 0 1 3465.57 1959)"
       id="text41">8</text><path
       d="M3373.42 1557.99 2948.44 1546.79 2948.56 1542.21 3373.54 1553.41ZM3369.26 1541.84 3396.39 1556.3 3368.54 1569.33Z"
       fill="#002060"
       id="path42" /><path
       d="M23.0274-0.46352 571.528 43.2551 571.164 47.824 22.6632 4.10532ZM26.3206 15.8915 0 0 28.5055-11.5216Z"
       fill="#C00000"
       transform="matrix(-1 0 0 1 3879.85 1731.5)"
       id="path43" /><path
       d="M22.0016 6.80835 147.759 59.9438 145.975 64.1657 20.2178 11.0303ZM19.98 23.369 0 0 30.6832-1.96264Z"
       fill="#0070C0"
       transform="matrix(-1 0 0 1 3440.37 1961.5)"
       id="path44" /><rect
       x="2534.5"
       y="1448.5"
       width="1416"
       height="640"
       stroke="#000000"
       stroke-width="3.4375"
       stroke-linejoin="round"
       stroke-miterlimit="10"
       fill="none"
       id="rect44" /></g></svg>
