<svg width="2500" height="2500" viewBox="0 0 192.756 192.756" xmlns="http://www.w3.org/2000/svg" xmlns:xlink="http://www.w3.org/1999/xlink" overflow="hidden"><g fill-rule="evenodd" clip-rule="evenodd"><path d="M0 0 192.756 0 192.756 192.756 0 192.756 0 0Z" fill="#FFFFFF" fill-opacity="0"/><path d="M96.707 157.324C130.719 157.324 158.563 129.752 158.563 95.74 158.563 61.729 129.592 34.399 96.707 34.429 62.695 34.461 34.666 61.729 34.666 95.74 34.666 129.752 62.695 157.324 96.707 157.324Z" fill="#FFFFFF"/><path d="M125.537 56.738C117.576 57.954 106.898 58.659 95.716 58.65 95.86 46.415 96.064 37.573 96.302 34.903 107.629 36.833 117.926 44.999 125.537 56.738Z" fill="#FFFFFF"/><path d="M138.826 100.709C127.299 102.467 111.846 103.488 95.663 103.473 95.644 86.801 95.724 70.717 95.871 58.191 107.042 58.201 117.71 57.496 125.669 56.282 133.459 68.298 138.436 84.06 138.826 100.709Z" fill="#C23C40"/><path d="M137.814 100.625C134.617 100.123 131.921 94.781 133.334 89.268 128.824 92.385 123.75 85.979 124.49 80.054 124.885 76.913 126.939 74.123 130.527 75.419 129.068 70.407 127.242 65.664 125.109 61.3 121.923 61.703 118.433 62.04 114.728 62.3 118.019 67.272 114.79 71.897 110.201 71.161 106.869 70.627 103.763 67.137 104.627 62.978 101.926 64.853 96.367 64.112 95.866 58.176 106.073 58.123 115.051 57.78 125.692 56.278L125.692 56.279C134.29 70.463 137.983 82.899 138.87 100.63 138.553 100.629 138.127 100.674 137.814 100.625ZM63.899 142.17C57.545 141.104 53.322 139.738 51.897 138.262 50.326 136.496 48.271 134.106 46.815 132.242 43.284 127.078 43.218 126.98 41.661 124.01 38.957 118.287 38.904 118.178 37.843 114.998 36.057 108.816 36.023 108.697 35.479 105.336 35.1036 102.092 34.8424 98.8355 34.696 95.573L34.749 92.903C34.642 95.516 40.951 97.996 51.866 99.828 51.842 100.697 51.83 101.566 51.83 102.435 51.857 118.514 56.435 132.428 63.899 142.17Z" fill="#FFFFFF"/><path d="M96.504 157.32C96.216 157.318 95.835 157.316 95.547 157.312 94.98 157.298 94.414 157.275 93.848 157.259 90.131 157.054 87.699 156.698 84.51 156.114 76.487 154.28 69.373 149.321 63.853 142.059 69.299 142.971 76.302 143.663 84.443 144.016 88.291 144.184 92.162 144.266 95.978 144.268 96.121 152.518 96.305 157.314 96.504 157.32Z" fill="#FFFFFF"/><path d="M95.976 144.27C92.1303 144.267 88.2851 144.183 84.443 144.018 76.312 143.663 69.315 142.975 63.872 142.065 56.476 132.331 51.944 118.465 51.918 102.452 51.917 101.751 51.925 101.052 51.941 100.354 59.357 101.592 68.886 102.532 79.964 103.012 85.205 103.242 90.478 103.354 95.673 103.356 95.674 104.055 95.676 104.754 95.676 105.458 95.703 121.471 95.814 135.033 95.976 144.27Z" fill="#C23C40"/><path d="M95.881 145.119C95.351 147.252 92.36 149.289 88.126 147.564 90.105 150.175 88.391 152.429 84.911 151.798 82.204 151.308 78.991 149.13 78.741 146.952 75.6901 146.727 72.6467 146.409 69.615 145.999 72.198 148.999 75.077 151.452 78.19 153.272 78.561 153.12 79.138 153.159 80.982 153.803 83.343 154.631 85.544 155.834 87.901 156.672L87.9 156.682C86.054 156.399 85.816 156.362 84.506 156.112 80.062 154.835 71.79 152.456 63.854 142.059L63.852 142.059 63.854 142.059C73.416 143.536 82.725 144.172 95.981 144.256 95.951 144.518 95.943 144.865 95.881 145.119Z" fill="#C23C40"/><path d="M63.853 142.061C55.338 129.868 51.987 118.192 51.898 100.418 56.71 102.006 58.034 109.035 56.797 112.988 61.376 111.222 67.128 119.133 65.112 124.426 64.184 126.864 61.775 127.541 59.252 126.072 60.614 130.691 62.383 134.914 64.496 138.652 67.732 139.099 71.368 139.482 75.348 139.785 72.153 135.849 74.715 132.629 78.977 132.847 82.635 133.035 87.479 136.077 86.442 140.232 89.743 138.744 95.329 139.966 95.982 144.281 91.972 144.25 85.913 144.205 78.149 143.67 73.36 143.338 68.638 142.434 63.853 142.061Z" fill="#FFFFFF"/><path d="M63.853 142.061C56.808 140.788 53.762 139.801 51.779 138.139 50.352 136.526 48.464 134.36 47.131 132.666 47.375 132.973 47.536 133.176 48.189 133.939 47.546 133.132 44.326 129.021 44.09 127.207 45.841 126.926 51.483 135.723 51.537 135.812 53.249 136.451 55.478 137.048 58.164 137.593 55.637 133.784 53.519 129.505 51.889 124.839 48.048 126.778 43.147 116.628 44.701 112.347 45.018 111.474 46.035 109.656 48.639 111.622 46.677 107.104 47.194 100.409 51.925 100.419 52.032 115.387 54.1 128.195 63.853 142.061Z" fill="#C23C40"/><path d="M138.553 111.309 138.477 111.196C138.747 108.44 138.883 105.6 138.877 102.686 138.877 102.006 138.869 101.325 138.852 100.645 138.882 100.643 138.912 100.638 138.942 100.631 139.034 104.195 138.904 107.761 138.553 111.309ZM106.049 156.59 106.012 156.598C122.981 153.961 136.059 135.953 138.477 111.196L138.553 111.309C136.1 135.993 123.016 153.946 106.047 156.59L106.049 156.59Z"/><path d="M126.527 149.57C122.338 151.724 121.465 152.172 116.98 153.855 115.662 154.287 113.896 154.839 112.56 155.22 121.193 152.894 128.857 147.956 134.914 141.093 133.627 143.95 132.744 145.583 128.23 148.581 127.668 148.921 127.099 149.25 126.525 149.569L126.527 149.569 126.527 149.57Z"/><path d="M128.23 148.582C131.943 146.014 133.513 144.496 134.916 141.094 143.789 131.039 149.213 116.842 149.187 100.635 149.187 99.955 149.175 99.274 149.156 98.596 151.959 97.858 154.213 97.049 155.801 96.183 155.822 96.86 155.836 97.539 155.836 98.221 155.869 119.967 144.85 138.545 128.23 148.582Z" fill="#F6D43C"/><path d="M109.695 132.637C105.588 128.52 105.588 128.52 95.716 119.168 95.694 114.852 95.679 110.264 95.671 105.457L95.669 103.414C101.02 103.42 106.293 103.312 111.367 103.102 111.375 103.78 111.379 104.461 111.381 105.143 111.396 115.484 110.785 124.82 109.695 132.637Z"/><path d="M99.133 157.266 98.742 157.284C97.89 157.305 97.502 157.319 97.146 157.319L96.502 157.321C96.144 157.309 95.834 142.061 95.715 119.169 104.95 127.909 105.915 128.823 109.694 132.638 107.6 147.654 103.734 157.066 99.133 157.266Z" fill="#F6D43C"/><path d="M102.055 157.076C101.567 157.115 100.912 157.166 100.422 157.199 100.035 157.22 99.522 157.248 99.133 157.265 103.731 157.068 107.596 147.669 109.69 132.673 114.149 137.357 116.114 139.646 118.27 143.153 114.07 151.441 108.43 156.506 102.055 157.076Z"/><path d="M118.27 143.154C116.145 139.818 114.856 138.05 109.69 132.674 110.784 124.85 111.397 115.502 111.381 105.143 111.379 104.463 111.375 103.782 111.367 103.102 116.449 102.889 121.332 102.575 125.908 102.17 125.918 102.848 125.926 103.529 125.926 104.211 125.951 120.111 123.047 133.721 118.27 143.154Z" fill="#F6D43C"/><path d="M119.51 150.723C120.287 148.282 120.221 146.84 118.287 143.118 123.055 133.686 125.951 120.091 125.926 104.212 125.926 103.53 125.918 102.849 125.908 102.171 127.623 102.019 129.295 101.853 130.918 101.675 133.186 104.351 136.012 107.679 138.477 111.196 136.754 128.84 129.615 143.057 119.51 150.723Z"/><path d="M106.012 156.598C105.553 156.662 104.942 156.752 104.481 156.813 103.036 156.987 103.036 156.987 102.29 157.055L102.056 157.076C108.441 156.506 114.089 151.426 118.288 143.117 119.954 146.445 120.491 147.963 119.511 150.722 115.441 153.812 110.888 155.839 106.011 156.597L106.012 156.597 106.012 156.598Z" fill="#F6D43C"/><path d="M112.561 155.221 111.073 155.6C108.594 156.157 108.594 156.157 107.251 156.393L106.05 156.59C118.089 154.713 128.171 145.133 133.89 130.908 135.47 135.119 135.968 137.09 134.908 141.103 128.852 147.963 121.189 152.895 112.561 155.221Z" fill="#F6D43C"/><path d="M111.072 155.6C108.593 156.157 108.593 156.157 107.25 156.393L106.049 156.59C110.895 155.834 115.428 153.828 119.485 150.774 118.069 152.879 117.104 153.809 112.559 155.221L111.072 155.6ZM134.906 141.104C135.752 137.575 135.722 135.606 133.888 130.909 137.142 122.811 138.984 113.212 138.968 102.673 138.966 101.993 138.958 101.312 138.941 100.632 142.839 100.034 146.285 99.353 149.156 98.597 149.176 99.275 149.187 99.956 149.187 100.636 149.213 116.846 143.783 131.047 134.906 141.104Z"/><path d="M126.527 149.57C127.081 149.262 127.63 148.944 128.173 148.617L127.546 148.99 126.527 149.57Z" fill="#F6D43C"/><path d="M156.123 98.059C156.158 120.155 144.725 139.01 127.576 148.975L127.547 148.991 128.174 148.618C144.824 138.589 155.869 119.991 155.836 98.222 155.836 97.54 155.822 96.861 155.801 96.184 155.899 96.129 155.994 96.077 156.086 96.022 156.109 96.697 156.121 97.377 156.123 98.059Z"/><path d="M133.816 130.902C131.636 126.463 130.16 124.099 125.173 117.972 125.671 113.628 125.933 109.025 125.925 104.21 125.925 103.528 125.917 102.847 125.907 102.169 130.591 101.753 134.944 101.241 138.85 100.644 138.868 101.324 138.875 102.005 138.875 102.685 138.895 113.217 137.061 122.809 133.816 130.902Z" fill="#F6D43C"/><path d="M125.166 118.021C121.6 113.927 119.811 111.873 111.369 103.101 116.142 102.861 119.914 102.673 125.906 102.138 125.918 102.827 125.926 103.517 125.926 104.21 125.934 109.044 125.67 113.665 125.166 118.022L125.166 118.021ZM51.916 100.408C51.8875 100.402 51.8588 100.396 51.83 100.392 51.912 96.769 52.221 93.191 52.744 89.684L52.809 89.825C52.2934 93.3309 51.9952 96.8653 51.916 100.408Z"/><path d="M52.808 89.826 52.743 89.685C56.519 64.299 71.336 42.732 89.883 36.12L89.804 36.155C71.305 42.823 56.542 64.425 52.808 89.826Z"/><path d="M89.803 36.154 89.882 36.119C92.0157 35.3542 94.2168 34.7923 96.456 34.441 94.189 34.7995 91.9613 35.3731 89.803 36.154Z"/><path d="M59.448 54.278C61.602 49.448 63.181 47.036 67.757 43.12 76.275 38.006 86.054 34.887 96.456 34.441 82.134 35.737 69.119 43.176 59.448 54.278Z" fill="#F6D43C"/><path d="M42.406 98.33C39.898 97.598 37.962 96.814 36.66 95.998 37.343 73.716 49.725 53.948 67.757 43.121 63.493 46.907 61.596 49.161 59.448 54.279 49.327 65.9 42.868 81.532 42.406 98.329L42.406 98.33Z"/><path d="M95.669 103.414C90.2743 103.411 84.8804 103.29 79.491 103.051 79.573 92.056 80.463 81.336 81.954 71.739 86.423 77.346 88.765 80.066 95.681 87.285 95.668 92.528 95.663 97.938 95.669 103.414ZM81.961 71.696C77.779 65.877 75.986 62.854 74.255 57.476 80 45.358 87.825 36.757 96.456 34.442 90.309 37.907 84.939 52.567 81.961 71.696Z" fill="#F6D43C"/><path d="M79.492 103.051C74.4959 102.833 69.506 102.49 64.527 102.022 64.784 85.494 68.463 69.698 74.256 57.478 76.025 62.635 77.455 65.558 81.962 71.697 80.468 81.304 79.575 92.042 79.493 103.05L79.493 103.051 79.492 103.051Z"/><path d="M64.526 102.021C62.8702 101.861 61.2161 101.684 59.564 101.49 57.501 98.326 54.933 94.391 52.808 89.826 55.449 71.851 63.617 55.779 74.72 45.554 73.24 49.636 72.944 52.058 74.233 57.522 68.452 69.737 64.784 85.515 64.526 102.021Z" fill="#F6D43C"/><path d="M74.233 57.522C73.125 52.495 73.031 49.932 74.72 45.554 81.148 39.634 88.56 35.675 96.456 34.442 87.813 36.759 79.98 45.38 74.233 57.522Z"/><path d="M58.575 68.975C57.674 62.991 57.671 59.87 59.458 54.269 69.127 43.172 82.139 35.737 96.456 34.442 93.043 35.014 92.428 35.117 89.882 36.12 76.676 40.829 65.36 53.121 58.575 68.975Z"/><path d="M74.759 45.471C76.835 41.876 78.199 40.14 83.407 37.406 87.6071 35.8475 91.9948 34.8509 96.456 34.442 88.579 35.668 81.182 39.596 74.759 45.471ZM51.829 100.393C48.137 99.772 44.972 99.079 42.406 98.331 42.868 81.526 49.33 65.891 59.458 54.27 57.883 59.476 57.514 62.482 58.575 68.976 54.516 78.459 52.08 89.218 51.829 100.393Z" fill="#F6D43C"/><path d="M67.815 43.086C72.334 39.83 74.874 38.288 81.917 36.137 86.681 35.0069 91.5608 34.438 96.457 34.442 86.077 34.886 76.321 37.992 67.815 43.086Z"/><path d="M36.66 95.998C35.367 95.187 34.702 94.342 34.729 93.482L34.833 91.34C36.61 64.419 56.091 42.277 81.916 36.136 76.088 37.985 72.841 39.359 67.814 43.085 49.75 53.905 37.343 73.693 36.66 96L36.66 95.998Z" fill="#F6D43C"/><path d="M64.526 102.021C59.842 101.57 55.614 101.025 51.915 100.408 52.164 89.241 54.594 78.49 58.639 69.009 60.202 75.232 61.465 78.549 65.861 85.931 65.0565 91.2584 64.6105 96.6338 64.526 102.021Z"/><path d="M64.525 102.051C64.6082 96.6358 65.0575 91.2325 65.87 85.878 69.651 91.504 71.974 94.824 79.492 103.051 74.338 102.793 70.615 102.604 64.525 102.051Z" fill="#F6D43C"/><path d="M83.407 37.406C86.841 36.016 89.808 34.818 96.456 34.442 91.9948 34.851 87.6071 35.8476 83.407 37.406ZM156.203 95.96C157.779 95.043 158.517 94.123 158.486 93.218 159.332 118.964 144.832 138.939 127.681 148.904L127.619 148.941 128.267 148.552C144.913 138.527 155.955 119.933 155.919 98.161 155.919 97.479 155.907 96.8 155.884 96.122 155.989 96.065 156.093 96.007 156.193 95.949 156.216 96.626 156.228 97.305 156.228 97.987L156.203 95.96Z"/><path d="M125.756 56.251 125.754 56.251 125.756 56.251C125.772 56.2478 125.789 56.2452 125.805 56.243L125.803 56.243 125.834 56.238C126.434 56.139 126.994 56.042 127.537 55.947 131.06 55.296 138.74 53.613 138.74 51.283 138.74 51.283 142.16 54.409 144.455 58.675 144.73 59.138 144.965 59.621 145.144 60.111 145.343 60.599 145.486 61.052 145.558 61.459 145.576 61.484 145.593 61.511 145.609 61.538 145.621 61.735 145.621 61.907 145.613 62.069 145.613 62.137 145.609 62.204 145.601 62.267 145.47 63.59 144.654 63.618 143.773 63.225 143.679 63.189 143.587 63.158 143.49 63.11 140.322 61.684 139.289 58.784 138.674 57.586 137.067 58.094 134.406 59.25 132.197 59.679 131.937 59.731 131.468 59.841 131.203 59.891 133.808 64.183 136.293 69.306 138.076 74.268 141.178 71.08 146.031 76.994 146.265 82.706 146.402 86.06 144.894 89.046 141.831 87.97 144.284 92.515 143.497 99.179 138.841 100.637 138.066 85.696 135.532 72.435 125.691 56.282L125.691 56.281 125.756 56.251ZM126.312 44.794C126.298 44.784 126.285 44.774 126.269 44.766L126.306 44.767C126.29 44.723 126.278 44.6779 126.269 44.632 126.312 44.573 126.374 44.493 126.417 44.436 126.484 44.4271 126.551 44.4195 126.618 44.413L126.606 44.397C126.606 44.397 127.053 42.519 134.127 47.404 122.104 38.019 109.908 35.351 102.682 34.645 103.448 34.87 104.024 35.095 104.457 35.31 104.836 35.497 105.103 35.674 105.295 35.838 105.305 35.837 105.315 35.835 105.324 35.832 106.201 35.93 106.996 36.082 107.705 36.258L107.707 36.258C107.963 36.347 108.223 36.441 108.482 36.538L108.58 36.575C109.079 36.763 109.573 36.9644 110.061 37.179 110.127 37.208 110.194 37.234 110.258 37.263 110.526 37.383 110.797 37.505 111.07 37.634L111.068 37.645C113.24 38.707 114.998 39.899 115.009 40.812 114.685 41.009 114.585 41.07 113.628 40.812 117.271 43.412 122.493 48.302 125.581 51.904 127.702 51.503 130.864 51.047 132.323 50.559 132.219 50.668 126.949 46.703 126.312 44.794Z" fill="#C23C40"/><path d="M138.705 51.328C137.24 49.9511 135.713 48.6417 134.129 47.404 131.266 45.425 129.488 44.557 128.387 44.223L128.401 44.209C128.401 44.209 124.872 43.074 126.866 45.773L126.876 45.763C128.407 47.793 132.237 50.651 132.327 50.56 130.868 51.048 127.706 51.504 125.585 51.905 122.497 48.303 117.274 43.413 113.632 40.813 114.589 41.071 114.689 41.01 115.013 40.813 115.001 39.9 113.243 38.708 111.072 37.646L111.074 37.635C110.801 37.506 110.529 37.384 110.262 37.264 110.198 37.235 110.131 37.209 110.065 37.18 109.576 36.9667 109.082 36.7654 108.584 36.576L108.486 36.539C108.226 36.441 107.966 36.348 107.711 36.259L107.709 36.259C106.926 36.0647 106.13 35.9224 105.328 35.833L105.299 35.839C105.348 35.882 105.383 35.922 105.426 35.964L105.192 35.851C105.237 35.847 105.276 35.841 105.299 35.839 105.043 35.6282 104.762 35.4508 104.461 35.311 104.027 35.096 103.451 34.871 102.686 34.646 101.252 34.5021 99.8128 34.423 98.372 34.409 97.546 34.378 96.881 34.371 96.739 34.422 96.728 34.426 96.726 34.432 96.724 34.438 96.5916 34.4416 96.4592 34.448 96.327 34.457L96.601 34.545C96.446 34.521 96.284 34.493 96.133 34.47 96.519 34.534 96.903 34.607 97.285 34.685 98.246 35.002 100.244 35.535 101.754 35.927 111.002 39.183 119.33 46.472 125.76 56.253 125.858 56.238 125.953 56.223 126.051 56.206 131.776 55.244 134.947 54.185 137.219 53.136L137.237 53.128C138.874 52.224 138.692 51.335 138.692 51.335L138.705 51.328Z" fill="#FFFFFF"/><path d="M125.691 56.278C125.691 56.278 125.691 56.279 125.691 56.278 115.652 41.483 106.423 37.062 98.025 34.893 98.242 34.956 98.459 35.023 98.677 35.095 98.284 34.99 97.886 34.885 97.534 34.794 97.4414 34.7641 97.3491 34.7334 97.257 34.702 97.511 34.764 97.769 34.829 98.025 34.894 97.7292 34.8089 97.4315 34.7309 97.132 34.66 97.0497 34.6335 96.968 34.6051 96.887 34.575 96.911 34.588 96.939 34.603 96.972 34.623 96.78 34.58 96.585 34.536 96.38 34.495 98.178 36.481 100.694 37.321 101.303 37.502 101.129 38.246 101.258 39.732 103.854 41.611 104.256 41.903 104.645 42.132 105.02 42.317 109.022 44.409 109.905 42.781 110.094 42.127 110.115 42.11 110.141 42.095 110.162 42.075 111.385 42.977 113.762 44.89 116.391 47.866 117.905 49.684 119.332 51.27 120.407 52.858 117.936 53.17 114.657 53.462 111.413 53.694 111.227 49.766 108.395 47.806 106.612 47.144 102.712 45.695 101.428 50.286 103.118 53.513 100.03 51.844 96.379 53.331 95.866 58.208 108.062 58.134 116.424 57.594 125.691 56.278L125.691 56.277 125.691 56.278Z" fill="#C23C40"/><path d="M95.681 87.285C89.626 80.933 86.379 77.369 81.954 71.739 84.931 52.59 90.304 37.911 96.455 34.442 96.059 38.947 95.752 60.989 95.681 87.285ZM22.339 49.945 22.693 50.12C22.094 51.374 22.375 52.069 23.564 52.658L28.582 55.148C30.886 56.291 32.629 58.984 30.629 63.018 28.868 66.567 25.939 67.383 23.283 66.064L17.857 63.373C16.667 62.784 16.315 63.025 15.671 64.28L15.317 64.105 17.686 59.33 18.039 59.504 17.956 59.672C17.449 60.693 17.507 61.277 18.583 61.812L23.75 64.374C26.258 65.62 28.491 64.898 29.865 62.128 30.907 60.028 31.094 57.459 27.934 55.892L23.604 53.744C21.821 52.86 21.366 52.981 20.526 54.487L20.173 54.312 22.339 49.945ZM43.813 43.793 28.292 44.766 35.097 50.499C36.24 51.463 36.691 51.409 37.826 50.061L38.128 50.313 35.027 53.993 34.725 53.739 34.779 53.676C35.608 52.693 35.542 52.096 34.813 51.479L27.009 44.904C26.447 45.054 25.973 45.36 25.49 45.902L25.187 45.649 27.288 43.158 41.371 42.25 35.058 36.931C34.091 36.114 33.675 36.254 32.575 37.495L32.274 37.242 35.4 33.53 35.702 33.784C34.7 34.973 34.693 35.4 35.31 35.923L44.162 43.381 43.813 43.793ZM51.362 37.118 47.484 40.337 47.233 40.035C48.182 39.165 48.178 38.737 47.29 37.667L41.646 30.869C40.93 30.006 40.429 30.019 39.496 30.713L39.244 30.41 43.122 27.19 43.374 27.493C42.369 28.328 42.203 28.843 43.091 29.912L48.707 36.678C49.49 37.621 50.01 37.728 51.112 36.813L51.362 37.118ZM59.002 32.363 49.444 24.957C48.336 24.091 47.964 23.949 46.872 24.588L46.673 24.249 51.594 21.364 51.793 21.704C50.168 22.705 49.994 23.31 50.816 23.934L58.735 30.064 57.231 21.016C57.134 20.4 57.031 19.979 56.885 19.727 56.571 19.19 55.996 19.238 54.78 19.951L54.582 19.612 58.731 17.179 58.932 17.519C58 18.064 57.77 18.777 57.99 20.138L59.894 31.837 59.002 32.363ZM74.239 20.198 73.866 20.326C73.228 18.99 72.802 18.959 71.998 19.237L68.684 20.38 70.125 24.558C70.435 25.459 70.829 25.52 71.556 25.27L74.576 24.228C75.949 23.755 76.178 23.083 76.085 21.228L76.439 21.107 77.133 24.136 66.721 27.727 66.591 27.354 67.141 27.166C68.708 26.625 68.835 26.098 68.43 24.922L65.576 16.649C65.197 15.55 64.781 15.167 63.467 15.62L63.035 15.769 62.906 15.396 72.319 12.151 73.415 14.822 73.062 14.945C72.232 13.365 71.621 13.181 70.915 13.424L66.777 14.851 68.441 19.676 71.951 18.466C72.658 18.223 72.876 17.773 72.581 16.602L72.954 16.474 74.239 20.198ZM82.107 10.172C82.472 10.086 82.741 10.055 83.132 10.008 86.304 9.632 87.345 11.011 87.573 12.926 87.867 15.396 86.479 16.545 84.193 16.816 83.718 16.873 83.413 16.929 82.911 16.927L82.107 10.172ZM82.957 17.32C83.29 17.301 83.56 17.29 84.013 17.236 84.569 17.17 84.897 17.11 85.409 17.028 85.943 17.299 86.734 17.81 87.749 18.609L89.269 19.807C91.32 21.422 92.341 22.094 95.926 21.501L95.882 21.129C94.284 21.214 92.937 20.602 91.577 19.533L89.757 18.099C88.674 17.245 87.988 16.742 87.153 16.235 88.783 15.54 89.68 14.116 89.496 12.572 89.246 10.471 87.35 9.109 83.54 9.563 82.6738 9.66055 81.8108 9.78394 80.952 9.933 80.113 10.075 78.867 10.307 78.371 10.365L78.418 10.757 78.872 10.704C80.066 10.562 80.46 10.891 80.612 12.167L81.643 20.839C81.809 22.218 81.414 22.6 80.199 22.744L79.848 22.786 79.895 23.178 85.724 22.484 85.677 22.091 85.204 22.148C84.05 22.285 83.519 22.036 83.372 20.8L82.957 17.32ZM98.896 18.509C99.185 20.384 100.55 21.572 102.164 21.698 103.549 21.807 105.08 21.114 105.207 19.481 105.441 16.502 98.875 15.075 99.156 11.455 99.291 9.739 100.961 8.579 103.07 8.745 104.806 8.881 105.121 9.425 105.843 9.481 106.009 9.495 106.093 9.46 106.23 9.305L106.562 9.33 106.708 11.983 106.356 11.956C105.893 10.422 104.645 9.368 103.217 9.256 101.852 9.15 100.84 9.861 100.748 11.018 100.519 13.956 107.096 15.26 106.799 19.064 106.641 21.09 104.723 22.46 102.303 22.271 101.168 22.182 99.762 21.51 99.473 21.488 99.306 21.4768 99.1446 21.55 99.043 21.683L98.689 21.657 98.501 18.479 98.896 18.509ZM114.846 23.95 109.92 22.878 110.004 22.493C111.275 22.705 111.608 22.439 111.904 21.08L113.785 12.447C114.023 11.352 113.705 10.965 112.582 10.656L112.668 10.271 117.592 11.343 117.508 11.729C116.231 11.451 115.723 11.637 115.426 12.996L113.557 21.589C113.293 22.786 113.532 23.261 114.93 23.566L114.846 23.95ZM125.301 25.438C124.889 26.479 125.09 26.984 126.268 27.45L126.981 27.733 126.835 28.1 120.761 25.69 120.907 25.324 121.62 25.607C122.796 26.072 123.288 25.845 123.702 24.803L127.479 15.278 124.124 13.947C123.351 13.641 122.829 13.947 121.866 15.529L121.52 15.392 123.065 12.389 123.432 12.535C123.407 12.66 123.453 12.767 123.553 12.851 123.653 12.936 123.78 13.009 123.916 13.061L133.189 16.738C133.459 16.845 133.771 16.903 133.902 16.686L134.267 16.832 133.339 20.077 132.989 19.94C133.374 18.128 133.202 17.548 132.432 17.242L129.077 15.912 125.301 25.438ZM146.42 26.79C147.606 26.21 147.475 25.698 146.369 24.961L146.588 24.633 150.486 27.237 150.267 27.566C149.037 26.868 148.224 26.999 147.201 27.487L141.1 30.42 139.371 33.007C138.76 33.921 138.846 34.502 139.898 35.205L140.121 35.355 139.902 35.681 135.162 32.513 135.379 32.186 135.707 32.405C136.777 33.12 137.352 32.929 137.916 32.085L139.541 29.653 139.676 22.806C139.719 20.914 139.483 20.408 138.385 19.623L138.604 19.296 143.192 22.361 142.973 22.688C141.625 21.789 141.321 22.059 141.309 23.198L141.223 29.302 146.42 26.79ZM163.555 51.491C161.213 53.279 157.858 53.803 155.807 51.115 153.784 48.46 154.362 44.704 157.448 42.351 159.427 40.842 163.01 39.934 165.225 42.837 167.299 45.558 166.623 49.152 163.555 51.491ZM165.281 52.627C168.25 50.362 168.34 46.068 165.963 42.952 163.283 39.438 159.035 38.689 155.752 41.191 152.668 43.545 152.666 47.85 155.131 51.082 157.57 54.283 161.951 55.168 165.281 52.627ZM169.633 65.59 169.481 65.272C170.549 64.715 170.698 64.163 170.27 63.263L168.618 59.801 164.516 61.757C163.469 62.257 163.184 62.67 163.852 64.073L163.497 64.242 161.327 59.693 161.682 59.524C162.311 60.649 162.653 60.739 164.168 60.016L171.508 56.513C172.705 55.942 173.205 55.59 172.598 54.271L172.953 54.101 176.955 62.489 174.746 63.542 174.594 63.224C175.67 62.688 175.942 62.099 175.387 60.938L173.69 57.382 169.292 59.48 171.062 63.187C171.392 63.879 171.945 64.03 172.777 63.701L172.929 64.019 169.633 65.59ZM24.432 146.775 31.897 133.007 31.867 132.966 21.792 139.39C20.651 140.119 21.008 141.105 21.665 142.101L21.258 142.398 18.021 137.935 18.427 137.64C19.565 139.206 20.048 139.15 22.077 137.841L30.796 132.302C32.274 131.361 32.629 131.036 31.751 129.646L32.136 129.363 34.486 132.603 27.424 145.617 41.971 142.924 44.26 146.076 43.874 146.355C43.025 145.367 42.708 144.976 42.011 145.548L32.79 153.284C30.91 154.845 31.035 155.016 32.171 156.583L31.763 156.878 27.763 151.364 28.17 151.067C28.902 152.077 29.896 152.862 30.971 151.95L40.13 144.356 40.099 144.313 24.79 147.266 24.432 146.775ZM50.689 161.115 46.996 158.398 52.471 154.759 50.689 161.115ZM50.362 162.322 48.934 167.261C48.862 167.536 48.776 167.966 48.525 168.308 48.086 168.906 47.543 168.704 46.326 167.81L45.77 167.402 45.473 167.806 51.344 172.126 51.644 171.718C50.575 170.933 50.285 170.39 50.688 168.945L54.941 153.814 53.084 152.447 52.931 153.058 41.242 160.812C39.192 162.167 38.784 162.228 37.381 161.23L37.082 161.634 42.015 165.263 42.312 164.857 41.971 164.605C40.797 163.744 40.398 163.121 40.823 162.543 41.043 162.246 41.791 161.809 42.24 161.514L45.943 159.073 50.362 162.322ZM67.366 161.947C67.833 162.058 68.158 162.172 68.633 162.34 72.48 163.705 72.889 165.877 72.066 168.199 71.003 171.195 68.763 171.722 65.99 170.74 65.415 170.537 65.032 170.428 64.459 170.14L67.366 161.947ZM64.291 170.615C64.681 170.783 64.997 170.922 65.547 171.117 66.221 171.357 66.631 171.472 67.263 171.668 67.721 172.281 68.338 173.316 69.048 174.807L70.112 177.039C71.547 180.051 72.334 181.398 76.777 182.75L76.936 182.299C75.057 181.492 73.861 180.028 72.911 178.031L71.636 175.357C70.879 173.767 70.378 172.802 69.711 171.75 71.972 171.877 73.805 170.756 74.468 168.883 75.374 166.334 73.973 163.699 69.352 162.061 67.728 161.487 67.22 161.332 66.178 161.02 65.136 160.708 63.577 160.266 62.977 160.053L62.809 160.528 63.359 160.723C64.807 161.237 65.073 161.836 64.524 163.385L60.793 173.903C60.199 175.577 59.533 175.79 58.059 175.266L57.636 175.116 57.467 175.591 64.536 178.099 64.705 177.624 64.13 177.421C62.732 176.923 62.265 176.337 62.797 174.839L64.291 170.615ZM94.359 170.057C95.329 168.676 94.865 168.184 93.174 168.039L93.217 167.537 99.185 168.047 99.142 168.549C97.335 168.528 96.509 169.176 95.663 170.354L90.646 177.401 90.309 181.362C90.189 182.762 90.643 183.36 92.256 183.497L92.598 183.526 92.556 184.028 85.294 183.409 85.336 182.907 85.838 182.95C87.475 183.089 88.002 182.522 88.112 181.229L88.429 177.504 84.354 169.762C83.234 167.619 82.657 167.198 80.946 166.998L80.989 166.498 88.013 167.096 87.97 167.596C85.91 167.422 85.736 167.912 86.425 169.194L90.094 176.077 94.359 170.057ZM116.389 181.965 104.707 183.938 104.623 183.442 105.484 183.296C106.685 183.093 107.064 182.626 106.839 181.294L104.884 169.716C104.65 168.331 104.134 167.827 102.489 168.105L102.122 168.167 102.038 167.671 109.747 166.368 109.831 166.864 108.864 167.028C107.165 167.315 106.753 167.573 107.026 169.192L109.061 181.241C109.18 181.946 109.512 182.159 110.27 182.03L114.11 181.384C115.653 181.122 116.022 180.443 117.284 177.89L117.755 177.81 116.389 181.965ZM129.039 168.723 124.807 170.491 124.506 163.925 129.039 168.723ZM129.904 169.625 133.402 173.393C133.603 173.596 133.925 173.891 134.09 174.282 134.375 174.968 133.924 175.329 132.529 175.911L131.894 176.177 132.087 176.642 138.812 173.833 138.619 173.368C137.396 173.878 136.781 173.848 135.75 172.757L124.969 161.319 122.84 162.208 123.285 162.653 123.912 176.667C124.017 179.122 123.863 179.503 122.283 180.192L122.478 180.657 128.124 178.296 127.933 177.833 127.54 177.995C126.194 178.557 125.456 178.579 125.181 177.919 125.038 177.575 125.048 176.71 125.027 176.173L124.841 171.741 129.904 169.625ZM158.576 159.352 138.842 157.024 146.084 165.79C147.299 167.261 147.879 167.296 149.615 165.862L149.937 166.249 145.195 170.165 144.877 169.778 144.957 169.71C146.225 168.665 146.279 167.898 145.502 166.958L137.195 156.905C136.457 156.967 135.789 157.241 135.058 157.811L134.738 157.424 137.945 154.772 155.857 156.852 149.138 148.721C148.107 147.475 147.554 147.553 145.886 148.864L145.564 148.477 150.347 144.526 150.665 144.913C149.134 146.181 149.026 146.716 149.685 147.513L159.107 158.913 158.576 159.352ZM154.699 138.949C154.849 138.668 155.172 138.023 155.761 137.111 157.775 133.994 159.575 132.918 161.261 132.554 163.423 132.089 165.55 132.802 167.197 133.866 169.49 135.348 170.543 137.479 170.812 138.821 171.3 141.094 170.917 142.614 168.988 145.596 167.853 147.354 167.498 147.219 166.586 146.629L154.699 138.949ZM164.99 148.221C166.281 149.055 166.256 149.828 165.48 151.03L165.234 151.407 165.658 151.68 170.262 144.557C173.901 138.926 171.557 133.717 168.194 131.545 164.522 129.172 159.856 129.846 156.057 135.723 155.253 136.971 154.47 138.232 153.707 139.506 153.067 140.577 152.435 141.652 151.812 142.733L152.236 143.004 152.523 142.561C153.371 141.247 153.972 141.098 155.418 142.034L164.99 148.221ZM11.588 90.438 11.588 101.793C11.588 102.381 11.705 102.537 12.313 102.537L13.41 102.537 13.41 102.896 8.49 102.896 8.49 102.537 9.547 102.537C10.175 102.537 10.292 102.361 10.292 101.773L10.292 92.002C9.667 92.551 8.568 93.276 7.844 93.608L7.687 93.334C8.823 92.57 10.447 91.102 10.911 90.437L11.588 90.437 11.588 90.438ZM22.919 100.127C22.919 101.654 21.798 102.828 20.325 102.828 18.831 102.828 17.73 101.596 17.73 99.93 17.73 98.659 18.398 97.68 19.735 96.955 22.015 97.992 22.919 98.814 22.919 100.127ZM23.776 93.258C23.776 91.693 22.203 90.44 20.24 90.44 18.305 90.44 16.685 91.889 16.685 93.611 16.685 94.94 17.526 95.938 19.358 96.76 17.437 97.524 16.505 98.6 16.505 99.971 16.505 101.752 18.181 103.182 20.303 103.182 22.486 103.182 24.171 101.616 24.171 99.578 24.171 98.07 23.291 97.033 21.228 96.115 22.95 95.429 23.776 94.51 23.776 93.258ZM22.594 93.24C22.594 94.353 22.05 95.255 20.958 95.938 18.422 94.862 17.838 94.081 17.838 93.003 17.838 91.773 18.89 90.794 20.236 90.794 21.602 90.794 22.594 91.83 22.594 93.24ZM168.697 91.841 173.33 91.841C173.684 91.841 173.801 91.762 173.898 91.59L174.271 91.59 174.054 93.102 169.107 93.102 168.949 96.611C169.556 96.281 170.26 96.127 171.062 96.127 173.251 96.127 175.074 97.955 175.074 100.162 175.074 102.535 173.095 104.338 170.474 104.338 168.91 104.338 167.619 103.791 167.619 103.106 167.619 102.77 167.914 102.495 168.265 102.495 169.322 102.495 169.693 103.87 170.925 103.87 172.372 103.87 173.605 102.358 173.605 100.575 173.605 98.77 172.373 97.425 170.691 97.425 169.966 97.425 169.205 97.71 168.619 98.208L168.424 98.073 168.697 91.841ZM183.6 100.561C183.6 102.778 182.659 104.014 181.289 104.014 180.053 104.014 178.623 102.934 178.623 99.639 178.623 98.971 178.662 98.696 178.723 98.422 179.916 97.459 180.797 97.244 181.309 97.244 182.621 97.244 183.6 98.459 183.6 100.561ZM183.717 91.59C179.623 92.744 177.155 95.621 177.155 99.246 177.155 102.246 178.841 104.338 181.249 104.338 183.347 104.338 185.071 102.541 185.071 100.383 185.071 98.383 183.522 96.776 181.602 96.776 180.641 96.776 179.879 97.087 178.821 97.911 179.251 95.052 180.878 93.133 183.932 91.878L183.717 91.59Z"/></g></svg>