<?xml version="1.0" encoding="UTF-8" standalone="no"?>
<svg
   width="717"
   height="411"
   xml:space="preserve"
   overflow="hidden"
   version="1.1"
   id="svg4"
   sodipodi:docname="LAfD_99.svg"
   inkscape:version="1.3.2 (091e20e, 2023-11-25, custom)"
   xmlns:inkscape="http://www.inkscape.org/namespaces/inkscape"
   xmlns:sodipodi="http://sodipodi.sourceforge.net/DTD/sodipodi-0.dtd"
   xmlns="http://www.w3.org/2000/svg"
   xmlns:svg="http://www.w3.org/2000/svg"><defs
     id="defs4" /><sodipodi:namedview
     id="namedview4"
     pagecolor="#ffffff"
     bordercolor="#000000"
     borderopacity="0.25"
     inkscape:showpageshadow="2"
     inkscape:pageopacity="0.0"
     inkscape:pagecheckerboard="0"
     inkscape:deskcolor="#d1d1d1"
     inkscape:zoom="1.9567643"
     inkscape:cx="358.5"
     inkscape:cy="274.43264"
     inkscape:window-width="1920"
     inkscape:window-height="1002"
     inkscape:window-x="-8"
     inkscape:window-y="-8"
     inkscape:window-maximized="1"
     inkscape:current-layer="g4" /><g
     transform="translate(-1431 -1624)"
     id="g4"><path
       d="m 37.041992,-14.995117 q 0,3.606933 -1.256347,6.5249022 -1.256348,2.8774414 -3.606934,4.9443359 -2.350586,2.0668945 -5.79541,3.20166015 -3.444824,1.09423828 -7.78125,1.09423828 -2.634278,0 -4.944336,-0.44580078 Q 11.388184,-0.08105469 9.6049805,-0.6484375 7.8217773,-1.2563477 6.6464844,-1.8642578 5.4711914,-2.5126953 5.1469727,-2.7963867 4.8632812,-3.0800781 4.7011719,-3.3637695 4.5390625,-3.6474609 4.4174805,-4.0527344 4.2958984,-4.4580078 4.2148437,-5.0253906 4.1743164,-5.6333008 4.1743164,-6.484375 q 0,-1.4589844 0.2836914,-2.0263672 0.2836914,-0.5673828 0.8105469,-0.5673828 0.3647461,0 1.418457,0.6484375 1.0942383,0.6484375 2.7558594,1.418457 1.7021489,0.7294922 3.9311519,1.3779297 2.269532,0.6484375 5.025391,0.6484375 2.674805,0 4.701172,-0.6889648 2.026367,-0.6889649 3.404297,-1.9453125 1.377929,-1.2563477 2.066894,-2.9584964 0.688965,-1.742676 0.688965,-3.769043 0,-2.229004 -0.891601,-4.012207 -0.851075,-1.783203 -2.553223,-3.080078 -1.661621,-1.296875 -4.133789,-1.98584 -2.431641,-0.688965 -5.552246,-0.688965 H 11.14502 q -0.324219,0 -0.648438,-0.121582 -0.283691,-0.162109 -0.5268554,-0.486328 -0.2026368,-0.324218 -0.3647461,-0.851074 -0.1215821,-0.526855 -0.1215821,-1.37793 0,-0.770019 0.1215821,-1.256347 0.121582,-0.526856 0.3242187,-0.810547 0.2431638,-0.324219 0.5268558,-0.445801 0.283691,-0.162109 0.648437,-0.162109 h 4.57959 q 2.674805,0 4.782227,-0.688965 2.147949,-0.688965 3.606933,-1.98584 1.499512,-1.296875 2.269531,-3.080078 0.810547,-1.823731 0.810547,-4.052734 0,-1.621094 -0.526855,-3.080079 -0.526856,-1.499511 -1.580567,-2.59375 -1.053711,-1.094238 -2.715332,-1.702148 -1.621093,-0.648438 -3.769043,-0.648438 -2.350586,0 -4.336425,0.729493 -1.945313,0.688965 -3.485352,1.499511 -1.540039,0.810547 -2.5532226,1.540039 -1.0131836,0.688965 -1.418457,0.688965 -0.2836914,0 -0.5268555,-0.08105 -0.2026367,-0.121582 -0.3647461,-0.405274 -0.121582,-0.324219 -0.2026367,-0.851074 -0.040527,-0.567383 -0.040527,-1.458984 0,-0.607911 0.040527,-1.053711 0.040527,-0.486328 0.1621094,-0.810547 0.121582,-0.364746 0.2836914,-0.648438 0.1621094,-0.283691 0.5268555,-0.648437 0.4052734,-0.405274 1.5805664,-1.134766 1.175293,-0.729492 2.8774412,-1.418457 1.742676,-0.729492 3.97168,-1.21582 2.269531,-0.486328 4.863281,-0.486328 3.647461,0 6.40332,0.932129 2.75586,0.932128 4.57959,2.634277 1.864258,1.702148 2.75586,4.093262 0.932129,2.350586 0.932129,5.228027 0,2.472168 -0.648438,4.620117 -0.648437,2.107422 -1.904785,3.769043 -1.256348,1.621094 -3.080078,2.796387 -1.823731,1.134765 -4.214844,1.580566 v 0.08105 q 2.715332,0.283691 4.944336,1.37793 2.269531,1.053711 3.890625,2.674804 1.621094,1.621094 2.512695,3.809571 0.932129,2.147949 0.932129,4.620117 z m 19.858399,10.5776365 q 0,2.8774414 -0.972657,3.85009769 -0.932129,0.9321289 -3.444824,0.9321289 -2.43164,0 -3.363769,-0.9321289 -0.932129,-0.93212889 -0.932129,-3.72851559 0,-2.8774414 0.932129,-3.8095704 0.972656,-0.9726562 3.485351,-0.9726562 2.431641,0 3.36377,0.9321289 0.932129,0.9321289 0.932129,3.7285156 z"
       id="text1"
       style="font-size:83px;font-family:Calibri, Calibri_MSFontService, sans-serif"
       transform="matrix(1 0 0 1 1480.51 1894)"
       aria-label="3." /><path
       d="M1812.38 1998.5C1814.52 1998.5 1816.25 1996.77 1816.25 1994.63L1812.38 1994.63C1813.45 1994.63 1814.31 1993.76 1814.31 1992.69 1814.31 1991.62 1813.45 1990.75 1812.38 1990.75L1816.25 1990.75 1816.25 1940.37C1816.25 1938.23 1817.98 1936.5 1820.13 1936.5L1936.62 1936.5C1938.77 1936.5 1940.5 1938.23 1940.5 1940.37 1940.5 1942.51 1938.77 1944.25 1936.62 1944.25L1932.75 1944.25 1932.75 1994.63C1932.75 1996.77 1931.02 1998.5 1928.88 1998.5ZM1824 1940.37C1824 1942.51 1822.27 1944.25 1820.13 1944.25 1819.05 1944.25 1818.19 1943.38 1818.19 1942.31 1818.19 1941.24 1819.05 1940.37 1820.13 1940.37Z"
       fill="#FFFFFF"
       fill-rule="evenodd"
       id="path1" /><path
       d="M1824 1940.37C1824 1942.51 1822.27 1944.25 1820.13 1944.25 1819.05 1944.25 1818.19 1943.38 1818.19 1942.31 1818.19 1941.24 1819.05 1940.37 1820.13 1940.37ZM1816.25 1994.63C1816.25 1996.77 1814.52 1998.5 1812.38 1998.5 1810.23 1998.5 1808.5 1996.77 1808.5 1994.63 1808.5 1992.48 1810.23 1990.75 1812.38 1990.75 1813.45 1990.75 1814.31 1991.62 1814.31 1992.69 1814.31 1993.76 1813.45 1994.63 1812.38 1994.63Z"
       fill="#CDCDCD"
       fill-rule="evenodd"
       id="path2" /><path
       d="M1816.25 1990.75 1816.25 1940.37C1816.25 1938.23 1817.98 1936.5 1820.13 1936.5L1936.62 1936.5C1938.77 1936.5 1940.5 1938.23 1940.5 1940.37 1940.5 1942.51 1938.77 1944.25 1936.62 1944.25L1932.75 1944.25 1932.75 1994.63C1932.75 1996.77 1931.02 1998.5 1928.88 1998.5L1812.38 1998.5C1810.23 1998.5 1808.5 1996.77 1808.5 1994.63 1808.5 1992.48 1810.23 1990.75 1812.38 1990.75ZM1820.13 1936.5C1822.27 1936.5 1824 1938.23 1824 1940.37 1824 1942.51 1822.27 1944.25 1820.13 1944.25 1819.05 1944.25 1818.19 1943.38 1818.19 1942.31 1818.19 1941.24 1819.05 1940.37 1820.13 1940.37L1824 1940.37M1932.75 1944.25 1820.13 1944.25M1812.38 1990.75C1813.45 1990.75 1814.31 1991.62 1814.31 1992.69 1814.31 1993.76 1813.45 1994.63 1812.38 1994.63L1816.25 1994.63M1812.38 1998.5C1814.52 1998.5 1816.25 1996.77 1816.25 1994.63L1816.25 1990.75"
       stroke="#7030A0"
       stroke-width="3.4375"
       stroke-linejoin="round"
       stroke-miterlimit="10"
       fill="none"
       fill-rule="evenodd"
       id="path3" /><path
       d="m 24.89502,-1.8261719 q 0,0.5102539 -0.08057,0.85937502 -0.08057,0.3491211 -0.214844,0.56396485 -0.134277,0.21484375 -0.322265,0.32226562 Q 24.116211,0 23.928223,0 H 5.7739258 Q 5.5859375,0 5.4248047,-0.08056641 5.2636719,-0.18798828 5.1025391,-0.40283203 4.9682617,-0.61767578 4.8876953,-0.96679688 4.8071289,-1.315918 4.8071289,-1.8261719 q 0,-0.4833984 0.080566,-0.8325195 0.080566,-0.3491211 0.1879883,-0.5639649 0.1342773,-0.2416992 0.2954101,-0.349121 0.1879883,-0.1342774 0.4028321,-0.1342774 H 13.024902 V -30.131836 l -6.7138668,4.001465 q -0.510254,0.268555 -0.8325196,0.322266 -0.2954101,0.05371 -0.4833984,-0.107422 -0.1879883,-0.187989 -0.2685547,-0.590821 -0.053711,-0.402832 -0.053711,-1.020507 0,-0.456543 0.026855,-0.778809 0.053711,-0.322266 0.1342774,-0.537109 0.080566,-0.214844 0.2148437,-0.375977 0.1611328,-0.161133 0.4028321,-0.322266 L 13.45459,-34.67041 q 0.107422,-0.08057 0.268555,-0.134277 0.161132,-0.05371 0.402832,-0.107422 0.241699,-0.05371 0.563964,-0.05371 0.322266,-0.02686 0.805664,-0.02686 0.644532,0 1.074219,0.05371 0.429688,0.05371 0.671387,0.161133 0.241699,0.08057 0.322266,0.241699 0.08057,0.134278 0.08057,0.29541 v 30.5346683 h 6.28418 q 0.214843,0 0.402832,0.1342774 0.187988,0.1074218 0.29541,0.349121 0.134277,0.2148438 0.187988,0.5639649 0.08057,0.3491211 0.08057,0.8325195 z"
       id="text3"
       style="font-size:55px;font-family:Calibri, Calibri_MSFontService, sans-serif"
       transform="matrix(1 0 0 1 1848.99 1987)"
       aria-label="1" /><path
       d="M1.85311-1.34822 259.733 353.103 256.027 355.8-1.85311 1.34822ZM266.302 342.656 271.362 372.983 244.065 358.835Z"
       fill="#4472C4"
       transform="matrix(-1 0 0 1 2145.86 1625.5)"
       id="path4" /></g></svg>
