<?xml version="1.0" encoding="UTF-8" standalone="no"?>
<svg
   width="1062"
   height="748"
   xml:space="preserve"
   overflow="hidden"
   version="1.1"
   id="svg9"
   sodipodi:docname="LAfD_8.svg"
   inkscape:version="1.3.2 (091e20e, 2023-11-25, custom)"
   xmlns:inkscape="http://www.inkscape.org/namespaces/inkscape"
   xmlns:sodipodi="http://sodipodi.sourceforge.net/DTD/sodipodi-0.dtd"
   xmlns="http://www.w3.org/2000/svg"
   xmlns:svg="http://www.w3.org/2000/svg"><defs
     id="defs9" /><sodipodi:namedview
     id="namedview9"
     pagecolor="#ffffff"
     bordercolor="#000000"
     borderopacity="0.25"
     inkscape:showpageshadow="2"
     inkscape:pageopacity="0.0"
     inkscape:pagecheckerboard="0"
     inkscape:deskcolor="#d1d1d1"
     inkscape:zoom="1.0775401"
     inkscape:cx="531.30273"
     inkscape:cy="374"
     inkscape:window-width="1920"
     inkscape:window-height="1002"
     inkscape:window-x="-8"
     inkscape:window-y="-8"
     inkscape:window-maximized="1"
     inkscape:current-layer="g9" /><g
     transform="translate(-1434 -899)"
     id="g9"><path
       d="M1839.62 1625.5C1850.19 1625.5 1858.75 1616.94 1858.75 1606.38L1839.62 1606.38C1844.91 1606.38 1849.19 1602.09 1849.19 1596.81 1849.19 1591.53 1844.91 1587.25 1839.62 1587.25L1858.75 1587.25 1858.75 1338.62C1858.75 1328.06 1867.31 1319.5 1877.87 1319.5L2452.38 1319.5C2462.94 1319.5 2471.5 1328.06 2471.5 1338.62 2471.5 1349.19 2462.94 1357.75 2452.38 1357.75L2433.25 1357.75 2433.25 1606.38C2433.25 1616.94 2424.69 1625.5 2414.13 1625.5ZM1897 1338.62C1897 1349.19 1888.44 1357.75 1877.88 1357.75 1872.59 1357.75 1868.31 1353.47 1868.31 1348.19 1868.31 1342.91 1872.59 1338.62 1877.88 1338.62Z"
       fill="#FFFFFF"
       fill-rule="evenodd"
       id="path1" /><path
       d="M1897 1338.62C1897 1349.19 1888.44 1357.75 1877.88 1357.75 1872.59 1357.75 1868.31 1353.47 1868.31 1348.19 1868.31 1342.91 1872.59 1338.62 1877.88 1338.62ZM1858.75 1606.38C1858.75 1616.94 1850.19 1625.5 1839.62 1625.5 1829.06 1625.5 1820.5 1616.94 1820.5 1606.38 1820.5 1595.81 1829.06 1587.25 1839.62 1587.25 1844.91 1587.25 1849.19 1591.53 1849.19 1596.81 1849.19 1602.09 1844.91 1606.38 1839.62 1606.38Z"
       fill="#CDCDCD"
       fill-rule="evenodd"
       id="path2" /><path
       d="M1858.75 1587.25 1858.75 1338.62C1858.75 1328.06 1867.31 1319.5 1877.87 1319.5L2452.38 1319.5C2462.94 1319.5 2471.5 1328.06 2471.5 1338.62 2471.5 1349.19 2462.94 1357.75 2452.38 1357.75L2433.25 1357.75 2433.25 1606.38C2433.25 1616.94 2424.69 1625.5 2414.13 1625.5L1839.62 1625.5C1829.06 1625.5 1820.5 1616.94 1820.5 1606.38 1820.5 1595.81 1829.06 1587.25 1839.62 1587.25ZM1877.87 1319.5C1888.44 1319.5 1897 1328.06 1897 1338.62 1897 1349.19 1888.44 1357.75 1877.87 1357.75 1872.59 1357.75 1868.31 1353.47 1868.31 1348.19 1868.31 1342.91 1872.59 1338.62 1877.87 1338.62L1897 1338.62M2433.25 1357.75 1877.87 1357.75M1839.62 1587.25C1844.91 1587.25 1849.19 1591.53 1849.19 1596.81 1849.19 1602.09 1844.91 1606.38 1839.62 1606.38L1858.75 1606.38M1839.62 1625.5C1850.19 1625.5 1858.75 1616.94 1858.75 1606.38L1858.75 1587.25"
       stroke="#000000"
       stroke-width="3.4375"
       stroke-linejoin="round"
       stroke-miterlimit="10"
       fill="none"
       fill-rule="evenodd"
       id="path3" /><text
       font-family="Calibri,Calibri_MSFontService,sans-serif"
       font-weight="400"
       font-size="55"
       transform="matrix(1 0 0 1 1891.19 1400)"
       id="text3">1. Grasp attempt id;</text><text
       font-family="Calibri, Calibri_MSFontService, sans-serif"
       font-weight="400"
       font-size="55px"
       transform="translate(1891.19,1466)"
       id="text4">2. Gripper-Object</text><text
       font-family="Calibri, Calibri_MSFontService, sans-serif"
       font-weight="400"
       font-size="55px"
       transform="translate(2115.77,1466)"
       id="text5" /><text
       font-family="Calibri, Calibri_MSFontService, sans-serif"
       font-weight="400"
       font-size="55px"
       transform="translate(2132.39,1466)"
       id="text6"> </text><text
       font-family="Calibri,Calibri_MSFontService,sans-serif"
       font-weight="400"
       font-size="55"
       transform="matrix(1 0 0 1 1891.19 1532)"
       id="text7">approaching angle</text><text
       font-family="Calibri,Calibri_MSFontService,sans-serif"
       font-weight="400"
       font-size="55"
       transform="matrix(1 0 0 1 1891.19 1598)"
       id="text8">3. Gripper position</text><text
       font-family="Calibri,Calibri_MSFontService,sans-serif"
       font-weight="400"
       font-size="83"
       transform="matrix(1 0 0 1 1484.47 1492)"
       id="text9">2.</text><rect
       x="1876.5"
       y="1487.5"
       width="449"
       height="67"
       stroke="#ED7D31"
       stroke-width="4.58333"
       stroke-linejoin="round"
       stroke-miterlimit="10"
       fill="none"
       id="rect9" /><path
       d="M0-2.29167 296.448-2.29167 296.448 266.501 294.157 264.21 621.909 264.21 619.618 266.501 619.618 121.051 624.201 121.051 624.201 268.793 291.865 268.793 291.865 0 294.157 2.29167 0 2.29167ZM608.159 125.634 621.909 98.1339 635.659 125.634Z"
       fill="#4472C4"
       transform="matrix(1.83697e-16 1 1 -1.83697e-16 2226.5 899.5)"
       id="path9" /></g></svg>
