<?xml version="1.0" encoding="UTF-8" standalone="no"?>
<svg
   width="717"
   height="411"
   xml:space="preserve"
   overflow="hidden"
   version="1.1"
   id="svg4"
   sodipodi:docname="LAfD_9.svg"
   inkscape:version="1.3.2 (091e20e, 2023-11-25, custom)"
   xmlns:inkscape="http://www.inkscape.org/namespaces/inkscape"
   xmlns:sodipodi="http://sodipodi.sourceforge.net/DTD/sodipodi-0.dtd"
   xmlns="http://www.w3.org/2000/svg"
   xmlns:svg="http://www.w3.org/2000/svg"><defs
     id="defs4" /><sodipodi:namedview
     id="namedview4"
     pagecolor="#ffffff"
     bordercolor="#000000"
     borderopacity="0.25"
     inkscape:showpageshadow="2"
     inkscape:pageopacity="0.0"
     inkscape:pagecheckerboard="0"
     inkscape:deskcolor="#d1d1d1"
     inkscape:zoom="1.9567643"
     inkscape:cx="358.5"
     inkscape:cy="274.43264"
     inkscape:window-width="1920"
     inkscape:window-height="1002"
     inkscape:window-x="-8"
     inkscape:window-y="-8"
     inkscape:window-maximized="1"
     inkscape:current-layer="g4" /><g
     transform="translate(-1431 -1624)"
     id="g4"><text
       font-family="Calibri,Calibri_MSFontService,sans-serif"
       font-weight="400"
       font-size="83"
       transform="matrix(1 0 0 1 1480.51 1894)"
       id="text1">3.</text><path
       d="M1812.38 1998.5C1814.52 1998.5 1816.25 1996.77 1816.25 1994.63L1812.38 1994.63C1813.45 1994.63 1814.31 1993.76 1814.31 1992.69 1814.31 1991.62 1813.45 1990.75 1812.38 1990.75L1816.25 1990.75 1816.25 1940.37C1816.25 1938.23 1817.98 1936.5 1820.13 1936.5L1936.62 1936.5C1938.77 1936.5 1940.5 1938.23 1940.5 1940.37 1940.5 1942.51 1938.77 1944.25 1936.62 1944.25L1932.75 1944.25 1932.75 1994.63C1932.75 1996.77 1931.02 1998.5 1928.88 1998.5ZM1824 1940.37C1824 1942.51 1822.27 1944.25 1820.13 1944.25 1819.05 1944.25 1818.19 1943.38 1818.19 1942.31 1818.19 1941.24 1819.05 1940.37 1820.13 1940.37Z"
       fill="#FFFFFF"
       fill-rule="evenodd"
       id="path1" /><path
       d="M1824 1940.37C1824 1942.51 1822.27 1944.25 1820.13 1944.25 1819.05 1944.25 1818.19 1943.38 1818.19 1942.31 1818.19 1941.24 1819.05 1940.37 1820.13 1940.37ZM1816.25 1994.63C1816.25 1996.77 1814.52 1998.5 1812.38 1998.5 1810.23 1998.5 1808.5 1996.77 1808.5 1994.63 1808.5 1992.48 1810.23 1990.75 1812.38 1990.75 1813.45 1990.75 1814.31 1991.62 1814.31 1992.69 1814.31 1993.76 1813.45 1994.63 1812.38 1994.63Z"
       fill="#CDCDCD"
       fill-rule="evenodd"
       id="path2" /><path
       d="M1816.25 1990.75 1816.25 1940.37C1816.25 1938.23 1817.98 1936.5 1820.13 1936.5L1936.62 1936.5C1938.77 1936.5 1940.5 1938.23 1940.5 1940.37 1940.5 1942.51 1938.77 1944.25 1936.62 1944.25L1932.75 1944.25 1932.75 1994.63C1932.75 1996.77 1931.02 1998.5 1928.88 1998.5L1812.38 1998.5C1810.23 1998.5 1808.5 1996.77 1808.5 1994.63 1808.5 1992.48 1810.23 1990.75 1812.38 1990.75ZM1820.13 1936.5C1822.27 1936.5 1824 1938.23 1824 1940.37 1824 1942.51 1822.27 1944.25 1820.13 1944.25 1819.05 1944.25 1818.19 1943.38 1818.19 1942.31 1818.19 1941.24 1819.05 1940.37 1820.13 1940.37L1824 1940.37M1932.75 1944.25 1820.13 1944.25M1812.38 1990.75C1813.45 1990.75 1814.31 1991.62 1814.31 1992.69 1814.31 1993.76 1813.45 1994.63 1812.38 1994.63L1816.25 1994.63M1812.38 1998.5C1814.52 1998.5 1816.25 1996.77 1816.25 1994.63L1816.25 1990.75"
       stroke="#7030A0"
       stroke-width="3.4375"
       stroke-linejoin="round"
       stroke-miterlimit="10"
       fill="none"
       fill-rule="evenodd"
       id="path3" /><text
       font-family="Calibri,Calibri_MSFontService,sans-serif"
       font-weight="400"
       font-size="55"
       transform="matrix(1 0 0 1 1848.99 1987)"
       id="text3">1</text><path
       d="M1.85311-1.34822 259.733 353.103 256.027 355.8-1.85311 1.34822ZM266.302 342.656 271.362 372.983 244.065 358.835Z"
       fill="#4472C4"
       transform="matrix(-1 0 0 1 2145.86 1625.5)"
       id="path4" /></g></svg>
