<?xml version="1.0" encoding="UTF-8" standalone="no"?>
<svg
   width="902"
   height="580"
   xml:space="preserve"
   overflow="hidden"
   version="1.1"
   id="svg2"
   sodipodi:docname="LAfD_77.svg"
   inkscape:version="1.3.2 (091e20e, 2023-11-25, custom)"
   xmlns:inkscape="http://www.inkscape.org/namespaces/inkscape"
   xmlns:sodipodi="http://sodipodi.sourceforge.net/DTD/sodipodi-0.dtd"
   xmlns="http://www.w3.org/2000/svg"
   xmlns:svg="http://www.w3.org/2000/svg"><defs
     id="defs2" /><sodipodi:namedview
     id="namedview2"
     pagecolor="#ffffff"
     bordercolor="#000000"
     borderopacity="0.25"
     inkscape:showpageshadow="2"
     inkscape:pageopacity="0.0"
     inkscape:pagecheckerboard="0"
     inkscape:deskcolor="#d1d1d1"
     inkscape:zoom="1.3896552"
     inkscape:cx="450.83127"
     inkscape:cy="290"
     inkscape:window-width="1920"
     inkscape:window-height="1002"
     inkscape:window-x="-8"
     inkscape:window-y="-8"
     inkscape:window-maximized="1"
     inkscape:current-layer="svg2" /><g
     transform="translate(-1746 -633)"
     id="g2"><path
       d="M1748.5 962C1748.5 824.757 1859.98 713.5 1997.5 713.5 2135.02 713.5 2246.5 824.757 2246.5 962 2246.5 1099.24 2135.02 1210.5 1997.5 1210.5 1859.98 1210.5 1748.5 1099.24 1748.5 962Z"
       stroke="#ED7D31"
       stroke-width="4.58333"
       stroke-linejoin="round"
       stroke-miterlimit="10"
       stroke-dasharray="18.3333 13.75"
       fill="none"
       fill-rule="evenodd"
       id="path1" /><path
       d="M2088.5 658.834C2088.5 652.022 2094.02 646.5 2100.83 646.5L2181.5 646.5 2181.5 646.5 2321 646.5 2634.17 646.5C2640.98 646.5 2646.5 652.022 2646.5 658.834L2646.5 689.667 2646.5 689.667 2646.5 708.167 2646.5 708.167C2646.5 714.978 2640.98 720.5 2634.17 720.5L2321 720.5 2165.74 777.826 2181.5 720.5 2100.83 720.5C2094.02 720.5 2088.5 714.978 2088.5 708.167L2088.5 708.167 2088.5 689.667 2088.5 689.667Z"
       stroke="#ED7D31"
       stroke-width="3.4375"
       stroke-linejoin="round"
       stroke-miterlimit="10"
       fill="none"
       fill-rule="evenodd"
       id="path2" /><path
       style="font-size:55px;font-family:Calibri, Calibri_MSFontService, sans-serif;text-align:center;text-anchor:middle;fill:#ed7d31"
       d="m 21.014404,-9.7485352 q 0,2.4438477 -0.913086,4.350586 -0.88623,1.9067383 -2.497558,3.2495117 -1.584473,1.31591797 -3.759766,1.98730469 -2.148437,0.67138672 -4.645996,0.67138672 -1.7456054,0 -3.2495117,-0.29541016 Q 4.4714355,-0.08056641 3.2897949,-0.51025391 2.1350098,-0.93994141 1.3293457,-1.3964844 0.55053711,-1.8530273 0.22827148,-2.175293 q -0.29541015,-0.3222656 -0.45654296,-0.805664 -0.13427735,-0.5102539 -0.13427735,-1.3427735 0,-0.5908203 0.0537109,-0.9667968 0.0537109,-0.4028321 0.16113281,-0.6445313 0.10742188,-0.2416992 0.26855469,-0.3222656 0.16113281,-0.1074219 0.37597656,-0.1074219 0.37597656,0 1.04736333,0.456543 0.6982421,0.4565429 1.7724609,0.9936523 1.0742187,0.5371094 2.578125,1.0205078 1.5307617,0.456543 3.5180664,0.456543 1.5039062,0 2.7392582,-0.402832 1.262207,-0.4028321 2.148437,-1.1279297 0.913086,-0.7519531 1.396484,-1.8261719 0.483399,-1.0742187 0.483399,-2.4438477 0,-1.4770507 -0.671387,-2.5244137 -0.671387,-1.047364 -1.772461,-1.826172 -1.101074,-0.805664 -2.524414,-1.450196 -1.3964842,-0.671386 -2.873535,-1.342773 -1.4770507,-0.698242 -2.8735351,-1.530762 -1.3964844,-0.832519 -2.4975586,-1.960449 -1.1010742,-1.12793 -1.7993164,-2.631836 -0.67138673,-1.530762 -0.67138673,-3.652344 0,-2.175293 0.77880863,-3.867187 0.805664,-1.71875 2.2021484,-2.873535 1.4233398,-1.154785 3.3569336,-1.745606 1.9604492,-0.617675 4.2163082,-0.617675 1.154786,0 2.309571,0.214843 1.18164,0.187989 2.202148,0.53711 1.047363,0.322265 1.853027,0.751953 0.805665,0.402832 1.047364,0.671387 0.268554,0.241699 0.349121,0.402832 0.08057,0.134277 0.134277,0.375976 0.05371,0.214844 0.08057,0.537109 0.02685,0.322266 0.02685,0.83252 0,0.483398 -0.05371,0.859375 -0.02685,0.375977 -0.107422,0.644531 -0.08057,0.241699 -0.241699,0.375977 -0.134277,0.107422 -0.322266,0.107422 -0.29541,0 -0.939941,-0.375977 -0.617676,-0.375976 -1.530762,-0.832519 -0.913086,-0.483399 -2.175293,-0.859375 -1.235351,-0.402832 -2.792968,-0.402832 -1.4501957,0 -2.5244145,0.402832 -1.0742187,0.375976 -1.7724609,1.020507 -0.6982422,0.644532 -1.0473633,1.530762 -0.3491211,0.886231 -0.3491211,1.879883 0,1.450195 0.6713867,2.497559 0.6713867,1.047363 1.772461,1.853027 1.1279296,0.805664 2.5512691,1.477051 1.42334,0.671386 2.900391,1.369629 1.477051,0.671386 2.900391,1.503906 1.423339,0.805664 2.524414,1.933594 1.127929,1.101074 1.799316,2.631835 0.698242,1.503907 0.698242,3.5717778 z m 18.664551,7.3046875 q 0,0.7788086 -0.107422,1.2353516 -0.107422,0.45654298 -0.322265,0.67138673 -0.214844,0.21484374 -0.644532,0.40283203 -0.429687,0.18798828 -0.993652,0.29541015 -0.537109,0.13427735 -1.154785,0.21484375 -0.617676,0.0805664 -1.235352,0.0805664 -1.879883,0 -3.222656,-0.48339844 -1.342773,-0.5102539 -2.202148,-1.50390623 -0.859375,-1.0205078 -1.262207,-2.5512695 -0.375977,-1.5576172 -0.375977,-3.6523438 V -21.860352 H 24.77417 q -0.402832,0 -0.644531,-0.429687 -0.2417,-0.429688 -0.2417,-1.396484 0,-0.510254 0.05371,-0.859375 0.08057,-0.349122 0.187989,-0.563965 0.107422,-0.241699 0.268554,-0.322266 0.187989,-0.107422 0.402832,-0.107422 h 3.356934 v -5.74707 q 0,-0.187988 0.08057,-0.349121 0.107422,-0.161133 0.349121,-0.268555 0.268555,-0.134277 0.698243,-0.187988 0.429687,-0.05371 1.074218,-0.05371 0.671387,0 1.101075,0.05371 0.429687,0.05371 0.671386,0.187988 0.2417,0.107422 0.349121,0.268555 0.107422,0.161133 0.107422,0.349121 v 5.74707 h 6.203614 q 0.214843,0 0.375976,0.107422 0.161133,0.08057 0.268555,0.322266 0.134277,0.214843 0.187988,0.563965 0.05371,0.349121 0.05371,0.859375 0,0.966796 -0.241699,1.396484 -0.241699,0.429687 -0.644531,0.429687 h -6.203614 v 13.4814457 q 0,2.4975586 0.725098,3.7866211 0.751953,1.2622071 2.658691,1.2622071 0.617676,0 1.101075,-0.1074219 0.483398,-0.1342773 0.859375,-0.2685547 0.375976,-0.1342773 0.644531,-0.2416992 0.268555,-0.1342773 0.483398,-0.1342773 0.134278,0 0.2417,0.080566 0.134277,0.053711 0.187988,0.2416992 0.08057,0.1879883 0.134277,0.5102539 0.05371,0.3222656 0.05371,0.805664 z m 23.391113,1.79931645 q 0,0.32226562 -0.214843,0.48339844 Q 62.640381,0 62.264404,0.08056641 q -0.375976,0.0805664 -1.101074,0.0805664 -0.698242,0 -1.12793,-0.0805664 Q 59.632568,0 59.44458,-0.16113281 59.256592,-0.32226563 59.256592,-0.64453125 V -3.0615234 q -1.584473,1.6918945 -3.544922,2.6318359 -1.933594,0.93994141 -4.108887,0.93994141 -1.906738,0 -3.464355,-0.51025391 -1.530762,-0.48339844 -2.631836,-1.4233398 -1.074219,-0.9399415 -1.691895,-2.3095704 -0.59082,-1.3696289 -0.59082,-3.1152343 0,-2.0410157 0.832519,-3.5449215 0.83252,-1.503907 2.390137,-2.497559 1.557617,-0.993652 3.813477,-1.477051 2.255859,-0.510254 5.075683,-0.510254 h 3.330078 v -1.879882 q 0,-1.396485 -0.29541,-2.470704 -0.29541,-1.074218 -0.966797,-1.772461 -0.644531,-0.725097 -1.691894,-1.074218 -1.047363,-0.375977 -2.578125,-0.375977 -1.638184,0 -2.954102,0.402832 -1.289062,0.375977 -2.282714,0.859375 -0.966797,0.456543 -1.638184,0.859375 -0.644531,0.375977 -0.966797,0.375977 -0.214844,0 -0.375977,-0.107422 -0.161132,-0.107422 -0.29541,-0.322266 -0.107422,-0.214844 -0.161132,-0.537109 -0.05371,-0.349121 -0.05371,-0.751953 0,-0.671387 0.08057,-1.047364 0.107422,-0.402832 0.456543,-0.751953 0.375977,-0.349121 1.262207,-0.805664 0.88623,-0.483398 2.041016,-0.859375 1.154785,-0.402832 2.524414,-0.644531 1.369629,-0.268555 2.766113,-0.268555 2.60498,0 4.431152,0.590821 1.826172,0.59082 2.954102,1.745605 1.12793,1.12793 1.638183,2.819824 0.510254,1.691895 0.510254,3.947754 z M 58.665771,-11.682129 H 54.87915 q -1.826171,0 -3.168945,0.322266 -1.342773,0.29541 -2.229004,0.913086 -0.88623,0.59082 -1.315918,1.450195 -0.402832,0.8325195 -0.402832,1.9335937 0,1.8798828 1.181641,3.0078125 1.208496,1.1010742 3.356933,1.1010742 1.745606,0 3.222657,-0.8862304 1.503906,-0.8862305 3.142089,-2.7124024 z m 26.667481,-11.574707 q 0,0.59082 -0.02686,0.993652 -0.02686,0.402832 -0.107421,0.644532 -0.08057,0.214843 -0.214844,0.349121 -0.107422,0.107422 -0.322266,0.107422 -0.214844,0 -0.537109,-0.107422 -0.29541,-0.134278 -0.698242,-0.241699 -0.375977,-0.134278 -0.859375,-0.2417 -0.483399,-0.107422 -1.047364,-0.107422 -0.671386,0 -1.315918,0.268555 -0.644531,0.268555 -1.369628,0.886231 -0.698243,0.617675 -1.477051,1.638183 -0.778809,1.020508 -1.71875,2.497559 v 15.89843728 q 0,0.21484375 -0.107422,0.37597656 -0.107422,0.13427735 -0.349121,0.24169922 -0.241699,0.10742188 -0.671387,0.16113281 -0.429687,0.0537109 -1.101074,0.0537109 -0.644531,0 -1.074219,-0.0537109 -0.429687,-0.05371093 -0.698242,-0.16113281 -0.241699,-0.10742187 -0.349121,-0.24169922 -0.08057,-0.16113281 -0.08057,-0.37597656 V -24.841309 q 0,-0.214843 0.08057,-0.349121 0.08057,-0.161132 0.322265,-0.268554 0.2417,-0.134278 0.617676,-0.161133 0.375977,-0.05371 0.993653,-0.05371 0.59082,0 0.966796,0.05371 0.402832,0.02686 0.617676,0.161133 0.214844,0.107422 0.29541,0.268554 0.107422,0.134278 0.107422,0.349121 v 3.518067 q 0.993653,-1.450195 1.853028,-2.363281 0.88623,-0.913086 1.665039,-1.42334 0.778808,-0.53711 1.530761,-0.725098 0.778809,-0.214844 1.557618,-0.214844 0.349121,0 0.778808,0.05371 0.456543,0.02686 0.939942,0.134278 0.483398,0.107421 0.859375,0.241699 0.402832,0.134277 0.563964,0.268555 0.161133,0.134277 0.214844,0.268554 0.05371,0.107422 0.08057,0.29541 0.05371,0.187989 0.05371,0.563965 0.02686,0.349121 0.02686,0.966797 z m 17.617188,20.8129883 q 0,0.7788086 -0.10742,1.2353516 -0.10742,0.45654298 -0.32227,0.67138673 -0.21484,0.21484374 -0.64453,0.40283203 -0.42969,0.18798828 -0.99365,0.29541015 -0.53711,0.13427735 -1.154787,0.21484375 -0.617676,0.0805664 -1.235351,0.0805664 -1.879883,0 -3.222657,-0.48339844 -1.342773,-0.5102539 -2.202148,-1.50390623 -0.859375,-1.0205078 -1.262207,-2.5512695 -0.375977,-1.5576172 -0.375977,-3.6523438 v -14.125977 h -3.383789 q -0.402832,0 -0.644531,-0.429687 -0.241699,-0.429688 -0.241699,-1.396484 0,-0.510254 0.05371,-0.859375 0.08057,-0.349122 0.187988,-0.563965 0.107422,-0.241699 0.268555,-0.322266 0.187988,-0.107422 0.402832,-0.107422 h 3.356933 v -5.74707 q 0,-0.187988 0.08057,-0.349121 0.107422,-0.161133 0.349121,-0.268555 0.268555,-0.134277 0.698242,-0.187988 0.429688,-0.05371 1.074219,-0.05371 0.671387,0 1.101074,0.05371 0.429688,0.05371 0.671387,0.187988 0.241699,0.107422 0.349121,0.268555 0.107422,0.161133 0.107422,0.349121 v 5.74707 h 6.203614 q 0.21484,0 0.37598,0.107422 0.16113,0.08057 0.26855,0.322266 0.13428,0.214843 0.18799,0.563965 0.0537,0.349121 0.0537,0.859375 0,0.966796 -0.2417,1.396484 -0.2417,0.429687 -0.64453,0.429687 h -6.203614 v 13.4814457 q 0,2.4975586 0.725097,3.7866211 0.751953,1.2622071 2.658692,1.2622071 0.617676,0 1.101075,-0.1074219 0.4834,-0.1342773 0.85937,-0.2685547 0.37598,-0.1342773 0.64454,-0.2416992 0.26855,-0.1342773 0.48339,-0.1342773 0.13428,0 0.2417,0.080566 0.13428,0.053711 0.18799,0.2416992 0.0806,0.1879883 0.13428,0.5102539 0.0537,0.3222656 0.0537,0.805664 z m 32.41455,-20.8129883 q 0,0.59082 -0.0269,0.993652 -0.0268,0.402832 -0.10742,0.644532 -0.0806,0.214843 -0.21484,0.349121 -0.10742,0.107422 -0.32227,0.107422 -0.21484,0 -0.53711,-0.107422 -0.29541,-0.134278 -0.69824,-0.241699 -0.37597,-0.134278 -0.85937,-0.2417 -0.4834,-0.107422 -1.04737,-0.107422 -0.67138,0 -1.31591,0.268555 -0.64454,0.268555 -1.36963,0.886231 -0.69825,0.617675 -1.47705,1.638183 -0.77881,1.020508 -1.71875,2.497559 v 15.89843728 q 0,0.21484375 -0.10743,0.37597656 -0.10742,0.13427735 -0.34912,0.24169922 -0.2417,0.10742188 -0.67138,0.16113281 -0.42969,0.0537109 -1.10108,0.0537109 -0.64453,0 -1.07422,-0.0537109 -0.42968,-0.05371093 -0.69824,-0.16113281 -0.2417,-0.10742187 -0.34912,-0.24169922 -0.0806,-0.16113281 -0.0806,-0.37597656 V -24.841309 q 0,-0.214843 0.0806,-0.349121 0.0806,-0.161132 0.32227,-0.268554 0.24169,-0.134278 0.61767,-0.161133 0.37598,-0.05371 0.99365,-0.05371 0.59082,0 0.9668,0.05371 0.40283,0.02686 0.61768,0.161133 0.21484,0.107422 0.29541,0.268554 0.10742,0.134278 0.10742,0.349121 v 3.518067 q 0.99365,-1.450195 1.85303,-2.363281 0.88623,-0.913086 1.66503,-1.42334 0.77881,-0.53711 1.53077,-0.725098 0.77881,-0.214844 1.55761,-0.214844 0.34912,0 0.77881,0.05371 0.45655,0.02686 0.93994,0.134278 0.4834,0.107421 0.85938,0.241699 0.40283,0.134277 0.56396,0.268555 0.16114,0.134277 0.21485,0.268554 0.0537,0.107422 0.0806,0.29541 0.0537,0.187989 0.0537,0.563965 0.0269,0.349121 0.0269,0.966797 z m 24.94873,9.453125 q 0,1.047363 -0.53711,1.503906 -0.51025,0.429688 -1.18164,0.429688 h -15.84473 q 0,2.01416 0.40284,3.6254881 0.40283,1.6113281 1.34277,2.7661133 0.93994,1.1547851 2.44385,1.7724609 1.5039,0.6176758 3.6792,0.6176758 1.71875,0 3.06152,-0.2685547 1.34277,-0.2954102 2.30957,-0.6445312 0.99365,-0.3491211 1.61133,-0.6176758 0.64453,-0.2954102 0.9668,-0.2954102 0.18798,0 0.32226,0.1074219 0.16113,0.080566 0.2417,0.2685547 0.0806,0.1879883 0.10742,0.5371094 0.0537,0.3222656 0.0537,0.805664 0,0.3491211 -0.0268,0.6176758 -0.0269,0.2416992 -0.0806,0.456543 -0.0268,0.1879883 -0.13428,0.3491211 -0.0806,0.1611328 -0.2417,0.3222656 -0.13427,0.1342773 -0.85937,0.48339842 -0.7251,0.32226563 -1.87988,0.64453125 Q 154.91577,0 153.38501,0.24169922 q -1.50391,0.26855469 -3.22266,0.26855469 -2.98095,0 -5.23681,-0.83251954 -2.22901,-0.83251957 -3.75977,-2.47070317 -1.53076,-1.6381835 -2.30957,-4.1088867 -0.77881,-2.4707031 -0.77881,-5.7470705 0,-3.115234 0.80567,-5.585937 0.80566,-2.497559 2.30957,-4.216309 1.53076,-1.745605 3.6792,-2.658691 2.14843,-0.939942 4.80713,-0.939942 2.84667,0 4.83398,0.913086 2.01416,0.913086 3.30322,2.470703 1.28906,1.530762 1.87988,3.625489 0.61768,2.067871 0.61768,4.431152 z m -4.45801,-1.315918 q 0.0806,-3.491211 -1.55761,-5.478516 -1.61133,-1.987304 -4.80713,-1.987304 -1.63819,0 -2.87354,0.617676 -1.23535,0.617675 -2.06787,1.638183 -0.83252,1.020508 -1.28906,2.390137 -0.45654,1.342773 -0.51026,2.819824 z m 28.57422,10.7690431 q 0,0.4565429 -0.0269,0.805664 -0.0269,0.3222656 -0.10743,0.5639649 -0.0537,0.2148437 -0.16113,0.402832 -0.0806,0.1611328 -0.42969,0.5102539 -0.32226,0.3222656 -1.12793,0.8325195 -0.80566,0.48339848 -1.82617,0.88623051 -0.99365,0.37597656 -2.17529,0.61767578 -1.18164,0.24169922 -2.44385,0.24169922 -2.60498,0 -4.61914,-0.859375 -2.01416,-0.85937501 -3.38379,-2.49755861 -1.34277,-1.665039 -2.06787,-4.0551758 -0.69824,-2.4169922 -0.69824,-5.5590825 0,-3.571777 0.85937,-6.123046 0.88623,-2.578125 2.39014,-4.216309 1.53076,-1.638184 3.57178,-2.416992 2.06787,-0.805664 4.45801,-0.805664 1.15478,0 2.229,0.214844 1.10107,0.214843 2.01416,0.563964 0.91309,0.349121 1.61133,0.805664 0.7251,0.456543 1.04736,0.778809 0.32227,0.322266 0.42969,0.510254 0.13428,0.187988 0.21484,0.456543 0.0806,0.241699 0.10742,0.563965 0.0269,0.322265 0.0269,0.805664 0,1.047363 -0.2417,1.477051 -0.2417,0.402832 -0.59082,0.402832 -0.40283,0 -0.93994,-0.429688 -0.51026,-0.456543 -1.31592,-0.993652 -0.80566,-0.53711 -1.96045,-0.966797 -1.12793,-0.456543 -2.68555,-0.456543 -3.1958,0 -4.91455,2.470703 -1.69189,2.443848 -1.69189,7.116699 0,2.336426 0.42969,4.108887 0.45654,1.7456055 1.31591,2.9272461 0.85938,1.1816406 2.09473,1.7724609 1.26221,0.5639649 2.87354,0.5639649 1.53076,0 2.68554,-0.4833985 1.15479,-0.4833984 1.98731,-1.0473632 0.85937,-0.5908204 1.42334,-1.0473633 0.59082,-0.4833985 0.91308,-0.4833985 0.18799,0 0.32227,0.1074219 0.13428,0.1074219 0.21484,0.3759766 0.10743,0.2416992 0.13428,0.6445312 0.0537,0.3759766 0.0537,0.913086 z m 27.90283,-8.6743161 q 0,2.954101 -0.7788,5.4516598 -0.77881,2.4707031 -2.33643,4.2700195 -1.53076,1.7993165 -3.86719,2.81982426 -2.30957,0.99365235 -5.37109,0.99365235 -2.98096,0 -5.20996,-0.88623047 -2.20215,-0.88623044 -3.6792,-2.57812504 -1.47705,-1.6918945 -2.20215,-4.1088867 -0.7251,-2.4169922 -0.7251,-5.4785157 0,-2.954101 0.75195,-5.424805 0.77881,-2.497558 2.30958,-4.296875 1.55761,-1.799316 3.86718,-2.792968 2.30957,-0.993653 5.39795,-0.993653 2.98096,0 5.18311,0.886231 2.229,0.88623 3.70605,2.578125 1.47705,1.691894 2.20215,4.108887 0.75195,2.416992 0.75195,5.45166 z m -4.67285,0.29541 q 0,-1.960449 -0.37597,-3.706055 -0.34913,-1.745605 -1.18165,-3.061523 -0.83251,-1.315918 -2.25585,-2.067871 -1.42334,-0.778809 -3.54493,-0.778809 -1.96045,0 -3.38379,0.698242 -1.39648,0.698242 -2.30957,1.987305 -0.91308,1.262207 -1.36962,3.007812 -0.42969,1.745606 -0.42969,3.813477 0,1.987305 0.34912,3.7329101 0.37598,1.7456055 1.2085,3.0615234 0.85937,1.2890625 2.28271,2.0678711 1.42334,0.7519531 3.54492,0.7519531 1.9336,0 3.35694,-0.6982421 1.42334,-0.6982422 2.33642,-1.9604493 0.91309,-1.262207 1.34277,-3.0078125 0.42969,-1.7456058 0.42969,-3.8403318 z m 25.32471,-10.527344 q 0,0.59082 -0.0269,0.993652 -0.0268,0.402832 -0.10742,0.644532 -0.0806,0.214843 -0.21484,0.349121 -0.10742,0.107422 -0.32227,0.107422 -0.21484,0 -0.53711,-0.107422 -0.29541,-0.134278 -0.69824,-0.241699 -0.37598,-0.134278 -0.85937,-0.2417 -0.4834,-0.107422 -1.04737,-0.107422 -0.67138,0 -1.31592,0.268555 -0.64453,0.268555 -1.36962,0.886231 -0.69825,0.617675 -1.47706,1.638183 -0.7788,1.020508 -1.71875,2.497559 v 15.89843728 q 0,0.21484375 -0.10742,0.37597656 -0.10742,0.13427735 -0.34912,0.24169922 -0.2417,0.10742188 -0.67138,0.16113281 -0.42969,0.0537109 -1.10108,0.0537109 -0.64453,0 -1.07422,-0.0537109 -0.42969,-0.05371093 -0.69824,-0.16113281 -0.2417,-0.10742187 -0.34912,-0.24169922 -0.0806,-0.16113281 -0.0806,-0.37597656 V -24.841309 q 0,-0.214843 0.0806,-0.349121 0.0806,-0.161132 0.32226,-0.268554 0.2417,-0.134278 0.61768,-0.161133 0.37598,-0.05371 0.99365,-0.05371 0.59082,0 0.9668,0.05371 0.40283,0.02686 0.61768,0.161133 0.21484,0.107422 0.29541,0.268554 0.10742,0.134278 0.10742,0.349121 v 3.518067 q 0.99365,-1.450195 1.85302,-2.363281 0.88624,-0.913086 1.66504,-1.42334 0.77881,-0.53711 1.53077,-0.725098 0.7788,-0.214844 1.55761,-0.214844 0.34912,0 0.77881,0.05371 0.45654,0.02686 0.93994,0.134278 0.4834,0.107421 0.85938,0.241699 0.40283,0.134277 0.56396,0.268555 0.16114,0.134277 0.21485,0.268554 0.0537,0.107422 0.0806,0.29541 0.0537,0.187989 0.0537,0.563965 0.0269,0.349121 0.0269,0.966797 z m 25.00244,22.58544928 q 0,0.21484375 -0.10742,0.37597656 -0.0806,0.16113282 -0.32227,0.26855469 -0.21484,0.08056641 -0.59082,0.13427734 -0.37597,0.0537109 -0.91308,0.0537109 -0.56397,0 -0.93994,-0.0537109 -0.37598,-0.05371093 -0.61768,-0.13427734 -0.2417,-0.10742187 -0.34912,-0.26855469 -0.10742,-0.16113281 -0.10742,-0.37597656 V -3.8671875 q -1.90674,2.0678711 -3.97461,3.22265625 -2.04102,1.15478516 -4.48487,1.15478516 -2.65869,0 -4.53857,-1.02050782 -1.87988,-1.04736329 -3.06152,-2.79296879 -1.15479,-1.7724609 -1.6919,-4.1357421 -0.53711,-2.3901368 -0.53711,-5.0219732 0,-3.115234 0.67139,-5.612792 0.67139,-2.524415 1.9873,-4.296875 1.31592,-1.772461 3.24952,-2.712403 1.96044,-0.966797 4.51171,-0.966797 2.12159,0 3.86719,0.939942 1.77246,0.913086 3.49121,2.712402 v -14.04541 q 0,-0.187988 0.0806,-0.349121 0.10742,-0.187988 0.37598,-0.268555 0.26855,-0.107422 0.67138,-0.161133 0.42969,-0.08057 1.07422,-0.08057 0.67139,0 1.10108,0.08057 0.42968,0.05371 0.67138,0.161133 0.2417,0.08057 0.34912,0.268555 0.13428,0.161133 0.13428,0.349121 z M 253.52905,-17.670898 q -1.79931,-2.229004 -3.49121,-3.383789 -1.66504,-1.181641 -3.49121,-1.181641 -1.69189,0 -2.87353,0.805664 -1.18164,0.805664 -1.9336,2.121582 -0.7251,1.315918 -1.07422,2.980957 -0.32226,1.665039 -0.32226,3.383789 0,1.826172 0.26855,3.5717774 0.29541,1.7456055 0.99365,3.1152344 0.69825,1.3427734 1.85303,2.175293 1.15479,0.805664 2.90039,0.805664 0.88623,0 1.6919,-0.2416992 0.83252,-0.2416992 1.69189,-0.8056641 0.85938,-0.5639648 1.79932,-1.4501953 0.93994,-0.9130859 1.9873,-2.2290039 z m 17.08008,16.99951128 q 0,0.21484375 -0.10742,0.37597656 -0.10742,0.13427735 -0.34912,0.24169922 -0.2417,0.10742188 -0.67139,0.16113281 -0.42969,0.0537109 -1.10107,0.0537109 -0.64453,0 -1.07422,-0.0537109 -0.42969,-0.05371093 -0.69824,-0.16113281 -0.2417,-0.10742187 -0.34913,-0.24169922 -0.0806,-0.16113281 -0.0806,-0.37597656 V -24.841309 q 0,-0.187988 0.0806,-0.349121 0.10743,-0.161132 0.34913,-0.268554 0.26855,-0.107422 0.69824,-0.161133 0.42969,-0.05371 1.07422,-0.05371 0.67138,0 1.10107,0.05371 0.42969,0.05371 0.67139,0.161133 0.2417,0.107422 0.34912,0.268554 0.10742,0.161133 0.10742,0.349121 z m 0.51025,-32.33398428 q 0,1.557617 -0.59082,2.121582 -0.59082,0.563965 -2.17529,0.563965 -1.55762,0 -2.14844,-0.53711 -0.56396,-0.563964 -0.56396,-2.094726 0,-1.557617 0.59082,-2.121582 0.59082,-0.563965 2.17529,-0.563965 1.55762,0 2.12158,0.563965 0.59082,0.537109 0.59082,2.067871 z m 28.49366,32.33398428 q 0,0.21484375 -0.10742,0.37597656 -0.10743,0.13427735 -0.34913,0.24169922 -0.2417,0.10742188 -0.67138,0.16113281 -0.42969,0.0537109 -1.07422,0.0537109 -0.67139,0 -1.10108,-0.0537109 -0.42968,-0.05371093 -0.67138,-0.16113281 -0.2417,-0.10742187 -0.34912,-0.24169922 -0.10743,-0.16113281 -0.10743,-0.37597656 V -14.824219 q 0,-2.067871 -0.32226,-3.330078 -0.32227,-1.262207 -0.93994,-2.175293 -0.61768,-0.913086 -1.61133,-1.396484 -0.9668,-0.483399 -2.25586,-0.483399 -1.66504,0 -3.33008,1.181641 -1.66504,1.181641 -3.49121,3.464355 v 16.89209028 q 0,0.21484375 -0.10742,0.37597656 -0.10742,0.13427735 -0.34912,0.24169922 -0.2417,0.10742188 -0.67139,0.16113281 -0.42969,0.0537109 -1.10107,0.0537109 -0.64453,0 -1.07422,-0.0537109 -0.42969,-0.05371093 -0.69824,-0.16113281 -0.2417,-0.10742187 -0.34912,-0.24169922 -0.0806,-0.16113281 -0.0806,-0.37597656 V -24.841309 q 0,-0.214843 0.0806,-0.349121 0.0806,-0.161132 0.32226,-0.268554 0.2417,-0.134278 0.61768,-0.161133 0.37597,-0.05371 0.99365,-0.05371 0.59082,0 0.9668,0.05371 0.40283,0.02686 0.61767,0.161133 0.21485,0.107422 0.29541,0.268554 0.10742,0.134278 0.10742,0.349121 v 3.195801 q 2.04102,-2.282715 4.05518,-3.330078 2.04102,-1.074219 4.10889,-1.074219 2.41699,0 4.05517,0.83252 1.66504,0.805664 2.68555,2.175293 1.02051,1.369629 1.45019,3.222656 0.45655,1.826172 0.45655,4.404297 z M 327.89185,-23.740234 q 0,0.939941 -0.26856,1.369629 -0.2417,0.402832 -0.64453,0.402832 h -3.46436 q 0.93995,0.966796 1.31592,2.148437 0.37598,1.154785 0.37598,2.416992 0,2.094727 -0.67139,3.706055 -0.67138,1.611328 -1.93359,2.739258 -1.23535,1.101074 -2.9541,1.6918943 -1.71875,0.5908203 -3.81348,0.5908203 -1.47705,0 -2.81982,-0.3759766 -1.31592,-0.402832 -2.04102,-0.993652 -0.4834,0.4833981 -0.80566,1.1010739 -0.29541,0.6176758 -0.29541,1.4233399 0,0.9399414 0.85937,1.5576171 0.88623,0.6176758 2.33643,0.6713868 l 6.31103,0.2685546 q 1.79932,0.053711 3.30322,0.510254 1.50391,0.4296875 2.60499,1.262207 1.10107,0.805664 1.71875,2.0141601 0.61767,1.18164066 0.61767,2.7661133 0,1.6650391 -0.69824,3.1689453 -0.69824,1.5039063 -2.14844,2.631836 -1.42334,1.1547851 -3.65234,1.7993164 -2.22901,0.6713867 -5.26367,0.6713867 -2.92725,0 -4.99512,-0.5102539 -2.04102,-0.4833984 -3.35694,-1.3427735 -1.31591,-0.859375 -1.90673,-2.067871 -0.59082,-1.1816407 -0.59082,-2.578125 0,-0.8862305 0.21484,-1.71875 Q 305.44067,0.75195312 305.87036,0 q 0.45654,-0.75195312 1.10108,-1.4233398 0.67138,-0.6982422 1.53076,-1.369629 -1.31592,-0.6713867 -1.96045,-1.6918945 -0.61768,-1.0205078 -0.61768,-2.2021484 0,-1.6381836 0.67139,-2.9272461 0.67139,-1.2890622 1.66504,-2.3095702 -0.83252,-0.993652 -1.31592,-2.229004 -0.4834,-1.262207 -0.4834,-3.034668 0,-2.067871 0.69824,-3.706055 0.69825,-1.638183 1.9336,-2.766113 1.23535,-1.12793 2.9541,-1.71875 1.7456,-0.617676 3.78662,-0.617676 1.10107,0 2.04102,0.134278 0.96679,0.107421 1.79931,0.322265 h 7.30469 q 0.45654,0 0.67139,0.456543 0.2417,0.429688 0.2417,1.342774 z m -6.92872,6.364746 q 0,-2.470703 -1.36962,-3.840332 -1.34278,-1.396485 -3.84034,-1.396485 -1.28906,0 -2.25586,0.429688 -0.93994,0.429687 -1.58447,1.18164 -0.61767,0.751954 -0.93994,1.745606 -0.29541,0.966797 -0.29541,2.041016 0,2.390136 1.34277,3.759765 1.36963,1.369629 3.81348,1.369629 1.31592,0 2.28272,-0.402832 0.96679,-0.429687 1.58447,-1.154785 0.64453,-0.751953 0.93994,-1.71875 0.32226,-0.966797 0.32226,-2.01416 z m 2.22901,19.1479489 q 0,-1.55761715 -1.28906,-2.39013668 -1.26221,-0.85937502 -3.4375,-0.91308592 l -6.25733,-0.2148438 q -0.85937,0.6713868 -1.42334,1.28906253 -0.53711,0.59082031 -0.85937,1.12792969 -0.32227,0.56396488 -0.45655,1.10107418 -0.10742,0.5371094 -0.10742,1.1010743 0,1.7456054 1.77246,2.6318359 1.77246,0.9130859 4.94141,0.9130859 2.01416,0 3.35693,-0.402832 1.36963,-0.3759766 2.20215,-1.0205078 0.83252,-0.6445313 1.18164,-1.4770508 0.37598,-0.8325195 0.37598,-1.7456055 z m 36.95312,-25.0292969 q 0,0.59082 -0.0269,0.993652 -0.0269,0.402832 -0.10742,0.644532 -0.0806,0.214843 -0.21485,0.349121 -0.10742,0.107422 -0.32226,0.107422 -0.21485,0 -0.53711,-0.107422 -0.29541,-0.134278 -0.69824,-0.241699 -0.37598,-0.134278 -0.85938,-0.2417 -0.4834,-0.107422 -1.04736,-0.107422 -0.67139,0 -1.31592,0.268555 -0.64453,0.268555 -1.36963,0.886231 -0.69824,0.617675 -1.47705,1.638183 -0.77881,1.020508 -1.71875,2.497559 v 15.89843728 q 0,0.21484375 -0.10742,0.37597656 -0.10742,0.13427735 -0.34912,0.24169922 -0.2417,0.10742188 -0.67139,0.16113281 -0.42969,0.0537109 -1.10107,0.0537109 -0.64454,0 -1.07422,-0.0537109 -0.42969,-0.05371093 -0.69825,-0.16113281 -0.24169,-0.10742187 -0.34912,-0.24169922 -0.0806,-0.16113281 -0.0806,-0.37597656 V -24.841309 q 0,-0.214843 0.0806,-0.349121 0.0806,-0.161132 0.32227,-0.268554 0.2417,-0.134278 0.61767,-0.161133 0.37598,-0.05371 0.99366,-0.05371 0.59082,0 0.96679,0.05371 0.40284,0.02686 0.61768,0.161133 0.21484,0.107422 0.29541,0.268554 0.10742,0.134278 0.10742,0.349121 v 3.518067 q 0.99365,-1.450195 1.85303,-2.363281 0.88623,-0.913086 1.66504,-1.42334 0.77881,-0.53711 1.53076,-0.725098 0.77881,-0.214844 1.55762,-0.214844 0.34912,0 0.77881,0.05371 0.45654,0.02686 0.93994,0.134278 0.4834,0.107421 0.85937,0.241699 0.40283,0.134277 0.56397,0.268555 0.16113,0.134277 0.21484,0.268554 0.0537,0.107422 0.0806,0.29541 0.0537,0.187989 0.0537,0.563965 0.0269,0.349121 0.0269,0.966797 z m 22.12891,22.61230475 q 0,0.32226562 -0.21484,0.48339844 Q 381.84448,0 381.46851,0.08056641 q -0.37598,0.0805664 -1.10108,0.0805664 -0.69824,0 -1.12793,-0.0805664 Q 378.83667,0 378.64868,-0.16113281 378.46069,-0.32226563 378.46069,-0.64453125 V -3.0615234 q -1.58447,1.6918945 -3.54492,2.6318359 -1.93359,0.93994141 -4.10889,0.93994141 -1.90673,0 -3.46435,-0.51025391 -1.53076,-0.48339844 -2.63184,-1.4233398 -1.07422,-0.9399415 -1.69189,-2.3095704 -0.59082,-1.3696289 -0.59082,-3.1152343 0,-2.0410157 0.83252,-3.5449215 0.83252,-1.503907 2.39013,-2.497559 1.55762,-0.993652 3.81348,-1.477051 2.25586,-0.510254 5.07568,-0.510254 h 3.33008 v -1.879882 q 0,-1.396485 -0.29541,-2.470704 -0.29541,-1.074218 -0.96679,-1.772461 -0.64454,-0.725097 -1.6919,-1.074218 -1.04736,-0.375977 -2.57812,-0.375977 -1.63819,0 -2.95411,0.402832 -1.28906,0.375977 -2.28271,0.859375 -0.9668,0.456543 -1.63818,0.859375 -0.64453,0.375977 -0.9668,0.375977 -0.21484,0 -0.37598,-0.107422 -0.16113,-0.107422 -0.29541,-0.322266 -0.10742,-0.214844 -0.16113,-0.537109 -0.0537,-0.349121 -0.0537,-0.751953 0,-0.671387 0.0806,-1.047364 0.10742,-0.402832 0.45654,-0.751953 0.37598,-0.349121 1.26221,-0.805664 0.88623,-0.483398 2.04101,-0.859375 1.15479,-0.402832 2.52442,-0.644531 1.36962,-0.268555 2.76611,-0.268555 2.60498,0 4.43115,0.590821 1.82617,0.59082 2.9541,1.745605 1.12793,1.12793 1.63819,2.819824 0.51025,1.691895 0.51025,3.947754 z m -4.4043,-11.03759775 h -3.78662 q -1.82617,0 -3.16894,0.322266 -1.34278,0.29541 -2.22901,0.913086 -0.88623,0.59082 -1.31592,1.450195 -0.40283,0.8325195 -0.40283,1.9335937 0,1.8798828 1.18164,3.0078125 1.2085,1.1010742 3.35694,1.1010742 1.7456,0 3.22265,-0.8862304 1.50391,-0.8862305 3.14209,-2.7124024 z m 33.3545,11.01074228 q 0,0.21484375 -0.10743,0.37597656 -0.10742,0.13427735 -0.34912,0.24169922 -0.2417,0.10742188 -0.67138,0.16113281 -0.42969,0.0537109 -1.07422,0.0537109 -0.67139,0 -1.10108,-0.0537109 -0.42968,-0.05371093 -0.67138,-0.16113281 -0.2417,-0.10742187 -0.34913,-0.24169922 -0.10742,-0.16113281 -0.10742,-0.37597656 V -14.824219 q 0,-2.067871 -0.32226,-3.330078 -0.32227,-1.262207 -0.93994,-2.175293 -0.61768,-0.913086 -1.61133,-1.396484 -0.9668,-0.483399 -2.25586,-0.483399 -1.66504,0 -3.33008,1.181641 -1.66504,1.181641 -3.49121,3.464355 v 16.89209028 q 0,0.21484375 -0.10742,0.37597656 -0.10742,0.13427735 -0.34912,0.24169922 -0.2417,0.10742188 -0.67139,0.16113281 -0.42969,0.0537109 -1.10107,0.0537109 -0.64454,0 -1.07422,-0.0537109 -0.42969,-0.05371093 -0.69825,-0.16113281 -0.24169,-0.10742187 -0.34912,-0.24169922 -0.0806,-0.16113281 -0.0806,-0.37597656 V -24.841309 q 0,-0.214843 0.0806,-0.349121 0.0806,-0.161132 0.32227,-0.268554 0.2417,-0.134278 0.61767,-0.161133 0.37598,-0.05371 0.99366,-0.05371 0.59082,0 0.96679,0.05371 0.40284,0.02686 0.61768,0.161133 0.21484,0.107422 0.29541,0.268554 0.10742,0.134278 0.10742,0.349121 v 3.195801 q 2.04102,-2.282715 4.05518,-3.330078 2.04101,-1.074219 4.10888,-1.074219 2.417,0 4.05518,0.83252 1.66504,0.805664 2.68555,2.175293 1.0205,1.369629 1.45019,3.222656 0.45655,1.826172 0.45655,4.404297 z m 28.2788,-23.06884728 q 0,0.939941 -0.26855,1.369629 -0.2417,0.402832 -0.64453,0.402832 h -3.46436 q 0.93994,0.966796 1.31592,2.148437 0.37598,1.154785 0.37598,2.416992 0,2.094727 -0.67139,3.706055 -0.67139,1.611328 -1.93359,2.739258 -1.23536,1.101074 -2.95411,1.6918943 -1.71875,0.5908203 -3.81347,0.5908203 -1.47705,0 -2.81983,-0.3759766 -1.31591,-0.402832 -2.04101,-0.993652 -0.4834,0.4833981 -0.80567,1.1010739 -0.29541,0.6176758 -0.29541,1.4233399 0,0.9399414 0.85938,1.5576171 0.88623,0.6176758 2.33643,0.6713868 l 6.31103,0.2685546 q 1.79932,0.053711 3.30322,0.510254 1.50391,0.4296875 2.60498,1.262207 1.10108,0.805664 1.71875,2.0141601 0.61768,1.18164066 0.61768,2.7661133 0,1.6650391 -0.69824,3.1689453 -0.69825,1.5039063 -2.14844,2.631836 -1.42334,1.1547851 -3.65234,1.7993164 -2.22901,0.6713867 -5.26368,0.6713867 -2.92724,0 -4.99511,-0.5102539 -2.04102,-0.4833984 -3.35694,-1.3427735 -1.31591,-0.859375 -1.90674,-2.067871 -0.59082,-1.1816407 -0.59082,-2.578125 0,-0.8862305 0.21485,-1.71875 Q 417.052,0.75195312 417.48169,0 q 0.45654,-0.75195312 1.10107,-1.4233398 0.67139,-0.6982422 1.53077,-1.369629 -1.31592,-0.6713867 -1.96045,-1.6918945 -0.61768,-1.0205078 -0.61768,-2.2021484 0,-1.6381836 0.67139,-2.9272461 0.67138,-1.2890622 1.66504,-2.3095702 -0.83252,-0.993652 -1.31592,-2.229004 -0.4834,-1.262207 -0.4834,-3.034668 0,-2.067871 0.69824,-3.706055 0.69824,-1.638183 1.9336,-2.766113 1.23535,-1.12793 2.9541,-1.71875 1.7456,-0.617676 3.78662,-0.617676 1.10107,0 2.04101,0.134278 0.9668,0.107421 1.79932,0.322265 h 7.30469 q 0.45654,0 0.67138,0.456543 0.2417,0.429688 0.2417,1.342774 z m -6.92871,6.364746 q 0,-2.470703 -1.36963,-3.840332 -1.34277,-1.396485 -3.84033,-1.396485 -1.28906,0 -2.25586,0.429688 -0.93994,0.429687 -1.58447,1.18164 -0.61768,0.751954 -0.93994,1.745606 -0.29541,0.966797 -0.29541,2.041016 0,2.390136 1.34277,3.759765 1.36963,1.369629 3.81348,1.369629 1.31592,0 2.28271,-0.402832 0.9668,-0.429687 1.58448,-1.154785 0.64453,-0.751953 0.93994,-1.71875 0.32226,-0.966797 0.32226,-2.01416 z m 2.22901,19.1479489 q 0,-1.55761715 -1.28907,-2.39013668 -1.2622,-0.85937502 -3.4375,-0.91308592 l -6.25732,-0.2148438 q -0.85937,0.6713868 -1.42334,1.28906253 -0.53711,0.59082031 -0.85937,1.12792969 -0.32227,0.56396488 -0.45655,1.10107418 -0.10742,0.5371094 -0.10742,1.1010743 0,1.7456054 1.77246,2.6318359 1.77246,0.9130859 4.94141,0.9130859 2.01416,0 3.35693,-0.402832 1.36963,-0.3759766 2.20215,-1.0205078 0.83252,-0.6445313 1.18164,-1.4770508 0.37598,-0.8325195 0.37598,-1.7456055 z m 30.56152,-15.5761719 q 0,1.047363 -0.53711,1.503906 -0.51025,0.429688 -1.18164,0.429688 h -15.84473 q 0,2.01416 0.40284,3.6254881 0.40283,1.6113281 1.34277,2.7661133 0.93994,1.1547851 2.44385,1.7724609 1.5039,0.6176758 3.6792,0.6176758 1.71875,0 3.06152,-0.2685547 1.34277,-0.2954102 2.30957,-0.6445312 0.99365,-0.3491211 1.61133,-0.6176758 0.64453,-0.2954102 0.96679,-0.2954102 0.18799,0 0.32227,0.1074219 0.16113,0.080566 0.2417,0.2685547 0.0806,0.1879883 0.10742,0.5371094 0.0537,0.3222656 0.0537,0.805664 0,0.3491211 -0.0268,0.6176758 -0.0269,0.2416992 -0.0806,0.456543 -0.0268,0.1879883 -0.13428,0.3491211 -0.0806,0.1611328 -0.2417,0.3222656 -0.13427,0.1342773 -0.85937,0.48339842 -0.7251,0.32226563 -1.87988,0.64453125 Q 459.96704,0 458.43628,0.24169922 q -1.50391,0.26855469 -3.22266,0.26855469 -2.98095,0 -5.23681,-0.83251954 -2.22901,-0.83251957 -3.75977,-2.47070317 -1.53076,-1.6381835 -2.30957,-4.1088867 -0.77881,-2.4707031 -0.77881,-5.7470705 0,-3.115234 0.80567,-5.585937 0.80566,-2.497559 2.30957,-4.216309 1.53076,-1.745605 3.6792,-2.658691 2.14843,-0.939942 4.80712,-0.939942 2.84668,0 4.83399,0.913086 2.01416,0.913086 3.30322,2.470703 1.28906,1.530762 1.87988,3.625489 0.61768,2.067871 0.61768,4.431152 z m -4.45801,-1.315918 q 0.0806,-3.491211 -1.55761,-5.478516 -1.61133,-1.987304 -4.80713,-1.987304 -1.63819,0 -2.87354,0.617676 -1.23535,0.617675 -2.06787,1.638183 -0.83252,1.020508 -1.28906,2.390137 -0.45655,1.342773 -0.51026,2.819824 z"
       id="text2"
       transform="translate(2132.25,701)"
       aria-label="Start recording range" /></g></svg>
