<svg width="655" height="585" xmlns="http://www.w3.org/2000/svg" xmlns:xlink="http://www.w3.org/1999/xlink" xml:space="preserve" overflow="hidden"><g transform="translate(-1717 -1856)"><path d="M1737.38 1935.5C1739.52 1935.5 1741.25 1933.76 1741.25 1931.62L1737.38 1931.62C1738.45 1931.62 1739.31 1930.76 1739.31 1929.69 1739.31 1928.62 1738.45 1927.75 1737.38 1927.75L1741.25 1927.75 1741.25 1877.37C1741.25 1875.23 1742.98 1873.5 1745.12 1873.5L1861.62 1873.5C1863.77 1873.5 1865.5 1875.23 1865.5 1877.37 1865.5 1879.51 1863.77 1881.25 1861.62 1881.25L1857.75 1881.25 1857.75 1931.62C1857.75 1933.76 1856.02 1935.5 1853.88 1935.5ZM1749 1877.37C1749 1879.51 1747.27 1881.25 1745.13 1881.25 1744.05 1881.25 1743.19 1880.38 1743.19 1879.31 1743.19 1878.24 1744.05 1877.37 1745.13 1877.37Z" fill="#FFFFFF" fill-rule="evenodd"/><path d="M1749 1877.37C1749 1879.51 1747.27 1881.25 1745.13 1881.25 1744.05 1881.25 1743.19 1880.38 1743.19 1879.31 1743.19 1878.24 1744.05 1877.37 1745.13 1877.37ZM1741.25 1931.62C1741.25 1933.76 1739.52 1935.5 1737.38 1935.5 1735.23 1935.5 1733.5 1933.76 1733.5 1931.62 1733.5 1929.48 1735.23 1927.75 1737.38 1927.75 1738.45 1927.75 1739.31 1928.62 1739.31 1929.69 1739.31 1930.76 1738.45 1931.62 1737.38 1931.62Z" fill="#CDCDCD" fill-rule="evenodd"/><path d="M1741.25 1927.75 1741.25 1877.37C1741.25 1875.23 1742.98 1873.5 1745.12 1873.5L1861.62 1873.5C1863.77 1873.5 1865.5 1875.23 1865.5 1877.37 1865.5 1879.51 1863.77 1881.25 1861.62 1881.25L1857.75 1881.25 1857.75 1931.62C1857.75 1933.76 1856.02 1935.5 1853.88 1935.5L1737.38 1935.5C1735.23 1935.5 1733.5 1933.76 1733.5 1931.62 1733.5 1929.48 1735.23 1927.75 1737.38 1927.75ZM1745.12 1873.5C1747.27 1873.5 1749 1875.23 1749 1877.37 1749 1879.51 1747.27 1881.25 1745.12 1881.25 1744.05 1881.25 1743.19 1880.38 1743.19 1879.31 1743.19 1878.24 1744.05 1877.37 1745.12 1877.37L1749 1877.37M1857.75 1881.25 1745.12 1881.25M1737.38 1927.75C1738.45 1927.75 1739.31 1928.62 1739.31 1929.69 1739.31 1930.76 1738.45 1931.62 1737.38 1931.62L1741.25 1931.62M1737.38 1935.5C1739.52 1935.5 1741.25 1933.76 1741.25 1931.62L1741.25 1927.75" stroke="#7030A0" stroke-width="3.4375" stroke-linejoin="round" stroke-miterlimit="10" fill="none" fill-rule="evenodd"/><text font-family="Calibri,Calibri_MSFontService,sans-serif" font-weight="400" font-size="55" transform="matrix(1 0 0 1 1773.54 1924)">2</text><path d="M1722.37 2016.5C1724.51 2016.5 1726.25 2014.77 1726.25 2012.62L1722.37 2012.62C1723.44 2012.62 1724.31 2011.76 1724.31 2010.69 1724.31 2009.62 1723.44 2008.75 1722.37 2008.75L1726.25 2008.75 1726.25 1958.38C1726.25 1956.23 1727.98 1954.5 1730.12 1954.5L1846.62 1954.5C1848.77 1954.5 1850.5 1956.23 1850.5 1958.38 1850.5 1960.52 1848.77 1962.25 1846.62 1962.25L1842.75 1962.25 1842.75 2012.62C1842.75 2014.77 1841.02 2016.5 1838.88 2016.5ZM1734 1958.38C1734 1960.52 1732.27 1962.25 1730.12 1962.25 1729.05 1962.25 1728.19 1961.38 1728.19 1960.31 1728.19 1959.24 1729.05 1958.38 1730.12 1958.38Z" fill="#FFFFFF" fill-rule="evenodd"/><path d="M1734 1958.38C1734 1960.52 1732.27 1962.25 1730.12 1962.25 1729.05 1962.25 1728.19 1961.38 1728.19 1960.31 1728.19 1959.24 1729.05 1958.38 1730.12 1958.38ZM1726.25 2012.62C1726.25 2014.77 1724.51 2016.5 1722.37 2016.5 1720.23 2016.5 1718.5 2014.77 1718.5 2012.62 1718.5 2010.48 1720.23 2008.75 1722.37 2008.75 1723.44 2008.75 1724.31 2009.62 1724.31 2010.69 1724.31 2011.76 1723.44 2012.63 1722.37 2012.63Z" fill="#CDCDCD" fill-rule="evenodd"/><path d="M1726.25 2008.75 1726.25 1958.38C1726.25 1956.23 1727.98 1954.5 1730.12 1954.5L1846.62 1954.5C1848.77 1954.5 1850.5 1956.23 1850.5 1958.38 1850.5 1960.52 1848.77 1962.25 1846.62 1962.25L1842.75 1962.25 1842.75 2012.62C1842.75 2014.77 1841.02 2016.5 1838.88 2016.5L1722.37 2016.5C1720.23 2016.5 1718.5 2014.77 1718.5 2012.62 1718.5 2010.48 1720.23 2008.75 1722.37 2008.75ZM1730.12 1954.5C1732.26 1954.5 1734 1956.23 1734 1958.38 1734 1960.52 1732.26 1962.25 1730.12 1962.25 1729.05 1962.25 1728.19 1961.38 1728.19 1960.31 1728.19 1959.24 1729.05 1958.38 1730.12 1958.38L1734 1958.38M1842.75 1962.25 1730.12 1962.25M1722.37 2008.75C1723.44 2008.75 1724.31 2009.62 1724.31 2010.69 1724.31 2011.76 1723.44 2012.63 1722.37 2012.63L1726.25 2012.62M1722.37 2016.5C1724.51 2016.5 1726.25 2014.77 1726.25 2012.62L1726.25 2008.75" stroke="#7030A0" stroke-width="3.4375" stroke-linejoin="round" stroke-miterlimit="10" fill="none" fill-rule="evenodd"/><text font-family="Calibri,Calibri_MSFontService,sans-serif" font-weight="400" font-size="55" transform="matrix(1 0 0 1 1758.76 2005)">3</text><path d="M2242.38 2112.5C2244.52 2112.5 2246.25 2110.76 2246.25 2108.62L2242.38 2108.62C2243.45 2108.62 2244.31 2107.76 2244.31 2106.69 2244.31 2105.62 2243.45 2104.75 2242.38 2104.75L2246.25 2104.75 2246.25 2054.38C2246.25 2052.23 2247.98 2050.5 2250.12 2050.5L2366.62 2050.5C2368.77 2050.5 2370.5 2052.23 2370.5 2054.38 2370.5 2056.52 2368.77 2058.25 2366.62 2058.25L2362.75 2058.25 2362.75 2108.62C2362.75 2110.76 2361.02 2112.5 2358.88 2112.5ZM2254 2054.38C2254 2056.52 2252.27 2058.25 2250.12 2058.25 2249.05 2058.25 2248.19 2057.38 2248.19 2056.31 2248.19 2055.24 2249.05 2054.37 2250.12 2054.37Z" fill="#FFFFFF" fill-rule="evenodd"/><path d="M2254 2054.38C2254 2056.52 2252.27 2058.25 2250.12 2058.25 2249.05 2058.25 2248.19 2057.38 2248.19 2056.31 2248.19 2055.24 2249.05 2054.37 2250.12 2054.37ZM2246.25 2108.62C2246.25 2110.76 2244.52 2112.5 2242.38 2112.5 2240.23 2112.5 2238.5 2110.76 2238.5 2108.62 2238.5 2106.48 2240.23 2104.75 2242.38 2104.75 2243.45 2104.75 2244.31 2105.62 2244.31 2106.69 2244.31 2107.76 2243.45 2108.62 2242.38 2108.62Z" fill="#CDCDCD" fill-rule="evenodd"/><path d="M2246.25 2104.75 2246.25 2054.38C2246.25 2052.23 2247.98 2050.5 2250.12 2050.5L2366.62 2050.5C2368.77 2050.5 2370.5 2052.23 2370.5 2054.38 2370.5 2056.52 2368.77 2058.25 2366.62 2058.25L2362.75 2058.25 2362.75 2108.62C2362.75 2110.76 2361.02 2112.5 2358.88 2112.5L2242.38 2112.5C2240.23 2112.5 2238.5 2110.76 2238.5 2108.62 2238.5 2106.48 2240.23 2104.75 2242.38 2104.75ZM2250.12 2050.5C2252.26 2050.5 2254 2052.23 2254 2054.38 2254 2056.52 2252.26 2058.25 2250.12 2058.25 2249.05 2058.25 2248.19 2057.38 2248.19 2056.31 2248.19 2055.24 2249.05 2054.37 2250.12 2054.37L2254 2054.38M2362.75 2058.25 2250.12 2058.25M2242.38 2104.75C2243.45 2104.75 2244.31 2105.62 2244.31 2106.69 2244.31 2107.76 2243.45 2108.62 2242.38 2108.62L2246.25 2108.62M2242.38 2112.5C2244.52 2112.5 2246.25 2110.76 2246.25 2108.62L2246.25 2104.75" stroke="#FF0000" stroke-width="3.4375" stroke-linejoin="round" stroke-miterlimit="10" fill="none" fill-rule="evenodd"/><text font-family="Calibri,Calibri_MSFontService,sans-serif" font-weight="400" font-size="55" transform="matrix(1 0 0 1 2278.84 2101)">4</text><path d="M2183.37 2190.5C2185.51 2190.5 2187.25 2188.76 2187.25 2186.62L2183.37 2186.62C2184.44 2186.62 2185.31 2185.76 2185.31 2184.69 2185.31 2183.62 2184.44 2182.75 2183.37 2182.75L2187.25 2182.75 2187.25 2132.38C2187.25 2130.23 2188.98 2128.5 2191.12 2128.5L2307.62 2128.5C2309.76 2128.5 2311.5 2130.23 2311.5 2132.38 2311.5 2134.52 2309.76 2136.25 2307.62 2136.25L2303.75 2136.25 2303.75 2186.62C2303.75 2188.76 2302.01 2190.5 2299.87 2190.5ZM2195 2132.38C2195 2134.52 2193.26 2136.25 2191.12 2136.25 2190.05 2136.25 2189.19 2135.38 2189.19 2134.31 2189.19 2133.24 2190.05 2132.37 2191.12 2132.37Z" fill="#FFFFFF" fill-rule="evenodd"/><path d="M2195 2132.38C2195 2134.52 2193.26 2136.25 2191.12 2136.25 2190.05 2136.25 2189.19 2135.38 2189.19 2134.31 2189.19 2133.24 2190.05 2132.37 2191.12 2132.37ZM2187.25 2186.62C2187.25 2188.76 2185.51 2190.5 2183.37 2190.5 2181.23 2190.5 2179.5 2188.76 2179.5 2186.62 2179.5 2184.48 2181.23 2182.75 2183.37 2182.75 2184.44 2182.75 2185.31 2183.62 2185.31 2184.69 2185.31 2185.76 2184.44 2186.62 2183.37 2186.62Z" fill="#CDCDCD" fill-rule="evenodd"/><path d="M2187.25 2182.75 2187.25 2132.38C2187.25 2130.23 2188.98 2128.5 2191.12 2128.5L2307.62 2128.5C2309.76 2128.5 2311.5 2130.23 2311.5 2132.38 2311.5 2134.52 2309.76 2136.25 2307.62 2136.25L2303.75 2136.25 2303.75 2186.62C2303.75 2188.76 2302.01 2190.5 2299.87 2190.5L2183.37 2190.5C2181.23 2190.5 2179.5 2188.76 2179.5 2186.62 2179.5 2184.48 2181.23 2182.75 2183.37 2182.75ZM2191.12 2128.5C2193.26 2128.5 2195 2130.23 2195 2132.38 2195 2134.52 2193.26 2136.25 2191.12 2136.25 2190.05 2136.25 2189.19 2135.38 2189.19 2134.31 2189.19 2133.24 2190.05 2132.37 2191.12 2132.37L2195 2132.38M2303.75 2136.25 2191.12 2136.25M2183.37 2182.75C2184.44 2182.75 2185.31 2183.62 2185.31 2184.69 2185.31 2185.76 2184.44 2186.62 2183.37 2186.62L2187.25 2186.62M2183.37 2190.5C2185.51 2190.5 2187.25 2188.76 2187.25 2186.62L2187.25 2182.75" stroke="#FF0000" stroke-width="3.4375" stroke-linejoin="round" stroke-miterlimit="10" fill="none" fill-rule="evenodd"/><text font-family="Calibri,Calibri_MSFontService,sans-serif" font-weight="400" font-size="55" transform="matrix(1 0 0 1 2219.98 2179)">5</text><path d="M1748.5 2112.5C1748.5 1974.98 1859.98 1863.5 1997.5 1863.5 2135.02 1863.5 2246.5 1974.98 2246.5 2112.5 2246.5 2250.02 2135.02 2361.5 1997.5 2361.5 1859.98 2361.5 1748.5 2250.02 1748.5 2112.5Z" stroke="#ED7D31" stroke-width="4.58333" stroke-linejoin="round" stroke-miterlimit="10" stroke-dasharray="18.3333 13.75" fill="none" fill-rule="evenodd"/><path d="M1748.38 2349.5C1750.52 2349.5 1752.25 2347.77 1752.25 2345.63L1748.38 2345.63C1749.45 2345.63 1750.31 2344.76 1750.31 2343.69 1750.31 2342.62 1749.45 2341.75 1748.38 2341.75L1752.25 2341.75 1752.25 2291.38C1752.25 2289.24 1753.98 2287.5 1756.12 2287.5L1872.62 2287.5C1874.77 2287.5 1876.5 2289.24 1876.5 2291.38 1876.5 2293.52 1874.77 2295.25 1872.62 2295.25L1868.75 2295.25 1868.75 2345.63C1868.75 2347.77 1867.02 2349.5 1864.88 2349.5ZM1760 2291.38C1760 2293.52 1758.27 2295.25 1756.13 2295.25 1755.05 2295.25 1754.19 2294.38 1754.19 2293.31 1754.19 2292.24 1755.05 2291.38 1756.13 2291.38Z" fill="#FFFFFF" fill-rule="evenodd"/><path d="M1760 2291.38C1760 2293.52 1758.27 2295.25 1756.13 2295.25 1755.05 2295.25 1754.19 2294.38 1754.19 2293.31 1754.19 2292.24 1755.05 2291.38 1756.13 2291.38ZM1752.25 2345.63C1752.25 2347.77 1750.52 2349.5 1748.38 2349.5 1746.23 2349.5 1744.5 2347.77 1744.5 2345.63 1744.5 2343.49 1746.23 2341.75 1748.38 2341.75 1749.45 2341.75 1750.31 2342.62 1750.31 2343.69 1750.31 2344.76 1749.45 2345.63 1748.38 2345.63Z" fill="#CDCDCD" fill-rule="evenodd"/><path d="M1752.25 2341.75 1752.25 2291.38C1752.25 2289.24 1753.98 2287.5 1756.12 2287.5L1872.62 2287.5C1874.77 2287.5 1876.5 2289.24 1876.5 2291.38 1876.5 2293.52 1874.77 2295.25 1872.62 2295.25L1868.75 2295.25 1868.75 2345.63C1868.75 2347.77 1867.02 2349.5 1864.88 2349.5L1748.38 2349.5C1746.23 2349.5 1744.5 2347.77 1744.5 2345.63 1744.5 2343.49 1746.23 2341.75 1748.38 2341.75ZM1756.12 2287.5C1758.27 2287.5 1760 2289.24 1760 2291.38 1760 2293.52 1758.27 2295.25 1756.12 2295.25 1755.05 2295.25 1754.19 2294.38 1754.19 2293.31 1754.19 2292.24 1755.05 2291.38 1756.12 2291.38L1760 2291.38M1868.75 2295.25 1756.12 2295.25M1748.38 2341.75C1749.45 2341.75 1750.31 2342.62 1750.31 2343.69 1750.31 2344.76 1749.45 2345.63 1748.38 2345.63L1752.25 2345.63M1748.38 2349.5C1750.52 2349.5 1752.25 2347.77 1752.25 2345.63L1752.25 2341.75" stroke="#00B0F0" stroke-width="3.4375" stroke-linejoin="round" stroke-miterlimit="10" fill="none" fill-rule="evenodd"/><text font-family="Calibri,Calibri_MSFontService,sans-serif" font-weight="400" font-size="55" transform="matrix(1 0 0 1 1784.58 2338)">6</text><path d="M1803.38 2404.5C1805.52 2404.5 1807.25 2402.77 1807.25 2400.63L1803.38 2400.63C1804.45 2400.63 1805.31 2399.76 1805.31 2398.69 1805.31 2397.62 1804.45 2396.75 1803.38 2396.75L1807.25 2396.75 1807.25 2346.38C1807.25 2344.24 1808.98 2342.5 1811.12 2342.5L1927.62 2342.5C1929.77 2342.5 1931.5 2344.24 1931.5 2346.38 1931.5 2348.52 1929.77 2350.25 1927.62 2350.25L1923.75 2350.25 1923.75 2400.63C1923.75 2402.77 1922.02 2404.5 1919.88 2404.5ZM1815 2346.38C1815 2348.52 1813.27 2350.25 1811.13 2350.25 1810.05 2350.25 1809.19 2349.38 1809.19 2348.31 1809.19 2347.24 1810.05 2346.38 1811.13 2346.38Z" fill="#FFFFFF" fill-rule="evenodd"/><path d="M1815 2346.38C1815 2348.52 1813.27 2350.25 1811.13 2350.25 1810.05 2350.25 1809.19 2349.38 1809.19 2348.31 1809.19 2347.24 1810.05 2346.38 1811.13 2346.38ZM1807.25 2400.63C1807.25 2402.77 1805.52 2404.5 1803.38 2404.5 1801.23 2404.5 1799.5 2402.77 1799.5 2400.63 1799.5 2398.49 1801.23 2396.75 1803.38 2396.75 1804.45 2396.75 1805.31 2397.62 1805.31 2398.69 1805.31 2399.76 1804.45 2400.63 1803.38 2400.63Z" fill="#CDCDCD" fill-rule="evenodd"/><path d="M1807.25 2396.75 1807.25 2346.38C1807.25 2344.24 1808.98 2342.5 1811.12 2342.5L1927.62 2342.5C1929.77 2342.5 1931.5 2344.24 1931.5 2346.38 1931.5 2348.52 1929.77 2350.25 1927.62 2350.25L1923.75 2350.25 1923.75 2400.63C1923.75 2402.77 1922.02 2404.5 1919.88 2404.5L1803.38 2404.5C1801.23 2404.5 1799.5 2402.77 1799.5 2400.63 1799.5 2398.49 1801.23 2396.75 1803.38 2396.75ZM1811.12 2342.5C1813.27 2342.5 1815 2344.24 1815 2346.38 1815 2348.52 1813.27 2350.25 1811.12 2350.25 1810.05 2350.25 1809.19 2349.38 1809.19 2348.31 1809.19 2347.24 1810.05 2346.38 1811.12 2346.38L1815 2346.38M1923.75 2350.25 1811.12 2350.25M1803.38 2396.75C1804.45 2396.75 1805.31 2397.62 1805.31 2398.69 1805.31 2399.76 1804.45 2400.63 1803.38 2400.63L1807.25 2400.63M1803.38 2404.5C1805.52 2404.5 1807.25 2402.77 1807.25 2400.63L1807.25 2396.75" stroke="#00B0F0" stroke-width="3.4375" stroke-linejoin="round" stroke-miterlimit="10" fill="none" fill-rule="evenodd"/><text font-family="Calibri,Calibri_MSFontService,sans-serif" font-weight="400" font-size="55" transform="matrix(1 0 0 1 1839.58 2393)">7</text><path d="M1854.37 2351.5C1856.51 2351.5 1858.25 2349.76 1858.25 2347.62L1854.37 2347.62C1855.44 2347.62 1856.31 2346.76 1856.31 2345.69 1856.31 2344.62 1855.44 2343.75 1854.37 2343.75L1858.25 2343.75 1858.25 2293.37C1858.25 2291.23 1859.98 2289.5 1862.12 2289.5L1978.62 2289.5C1980.77 2289.5 1982.5 2291.23 1982.5 2293.37 1982.5 2295.51 1980.77 2297.25 1978.62 2297.25L1974.75 2297.25 1974.75 2347.62C1974.75 2349.76 1973.02 2351.5 1970.88 2351.5ZM1866 2293.37C1866 2295.51 1864.27 2297.25 1862.12 2297.25 1861.05 2297.25 1860.19 2296.38 1860.19 2295.31 1860.19 2294.24 1861.05 2293.37 1862.12 2293.37Z" fill="#FFFFFF" fill-rule="evenodd"/><path d="M1866 2293.37C1866 2295.51 1864.27 2297.25 1862.12 2297.25 1861.05 2297.25 1860.19 2296.38 1860.19 2295.31 1860.19 2294.24 1861.05 2293.37 1862.12 2293.37ZM1858.25 2347.62C1858.25 2349.76 1856.51 2351.5 1854.37 2351.5 1852.23 2351.5 1850.5 2349.76 1850.5 2347.62 1850.5 2345.48 1852.23 2343.75 1854.37 2343.75 1855.44 2343.75 1856.31 2344.62 1856.31 2345.69 1856.31 2346.76 1855.44 2347.62 1854.37 2347.62Z" fill="#CDCDCD" fill-rule="evenodd"/><path d="M1858.25 2343.75 1858.25 2293.37C1858.25 2291.23 1859.98 2289.5 1862.12 2289.5L1978.62 2289.5C1980.77 2289.5 1982.5 2291.23 1982.5 2293.37 1982.5 2295.51 1980.77 2297.25 1978.62 2297.25L1974.75 2297.25 1974.75 2347.62C1974.75 2349.76 1973.02 2351.5 1970.88 2351.5L1854.37 2351.5C1852.23 2351.5 1850.5 2349.76 1850.5 2347.62 1850.5 2345.48 1852.23 2343.75 1854.37 2343.75ZM1862.12 2289.5C1864.26 2289.5 1866 2291.23 1866 2293.37 1866 2295.51 1864.26 2297.25 1862.12 2297.25 1861.05 2297.25 1860.19 2296.38 1860.19 2295.31 1860.19 2294.24 1861.05 2293.37 1862.12 2293.37L1866 2293.37M1974.75 2297.25 1862.12 2297.25M1854.37 2343.75C1855.44 2343.75 1856.31 2344.62 1856.31 2345.69 1856.31 2346.76 1855.44 2347.62 1854.37 2347.62L1858.25 2347.62M1854.37 2351.5C1856.51 2351.5 1858.25 2349.76 1858.25 2347.62L1858.25 2343.75" stroke="#00B0F0" stroke-width="3.4375" stroke-linejoin="round" stroke-miterlimit="10" fill="none" fill-rule="evenodd"/><text font-family="Calibri,Calibri_MSFontService,sans-serif" font-weight="400" font-size="55" transform="matrix(1 0 0 1 1890.85 2340)">8</text><text font-family="Calibri,Calibri_MSFontService,sans-serif" font-weight="700" font-size="83" transform="matrix(1 0 0 1 1805.64 2163)">clustering</text></g></svg>