<?xml version="1.0" encoding="UTF-8" standalone="no"?>
<svg
   width="902"
   height="580"
   xml:space="preserve"
   overflow="hidden"
   version="1.1"
   id="svg2"
   sodipodi:docname="LAfD_7.svg"
   inkscape:version="1.3.2 (091e20e, 2023-11-25, custom)"
   xmlns:inkscape="http://www.inkscape.org/namespaces/inkscape"
   xmlns:sodipodi="http://sodipodi.sourceforge.net/DTD/sodipodi-0.dtd"
   xmlns="http://www.w3.org/2000/svg"
   xmlns:svg="http://www.w3.org/2000/svg"><defs
     id="defs2" /><sodipodi:namedview
     id="namedview2"
     pagecolor="#ffffff"
     bordercolor="#000000"
     borderopacity="0.25"
     inkscape:showpageshadow="2"
     inkscape:pageopacity="0.0"
     inkscape:pagecheckerboard="0"
     inkscape:deskcolor="#d1d1d1"
     inkscape:zoom="1.3896552"
     inkscape:cx="450.83127"
     inkscape:cy="290"
     inkscape:window-width="1920"
     inkscape:window-height="1002"
     inkscape:window-x="-8"
     inkscape:window-y="-8"
     inkscape:window-maximized="1"
     inkscape:current-layer="svg2" /><g
     transform="translate(-1746 -633)"
     id="g2"><path
       d="M1748.5 962C1748.5 824.757 1859.98 713.5 1997.5 713.5 2135.02 713.5 2246.5 824.757 2246.5 962 2246.5 1099.24 2135.02 1210.5 1997.5 1210.5 1859.98 1210.5 1748.5 1099.24 1748.5 962Z"
       stroke="#ED7D31"
       stroke-width="4.58333"
       stroke-linejoin="round"
       stroke-miterlimit="10"
       stroke-dasharray="18.3333 13.75"
       fill="none"
       fill-rule="evenodd"
       id="path1" /><path
       d="M2088.5 658.834C2088.5 652.022 2094.02 646.5 2100.83 646.5L2181.5 646.5 2181.5 646.5 2321 646.5 2634.17 646.5C2640.98 646.5 2646.5 652.022 2646.5 658.834L2646.5 689.667 2646.5 689.667 2646.5 708.167 2646.5 708.167C2646.5 714.978 2640.98 720.5 2634.17 720.5L2321 720.5 2165.74 777.826 2181.5 720.5 2100.83 720.5C2094.02 720.5 2088.5 714.978 2088.5 708.167L2088.5 708.167 2088.5 689.667 2088.5 689.667Z"
       stroke="#ED7D31"
       stroke-width="3.4375"
       stroke-linejoin="round"
       stroke-miterlimit="10"
       fill="none"
       fill-rule="evenodd"
       id="path2" /><text
       fill="#ed7d31"
       font-family="Calibri, Calibri_MSFontService, sans-serif"
       font-weight="400"
       font-size="55px"
       transform="translate(2132.25,701)"
       id="text2"
       x="232.86377"
       y="0"><tspan
         style="text-align:center;text-anchor:middle"
         id="tspan2">Start recording range</tspan></text></g></svg>
