<svg width="717" height="411" xmlns="http://www.w3.org/2000/svg" xmlns:xlink="http://www.w3.org/1999/xlink" xml:space="preserve" overflow="hidden"><g transform="translate(-1431 -1624)"><text font-family="Calibri,Calibri_MSFontService,sans-serif" font-weight="400" font-size="83" transform="matrix(1 0 0 1 1480.51 1894)">3.</text><path d="M1812.38 1998.5C1814.52 1998.5 1816.25 1996.77 1816.25 1994.63L1812.38 1994.63C1813.45 1994.63 1814.31 1993.76 1814.31 1992.69 1814.31 1991.62 1813.45 1990.75 1812.38 1990.75L1816.25 1990.75 1816.25 1940.37C1816.25 1938.23 1817.98 1936.5 1820.13 1936.5L1936.62 1936.5C1938.77 1936.5 1940.5 1938.23 1940.5 1940.37 1940.5 1942.51 1938.77 1944.25 1936.62 1944.25L1932.75 1944.25 1932.75 1994.63C1932.75 1996.77 1931.02 1998.5 1928.88 1998.5ZM1824 1940.37C1824 1942.51 1822.27 1944.25 1820.13 1944.25 1819.05 1944.25 1818.19 1943.38 1818.19 1942.31 1818.19 1941.24 1819.05 1940.37 1820.13 1940.37Z" fill="#FFFFFF" fill-rule="evenodd"/><path d="M1824 1940.37C1824 1942.51 1822.27 1944.25 1820.13 1944.25 1819.05 1944.25 1818.19 1943.38 1818.19 1942.31 1818.19 1941.24 1819.05 1940.37 1820.13 1940.37ZM1816.25 1994.63C1816.25 1996.77 1814.52 1998.5 1812.38 1998.5 1810.23 1998.5 1808.5 1996.77 1808.5 1994.63 1808.5 1992.48 1810.23 1990.75 1812.38 1990.75 1813.45 1990.75 1814.31 1991.62 1814.31 1992.69 1814.31 1993.76 1813.45 1994.63 1812.38 1994.63Z" fill="#CDCDCD" fill-rule="evenodd"/><path d="M1816.25 1990.75 1816.25 1940.37C1816.25 1938.23 1817.98 1936.5 1820.13 1936.5L1936.62 1936.5C1938.77 1936.5 1940.5 1938.23 1940.5 1940.37 1940.5 1942.51 1938.77 1944.25 1936.62 1944.25L1932.75 1944.25 1932.75 1994.63C1932.75 1996.77 1931.02 1998.5 1928.88 1998.5L1812.38 1998.5C1810.23 1998.5 1808.5 1996.77 1808.5 1994.63 1808.5 1992.48 1810.23 1990.75 1812.38 1990.75ZM1820.13 1936.5C1822.27 1936.5 1824 1938.23 1824 1940.37 1824 1942.51 1822.27 1944.25 1820.13 1944.25 1819.05 1944.25 1818.19 1943.38 1818.19 1942.31 1818.19 1941.24 1819.05 1940.37 1820.13 1940.37L1824 1940.37M1932.75 1944.25 1820.13 1944.25M1812.38 1990.75C1813.45 1990.75 1814.31 1991.62 1814.31 1992.69 1814.31 1993.76 1813.45 1994.63 1812.38 1994.63L1816.25 1994.63M1812.38 1998.5C1814.52 1998.5 1816.25 1996.77 1816.25 1994.63L1816.25 1990.75" stroke="#7030A0" stroke-width="3.4375" stroke-linejoin="round" stroke-miterlimit="10" fill="none" fill-rule="evenodd"/><text font-family="Calibri,Calibri_MSFontService,sans-serif" font-weight="400" font-size="55" transform="matrix(1 0 0 1 1848.99 1987)">1</text><path d="M1.85311-1.34822 259.733 353.103 256.027 355.8-1.85311 1.34822ZM266.302 342.656 271.362 372.983 244.065 358.835Z" fill="#4472C4" transform="matrix(-1 0 0 1 2145.86 1625.5)"/></g></svg>