<svg width="3744" height="761" xmlns="http://www.w3.org/2000/svg" xmlns:xlink="http://www.w3.org/1999/xlink" xml:space="preserve" overflow="hidden"><g transform="translate(-685 -276)"><g><g><g><path d="M417.869 105.72 375.28 63.1312 240.5 197.911 105.72 63.1312 63.1312 105.72 197.911 240.5 63.1312 375.28 105.72 417.869 240.5 283.088 375.28 417.869 417.869 375.28 283.088 240.5Z" fill="#C00000" transform="matrix(1 0 0 1 3948 556)"/></g></g></g><text fill="#C00000" font-family="Calibri,Calibri_MSFontService,sans-serif" font-weight="700" font-size="83" transform="matrix(1 0 0 1 3535.41 680)">Turns on the</text><text fill="#C00000" font-family="Calibri,Calibri_MSFontService,sans-serif" font-weight="700" font-size="83" transform="matrix(1 0 0 1 3403.48 779)">Wrong Stove Burner</text><path d="M3437.23 683.068 798.409 356.076 800.945 335.608 3439.77 662.599ZM806.101 377.812 748.5 339.5 813.71 316.407Z" fill="#C00000"/></g></svg>