<svg width="1340" height="479" xmlns="http://www.w3.org/2000/svg" xmlns:xlink="http://www.w3.org/1999/xlink" xml:space="preserve" overflow="hidden"><g transform="translate(-2992 -1438)"><text font-family="Courier New,Courier New_MSFontService,sans-serif" font-weight="700" font-size="37" transform="matrix(1 0 0 1 3025.43 1486)">X (</text><text font-family="Courier New,Courier New_MSFontService,sans-serif" font-weight="700" font-size="37" transform="matrix(1 0 0 1 3090.75 1530)">G (</text><text font-family="Courier New,Courier New_MSFontService,sans-serif" font-weight="700" font-size="37" transform="matrix(1 0 0 1 3156.06 1530)">C_Onion</text><text font-family="Courier New,Courier New_MSFontService,sans-serif" font-weight="700" font-size="37" transform="matrix(1 0 0 1 3330.23 1530)">U </text><text font-family="Courier New,Courier New_MSFontService,sans-serif" font-weight="700" font-size="37" transform="matrix(1 0 0 1 3373.77 1530)">Onion_FarFrom_CT</text><text font-family="Courier New,Courier New_MSFontService,sans-serif" font-weight="700" font-size="37" transform="matrix(1 0 0 1 3722.1 1530)">) &amp;</text><text font-family="Courier New,Courier New_MSFontService,sans-serif" font-weight="700" font-size="37" transform="matrix(1 0 0 1 3090.75 1574)">G F (</text><text font-family="Courier New,Courier New_MSFontService,sans-serif" font-weight="700" font-size="37" transform="matrix(1 0 0 1 3199.6 1574)">Onion_OnTopOf_CB</text><text font-family="Courier New,Courier New_MSFontService,sans-serif" font-weight="700" font-size="37" transform="matrix(1 0 0 1 3569.7 1574)">&amp; </text><text font-family="Courier New,Courier New_MSFontService,sans-serif" font-weight="700" font-size="37" transform="matrix(1 0 0 1 3613.25 1574)">Onion_CloseTo_CB</text><text font-family="Courier New,Courier New_MSFontService,sans-serif" font-weight="700" font-size="37" transform="matrix(1 0 0 1 3961.58 1574)">) &amp;</text><text font-family="Courier New,Courier New_MSFontService,sans-serif" font-weight="700" font-size="37" transform="matrix(1 0 0 1 3090.75 1618)">X (</text><text font-family="Courier New,Courier New_MSFontService,sans-serif" font-weight="700" font-size="37" transform="matrix(1 0 0 1 3156.06 1662)">G (</text><text font-family="Courier New,Courier New_MSFontService,sans-serif" font-weight="700" font-size="37" transform="matrix(1 0 0 1 3221.37 1662)">C_Knife</text><text font-family="Courier New,Courier New_MSFontService,sans-serif" font-weight="700" font-size="37" transform="matrix(1 0 0 1 3395.54 1662)">U Knife) &amp;</text><text font-family="Courier New,Courier New_MSFontService,sans-serif" font-weight="700" font-size="37" transform="matrix(1 0 0 1 3156.06 1706)">G (</text><text font-family="Courier New,Courier New_MSFontService,sans-serif" font-weight="700" font-size="37" transform="matrix(1 0 0 1 3221.37 1706)">C_Knife</text><text font-family="Courier New,Courier New_MSFontService,sans-serif" font-weight="700" font-size="37" transform="matrix(1 0 0 1 3395.54 1706)">U </text><text font-family="Courier New,Courier New_MSFontService,sans-serif" font-weight="700" font-size="37" transform="matrix(1 0 0 1 3439.08 1706)">Knife_FarFrom_CT</text><text font-family="Courier New,Courier New_MSFontService,sans-serif" font-weight="700" font-size="37" transform="matrix(1 0 0 1 3787.41 1706)">) &amp;</text><text font-family="Courier New,Courier New_MSFontService,sans-serif" font-weight="700" font-size="37" transform="matrix(1 0 0 1 3156.06 1750)">G (</text><text font-family="Courier New,Courier New_MSFontService,sans-serif" font-weight="700" font-size="37" transform="matrix(1 0 0 1 3221.37 1750)">C_Knife</text><text font-family="Courier New,Courier New_MSFontService,sans-serif" font-weight="700" font-size="37" transform="matrix(1 0 0 1 3395.54 1750)">U </text><text font-family="Courier New,Courier New_MSFontService,sans-serif" font-weight="700" font-size="37" transform="matrix(1 0 0 1 3439.08 1750)">Knife_OnTopOf_Onion</text><text font-family="Courier New,Courier New_MSFontService,sans-serif" font-weight="700" font-size="37" transform="matrix(1 0 0 1 3852.73 1750)">) &amp;</text><text font-family="Courier New,Courier New_MSFontService,sans-serif" font-weight="700" font-size="37" transform="matrix(1 0 0 1 3156.06 1794)">G ( (</text><text font-family="Courier New,Courier New_MSFontService,sans-serif" font-weight="700" font-size="37" transform="matrix(1 0 0 1 3264.91 1794)">C_Onion</text><text font-family="Courier New,Courier New_MSFontService,sans-serif" font-weight="700" font-size="37" transform="matrix(1 0 0 1 3439.08 1794)">&amp; </text><text font-family="Courier New,Courier New_MSFontService,sans-serif" font-weight="700" font-size="37" transform="matrix(1 0 0 1 3482.62 1794)">Knife_CloseTo_Onion</text><text font-family="Courier New,Courier New_MSFontService,sans-serif" font-weight="700" font-size="37" transform="matrix(1 0 0 1 3896.27 1794)">) U </text><text font-family="Courier New,Courier New_MSFontService,sans-serif" font-weight="700" font-size="37" transform="matrix(1 0 0 1 3983.35 1794)">Onion_Pieces</text><text font-family="Courier New,Courier New_MSFontService,sans-serif" font-weight="700" font-size="37" transform="matrix(1 0 0 1 4266.37 1794)">)</text><text font-family="Courier New,Courier New_MSFontService,sans-serif" font-weight="700" font-size="37" transform="matrix(1 0 0 1 3090.75 1838)">)</text><text font-family="Courier New,Courier New_MSFontService,sans-serif" font-weight="700" font-size="37" transform="matrix(1 0 0 1 3025.43 1882)">)</text></g></svg>