<svg width="1253" height="1179" xmlns="http://www.w3.org/2000/svg" xmlns:xlink="http://www.w3.org/1999/xlink" xml:space="preserve" overflow="hidden"><g transform="translate(-1395 -773)"><g><g><g><path d="M2406.69 1455.56 2406.69 1249.31C2406.69 1229.22 2355.33 1218.37 2307 1218.37 2258.67 1218.37 2207.31 1229.22 2207.31 1249.31L2207.31 1455.56C2207.31 1475.66 2258.67 1486.5 2307 1486.5 2355.33 1486.5 2406.69 1475.66 2406.69 1455.56ZM2307 1225.25C2360.12 1225.25 2399.81 1237.97 2399.81 1249.31 2399.81 1260.66 2360.12 1273.37 2307 1273.37 2253.88 1273.37 2214.19 1260.66 2214.19 1249.31 2214.19 1237.97 2253.88 1225.25 2307 1225.25ZM2214.19 1261.21C2229.76 1273.65 2269.3 1280.25 2307 1280.25 2344.7 1280.25 2384.24 1273.65 2399.81 1261.21L2399.81 1318.06C2399.81 1329.41 2360.12 1342.12 2307 1342.12 2253.88 1342.12 2214.19 1329.41 2214.19 1318.06ZM2214.19 1329.96C2229.76 1342.4 2269.3 1349 2307 1349 2344.7 1349 2384.24 1342.4 2399.81 1329.96L2399.81 1386.81C2399.81 1398.16 2360.12 1410.87 2307 1410.87 2253.88 1410.87 2214.19 1398.16 2214.19 1386.81ZM2214.19 1455.56 2214.19 1398.71C2229.76 1411.15 2269.3 1417.75 2307 1417.75 2344.7 1417.75 2384.24 1411.15 2399.81 1398.71L2399.81 1455.56C2399.81 1466.91 2360.12 1479.62 2307 1479.62 2253.88 1479.62 2214.19 1466.91 2214.19 1455.56Z"/><path d="M2382.62 1307.75C2382.62 1311.55 2379.55 1314.62 2375.75 1314.62 2371.95 1314.62 2368.88 1311.55 2368.88 1307.75 2368.88 1303.95 2371.95 1300.87 2375.75 1300.87 2379.55 1300.87 2382.62 1303.95 2382.62 1307.75Z"/><path d="M2382.62 1376.5C2382.62 1380.3 2379.55 1383.37 2375.75 1383.37 2371.95 1383.37 2368.88 1380.3 2368.88 1376.5 2368.88 1372.7 2371.95 1369.62 2375.75 1369.62 2379.55 1369.62 2382.62 1372.7 2382.62 1376.5Z"/><path d="M2382.62 1445.25C2382.62 1449.05 2379.55 1452.12 2375.75 1452.12 2371.95 1452.12 2368.88 1449.05 2368.88 1445.25 2368.88 1441.45 2371.95 1438.37 2375.75 1438.37 2379.55 1438.37 2382.62 1441.45 2382.62 1445.25Z"/></g></g></g><path d="M1398 778 2183.83 1237.7" stroke="#000000" stroke-width="10.3125" stroke-miterlimit="8" stroke-dasharray="41.25 30.9375" fill="none" fill-rule="evenodd"/><path d="M0 0 785.826 485.834" stroke="#000000" stroke-width="10.3125" stroke-miterlimit="8" stroke-dasharray="41.25 30.9375" fill="none" fill-rule="evenodd" transform="matrix(1 0 0 -1 1398 1946.83)"/><text fill="#272727" font-family="Josefin Sans,Josefin Sans_MSFontService,sans-serif" font-weight="400" font-size="83" text-decoration="underline" transform="matrix(1 0 0 1 2173.92 1654)">S</text><text fill="#272727" font-family="Josefin Sans,Josefin Sans_MSFontService,sans-serif" font-weight="400" font-size="83" transform="matrix(1 0 0 1 2222.05 1654)">peech</text><text fill="#272727" font-family="Josefin Sans,Josefin Sans_MSFontService,sans-serif" font-weight="400" font-size="83" text-decoration="underline" transform="matrix(1 0 0 1 2146.42 1753)">G</text><text fill="#272727" font-family="Josefin Sans,Josefin Sans_MSFontService,sans-serif" font-weight="400" font-size="83" transform="matrix(1 0 0 1 2208.3 1753)">estures</text><text fill="#272727" font-family="Josefin Sans,Josefin Sans_MSFontService,sans-serif" font-weight="400" font-size="83" text-decoration="underline" transform="matrix(1 0 0 1 2015.8 1853)">D</text><text fill="#272727" font-family="Josefin Sans,Josefin Sans_MSFontService,sans-serif" font-weight="400" font-size="83" transform="matrix(1 0 0 1 2078.24 1853)">emonstrations</text></g></svg>