<svg width="4411" height="1710" xmlns="http://www.w3.org/2000/svg" xmlns:xlink="http://www.w3.org/1999/xlink" xml:space="preserve" overflow="hidden"><g transform="translate(-51 -610)"><path d="M68.4999 1938.5C68.4999 1847.37 142.373 1773.5 233.5 1773.5 324.627 1773.5 398.5 1847.37 398.5 1938.5 398.5 2029.63 324.627 2103.5 233.5 2103.5 142.373 2103.5 68.4999 2029.63 68.4999 1938.5Z" stroke="#172C51" stroke-width="4.58333" stroke-miterlimit="8" fill="#4472C4" fill-rule="evenodd"/><text fill="#FFFFFF" font-family="Calibri,Calibri_MSFontService,sans-serif" font-weight="400" font-size="83" transform="matrix(1 0 0 1 101.063 1915)">Carrots</text><text fill="#FFFFFF" font-family="Calibri,Calibri_MSFontService,sans-serif" font-weight="400" font-size="83" transform="matrix(1 0 0 1 343.797 1915)">-</text><text fill="#FFFFFF" font-family="Calibri,Calibri_MSFontService,sans-serif" font-weight="400" font-size="83" transform="matrix(1 0 0 1 101.063 2014)">in</text><text fill="#FFFFFF" font-family="Calibri,Calibri_MSFontService,sans-serif" font-weight="400" font-size="83" transform="matrix(1 0 0 1 163.511 2014)">-</text><text fill="#FFFFFF" font-family="Calibri,Calibri_MSFontService,sans-serif" font-weight="400" font-size="83" transform="matrix(1 0 0 1 188.719 2014)">Sink</text><path d="M286.5 1466.5C286.5 1375.37 360.373 1301.5 451.5 1301.5 542.627 1301.5 616.5 1375.37 616.5 1466.5 616.5 1557.63 542.627 1631.5 451.5 1631.5 360.373 1631.5 286.5 1557.63 286.5 1466.5Z" stroke="#172C51" stroke-width="4.58333" stroke-miterlimit="8" fill="#4472C4" fill-rule="evenodd"/><text fill="#FFFFFF" font-family="Calibri,Calibri_MSFontService,sans-serif" font-weight="400" font-size="83" transform="matrix(1 0 0 1 300.337 1448)">Carrot</text><text fill="#FFFFFF" font-family="Calibri,Calibri_MSFontService,sans-serif" font-weight="400" font-size="83" transform="matrix(1 0 0 1 510.987 1448)">-</text><text fill="#FFFFFF" font-family="Calibri,Calibri_MSFontService,sans-serif" font-weight="400" font-size="83" transform="matrix(1 0 0 1 300.337 1547)">Grasped</text><path d="M757.5 1273.5C757.5 1182.37 831.373 1108.5 922.5 1108.5 1013.63 1108.5 1087.5 1182.37 1087.5 1273.5 1087.5 1364.63 1013.63 1438.5 922.5 1438.5 831.373 1438.5 757.5 1364.63 757.5 1273.5Z" stroke="#172C51" stroke-width="4.58333" stroke-miterlimit="8" fill="#4472C4" fill-rule="evenodd"/><text fill="#FFFFFF" font-family="Calibri,Calibri_MSFontService,sans-serif" font-weight="400" font-size="69" transform="matrix(1 0 0 1 770.826 1254)">Carrot</text><text fill="#FFFFFF" font-family="Calibri,Calibri_MSFontService,sans-serif" font-weight="400" font-size="69" transform="matrix(1 0 0 1 946.184 1254)">-</text><text fill="#FFFFFF" font-family="Calibri,Calibri_MSFontService,sans-serif" font-weight="400" font-size="69" transform="matrix(1 0 0 1 967.382 1254)">on</text><text fill="#FFFFFF" font-family="Calibri,Calibri_MSFontService,sans-serif" font-weight="400" font-size="69" transform="matrix(1 0 0 1 1039.57 1254)">-</text><text fill="#FFFFFF" font-family="Calibri,Calibri_MSFontService,sans-serif" font-weight="400" font-size="69" transform="matrix(1 0 0 1 770.826 1337)">CutBoard</text><path d="M1240.5 1273.5C1240.5 1182.37 1314.37 1108.5 1405.5 1108.5 1496.63 1108.5 1570.5 1182.37 1570.5 1273.5 1570.5 1364.63 1496.63 1438.5 1405.5 1438.5 1314.37 1438.5 1240.5 1364.63 1240.5 1273.5Z" stroke="#172C51" stroke-width="4.58333" stroke-miterlimit="8" fill="#4472C4" fill-rule="evenodd"/><text fill="#FFFFFF" font-family="Calibri,Calibri_MSFontService,sans-serif" font-weight="400" font-size="60" transform="matrix(1 0 0 1 1254.25 1246)">CarrotPieces</text><text fill="#FFFFFF" font-family="Calibri,Calibri_MSFontService,sans-serif" font-weight="400" font-size="60" transform="matrix(1 0 0 1 1559.23 1246)">-</text><text fill="#FFFFFF" font-family="Calibri,Calibri_MSFontService,sans-serif" font-weight="400" font-size="60" transform="matrix(1 0 0 1 1254.25 1317)">on</text><text fill="#FFFFFF" font-family="Calibri,Calibri_MSFontService,sans-serif" font-weight="400" font-size="60" transform="matrix(1 0 0 1 1317.27 1317)">-</text><text fill="#FFFFFF" font-family="Calibri,Calibri_MSFontService,sans-serif" font-weight="400" font-size="60" transform="matrix(1 0 0 1 1335.61 1317)">CutBoard</text><path d="M1685.5 1272.5C1685.5 1181.37 1759.37 1107.5 1850.5 1107.5 1941.63 1107.5 2015.5 1181.37 2015.5 1272.5 2015.5 1363.63 1941.63 1437.5 1850.5 1437.5 1759.37 1437.5 1685.5 1363.63 1685.5 1272.5Z" stroke="#172C51" stroke-width="4.58333" stroke-miterlimit="8" fill="#4472C4" fill-rule="evenodd"/><text fill="#FFFFFF" font-family="Calibri,Calibri_MSFontService,sans-serif" font-weight="400" font-size="78" transform="matrix(1 0 0 1 1699.07 1261)">CutBoard</text><text fill="#FFFFFF" font-family="Calibri,Calibri_MSFontService,sans-serif" font-weight="400" font-size="78" transform="matrix(1 0 0 1 1995.36 1261)">-</text><text fill="#FFFFFF" font-family="Calibri,Calibri_MSFontService,sans-serif" font-weight="400" font-size="78" transform="matrix(1 0 0 1 1699.07 1354)">Grasped</text><path d="M2162.5 1272.5C2162.5 1181.37 2236.37 1107.5 2327.5 1107.5 2418.63 1107.5 2492.5 1181.37 2492.5 1272.5 2492.5 1363.63 2418.63 1437.5 2327.5 1437.5 2236.37 1437.5 2162.5 1363.63 2162.5 1272.5Z" stroke="#172C51" stroke-width="4.58333" stroke-miterlimit="8" fill-rule="evenodd"/><text fill="#FFFFFF" font-family="Calibri,Calibri_MSFontService,sans-serif" font-weight="400" font-size="60" transform="matrix(1 0 0 1 2176.32 1244)">CarrotPieces</text><text fill="#FFFFFF" font-family="Calibri,Calibri_MSFontService,sans-serif" font-weight="400" font-size="60" transform="matrix(1 0 0 1 2481.29 1244)">-</text><text fill="#FFFFFF" font-family="Calibri,Calibri_MSFontService,sans-serif" font-weight="400" font-size="60" transform="matrix(1 0 0 1 2176.32 1315)">in</text><text fill="#FFFFFF" font-family="Calibri,Calibri_MSFontService,sans-serif" font-weight="400" font-size="60" transform="matrix(1 0 0 1 2221.58 1315)">-</text><text fill="#FFFFFF" font-family="Calibri,Calibri_MSFontService,sans-serif" font-weight="400" font-size="60" transform="matrix(1 0 0 1 2239.91 1315)">Bowl</text><path d="M1234.5 1727.5C1234.5 1636.37 1308.37 1562.5 1399.5 1562.5 1490.63 1562.5 1564.5 1636.37 1564.5 1727.5 1564.5 1818.63 1490.63 1892.5 1399.5 1892.5 1308.37 1892.5 1234.5 1818.63 1234.5 1727.5Z" stroke="#172C51" stroke-width="4.58333" stroke-miterlimit="8" fill="#4472C4" fill-rule="evenodd"/><text fill="#FFFFFF" font-family="Calibri,Calibri_MSFontService,sans-serif" font-weight="400" font-size="83" transform="matrix(1 0 0 1 1247.85 1708)">Carrot</text><text fill="#FFFFFF" font-family="Calibri,Calibri_MSFontService,sans-serif" font-weight="400" font-size="83" transform="matrix(1 0 0 1 1458.5 1708)">-</text><text fill="#FFFFFF" font-family="Calibri,Calibri_MSFontService,sans-serif" font-weight="400" font-size="83" transform="matrix(1 0 0 1 1247.85 1807)">Grasped</text><path d="M1693.5 1728.5C1693.5 1637.37 1767.37 1563.5 1858.5 1563.5 1949.63 1563.5 2023.5 1637.37 2023.5 1728.5 2023.5 1819.63 1949.63 1893.5 1858.5 1893.5 1767.37 1893.5 1693.5 1819.63 1693.5 1728.5Z" stroke="#172C51" stroke-width="4.58333" stroke-miterlimit="8" fill="#4472C4" fill-rule="evenodd"/><text fill="#FFFFFF" font-family="Calibri,Calibri_MSFontService,sans-serif" font-weight="400" font-size="69" transform="matrix(1 0 0 1 1707.12 1709)">Carrot</text><text fill="#FFFFFF" font-family="Calibri,Calibri_MSFontService,sans-serif" font-weight="400" font-size="69" transform="matrix(1 0 0 1 1882.48 1709)">-</text><text fill="#FFFFFF" font-family="Calibri,Calibri_MSFontService,sans-serif" font-weight="400" font-size="69" transform="matrix(1 0 0 1 1903.68 1709)">on</text><text fill="#FFFFFF" font-family="Calibri,Calibri_MSFontService,sans-serif" font-weight="400" font-size="69" transform="matrix(1 0 0 1 1975.87 1709)">-</text><text fill="#FFFFFF" font-family="Calibri,Calibri_MSFontService,sans-serif" font-weight="400" font-size="69" transform="matrix(1 0 0 1 1707.12 1792)">CutBoard</text><path d="M2177.5 1728.5C2177.5 1637.37 2251.37 1563.5 2342.5 1563.5 2433.63 1563.5 2507.5 1637.37 2507.5 1728.5 2507.5 1819.63 2433.63 1893.5 2342.5 1893.5 2251.37 1893.5 2177.5 1819.63 2177.5 1728.5Z" stroke="#172C51" stroke-width="4.58333" stroke-miterlimit="8" fill="#4472C4" fill-rule="evenodd"/><text fill="#FFFFFF" font-family="Calibri,Calibri_MSFontService,sans-serif" font-weight="400" font-size="60" transform="matrix(1 0 0 1 2190.55 1701)">CarrotPieces</text><text fill="#FFFFFF" font-family="Calibri,Calibri_MSFontService,sans-serif" font-weight="400" font-size="60" transform="matrix(1 0 0 1 2495.52 1701)">-</text><text fill="#FFFFFF" font-family="Calibri,Calibri_MSFontService,sans-serif" font-weight="400" font-size="60" transform="matrix(1 0 0 1 2190.55 1772)">on</text><text fill="#FFFFFF" font-family="Calibri,Calibri_MSFontService,sans-serif" font-weight="400" font-size="60" transform="matrix(1 0 0 1 2253.57 1772)">-</text><text fill="#FFFFFF" font-family="Calibri,Calibri_MSFontService,sans-serif" font-weight="400" font-size="60" transform="matrix(1 0 0 1 2271.9 1772)">CutBoard</text><path d="M2621.5 1727.5C2621.5 1636.37 2695.37 1562.5 2786.5 1562.5 2877.63 1562.5 2951.5 1636.37 2951.5 1727.5 2951.5 1818.63 2877.63 1892.5 2786.5 1892.5 2695.37 1892.5 2621.5 1818.63 2621.5 1727.5Z" stroke="#172C51" stroke-width="4.58333" stroke-miterlimit="8" fill="#4472C4" fill-rule="evenodd"/><text fill="#FFFFFF" font-family="Calibri,Calibri_MSFontService,sans-serif" font-weight="400" font-size="78" transform="matrix(1 0 0 1 2635.37 1716)">CutBoard</text><text fill="#FFFFFF" font-family="Calibri,Calibri_MSFontService,sans-serif" font-weight="400" font-size="78" transform="matrix(1 0 0 1 2931.66 1716)">-</text><text fill="#FFFFFF" font-family="Calibri,Calibri_MSFontService,sans-serif" font-weight="400" font-size="78" transform="matrix(1 0 0 1 2635.37 1809)">Grasped</text><path d="M3099.5 1727.5C3099.5 1636.37 3173.37 1562.5 3264.5 1562.5 3355.63 1562.5 3429.5 1636.37 3429.5 1727.5 3429.5 1818.63 3355.63 1892.5 3264.5 1892.5 3173.37 1892.5 3099.5 1818.63 3099.5 1727.5Z" stroke="#172C51" stroke-width="4.58333" stroke-miterlimit="8" fill-rule="evenodd"/><text fill="#FFFFFF" font-family="Calibri,Calibri_MSFontService,sans-serif" font-weight="400" font-size="60" transform="matrix(1 0 0 1 3112.61 1699)">CarrotPieces</text><text fill="#FFFFFF" font-family="Calibri,Calibri_MSFontService,sans-serif" font-weight="400" font-size="60" transform="matrix(1 0 0 1 3417.59 1699)">-</text><text fill="#FFFFFF" font-family="Calibri,Calibri_MSFontService,sans-serif" font-weight="400" font-size="60" transform="matrix(1 0 0 1 3112.61 1770)">in</text><text fill="#FFFFFF" font-family="Calibri,Calibri_MSFontService,sans-serif" font-weight="400" font-size="60" transform="matrix(1 0 0 1 3157.87 1770)">-</text><text fill="#FFFFFF" font-family="Calibri,Calibri_MSFontService,sans-serif" font-weight="400" font-size="60" transform="matrix(1 0 0 1 3176.21 1770)">Bowl</text><path d="M1679.5 777.5C1679.5 686.373 1753.37 612.5 1844.5 612.5 1935.63 612.5 2009.5 686.373 2009.5 777.5 2009.5 868.627 1935.63 942.5 1844.5 942.5 1753.37 942.5 1679.5 868.627 1679.5 777.5Z" stroke="#172C51" stroke-width="4.58333" stroke-miterlimit="8" fill="#4472C4" fill-rule="evenodd"/><text fill="#FFFFFF" font-family="Calibri,Calibri_MSFontService,sans-serif" font-weight="400" font-size="83" transform="matrix(1 0 0 1 1692.66 759)">Carrot</text><text fill="#FFFFFF" font-family="Calibri,Calibri_MSFontService,sans-serif" font-weight="400" font-size="83" transform="matrix(1 0 0 1 1903.31 759)">-</text><text fill="#FFFFFF" font-family="Calibri,Calibri_MSFontService,sans-serif" font-weight="400" font-size="83" transform="matrix(1 0 0 1 1692.66 858)">Grasped</text><path d="M2138.5 778.5C2138.5 687.373 2212.37 613.5 2303.5 613.5 2394.63 613.5 2468.5 687.373 2468.5 778.5 2468.5 869.627 2394.63 943.5 2303.5 943.5 2212.37 943.5 2138.5 869.627 2138.5 778.5Z" stroke="#172C51" stroke-width="4.58333" stroke-miterlimit="8" fill="#4472C4" fill-rule="evenodd"/><text fill="#FFFFFF" font-family="Calibri,Calibri_MSFontService,sans-serif" font-weight="400" font-size="69" transform="matrix(1 0 0 1 2151.94 759)">Carrot</text><text fill="#FFFFFF" font-family="Calibri,Calibri_MSFontService,sans-serif" font-weight="400" font-size="69" transform="matrix(1 0 0 1 2327.3 759)">-</text><text fill="#FFFFFF" font-family="Calibri,Calibri_MSFontService,sans-serif" font-weight="400" font-size="69" transform="matrix(1 0 0 1 2348.5 759)">on</text><text fill="#FFFFFF" font-family="Calibri,Calibri_MSFontService,sans-serif" font-weight="400" font-size="69" transform="matrix(1 0 0 1 2420.69 759)">-</text><text fill="#FFFFFF" font-family="Calibri,Calibri_MSFontService,sans-serif" font-weight="400" font-size="69" transform="matrix(1 0 0 1 2151.94 842)">CutBoard</text><path d="M2621.5 778.5C2621.5 687.373 2695.37 613.5 2786.5 613.5 2877.63 613.5 2951.5 687.373 2951.5 778.5 2951.5 869.627 2877.63 943.5 2786.5 943.5 2695.37 943.5 2621.5 869.627 2621.5 778.5Z" stroke="#172C51" stroke-width="4.58333" stroke-miterlimit="8" fill="#4472C4" fill-rule="evenodd"/><text fill="#FFFFFF" font-family="Calibri,Calibri_MSFontService,sans-serif" font-weight="400" font-size="60" transform="matrix(1 0 0 1 2635.37 751)">CarrotPieces</text><text fill="#FFFFFF" font-family="Calibri,Calibri_MSFontService,sans-serif" font-weight="400" font-size="60" transform="matrix(1 0 0 1 2940.34 751)">-</text><text fill="#FFFFFF" font-family="Calibri,Calibri_MSFontService,sans-serif" font-weight="400" font-size="60" transform="matrix(1 0 0 1 2635.37 822)">on</text><text fill="#FFFFFF" font-family="Calibri,Calibri_MSFontService,sans-serif" font-weight="400" font-size="60" transform="matrix(1 0 0 1 2698.39 822)">-</text><text fill="#FFFFFF" font-family="Calibri,Calibri_MSFontService,sans-serif" font-weight="400" font-size="60" transform="matrix(1 0 0 1 2716.72 822)">CutBoard</text><path d="M3066.5 777.5C3066.5 686.373 3140.37 612.5 3231.5 612.5 3322.63 612.5 3396.5 686.373 3396.5 777.5 3396.5 868.627 3322.63 942.5 3231.5 942.5 3140.37 942.5 3066.5 868.627 3066.5 777.5Z" stroke="#172C51" stroke-width="4.58333" stroke-miterlimit="8" fill="#4472C4" fill-rule="evenodd"/><text fill="#FFFFFF" font-family="Calibri,Calibri_MSFontService,sans-serif" font-weight="400" font-size="78" transform="matrix(1 0 0 1 3080.19 766)">CutBoard</text><text fill="#FFFFFF" font-family="Calibri,Calibri_MSFontService,sans-serif" font-weight="400" font-size="78" transform="matrix(1 0 0 1 3376.48 766)">-</text><text fill="#FFFFFF" font-family="Calibri,Calibri_MSFontService,sans-serif" font-weight="400" font-size="78" transform="matrix(1 0 0 1 3080.19 859)">Grasped</text><path d="M3543.5 777.5C3543.5 686.373 3617.37 612.5 3708.5 612.5 3799.63 612.5 3873.5 686.373 3873.5 777.5 3873.5 868.627 3799.63 942.5 3708.5 942.5 3617.37 942.5 3543.5 868.627 3543.5 777.5Z" stroke="#172C51" stroke-width="4.58333" stroke-miterlimit="8" fill-rule="evenodd"/><text fill="#FFFFFF" font-family="Calibri,Calibri_MSFontService,sans-serif" font-weight="400" font-size="60" transform="matrix(1 0 0 1 3557.43 749)">CarrotPieces</text><text fill="#FFFFFF" font-family="Calibri,Calibri_MSFontService,sans-serif" font-weight="400" font-size="60" transform="matrix(1 0 0 1 3862.41 749)">-</text><text fill="#FFFFFF" font-family="Calibri,Calibri_MSFontService,sans-serif" font-weight="400" font-size="60" transform="matrix(1 0 0 1 3557.43 820)">in</text><text fill="#FFFFFF" font-family="Calibri,Calibri_MSFontService,sans-serif" font-weight="400" font-size="60" transform="matrix(1 0 0 1 3602.69 820)">-</text><text fill="#FFFFFF" font-family="Calibri,Calibri_MSFontService,sans-serif" font-weight="400" font-size="60" transform="matrix(1 0 0 1 3621.03 820)">Bowl</text><path d="M2181.5 2140.5C2181.5 2049.37 2255.37 1975.5 2346.5 1975.5 2437.63 1975.5 2511.5 2049.37 2511.5 2140.5 2511.5 2231.63 2437.63 2305.5 2346.5 2305.5 2255.37 2305.5 2181.5 2231.63 2181.5 2140.5Z" stroke="#172C51" stroke-width="4.58333" stroke-miterlimit="8" fill="#4472C4" fill-rule="evenodd"/><text fill="#FFFFFF" font-family="Calibri,Calibri_MSFontService,sans-serif" font-weight="400" font-size="83" transform="matrix(1 0 0 1 2195.35 2121)">Carrot</text><text fill="#FFFFFF" font-family="Calibri,Calibri_MSFontService,sans-serif" font-weight="400" font-size="83" transform="matrix(1 0 0 1 2406 2121)">-</text><text fill="#FFFFFF" font-family="Calibri,Calibri_MSFontService,sans-serif" font-weight="400" font-size="83" transform="matrix(1 0 0 1 2195.35 2220)">Grasped</text><path d="M2641.5 2141.5C2641.5 2050.37 2715.37 1976.5 2806.5 1976.5 2897.63 1976.5 2971.5 2050.37 2971.5 2141.5 2971.5 2232.63 2897.63 2306.5 2806.5 2306.5 2715.37 2306.5 2641.5 2232.63 2641.5 2141.5Z" stroke="#172C51" stroke-width="4.58333" stroke-miterlimit="8" fill="#4472C4" fill-rule="evenodd"/><text fill="#FFFFFF" font-family="Calibri,Calibri_MSFontService,sans-serif" font-weight="400" font-size="69" transform="matrix(1 0 0 1 2654.63 2121)">Carrot</text><text fill="#FFFFFF" font-family="Calibri,Calibri_MSFontService,sans-serif" font-weight="400" font-size="69" transform="matrix(1 0 0 1 2829.99 2121)">-</text><text fill="#FFFFFF" font-family="Calibri,Calibri_MSFontService,sans-serif" font-weight="400" font-size="69" transform="matrix(1 0 0 1 2851.19 2121)">on</text><text fill="#FFFFFF" font-family="Calibri,Calibri_MSFontService,sans-serif" font-weight="400" font-size="69" transform="matrix(1 0 0 1 2923.38 2121)">-</text><text fill="#FFFFFF" font-family="Calibri,Calibri_MSFontService,sans-serif" font-weight="400" font-size="69" transform="matrix(1 0 0 1 2654.63 2204)">CutBoard</text><path d="M230.078 1772.62 230.733 1765.69 232.712 1758.57 235.865 1751.65 240.082 1744.97 245.264 1738.57 251.322 1732.49 258.174 1726.76 265.739 1721.44 273.939 1716.55 282.697 1712.15 291.937 1708.29 301.581 1705.01 311.552 1702.36 321.773 1700.41 332.168 1699.2 342.52 1698.79 352.74 1698.38 352.478 1698.4 362.618 1697.22 362.371 1697.26 372.351 1695.35 372.116 1695.4 381.856 1692.82 381.63 1692.89 391.051 1689.69 390.831 1689.77 399.852 1686 399.635 1686.1 408.176 1681.81 407.959 1681.92 415.941 1677.17 415.721 1677.31 423.063 1672.14 422.839 1672.31 429.461 1666.78 429.23 1666.99 435.053 1661.15 434.817 1661.41 439.76 1655.3 439.203 1656.29 440.817 1651.88 447.273 1654.24 445.463 1659.19 440.048 1665.87 433.99 1671.95 427.138 1677.68 419.573 1683.01 411.373 1687.89 402.615 1692.29 393.375 1696.16 383.731 1699.44 373.76 1702.08 363.539 1704.03 353.144 1705.25 342.792 1705.66 332.572 1706.06 332.834 1706.04 322.694 1707.22 322.941 1707.19 312.961 1709.09 313.196 1709.04 303.456 1711.62 303.682 1711.55 294.261 1714.76 294.481 1714.67 285.46 1718.45 285.677 1718.35 277.136 1722.64 277.353 1722.52 269.371 1727.27 269.591 1727.13 262.249 1732.3 262.473 1732.13 255.851 1737.66 256.082 1737.45 250.259 1743.3 250.495 1743.04 245.552 1749.14 245.787 1748.81 241.803 1755.12 242.025 1754.71 239.08 1761.18 239.264 1760.67 237.438 1767.24 237.548 1766.65 236.922 1773.27ZM429.556 1652.71 451.812 1631.5 455.428 1662.03Z"/><path d="M565.07 1349.71 565.332 1345.9 566.148 1341.89 567.47 1337.95 569.268 1334.08 571.514 1330.29 574.181 1326.58 577.25 1322.95 580.734 1319.37 588.671 1312.56 597.986 1306.06 608.515 1299.94 620.141 1294.25 632.745 1289.03 646.208 1284.33 660.41 1280.21 675.231 1276.7 690.55 1273.88 706.272 1271.79 715.167 1271.22 715.613 1278.08 706.833 1278.65 707.063 1278.62 691.54 1280.69 691.71 1280.66 676.56 1283.45 676.728 1283.41 662.076 1286.88 662.245 1286.83 648.214 1290.91 648.387 1290.85 635.103 1295.49 635.285 1295.42 622.871 1300.56 623.067 1300.48 611.647 1306.07 611.862 1305.95 601.562 1311.93 601.802 1311.78 592.746 1318.1 593.018 1317.89 585.329 1324.48 585.555 1324.27 582.262 1327.66 582.423 1327.48 579.519 1330.91 579.684 1330.7 577.185 1334.18 577.351 1333.92 575.271 1337.44 575.431 1337.13 573.786 1340.67 573.927 1340.32 572.733 1343.88 572.842 1343.47 572.114 1347.05 572.175 1346.6 571.929 1350.18ZM710.124 1261.14 738.278 1273.5 711.501 1288.61Z"/><path d="M1080.51 1259.06 1093.66 1259.11 1106.4 1259.26 1118.32 1259.49 1123.84 1259.63 1129.01 1259.78 1133.76 1259.95 1138.06 1260.13 1141.85 1260.32 1145.09 1260.52 1147.74 1260.73 1149.81 1260.96 1151.63 1261.29 1152.51 1261.76 1152.91 1261.97 1151.91 1261.62 1153.09 1261.84 1152.85 1261.8 1154.75 1262.01 1154.65 1262 1157.22 1262.21 1157.16 1262.2 1160.35 1262.4 1160.31 1262.4 1164.06 1262.59 1164.03 1262.59 1168.3 1262.77 1168.28 1262.76 1173.02 1262.93 1173 1262.93 1178.14 1263.09 1178.13 1263.09 1183.64 1263.22 1183.6 1263.22 1198.43 1263.46 1198.32 1270.33 1183.48 1270.1 1177.95 1269.96 1172.78 1269.8 1168.03 1269.63 1163.73 1269.45 1159.94 1269.26 1156.7 1269.06 1154.05 1268.85 1151.98 1268.62 1150.16 1268.29 1149.28 1267.83 1148.88 1267.61 1149.88 1267.96 1148.7 1267.75 1148.94 1267.78 1147.04 1267.57 1147.14 1267.58 1144.57 1267.38 1144.63 1267.38 1141.45 1267.18 1141.48 1267.19 1137.73 1267 1137.76 1267 1133.49 1266.82 1133.51 1266.82 1128.78 1266.65 1128.79 1266.65 1123.65 1266.5 1123.66 1266.5 1118.15 1266.36 1118.18 1266.36 1106.28 1266.13 1106.31 1266.13 1093.59 1265.99 1093.62 1265.99 1080.49 1265.94ZM1193.91 1253.11 1221.29 1267.08 1193.68 1280.6Z"/><path d="M1570.52 1280.06 1579.47 1280.11 1588.16 1280.26 1596.29 1280.49 1603.59 1280.78 1609.78 1281.13 1612.39 1281.33 1614.63 1281.53 1616.5 1281.75 1618.03 1282 1619.68 1282.44 1620.51 1283.08 1620.78 1283.3 1619.55 1282.68 1620.35 1282.9 1620.02 1282.83 1621.31 1283.04 1621.16 1283.01 1622.91 1283.22 1622.82 1283.21 1624.99 1283.41 1624.93 1283.4 1627.48 1283.59 1627.42 1283.59 1633.55 1283.94 1633.46 1283.93 1643.47 1284.23 1643.26 1291.11 1633.21 1290.8 1627.01 1290.45 1624.39 1290.26 1622.15 1290.05 1620.28 1289.83 1618.75 1289.59 1617.1 1289.15 1616.27 1288.5 1616 1288.29 1617.23 1288.9 1616.43 1288.69 1616.76 1288.76 1615.47 1288.55 1615.62 1288.57 1613.88 1288.36 1613.96 1288.37 1611.79 1288.18 1611.85 1288.18 1609.3 1287.99 1609.36 1288 1603.23 1287.65 1603.29 1287.65 1596.04 1287.36 1596.08 1287.36 1587.99 1287.13 1588.03 1287.13 1579.38 1286.99 1579.41 1286.99 1570.48 1286.94ZM1639.03 1273.84 1666.28 1288.08 1638.54 1301.33Z"/><path d="M1402.06 1109.07 1402.43 1093.68 1403.54 1078.25 1405.34 1062.88 1407.83 1047.6 1410.98 1032.45 1414.76 1017.45 1419.15 1002.64 1424.13 988.037 1429.67 973.68 1435.75 959.595 1442.35 945.813 1449.44 932.362 1457 919.272 1465.01 906.573 1473.45 894.295 1482.28 882.466 1491.49 871.118 1501.06 860.278 1510.97 849.978 1521.18 840.247 1531.69 831.116 1542.46 822.614 1553.47 814.772 1564.71 807.621 1576.14 801.192 1587.76 795.515 1599.52 790.623 1611.42 786.547 1623.49 783.305 1636.52 781.242 1637.6 788.032 1624.75 790.067 1625.1 789.991 1613.32 793.156 1613.54 793.089 1601.86 797.091 1602.06 797.013 1590.49 801.823 1590.68 801.737 1579.25 807.325 1579.42 807.233 1568.16 813.568 1568.32 813.471 1557.24 820.524 1557.38 820.425 1546.51 828.165 1546.65 828.063 1536.01 836.462 1536.14 836.358 1525.75 845.385 1525.87 845.279 1515.76 854.904 1515.87 854.798 1506.07 864.991 1506.17 864.883 1496.69 875.615 1496.79 875.506 1487.66 886.746 1487.75 886.636 1478.99 898.354 1479.07 898.244 1470.72 910.41 1470.79 910.298 1462.85 922.883 1462.92 922.769 1455.43 935.743 1455.49 935.627 1448.46 948.96 1448.52 948.841 1441.98 962.503 1442.04 962.382 1436.01 976.343 1436.06 976.218 1430.57 990.448 1430.61 990.32 1425.68 1004.79 1425.72 1004.66 1421.37 1019.34 1421.41 1019.2 1417.66 1034.06 1417.7 1033.92 1414.58 1048.92 1414.61 1048.78 1412.14 1063.91 1412.16 1063.75 1410.37 1078.97 1410.39 1078.81 1409.3 1094.09 1409.31 1093.93 1408.94 1109.24ZM1631.21 771.375 1659.88 782.5 1633.78 798.755Z"/><path d="M0.106246-3.43586 13.9444-3.00794 27.8554-1.73306 41.7043 0.35731 55.4639 3.23507 69.1072 6.8722 82.6075 11.2408 95.9383 16.3132 109.073 22.0617 121.985 28.4589 134.649 35.4775 147.038 43.0903 159.125 51.2704 170.884 59.9906 182.29 69.2243 193.314 78.9446 203.932 89.125 214.116 99.7387 223.84 110.759 233.078 122.16 241.801 133.915 249.984 145.998 257.6 158.382 264.622 171.041 271.021 183.948 276.772 197.078 281.846 210.404 286.217 223.899 289.855 237.538 292.742 251.329 295.099 269.669 288.28 270.546 285.94 252.339 285.985 252.606 283.145 239.038 283.188 239.219 279.597 225.759 279.648 225.932 275.333 212.605 275.39 212.769 270.377 199.603 270.441 199.759 264.757 186.781 264.826 186.929 258.497 174.166 258.571 174.306 251.626 161.784 251.704 161.918 244.168 149.664 244.25 149.791 236.151 137.832 236.236 137.953 227.6 126.316 227.69 126.432 218.544 115.143 218.638 115.254 209.009 104.341 209.106 104.447 199.021 93.9366 199.122 94.0379 188.608 83.9568 188.714 84.054 177.797 74.4289 177.907 74.5222 166.615 65.38 166.73 65.4694 155.089 56.8368 155.21 56.9225 143.247 48.8264 143.374 48.9082 131.115 41.3754 131.249 41.4533 118.722 34.5105 118.862 34.5841 106.094 28.2583 106.242 28.3272 93.2589 22.6451 93.4147 22.7088 80.2439 17.6973 80.4081 17.7551 67.0763 13.441 67.2492 13.492 53.7832 9.90214 53.965 9.94534 40.3917 7.10654 40.5824 7.14084 26.9286 5.07992 27.128 5.10408 13.4205 3.84786 13.628 3.86056-0.106246 3.43586ZM305.133 264.691 293.093 292.981 277.685 266.375Z" transform="matrix(1.83697e-16 1 1 -1.83697e-16 922.5 1438.5)"/><path d="M0.12864-3.43509 12.0291-2.98943 24.026-1.65795 35.9644 0.52436 47.8204 3.52729 59.5704 7.32077 71.1915 11.8749 82.661 17.1601 93.9567 23.147 105.056 29.8067 115.938 37.1103 126.579 45.0294 136.958 53.5355 147.052 62.6007 156.839 72.1968 166.298 82.296 175.405 92.8704 184.138 103.892 192.474 115.334 200.391 127.169 207.867 139.367 214.877 151.904 221.401 164.75 227.413 177.878 232.893 191.261 237.815 204.871 242.157 218.681 245.896 232.664 249.008 246.791 251.47 261.035 253.263 275.406 253.574 281.118 246.709 281.491 246.404 275.899 246.426 276.138 244.658 261.967 244.682 262.127 242.247 248.039 242.278 248.193 239.199 234.217 239.235 234.366 235.535 220.529 235.576 220.672 231.278 207.003 231.325 207.141 226.452 193.666 226.503 193.8 221.078 180.548 221.134 180.677 215.179 167.676 215.239 167.801 208.779 155.078 208.843 155.199 201.9 142.783 201.969 142.901 194.565 130.819 194.639 130.934 186.798 119.214 186.877 119.327 178.622 107.997 178.706 108.107 170.06 97.1951 170.149 97.3035 161.135 86.8367 161.231 86.9432 151.871 76.9498 151.974 77.0546 142.293 67.5625 142.402 67.6655 132.422 58.7025 132.54 58.8036 122.283 50.3977 122.41 50.4967 111.9 42.6756 112.037 42.7721 101.297 35.5637 101.444 35.6571 90.4978 29.0892 90.6565 29.1788 79.5258 23.2793 79.697 23.3641 68.4053 18.1608 68.5897 18.2394 57.1599 13.7602 57.358 13.8309 45.8132 10.1037 46.0253 10.1647 34.3885 7.21731 34.6144 7.2665 22.9086 5.12672 23.1475 5.16177 11.3957 3.85748 11.6462 3.87605-0.12864 3.43509ZM263.647 276.044 251.279 304.193 236.181 277.409Z" transform="matrix(1.83697e-16 1 1 -1.83697e-16 1858.5 1893.5)"/><path d="M0.0156794-3.43746 8.38715-3.39928 16.5112-3.29116 24.1123-3.12307 30.9326-2.90473 36.7097-2.64582 39.1464-2.50284 41.2332-2.35222 42.9635-2.19199 44.3683-2.01166 45.8399-1.70206 46.6083-1.22714 46.8655-1.06816 45.7658-1.50805 46.515-1.3504 46.245-1.39608 47.4536-1.24092 47.3329-1.25426 48.9681-1.10283 48.8986-1.10856 50.9275-0.962106 50.8814-0.965123 53.2713-0.824888 53.2238-0.827344 58.9552-0.570489 58.8782-0.573076 66.765-0.396561 66.6111 6.47672 58.6859 6.29934 52.8923 6.0397 50.4556 5.89672 48.3688 5.74609 46.6384 5.58585 45.2336 5.40551 43.762 5.09587 42.9937 4.62097 42.7367 4.4621 43.8362 4.9019 43.087 4.74427 43.3571 4.78994 42.1484 4.63479 42.2691 4.64813 40.634 4.49671 40.7034 4.50243 38.6745 4.35598 38.7206 4.359 36.3307 4.21876 36.3782 4.22122 30.6468 3.96436 30.6907 3.96604 23.9093 3.74895 23.9433 3.74987 16.3744 3.5825 16.4046 3.58303 8.31069 3.47531 8.34076 3.47558-0.0156794 3.43746ZM62.3175-10.779 89.602 3.39383 61.893 16.7177Z" transform="matrix(1 0 0 -1 1585.5 1731.89)"/><path d="M2009.51 1714.06 2023.41 1714.11 2036.88 1714.26 2049.47 1714.49 2055.31 1714.63 2060.77 1714.78 2065.8 1714.95 2070.34 1715.13 2074.34 1715.32 2077.76 1715.52 2080.55 1715.73 2082.72 1715.96 2084.58 1716.28 2085.47 1716.72 2085.89 1716.93 2084.93 1716.62 2086.17 1716.83 2085.95 1716.8 2087.96 1717.01 2087.86 1717 2090.58 1717.21 2090.52 1717.2 2093.89 1717.4 2093.85 1717.4 2097.82 1717.59 2097.8 1717.59 2102.31 1717.76 2102.29 1717.76 2107.29 1717.93 2107.28 1717.93 2112.72 1718.09 2112.7 1718.08 2118.53 1718.22 2118.5 1718.22 2135.48 1718.48 2135.38 1725.35 2118.38 1725.1 2112.53 1724.96 2107.07 1724.8 2102.05 1724.63 2097.51 1724.45 2093.51 1724.26 2090.09 1724.06 2087.29 1723.85 2085.13 1723.63 2083.26 1723.31 2082.38 1722.86 2081.95 1722.65 2082.92 1722.97 2081.67 1722.75 2081.89 1722.78 2079.89 1722.57 2079.99 1722.58 2077.27 1722.38 2077.33 1722.38 2073.96 1722.18 2073.99 1722.19 2070.02 1722 2070.05 1722 2065.53 1721.82 2065.56 1721.82 2060.55 1721.65 2060.57 1721.65 2055.13 1721.5 2055.14 1721.5 2049.32 1721.36 2049.34 1721.36 2036.77 1721.13 2036.79 1721.13 2023.34 1720.99 2023.37 1720.99 2009.49 1720.94ZM2130.95 1708.13 2158.35 1722.08 2130.75 1735.63Z"/><path d="M0.00470632-3.4375 11.2105-3.42215 22.0734-3.37877 32.2323-3.31135 41.3362-3.22389 45.3865-3.17384 49.0393-3.12028 52.2612-3.06355 54.9995-3.00422 57.2212-2.94247 58.9025-2.87768 60.1561-2.79851 60.7045-2.69676 61.049-2.63287 60.6387-2.68369 61.6434-2.62025 61.5591-2.62454 63.1799-2.5621 63.143-2.56332 65.3358-2.50239 65.3147-2.50291 68.0355-2.44397 68.0216-2.44424 71.2264-2.3878 74.8611-2.33453 78.8941-2.2847 87.9784-2.19743 87.9627-2.19754 97.2557-2.15048 97.2208 4.72443 87.9201 4.67733 78.8091 4.58978 74.7603 4.53973 71.1054 4.48613 67.8936 4.42957 65.1553 4.37025 62.9336 4.30851 61.2523 4.24374 59.9988 4.16461 59.4503 4.06287 59.1056 3.99892 59.516 4.04977 58.5113 3.98631 58.5956 3.9906 56.9749 3.92815 57.0117 3.92937 54.819 3.86842 54.84 3.86894 52.1192 3.80999 52.1332 3.81026 48.9385 3.75398 45.3016 3.70064 41.2702 3.6508 32.1866 3.5635 22.0459 3.49617 11.2011 3.45284-0.00470632 3.4375ZM92.7024-12.4787 120.155 1.36598 92.6075 15.0211Z" transform="matrix(1 0 0 -1 2023.5 1262.87)"/><path d="M0.00470632-3.4375 11.2105-3.42215 22.0734-3.37877 32.2323-3.31135 41.3362-3.22389 45.3865-3.17384 49.0393-3.12028 52.2612-3.06355 54.9995-3.00422 57.2212-2.94247 58.9025-2.87768 60.1561-2.79851 60.7045-2.69676 61.049-2.63287 60.6387-2.68369 61.6434-2.62025 61.5591-2.62454 63.1799-2.5621 63.143-2.56332 65.3358-2.50239 65.3147-2.50291 68.0355-2.44397 68.0216-2.44424 71.2264-2.3878 74.8611-2.33453 78.8941-2.2847 87.9784-2.19743 87.9627-2.19754 97.2557-2.15048 97.2208 4.72443 87.9201 4.67733 78.8091 4.58978 74.7603 4.53973 71.1054 4.48613 67.8936 4.42957 65.1553 4.37025 62.9336 4.30851 61.2523 4.24374 59.9988 4.16461 59.4503 4.06287 59.1056 3.99892 59.516 4.04977 58.5113 3.98631 58.5956 3.9906 56.9749 3.92815 57.0117 3.92937 54.819 3.86842 54.84 3.86894 52.1192 3.80999 52.1332 3.81026 48.9385 3.75398 45.3016 3.70064 41.2702 3.6508 32.1866 3.5635 22.0459 3.49617 11.2011 3.45284-0.00470632 3.4375ZM92.7024-12.4787 120.155 1.36598 92.6075 15.0211Z" transform="matrix(1 0 0 -1 1999.5 779.866)"/><path d="M0.00470632-3.4375 11.2105-3.42215 22.0734-3.37877 32.2323-3.31135 41.3362-3.22389 45.3865-3.17384 49.0393-3.12028 52.2612-3.06355 54.9995-3.00422 57.2212-2.94247 58.9025-2.87768 60.1561-2.79851 60.7045-2.69676 61.049-2.63287 60.6387-2.68369 61.6434-2.62025 61.5591-2.62454 63.1799-2.5621 63.143-2.56332 65.3358-2.50239 65.3147-2.50291 68.0355-2.44397 68.0216-2.44424 71.2264-2.3878 74.8611-2.33453 78.8941-2.2847 87.9784-2.19743 87.9627-2.19754 97.2557-2.15048 97.2208 4.72443 87.9201 4.67733 78.8091 4.58978 74.7603 4.53973 71.1054 4.48613 67.8936 4.42957 65.1553 4.37025 62.9336 4.30851 61.2523 4.24374 59.9988 4.16461 59.4503 4.06287 59.1056 3.99892 59.516 4.04977 58.5113 3.98631 58.5956 3.9906 56.9749 3.92815 57.0117 3.92937 54.819 3.86842 54.84 3.86894 52.1192 3.80999 52.1332 3.81026 48.9385 3.75398 45.3016 3.70064 41.2702 3.6508 32.1866 3.5635 22.0459 3.49617 11.2011 3.45284-0.00470632 3.4375ZM92.7024-12.4787 120.155 1.36598 92.6075 15.0211Z" transform="matrix(1 0 0 -1 2477.5 765.866)"/><path d="M0.00470632-3.4375 11.2105-3.42215 22.0734-3.37877 32.2323-3.31135 41.3362-3.22389 45.3865-3.17384 49.0393-3.12028 52.2612-3.06355 54.9995-3.00422 57.2212-2.94247 58.9025-2.87768 60.1561-2.79851 60.7045-2.69676 61.049-2.63287 60.6387-2.68369 61.6434-2.62025 61.5591-2.62454 63.1799-2.5621 63.143-2.56332 65.3358-2.50239 65.3147-2.50291 68.0355-2.44397 68.0216-2.44424 71.2264-2.3878 74.8611-2.33453 78.8941-2.2847 87.9784-2.19743 87.9627-2.19754 97.2557-2.15048 97.2208 4.72443 87.9201 4.67733 78.8091 4.58978 74.7603 4.53973 71.1054 4.48613 67.8936 4.42957 65.1553 4.37025 62.9336 4.30851 61.2523 4.24374 59.9988 4.16461 59.4503 4.06287 59.1056 3.99892 59.516 4.04977 58.5113 3.98631 58.5956 3.9906 56.9749 3.92815 57.0117 3.92937 54.819 3.86842 54.84 3.86894 52.1192 3.80999 52.1332 3.81026 48.9385 3.75398 45.3016 3.70064 41.2702 3.6508 32.1866 3.5635 22.0459 3.49617 11.2011 3.45284-0.00470632 3.4375ZM92.7024-12.4787 120.155 1.36598 92.6075 15.0211Z" transform="matrix(1 0 0 -1 2946.5 785.866)"/><path d="M0.00470632-3.4375 11.2105-3.42215 22.0734-3.37877 32.2323-3.31135 41.3362-3.22389 45.3865-3.17384 49.0393-3.12028 52.2612-3.06355 54.9995-3.00422 57.2212-2.94247 58.9025-2.87768 60.1561-2.79851 60.7045-2.69676 61.049-2.63287 60.6387-2.68369 61.6434-2.62025 61.5591-2.62454 63.1799-2.5621 63.143-2.56332 65.3358-2.50239 65.3147-2.50291 68.0355-2.44397 68.0216-2.44424 71.2264-2.3878 74.8611-2.33453 78.8941-2.2847 87.9784-2.19743 87.9627-2.19754 97.2557-2.15048 97.2208 4.72443 87.9201 4.67733 78.8091 4.58978 74.7603 4.53973 71.1054 4.48613 67.8936 4.42957 65.1553 4.37025 62.9336 4.30851 61.2523 4.24374 59.9988 4.16461 59.4503 4.06287 59.1056 3.99892 59.516 4.04977 58.5113 3.98631 58.5956 3.9906 56.9749 3.92815 57.0117 3.92937 54.819 3.86842 54.84 3.86894 52.1192 3.80999 52.1332 3.81026 48.9385 3.75398 45.3016 3.70064 41.2702 3.6508 32.1866 3.5635 22.0459 3.49617 11.2011 3.45284-0.00470632 3.4375ZM92.7024-12.4787 120.155 1.36598 92.6075 15.0211Z" transform="matrix(1 0 0 -1 3414.5 782.866)"/><path d="M0.00470632-3.4375 11.2105-3.42215 22.0734-3.37877 32.2323-3.31135 41.3362-3.22389 45.3865-3.17384 49.0393-3.12028 52.2612-3.06355 54.9995-3.00422 57.2212-2.94247 58.9025-2.87768 60.1561-2.79851 60.7045-2.69676 61.049-2.63287 60.6387-2.68369 61.6434-2.62025 61.5591-2.62454 63.1799-2.5621 63.143-2.56332 65.3358-2.50239 65.3147-2.50291 68.0355-2.44397 68.0216-2.44424 71.2264-2.3878 74.8611-2.33453 78.8941-2.2847 87.9784-2.19743 87.9627-2.19754 97.2557-2.15048 97.2208 4.72443 87.9201 4.67733 78.8091 4.58978 74.7603 4.53973 71.1054 4.48613 67.8936 4.42957 65.1553 4.37025 62.9336 4.30851 61.2523 4.24374 59.9988 4.16461 59.4503 4.06287 59.1056 3.99892 59.516 4.04977 58.5113 3.98631 58.5956 3.9906 56.9749 3.92815 57.0117 3.92937 54.819 3.86842 54.84 3.86894 52.1192 3.80999 52.1332 3.81026 48.9385 3.75398 45.3016 3.70064 41.2702 3.6508 32.1866 3.5635 22.0459 3.49617 11.2011 3.45284-0.00470632 3.4375ZM92.7024-12.4787 120.155 1.36598 92.6075 15.0211Z" transform="matrix(1 0 0 -1 2511.5 1729.87)"/><path d="M0.00470632-3.4375 11.2105-3.42215 22.0734-3.37877 32.2323-3.31135 41.3362-3.22389 45.3865-3.17384 49.0393-3.12028 52.2612-3.06355 54.9995-3.00422 57.2212-2.94247 58.9025-2.87768 60.1561-2.79851 60.7045-2.69676 61.049-2.63287 60.6387-2.68369 61.6434-2.62025 61.5591-2.62454 63.1799-2.5621 63.143-2.56332 65.3358-2.50239 65.3147-2.50291 68.0355-2.44397 68.0216-2.44424 71.2264-2.3878 74.8611-2.33453 78.8941-2.2847 87.9784-2.19743 87.9627-2.19754 97.2557-2.15048 97.2208 4.72443 87.9201 4.67733 78.8091 4.58978 74.7603 4.53973 71.1054 4.48613 67.8936 4.42957 65.1553 4.37025 62.9336 4.30851 61.2523 4.24374 59.9988 4.16461 59.4503 4.06287 59.1056 3.99892 59.516 4.04977 58.5113 3.98631 58.5956 3.9906 56.9749 3.92815 57.0117 3.92937 54.819 3.86842 54.84 3.86894 52.1192 3.80999 52.1332 3.81026 48.9385 3.75398 45.3016 3.70064 41.2702 3.6508 32.1866 3.5635 22.0459 3.49617 11.2011 3.45284-0.00470632 3.4375ZM92.7024-12.4787 120.155 1.36598 92.6075 15.0211Z" transform="matrix(1 0 0 -1 2968.5 1733.87)"/><path d="M0.00470632-3.4375 11.2105-3.42215 22.0734-3.37877 32.2323-3.31135 41.3362-3.22389 45.3865-3.17384 49.0393-3.12028 52.2612-3.06355 54.9995-3.00422 57.2212-2.94247 58.9025-2.87768 60.1561-2.79851 60.7045-2.69676 61.049-2.63287 60.6387-2.68369 61.6434-2.62025 61.5591-2.62454 63.1799-2.5621 63.143-2.56332 65.3358-2.50239 65.3147-2.50291 68.0355-2.44397 68.0216-2.44424 71.2264-2.3878 74.8611-2.33453 78.8941-2.2847 87.9784-2.19743 87.9627-2.19754 97.2557-2.15048 97.2208 4.72443 87.9201 4.67733 78.8091 4.58978 74.7603 4.53973 71.1054 4.48613 67.8936 4.42957 65.1553 4.37025 62.9336 4.30851 61.2523 4.24374 59.9988 4.16461 59.4503 4.06287 59.1056 3.99892 59.516 4.04977 58.5113 3.98631 58.5956 3.9906 56.9749 3.92815 57.0117 3.92937 54.819 3.86842 54.84 3.86894 52.1192 3.80999 52.1332 3.81026 48.9385 3.75398 45.3016 3.70064 41.2702 3.6508 32.1866 3.5635 22.0459 3.49617 11.2011 3.45284-0.00470632 3.4375ZM92.7024-12.4787 120.155 1.36598 92.6075 15.0211Z" transform="matrix(1 0 0 -1 2515.5 2152.87)"/><path d="M3121.5 2152.5C3121.5 2061.37 3195.37 1987.5 3286.5 1987.5 3377.63 1987.5 3451.5 2061.37 3451.5 2152.5 3451.5 2243.63 3377.63 2317.5 3286.5 2317.5 3195.37 2317.5 3121.5 2243.63 3121.5 2152.5Z" stroke="#172C51" stroke-width="4.58333" stroke-miterlimit="8" fill="#4472C4" fill-rule="evenodd"/><text fill="#FFFFFF" font-family="Calibri,Calibri_MSFontService,sans-serif" font-weight="400" font-size="60" transform="matrix(1 0 0 1 3134.48 2125)">CarrotPieces</text><text fill="#FFFFFF" font-family="Calibri,Calibri_MSFontService,sans-serif" font-weight="400" font-size="60" transform="matrix(1 0 0 1 3439.46 2125)">-</text><text fill="#FFFFFF" font-family="Calibri,Calibri_MSFontService,sans-serif" font-weight="400" font-size="60" transform="matrix(1 0 0 1 3134.48 2196)">on</text><text fill="#FFFFFF" font-family="Calibri,Calibri_MSFontService,sans-serif" font-weight="400" font-size="60" transform="matrix(1 0 0 1 3197.5 2196)">-</text><text fill="#FFFFFF" font-family="Calibri,Calibri_MSFontService,sans-serif" font-weight="400" font-size="60" transform="matrix(1 0 0 1 3215.83 2196)">CutBoard</text><path d="M3565.5 2151.5C3565.5 2060.37 3639.37 1986.5 3730.5 1986.5 3821.63 1986.5 3895.5 2060.37 3895.5 2151.5 3895.5 2242.63 3821.63 2316.5 3730.5 2316.5 3639.37 2316.5 3565.5 2242.63 3565.5 2151.5Z" stroke="#172C51" stroke-width="4.58333" stroke-miterlimit="8" fill="#4472C4" fill-rule="evenodd"/><text fill="#FFFFFF" font-family="Calibri,Calibri_MSFontService,sans-serif" font-weight="400" font-size="78" transform="matrix(1 0 0 1 3579.3 2140)">CutBoard</text><text fill="#FFFFFF" font-family="Calibri,Calibri_MSFontService,sans-serif" font-weight="400" font-size="78" transform="matrix(1 0 0 1 3875.59 2140)">-</text><text fill="#FFFFFF" font-family="Calibri,Calibri_MSFontService,sans-serif" font-weight="400" font-size="78" transform="matrix(1 0 0 1 3579.3 2233)">Grasped</text><path d="M4043.5 2151.5C4043.5 2060.37 4117.37 1986.5 4208.5 1986.5 4299.63 1986.5 4373.5 2060.37 4373.5 2151.5 4373.5 2242.63 4299.63 2316.5 4208.5 2316.5 4117.37 2316.5 4043.5 2242.63 4043.5 2151.5Z" stroke="#172C51" stroke-width="4.58333" stroke-miterlimit="8" fill-rule="evenodd"/><text fill="#FFFFFF" font-family="Calibri,Calibri_MSFontService,sans-serif" font-weight="400" font-size="60" transform="matrix(1 0 0 1 4056.55 2123)">CarrotPieces</text><text fill="#FFFFFF" font-family="Calibri,Calibri_MSFontService,sans-serif" font-weight="400" font-size="60" transform="matrix(1 0 0 1 4361.52 2123)">-</text><text fill="#FFFFFF" font-family="Calibri,Calibri_MSFontService,sans-serif" font-weight="400" font-size="60" transform="matrix(1 0 0 1 4056.55 2194)">in</text><text fill="#FFFFFF" font-family="Calibri,Calibri_MSFontService,sans-serif" font-weight="400" font-size="60" transform="matrix(1 0 0 1 4101.81 2194)">-</text><text fill="#FFFFFF" font-family="Calibri,Calibri_MSFontService,sans-serif" font-weight="400" font-size="60" transform="matrix(1 0 0 1 4120.14 2194)">Bowl</text><path d="M0.00470632-3.4375 11.2105-3.42215 22.0734-3.37877 32.2323-3.31135 41.3362-3.22389 45.3865-3.17384 49.0393-3.12028 52.2612-3.06355 54.9995-3.00422 57.2212-2.94247 58.9025-2.87768 60.1561-2.79851 60.7045-2.69676 61.049-2.63287 60.6387-2.68369 61.6434-2.62025 61.5591-2.62454 63.1799-2.5621 63.143-2.56332 65.3358-2.50239 65.3147-2.50291 68.0355-2.44397 68.0216-2.44424 71.2264-2.3878 74.8611-2.33453 78.8941-2.2847 87.9784-2.19743 87.9627-2.19754 97.2557-2.15048 97.2208 4.72443 87.9201 4.67733 78.8091 4.58978 74.7603 4.53973 71.1054 4.48613 67.8936 4.42957 65.1553 4.37025 62.9336 4.30851 61.2523 4.24374 59.9988 4.16461 59.4503 4.06287 59.1056 3.99892 59.516 4.04977 58.5113 3.98631 58.5956 3.9906 56.9749 3.92815 57.0117 3.92937 54.819 3.86842 54.84 3.86894 52.1192 3.80999 52.1332 3.81026 48.9385 3.75398 45.3016 3.70064 41.2702 3.6508 32.1866 3.5635 22.0459 3.49617 11.2011 3.45284-0.00470632 3.4375ZM92.7024-12.4787 120.155 1.36598 92.6075 15.0211Z" transform="matrix(1 0 0 -1 2976.5 2139.87)"/><path d="M0.00470632-3.4375 11.2105-3.42215 22.0734-3.37877 32.2323-3.31135 41.3362-3.22389 45.3865-3.17384 49.0393-3.12028 52.2612-3.06355 54.9995-3.00422 57.2212-2.94247 58.9025-2.87768 60.1561-2.79851 60.7045-2.69676 61.049-2.63287 60.6387-2.68369 61.6434-2.62025 61.5591-2.62454 63.1799-2.5621 63.143-2.56332 65.3358-2.50239 65.3147-2.50291 68.0355-2.44397 68.0216-2.44424 71.2264-2.3878 74.8611-2.33453 78.8941-2.2847 87.9784-2.19743 87.9627-2.19754 97.2557-2.15048 97.2208 4.72443 87.9201 4.67733 78.8091 4.58978 74.7603 4.53973 71.1054 4.48613 67.8936 4.42957 65.1553 4.37025 62.9336 4.30851 61.2523 4.24374 59.9988 4.16461 59.4503 4.06287 59.1056 3.99892 59.516 4.04977 58.5113 3.98631 58.5956 3.9906 56.9749 3.92815 57.0117 3.92937 54.819 3.86842 54.84 3.86894 52.1192 3.80999 52.1332 3.81026 48.9385 3.75398 45.3016 3.70064 41.2702 3.6508 32.1866 3.5635 22.0459 3.49617 11.2011 3.45284-0.00470632 3.4375ZM92.7024-12.4787 120.155 1.36598 92.6075 15.0211Z" transform="matrix(1 0 0 -1 3445.5 2159.87)"/><path d="M0.00470632-3.4375 11.2105-3.42215 22.0734-3.37877 32.2323-3.31135 41.3362-3.22389 45.3865-3.17384 49.0393-3.12028 52.2612-3.06355 54.9995-3.00422 57.2212-2.94247 58.9025-2.87768 60.1561-2.79851 60.7045-2.69676 61.049-2.63287 60.6387-2.68369 61.6434-2.62025 61.5591-2.62454 63.1799-2.5621 63.143-2.56332 65.3358-2.50239 65.3147-2.50291 68.0355-2.44397 68.0216-2.44424 71.2264-2.3878 74.8611-2.33453 78.8941-2.2847 87.9784-2.19743 87.9627-2.19754 97.2557-2.15048 97.2208 4.72443 87.9201 4.67733 78.8091 4.58978 74.7603 4.53973 71.1054 4.48613 67.8936 4.42957 65.1553 4.37025 62.9336 4.30851 61.2523 4.24374 59.9988 4.16461 59.4503 4.06287 59.1056 3.99892 59.516 4.04977 58.5113 3.98631 58.5956 3.9906 56.9749 3.92815 57.0117 3.92937 54.819 3.86842 54.84 3.86894 52.1192 3.80999 52.1332 3.81026 48.9385 3.75398 45.3016 3.70064 41.2702 3.6508 32.1866 3.5635 22.0459 3.49617 11.2011 3.45284-0.00470632 3.4375ZM92.7024-12.4787 120.155 1.36598 92.6075 15.0211Z" transform="matrix(1 0 0 -1 3913.5 2156.87)"/></g></svg>