<svg width="2587" height="1063" xmlns="http://www.w3.org/2000/svg" xmlns:xlink="http://www.w3.org/1999/xlink" xml:space="preserve" overflow="hidden"><g transform="translate(-894 -718)"><path d="M967.5 1613.5C967.5 1522.37 1041.37 1448.5 1132.5 1448.5 1223.63 1448.5 1297.5 1522.37 1297.5 1613.5 1297.5 1704.63 1223.63 1778.5 1132.5 1778.5 1041.37 1778.5 967.5 1704.63 967.5 1613.5Z" stroke="#172C51" stroke-width="4.58333" stroke-miterlimit="8" fill="#4472C4" fill-rule="evenodd"/><text fill="#FFFFFF" font-family="Calibri,Calibri_MSFontService,sans-serif" font-weight="400" font-size="83" transform="matrix(1 0 0 1 1000.15 1590)">Carrots</text><text fill="#FFFFFF" font-family="Calibri,Calibri_MSFontService,sans-serif" font-weight="400" font-size="83" transform="matrix(1 0 0 1 1242.88 1590)">-</text><text fill="#FFFFFF" font-family="Calibri,Calibri_MSFontService,sans-serif" font-weight="400" font-size="83" transform="matrix(1 0 0 1 1000.15 1689)">in</text><text fill="#FFFFFF" font-family="Calibri,Calibri_MSFontService,sans-serif" font-weight="400" font-size="83" transform="matrix(1 0 0 1 1062.59 1689)">-</text><text fill="#FFFFFF" font-family="Calibri,Calibri_MSFontService,sans-serif" font-weight="400" font-size="83" transform="matrix(1 0 0 1 1087.8 1689)">Sink</text><path d="M1185.5 1141.5C1185.5 1050.37 1259.37 976.5 1350.5 976.5 1441.63 976.5 1515.5 1050.37 1515.5 1141.5 1515.5 1232.63 1441.63 1306.5 1350.5 1306.5 1259.37 1306.5 1185.5 1232.63 1185.5 1141.5Z" stroke="#172C51" stroke-width="4.58333" stroke-miterlimit="8" fill="#4472C4" fill-rule="evenodd"/><text fill="#FFFFFF" font-family="Calibri,Calibri_MSFontService,sans-serif" font-weight="400" font-size="83" transform="matrix(1 0 0 1 1199.42 1123)">Carrot</text><text fill="#FFFFFF" font-family="Calibri,Calibri_MSFontService,sans-serif" font-weight="400" font-size="83" transform="matrix(1 0 0 1 1410.07 1123)">-</text><text fill="#FFFFFF" font-family="Calibri,Calibri_MSFontService,sans-serif" font-weight="400" font-size="83" transform="matrix(1 0 0 1 1199.42 1222)">Grasped</text><path d="M1656.5 948.5C1656.5 857.373 1730.37 783.5 1821.5 783.5 1912.63 783.5 1986.5 857.373 1986.5 948.5 1986.5 1039.63 1912.63 1113.5 1821.5 1113.5 1730.37 1113.5 1656.5 1039.63 1656.5 948.5Z" stroke="#172C51" stroke-width="4.58333" stroke-miterlimit="8" fill="#4472C4" fill-rule="evenodd"/><text fill="#FFFFFF" font-family="Calibri,Calibri_MSFontService,sans-serif" font-weight="400" font-size="69" transform="matrix(1 0 0 1 1669.91 929)">Carrot</text><text fill="#FFFFFF" font-family="Calibri,Calibri_MSFontService,sans-serif" font-weight="400" font-size="69" transform="matrix(1 0 0 1 1845.27 929)">-</text><text fill="#FFFFFF" font-family="Calibri,Calibri_MSFontService,sans-serif" font-weight="400" font-size="69" transform="matrix(1 0 0 1 1866.46 929)">on</text><text fill="#FFFFFF" font-family="Calibri,Calibri_MSFontService,sans-serif" font-weight="400" font-size="69" transform="matrix(1 0 0 1 1938.65 929)">-</text><text fill="#FFFFFF" font-family="Calibri,Calibri_MSFontService,sans-serif" font-weight="400" font-size="69" transform="matrix(1 0 0 1 1669.91 1012)">CutBoard</text><path d="M2139.5 948.5C2139.5 857.373 2213.37 783.5 2304.5 783.5 2395.63 783.5 2469.5 857.373 2469.5 948.5 2469.5 1039.63 2395.63 1113.5 2304.5 1113.5 2213.37 1113.5 2139.5 1039.63 2139.5 948.5Z" stroke="#172C51" stroke-width="4.58333" stroke-miterlimit="8" fill="#4472C4" fill-rule="evenodd"/><text fill="#FFFFFF" font-family="Calibri,Calibri_MSFontService,sans-serif" font-weight="400" font-size="60" transform="matrix(1 0 0 1 2153.33 921)">CarrotPieces</text><text fill="#FFFFFF" font-family="Calibri,Calibri_MSFontService,sans-serif" font-weight="400" font-size="60" transform="matrix(1 0 0 1 2458.31 921)">-</text><text fill="#FFFFFF" font-family="Calibri,Calibri_MSFontService,sans-serif" font-weight="400" font-size="60" transform="matrix(1 0 0 1 2153.33 992)">on</text><text fill="#FFFFFF" font-family="Calibri,Calibri_MSFontService,sans-serif" font-weight="400" font-size="60" transform="matrix(1 0 0 1 2216.35 992)">-</text><text fill="#FFFFFF" font-family="Calibri,Calibri_MSFontService,sans-serif" font-weight="400" font-size="60" transform="matrix(1 0 0 1 2234.69 992)">CutBoard</text><path d="M2584.5 947.5C2584.5 856.373 2658.37 782.5 2749.5 782.5 2840.63 782.5 2914.5 856.373 2914.5 947.5 2914.5 1038.63 2840.63 1112.5 2749.5 1112.5 2658.37 1112.5 2584.5 1038.63 2584.5 947.5Z" stroke="#172C51" stroke-width="4.58333" stroke-miterlimit="8" fill="#4472C4" fill-rule="evenodd"/><text fill="#FFFFFF" font-family="Calibri,Calibri_MSFontService,sans-serif" font-weight="400" font-size="78" transform="matrix(1 0 0 1 2598.15 937)">CutBoard</text><text fill="#FFFFFF" font-family="Calibri,Calibri_MSFontService,sans-serif" font-weight="400" font-size="78" transform="matrix(1 0 0 1 2894.44 937)">-</text><text fill="#FFFFFF" font-family="Calibri,Calibri_MSFontService,sans-serif" font-weight="400" font-size="78" transform="matrix(1 0 0 1 2598.15 1030)">Grasped</text><path d="M3061.5 947.5C3061.5 856.373 3135.37 782.5 3226.5 782.5 3317.63 782.5 3391.5 856.373 3391.5 947.5 3391.5 1038.63 3317.63 1112.5 3226.5 1112.5 3135.37 1112.5 3061.5 1038.63 3061.5 947.5Z" stroke="#172C51" stroke-width="4.58333" stroke-miterlimit="8" fill-rule="evenodd"/><text fill="#FFFFFF" font-family="Calibri,Calibri_MSFontService,sans-serif" font-weight="400" font-size="60" transform="matrix(1 0 0 1 3075.4 920)">CarrotPieces</text><text fill="#FFFFFF" font-family="Calibri,Calibri_MSFontService,sans-serif" font-weight="400" font-size="60" transform="matrix(1 0 0 1 3380.37 920)">-</text><text fill="#FFFFFF" font-family="Calibri,Calibri_MSFontService,sans-serif" font-weight="400" font-size="60" transform="matrix(1 0 0 1 3075.4 991)">in</text><text fill="#FFFFFF" font-family="Calibri,Calibri_MSFontService,sans-serif" font-weight="400" font-size="60" transform="matrix(1 0 0 1 3120.66 991)">-</text><text fill="#FFFFFF" font-family="Calibri,Calibri_MSFontService,sans-serif" font-weight="400" font-size="60" transform="matrix(1 0 0 1 3138.99 991)">Bowl</text><path d="M1129.06 1448.16 1129.26 1419.89 1129.83 1391.82 1130.76 1364.19 1132.01 1337.23 1133.57 1311.14 1135.4 1286.17 1136.41 1274.16 1137.48 1262.51 1138.61 1251.24 1139.8 1240.39 1141.03 1229.97 1142.31 1220.03 1143.64 1210.57 1145 1201.64 1146.41 1193.25 1147.86 1185.43 1149.34 1178.21 1150.91 1171.34 1153.42 1165.63 1159.71 1168.4 1157.34 1173.81 1157.54 1173.19 1156.05 1179.71 1156.06 1179.63 1154.6 1186.78 1154.61 1186.71 1153.18 1194.47 1153.19 1194.41 1151.79 1202.75 1151.8 1202.7 1150.44 1211.59 1150.44 1211.55 1149.12 1220.96 1149.13 1220.92 1147.85 1230.83 1147.85 1230.8 1146.62 1241.18 1146.63 1241.15 1145.45 1251.97 1145.45 1251.94 1144.33 1263.18 1144.33 1263.15 1143.26 1274.77 1143.26 1274.75 1142.25 1286.73 1142.25 1286.69 1140.43 1311.62 1140.43 1311.58 1138.88 1337.61 1138.88 1337.57 1137.63 1364.49 1137.63 1364.44 1136.71 1392.03 1136.71 1391.98 1136.13 1420.01 1136.13 1419.96 1135.94 1448.21ZM1142.22 1165 1166.77 1146.5 1166.84 1177.25Z"/><path d="M1464.07 1024.71 1464.33 1020.9 1465.15 1016.89 1466.47 1012.95 1468.27 1009.08 1470.51 1005.29 1473.18 1001.58 1476.25 997.949 1479.73 994.366 1487.67 987.555 1496.99 981.058 1507.52 974.944 1519.14 969.253 1531.74 964.033 1545.21 959.333 1559.41 955.206 1574.23 951.704 1589.55 948.883 1605.27 946.794 1614.17 946.217 1614.61 953.077 1605.83 953.647 1606.06 953.625 1590.54 955.687 1590.71 955.66 1575.56 958.45 1575.73 958.415 1561.08 961.877 1561.24 961.832 1547.21 965.91 1547.39 965.854 1534.1 970.492 1534.29 970.422 1521.87 975.564 1522.07 975.476 1510.65 981.065 1510.86 980.95 1500.56 986.931 1500.8 986.778 1491.75 993.095 1492.02 992.885 1484.33 999.482 1484.55 999.27 1481.26 1002.66 1481.42 1002.48 1478.52 1005.91 1478.68 1005.7 1476.18 1009.18 1476.35 1008.92 1474.27 1012.44 1474.43 1012.13 1472.79 1015.67 1472.93 1015.32 1471.73 1018.88 1471.84 1018.47 1471.11 1022.05 1471.18 1021.6 1470.93 1025.18ZM1609.12 936.144 1637.28 948.5 1610.5 963.609Z"/><path d="M1980.51 934.062 1993.66 934.114 2006.4 934.26 2018.32 934.486 2023.84 934.626 2029.01 934.78 2033.76 934.949 2038.06 935.129 2041.85 935.32 2045.09 935.521 2047.74 935.732 2049.81 935.96 2051.63 936.29 2052.51 936.756 2052.91 936.97 2051.91 936.624 2053.09 936.836 2052.85 936.802 2054.75 937.012 2054.65 937.002 2057.22 937.206 2057.16 937.202 2060.35 937.4 2060.31 937.398 2064.06 937.587 2064.03 937.586 2068.3 937.765 2068.28 937.764 2073.02 937.932 2073 937.931 2078.15 938.085 2078.13 938.085 2083.64 938.224 2083.6 938.223 2098.43 938.456 2098.32 945.33 2083.48 945.097 2077.95 944.957 2072.78 944.803 2068.03 944.634 2063.73 944.454 2059.94 944.263 2056.7 944.062 2054.05 943.851 2051.98 943.623 2050.16 943.293 2049.28 942.827 2048.88 942.613 2049.88 942.96 2048.7 942.747 2048.94 942.781 2047.04 942.571 2047.14 942.581 2044.57 942.377 2044.63 942.381 2041.45 942.183 2041.48 942.185 2037.73 941.996 2037.76 941.997 2033.49 941.818 2033.51 941.819 2028.78 941.651 2028.79 941.652 2023.65 941.498 2023.66 941.498 2018.15 941.359 2018.18 941.36 2006.28 941.134 2006.31 941.134 1993.59 940.989 1993.62 940.989 1980.49 940.937ZM2093.91 928.105 2121.29 942.083 2093.68 955.604Z"/><path d="M2469.52 955.062 2478.47 955.114 2487.16 955.26 2495.29 955.487 2502.59 955.782 2508.78 956.133 2511.39 956.326 2513.63 956.531 2515.5 956.749 2517.03 956.998 2518.68 957.435 2519.51 958.082 2519.78 958.297 2518.55 957.684 2519.35 957.897 2519.02 957.826 2520.31 958.035 2520.16 958.014 2521.91 958.219 2521.82 958.21 2523.99 958.407 2523.93 958.403 2526.48 958.592 2526.42 958.588 2532.55 958.935 2532.46 958.931 2542.47 959.233 2542.26 966.105 2532.21 965.802 2526.01 965.451 2523.39 965.257 2521.15 965.052 2519.28 964.834 2517.75 964.585 2516.1 964.148 2515.27 963.501 2515 963.286 2516.23 963.899 2515.43 963.686 2515.76 963.757 2514.47 963.548 2514.62 963.569 2512.88 963.364 2512.96 963.373 2510.79 963.176 2510.85 963.18 2508.3 962.991 2508.36 962.995 2502.23 962.648 2502.29 962.651 2495.04 962.358 2495.08 962.359 2486.99 962.133 2487.03 962.134 2478.37 961.988 2478.41 961.989 2469.48 961.937ZM2538.03 948.839 2565.28 963.083 2537.54 976.334Z"/><path d="M0.00470632-3.4375 11.2105-3.42215 22.0734-3.37877 32.2323-3.31135 41.3362-3.22389 45.3865-3.17384 49.0393-3.12028 52.2612-3.06355 54.9995-3.00422 57.2212-2.94247 58.9025-2.87768 60.1561-2.79851 60.7045-2.69676 61.049-2.63287 60.6387-2.68369 61.6434-2.62025 61.5591-2.62454 63.1799-2.5621 63.143-2.56332 65.3358-2.50239 65.3147-2.50291 68.0355-2.44397 68.0216-2.44424 71.2264-2.3878 74.8611-2.33453 78.8941-2.2847 87.9784-2.19743 87.9627-2.19754 97.2557-2.15048 97.2208 4.72443 87.9201 4.67733 78.8091 4.58978 74.7603 4.53973 71.1054 4.48613 67.8936 4.42957 65.1553 4.37025 62.9336 4.30851 61.2523 4.24374 59.9988 4.16461 59.4503 4.06287 59.1056 3.99892 59.516 4.04977 58.5113 3.98631 58.5956 3.9906 56.9749 3.92815 57.0117 3.92937 54.819 3.86842 54.84 3.86894 52.1192 3.80999 52.1332 3.81026 48.9385 3.75398 45.3016 3.70064 41.2702 3.6508 32.1866 3.5635 22.0459 3.49617 11.2011 3.45284-0.00470632 3.4375ZM92.7024-12.4787 120.155 1.36598 92.6075 15.0211Z" transform="matrix(1 0 0 -1 2922.5 937.866)"/><path d="M1825.29 1113.61 1824.55 1137.12 1822.36 1160.69 1818.77 1184.16 1813.82 1207.48 1807.57 1230.62 1800.06 1253.51 1791.33 1276.12 1781.44 1298.4 1770.44 1320.31 1758.36 1341.8 1745.26 1362.82 1731.18 1383.34 1716.18 1403.3 1700.28 1422.66 1683.55 1441.37 1666.03 1459.39 1647.76 1476.68 1628.79 1493.19 1609.17 1508.87 1588.94 1523.67 1568.15 1537.56 1546.84 1550.48 1525.06 1562.39 1502.86 1573.25 1480.28 1583 1457.37 1591.61 1434.17 1599.02 1410.73 1605.18 1387.1 1610.06 1363.3 1613.61 1338.68 1615.6 1338.12 1608.74 1362.63 1606.77 1362.4 1606.79 1385.99 1603.28 1385.8 1603.31 1409.25 1598.47 1409.07 1598.51 1432.34 1592.39 1432.16 1592.44 1455.2 1585.09 1455.03 1585.14 1477.79 1576.6 1477.63 1576.66 1500.06 1566.97 1499.92 1567.04 1521.97 1556.25 1521.83 1556.32 1543.48 1544.49 1543.34 1544.56 1564.52 1531.72 1564.39 1531.8 1585.06 1518 1584.94 1518.08 1605.05 1503.36 1604.94 1503.45 1624.45 1487.86 1624.33 1487.95 1643.19 1471.54 1643.09 1471.64 1661.25 1454.45 1661.15 1454.55 1678.57 1436.63 1678.48 1436.73 1695.11 1418.13 1695.02 1418.24 1710.82 1398.99 1710.73 1399.1 1725.65 1379.26 1725.56 1379.38 1739.55 1358.99 1739.47 1359.12 1752.49 1338.23 1752.41 1338.36 1764.41 1317.01 1764.33 1317.15 1775.26 1295.39 1775.19 1295.54 1785.01 1273.41 1784.95 1273.57 1793.61 1251.12 1793.55 1251.28 1801.01 1228.56 1800.95 1228.73 1807.16 1205.78 1807.11 1205.97 1812.02 1182.83 1811.98 1183.02 1815.55 1159.75 1815.52 1159.95 1817.69 1136.59 1817.68 1136.8 1818.41 1113.39ZM1343.51 1625.73 1315.5 1613.06 1342.45 1598.25Z"/><path d="M2308.71 1113.61 2308.35 1125.42 2307.25 1137.32 2305.45 1149.21 2302.94 1161.08 2299.74 1172.91 2295.87 1184.7 2291.34 1196.45 2286.15 1208.15 2280.33 1219.79 2273.88 1231.37 2266.82 1242.88 2259.16 1254.32 2250.91 1265.69 2242.08 1276.97 2232.69 1288.16 2222.74 1299.26 2212.25 1310.27 2201.23 1321.17 2189.69 1331.97 2177.64 1342.65 2165.09 1353.21 2152.06 1363.65 2138.55 1373.96 2124.59 1384.13 2110.16 1394.16 2095.3 1404.05 2080.01 1413.79 2064.31 1423.37 2048.19 1432.79 2031.68 1442.04 2014.79 1451.12 1997.51 1460.02 1961.91 1477.25 1924.95 1493.71 1886.72 1509.34 1847.31 1524.09 1806.82 1537.93 1765.33 1550.8 1722.93 1562.66 1679.72 1573.47 1635.78 1583.18 1591.21 1591.74 1546.1 1599.12 1500.53 1605.25 1454.59 1610.1 1408.38 1613.62 1361.99 1615.77 1338.47 1616.14 1338.36 1609.26 1361.83 1608.9 1361.72 1608.9 1408.01 1606.76 1407.91 1606.76 1454.02 1603.25 1453.92 1603.26 1499.75 1598.42 1499.66 1598.43 1545.13 1592.31 1545.04 1592.32 1590.06 1584.97 1589.96 1584.98 1634.44 1576.44 1634.35 1576.46 1678.19 1566.77 1678.1 1566.79 1721.22 1556.01 1721.12 1556.03 1763.43 1544.19 1763.33 1544.22 1804.73 1531.38 1804.64 1531.41 1845.04 1517.6 1844.94 1517.63 1884.26 1502.92 1884.16 1502.95 1922.3 1487.36 1922.2 1487.41 1959.07 1470.99 1958.97 1471.04 1994.47 1453.85 1994.4 1453.89 2011.61 1445.02 2011.56 1445.05 2028.4 1436 2028.35 1436.03 2044.8 1426.81 2044.75 1426.84 2060.81 1417.45 2060.75 1417.48 2076.41 1407.94 2076.35 1407.97 2091.58 1398.27 2091.52 1398.31 2106.33 1388.46 2106.27 1388.5 2120.63 1378.51 2120.57 1378.55 2134.48 1368.42 2134.41 1368.47 2147.86 1358.21 2147.79 1358.26 2160.76 1347.87 2160.7 1347.92 2173.18 1337.42 2173.11 1337.47 2185.09 1326.85 2185.02 1326.91 2196.5 1316.18 2196.43 1316.25 2207.38 1305.42 2207.31 1305.49 2217.73 1294.56 2217.66 1294.64 2227.53 1283.62 2227.46 1283.7 2236.78 1272.59 2236.7 1272.68 2245.46 1261.5 2245.38 1261.6 2253.56 1250.33 2253.49 1250.44 2261.07 1239.11 2261 1239.23 2267.99 1227.83 2267.91 1227.96 2274.29 1216.51 2274.22 1216.64 2279.97 1205.14 2279.9 1205.29 2285.02 1193.74 2284.95 1193.89 2289.43 1182.31 2289.37 1182.47 2293.18 1170.85 2293.13 1171.03 2296.28 1159.38 2296.23 1159.56 2298.7 1147.89 2298.66 1148.08 2300.44 1136.39 2300.42 1136.59 2301.49 1124.89 2301.48 1125.1 2301.84 1113.39ZM1343.21 1626.38 1315.5 1613.06 1342.78 1598.88Z"/><path d="M3230.77 1112.7 3230.06 1124.64 3227.92 1136.76 3224.39 1148.83 3219.49 1160.85 3213.27 1172.8 3205.76 1184.68 3196.97 1196.5 3186.95 1208.24 3175.7 1219.92 3163.26 1231.52 3149.64 1243.04 3134.88 1254.49 3118.98 1265.86 3101.97 1277.14 3083.88 1288.33 3064.73 1299.43 3044.52 1310.43 3023.3 1321.33 3001.07 1332.12 2977.86 1342.8 2953.7 1353.36 2928.6 1363.8 2902.58 1374.11 2875.66 1384.29 2847.88 1394.32 2819.24 1404.21 2789.77 1413.96 2759.5 1423.54 2728.44 1432.96 2696.62 1442.22 2664.05 1451.31 2630.76 1460.21 2596.77 1468.93 2562.11 1477.46 2526.79 1485.8 2490.84 1493.93 2454.28 1501.86 2417.12 1509.58 2379.4 1517.07 2341.13 1524.35 2302.33 1531.39 2263.04 1538.2 2223.26 1544.77 2183.02 1551.09 2142.35 1557.16 2101.26 1562.97 2059.78 1568.51 2017.92 1573.79 1933.18 1583.51 1847.22 1592.08 1760.21 1599.46 1672.32 1605.6 1583.73 1610.46 1494.61 1613.99 1405.14 1616.13 1338.44 1616.68 1338.39 1609.8 1405.06 1609.26 1405.01 1609.26 1494.42 1607.11 1494.37 1607.11 1583.43 1603.59 1583.38 1603.59 1671.92 1598.74 1671.86 1598.74 1759.7 1592.61 1759.65 1592.61 1846.61 1585.23 1846.56 1585.24 1932.48 1576.67 1932.43 1576.68 2017.11 1566.96 2017.07 1566.97 2058.9 1561.69 2058.88 1561.7 2100.34 1556.15 2100.31 1556.16 2141.37 1550.35 2141.35 1550.35 2182 1544.29 2181.97 1544.29 2222.18 1537.98 2222.15 1537.98 2261.9 1531.42 2261.88 1531.42 2301.15 1524.62 2301.12 1524.62 2339.89 1517.59 2339.86 1517.59 2378.1 1510.32 2378.07 1510.33 2415.77 1502.84 2415.74 1502.84 2452.86 1495.13 2452.83 1495.14 2489.37 1487.22 2489.34 1487.23 2525.26 1479.1 2525.23 1479.1 2560.52 1470.78 2560.48 1470.78 2595.12 1462.26 2595.08 1462.27 2629.04 1453.56 2629 1453.56 2662.25 1444.67 2662.22 1444.68 2694.75 1435.6 2694.71 1435.61 2726.5 1426.37 2726.46 1426.38 2757.48 1416.97 2757.44 1416.98 2787.68 1407.41 2787.64 1407.42 2817.06 1397.69 2817.02 1397.71 2845.61 1387.83 2845.56 1387.85 2873.3 1377.83 2873.26 1377.85 2900.12 1367.69 2900.07 1367.71 2926.04 1357.42 2925.98 1357.44 2951.03 1347.03 2950.97 1347.05 2975.08 1336.52 2975.02 1336.54 2998.17 1325.89 2998.1 1325.92 3020.26 1315.16 3020.19 1315.2 3041.35 1304.34 3041.27 1304.37 3061.4 1293.41 3061.32 1293.46 3080.39 1282.41 3080.31 1282.46 3098.31 1271.32 3098.22 1271.38 3115.13 1260.16 3115.03 1260.23 3130.82 1248.94 3130.72 1249.02 3145.37 1237.66 3145.26 1237.75 3158.75 1226.33 3158.63 1226.43 3170.94 1214.95 3170.81 1215.08 3181.92 1203.55 3181.78 1203.7 3191.67 1192.12 3191.53 1192.3 3200.16 1180.69 3200.02 1180.9 3207.39 1169.25 3207.24 1169.5 3213.32 1157.81 3213.19 1158.1 3217.95 1146.4 3217.84 1146.73 3221.27 1135.01 3221.18 1135.37 3223.26 1123.64 3223.21 1124.04 3223.91 1112.3ZM1343.11 1626.95 1315.5 1613.42 1342.89 1599.45Z"/><text fill="#FF6599" font-family="Calibri,Calibri_MSFontService,sans-serif" font-weight="400" font-size="83" transform="matrix(1 0 0 1 943.64 1336)">grasp</text><text fill="#FF6599" font-family="Calibri,Calibri_MSFontService,sans-serif" font-weight="400" font-size="83" transform="matrix(1 0 0 1 1295.19 830)">move,</text><text fill="#FF6599" font-family="Calibri,Calibri_MSFontService,sans-serif" font-weight="400" font-size="83" transform="matrix(1 0 0 1 1295.19 929)">putDown</text><text fill="#FF6599" font-family="Calibri,Calibri_MSFontService,sans-serif" font-weight="400" font-size="83" transform="matrix(1 0 0 1 1998.66 896)">cut</text><text fill="#FF6599" font-family="Calibri,Calibri_MSFontService,sans-serif" font-weight="400" font-size="83" transform="matrix(1 0 0 1 2448.28 839)">grasp</text><text fill="#FF6599" font-family="Calibri,Calibri_MSFontService,sans-serif" font-weight="400" font-size="83" transform="matrix(1 0 0 1 2896.07 820)">rotate</text><text fill="#FF6599" font-family="Calibri,Calibri_MSFontService,sans-serif" font-weight="400" font-size="83" transform="matrix(1 0 0 1 1772.31 1356)">move</text><text fill="#FF6599" font-family="Calibri,Calibri_MSFontService,sans-serif" font-weight="400" font-size="83" transform="matrix(1 0 0 1 2233 1356)">move</text><text fill="#FF6599" font-family="Calibri,Calibri_MSFontService,sans-serif" font-weight="400" font-size="83" transform="matrix(1 0 0 1 2233 1620)">putDown</text><text fill="#FF6599" font-family="Calibri,Calibri_MSFontService,sans-serif" font-weight="400" font-size="83" transform="matrix(1 0 0 1 2544.35 1620)">, move</text></g></svg>