<?xml version="1.0" encoding="UTF-8" standalone="no"?>
<svg
   width="1944"
   height="309"
   xml:space="preserve"
   overflow="hidden"
   version="1.1"
   id="svg5"
   sodipodi:docname="natsgd88.svg"
   inkscape:version="1.3.2 (091e20e, 2023-11-25, custom)"
   xmlns:inkscape="http://www.inkscape.org/namespaces/inkscape"
   xmlns:sodipodi="http://sodipodi.sourceforge.net/DTD/sodipodi-0.dtd"
   xmlns="http://www.w3.org/2000/svg"
   xmlns:svg="http://www.w3.org/2000/svg"><defs
     id="defs5" /><sodipodi:namedview
     id="namedview5"
     pagecolor="#ffffff"
     bordercolor="#000000"
     borderopacity="0.25"
     inkscape:showpageshadow="2"
     inkscape:pageopacity="0.0"
     inkscape:pagecheckerboard="0"
     inkscape:deskcolor="#d1d1d1"
     inkscape:zoom="0.72170782"
     inkscape:cx="972"
     inkscape:cy="155.18746"
     inkscape:window-width="1920"
     inkscape:window-height="1002"
     inkscape:window-x="-8"
     inkscape:window-y="-8"
     inkscape:window-maximized="1"
     inkscape:current-layer="g5" /><g
     transform="translate(-2242 -68)"
     id="g5"><path
       d="m 36.798828,-15.724609 q 0,4.133789 -1.540039,7.2543942 -1.540039,3.1206054 -4.174316,5.2280273 -2.634278,2.0668945 -6.160157,3.12060547 -3.525879,1.05371094 -7.538086,1.05371094 -2.715332,0 -5.065917,-0.44580078 Q 10.010254,0.04052734 8.2270508,-0.56738281 6.4438477,-1.2158203 5.2280273,-1.9047852 4.0527344,-2.59375 3.5258789,-3.1206055 2.9990234,-3.6474609 2.7558594,-4.6201172 2.5532227,-5.6333008 2.5532227,-7.4975586 q 0,-1.2563477 0.081055,-2.1074219 0.081055,-0.8510745 0.2431641,-1.3779295 0.2026367,-0.526856 0.4863281,-0.729492 0.3242188,-0.243164 0.7294922,-0.243164 0.5673828,0 1.5805664,0.688964 1.053711,0.648438 2.6748047,1.4589848 1.6210938,0.8105469 3.8500972,1.4995117 2.269532,0.6484375 5.228028,0.6484375 1.945312,0 3.485351,-0.4458008 1.540039,-0.4863281 2.59375,-1.3374023 1.094239,-0.8510739 1.661621,-2.1074219 0.567383,-1.256348 0.567383,-2.796387 0,-1.783203 -0.972656,-3.03955 -0.972656,-1.296875 -2.553223,-2.269532 -1.540039,-1.013183 -3.525879,-1.864258 -1.985839,-0.891601 -4.093261,-1.864257 -2.107422,-0.972657 -4.093262,-2.188477 -1.9858398,-1.256348 -3.5664062,-2.958496 -1.5400391,-1.742676 -2.5126953,-4.093262 -0.9726563,-2.350586 -0.9726563,-5.6333 0,-3.769043 1.3779297,-6.605958 1.418457,-2.877441 3.769043,-4.741699 2.3911131,-1.904785 5.5927731,-2.836914 3.242188,-0.932129 6.849121,-0.932129 1.864258,0 3.728516,0.283692 1.864258,0.283691 3.485352,0.770019 1.621093,0.486328 2.877441,1.094239 1.256348,0.60791 1.661621,1.013183 0.405274,0.405274 0.526856,0.688965 0.162109,0.283691 0.243164,0.770019 0.121582,0.445801 0.162109,1.175293 0.04053,0.688965 0.04053,1.742676 0,1.175293 -0.08105,1.98584 -0.04053,0.810547 -0.202637,1.337402 -0.121582,0.526856 -0.405274,0.77002 Q 32.827148,-41.5 32.381348,-41.5 q -0.445801,0 -1.418457,-0.567383 -0.972657,-0.567383 -2.391114,-1.21582 -1.418457,-0.688965 -3.282715,-1.21582 -1.864257,-0.567383 -4.093261,-0.567383 -1.742676,0 -3.039551,0.445801 -1.296875,0.405273 -2.188477,1.175293 -0.851074,0.729492 -1.296875,1.783203 -0.405273,1.053711 -0.405273,2.229004 0,1.742675 0.932129,3.03955 0.972656,1.256348 2.553223,2.269532 1.621093,0.972656 3.64746,1.864257 2.026368,0.851075 4.13379,1.823731 2.107421,0.972656 4.133789,2.229004 2.026367,1.21582 3.606933,2.958496 1.580567,1.702148 2.553223,4.052734 0.972656,2.310059 0.972656,5.471192 z m 43.931641,-4.255371 q 0,4.822753 -1.053711,8.713378 -1.013184,3.8500981 -2.999024,6.5654301 -1.985839,2.7153321 -4.944336,4.17431643 -2.958496,1.45898438 -6.768066,1.45898438 -1.580566,0 -2.917969,-0.32421875 Q 60.750488,0.32421875 59.494141,-0.28369141 58.27832,-0.93212891 57.0625,-1.8642578 55.84668,-2.7963867 54.549805,-4.0527344 V 12.96875 q 0,0.405273 -0.243164,0.729492 -0.243164,0.324219 -0.851075,0.526856 -0.567382,0.243164 -1.540039,0.364746 -0.972656,0.121582 -2.472168,0.121582 -1.499511,0 -2.472168,-0.121582 -0.972656,-0.121582 -1.580566,-0.364746 -0.567383,-0.202637 -0.810547,-0.526856 -0.243164,-0.324219 -0.243164,-0.729492 v -50.49707 q 0,-0.405274 0.202637,-0.688965 0.202636,-0.324219 0.688965,-0.526856 0.526855,-0.202636 1.337402,-0.283691 0.851074,-0.121582 2.107422,-0.121582 1.21582,0 2.026367,0.121582 0.851074,0.08105 1.337402,0.283691 0.526856,0.202637 0.729493,0.526856 0.202636,0.283691 0.202636,0.688965 v 4.255371 q 1.580567,-1.621094 3.080078,-2.836914 1.540039,-1.256348 3.120606,-2.066895 1.580566,-0.851074 3.242187,-1.256347 1.702149,-0.405274 3.606934,-0.405274 3.97168,0 6.768066,1.580567 2.796387,1.540039 4.539063,4.255371 1.783203,2.715332 2.59375,6.322265 0.810547,3.606934 0.810547,7.700196 z m -10.618164,0.729492 q 0,-2.310059 -0.364746,-4.417481 -0.324219,-2.147949 -1.175293,-3.80957 -0.810547,-1.661621 -2.188477,-2.634277 Q 65.046387,-31.125 63.02002,-31.125 q -1.013184,0 -2.026368,0.324219 -0.972656,0.283691 -2.026367,0.972656 -1.013183,0.688965 -2.107422,1.783203 -1.094238,1.094238 -2.310058,2.715332 v 11.915039 q 2.147949,2.715332 4.093261,4.214844 1.945313,1.4589843 4.052735,1.4589843 1.98584,0 3.363769,-1.0131836 1.418457,-1.0131835 2.310059,-2.6342777 0.891601,-1.661621 1.296875,-3.728515 0.445801,-2.066895 0.445801,-4.133789 z M 122.271,-20.506836 q 0,1.864258 -0.85108,2.755859 -0.81054,0.891602 -2.26953,0.891602 H 97.144043 q 0,2.310059 0.526855,4.214844 0.567383,1.864258 1.742676,3.2016599 1.215816,1.296875 3.080076,1.9858399 1.90479,0.6889648 4.53906,0.6889648 2.67481,0 4.70118,-0.3647461 2.02636,-0.4052734 3.48535,-0.8510742 1.49951,-0.4863281 2.47217,-0.8510742 0.97265,-0.4052735 1.58056,-0.4052735 0.36475,0 0.60791,0.1621094 0.24317,0.121582 0.40528,0.4863281 0.16211,0.3647461 0.20263,1.053711 0.0811,0.6484375 0.0811,1.6616211 0,0.8916015 -0.0405,1.540039 -0.0405,0.6079102 -0.12158,1.053711 -0.0811,0.4458007 -0.24317,0.7700195 -0.16211,0.2836914 -0.4458,0.5673828 -0.24316,0.2836914 -1.41845,0.7700195 -1.1753,0.48632816 -2.99903,0.97265628 -1.82373,0.44580078 -4.17431,0.77001953 -2.35059,0.3647461 -5.02539,0.3647461 -4.82276,0 -8.470219,-1.21582032 -3.606934,-1.21582029 -6.038574,-3.68798829 -2.431641,-2.472168 -3.647461,-6.2412113 -1.175293,-3.769043 -1.175293,-8.834961 0,-4.822753 1.256348,-8.672851 1.256347,-3.890625 3.647461,-6.56543 2.391113,-2.715332 5.79541,-4.133789 3.444828,-1.418457 7.740718,-1.418457 4.53907,0 7.74073,1.337402 3.24218,1.337403 5.30908,3.728516 2.06689,2.350586 3.03955,5.592774 0.97266,3.242187 0.97266,7.051757 z m -9.88868,-2.917969 q 0.12159,-4.295898 -1.74267,-6.727539 -1.82373,-2.472168 -5.67383,-2.472168 -1.94531,0 -3.4043,0.729492 -1.41845,0.729493 -2.39111,1.98584 -0.932129,1.215821 -1.458984,2.917969 -0.486328,1.661621 -0.567383,3.566406 z m 51.67237,2.917969 q 0,1.864258 -0.85108,2.755859 -0.81054,0.891602 -2.26953,0.891602 h -22.00635 q 0,2.310059 0.52686,4.214844 0.56738,1.864258 1.74268,3.2016599 1.21582,1.296875 3.08007,1.9858399 1.90479,0.6889648 4.53907,0.6889648 2.6748,0 4.70117,-0.3647461 2.02637,-0.4052734 3.48535,-0.8510742 1.49951,-0.4863281 2.47217,-0.8510742 0.97265,-0.4052735 1.58056,-0.4052735 0.36475,0 0.60791,0.1621094 0.24317,0.121582 0.40528,0.4863281 0.16211,0.3647461 0.20263,1.053711 0.0811,0.6484375 0.0811,1.6616211 0,0.8916015 -0.0405,1.540039 -0.0405,0.6079102 -0.12158,1.053711 -0.0811,0.4458007 -0.24316,0.7700195 -0.16211,0.2836914 -0.44581,0.5673828 -0.24316,0.2836914 -1.41845,0.7700195 -1.1753,0.48632816 -2.99903,0.97265628 -1.82373,0.44580078 -4.17431,0.77001953 -2.35059,0.3647461 -5.02539,0.3647461 -4.82276,0 -8.47022,-1.21582032 -3.60693,-1.21582029 -6.03857,-3.68798829 -2.43164,-2.472168 -3.64746,-6.2412113 -1.1753,-3.769043 -1.1753,-8.834961 0,-4.822753 1.25635,-8.672851 1.25635,-3.890625 3.64746,-6.56543 2.39112,-2.715332 5.79541,-4.133789 3.44483,-1.418457 7.74073,-1.418457 4.53906,0 7.74072,1.337402 3.24219,1.337403 5.30908,3.728516 2.06689,2.350586 3.03955,5.592774 0.97266,3.242187 0.97266,7.051757 z m -9.88867,-2.917969 q 0.12158,-4.295898 -1.74268,-6.727539 -1.82373,-2.472168 -5.67383,-2.472168 -1.94531,0 -3.4043,0.729492 -1.41845,0.729493 -2.39111,1.98584 -0.93213,1.215821 -1.45898,2.917969 -0.48633,1.661621 -0.56739,3.566406 z m 45.63378,16.2919925 q 0,1.0537109 -0.0811,1.7832031 -0.0405,0.6889649 -0.16211,1.175293 -0.081,0.4863281 -0.24316,0.8105469 -0.12159,0.2836914 -0.60791,0.7700195 -0.48633,0.4458008 -1.66162,1.1347656 -1.1753,0.64843752 -2.67481,1.17529299 -1.49951,0.52685547 -3.28271,0.85107422 -1.74268,0.32421875 -3.60694,0.32421875 -4.17431,0 -7.4165,-1.296875 -3.20166,-1.29687496 -5.39014,-3.80957026 -2.18848,-2.5532227 -3.32324,-6.2006833 -1.09424,-3.647461 -1.09424,-8.348633 0,-5.430664 1.3374,-9.361817 1.37793,-3.971679 3.80957,-6.565429 2.43164,-2.59375 5.75489,-3.850098 3.32324,-1.256348 7.29492,-1.256348 1.62109,0 3.16113,0.283692 1.58057,0.283691 2.91797,0.770019 1.37793,0.486329 2.43164,1.094239 1.09424,0.60791 1.54004,1.053711 0.4458,0.4458 0.60791,0.770019 0.20264,0.283692 0.28369,0.77002 0.12158,0.486328 0.16211,1.21582 0.0811,0.688965 0.0811,1.702148 0,2.350586 -0.40528,3.323243 -0.40527,0.932129 -1.05371,0.932129 -0.68896,0 -1.45898,-0.567383 -0.77002,-0.567383 -1.82373,-1.256348 -1.05371,-0.688965 -2.5127,-1.256348 -1.45898,-0.567382 -3.48535,-0.567382 -3.97168,0 -6.0791,3.080078 -2.10742,3.03955 -2.10742,8.956543 0,2.917968 0.52685,5.146972 0.52686,2.229004 1.54004,3.728516 1.05371,1.4995117 2.59375,2.2695312 1.58057,0.7294922 3.64746,0.7294922 2.10742,0 3.60693,-0.6079102 1.54004,-0.6484375 2.67481,-1.418457 1.13477,-0.7700192 1.90478,-1.3779302 0.77002,-0.648437 1.29688,-0.648437 0.36475,0 0.60791,0.202637 0.24316,0.202636 0.36475,0.770019 0.16211,0.526856 0.24316,1.3779299 0.0811,0.8510743 0.0811,2.1884766 z m 41.90528,5.7548828 q 0,0.40527345 -0.24317,0.7294922 -0.24316,0.28369141 -0.81054,0.48632813 -0.56739,0.20263671 -1.58057,0.2836914 -0.97266,0.12158203 -2.43164,0.12158203 -1.49951,0 -2.5127,-0.12158203 -0.97265,-0.08105469 -1.54003,-0.2836914 -0.56739,-0.20263672 -0.81055,-0.48632813 -0.24317,-0.32421875 -0.24317,-0.7294922 V -22.006348 q 0,-2.634277 -0.40527,-4.133789 -0.36474,-1.499511 -1.09424,-2.553222 -0.72949,-1.094239 -1.90478,-1.661621 -1.13477,-0.607911 -2.67481,-0.607911 -1.94531,0 -3.93115,1.418457 -1.98584,1.418457 -4.13379,4.133789 v 24.0327153 q 0,0.40527345 -0.24316,0.7294922 -0.24317,0.28369141 -0.85108,0.48632813 -0.56738,0.20263671 -1.54004,0.2836914 -0.97265,0.12158203 -2.47216,0.12158203 -1.49952,0 -2.47217,-0.12158203 -0.97266,-0.08105469 -1.58057,-0.2836914 -0.56738,-0.20263672 -0.81054,-0.48632813 -0.24317,-0.32421875 -0.24317,-0.7294922 V -54.671387 q 0,-0.405273 0.24317,-0.729492 0.24316,-0.324219 0.81054,-0.526855 0.60791,-0.243164 1.58057,-0.364746 0.97265,-0.121582 2.47217,-0.121582 1.49951,0 2.47216,0.121582 0.97266,0.121582 1.54004,0.364746 0.60791,0.202636 0.85108,0.526855 0.24316,0.324219 0.24316,0.729492 v 19.979981 q 2.63428,-2.59375 5.34961,-3.850098 2.75586,-1.296875 5.71436,-1.296875 3.68798,0 6.20068,1.21582 2.55322,1.215821 4.09326,3.323243 1.58057,2.107421 2.26953,4.944336 0.68897,2.796386 0.68897,6.808593 z"
       id="text1"
       style="font-weight:700;font-size:83px;font-family:Calibri, Calibri_MSFontService, sans-serif"
       transform="matrix(1 0 0 1 2291.71 171)"
       aria-label="Speech" /><g
       id="text2"
       style="font-size:83px;font-family:Calibri, Calibri_MSFontService, sans-serif"
       transform="translate(2395.22,305)"
       aria-label="&quot;Baxter, turn around and turn on the stove&quot; "><path
         d="m 26.059082,-36.555664 q 0,0.324219 -0.121582,0.567383 -0.121582,0.243164 -0.445801,0.405273 -0.324219,0.16211 -0.810547,0.243164 -0.4458,0.08105 -1.175293,0.08105 -0.729492,0 -1.21582,-0.08105 -0.486328,-0.08105 -0.810547,-0.243164 -0.283691,-0.162109 -0.405273,-0.405273 -0.121582,-0.243164 -0.121582,-0.567383 l -0.932129,-18.76416 q 0,-0.324219 0.202637,-0.567383 0.202636,-0.243164 0.60791,-0.405273 0.405273,-0.16211 1.053711,-0.243165 0.688964,-0.08105 1.621093,-0.08105 0.972657,0 1.621094,0.08105 0.688965,0.08105 1.094238,0.243165 0.405274,0.162109 0.567383,0.405273 0.202637,0.243164 0.16211,0.567383 z m -14.387207,0 q 0,0.324219 -0.121582,0.567383 -0.121582,0.243164 -0.445801,0.405273 -0.324219,0.16211 -0.810547,0.243164 -0.4458005,0.08105 -1.1752927,0.08105 -0.7294921,0 -1.2158203,-0.08105 -0.4863281,-0.08105 -0.8105468,-0.243164 -0.2836915,-0.162109 -0.4052735,-0.405273 -0.121582,-0.243164 -0.121582,-0.567383 l -0.9321289,-18.76416 q 0,-0.324219 0.2026367,-0.567383 0.2026367,-0.243164 0.6079102,-0.405273 0.4052734,-0.16211 1.0537109,-0.243165 0.6889648,-0.08105 1.6210937,-0.08105 1.9453127,0 2.7153317,0.324219 0.77002,0.324218 0.77002,0.972656 z m 63.141602,21.520019 q 0,2.472168 -0.648438,4.57959 -0.60791,2.0668948 -1.742676,3.7285159 -1.134765,1.6616211 -2.755859,2.9179688 -1.580567,1.2563476 -3.606934,2.1074219 -1.98584,0.85107418 -4.295898,1.29687496 Q 59.494141,0 56.535645,0 H 42.837402 Q 41.905273,0 41.054199,-0.60791016 40.243652,-1.2563477 40.243652,-2.8369141 V -49.605469 q 0,-1.580566 0.810547,-2.188476 0.851074,-0.648438 1.783203,-0.648438 h 11.915039 q 4.701172,0 7.700196,0.891602 2.999023,0.891601 4.984863,2.59375 2.026367,1.702148 3.039551,4.174316 1.013183,2.472168 1.013183,5.592774 0,1.864257 -0.4458,3.566406 -0.445801,1.702148 -1.337403,3.161133 -0.851074,1.418457 -2.188476,2.553222 -1.296875,1.134766 -2.999024,1.864258 2.147949,0.405274 4.012207,1.499512 1.864258,1.053711 3.242188,2.715332 1.418457,1.661621 2.229004,3.890625 0.810547,2.229004 0.810547,4.903808 z M 64.316895,-38.500977 q 0,-1.904785 -0.526856,-3.444824 -0.526855,-1.540039 -1.661621,-2.59375 -1.134766,-1.094238 -2.958496,-1.661621 -1.823731,-0.567383 -4.822754,-0.567383 h -7.213867 v 16.980957 h 7.943359 q 2.715332,0 4.376953,-0.688964 1.661621,-0.729493 2.75586,-1.904786 1.094238,-1.21582 1.580566,-2.796386 0.526856,-1.621094 0.526856,-3.323243 z m 3.161132,23.870606 q 0,-2.350586 -0.770019,-4.133789 -0.729492,-1.783203 -2.188477,-2.999024 -1.418457,-1.21582 -3.606933,-1.82373 -2.14795,-0.648438 -5.430664,-0.648438 h -8.348633 v 18.4804692 h 10.131836 q 2.391113,0 4.174316,-0.5673828 1.783203,-0.5673828 3.120606,-1.6616211 1.377929,-1.1347656 2.147949,-2.7963863 0.770019,-1.661622 0.770019,-3.850098 z m 44.620603,13.65771475 q 0,0.48632812 -0.32422,0.72949219 Q 111.4502,0 110.88281,0.12158203 q -0.56738,0.12158203 -1.66162,0.12158203 -1.05371,0 -1.70215,-0.12158203 Q 106.91113,0 106.62744,-0.24316406 106.34375,-0.48632813 106.34375,-0.97265625 V -4.6201172 q -2.39111,2.5532227 -5.34961,3.9716797 -2.917968,1.41845703 -6.200683,1.41845703 -2.877441,0 -5.228027,-0.77001953 -2.310059,-0.72949219 -3.97168,-2.1479492 -1.621094,-1.4184571 -2.553223,-3.4853516 -0.891601,-2.0668945 -0.891601,-4.7011722 0,-3.080078 1.256347,-5.349609 1.256348,-2.269531 3.606934,-3.769043 2.350586,-1.499512 5.754883,-2.229004 3.404297,-0.770019 7.65967,-0.770019 h 5.02539 v -2.836914 q 0,-2.107422 -0.4458,-3.728516 -0.4458,-1.621094 -1.45899,-2.674805 -0.97265,-1.094238 -2.55322,-1.621094 -1.580566,-0.567382 -3.890624,-0.567382 -2.472168,0 -4.458008,0.60791 -1.945313,0.567383 -3.444824,1.296875 -1.458985,0.688965 -2.472168,1.296875 -0.972657,0.567383 -1.458985,0.567383 -0.324219,0 -0.567383,-0.16211 -0.243164,-0.162109 -0.4458,-0.486328 -0.16211,-0.324219 -0.243164,-0.810547 -0.08105,-0.526855 -0.08105,-1.134765 0,-1.013184 0.121582,-1.580567 0.162109,-0.60791 0.688965,-1.134765 0.567383,-0.526856 1.904785,-1.215821 1.337402,-0.729492 3.080078,-1.296875 1.742676,-0.60791 3.80957,-0.972656 2.066895,-0.405273 4.174317,-0.405273 3.931154,0 6.687014,0.891601 2.75586,0.891602 4.45801,2.634277 1.70214,1.702149 2.47216,4.255372 0.77002,2.553222 0.77002,5.957519 z M 105.45215,-17.629395 h -5.714357 q -2.755859,0 -4.782227,0.486329 -2.026367,0.4458 -3.363769,1.377929 -1.337402,0.891602 -1.98584,2.188477 -0.60791,1.256347 -0.60791,2.917969 0,2.8369137 1.783203,4.5390621 1.82373,1.6616211 5.065918,1.6616211 2.634277,0 4.863282,-1.3374024 2.26953,-1.3374023 4.7417,-4.0932617 z m 45.7959,15.8461919 q 0.32422,0.5673828 0.32422,0.97265622 0,0.3647461 -0.40528,0.60791016 -0.36474,0.24316406 -1.17529,0.32421875 -0.77002,0.12158203 -2.02637,0.12158203 -1.21582,0 -1.94531,-0.0810547 Q 145.33105,0.12158203 144.88525,0 q -0.40527,-0.16210937 -0.64843,-0.36474609 -0.20264,-0.24316407 -0.36475,-0.52685547 l -8.75391,-14.46826144 -8.71337,14.46826144 q -0.16211,0.2836914 -0.40528,0.52685547 Q 125.79688,-0.16210937 125.35107,0 q -0.40527,0.12158203 -1.09423,0.16210937 -0.68897,0.0810547 -1.82373,0.0810547 -1.1753,0 -1.94532,-0.12158203 -0.72949,-0.08105469 -1.09424,-0.32421875 -0.32421,-0.24316406 -0.32421,-0.60791016 0.0405,-0.40527342 0.40527,-0.97265622 l 11.34766,-17.7915039 -10.73975,-17.143066 q -0.32422,-0.567383 -0.36475,-0.932129 0,-0.405274 0.36475,-0.648438 0.40527,-0.283691 1.17529,-0.364746 0.81055,-0.08105 2.10742,-0.08105 1.1753,0 1.86426,0.08105 0.72949,0.04053 1.13477,0.162109 0.40527,0.121582 0.60791,0.324219 0.20263,0.202637 0.36474,0.486328 l 8.30811,13.57666 8.42969,-13.57666 q 0.16211,-0.243164 0.36474,-0.4458 0.20264,-0.202637 0.52686,-0.324219 0.36474,-0.16211 0.97265,-0.202637 0.64844,-0.08105 1.74268,-0.08105 1.17529,0 1.90479,0.08105 0.77002,0.08105 1.13476,0.324219 0.36475,0.202637 0.32422,0.60791 -0.0405,0.405273 -0.40527,1.013184 l -10.65869,16.940429 z m 27.51806,-1.9047852 q 0,1.175293 -0.16211,1.8642578 -0.16211,0.6889649 -0.48632,1.01318362 -0.32422,0.32421875 -0.97266,0.60791016 -0.64844,0.28369141 -1.49951,0.44580078 -0.81055,0.20263672 -1.74268,0.32421875 -0.93213,0.12158203 -1.86426,0.12158203 -2.83691,0 -4.86328,-0.72949218 -2.02636,-0.77001954 -3.32324,-2.26953126 -1.29687,-1.5400391 -1.90478,-3.8500976 -0.56739,-2.350586 -0.56739,-5.5117188 v -21.317383 h -5.10644 q -0.60791,0 -0.97266,-0.648437 -0.36474,-0.648438 -0.36474,-2.107422 0,-0.77002 0.0811,-1.296875 0.12158,-0.526856 0.28369,-0.851074 0.16211,-0.364746 0.40527,-0.486329 0.2837,-0.162109 0.60791,-0.162109 h 5.06592 v -8.672851 q 0,-0.283692 0.12158,-0.526856 0.16211,-0.243164 0.52686,-0.405273 0.40527,-0.202637 1.05371,-0.283692 0.64844,-0.08105 1.62109,-0.08105 1.01319,0 1.66163,0.08105 0.64843,0.08106 1.01318,0.283692 0.36475,0.162109 0.52686,0.405273 0.1621,0.243164 0.1621,0.526856 v 8.672851 h 9.36182 q 0.32422,0 0.56738,0.162109 0.24317,0.121583 0.40528,0.486329 0.20263,0.324218 0.28369,0.851074 0.0811,0.526855 0.0811,1.296875 0,1.458984 -0.36474,2.107422 -0.36475,0.648437 -0.97266,0.648437 h -9.36182 v 20.344727 q 0,3.7690427 1.09424,5.7143552 1.13477,1.9047852 4.01221,1.9047852 0.93213,0 1.66162,-0.1621094 0.72949,-0.2026367 1.29688,-0.4052734 0.56738,-0.2026368 0.97265,-0.3647461 0.40528,-0.2026367 0.72949,-0.2026367 0.20264,0 0.36475,0.121582 0.20264,0.081055 0.28369,0.3647461 0.12158,0.2836914 0.20264,0.7700195 0.0811,0.4863281 0.0811,1.2158203 z m 39.06836,-17.1430667 q 0,1.580567 -0.81054,2.269532 -0.77002,0.648437 -1.78321,0.648437 h -23.91113 q 0,3.039551 0.60791,5.471191 0.60791,2.431641 2.02637,4.1743169 1.41845,1.7426758 3.68799,2.6748047 2.26953,0.9321289 5.55224,0.9321289 2.59375,0 4.62012,-0.4052735 2.02637,-0.4458007 3.48535,-0.9726562 1.49951,-0.5268555 2.43164,-0.9321289 0.97266,-0.4458008 1.45899,-0.4458008 0.28369,0 0.48632,0.1621094 0.24317,0.121582 0.36475,0.4052734 0.12158,0.2836914 0.16211,0.8105469 0.0811,0.4863281 0.0811,1.2158203 0,0.5268555 -0.0405,0.9321289 -0.0405,0.3647461 -0.12159,0.6889648 -0.0405,0.2836914 -0.20263,0.5268555 -0.12158,0.2431641 -0.36475,0.4863281 -0.20264,0.2026368 -1.29687,0.7294922 -1.09424,0.48632815 -2.83692,0.97265627 Q 209.68848,0 207.37842,0.36474609 q -2.26953,0.40527344 -4.86328,0.40527344 -4.49854,0 -7.90284,-1.25634766 -3.36376,-1.25634767 -5.67382,-3.72851557 -2.31006,-2.472168 -3.48536,-6.2006833 -1.17529,-3.728516 -1.17529,-8.672852 0,-4.701172 1.21582,-8.429687 1.21582,-3.769043 3.48535,-6.362793 2.31006,-2.634278 5.55225,-4.012207 3.24219,-1.418457 7.25439,-1.418457 4.2959,0 7.29493,1.377929 3.03955,1.37793 4.98486,3.728516 1.94531,2.310058 2.83691,5.471191 0.93213,3.120606 0.93213,6.687012 z m -6.72754,-1.98584 q 0.12159,-5.268554 -2.35058,-8.267578 -2.43164,-2.999023 -7.2544,-2.999023 -2.47216,0 -4.33642,0.932129 -1.86426,0.932129 -3.12061,2.472168 -1.25635,1.540039 -1.94531,3.606933 -0.68897,2.026368 -0.77002,4.255371 z m 38.21729,-12.279785 q 0,0.891602 -0.0405,1.499512 -0.0405,0.60791 -0.16211,0.972656 -0.12158,0.324219 -0.32422,0.526856 -0.16211,0.162109 -0.48632,0.162109 -0.32422,0 -0.81055,-0.162109 -0.4458,-0.202637 -1.05371,-0.364746 -0.56739,-0.202637 -1.29688,-0.364746 -0.72949,-0.16211 -1.58056,-0.16211 -1.01319,0 -1.98584,0.405274 -0.97266,0.405273 -2.0669,1.337402 -1.05371,0.932129 -2.229,2.472168 -1.1753,1.540039 -2.59375,3.769043 v 23.9921874 q 0,0.32421876 -0.16211,0.56738282 -0.16211,0.20263672 -0.52686,0.36474609 -0.36474,0.16210938 -1.01318,0.24316406 -0.64844,0.0810547 -1.66162,0.0810547 -0.97266,0 -1.6211,-0.0810547 -0.64843,-0.08105468 -1.05371,-0.24316406 -0.36474,-0.16210937 -0.52685,-0.36474609 -0.12158,-0.24316406 -0.12158,-0.56738282 V -37.487793 q 0,-0.324219 0.12158,-0.526855 0.12158,-0.243164 0.48633,-0.405274 0.36474,-0.202637 0.93212,-0.243164 0.56739,-0.08105 1.49952,-0.08105 0.8916,0 1.45898,0.08105 0.60791,0.04053 0.93213,0.243164 0.32422,0.16211 0.4458,0.405274 0.16211,0.202636 0.16211,0.526855 v 5.309082 q 1.49951,-2.188476 2.79639,-3.566406 1.3374,-1.37793 2.51269,-2.147949 1.1753,-0.810547 2.31006,-1.094239 1.17529,-0.324218 2.35059,-0.324218 0.52685,0 1.17529,0.08105 0.68896,0.04053 1.41846,0.202637 0.72949,0.162109 1.29687,0.364746 0.60791,0.202637 0.85108,0.405274 0.24316,0.202636 0.32421,0.405273 0.0811,0.162109 0.12159,0.445801 0.0811,0.283691 0.0811,0.851074 0.0405,0.526855 0.0405,1.458984 z m 9.32129,29.3012698 q 0,1.2563477 -0.12158,2.3100586 -0.12159,1.053711 -0.40528,1.9858399 -0.28369,0.93212889 -0.77002,1.82373045 -0.4458,0.93212895 -1.13476,1.94531255 l -5.55225,8.3486327 q -0.20264,0.283691 -0.48633,0.486328 -0.24316,0.202637 -0.64843,0.364746 -0.36475,0.16211 -0.89161,0.202637 -0.48632,0.08105 -1.25634,0.08105 -0.68897,0 -1.1753,-0.08105 -0.4458,-0.04053 -0.64843,-0.202637 -0.20264,-0.121582 -0.24317,-0.364746 0,-0.243164 0.16211,-0.567383 l 5.39014,-11.14501916 V -5.7954102 q 0,-1.0942382 0.20263,-1.7426757 0.24317,-0.6484375 0.7295,-0.9726563 0.48632,-0.3242187 1.21582,-0.4458008 0.72949,-0.121582 1.7832,-0.121582 1.01318,0 1.74268,0.121582 0.72949,0.1215821 1.17529,0.4458008 0.48633,0.3242188 0.68896,0.9726563 0.24317,0.6484375 0.24317,1.7426757 z m 49.60547,2.1074219 q 0,1.175293 -0.16211,1.8642578 -0.16211,0.6889649 -0.48633,1.01318362 -0.32422,0.32421875 -0.97266,0.60791016 -0.64843,0.28369141 -1.49951,0.44580078 -0.81055,0.20263672 -1.74267,0.32421875 -0.93213,0.12158203 -1.86426,0.12158203 -2.83692,0 -4.86328,-0.72949218 -2.02637,-0.77001954 -3.32325,-2.26953126 -1.29687,-1.5400391 -1.90478,-3.8500976 -0.56738,-2.350586 -0.56738,-5.5117188 v -21.317383 h -5.10645 q -0.60791,0 -0.97266,-0.648437 -0.36474,-0.648438 -0.36474,-2.107422 0,-0.77002 0.0811,-1.296875 0.12159,-0.526856 0.28369,-0.851074 0.16211,-0.364746 0.40528,-0.486329 0.28369,-0.162109 0.60791,-0.162109 h 5.06592 v -8.672851 q 0,-0.283692 0.12158,-0.526856 0.16211,-0.243164 0.52685,-0.405273 0.40528,-0.202637 1.05371,-0.283692 0.64844,-0.08105 1.6211,-0.08105 1.01318,0 1.66162,0.08105 0.64844,0.08106 1.01318,0.283692 0.36475,0.162109 0.52686,0.405273 0.16211,0.243164 0.16211,0.526856 v 8.672851 h 9.36181 q 0.32422,0 0.56739,0.162109 0.24316,0.121583 0.40527,0.486329 0.20264,0.324218 0.28369,0.851074 0.0811,0.526855 0.0811,1.296875 0,1.458984 -0.36475,2.107422 -0.36475,0.648437 -0.97266,0.648437 h -9.36181 v 20.344727 q 0,3.7690427 1.09424,5.7143552 1.13476,1.9047852 4.0122,1.9047852 0.93213,0 1.66162,-0.1621094 0.7295,-0.2026367 1.29688,-0.4052734 0.56738,-0.2026368 0.97266,-0.3647461 0.40527,-0.2026367 0.72949,-0.2026367 0.20263,0 0.36474,0.121582 0.20264,0.081055 0.2837,0.3647461 0.12158,0.2836914 0.20263,0.7700195 0.0811,0.4863281 0.0811,1.2158203 z m 40.08154,2.6748047 q 0,0.32421876 -0.16211,0.56738282 -0.12158,0.20263672 -0.48633,0.36474609 -0.36474,0.16210938 -0.97265,0.24316406 -0.56739,0.0810547 -1.41846,0.0810547 -0.93213,0 -1.54004,-0.0810547 -0.56738,-0.08105468 -0.93213,-0.24316406 -0.32422,-0.16210937 -0.4458,-0.36474609 -0.12158,-0.24316406 -0.12158,-0.56738282 v -4.8227539 q -3.12061,3.4448242 -6.16016,5.02539062 -3.03955,1.58056641 -6.16015,1.58056641 -3.64747,0 -6.16016,-1.21582031 -2.47217,-1.21582032 -4.01221,-3.28271482 -1.54004,-2.1074219 -2.229,-4.8632813 -0.64844,-2.7963871 -0.64844,-6.7680661 v -22.12793 q 0,-0.324219 0.12158,-0.526855 0.16211,-0.243164 0.56739,-0.405274 0.40527,-0.202637 1.05371,-0.243164 0.64843,-0.08105 1.62109,-0.08105 0.97266,0 1.62109,0.08105 0.64844,0.04053 1.01319,0.243164 0.40527,0.16211 0.56738,0.405274 0.16211,0.202636 0.16211,0.526855 v 21.236328 q 0,3.20166 0.4458,5.146973 0.48633,1.904785 1.41846,3.2827147 0.97265,1.3374023 2.43164,2.1074218 1.45898,0.7294922 3.4043,0.7294922 2.51269,0 4.98486,-1.7832031 2.51269,-1.7832031 5.30908,-5.2280276 v -25.491699 q 0,-0.324219 0.12158,-0.526855 0.16211,-0.243164 0.56739,-0.405274 0.40527,-0.202637 1.01318,-0.243164 0.64844,-0.08105 1.66162,-0.08105 0.97266,0 1.62109,0.08105 0.64844,0.04053 1.01319,0.243164 0.36474,0.16211 0.52685,0.405274 0.20264,0.202636 0.20264,0.526855 z M 382.01074,-35.09668 q 0,0.891602 -0.0405,1.499512 -0.0405,0.60791 -0.1621,0.972656 -0.12159,0.324219 -0.32422,0.526856 -0.16211,0.162109 -0.48633,0.162109 -0.32422,0 -0.81055,-0.162109 -0.4458,-0.202637 -1.05371,-0.364746 -0.56738,-0.202637 -1.29687,-0.364746 -0.7295,-0.16211 -1.58057,-0.16211 -1.01318,0 -1.98584,0.405274 -0.97266,0.405273 -2.0669,1.337402 -1.05371,0.932129 -2.229,2.472168 -1.17529,1.540039 -2.59375,3.769043 v 23.9921874 q 0,0.32421876 -0.16211,0.56738282 -0.16211,0.20263672 -0.52685,0.36474609 -0.36475,0.16210938 -1.01319,0.24316406 -0.64843,0.0810547 -1.66162,0.0810547 -0.97265,0 -1.62109,-0.0810547 -0.64844,-0.08105468 -1.05371,-0.24316406 -0.36475,-0.16210937 -0.52686,-0.36474609 -0.12158,-0.24316406 -0.12158,-0.56738282 V -37.487793 q 0,-0.324219 0.12158,-0.526855 0.12158,-0.243164 0.48633,-0.405274 0.36475,-0.202637 0.93213,-0.243164 0.56738,-0.08105 1.49951,-0.08105 0.8916,0 1.45898,0.08105 0.60791,0.04053 0.93213,0.243164 0.32422,0.16211 0.4458,0.405274 0.16211,0.202636 0.16211,0.526855 v 5.309082 q 1.49952,-2.188476 2.79639,-3.566406 1.3374,-1.37793 2.5127,-2.147949 1.17529,-0.810547 2.31005,-1.094239 1.1753,-0.324218 2.35059,-0.324218 0.52686,0 1.17529,0.08105 0.68897,0.04053 1.41846,0.202637 0.72949,0.162109 1.29688,0.364746 0.60791,0.202637 0.85107,0.405274 0.24316,0.202636 0.32422,0.405273 0.0811,0.162109 0.12158,0.445801 0.0811,0.283691 0.0811,0.851074 0.0405,0.526855 0.0405,1.458984 z m 39.02783,34.0834964 q 0,0.32421876 -0.16211,0.56738282 -0.1621,0.20263672 -0.52685,0.36474609 -0.36475,0.16210938 -1.01318,0.24316406 -0.64844,0.0810547 -1.6211,0.0810547 -1.01318,0 -1.66162,-0.0810547 -0.64844,-0.08105468 -1.01318,-0.24316406 -0.36475,-0.16210937 -0.52686,-0.36474609 -0.16211,-0.24316406 -0.16211,-0.56738282 V -22.371094 q 0,-3.120605 -0.48633,-5.02539 -0.48632,-1.904786 -1.41845,-3.282715 -0.93213,-1.37793 -2.43164,-2.107422 -1.45899,-0.729492 -3.4043,-0.729492 -2.5127,0 -5.02539,1.783203 -2.5127,1.783203 -5.26856,5.228027 v 25.4916994 q 0,0.32421876 -0.1621,0.56738282 -0.16211,0.20263672 -0.52686,0.36474609 -0.36475,0.16210938 -1.01318,0.24316406 -0.64844,0.0810547 -1.66163,0.0810547 -0.97265,0 -1.62109,-0.0810547 -0.64844,-0.08105468 -1.05371,-0.24316406 -0.36475,-0.16210937 -0.52686,-0.36474609 -0.12158,-0.24316406 -0.12158,-0.56738282 V -37.487793 q 0,-0.324219 0.12158,-0.526855 0.12159,-0.243164 0.48633,-0.405274 0.36475,-0.202637 0.93213,-0.243164 0.56738,-0.08105 1.49951,-0.08105 0.89161,0 1.45899,0.08105 0.60791,0.04053 0.93213,0.243164 0.32422,0.16211 0.4458,0.405274 0.16211,0.202636 0.16211,0.526855 v 4.822754 q 3.08008,-3.444824 6.11963,-5.025391 3.08007,-1.621093 6.20068,-1.621093 3.64746,0 6.11963,1.256347 2.51269,1.215821 4.05273,3.282715 1.54004,2.066895 2.18848,4.863281 0.68896,2.75586 0.68896,6.646485 z m 58.44043,0.0405274 q 0,0.48632812 -0.32421,0.72949219 Q 478.83057,0 478.26318,0.12158203 q -0.56738,0.12158203 -1.66162,0.12158203 -1.05371,0 -1.70215,-0.12158203 Q 474.2915,0 474.00781,-0.24316406 473.72412,-0.48632813 473.72412,-0.97265625 V -4.6201172 q -2.39111,2.5532227 -5.34961,3.9716797 -2.91797,1.41845703 -6.20068,1.41845703 -2.87744,0 -5.22803,-0.77001953 -2.31006,-0.72949219 -3.97168,-2.1479492 -1.62109,-1.4184571 -2.55322,-3.4853516 -0.8916,-2.0668945 -0.8916,-4.7011722 0,-3.080078 1.25634,-5.349609 1.25635,-2.269531 3.60694,-3.769043 2.35058,-1.499512 5.75488,-2.229004 3.4043,-0.770019 7.65967,-0.770019 h 5.02539 v -2.836914 q 0,-2.107422 -0.4458,-3.728516 -0.4458,-1.621094 -1.45899,-2.674805 -0.97265,-1.094238 -2.55322,-1.621094 -1.58056,-0.567382 -3.89062,-0.567382 -2.47217,0 -4.45801,0.60791 -1.94531,0.567383 -3.44483,1.296875 -1.45898,0.688965 -2.47216,1.296875 -0.97266,0.567383 -1.45899,0.567383 -0.32422,0 -0.56738,-0.16211 -0.24316,-0.162109 -0.4458,-0.486328 -0.16211,-0.324219 -0.24317,-0.810547 -0.0811,-0.526855 -0.0811,-1.134765 0,-1.013184 0.12158,-1.580567 0.16211,-0.60791 0.68897,-1.134765 0.56738,-0.526856 1.90478,-1.215821 1.3374,-0.729492 3.08008,-1.296875 1.74268,-0.60791 3.80957,-0.972656 2.06689,-0.405273 4.17432,-0.405273 3.93115,0 6.68701,0.891601 2.75586,0.891602 4.45801,2.634277 1.70214,1.702149 2.47216,4.255372 0.77002,2.553222 0.77002,5.957519 z M 472.83252,-17.629395 h -5.71436 q -2.75586,0 -4.78222,0.486329 -2.02637,0.4458 -3.36377,1.377929 -1.3374,0.891602 -1.98584,2.188477 -0.60791,1.256347 -0.60791,2.917969 0,2.8369137 1.7832,4.5390621 1.82373,1.6616211 5.06592,1.6616211 2.63428,0 4.86328,-1.3374024 2.26953,-1.3374023 4.7417,-4.0932617 z m 40.24365,-17.467285 q 0,0.891602 -0.0405,1.499512 -0.0405,0.60791 -0.1621,0.972656 -0.12159,0.324219 -0.32422,0.526856 -0.16211,0.162109 -0.48633,0.162109 -0.32422,0 -0.81055,-0.162109 -0.4458,-0.202637 -1.05371,-0.364746 -0.56738,-0.202637 -1.29687,-0.364746 -0.7295,-0.16211 -1.58057,-0.16211 -1.01318,0 -1.98584,0.405274 -0.97266,0.405273 -2.0669,1.337402 -1.05371,0.932129 -2.229,2.472168 -1.17529,1.540039 -2.59375,3.769043 v 23.9921874 q 0,0.32421876 -0.16211,0.56738282 -0.16211,0.20263672 -0.52685,0.36474609 -0.36475,0.16210938 -1.01319,0.24316406 -0.64844,0.0810547 -1.66162,0.0810547 -0.97266,0 -1.62109,-0.0810547 -0.64844,-0.08105468 -1.05371,-0.24316406 -0.36475,-0.16210937 -0.52686,-0.36474609 -0.12158,-0.24316406 -0.12158,-0.56738282 V -37.487793 q 0,-0.324219 0.12158,-0.526855 0.12158,-0.243164 0.48633,-0.405274 0.36475,-0.202637 0.93213,-0.243164 0.56738,-0.08105 1.49951,-0.08105 0.8916,0 1.45898,0.08105 0.60791,0.04053 0.93213,0.243164 0.32422,0.16211 0.4458,0.405274 0.16211,0.202636 0.16211,0.526855 v 5.309082 q 1.49951,-2.188476 2.79639,-3.566406 1.3374,-1.37793 2.5127,-2.147949 1.17529,-0.810547 2.31005,-1.094239 1.1753,-0.324218 2.35059,-0.324218 0.52686,0 1.17529,0.08105 0.68897,0.04053 1.41846,0.202637 0.72949,0.162109 1.29687,0.364746 0.60791,0.202637 0.85108,0.405274 0.24316,0.202636 0.32422,0.405273 0.0811,0.162109 0.12158,0.445801 0.081,0.283691 0.081,0.851074 0.0405,0.526855 0.0405,1.458984 z m 40.20313,15.440918 q 0,4.458008 -1.1753,8.227051 -1.17529,3.7285157 -3.52588,6.4438477 -2.31005,2.715332 -5.83593,4.25537111 -3.48535,1.49951172 -8.10547,1.49951172 -4.49854,0 -7.86231,-1.33740234 -3.32324,-1.33740239 -5.55224,-3.89062499 -2.22901,-2.5532227 -3.32324,-6.2006832 -1.09424,-3.647461 -1.09424,-8.267579 0,-4.458007 1.13476,-8.186523 1.1753,-3.769043 3.48535,-6.484375 2.35059,-2.715332 5.83594,-4.214844 3.48535,-1.499511 8.146,-1.499511 4.49853,0 7.82178,1.337402 3.36377,1.337402 5.59277,3.890625 2.229,2.553223 3.32324,6.200684 1.13477,3.64746 1.13477,8.22705 z m -7.05176,0.445801 q 0,-2.958496 -0.56738,-5.592773 -0.52686,-2.634278 -1.78321,-4.620118 -1.25634,-1.985839 -3.40429,-3.120605 -2.14795,-1.175293 -5.34961,-1.175293 -2.9585,0 -5.10645,1.053711 -2.10742,1.053711 -3.48535,2.999023 -1.37793,1.904786 -2.06689,4.539063 -0.64844,2.634277 -0.64844,5.754883 0,2.999023 0.52685,5.6333 0.56739,2.634278 1.82373,4.6201177 1.29688,1.9453125 3.44483,3.1206054 2.14795,1.1347657 5.34961,1.1347657 2.91797,0 5.06592,-1.053711 2.14794,-1.0537109 3.52587,-2.9584961 1.37793,-1.9047847 2.02637,-4.5390627 0.64844,-2.634277 0.64844,-5.79541 z m 48.14648,18.1967774 q 0,0.32421876 -0.16211,0.56738282 -0.12158,0.20263672 -0.48632,0.36474609 -0.36475,0.16210938 -0.97266,0.24316406 -0.56738,0.0810547 -1.41846,0.0810547 -0.93213,0 -1.54004,-0.0810547 -0.56738,-0.08105468 -0.93213,-0.24316406 -0.32421,-0.16210937 -0.4458,-0.36474609 -0.12158,-0.24316406 -0.12158,-0.56738282 v -4.8227539 q -3.1206,3.4448242 -6.16015,5.02539062 -3.03956,1.58056641 -6.16016,1.58056641 -3.64746,0 -6.16016,-1.21582031 -2.47216,-1.21582032 -4.0122,-3.28271482 -1.54004,-2.1074219 -2.22901,-4.8632813 -0.64844,-2.7963871 -0.64844,-6.7680661 v -22.12793 q 0,-0.324219 0.12159,-0.526855 0.16211,-0.243164 0.56738,-0.405274 0.40527,-0.202637 1.05371,-0.243164 0.64844,-0.08105 1.62109,-0.08105 0.97266,0 1.6211,0.08105 0.64844,0.04053 1.01318,0.243164 0.40527,0.16211 0.56738,0.405274 0.16211,0.202636 0.16211,0.526855 v 21.236328 q 0,3.20166 0.4458,5.146973 0.48633,1.904785 1.41846,3.2827147 0.97266,1.3374023 2.43164,2.1074218 1.45899,0.7294922 3.4043,0.7294922 2.51269,0 4.98486,-1.7832031 2.5127,-1.7832031 5.30908,-5.2280276 v -25.491699 q 0,-0.324219 0.12159,-0.526855 0.16211,-0.243164 0.56738,-0.405274 0.40527,-0.202637 1.01318,-0.243164 0.64844,-0.08105 1.66162,-0.08105 0.97266,0 1.6211,0.08105 0.64844,0.04053 1.01318,0.243164 0.36475,0.16211 0.52686,0.405274 0.20263,0.202636 0.20263,0.526855 z m 43.76953,0 q 0,0.32421876 -0.1621,0.56738282 -0.16211,0.20263672 -0.52686,0.36474609 -0.36475,0.16210938 -1.01318,0.24316406 -0.64844,0.0810547 -1.6211,0.0810547 -1.01318,0 -1.66162,-0.0810547 -0.64844,-0.08105468 -1.01318,-0.24316406 -0.36475,-0.16210937 -0.52686,-0.36474609 -0.16211,-0.24316406 -0.16211,-0.56738282 V -22.371094 q 0,-3.120605 -0.48633,-5.02539 -0.48632,-1.904786 -1.41845,-3.282715 -0.93213,-1.37793 -2.43164,-2.107422 -1.45899,-0.729492 -3.4043,-0.729492 -2.5127,0 -5.02539,1.783203 -2.5127,1.783203 -5.26856,5.228027 v 25.4916994 q 0,0.32421876 -0.1621,0.56738282 -0.16211,0.20263672 -0.52686,0.36474609 -0.36475,0.16210938 -1.01318,0.24316406 -0.64844,0.0810547 -1.66162,0.0810547 -0.97266,0 -1.6211,-0.0810547 -0.64844,-0.08105468 -1.05371,-0.24316406 -0.36475,-0.16210937 -0.52685,-0.36474609 -0.12159,-0.24316406 -0.12159,-0.56738282 V -37.487793 q 0,-0.324219 0.12159,-0.526855 0.12158,-0.243164 0.48632,-0.405274 0.36475,-0.202637 0.93213,-0.243164 0.56739,-0.08105 1.49951,-0.08105 0.89161,0 1.45899,0.08105 0.60791,0.04053 0.93213,0.243164 0.32422,0.16211 0.4458,0.405274 0.16211,0.202636 0.16211,0.526855 v 4.822754 q 3.08008,-3.444824 6.11963,-5.025391 3.08007,-1.621093 6.20068,-1.621093 3.64746,0 6.11963,1.256347 2.51269,1.215821 4.05273,3.282715 1.54004,2.066895 2.18848,4.863281 0.68896,2.75586 0.68896,6.646485 z m 43.44532,0 q 0,0.32421876 -0.16211,0.56738282 -0.12158,0.24316406 -0.48633,0.40527344 -0.32422,0.12158203 -0.8916,0.20263671 -0.56738,0.0810547 -1.37793,0.0810547 -0.85108,0 -1.41846,-0.0810547 -0.56738,-0.08105468 -0.93213,-0.20263671 -0.36474,-0.16210938 -0.52685,-0.40527344 -0.16211,-0.24316406 -0.16211,-0.56738282 v -4.8227539 q -2.87744,3.1206055 -5.99805,4.86328125 -3.08008,1.74267578 -6.76807,1.74267578 -4.0122,0 -6.84912,-1.54003906 -2.83691,-1.58056637 -4.62011,-4.21484377 -1.74268,-2.6748047 -2.55323,-6.2412107 -0.81054,-3.606934 -0.81054,-7.578613 0,-4.701172 1.01318,-8.470215 1.01318,-3.809571 2.99902,-6.484375 1.98584,-2.674805 4.90381,-4.093262 2.9585,-1.458984 6.8086,-1.458984 3.20166,0 5.83593,1.418457 2.67481,1.377929 5.26856,4.093261 v -21.1958 q 0,-0.283692 0.12158,-0.526856 0.16211,-0.283691 0.56738,-0.405273 0.40528,-0.16211 1.01319,-0.243164 0.64843,-0.121582 1.62109,-0.121582 1.01318,0 1.66162,0.121582 0.64844,0.08105 1.01318,0.243164 0.36475,0.121582 0.52686,0.405273 0.20264,0.243164 0.20264,0.526856 z m -6.72754,-25.6538084 q -2.71533,-3.36377 -5.26856,-5.106445 -2.51269,-1.783204 -5.26855,-1.783204 -2.55322,0 -4.33643,1.215821 -1.7832,1.21582 -2.91797,3.20166 -1.09423,1.98584 -1.62109,4.498535 -0.48633,2.512695 -0.48633,5.106445 0,2.75586 0.40528,5.390137 0.4458,2.634277 1.49951,4.7011719 1.05371,2.0263672 2.79638,3.2827149 1.74268,1.2158203 4.37696,1.2158203 1.3374,0 2.55322,-0.3647461 1.25635,-0.3647461 2.55322,-1.2158203 1.29688,-0.8510743 2.71533,-2.1884766 1.41846,-1.3779301 2.99903,-3.3637691 z m 65.33008,25.69433575 q 0,0.48632812 -0.32422,0.72949219 Q 739.54297,0 738.97559,0.12158203 q -0.56739,0.12158203 -1.66163,0.12158203 -1.05371,0 -1.70214,-0.12158203 Q 735.00391,0 734.72021,-0.24316406 734.43652,-0.48632813 734.43652,-0.97265625 V -4.6201172 q -2.39111,2.5532227 -5.34961,3.9716797 -2.91796,1.41845703 -6.20068,1.41845703 -2.87744,0 -5.22803,-0.77001953 -2.31006,-0.72949219 -3.97168,-2.1479492 -1.62109,-1.4184571 -2.55322,-3.4853516 -0.8916,-2.0668945 -0.8916,-4.7011722 0,-3.080078 1.25635,-5.349609 1.25634,-2.269531 3.60693,-3.769043 2.35059,-1.499512 5.75488,-2.229004 3.4043,-0.770019 7.65967,-0.770019 h 5.02539 v -2.836914 q 0,-2.107422 -0.4458,-3.728516 -0.4458,-1.621094 -1.45898,-2.674805 -0.97266,-1.094238 -2.55323,-1.621094 -1.58056,-0.567382 -3.89062,-0.567382 -2.47217,0 -4.45801,0.60791 -1.94531,0.567383 -3.44482,1.296875 -1.45899,0.688965 -2.47217,1.296875 -0.97266,0.567383 -1.45899,0.567383 -0.32421,0 -0.56738,-0.16211 -0.24316,-0.162109 -0.4458,-0.486328 -0.16211,-0.324219 -0.24316,-0.810547 -0.0811,-0.526855 -0.0811,-1.134765 0,-1.013184 0.12158,-1.580567 0.16211,-0.60791 0.68897,-1.134765 0.56738,-0.526856 1.90478,-1.215821 1.33741,-0.729492 3.08008,-1.296875 1.74268,-0.60791 3.80957,-0.972656 2.0669,-0.405273 4.17432,-0.405273 3.93115,0 6.68701,0.891601 2.75586,0.891602 4.45801,2.634277 1.70215,1.702149 2.47217,4.255372 0.77002,2.553222 0.77002,5.957519 z M 733.54492,-17.629395 h -5.71435 q -2.75586,0 -4.78223,0.486329 -2.02637,0.4458 -3.36377,1.377929 -1.3374,0.891602 -1.98584,2.188477 -0.60791,1.256347 -0.60791,2.917969 0,2.8369137 1.7832,4.5390621 1.82373,1.6616211 5.06592,1.6616211 2.63428,0 4.86328,-1.3374024 2.26953,-1.3374023 4.7417,-4.0932617 z m 50.33496,16.6162114 q 0,0.32421876 -0.16211,0.56738282 -0.16211,0.20263672 -0.52685,0.36474609 -0.36475,0.16210938 -1.01319,0.24316406 -0.64843,0.0810547 -1.62109,0.0810547 -1.01318,0 -1.66162,-0.0810547 -0.64844,-0.08105468 -1.01318,-0.24316406 -0.36475,-0.16210937 -0.52686,-0.36474609 -0.16211,-0.24316406 -0.16211,-0.56738282 V -22.371094 q 0,-3.120605 -0.48633,-5.02539 -0.48633,-1.904786 -1.41845,-3.282715 -0.93213,-1.37793 -2.43164,-2.107422 -1.45899,-0.729492 -3.4043,-0.729492 -2.5127,0 -5.02539,1.783203 -2.5127,1.783203 -5.26856,5.228027 v 25.4916994 q 0,0.32421876 -0.16211,0.56738282 -0.16211,0.20263672 -0.52685,0.36474609 -0.36475,0.16210938 -1.01319,0.24316406 -0.64843,0.0810547 -1.66162,0.0810547 -0.97265,0 -1.62109,-0.0810547 -0.64844,-0.08105468 -1.05371,-0.24316406 -0.36475,-0.16210937 -0.52686,-0.36474609 -0.12158,-0.24316406 -0.12158,-0.56738282 V -37.487793 q 0,-0.324219 0.12158,-0.526855 0.12159,-0.243164 0.48633,-0.405274 0.36475,-0.202637 0.93213,-0.243164 0.56738,-0.08105 1.49951,-0.08105 0.8916,0 1.45899,0.08105 0.60791,0.04053 0.93213,0.243164 0.32421,0.16211 0.4458,0.405274 0.16211,0.202636 0.16211,0.526855 v 4.822754 q 3.08007,-3.444824 6.11962,-5.025391 3.08008,-1.621093 6.20069,-1.621093 3.64746,0 6.11963,1.256347 2.51269,1.215821 4.05273,3.282715 1.54004,2.066895 2.18848,4.863281 0.68896,2.75586 0.68896,6.646485 z m 43.44532,0 q 0,0.32421876 -0.16211,0.56738282 -0.12159,0.24316406 -0.48633,0.40527344 -0.32422,0.12158203 -0.8916,0.20263671 -0.56739,0.0810547 -1.37793,0.0810547 -0.85108,0 -1.41846,-0.0810547 -0.56738,-0.08105468 -0.93213,-0.20263671 -0.36475,-0.16210938 -0.52685,-0.40527344 -0.16211,-0.24316406 -0.16211,-0.56738282 v -4.8227539 q -2.87745,3.1206055 -5.99805,4.86328125 -3.08008,1.74267578 -6.76807,1.74267578 -4.0122,0 -6.84912,-1.54003906 -2.83691,-1.58056637 -4.62012,-4.21484377 -1.74267,-2.6748047 -2.55322,-6.2412107 -0.81055,-3.606934 -0.81055,-7.578613 0,-4.701172 1.01319,-8.470215 1.01318,-3.809571 2.99902,-6.484375 1.98584,-2.674805 4.90381,-4.093262 2.9585,-1.458984 6.80859,-1.458984 3.20166,0 5.83594,1.418457 2.67481,1.377929 5.26856,4.093261 v -21.1958 q 0,-0.283692 0.12158,-0.526856 0.16211,-0.283691 0.56738,-0.405273 0.40527,-0.16211 1.01318,-0.243164 0.64844,-0.121582 1.6211,-0.121582 1.01318,0 1.66162,0.121582 0.64844,0.08105 1.01318,0.243164 0.36475,0.121582 0.52686,0.405273 0.20264,0.243164 0.20264,0.526856 z m -6.72754,-25.6538084 q -2.71534,-3.36377 -5.26856,-5.106445 -2.51269,-1.783204 -5.26855,-1.783204 -2.55323,0 -4.33643,1.215821 -1.7832,1.21582 -2.91797,3.20166 -1.09424,1.98584 -1.62109,4.498535 -0.48633,2.512695 -0.48633,5.106445 0,2.75586 0.40527,5.390137 0.4458,2.634277 1.49952,4.7011719 1.05371,2.0263672 2.79638,3.2827149 1.74268,1.2158203 4.37696,1.2158203 1.3374,0 2.55322,-0.3647461 1.25635,-0.3647461 2.55322,-1.2158203 1.29688,-0.8510743 2.71533,-2.1884766 1.41846,-1.3779301 2.99903,-3.3637691 z"
         id="path6" /><path
         style="fill:#ff00ff"
         d="m 877.41699,-3.6879883 q 0,1.175293 -0.16211,1.8642578 -0.16211,0.6889649 -0.48633,1.01318362 -0.32421,0.32421875 -0.97265,0.60791016 -0.64844,0.28369141 -1.49951,0.44580078 -0.81055,0.20263672 -1.74268,0.32421875 -0.93213,0.12158203 -1.86426,0.12158203 -2.83691,0 -4.86328,-0.72949218 -2.02637,-0.77001954 -3.32324,-2.26953126 -1.29688,-1.5400391 -1.90479,-3.8500976 -0.56738,-2.350586 -0.56738,-5.5117188 v -21.317383 h -5.10644 q -0.60791,0 -0.97266,-0.648437 -0.36475,-0.648438 -0.36475,-2.107422 0,-0.77002 0.0811,-1.296875 0.12158,-0.526856 0.28369,-0.851074 0.16211,-0.364746 0.40527,-0.486329 0.28369,-0.162109 0.60791,-0.162109 h 5.06592 v -8.672851 q 0,-0.283692 0.12158,-0.526856 0.16211,-0.243164 0.52686,-0.405273 0.40527,-0.202637 1.05371,-0.283692 0.64844,-0.08105 1.62109,-0.08105 1.01319,0 1.66162,0.08105 0.64844,0.08106 1.01319,0.283692 0.36474,0.162109 0.52685,0.405273 0.16211,0.243164 0.16211,0.526856 v 8.672851 h 9.36182 q 0.32422,0 0.56738,0.162109 0.24317,0.121583 0.40528,0.486329 0.20263,0.324218 0.28369,0.851074 0.0811,0.526855 0.0811,1.296875 0,1.458984 -0.36474,2.107422 -0.36475,0.648437 -0.97266,0.648437 h -9.36182 v 20.344727 q 0,3.7690427 1.09424,5.7143552 1.13477,1.9047852 4.01221,1.9047852 0.93213,0 1.66162,-0.1621094 0.72949,-0.2026367 1.29687,-0.4052734 0.56739,-0.2026368 0.97266,-0.3647461 0.40527,-0.2026367 0.72949,-0.2026367 0.20264,0 0.36475,0.121582 0.20264,0.081055 0.28369,0.3647461 0.12158,0.2836914 0.20264,0.7700195 0.0811,0.4863281 0.0811,1.2158203 z m 40.08155,2.6748047 q 0,0.32421876 -0.16211,0.56738282 -0.12159,0.20263672 -0.48633,0.36474609 -0.36475,0.16210938 -0.97266,0.24316406 -0.56738,0.0810547 -1.41846,0.0810547 -0.93212,0 -1.54003,-0.0810547 -0.56739,-0.08105468 -0.93213,-0.24316406 -0.32422,-0.16210937 -0.4458,-0.36474609 -0.12159,-0.24316406 -0.12159,-0.56738282 v -4.8227539 q -3.1206,3.4448242 -6.16015,5.02539062 -3.03955,1.58056641 -6.16016,1.58056641 -3.64746,0 -6.16016,-1.21582031 -2.47216,-1.21582032 -4.0122,-3.28271482 -1.54004,-2.1074219 -2.22901,-4.8632813 -0.64843,-2.7963871 -0.64843,-6.7680661 v -22.12793 q 0,-0.324219 0.12158,-0.526855 0.16211,-0.243164 0.56738,-0.405274 0.40527,-0.202637 1.05371,-0.243164 0.64844,-0.08105 1.6211,-0.08105 0.97265,0 1.62109,0.08105 0.64844,0.04053 1.01318,0.243164 0.40528,0.16211 0.56739,0.405274 0.16211,0.202636 0.16211,0.526855 v 21.236328 q 0,3.20166 0.4458,5.146973 0.48632,1.904785 1.41845,3.2827147 0.97266,1.3374023 2.43164,2.1074218 1.45899,0.7294922 3.4043,0.7294922 2.5127,0 4.98486,-1.7832031 2.5127,-1.7832031 5.30909,-5.2280276 v -25.491699 q 0,-0.324219 0.12158,-0.526855 0.16211,-0.243164 0.56738,-0.405274 0.40527,-0.202637 1.01318,-0.243164 0.64844,-0.08105 1.66163,-0.08105 0.97265,0 1.62109,0.08105 0.64844,0.04053 1.01318,0.243164 0.36475,0.16211 0.52686,0.405274 0.20264,0.202636 0.20264,0.526855 z M 951.17676,-35.09668 q 0,0.891602 -0.0405,1.499512 -0.0405,0.60791 -0.16211,0.972656 -0.12158,0.324219 -0.32422,0.526856 -0.16211,0.162109 -0.48633,0.162109 -0.32421,0 -0.81054,-0.162109 -0.4458,-0.202637 -1.05371,-0.364746 -0.56739,-0.202637 -1.29688,-0.364746 -0.72949,-0.16211 -1.58057,-0.16211 -1.01318,0 -1.98583,0.405274 -0.97266,0.405273 -2.0669,1.337402 -1.05371,0.932129 -2.229,2.472168 -1.1753,1.540039 -2.59375,3.769043 v 23.9921874 q 0,0.32421876 -0.16211,0.56738282 -0.16211,0.20263672 -0.52686,0.36474609 -0.36474,0.16210938 -1.01318,0.24316406 -0.64844,0.0810547 -1.66162,0.0810547 -0.97266,0 -1.6211,-0.0810547 -0.64843,-0.08105468 -1.05371,-0.24316406 -0.36474,-0.16210937 -0.52685,-0.36474609 -0.12159,-0.24316406 -0.12159,-0.56738282 V -37.487793 q 0,-0.324219 0.12159,-0.526855 0.12158,-0.243164 0.48633,-0.405274 0.36474,-0.202637 0.93212,-0.243164 0.56739,-0.08105 1.49952,-0.08105 0.8916,0 1.45898,0.08105 0.60791,0.04053 0.93213,0.243164 0.32422,0.16211 0.4458,0.405274 0.16211,0.202636 0.16211,0.526855 v 5.309082 q 1.49951,-2.188476 2.79639,-3.566406 1.3374,-1.37793 2.51269,-2.147949 1.17529,-0.810547 2.31006,-1.094239 1.17529,-0.324218 2.35059,-0.324218 0.52685,0 1.17529,0.08105 0.68896,0.04053 1.41846,0.202637 0.72949,0.162109 1.29687,0.364746 0.60791,0.202637 0.85107,0.405274 0.24317,0.202636 0.32422,0.405273 0.0811,0.162109 0.12159,0.445801 0.0811,0.283691 0.0811,0.851074 0.0405,0.526855 0.0405,1.458984 z m 39.02783,34.0834964 q 0,0.32421876 -0.16211,0.56738282 -0.16211,0.20263672 -0.52686,0.36474609 -0.36474,0.16210938 -1.01318,0.24316406 -0.64844,0.0810547 -1.62109,0.0810547 -1.01319,0 -1.66162,-0.0810547 -0.64844,-0.08105468 -1.01319,-0.24316406 -0.36474,-0.16210937 -0.52685,-0.36474609 -0.16211,-0.24316406 -0.16211,-0.56738282 V -22.371094 q 0,-3.120605 -0.48633,-5.02539 -0.48633,-1.904786 -1.41846,-3.282715 -0.93213,-1.37793 -2.43164,-2.107422 -1.45898,-0.729492 -3.40429,-0.729492 -2.5127,0 -5.0254,1.783203 -2.51269,1.783203 -5.26855,5.228027 v 25.4916994 q 0,0.32421876 -0.16211,0.56738282 -0.16211,0.20263672 -0.52685,0.36474609 -0.36475,0.16210938 -1.01319,0.24316406 -0.64844,0.0810547 -1.66162,0.0810547 -0.97266,0 -1.62109,-0.0810547 -0.64844,-0.08105468 -1.05371,-0.24316406 -0.36475,-0.16210937 -0.52686,-0.36474609 -0.12158,-0.24316406 -0.12158,-0.56738282 V -37.487793 q 0,-0.324219 0.12158,-0.526855 0.12158,-0.243164 0.48633,-0.405274 0.36474,-0.202637 0.93213,-0.243164 0.56738,-0.08105 1.49951,-0.08105 0.8916,0 1.45898,0.08105 0.60791,0.04053 0.93213,0.243164 0.32422,0.16211 0.4458,0.405274 0.16211,0.202636 0.16211,0.526855 v 4.822754 q 3.08008,-3.444824 6.11963,-5.025391 3.08008,-1.621093 6.20069,-1.621093 3.64746,0 6.11962,1.256347 2.5127,1.215821 4.05274,3.282715 1.54004,2.066895 2.18847,4.863281 0.68897,2.75586 0.68897,6.646485 z m 64.88431,-18.6425784 q 0,4.458008 -1.1753,8.227051 -1.1753,3.7285157 -3.5259,6.4438477 -2.3101,2.715332 -5.8359,4.25537111 -3.4854,1.49951172 -8.1055,1.49951172 -4.4985,0 -7.8623,-1.33740234 -3.3233,-1.33740239 -5.5523,-3.89062499 -2.229,-2.5532227 -3.3232,-6.2006832 -1.0942,-3.647461 -1.0942,-8.267579 0,-4.458007 1.1347,-8.186523 1.1753,-3.769043 3.4854,-6.484375 2.3506,-2.715332 5.8359,-4.214844 3.4854,-1.499511 8.146,-1.499511 4.4985,0 7.8218,1.337402 3.3638,1.337402 5.5928,3.890625 2.229,2.553223 3.3232,6.200684 1.1348,3.64746 1.1348,8.22705 z m -7.0518,0.445801 q 0,-2.958496 -0.5674,-5.592773 -0.5268,-2.634278 -1.7832,-4.620118 -1.2563,-1.985839 -3.4043,-3.120605 -2.1479,-1.175293 -5.3496,-1.175293 -2.9585,0 -5.1064,1.053711 -2.1074,1.053711 -3.4854,2.999023 -1.3779,1.904786 -2.0669,4.539063 -0.6484,2.634277 -0.6484,5.754883 0,2.999023 0.5268,5.6333 0.5674,2.634278 1.8238,4.6201177 1.2968,1.9453125 3.4448,3.1206054 2.1479,1.1347657 5.3496,1.1347657 2.918,0 5.0659,-1.053711 2.148,-1.0537109 3.5259,-2.9584961 1.3779,-1.9047847 2.0264,-4.5390627 0.6484,-2.634277 0.6484,-5.79541 z m 48.3086,18.1967774 q 0,0.32421876 -0.1621,0.56738282 -0.1621,0.20263672 -0.5269,0.36474609 -0.3647,0.16210938 -1.0131,0.24316406 -0.6485,0.0810547 -1.6211,0.0810547 -1.0132,0 -1.6617,-0.0810547 -0.6484,-0.08105468 -1.0131,-0.24316406 -0.3648,-0.16210937 -0.5269,-0.36474609 -0.1621,-0.24316406 -0.1621,-0.56738282 V -22.371094 q 0,-3.120605 -0.4863,-5.02539 -0.4864,-1.904786 -1.4185,-3.282715 -0.9321,-1.37793 -2.4316,-2.107422 -1.459,-0.729492 -3.4043,-0.729492 -2.5127,0 -5.0254,1.783203 -2.5127,1.783203 -5.2686,5.228027 v 25.4916994 q 0,0.32421876 -0.1621,0.56738282 -0.1621,0.20263672 -0.5268,0.36474609 -0.3648,0.16210938 -1.0132,0.24316406 -0.6485,0.0810547 -1.6616,0.0810547 -0.9727,0 -1.6211,-0.0810547 -0.6485,-0.08105468 -1.0538,-0.24316406 -0.3647,-0.16210937 -0.5268,-0.36474609 -0.1216,-0.24316406 -0.1216,-0.56738282 V -37.487793 q 0,-0.324219 0.1216,-0.526855 0.1216,-0.243164 0.4863,-0.405274 0.3648,-0.202637 0.9322,-0.243164 0.5673,-0.08105 1.4995,-0.08105 0.8916,0 1.4589,0.08105 0.608,0.04053 0.9322,0.243164 0.3242,0.16211 0.4458,0.405274 0.1621,0.202636 0.1621,0.526855 v 4.822754 q 3.0801,-3.444824 6.1196,-5.025391 3.0801,-1.621093 6.2007,-1.621093 3.6475,0 6.1196,1.256347 2.5127,1.215821 4.0528,3.282715 1.54,2.066895 2.1884,4.863281 0.689,2.75586 0.689,6.646485 z"
         id="path7" /><path
         style="fill:#00ff00"
         d="m 1146.2754,-3.6879883 q 0,1.175293 -0.1621,1.8642578 -0.1621,0.6889649 -0.4863,1.01318362 -0.3243,0.32421875 -0.9727,0.60791016 -0.6484,0.28369141 -1.4995,0.44580078 -0.8106,0.20263672 -1.7427,0.32421875 -0.9321,0.12158203 -1.8642,0.12158203 -2.837,0 -4.8633,-0.72949218 -2.0264,-0.77001954 -3.3233,-2.26953126 -1.2968,-1.5400391 -1.9048,-3.8500976 -0.5673,-2.350586 -0.5673,-5.5117188 v -21.317383 h -5.1065 q -0.6079,0 -0.9726,-0.648437 -0.3648,-0.648438 -0.3648,-2.107422 0,-0.77002 0.081,-1.296875 0.1215,-0.526856 0.2837,-0.851074 0.1621,-0.364746 0.4052,-0.486329 0.2837,-0.162109 0.6079,-0.162109 h 5.066 v -8.672851 q 0,-0.283692 0.1215,-0.526856 0.1622,-0.243164 0.5269,-0.405273 0.4053,-0.202637 1.0537,-0.283692 0.6484,-0.08105 1.6211,-0.08105 1.0132,0 1.6616,0.08105 0.6485,0.08106 1.0132,0.283692 0.3648,0.162109 0.5269,0.405273 0.1621,0.243164 0.1621,0.526856 v 8.672851 h 9.3618 q 0.3242,0 0.5674,0.162109 0.2431,0.121583 0.4052,0.486329 0.2027,0.324218 0.2837,0.851074 0.081,0.526855 0.081,1.296875 0,1.458984 -0.3648,2.107422 -0.3647,0.648437 -0.9726,0.648437 h -9.3618 v 20.344727 q 0,3.7690427 1.0942,5.7143552 1.1348,1.9047852 4.0122,1.9047852 0.9321,0 1.6616,-0.1621094 0.7295,-0.2026367 1.2969,-0.4052734 0.5674,-0.2026368 0.9727,-0.3647461 0.4052,-0.2026367 0.7295,-0.2026367 0.2026,0 0.3647,0.121582 0.2026,0.081055 0.2837,0.3647461 0.1216,0.2836914 0.2026,0.7700195 0.081,0.4863281 0.081,1.2158203 z m 40.2436,2.6748047 q 0,0.32421876 -0.1621,0.56738282 -0.1621,0.20263672 -0.5268,0.36474609 -0.3648,0.16210938 -1.0132,0.24316406 -0.6484,0.0810547 -1.6211,0.0810547 -1.0132,0 -1.6616,-0.0810547 -0.6485,-0.08105468 -1.0132,-0.24316406 -0.3647,-0.16210937 -0.5269,-0.36474609 -0.1621,-0.24316406 -0.1621,-0.56738282 V -22.371094 q 0,-3.120605 -0.4863,-5.02539 -0.4863,-1.904786 -1.4185,-3.282715 -0.9321,-1.37793 -2.4316,-2.107422 -1.459,-0.729492 -3.4043,-0.729492 -2.5127,0 -5.0254,1.783203 -2.5127,1.783203 -5.2685,5.228027 v 25.4916994 q 0,0.32421876 -0.1621,0.56738282 -0.1622,0.20263672 -0.5269,0.36474609 -0.3647,0.16210938 -1.0132,0.24316406 -0.6484,0.0810547 -1.6616,0.0810547 -0.9727,0 -1.6211,-0.0810547 -0.6484,-0.08105468 -1.0537,-0.24316406 -0.3648,-0.16210937 -0.5269,-0.36474609 -0.1215,-0.24316406 -0.1215,-0.56738282 V -55.157715 q 0,-0.324219 0.1215,-0.567383 0.1621,-0.243164 0.5269,-0.405273 0.4053,-0.162109 1.0537,-0.243164 0.6484,-0.08106 1.6211,-0.08106 1.0132,0 1.6616,0.08106 0.6485,0.08105 1.0132,0.243164 0.3647,0.162109 0.5269,0.405273 0.1621,0.243164 0.1621,0.567383 v 21.844238 q 2.8774,-3.03955 5.7954,-4.498535 2.9179,-1.499511 5.8764,-1.499511 3.6475,0 6.1197,1.256347 2.5127,1.215821 4.0527,3.282715 1.54,2.066895 2.1885,4.863281 0.6889,2.75586 0.6889,6.687012 z m 43.3238,-19.8178714 q 0,1.580567 -0.8106,2.269532 -0.77,0.648437 -1.7832,0.648437 h -23.9111 q 0,3.039551 0.6079,5.471191 0.6079,2.431641 2.0264,4.1743169 1.4184,1.7426758 3.688,2.6748047 2.2695,0.9321289 5.5522,0.9321289 2.5938,0 4.6201,-0.4052735 2.0264,-0.4458007 3.4854,-0.9726562 1.4995,-0.5268555 2.4316,-0.9321289 0.9727,-0.4458008 1.459,-0.4458008 0.2837,0 0.4863,0.1621094 0.2432,0.121582 0.3648,0.4052734 0.1216,0.2836914 0.1621,0.8105469 0.081,0.4863281 0.081,1.2158203 0,0.5268555 -0.041,0.9321289 -0.04,0.3647461 -0.1216,0.6889648 -0.04,0.2836914 -0.2026,0.5268555 -0.1216,0.2431641 -0.3648,0.4863281 -0.2026,0.2026368 -1.2968,0.7294922 -1.0943,0.48632815 -2.8369,0.97265627 Q 1221.6968,0 1219.3867,0.36474609 q -2.2695,0.40527344 -4.8633,0.40527344 -4.4985,0 -7.9028,-1.25634766 -3.3638,-1.25634767 -5.6738,-3.72851557 -2.3101,-2.472168 -3.4854,-6.2006833 -1.1753,-3.728516 -1.1753,-8.672852 0,-4.701172 1.2159,-8.429687 1.2158,-3.769043 3.4853,-6.362793 2.3101,-2.634278 5.5523,-4.012207 3.2421,-1.418457 7.2543,-1.418457 4.2959,0 7.295,1.377929 3.0395,1.37793 4.9848,3.728516 1.9453,2.310058 2.8369,5.471191 0.9322,3.120606 0.9322,6.687012 z m -6.7276,-1.98584 q 0.1216,-5.268554 -2.3506,-8.267578 -2.4316,-2.999023 -7.2543,-2.999023 -2.4722,0 -4.3365,0.932129 -1.8642,0.932129 -3.1206,2.472168 -1.2563,1.540039 -1.9453,3.606933 -0.689,2.026368 -0.77,4.255371 z m 58.562,11.874512 q 0,2.7963869 -1.0537,4.9848635 -1.0131,2.1884765 -2.9179,3.6879882 -1.9048,1.49951177 -4.5391,2.2695313 -2.6343,0.77001953 -5.7954,0.77001953 -1.9453,0 -3.7285,-0.32421875 -1.7427,-0.28369141 -3.1612,-0.72949219 -1.3779,-0.48632812 -2.3505,-0.97265629 -0.9727,-0.5268554 -1.4185,-0.9321289 -0.4458,-0.4052734 -0.6484,-1.1347656 -0.2027,-0.7294922 -0.2027,-1.9858398 0,-0.7700196 0.081,-1.296875 0.081,-0.5268555 0.2026,-0.8510742 0.1216,-0.3242188 0.3242,-0.4458008 0.2432,-0.1621094 0.5269,-0.1621094 0.4458,0 1.2969,0.5673828 0.8916,0.5268555 2.1479,1.175293 1.2969,0.6484375 3.0396,1.2158203 1.7426,0.5268555 4.0122,0.5268555 1.7021,0 3.0801,-0.3647461 1.3779,-0.3647461 2.3911,-1.053711 1.0132,-0.7294922 1.54,-1.8237304 0.5674,-1.0942383 0.5674,-2.5937497 0,-1.540039 -0.8106,-2.59375 -0.77,-1.053711 -2.0669,-1.864258 -1.2968,-0.810547 -2.9179,-1.418457 -1.6211,-0.648438 -3.3638,-1.337403 -1.7021,-0.688964 -3.3638,-1.540039 -1.6211,-0.891601 -2.9179,-2.147949 -1.2969,-1.256347 -2.1075,-2.999023 -0.77,-1.742676 -0.77,-4.174317 0,-2.147949 0.8106,-4.093261 0.8511,-1.98584 2.5127,-3.444825 1.6616,-1.499511 4.1338,-2.391113 2.5127,-0.891601 5.8359,-0.891601 1.459,0 2.918,0.243164 1.459,0.243164 2.6342,0.60791 1.1753,0.364746 1.9859,0.810547 0.8511,0.405273 1.2563,0.729492 0.4458,0.324219 0.5674,0.567383 0.1621,0.243164 0.2027,0.567382 0.081,0.283692 0.1215,0.729493 0.081,0.4458 0.081,1.094238 0,0.688965 -0.081,1.21582 -0.041,0.486328 -0.2026,0.810547 -0.1216,0.324219 -0.3242,0.486328 -0.2027,0.121582 -0.4458,0.121582 -0.3648,0 -1.0537,-0.4458 -0.689,-0.445801 -1.7832,-0.932129 -1.0943,-0.526856 -2.5938,-0.972657 -1.459,-0.4458 -3.3638,-0.4458 -1.7021,0 -2.999,0.405273 -1.2969,0.364746 -2.1479,1.094238 -0.8106,0.688965 -1.2564,1.661621 -0.4052,0.972657 -0.4052,2.107422 0,1.580567 0.8105,2.674805 0.8105,1.053711 2.1074,1.864258 1.2969,0.810547 2.9585,1.458984 1.6616,0.648438 3.3638,1.337402 1.7427,0.688965 3.4043,1.54004 1.7021,0.851074 2.999,2.066894 1.2969,1.21582 2.0669,2.917969 0.8105,1.702148 0.8105,4.052734 z m 27.5992,7.2543947 q 0,1.175293 -0.1621,1.8642578 -0.1622,0.6889649 -0.4864,1.01318362 -0.3242,0.32421875 -0.9726,0.60791016 -0.6485,0.28369141 -1.4995,0.44580078 -0.8106,0.20263672 -1.7427,0.32421875 -0.9321,0.12158203 -1.8643,0.12158203 -2.8369,0 -4.8633,-0.72949218 -2.0263,-0.77001954 -3.3232,-2.26953126 -1.2969,-1.5400391 -1.9048,-3.8500976 -0.5674,-2.350586 -0.5674,-5.5117188 v -21.317383 h -5.1064 q -0.6079,0 -0.9727,-0.648437 -0.3647,-0.648438 -0.3647,-2.107422 0,-0.77002 0.081,-1.296875 0.1216,-0.526856 0.2837,-0.851074 0.1621,-0.364746 0.4053,-0.486329 0.2837,-0.162109 0.6079,-0.162109 h 5.0659 v -8.672851 q 0,-0.283692 0.1216,-0.526856 0.1621,-0.243164 0.5269,-0.405273 0.4052,-0.202637 1.0537,-0.283692 0.6484,-0.08105 1.6211,-0.08105 1.0132,0 1.6616,0.08105 0.6484,0.08106 1.0132,0.283692 0.3647,0.162109 0.5268,0.405273 0.1621,0.243164 0.1621,0.526856 v 8.672851 h 9.3619 q 0.3242,0 0.5673,0.162109 0.2432,0.121583 0.4053,0.486329 0.2027,0.324218 0.2837,0.851074 0.081,0.526855 0.081,1.296875 0,1.458984 -0.3648,2.107422 -0.3647,0.648437 -0.9726,0.648437 h -9.3619 v 20.344727 q 0,3.7690427 1.0943,5.7143552 1.1348,1.9047852 4.0122,1.9047852 0.9321,0 1.6616,-0.1621094 0.7295,-0.2026367 1.2969,-0.4052734 0.5674,-0.2026368 0.9726,-0.3647461 0.4053,-0.2026367 0.7295,-0.2026367 0.2027,0 0.3648,0.121582 0.2026,0.081055 0.2837,0.3647461 0.1216,0.2836914 0.2026,0.7700195 0.081,0.4863281 0.081,1.2158203 z m 41.9458,-15.9677737 q 0,4.458008 -1.1753,8.227051 -1.1753,3.7285157 -3.5259,6.4438477 -2.3101,2.715332 -5.8359,4.25537111 -3.4854,1.49951172 -8.1055,1.49951172 -4.4985,0 -7.8623,-1.33740234 -3.3233,-1.33740239 -5.5523,-3.89062499 -2.229,-2.5532227 -3.3232,-6.2006832 -1.0942,-3.647461 -1.0942,-8.267579 0,-4.458007 1.1347,-8.186523 1.1753,-3.769043 3.4854,-6.484375 2.3506,-2.715332 5.8359,-4.214844 3.4854,-1.499511 8.146,-1.499511 4.4985,0 7.8218,1.337402 3.3638,1.337402 5.5928,3.890625 2.229,2.553223 3.3232,6.200684 1.1348,3.64746 1.1348,8.22705 z m -7.0518,0.445801 q 0,-2.958496 -0.5674,-5.592773 -0.5268,-2.634278 -1.7832,-4.620118 -1.2563,-1.985839 -3.4043,-3.120605 -2.1479,-1.175293 -5.3496,-1.175293 -2.9585,0 -5.1064,1.053711 -2.1074,1.053711 -3.4854,2.999023 -1.3779,1.904786 -2.0669,4.539063 -0.6484,2.634277 -0.6484,5.754883 0,2.999023 0.5268,5.6333 0.5674,2.634278 1.8238,4.6201177 1.2969,1.9453125 3.4448,3.1206054 2.1479,1.1347657 5.3496,1.1347657 2.918,0 5.0659,-1.053711 2.148,-1.0537109 3.5259,-2.9584961 1.3779,-1.9047847 2.0264,-4.5390627 0.6484,-2.634277 0.6484,-5.79541 z m 46.4443,-18.358887 q 0,0.16211 -0.041,0.364746 0,0.16211 -0.041,0.364747 -0.041,0.202636 -0.1216,0.4458 -0.041,0.243164 -0.1216,0.526856 l -12.4419,34.6508787 q -0.1621,0.44580077 -0.4458,0.72949217 -0.2431,0.28369141 -0.77,0.44580079 -0.5268,0.16210937 -1.3374,0.20263671 -0.8105,0.0810547 -2.0264,0.0810547 -1.2158,0 -2.0263,-0.0810547 -0.8106,-0.08105468 -1.3374,-0.24316406 -0.4864,-0.16210937 -0.77,-0.44580078 -0.2837,-0.28369141 -0.4458,-0.68896483 l -12.4014,-34.6508787 q -0.1621,-0.486328 -0.2837,-0.851074 -0.081,-0.364747 -0.1216,-0.526856 0,-0.202637 0,-0.324219 0,-0.324218 0.1621,-0.567382 0.1621,-0.243165 0.5269,-0.364747 0.4053,-0.162109 1.0132,-0.202636 0.6484,-0.04053 1.5805,-0.04053 1.1753,0 1.8643,0.08105 0.7295,0.04053 1.0942,0.202637 0.4053,0.162109 0.5674,0.405273 0.2026,0.243164 0.3648,0.60791 l 10.2939,30.0712894 0.1621,0.4863282 0.1216,-0.4863282 10.1724,-30.0712894 q 0.081,-0.364746 0.2836,-0.60791 0.2027,-0.243164 0.5674,-0.405273 0.4053,-0.16211 1.0537,-0.202637 0.689,-0.08105 1.7832,-0.08105 0.9322,0 1.5401,0.04053 0.6079,0.04053 0.9321,0.202636 0.3648,0.16211 0.4863,0.405274 0.1621,0.202637 0.1621,0.526855 z m 37.8931,16.737793 q 0,1.580567 -0.8105,2.269532 -0.7701,0.648437 -1.7832,0.648437 h -23.9112 q 0,3.039551 0.6079,5.471191 0.608,2.431641 2.0264,4.1743169 1.4185,1.7426758 3.688,2.6748047 2.2695,0.9321289 5.5522,0.9321289 2.5938,0 4.6202,-0.4052735 2.0263,-0.4458007 3.4853,-0.9726562 1.4995,-0.5268555 2.4317,-0.9321289 0.9726,-0.4458008 1.4589,-0.4458008 0.2837,0 0.4864,0.1621094 0.2431,0.121582 0.3647,0.4052734 0.1216,0.2836914 0.1621,0.8105469 0.081,0.4863281 0.081,1.2158203 0,0.5268555 -0.041,0.9321289 -0.041,0.3647461 -0.1215,0.6889648 -0.041,0.2836914 -0.2027,0.5268555 -0.1216,0.2431641 -0.3647,0.4863281 -0.2027,0.2026368 -1.2969,0.7294922 -1.0942,0.48632815 -2.8369,0.97265627 Q 1420.3618,0 1418.0518,0.36474609 q -2.2696,0.40527344 -4.8633,0.40527344 -4.4986,0 -7.9029,-1.25634766 -3.3637,-1.25634767 -5.6738,-3.72851557 -2.31,-2.472168 -3.4853,-6.2006833 -1.1753,-3.728516 -1.1753,-8.672852 0,-4.701172 1.2158,-8.429687 1.2158,-3.769043 3.4853,-6.362793 2.3101,-2.634278 5.5523,-4.012207 3.2422,-1.418457 7.2544,-1.418457 4.2959,0 7.2949,1.377929 3.0396,1.37793 4.9849,3.728516 1.9453,2.310058 2.8369,5.471191 0.9321,3.120606 0.9321,6.687012 z m -6.7275,-1.98584 q 0.1216,-5.268554 -2.3506,-8.267578 -2.4317,-2.999023 -7.2544,-2.999023 -2.4722,0 -4.3364,0.932129 -1.8643,0.932129 -3.1206,2.472168 -1.2564,1.540039 -1.9454,3.606933 -0.6889,2.026368 -0.77,4.255371 z"
         id="path8" /><path
         d="m 1458.5386,-36.555664 q 0,0.324219 -0.1216,0.567383 -0.1216,0.243164 -0.4458,0.405273 -0.3242,0.16211 -0.8106,0.243164 -0.4458,0.08105 -1.1752,0.08105 -0.7295,0 -1.2159,-0.08105 -0.4863,-0.08105 -0.8105,-0.243164 -0.2837,-0.162109 -0.4053,-0.405273 -0.1216,-0.243164 -0.1216,-0.567383 l -0.9321,-18.76416 q 0,-0.324219 0.2026,-0.567383 0.2027,-0.243164 0.6079,-0.405273 0.4053,-0.16211 1.0538,-0.243165 0.6889,-0.08105 1.6211,-0.08105 0.9726,0 1.621,0.08105 0.689,0.08105 1.0943,0.243165 0.4053,0.162109 0.5674,0.405273 0.2026,0.243164 0.1621,0.567383 z m -14.3872,0 q 0,0.324219 -0.1216,0.567383 -0.1216,0.243164 -0.4458,0.405273 -0.3242,0.16211 -0.8106,0.243164 -0.4458,0.08105 -1.1753,0.08105 -0.7294,0 -1.2158,-0.08105 -0.4863,-0.08105 -0.8105,-0.243164 -0.2837,-0.162109 -0.4053,-0.405273 -0.1216,-0.243164 -0.1216,-0.567383 l -0.9321,-18.76416 q 0,-0.324219 0.2026,-0.567383 0.2027,-0.243164 0.6079,-0.405273 0.4053,-0.16211 1.0538,-0.243165 0.6889,-0.08105 1.621,-0.08105 1.9454,0 2.7154,0.324219 0.77,0.324218 0.77,0.972656 z"
         id="path9" /></g><text
       fill="#ff0000"
       font-family="Calibri, Calibri_MSFontService, sans-serif"
       font-weight="400"
       font-size="83px"
       transform="translate(3244.21,305)"
       id="text3" /><text
       fill="#00cc00"
       font-family="Calibri, Calibri_MSFontService, sans-serif"
       font-weight="400"
       font-size="83px"
       transform="translate(3512.34,305)"
       id="text4" /><text
       font-family="Calibri, Calibri_MSFontService, sans-serif"
       font-weight="400"
       font-size="83px"
       transform="translate(3822.26,305)"
       id="text5" /></g></svg>
